<?xml version="1.0" encoding="UTF-8"?>
<svg width="2796px" height="1940px" version="1.1" viewBox="-1165 -130 2796 1940" xmlns="http://www.w3.org/2000/svg">
    <g id="column16" stroke-width="0" transform="translate(-1155, 0)">
        <path fill="#a00" d="m-10-130h156v1940h-156z" />
        <path fill="#fff" d="m0 -120h136v120h-136" />
        <path fill="#ffa" d="m0 0h136v120h-136" />
        <path fill="#faa" d="m0 120h136v120h-136" />
        <path fill="#faf" d="m0 240h136v120h-136" />
        <path fill="#aaf" d="m0 360h136v120h-136" />
        <path fill="#fff" d="m0 480h136v120h-136" />
        <path fill="#ffa" d="m0 600h136v120h-136" />
        <path fill="#faa" d="m0 720h136v120h-136" />
        <path fill="#faf" d="m0 840h136v120h-136" />
        <path fill="#aaf" d="m0 960h136v120h-136" />
        <path fill="#fff" d="m0 1080h136v120h-136" />
        <path fill="#ffa" d="m0 1200h136v120h-136" />
        <path fill="#faa" d="m0 1320h136v120h-136" />
        <path fill="#faf" d="m0 1440h136v120h-136" />
        <path fill="#aaf" d="m0 1560h136v120h-136" />
        <path fill="#fff" d="m0 1680h136v120h-136" />

        <path fill="#aff" d="m10 -110h116v100h-116" />
        <path fill="#aff" d="m10 10h116v100h-116" />
        <path fill="#aff" d="m10 130h116v100h-116" />
        <path fill="#aff" d="m10 250h116v100h-116" />
        <path fill="#aff" d="m10 370h116v100h-116" />
        <path fill="#aff" d="m10 490h116v100h-116" />
        <path fill="#aff" d="m10 610h116v100h-116" />
        <path fill="#aff" d="m10 730h116v100h-116" />
        <path fill="#aff" d="m10 850h116v100h-116" />
        <path fill="#aff" d="m10 970h116v100h-116" />
        <path fill="#aff" d="m10 1090h116v100h-116" />
        <path fill="#aff" d="m10 1210h116v100h-116" />
        <path fill="#aff" d="m10 1330h116v100h-116" />
        <path fill="#aff" d="m10 1450h116v100h-116" />
        <path fill="#aff" d="m10 1570h116v100h-116" />
        <path fill="#aff" d="m10 1690h116v100h-116" />
    </g>
    <g id="column15" stroke-width="0" transform="translate(-990, 0)">
        <path fill="#a00" d="m-10-130h156v1940h-156z" />
        <path fill="#fff" d="m0 -120h136v120h-136" />
        <path fill="#ffa" d="m0 0h136v120h-136" />
        <path fill="#faa" d="m0 120h136v120h-136" />
        <path fill="#faf" d="m0 240h136v120h-136" />
        <path fill="#aaf" d="m0 360h136v120h-136" />
        <path fill="#fff" d="m0 480h136v120h-136" />
        <path fill="#ffa" d="m0 600h136v120h-136" />
        <path fill="#faa" d="m0 720h136v120h-136" />
        <path fill="#faf" d="m0 840h136v120h-136" />
        <path fill="#aaf" d="m0 960h136v120h-136" />
        <path fill="#fff" d="m0 1080h136v120h-136" />
        <path fill="#ffa" d="m0 1200h136v120h-136" />
        <path fill="#faa" d="m0 1320h136v120h-136" />
        <path fill="#faf" d="m0 1440h136v120h-136" />
        <path fill="#aaf" d="m0 1560h136v120h-136" />
        <path fill="#fff" d="m0 1680h136v120h-136" />

        <path fill="#aff" d="m10 -110h116v100h-116" />
        <path fill="#aff" d="m10 10h116v100h-116" />
        <path fill="#aff" d="m10 130h116v100h-116" />
        <path fill="#aff" d="m10 250h116v100h-116" />
        <path fill="#aff" d="m10 370h116v100h-116" />
        <path fill="#aff" d="m10 490h116v100h-116" />
        <path fill="#aff" d="m10 610h116v100h-116" />
        <path fill="#aff" d="m10 730h116v100h-116" />
        <path fill="#aff" d="m10 850h116v100h-116" />
        <path fill="#aff" d="m10 970h116v100h-116" />
        <path fill="#aff" d="m10 1090h116v100h-116" />
        <path fill="#aff" d="m10 1210h116v100h-116" />
        <path fill="#aff" d="m10 1330h116v100h-116" />
        <path fill="#aff" d="m10 1450h116v100h-116" />
        <path fill="#aff" d="m10 1570h116v100h-116" />
        <path fill="#aff" d="m10 1690h116v100h-116" />
    </g>
    <g id="column14" stroke-width="0" transform="translate(-825, 0)">
        <path fill="#a00" d="m-10-130h156v1940h-156z" />
        <path fill="#fff" d="m0 -120h136v120h-136" />
        <path fill="#ffa" d="m0 0h136v120h-136" />
        <path fill="#faa" d="m0 120h136v120h-136" />
        <path fill="#faf" d="m0 240h136v120h-136" />
        <path fill="#aaf" d="m0 360h136v120h-136" />
        <path fill="#fff" d="m0 480h136v120h-136" />
        <path fill="#ffa" d="m0 600h136v120h-136" />
        <path fill="#faa" d="m0 720h136v120h-136" />
        <path fill="#faf" d="m0 840h136v120h-136" />
        <path fill="#aaf" d="m0 960h136v120h-136" />
        <path fill="#fff" d="m0 1080h136v120h-136" />
        <path fill="#ffa" d="m0 1200h136v120h-136" />
        <path fill="#faa" d="m0 1320h136v120h-136" />
        <path fill="#faf" d="m0 1440h136v120h-136" />
        <path fill="#aaf" d="m0 1560h136v120h-136" />
        <path fill="#fff" d="m0 1680h136v120h-136" />

        <path fill="#aff" d="m10 -110h116v100h-116" />
        <path fill="#aff" d="m10 10h116v100h-116" />
        <path fill="#aff" d="m10 130h116v100h-116" />
        <path fill="#aff" d="m10 250h116v100h-116" />
        <path fill="#aff" d="m10 370h116v100h-116" />
        <path fill="#aff" d="m10 490h116v100h-116" />
        <path fill="#aff" d="m10 610h116v100h-116" />
        <path fill="#aff" d="m10 730h116v100h-116" />
        <path fill="#aff" d="m10 850h116v100h-116" />
        <path fill="#aff" d="m10 970h116v100h-116" />
        <path fill="#aff" d="m10 1090h116v100h-116" />
        <path fill="#aff" d="m10 1210h116v100h-116" />
        <path fill="#aff" d="m10 1330h116v100h-116" />
        <path fill="#aff" d="m10 1450h116v100h-116" />
        <path fill="#aff" d="m10 1570h116v100h-116" />
        <path fill="#aff" d="m10 1690h116v100h-116" />
    </g>
    <g id="column13" stroke-width="0" transform="translate(-660, 0)">
        <path fill="#a00" d="m-10-130h156v1940h-156z" />
        <path fill="#fff" d="m0 -120h136v120h-136" />
        <path fill="#ffa" d="m0 0h136v120h-136" />
        <path fill="#faa" d="m0 120h136v120h-136" />
        <path fill="#faf" d="m0 240h136v120h-136" />
        <path fill="#aaf" d="m0 360h136v120h-136" />
        <path fill="#fff" d="m0 480h136v120h-136" />
        <path fill="#ffa" d="m0 600h136v120h-136" />
        <path fill="#faa" d="m0 720h136v120h-136" />
        <path fill="#faf" d="m0 840h136v120h-136" />
        <path fill="#aaf" d="m0 960h136v120h-136" />
        <path fill="#fff" d="m0 1080h136v120h-136" />
        <path fill="#ffa" d="m0 1200h136v120h-136" />
        <path fill="#faa" d="m0 1320h136v120h-136" />
        <path fill="#faf" d="m0 1440h136v120h-136" />
        <path fill="#aaf" d="m0 1560h136v120h-136" />
        <path fill="#fff" d="m0 1680h136v120h-136" />

        <path fill="#aff" d="m10 -110h116v100h-116" />
        <path fill="#aff" d="m10 10h116v100h-116" />
        <path fill="#aff" d="m10 130h116v100h-116" />
        <path fill="#aff" d="m10 250h116v100h-116" />
        <path fill="#aff" d="m10 370h116v100h-116" />
        <path fill="#aff" d="m10 490h116v100h-116" />
        <path fill="#aff" d="m10 610h116v100h-116" />
        <path fill="#aff" d="m10 730h116v100h-116" />
        <path fill="#aff" d="m10 850h116v100h-116" />
        <path fill="#aff" d="m10 970h116v100h-116" />
        <path fill="#aff" d="m10 1090h116v100h-116" />
        <path fill="#aff" d="m10 1210h116v100h-116" />
        <path fill="#aff" d="m10 1330h116v100h-116" />
        <path fill="#aff" d="m10 1450h116v100h-116" />
        <path fill="#aff" d="m10 1570h116v100h-116" />
        <path fill="#aff" d="m10 1690h116v100h-116" />
    </g>
    <g id="column12" stroke-width="0" transform="translate(-495, 0)">
        <path fill="#a00" d="m-10-130h156v1940h-156z" />
        <path fill="#fff" d="m0 -120h136v120h-136" />
        <path fill="#ffa" d="m0 0h136v120h-136" />
        <path fill="#faa" d="m0 120h136v120h-136" />
        <path fill="#faf" d="m0 240h136v120h-136" />
        <path fill="#aaf" d="m0 360h136v120h-136" />
        <path fill="#fff" d="m0 480h136v120h-136" />
        <path fill="#ffa" d="m0 600h136v120h-136" />
        <path fill="#faa" d="m0 720h136v120h-136" />
        <path fill="#faf" d="m0 840h136v120h-136" />
        <path fill="#aaf" d="m0 960h136v120h-136" />
        <path fill="#fff" d="m0 1080h136v120h-136" />
        <path fill="#ffa" d="m0 1200h136v120h-136" />
        <path fill="#faa" d="m0 1320h136v120h-136" />
        <path fill="#faf" d="m0 1440h136v120h-136" />
        <path fill="#aaf" d="m0 1560h136v120h-136" />
        <path fill="#fff" d="m0 1680h136v120h-136" />

        <path fill="#aff" d="m10 -110h116v100h-116" />
        <path fill="#aff" d="m10 10h116v100h-116" />
        <path fill="#aff" d="m10 130h116v100h-116" />
        <path fill="#aff" d="m10 250h116v100h-116" />
        <path fill="#aff" d="m10 370h116v100h-116" />
        <path fill="#aff" d="m10 490h116v100h-116" />
        <path fill="#aff" d="m10 610h116v100h-116" />
        <path fill="#aff" d="m10 730h116v100h-116" />
        <path fill="#aff" d="m10 850h116v100h-116" />
        <path fill="#aff" d="m10 970h116v100h-116" />
        <path fill="#aff" d="m10 1090h116v100h-116" />
        <path fill="#aff" d="m10 1210h116v100h-116" />
        <path fill="#aff" d="m10 1330h116v100h-116" />
        <path fill="#aff" d="m10 1450h116v100h-116" />
        <path fill="#aff" d="m10 1570h116v100h-116" />
        <path fill="#aff" d="m10 1690h116v100h-116" />
    </g>
    <g id="column11" stroke-width="0" transform="translate(-330, 0)">
        <path fill="#a00" d="m-10-130h156v1940h-156z" />
        <path fill="#fff" d="m0 -120h136v120h-136" />
        <path fill="#ffa" d="m0 0h136v120h-136" />
        <path fill="#faa" d="m0 120h136v120h-136" />
        <path fill="#faf" d="m0 240h136v120h-136" />
        <path fill="#aaf" d="m0 360h136v120h-136" />
        <path fill="#fff" d="m0 480h136v120h-136" />
        <path fill="#ffa" d="m0 600h136v120h-136" />
        <path fill="#faa" d="m0 720h136v120h-136" />
        <path fill="#faf" d="m0 840h136v120h-136" />
        <path fill="#aaf" d="m0 960h136v120h-136" />
        <path fill="#fff" d="m0 1080h136v120h-136" />
        <path fill="#ffa" d="m0 1200h136v120h-136" />
        <path fill="#faa" d="m0 1320h136v120h-136" />
        <path fill="#faf" d="m0 1440h136v120h-136" />
        <path fill="#aaf" d="m0 1560h136v120h-136" />
        <path fill="#fff" d="m0 1680h136v120h-136" />

        <path fill="#aff" d="m10 -110h116v100h-116" />
        <path fill="#aff" d="m10 10h116v100h-116" />
        <path fill="#aff" d="m10 130h116v100h-116" />
        <path fill="#aff" d="m10 250h116v100h-116" />
        <path fill="#aff" d="m10 370h116v100h-116" />
        <path fill="#aff" d="m10 490h116v100h-116" />
        <path fill="#aff" d="m10 610h116v100h-116" />
        <path fill="#aff" d="m10 730h116v100h-116" />
        <path fill="#aff" d="m10 850h116v100h-116" />
        <path fill="#aff" d="m10 970h116v100h-116" />
        <path fill="#aff" d="m10 1090h116v100h-116" />
        <path fill="#aff" d="m10 1210h116v100h-116" />
        <path fill="#aff" d="m10 1330h116v100h-116" />
        <path fill="#aff" d="m10 1450h116v100h-116" />
        <path fill="#aff" d="m10 1570h116v100h-116" />
        <path fill="#aff" d="m10 1690h116v100h-116" />
    </g>
    <g id="column10" stroke-width="0" transform="translate(-165, 0)">
        <path fill="#a00" d="m-10-130h156v1940h-156z" />
        <path fill="#fff" d="m0 -120h136v120h-136" />
        <path fill="#ffa" d="m0 0h136v120h-136" />
        <path fill="#faa" d="m0 120h136v120h-136" />
        <path fill="#faf" d="m0 240h136v120h-136" />
        <path fill="#aaf" d="m0 360h136v120h-136" />
        <path fill="#fff" d="m0 480h136v120h-136" />
        <path fill="#ffa" d="m0 600h136v120h-136" />
        <path fill="#faa" d="m0 720h136v120h-136" />
        <path fill="#faf" d="m0 840h136v120h-136" />
        <path fill="#aaf" d="m0 960h136v120h-136" />
        <path fill="#fff" d="m0 1080h136v120h-136" />
        <path fill="#ffa" d="m0 1200h136v120h-136" />
        <path fill="#faa" d="m0 1320h136v120h-136" />
        <path fill="#faf" d="m0 1440h136v120h-136" />
        <path fill="#aaf" d="m0 1560h136v120h-136" />
        <path fill="#fff" d="m0 1680h136v120h-136" />

        <path fill="#aff" d="m10 -110h116v100h-116" />
        <path fill="#aff" d="m10 10h116v100h-116" />
        <path fill="#aff" d="m10 130h116v100h-116" />
        <path fill="#aff" d="m10 250h116v100h-116" />
        <path fill="#aff" d="m10 370h116v100h-116" />
        <path fill="#aff" d="m10 490h116v100h-116" />
        <path fill="#aff" d="m10 610h116v100h-116" />
        <path fill="#aff" d="m10 730h116v100h-116" />
        <path fill="#aff" d="m10 850h116v100h-116" />
        <path fill="#aff" d="m10 970h116v100h-116" />
        <path fill="#aff" d="m10 1090h116v100h-116" />
        <path fill="#aff" d="m10 1210h116v100h-116" />
        <path fill="#aff" d="m10 1330h116v100h-116" />
        <path fill="#aff" d="m10 1450h116v100h-116" />
        <path fill="#aff" d="m10 1570h116v100h-116" />
        <path fill="#aff" d="m10 1690h116v100h-116" />
    </g>
    <g id="column9" stroke-width="0" transform="translate(0, 0)">
        <path fill="#a00" d="m-10-130h156v1940h-156z" />
        <path fill="#fff" d="m0 -120h136v120h-136" />
        <path fill="#ffa" d="m0 0h136v120h-136" />
        <path fill="#faa" d="m0 120h136v120h-136" />
        <path fill="#faf" d="m0 240h136v120h-136" />
        <path fill="#aaf" d="m0 360h136v120h-136" />
        <path fill="#fff" d="m0 480h136v120h-136" />
        <path fill="#ffa" d="m0 600h136v120h-136" />
        <path fill="#faa" d="m0 720h136v120h-136" />
        <path fill="#faf" d="m0 840h136v120h-136" />
        <path fill="#aaf" d="m0 960h136v120h-136" />
        <path fill="#fff" d="m0 1080h136v120h-136" />
        <path fill="#ffa" d="m0 1200h136v120h-136" />
        <path fill="#faa" d="m0 1320h136v120h-136" />
        <path fill="#faf" d="m0 1440h136v120h-136" />
        <path fill="#aaf" d="m0 1560h136v120h-136" />
        <path fill="#fff" d="m0 1680h136v120h-136" />

        <path fill="#aff" d="m10 -110h116v100h-116" />
        <path fill="#aff" d="m10 10h116v100h-116" />
        <path fill="#aff" d="m10 130h116v100h-116" />
        <path fill="#aff" d="m10 250h116v100h-116" />
        <path fill="#aff" d="m10 370h116v100h-116" />
        <path fill="#aff" d="m10 490h116v100h-116" />
        <path fill="#aff" d="m10 610h116v100h-116" />
        <path fill="#aff" d="m10 730h116v100h-116" />
        <path fill="#aff" d="m10 850h116v100h-116" />
        <path fill="#aff" d="m10 970h116v100h-116" />
        <path fill="#aff" d="m10 1090h116v100h-116" />
        <path fill="#aff" d="m10 1210h116v100h-116" />
        <path fill="#aff" d="m10 1330h116v100h-116" />
        <path fill="#aff" d="m10 1450h116v100h-116" />
        <path fill="#aff" d="m10 1570h116v100h-116" />
        <path fill="#aff" d="m10 1690h116v100h-116" />
    </g>
    <g id="column8" stroke-width="0" transform="translate(165, 0)">
        <path fill="#a00" d="m-10-130h156v1940h-156z" />
        <path fill="#fff" d="m0 -120h136v120h-136" />
        <path fill="#ffa" d="m0 0h136v120h-136" />
        <path fill="#faa" d="m0 120h136v120h-136" />
        <path fill="#faf" d="m0 240h136v120h-136" />
        <path fill="#aaf" d="m0 360h136v120h-136" />
        <path fill="#fff" d="m0 480h136v120h-136" />
        <path fill="#ffa" d="m0 600h136v120h-136" />
        <path fill="#faa" d="m0 720h136v120h-136" />
        <path fill="#faf" d="m0 840h136v120h-136" />
        <path fill="#aaf" d="m0 960h136v120h-136" />
        <path fill="#fff" d="m0 1080h136v120h-136" />
        <path fill="#ffa" d="m0 1200h136v120h-136" />
        <path fill="#faa" d="m0 1320h136v120h-136" />
        <path fill="#faf" d="m0 1440h136v120h-136" />
        <path fill="#aaf" d="m0 1560h136v120h-136" />
        <path fill="#fff" d="m0 1680h136v120h-136" />

        <path fill="#aff" d="m10 -110h116v100h-116" />
        <path fill="#aff" d="m10 10h116v100h-116" />
        <path fill="#aff" d="m10 130h116v100h-116" />
        <path fill="#aff" d="m10 250h116v100h-116" />
        <path fill="#aff" d="m10 370h116v100h-116" />
        <path fill="#aff" d="m10 490h116v100h-116" />
        <path fill="#aff" d="m10 610h116v100h-116" />
        <path fill="#aff" d="m10 730h116v100h-116" />
        <path fill="#aff" d="m10 850h116v100h-116" />
        <path fill="#aff" d="m10 970h116v100h-116" />
        <path fill="#aff" d="m10 1090h116v100h-116" />
        <path fill="#aff" d="m10 1210h116v100h-116" />
        <path fill="#aff" d="m10 1330h116v100h-116" />
        <path fill="#aff" d="m10 1450h116v100h-116" />
        <path fill="#aff" d="m10 1570h116v100h-116" />
        <path fill="#aff" d="m10 1690h116v100h-116" />
    </g>
    <g id="column7" stroke-width="0" transform="translate(330, 0)">
        <path fill="#a00" d="m-10-130h156v1940h-156z" />
        <path fill="#fff" d="m0 -120h136v120h-136" />
        <path fill="#ffa" d="m0 0h136v120h-136" />
        <path fill="#faa" d="m0 120h136v120h-136" />
        <path fill="#faf" d="m0 240h136v120h-136" />
        <path fill="#aaf" d="m0 360h136v120h-136" />
        <path fill="#fff" d="m0 480h136v120h-136" />
        <path fill="#ffa" d="m0 600h136v120h-136" />
        <path fill="#faa" d="m0 720h136v120h-136" />
        <path fill="#faf" d="m0 840h136v120h-136" />
        <path fill="#aaf" d="m0 960h136v120h-136" />
        <path fill="#fff" d="m0 1080h136v120h-136" />
        <path fill="#ffa" d="m0 1200h136v120h-136" />
        <path fill="#faa" d="m0 1320h136v120h-136" />
        <path fill="#faf" d="m0 1440h136v120h-136" />
        <path fill="#aaf" d="m0 1560h136v120h-136" />
        <path fill="#fff" d="m0 1680h136v120h-136" />

        <path fill="#aff" d="m10 -110h116v100h-116" />
        <path fill="#aff" d="m10 10h116v100h-116" />
        <path fill="#aff" d="m10 130h116v100h-116" />
        <path fill="#aff" d="m10 250h116v100h-116" />
        <path fill="#aff" d="m10 370h116v100h-116" />
        <path fill="#aff" d="m10 490h116v100h-116" />
        <path fill="#aff" d="m10 610h116v100h-116" />
        <path fill="#aff" d="m10 730h116v100h-116" />
        <path fill="#aff" d="m10 850h116v100h-116" />
        <path fill="#aff" d="m10 970h116v100h-116" />
        <path fill="#aff" d="m10 1090h116v100h-116" />
        <path fill="#aff" d="m10 1210h116v100h-116" />
        <path fill="#aff" d="m10 1330h116v100h-116" />
        <path fill="#aff" d="m10 1450h116v100h-116" />
        <path fill="#aff" d="m10 1570h116v100h-116" />
        <path fill="#aff" d="m10 1690h116v100h-116" />
    </g>
    <g id="column6" stroke-width="0" transform="translate(495, 0)">
        <path fill="#a00" d="m-10-130h156v1940h-156z" />
        <path fill="#fff" d="m0 -120h136v120h-136" />
        <path fill="#ffa" d="m0 0h136v120h-136" />
        <path fill="#faa" d="m0 120h136v120h-136" />
        <path fill="#faf" d="m0 240h136v120h-136" />
        <path fill="#aaf" d="m0 360h136v120h-136" />
        <path fill="#fff" d="m0 480h136v120h-136" />
        <path fill="#ffa" d="m0 600h136v120h-136" />
        <path fill="#faa" d="m0 720h136v120h-136" />
        <path fill="#faf" d="m0 840h136v120h-136" />
        <path fill="#aaf" d="m0 960h136v120h-136" />
        <path fill="#fff" d="m0 1080h136v120h-136" />
        <path fill="#ffa" d="m0 1200h136v120h-136" />
        <path fill="#faa" d="m0 1320h136v120h-136" />
        <path fill="#faf" d="m0 1440h136v120h-136" />
        <path fill="#aaf" d="m0 1560h136v120h-136" />
        <path fill="#fff" d="m0 1680h136v120h-136" />

        <path fill="#aff" d="m10 -110h116v100h-116" />
        <path fill="#aff" d="m10 10h116v100h-116" />
        <path fill="#aff" d="m10 130h116v100h-116" />
        <path fill="#aff" d="m10 250h116v100h-116" />
        <path fill="#aff" d="m10 370h116v100h-116" />
        <path fill="#aff" d="m10 490h116v100h-116" />
        <path fill="#aff" d="m10 610h116v100h-116" />
        <path fill="#aff" d="m10 730h116v100h-116" />
        <path fill="#aff" d="m10 850h116v100h-116" />
        <path fill="#aff" d="m10 970h116v100h-116" />
        <path fill="#aff" d="m10 1090h116v100h-116" />
        <path fill="#aff" d="m10 1210h116v100h-116" />
        <path fill="#aff" d="m10 1330h116v100h-116" />
        <path fill="#aff" d="m10 1450h116v100h-116" />
        <path fill="#aff" d="m10 1570h116v100h-116" />
        <path fill="#aff" d="m10 1690h116v100h-116" />
    </g>
    <g id="column5" stroke-width="0" transform="translate(660, 0)">
        <path fill="#a00" d="m-10-130h156v1940h-156z" />
        <path fill="#fff" d="m0 -120h136v120h-136" />
        <path fill="#ffa" d="m0 0h136v120h-136" />
        <path fill="#faa" d="m0 120h136v120h-136" />
        <path fill="#faf" d="m0 240h136v120h-136" />
        <path fill="#aaf" d="m0 360h136v120h-136" />
        <path fill="#fff" d="m0 480h136v120h-136" />
        <path fill="#ffa" d="m0 600h136v120h-136" />
        <path fill="#faa" d="m0 720h136v120h-136" />
        <path fill="#faf" d="m0 840h136v120h-136" />
        <path fill="#aaf" d="m0 960h136v120h-136" />
        <path fill="#fff" d="m0 1080h136v120h-136" />
        <path fill="#ffa" d="m0 1200h136v120h-136" />
        <path fill="#faa" d="m0 1320h136v120h-136" />
        <path fill="#faf" d="m0 1440h136v120h-136" />
        <path fill="#aaf" d="m0 1560h136v120h-136" />
        <path fill="#fff" d="m0 1680h136v120h-136" />

        <path fill="#aff" d="m10 -110h116v100h-116" />
        <path fill="#aff" d="m10 10h116v100h-116" />
        <path fill="#aff" d="m10 130h116v100h-116" />
        <path fill="#aff" d="m10 250h116v100h-116" />
        <path fill="#aff" d="m10 370h116v100h-116" />
        <path fill="#aff" d="m10 490h116v100h-116" />
        <path fill="#aff" d="m10 610h116v100h-116" />
        <path fill="#aff" d="m10 730h116v100h-116" />
        <path fill="#aff" d="m10 850h116v100h-116" />
        <path fill="#aff" d="m10 970h116v100h-116" />
        <path fill="#aff" d="m10 1090h116v100h-116" />
        <path fill="#aff" d="m10 1210h116v100h-116" />
        <path fill="#aff" d="m10 1330h116v100h-116" />
        <path fill="#aff" d="m10 1450h116v100h-116" />
        <path fill="#aff" d="m10 1570h116v100h-116" />
        <path fill="#aff" d="m10 1690h116v100h-116" />
    </g>
    <g id="column4" stroke-width="0" transform="translate(825, 0)">
        <path fill="#a00" d="m-10-130h156v1940h-156z" />
        <path fill="#fff" d="m0 -120h136v120h-136" />
        <path fill="#ffa" d="m0 0h136v120h-136" />
        <path fill="#faa" d="m0 120h136v120h-136" />
        <path fill="#faf" d="m0 240h136v120h-136" />
        <path fill="#aaf" d="m0 360h136v120h-136" />
        <path fill="#fff" d="m0 480h136v120h-136" />
        <path fill="#ffa" d="m0 600h136v120h-136" />
        <path fill="#faa" d="m0 720h136v120h-136" />
        <path fill="#faf" d="m0 840h136v120h-136" />
        <path fill="#aaf" d="m0 960h136v120h-136" />
        <path fill="#fff" d="m0 1080h136v120h-136" />
        <path fill="#ffa" d="m0 1200h136v120h-136" />
        <path fill="#faa" d="m0 1320h136v120h-136" />
        <path fill="#faf" d="m0 1440h136v120h-136" />
        <path fill="#aaf" d="m0 1560h136v120h-136" />
        <path fill="#fff" d="m0 1680h136v120h-136" />

        <path fill="#aff" d="m10 -110h116v100h-116" />
        <path fill="#aff" d="m10 10h116v100h-116" />
        <path fill="#aff" d="m10 130h116v100h-116" />
        <path fill="#aff" d="m10 250h116v100h-116" />
        <path fill="#aff" d="m10 370h116v100h-116" />
        <path fill="#aff" d="m10 490h116v100h-116" />
        <path fill="#aff" d="m10 610h116v100h-116" />
        <path fill="#aff" d="m10 730h116v100h-116" />
        <path fill="#aff" d="m10 850h116v100h-116" />
        <path fill="#aff" d="m10 970h116v100h-116" />
        <path fill="#aff" d="m10 1090h116v100h-116" />
        <path fill="#aff" d="m10 1210h116v100h-116" />
        <path fill="#aff" d="m10 1330h116v100h-116" />
        <path fill="#aff" d="m10 1450h116v100h-116" />
        <path fill="#aff" d="m10 1570h116v100h-116" />
        <path fill="#aff" d="m10 1690h116v100h-116" />
    </g>
    <g id="column3" stroke-width="0" transform="translate(990, 0)">
        <path fill="#a00" d="m-10-130h156v1940h-156z" />
        <path fill="#fff" d="m0 -120h136v120h-136" />
        <path fill="#ffa" d="m0 0h136v120h-136" />
        <path fill="#faa" d="m0 120h136v120h-136" />
        <path fill="#faf" d="m0 240h136v120h-136" />
        <path fill="#aaf" d="m0 360h136v120h-136" />
        <path fill="#fff" d="m0 480h136v120h-136" />
        <path fill="#ffa" d="m0 600h136v120h-136" />
        <path fill="#faa" d="m0 720h136v120h-136" />
        <path fill="#faf" d="m0 840h136v120h-136" />
        <path fill="#aaf" d="m0 960h136v120h-136" />
        <path fill="#fff" d="m0 1080h136v120h-136" />
        <path fill="#ffa" d="m0 1200h136v120h-136" />
        <path fill="#faa" d="m0 1320h136v120h-136" />
        <path fill="#faf" d="m0 1440h136v120h-136" />
        <path fill="#aaf" d="m0 1560h136v120h-136" />
        <path fill="#fff" d="m0 1680h136v120h-136" />

        <path fill="#aff" d="m10 -110h116v100h-116" />
        <path fill="#aff" d="m10 10h116v100h-116" />
        <path fill="#aff" d="m10 130h116v100h-116" />
        <path fill="#aff" d="m10 250h116v100h-116" />
        <path fill="#aff" d="m10 370h116v100h-116" />
        <path fill="#aff" d="m10 490h116v100h-116" />
        <path fill="#aff" d="m10 610h116v100h-116" />
        <path fill="#aff" d="m10 730h116v100h-116" />
        <path fill="#aff" d="m10 850h116v100h-116" />
        <path fill="#aff" d="m10 970h116v100h-116" />
        <path fill="#aff" d="m10 1090h116v100h-116" />
        <path fill="#aff" d="m10 1210h116v100h-116" />
        <path fill="#aff" d="m10 1330h116v100h-116" />
        <path fill="#aff" d="m10 1450h116v100h-116" />
        <path fill="#aff" d="m10 1570h116v100h-116" />
        <path fill="#aff" d="m10 1690h116v100h-116" />
    </g>
    <g id="column2" stroke-width="0" transform="translate(1155, 0)">
        <path fill="#a00" d="m-10-130h156v1940h-156z" />
        <path fill="#fff" d="m0 -120h136v120h-136" />
        <path fill="#ffa" d="m0 0h136v120h-136" />
        <path fill="#faa" d="m0 120h136v120h-136" />
        <path fill="#faf" d="m0 240h136v120h-136" />
        <path fill="#aaf" d="m0 360h136v120h-136" />
        <path fill="#fff" d="m0 480h136v120h-136" />
        <path fill="#ffa" d="m0 600h136v120h-136" />
        <path fill="#faa" d="m0 720h136v120h-136" />
        <path fill="#faf" d="m0 840h136v120h-136" />
        <path fill="#aaf" d="m0 960h136v120h-136" />
        <path fill="#fff" d="m0 1080h136v120h-136" />
        <path fill="#ffa" d="m0 1200h136v120h-136" />
        <path fill="#faa" d="m0 1320h136v120h-136" />
        <path fill="#faf" d="m0 1440h136v120h-136" />
        <path fill="#aaf" d="m0 1560h136v120h-136" />
        <path fill="#fff" d="m0 1680h136v120h-136" />

        <path fill="#aff" d="m10 -110h116v100h-116" />
        <path fill="#aff" d="m10 10h116v100h-116" />
        <path fill="#aff" d="m10 130h116v100h-116" />
        <path fill="#aff" d="m10 250h116v100h-116" />
        <path fill="#aff" d="m10 370h116v100h-116" />
        <path fill="#aff" d="m10 490h116v100h-116" />
        <path fill="#aff" d="m10 610h116v100h-116" />
        <path fill="#aff" d="m10 730h116v100h-116" />
        <path fill="#aff" d="m10 850h116v100h-116" />
        <path fill="#aff" d="m10 970h116v100h-116" />
        <path fill="#aff" d="m10 1090h116v100h-116" />
        <path fill="#aff" d="m10 1210h116v100h-116" />
        <path fill="#aff" d="m10 1330h116v100h-116" />
        <path fill="#aff" d="m10 1450h116v100h-116" />
        <path fill="#aff" d="m10 1570h116v100h-116" />
        <path fill="#aff" d="m10 1690h116v100h-116" />
    </g>
    <g id="column1" stroke-width="0" transform="translate(1320, 0)">
        <path fill="#a00" d="m-10-130h156v1940h-156z" />
        <path fill="#fff" d="m0 -120h136v120h-136" />
        <path fill="#ffa" d="m0 0h136v120h-136" />
        <path fill="#faa" d="m0 120h136v120h-136" />
        <path fill="#faf" d="m0 240h136v120h-136" />
        <path fill="#aaf" d="m0 360h136v120h-136" />
        <path fill="#fff" d="m0 480h136v120h-136" />
        <path fill="#ffa" d="m0 600h136v120h-136" />
        <path fill="#faa" d="m0 720h136v120h-136" />
        <path fill="#faf" d="m0 840h136v120h-136" />
        <path fill="#aaf" d="m0 960h136v120h-136" />
        <path fill="#fff" d="m0 1080h136v120h-136" />
        <path fill="#ffa" d="m0 1200h136v120h-136" />
        <path fill="#faa" d="m0 1320h136v120h-136" />
        <path fill="#faf" d="m0 1440h136v120h-136" />
        <path fill="#aaf" d="m0 1560h136v120h-136" />
        <path fill="#fff" d="m0 1680h136v120h-136" />

        <path fill="#aff" d="m10 -110h116v100h-116" />
        <path fill="#aff" d="m10 10h116v100h-116" />
        <path fill="#aff" d="m10 130h116v100h-116" />
        <path fill="#aff" d="m10 250h116v100h-116" />
        <path fill="#aff" d="m10 370h116v100h-116" />
        <path fill="#aff" d="m10 490h116v100h-116" />
        <path fill="#aff" d="m10 610h116v100h-116" />
        <path fill="#aff" d="m10 730h116v100h-116" />
        <path fill="#aff" d="m10 850h116v100h-116" />
        <path fill="#aff" d="m10 970h116v100h-116" />
        <path fill="#aff" d="m10 1090h116v100h-116" />
        <path fill="#aff" d="m10 1210h116v100h-116" />
        <path fill="#aff" d="m10 1330h116v100h-116" />
        <path fill="#aff" d="m10 1450h116v100h-116" />
        <path fill="#aff" d="m10 1570h116v100h-116" />
        <path fill="#aff" d="m10 1690h116v100h-116" />
    </g>
    <g id="column0" stroke-width="0" transform="translate(1485, 0)">
        <path fill="#a00" d="m-10-130h156v1940h-156z" />
        <path fill="#fff" d="m0 -120h136v120h-136" />
        <path fill="#ffa" d="m0 0h136v120h-136" />
        <path fill="#faa" d="m0 120h136v120h-136" />
        <path fill="#faf" d="m0 240h136v120h-136" />
        <path fill="#aaf" d="m0 360h136v120h-136" />
        <path fill="#fff" d="m0 480h136v120h-136" />
        <path fill="#ffa" d="m0 600h136v120h-136" />
        <path fill="#faa" d="m0 720h136v120h-136" />
        <path fill="#faf" d="m0 840h136v120h-136" />
        <path fill="#aaf" d="m0 960h136v120h-136" />
        <path fill="#fff" d="m0 1080h136v120h-136" />
        <path fill="#ffa" d="m0 1200h136v120h-136" />
        <path fill="#faa" d="m0 1320h136v120h-136" />
        <path fill="#faf" d="m0 1440h136v120h-136" />
        <path fill="#aaf" d="m0 1560h136v120h-136" />
        <path fill="#fff" d="m0 1680h136v120h-136" />

        <path fill="#aff" d="m10 -110h116v100h-116" />
        <path fill="#aff" d="m10 10h116v100h-116" />
        <path fill="#aff" d="m10 130h116v100h-116" />
        <path fill="#aff" d="m10 250h116v100h-116" />
        <path fill="#aff" d="m10 370h116v100h-116" />
        <path fill="#aff" d="m10 490h116v100h-116" />
        <path fill="#aff" d="m10 610h116v100h-116" />
        <path fill="#aff" d="m10 730h116v100h-116" />
        <path fill="#aff" d="m10 850h116v100h-116" />
        <path fill="#aff" d="m10 970h116v100h-116" />
        <path fill="#aff" d="m10 1090h116v100h-116" />
        <path fill="#aff" d="m10 1210h116v100h-116" />
        <path fill="#aff" d="m10 1330h116v100h-116" />
        <path fill="#aff" d="m10 1450h116v100h-116" />
        <path fill="#aff" d="m10 1570h116v100h-116" />
        <path fill="#aff" d="m10 1690h116v100h-116" />
    </g>
</svg>