<svg width="136mm" height="120mm" version="1.1" viewBox="0 0 600 529.4117647058824" xmlns="http://www.w3.org/2000/svg"><path d="M185.289 124.609 C 180.713 133.775,177.149 141.443,177.367 141.649 C 177.586 141.855,196.845 151.558,220.165 163.212 L 262.566 184.402 252.292 187.226 C 201.343 201.233,167.884 227.258,160.506 258.619 C 158.887 265.503,158.725 277.075,160.153 283.841 C 161.561 290.509,165.374 299.576,169.312 305.617 C 174.047 312.881,188.645 327.082,197.115 332.664 C 219.909 347.684,249.879 358.108,284.853 363.179 C 297.200 364.969,326.848 367.023,328.208 366.183 C 328.629 365.923,328.973 357.451,328.973 347.358 C 328.973 329.013,328.972 329.005,327.045 328.615 C 325.985 328.400,319.335 328.013,312.267 327.754 C 252.381 325.565,196.919 298.704,196.919 271.891 C 196.919 253.673,223.856 233.840,262.509 223.600 C 279.166 219.186,297.244 216.539,318.478 215.404 C 324.250 215.095,328.973 214.734,328.973 214.601 C 328.973 214.469,330.708 206.994,332.828 197.991 C 334.948 188.988,336.683 181.044,336.683 180.337 C 336.683 179.491,312.407 166.913,265.579 143.498 C 226.472 123.944,194.280 107.944,194.042 107.944 C 193.803 107.944,189.865 115.443,185.289 124.609 " stroke="none" fill-rule="evenodd" fill="black"></path></svg>