<svg width="136mm" height="120mm" version="1.1" viewBox="0 0 600 529.4117647058824" xmlns="http://www.w3.org/2000/svg"><path d="M185.289 124.608 C 180.714 133.774,177.149 141.443,177.367 141.649 C 177.586 141.855,196.752 151.512,219.958 163.109 C 243.164 174.706,262.150 184.355,262.150 184.552 C 262.150 184.749,259.355 185.545,255.939 186.321 C 238.414 190.303,213.194 200.808,199.078 210.006 C 165.308 232.011,151.920 261.634,162.281 291.426 C 165.780 301.490,170.770 308.889,180.672 318.700 C 191.293 329.224,199.069 334.768,213.037 341.778 C 234.302 352.450,260.192 360.021,287.929 363.679 C 298.976 365.136,327.075 366.883,328.208 366.183 C 328.629 365.923,328.973 357.475,328.973 347.409 L 328.973 329.109 323.618 328.645 C 320.674 328.389,314.023 327.960,308.840 327.691 C 276.055 325.990,240.601 315.815,219.187 301.963 C 210.824 296.552,201.881 287.503,199.194 281.732 C 196.335 275.589,196.288 268.515,199.067 262.547 C 205.734 248.230,228.466 233.654,257.767 224.908 C 273.444 220.228,301.217 215.899,315.689 215.879 C 319.461 215.874,323.969 215.635,325.706 215.347 L 328.864 214.825 332.355 200.243 C 334.274 192.223,336.062 184.270,336.327 182.570 L 336.810 179.479 265.209 143.711 L 193.609 107.943 185.289 124.608 " stroke="none" fill-rule="evenodd" fill="black"></path></svg>