<svg width="136mm" height="120mm" version="1.1" viewBox="0 0 600 529.4117647058824" xmlns="http://www.w3.org/2000/svg"><path d="M185.266 124.655 C 180.703 133.796,177.149 141.443,177.367 141.649 C 177.586 141.855,196.752 151.512,219.958 163.109 C 243.164 174.706,262.150 184.355,262.150 184.552 C 262.150 184.749,259.357 185.545,255.943 186.322 C 231.296 191.927,202.095 205.884,185.755 219.867 C 157.675 243.898,151.107 275.064,168.038 303.939 C 171.889 310.508,188.148 326.741,196.471 332.328 C 219.075 347.500,252.728 359.037,287.929 363.679 C 298.976 365.136,327.075 366.883,328.208 366.183 C 328.629 365.923,328.973 357.475,328.973 347.409 L 328.973 329.109 323.618 328.645 C 320.674 328.389,314.023 327.960,308.840 327.691 C 276.055 325.990,240.601 315.815,219.187 301.963 C 210.824 296.552,201.881 287.503,199.194 281.732 C 193.261 268.987,199.537 255.531,217.042 243.460 C 239.984 227.640,274.029 218.006,314.229 215.960 C 321.904 215.569,328.379 215.055,328.616 214.817 C 329.404 214.029,336.741 182.078,336.496 180.503 C 336.321 179.384,316.553 169.164,264.909 143.497 L 193.562 108.037 185.266 124.655 " stroke="none" fill-rule="evenodd" fill="black"></path></svg>