<svg width="136mm" height="120mm" version="1.1" viewBox="0 0 600 529.4117647058824" xmlns="http://www.w3.org/2000/svg"><path d="M209.651 199.229 C 199.393 219.751,191.171 236.810,191.379 237.138 C 191.972 238.073,224.340 253.987,224.754 253.547 C 225.292 252.975,262.150 179.137,262.150 178.630 C 262.150 178.135,229.941 161.916,228.957 161.916 C 228.596 161.916,219.909 178.707,209.651 199.229 M266.299 222.151 L 240.041 274.675 256.670 282.976 C 265.816 287.542,273.488 291.278,273.720 291.278 C 274.136 291.278,326.403 187.167,326.403 186.339 C 326.403 185.845,294.192 169.627,293.211 169.627 C 292.851 169.627,280.740 193.262,266.299 222.151 " stroke="none" fill-rule="evenodd" fill="black"></path></svg>