<svg width="136mm" height="120mm" version="1.1" viewBox="0 0 600 529.4117647058824" xmlns="http://www.w3.org/2000/svg"><path d="M209.974 199.447 L 191.204 236.978 207.927 245.326 C 217.124 249.918,224.756 253.558,224.886 253.415 C 225.349 252.907,262.150 179.051,262.150 178.630 C 262.150 178.206,230.014 161.916,229.178 161.916 C 228.938 161.916,220.297 178.805,209.974 199.447 M266.299 222.151 L 240.041 274.675 256.670 282.976 C 265.816 287.542,273.488 291.278,273.720 291.278 C 274.136 291.278,326.403 187.167,326.403 186.339 C 326.403 185.845,294.192 169.627,293.211 169.627 C 292.851 169.627,280.740 193.262,266.299 222.151 " stroke="none" fill-rule="evenodd" fill="black"></path></svg>