<svg width="136mm" height="120mm" version="1.1" viewBox="0 0 600 529.4117647058824" xmlns="http://www.w3.org/2000/svg"><path d="M340.110 56.542 L 340.110 75.390 306.270 75.390 L 272.431 75.390 272.431 94.237 L 272.431 113.084 364.954 113.084 L 457.478 113.084 457.478 94.237 L 457.478 75.390 417.641 75.390 L 377.805 75.390 377.805 56.542 L 377.805 37.695 358.957 37.695 L 340.110 37.695 340.110 56.542 M56.542 101.947 L 56.542 120.795 96.379 120.795 C 118.289 120.795,136.215 120.893,136.215 121.012 C 136.215 121.132,117.718 176.718,95.111 244.537 C 72.503 312.356,54.095 367.912,54.203 367.995 C 55.586 369.057,89.529 379.564,89.766 379.004 C 89.946 378.580,100.953 345.850,114.225 306.270 L 138.357 234.307 149.274 234.501 C 155.408 234.610,162.726 235.282,165.979 236.035 C 182.853 239.941,198.446 252.935,206.055 269.432 C 210.127 278.261,211.177 283.555,211.155 295.133 C 211.139 303.402,210.748 306.671,209.158 311.839 C 201.936 335.316,181.163 352.425,157.287 354.559 L 151.208 355.102 150.975 373.071 C 150.848 382.953,150.901 391.451,151.095 391.955 C 151.654 393.412,167.086 391.822,176.368 389.351 C 196.481 383.998,214.688 372.130,227.615 355.946 C 258.592 317.167,256.192 262.579,221.934 226.713 C 206.412 210.463,184.353 199.405,163.630 197.486 C 160.567 197.202,156.461 196.776,154.506 196.538 L 150.951 196.105 163.495 158.450 L 176.040 120.795 214.811 120.795 L 253.583 120.795 253.583 101.947 L 253.583 83.100 155.063 83.100 L 56.542 83.100 56.542 101.947 M340.110 152.921 L 340.110 177.337 306.270 177.337 L 272.431 177.337 272.431 196.184 L 272.431 215.032 300.273 215.032 C 315.587 215.032,328.116 215.225,328.116 215.462 C 328.116 215.698,308.455 255.213,284.424 303.272 C 260.394 351.331,240.733 391.036,240.733 391.506 C 240.733 392.215,272.343 408.646,273.706 408.646 C 273.946 408.646,293.273 370.385,316.656 323.622 L 359.170 238.598 374.125 268.498 L 389.081 298.399 376.814 310.688 L 364.547 322.977 377.802 336.252 L 391.057 349.528 398.928 341.690 L 406.798 333.852 425.379 371.035 C 435.598 391.485,444.068 408.337,444.201 408.482 C 444.404 408.705,477.096 392.643,477.873 391.938 C 478.018 391.807,468.445 372.321,456.601 348.637 L 435.066 305.573 447.128 293.489 L 459.191 281.405 445.916 268.151 L 432.641 254.896 425.042 262.460 L 417.443 270.024 412.283 260.305 C 406.362 249.150,389.798 216.121,389.798 215.468 C 389.798 215.228,405.026 215.032,423.638 215.032 L 457.478 215.032 457.478 196.184 L 457.478 177.337 417.641 177.337 L 377.805 177.337 377.805 152.921 L 377.805 128.505 358.957 128.505 L 340.110 128.505 340.110 152.921 " stroke="none" fill-rule="evenodd" fill="black"></path></svg>