<svg width="136mm" height="120mm" version="1.1" viewBox="0 0 600 529.4117647058824" xmlns="http://www.w3.org/2000/svg"><path d="M340.110 56.542 L 340.110 75.390 306.270 75.390 L 272.431 75.390 272.431 94.237 L 272.431 113.084 364.954 113.084 L 457.478 113.084 457.478 94.237 L 457.478 75.390 417.641 75.390 L 377.805 75.390 377.805 56.542 L 377.805 37.695 358.957 37.695 L 340.110 37.695 340.110 56.542 M56.542 101.947 L 56.542 120.795 96.379 120.795 C 118.289 120.795,136.215 120.893,136.215 121.012 C 136.215 121.132,117.718 176.718,95.111 244.537 C 72.503 312.356,54.095 367.912,54.203 367.995 C 55.434 368.940,89.360 379.544,89.793 379.119 C 90.117 378.802,101.215 346.090,114.454 306.425 L 138.527 234.307 149.623 234.513 C 167.843 234.851,179.845 239.158,191.489 249.535 C 212.076 267.885,217.584 299.657,204.293 323.404 C 194.311 341.240,176.854 352.810,157.287 354.559 L 151.208 355.102 150.975 373.071 C 150.848 382.953,150.901 391.451,151.095 391.955 C 151.608 393.293,166.395 391.933,174.990 389.757 C 240.414 373.199,270.233 296.846,233.178 240.764 C 216.632 215.722,190.346 199.900,160.774 197.182 C 156.189 196.760,152.217 196.195,151.948 195.925 C 151.678 195.655,157.023 178.737,163.826 158.329 L 176.194 121.223 214.889 121.000 L 253.583 120.777 253.583 101.939 L 253.583 83.100 155.063 83.100 L 56.542 83.100 56.542 101.947 M340.110 152.921 L 340.110 177.337 306.270 177.337 L 272.431 177.337 272.431 196.184 L 272.431 215.032 300.273 215.032 C 315.587 215.032,328.116 215.225,328.116 215.462 C 328.116 215.698,308.455 255.213,284.424 303.272 C 260.394 351.331,240.733 391.036,240.733 391.506 C 240.733 392.516,273.093 408.874,273.971 408.308 C 274.302 408.095,293.461 370.110,316.547 323.898 C 339.633 277.686,358.719 239.876,358.960 239.876 C 359.200 239.876,366.013 253.114,374.098 269.293 L 388.799 298.710 376.670 310.840 L 364.540 322.969 377.799 336.249 L 391.057 349.528 398.791 341.826 L 406.525 334.124 424.934 371.024 C 435.058 391.319,443.613 408.098,443.943 408.310 C 444.820 408.873,477.182 392.516,477.182 391.510 C 477.182 391.042,467.643 371.578,455.985 348.256 L 434.788 305.851 446.989 293.628 L 459.191 281.405 445.916 268.151 L 432.641 254.896 424.954 262.548 C 420.726 266.756,417.104 270.027,416.906 269.816 C 416.369 269.244,389.798 215.970,389.798 215.465 C 389.798 215.227,405.026 215.032,423.638 215.032 L 457.478 215.032 457.478 196.184 L 457.478 177.337 417.641 177.337 L 377.805 177.337 377.805 152.921 L 377.805 128.505 358.957 128.505 L 340.110 128.505 340.110 152.921 " stroke="none" fill-rule="evenodd" fill="black"></path></svg>