<svg width="136mm" height="120mm" version="1.1" viewBox="0 0 600 529.4117647058824" xmlns="http://www.w3.org/2000/svg"><path d="M340.110 56.542 L 340.110 75.390 306.270 75.390 L 272.431 75.390 272.431 94.237 L 272.431 113.084 364.954 113.084 L 457.478 113.084 457.478 94.237 L 457.478 75.390 417.641 75.390 L 377.805 75.390 377.805 56.542 L 377.805 37.695 358.957 37.695 L 340.110 37.695 340.110 56.542 M56.542 101.947 L 56.542 120.795 96.379 120.795 C 118.289 120.795,136.215 120.893,136.215 121.012 C 136.215 121.132,117.718 176.718,95.111 244.537 C 72.503 312.356,54.095 367.912,54.203 367.995 C 55.434 368.940,89.360 379.544,89.793 379.119 C 90.117 378.802,101.213 346.090,114.450 306.425 L 138.518 234.307 148.718 234.388 C 160.111 234.477,166.739 235.612,174.338 238.774 C 190.560 245.523,203.088 259.164,208.791 276.286 C 210.807 282.336,211.077 284.494,211.094 294.705 C 211.111 305.176,210.887 306.919,208.726 313.124 C 204.667 324.776,198.542 333.764,189.569 341.232 C 180.522 348.762,165.725 354.630,155.705 354.661 L 151.636 354.674 151.636 373.521 L 151.636 392.369 156.562 392.362 C 172.280 392.341,193.114 385.188,208.044 374.686 C 215.554 369.403,227.320 357.381,232.275 349.928 C 258.276 310.816,254.267 260.884,222.422 227.205 C 205.431 209.235,183.688 198.921,157.847 196.574 C 154.431 196.264,151.636 195.757,151.636 195.447 C 151.636 195.138,157.162 178.310,163.916 158.054 L 176.197 121.223 214.890 121.000 L 253.583 120.777 253.583 101.939 L 253.583 83.100 155.063 83.100 L 56.542 83.100 56.542 101.947 M340.110 152.921 L 340.110 177.337 306.270 177.337 L 272.431 177.337 272.431 196.184 L 272.431 215.032 300.273 215.032 C 315.587 215.032,328.116 215.225,328.116 215.462 C 328.116 215.698,308.455 255.213,284.424 303.272 C 260.394 351.331,240.733 391.036,240.733 391.506 C 240.733 392.215,272.343 408.646,273.706 408.646 C 273.946 408.646,293.273 370.385,316.656 323.622 L 359.170 238.598 374.125 268.498 L 389.081 298.399 376.814 310.688 L 364.547 322.977 377.802 336.252 L 391.057 349.528 398.928 341.690 L 406.798 333.852 425.379 371.035 C 435.598 391.485,444.068 408.337,444.201 408.482 C 444.704 409.034,477.182 392.320,477.182 391.510 C 477.182 391.042,467.643 371.578,455.985 348.256 L 434.788 305.851 446.989 293.628 L 459.191 281.405 445.916 268.151 L 432.641 254.896 424.954 262.548 C 420.726 266.756,417.104 270.027,416.906 269.816 C 416.369 269.244,389.798 215.970,389.798 215.465 C 389.798 215.227,405.026 215.032,423.638 215.032 L 457.478 215.032 457.478 196.184 L 457.478 177.337 417.641 177.337 L 377.805 177.337 377.805 152.921 L 377.805 128.505 358.957 128.505 L 340.110 128.505 340.110 152.921 " stroke="none" fill-rule="evenodd" fill="black"></path></svg>