<svg width="136mm" height="120mm" version="1.1" viewBox="0 0 600 529.4117647058824" xmlns="http://www.w3.org/2000/svg"><path d="M305.842 122.508 L 305.842 207.321 257.010 207.321 L 208.178 207.321 208.178 141.356 L 208.178 75.390 189.331 75.390 L 170.483 75.390 170.483 141.356 L 170.483 207.321 134.502 207.321 L 98.520 207.321 98.520 226.597 L 98.520 245.873 134.502 245.873 L 170.483 245.873 170.483 311.839 L 170.483 377.805 189.331 377.805 L 208.178 377.805 208.178 311.839 L 208.178 245.873 257.010 245.873 L 305.842 245.873 305.842 330.686 L 305.842 415.500 324.689 415.500 L 343.537 415.500 343.537 330.695 L 343.537 245.891 381.446 245.668 L 419.355 245.445 419.355 226.597 L 419.355 207.750 381.446 207.527 L 343.537 207.304 343.537 122.499 L 343.537 37.695 324.689 37.695 L 305.842 37.695 305.842 122.508 " stroke="none" fill-rule="evenodd" fill="black"></path></svg>