<svg width="136mm" height="120mm" version="1.1" viewBox="0 0 600 529.4117647058824" xmlns="http://www.w3.org/2000/svg"><path d="M305.842 122.936 L 305.842 208.178 257.010 208.178 L 208.178 208.178 208.178 141.767 L 208.178 75.357 189.117 75.587 L 170.055 75.818 169.835 141.998 L 169.616 208.178 134.068 208.178 L 98.520 208.178 98.520 227.025 L 98.520 245.873 134.068 245.873 L 169.616 245.873 169.835 311.625 L 170.055 377.376 189.117 377.607 L 208.178 377.837 208.178 311.855 L 208.178 245.873 257.010 245.873 L 305.842 245.873 305.842 330.686 L 305.842 415.500 325.118 415.500 L 344.393 415.500 344.393 330.695 L 344.393 245.891 381.874 245.668 L 419.355 245.445 419.586 226.811 L 419.816 208.178 382.105 208.178 L 344.393 208.178 344.393 122.936 L 344.393 37.695 325.118 37.695 L 305.842 37.695 305.842 122.936 " stroke="none" fill-rule="evenodd" fill="black"></path></svg>