<svg width="136mm" height="120mm" version="1.1" viewBox="0 0 600 529.4117647058824" xmlns="http://www.w3.org/2000/svg"><path d="M238.163 58.684 L 238.163 79.673 175.607 79.673 L 113.051 79.673 113.282 98.306 L 113.513 116.940 175.838 117.159 L 238.163 117.379 238.163 145.645 L 238.163 173.910 166.183 173.910 L 94.204 173.910 94.434 192.543 L 94.665 211.177 257.010 211.177 L 419.355 211.177 419.586 192.543 L 419.816 173.910 347.837 173.910 L 275.857 173.910 275.857 145.645 L 275.857 117.379 338.182 117.159 L 400.507 116.940 400.738 98.306 L 400.969 79.673 338.413 79.673 L 275.857 79.673 275.857 58.684 L 275.857 37.695 257.010 37.695 L 238.163 37.695 238.163 58.684 M238.163 243.731 L 238.163 264.720 175.607 264.720 L 113.051 264.720 113.282 283.354 L 113.513 301.987 175.838 302.207 L 238.163 302.426 238.163 334.547 L 238.163 366.668 166.183 366.668 L 94.204 366.668 94.434 385.301 L 94.665 403.934 257.010 403.934 L 419.355 403.934 419.586 385.301 L 419.816 366.668 347.837 366.668 L 275.857 366.668 275.857 334.547 L 275.857 302.426 338.182 302.207 L 400.507 301.987 400.738 283.354 L 400.969 264.720 338.413 264.720 L 275.857 264.720 275.857 243.731 L 275.857 222.742 257.010 222.742 L 238.163 222.742 238.163 243.731 " stroke="none" fill-rule="evenodd" fill="black"></path></svg>