<svg width="136mm" height="120mm" version="1.1" viewBox="0 0 600 529.4117647058824" xmlns="http://www.w3.org/2000/svg"><path d="M238.163 58.684 L 238.163 79.673 175.624 79.673 L 113.084 79.673 113.084 98.520 L 113.084 117.368 175.624 117.368 L 238.163 117.368 238.163 145.639 L 238.163 173.910 166.200 173.910 L 94.237 173.910 94.237 192.757 L 94.237 211.605 257.010 211.605 L 419.783 211.605 419.783 192.757 L 419.783 173.910 347.820 173.910 L 275.857 173.910 275.857 145.639 L 275.857 117.368 338.397 117.368 L 400.936 117.368 400.936 98.520 L 400.936 79.673 338.397 79.673 L 275.857 79.673 275.857 58.684 L 275.857 37.695 257.010 37.695 L 238.163 37.695 238.163 58.684 M238.163 243.731 L 238.163 264.720 175.624 264.720 L 113.084 264.720 113.084 283.568 L 113.084 302.415 175.624 302.415 L 238.163 302.415 238.163 334.541 L 238.163 366.668 166.200 366.668 L 94.237 366.668 94.237 385.515 L 94.237 404.362 257.010 404.362 L 419.783 404.362 419.783 385.515 L 419.783 366.668 347.820 366.668 L 275.857 366.668 275.857 334.541 L 275.857 302.415 338.397 302.415 L 400.936 302.415 400.936 283.568 L 400.936 264.720 338.397 264.720 L 275.857 264.720 275.857 243.731 L 275.857 222.742 257.010 222.742 L 238.163 222.742 238.163 243.731 " stroke="none" fill-rule="evenodd" fill="black"></path></svg>