<svg width="136mm" height="120mm" version="1.1" viewBox="0 0 600 529.4117647058824" xmlns="http://www.w3.org/2000/svg"><path d="M241.589 54.368 C 211.876 60.740,188.708 82.216,180.737 110.776 C 175.704 128.808,177.246 148.399,185.009 165.017 C 194.682 185.727,212.178 201.252,233.237 207.813 L 238.163 209.348 238.163 236.667 L 238.163 263.987 233.237 263.452 C 187.245 258.457,153.774 246.301,135.320 227.890 C 125.358 217.951,125.577 218.924,125.078 182.477 L 124.650 151.208 106.017 150.977 L 87.383 150.746 87.383 183.180 C 87.383 212.417,87.546 216.252,89.037 222.079 C 99.610 263.421,155.928 294.668,231.523 301.137 L 238.163 301.705 238.163 349.178 L 238.163 396.652 257.010 396.652 L 275.857 396.652 275.857 349.178 L 275.857 301.705 282.497 301.129 C 358.530 294.535,414.376 263.552,424.983 222.079 C 426.474 216.252,426.637 212.417,426.637 183.180 L 426.637 150.746 408.003 150.977 L 389.370 151.208 388.942 182.477 C 388.528 212.696,388.449 213.876,386.595 217.602 C 376.644 237.605,339.182 255.640,295.133 261.635 C 289.950 262.340,283.493 263.158,280.783 263.452 L 275.857 263.987 275.857 236.679 L 275.857 209.372 281.910 207.423 C 325.638 193.339,347.933 143.575,329.720 100.706 C 324.408 88.204,313.268 74.584,302.027 66.850 C 296.410 62.986,283.344 57.005,276.714 55.264 C 269.135 53.273,249.079 52.761,241.589 54.368 M267.689 92.123 C 281.572 95.739,293.271 107.328,296.937 121.095 C 299.754 131.677,297.785 145.401,292.201 154.103 C 275.512 180.110,238.800 180.065,221.851 154.017 C 217.253 146.949,215.605 140.034,216.025 129.568 C 216.339 121.748,216.643 120.474,219.647 114.395 C 225.128 103.306,234.744 95.183,245.963 92.166 C 252.087 90.519,261.458 90.501,267.689 92.123 " stroke="none" fill-rule="evenodd" fill="black"></path></svg>