<svg width="136mm" height="120mm" version="1.1" viewBox="0 0 600 529.4117647058824" xmlns="http://www.w3.org/2000/svg"><path d="M243.868 53.956 C 227.094 57.000,210.590 65.913,199.019 78.177 C 179.630 98.727,172.703 130.551,181.817 157.204 C 190.155 181.591,210.290 201.085,234.522 208.232 L 238.163 209.306 238.163 236.646 L 238.163 263.987 233.237 263.452 C 211.600 261.102,195.074 257.760,179.479 252.581 C 153.142 243.834,133.991 230.869,127.671 217.510 L 125.080 212.033 125.079 181.390 L 125.078 150.746 106.017 150.977 L 86.955 151.208 86.996 183.334 C 87.036 213.833,87.134 215.798,88.933 222.142 C 92.666 235.305,99.384 245.955,110.620 256.525 C 135.123 279.576,175.384 295.112,224.241 300.368 L 238.163 301.866 238.163 349.259 L 238.163 396.652 257.010 396.652 L 275.857 396.652 275.857 349.259 L 275.857 301.866 289.779 300.368 C 354.800 293.373,404.241 268.015,420.986 233.073 C 426.577 221.408,427.033 217.602,427.050 182.477 L 427.065 151.208 408.003 150.977 L 388.942 150.746 388.941 181.390 L 388.940 212.033 386.349 217.510 C 380.029 230.869,360.878 243.834,334.541 252.581 C 318.946 257.760,302.420 261.102,280.783 263.452 L 275.857 263.987 275.857 236.646 L 275.857 209.306 279.498 208.232 C 307.536 199.962,329.532 175.501,335.013 146.496 C 335.592 143.433,336.054 136.686,336.039 131.503 C 335.939 96.495,312.919 66.133,278.856 56.084 C 272.590 54.236,268.979 53.753,259.580 53.507 C 253.219 53.340,246.149 53.543,243.868 53.956 M267.689 92.123 C 279.226 95.128,288.800 103.120,294.373 114.395 C 297.377 120.474,297.681 121.748,297.995 129.568 C 298.415 140.034,296.767 146.949,292.169 154.017 C 275.110 180.233,238.910 180.233,221.851 154.017 C 217.253 146.949,215.605 140.034,216.025 129.568 C 216.339 121.748,216.643 120.474,219.647 114.395 C 225.128 103.306,234.744 95.183,245.963 92.166 C 252.087 90.519,261.458 90.501,267.689 92.123 " stroke="none" fill-rule="evenodd" fill="black"></path></svg>