<svg width="136mm" height="120mm" version="1.1" viewBox="0 0 600 529.4117647058824" xmlns="http://www.w3.org/2000/svg"><path d="M243.868 53.956 C 231.742 56.157,218.044 62.222,208.398 69.660 C 179.397 92.026,169.558 132.068,184.978 164.973 C 189.606 174.850,193.647 180.658,201.017 188.029 C 210.675 197.686,222.026 204.530,234.522 208.228 L 238.163 209.306 238.163 236.646 L 238.163 263.987 233.237 263.452 C 211.946 261.140,195.290 257.798,179.907 252.752 C 155.056 244.600,136.225 232.474,128.505 219.654 L 125.507 214.674 125.078 182.941 L 124.650 151.208 105.802 151.208 L 86.955 151.208 87.005 184.191 L 87.054 217.173 89.707 225.124 C 91.165 229.496,94.004 235.857,96.015 239.259 C 100.739 247.252,115.356 261.853,125.155 268.369 C 150.039 284.914,184.689 296.103,224.241 300.366 L 238.163 301.866 238.163 349.259 L 238.163 396.652 257.010 396.652 L 275.857 396.652 275.857 349.259 L 275.857 301.866 289.779 300.366 C 359.733 292.826,410.859 264.413,424.064 225.736 L 426.988 217.173 427.026 184.191 L 427.065 151.208 408.218 151.208 L 389.370 151.208 388.942 182.905 L 388.513 214.603 386.019 218.887 C 373.834 239.807,335.172 257.077,288.230 262.568 C 282.138 263.281,276.861 263.864,276.505 263.864 C 276.149 263.864,275.857 251.588,275.857 236.585 L 275.857 209.306 279.498 208.228 C 312.994 198.314,336.066 167.412,336.142 132.360 C 336.220 96.853,313.213 66.220,278.856 56.084 C 272.590 54.236,268.979 53.753,259.580 53.507 C 253.219 53.340,246.149 53.543,243.868 53.956 M267.689 92.123 C 279.382 95.169,289.181 103.351,294.468 114.484 C 297.342 120.536,297.693 122.043,297.999 129.654 C 298.415 140.027,296.754 146.970,292.169 154.017 C 285.347 164.501,275.335 171.136,263.221 173.200 C 245.717 176.183,227.460 166.285,219.160 149.311 C 216.384 143.635,216.317 143.233,216.317 132.360 C 216.317 121.258,216.327 121.202,219.530 114.494 C 224.768 103.524,234.594 95.223,245.963 92.166 C 252.087 90.519,261.458 90.501,267.689 92.123 " stroke="none" fill-rule="evenodd" fill="black"></path></svg>