<svg width="136mm" height="120mm" version="1.1" viewBox="0 0 600 529.4117647058824" xmlns="http://www.w3.org/2000/svg"><path d="M224.664 221.249 L 145.630 300.285 158.917 313.552 L 172.204 326.818 221.249 277.778 C 248.224 250.807,270.488 228.739,270.726 228.739 C 270.963 228.739,282.891 252.217,297.232 280.912 L 323.307 333.085 339.847 324.828 C 348.944 320.287,356.387 316.276,356.387 315.916 C 356.387 315.555,343.441 289.371,327.618 257.728 L 298.849 200.195 314.769 184.259 L 330.688 168.323 317.613 155.268 C 310.421 148.087,304.348 142.212,304.117 142.212 C 303.886 142.212,268.132 177.779,224.664 221.249 " stroke="none" fill-rule="evenodd" fill="black"></path></svg>