<svg width="136mm" height="120mm" version="1.1" viewBox="0 0 600 529.4117647058824" xmlns="http://www.w3.org/2000/svg"><path d="M200.865 44.763 C 198.707 50.464,137.072 236.282,137.072 237.087 C 137.072 237.936,146.118 238.163,179.910 238.163 L 222.748 238.163 210.656 262.364 C 204.005 275.675,198.398 286.743,198.195 286.959 C 197.991 287.176,190.148 283.529,180.764 278.856 C 171.380 274.183,163.536 270.536,163.334 270.752 C 163.131 270.969,159.293 278.495,154.806 287.478 L 146.647 303.810 163.705 312.305 C 173.087 316.977,180.764 321.099,180.764 321.465 C 180.764 321.830,174.595 334.462,167.056 349.534 L 153.349 376.939 169.618 385.082 C 178.566 389.561,186.185 393.225,186.549 393.225 C 186.913 393.225,193.369 380.889,200.896 365.811 C 208.423 350.733,214.879 338.397,215.243 338.397 C 215.607 338.396,223.993 342.444,233.879 347.392 C 243.765 352.339,252.049 356.387,252.286 356.387 C 253.012 356.387,269.080 323.792,268.672 323.149 C 268.462 322.818,260.162 318.507,250.228 313.569 C 240.294 308.630,232.166 304.291,232.166 303.926 C 232.166 303.561,239.491 288.615,248.445 270.713 L 264.725 238.163 283.615 238.163 C 305.298 238.163,310.805 239.025,321.691 244.124 C 335.401 250.546,345.666 260.518,352.153 273.716 C 357.193 283.968,358.503 289.895,358.498 302.415 C 358.494 311.196,358.135 314.281,356.504 319.549 C 349.505 342.151,332.851 358.309,310.125 364.547 C 305.359 365.855,299.777 366.129,271.360 366.448 L 238.163 366.821 238.163 385.672 L 238.163 404.524 273.073 404.113 C 309.795 403.681,312.327 403.445,325.974 399.188 C 345.292 393.162,364.213 379.491,376.882 362.403 C 397.786 334.211,402.372 296.839,389.020 263.495 C 378.294 236.707,355.069 214.879,327.446 205.625 C 312.473 200.608,310.283 200.468,247.046 200.468 C 201.133 200.468,189.331 200.247,189.331 199.386 C 189.331 198.791,193.122 186.936,197.757 173.042 L 206.183 147.781 282.570 147.562 L 358.957 147.343 358.957 128.500 L 358.957 109.658 289.136 109.658 C 250.735 109.658,219.315 109.362,219.315 109.000 C 219.315 108.638,223.327 96.321,228.229 81.630 L 237.144 54.917 220.304 49.304 C 211.043 46.217,202.971 43.692,202.368 43.692 C 201.764 43.692,201.088 44.174,200.865 44.763 " stroke="none" fill-rule="evenodd" fill="black"></path></svg>