<svg width="136mm" height="120mm" version="1.1" viewBox="0 0 600 529.4117647058824" xmlns="http://www.w3.org/2000/svg"><path d="M200.865 44.763 C 200.642 45.352,186.036 89.108,168.408 141.998 L 136.355 238.163 179.120 238.163 C 202.641 238.163,221.885 238.358,221.885 238.597 C 221.885 239.443,197.885 286.994,197.458 286.995 C 197.219 286.995,189.707 283.332,180.764 278.856 C 171.821 274.380,164.206 270.717,163.842 270.717 C 163.479 270.717,159.463 278.164,154.919 287.266 L 146.658 303.815 163.711 312.308 C 173.090 316.978,180.764 320.906,180.764 321.036 C 180.764 321.166,174.595 333.605,167.056 348.677 C 159.518 363.749,153.349 376.274,153.349 376.510 C 153.349 377.008,185.559 393.225,186.549 393.225 C 186.913 393.225,193.369 380.889,200.896 365.811 C 208.423 350.733,214.879 338.397,215.243 338.397 C 215.607 338.396,223.993 342.444,233.879 347.392 C 243.765 352.339,252.049 356.387,252.286 356.387 C 253.012 356.387,269.080 323.792,268.672 323.149 C 268.462 322.818,260.162 318.507,250.228 313.569 C 240.294 308.630,232.166 304.291,232.166 303.926 C 232.166 303.561,239.511 288.577,248.488 270.628 L 264.810 237.993 286.397 238.374 C 303.867 238.683,308.876 239.043,312.664 240.260 C 325.093 244.254,336.618 251.977,344.448 261.558 C 349.358 267.566,355.659 279.970,357.369 286.995 C 358.868 293.148,358.852 310.923,357.342 316.979 C 351.746 339.434,334.353 357.466,311.815 364.179 C 305.783 365.976,303.471 366.107,271.788 366.453 L 238.163 366.820 238.163 385.678 L 238.163 404.536 273.073 404.123 C 301.700 403.784,309.140 403.448,314.409 402.257 C 333.018 398.049,349.066 390.141,361.485 379.060 C 383.348 359.552,395.076 335.212,396.391 306.616 C 396.699 299.930,396.492 293.116,395.847 288.706 C 390.107 249.452,363.735 217.828,326.246 205.244 C 312.813 200.734,308.481 200.475,246.515 200.471 C 201.031 200.469,189.331 200.246,189.331 199.386 C 189.331 198.791,193.122 186.936,197.757 173.042 L 206.183 147.781 282.570 147.562 L 358.957 147.343 358.957 128.500 L 358.957 109.658 289.136 109.658 C 250.735 109.658,219.315 109.362,219.315 109.000 C 219.315 108.638,223.309 96.373,228.191 81.744 L 237.067 55.147 219.816 49.419 C 210.328 46.269,202.274 43.692,201.918 43.692 C 201.562 43.692,201.088 44.174,200.865 44.763 " stroke="none" fill-rule="evenodd" fill="black"></path></svg>