<svg width="136mm" height="120mm" version="1.1" viewBox="0 0 600 529.4117647058824" xmlns="http://www.w3.org/2000/svg"><path d="M200.865 44.763 C 200.642 45.352,186.036 89.108,168.408 141.998 L 136.355 238.163 179.120 238.163 C 202.641 238.163,221.885 238.358,221.885 238.597 C 221.885 239.443,197.885 286.994,197.458 286.995 C 197.219 286.995,189.707 283.332,180.764 278.856 C 171.821 274.380,164.206 270.717,163.842 270.717 C 163.479 270.717,159.429 278.234,154.842 287.421 L 146.503 304.124 163.634 312.698 L 180.765 321.271 167.033 348.724 C 159.480 363.823,153.472 376.447,153.682 376.777 C 154.276 377.714,186.644 393.630,187.058 393.190 C 187.261 392.974,193.488 380.653,200.896 365.811 C 208.304 350.969,214.473 338.706,214.606 338.560 C 214.738 338.415,222.981 342.367,232.922 347.342 C 242.864 352.317,251.385 356.387,251.858 356.387 C 252.868 356.387,269.234 324.034,268.672 323.149 C 268.462 322.818,260.162 318.507,250.228 313.569 C 240.294 308.630,232.166 304.291,232.166 303.926 C 232.166 303.561,239.491 288.615,248.445 270.713 L 264.725 238.163 282.927 238.169 C 292.939 238.173,303.609 238.578,306.639 239.069 C 321.822 241.533,337.336 251.356,346.642 264.398 C 354.583 275.525,357.822 284.736,358.654 298.560 C 359.773 317.154,354.038 332.779,341.123 346.319 C 332.572 355.284,323.856 360.589,311.747 364.198 C 305.799 365.971,303.367 366.108,271.788 366.453 L 238.163 366.820 238.163 385.591 L 238.163 404.362 267.505 404.348 C 283.643 404.339,300.446 403.954,304.845 403.490 C 370.602 396.564,412.346 331.410,391.085 268.888 C 382.168 242.666,361.353 220.061,335.998 209.064 C 316.584 200.644,314.833 200.475,246.515 200.471 C 201.031 200.469,189.331 200.246,189.331 199.386 C 189.331 198.791,193.122 186.936,197.757 173.042 L 206.183 147.781 282.570 147.562 L 358.957 147.343 358.957 128.500 L 358.957 109.658 289.136 109.658 C 250.735 109.658,219.315 109.362,219.315 109.000 C 219.315 108.638,223.309 96.373,228.191 81.744 L 237.067 55.147 219.816 49.419 C 210.328 46.269,202.274 43.692,201.918 43.692 C 201.562 43.692,201.088 44.174,200.865 44.763 " stroke="none" fill-rule="evenodd" fill="black"></path></svg>