<svg width="136mm" height="120mm" version="1.1" viewBox="0 0 600 529.4117647058824" xmlns="http://www.w3.org/2000/svg"><path d="M83.297 79.459 L 83.528 98.092 200.252 98.309 L 316.975 98.527 275.257 181.968 L 233.539 265.409 178.026 237.650 C 147.494 222.383,122.321 209.892,122.087 209.892 C 121.592 209.892,105.374 242.103,105.374 243.085 C 105.374 243.446,130.396 256.248,160.977 271.533 L 216.580 299.324 192.675 347.128 C 179.527 373.421,168.770 395.125,168.770 395.360 C 168.770 395.855,200.981 412.073,201.965 412.073 C 202.326 412.073,213.392 390.521,226.556 364.180 L 250.490 316.288 351.508 366.798 C 407.069 394.579,452.634 417.191,452.765 417.047 C 453.084 416.694,469.472 383.880,469.472 383.593 C 469.472 383.469,424.019 360.644,368.465 332.870 L 267.458 282.372 322.632 172.029 C 352.977 111.340,377.805 61.492,377.805 61.255 C 377.805 61.019,311.489 60.826,230.436 60.826 L 83.066 60.826 83.297 79.459 " stroke="none" fill-rule="evenodd" fill="black"></path></svg>