<svg width="136mm" height="120mm" version="1.1" viewBox="0 0 600 529.4117647058824" xmlns="http://www.w3.org/2000/svg"><path d="M83.297 79.459 L 83.528 98.092 200.252 98.309 L 316.975 98.527 275.257 181.968 L 233.539 265.409 178.026 237.650 C 147.494 222.383,122.321 209.892,122.087 209.892 C 121.592 209.892,105.374 242.103,105.374 243.085 C 105.374 243.446,130.396 256.248,160.977 271.533 L 216.580 299.324 192.675 347.128 C 179.527 373.421,168.770 395.125,168.770 395.360 C 168.770 395.783,200.907 412.073,201.743 412.073 C 201.982 412.073,212.974 390.484,226.169 364.098 L 250.159 316.122 351.245 366.667 L 452.330 417.211 460.820 400.248 L 469.309 383.286 368.300 332.787 C 312.745 305.013,267.290 282.190,267.290 282.070 C 267.290 281.950,292.156 232.121,322.548 171.339 L 377.806 60.826 230.436 60.826 L 83.066 60.826 83.297 79.459 " stroke="none" fill-rule="evenodd" fill="black"></path></svg>