<svg width="136mm" height="120mm" version="1.1" viewBox="0 0 600 529.4117647058824" xmlns="http://www.w3.org/2000/svg"><path d="M83.100 79.673 L 83.100 98.520 200.039 98.520 L 316.978 98.520 275.258 181.965 L 233.539 265.409 178.026 237.650 C 147.494 222.383,122.321 209.892,122.087 209.892 C 121.592 209.892,105.374 242.103,105.374 243.085 C 105.374 243.446,130.396 256.248,160.977 271.533 L 216.580 299.324 192.675 347.128 C 179.527 373.421,168.770 395.125,168.770 395.360 C 168.770 395.595,176.168 399.490,185.210 404.016 C 200.488 411.662,201.729 412.136,202.767 410.717 C 203.381 409.878,214.384 388.295,227.219 362.755 L 250.555 316.320 351.541 366.815 C 407.083 394.587,452.634 417.191,452.765 417.047 C 453.084 416.694,469.472 383.880,469.472 383.593 C 469.472 383.469,424.019 360.644,368.465 332.870 L 267.458 282.372 322.632 172.029 C 352.977 111.340,377.805 61.492,377.805 61.255 C 377.805 61.019,311.496 60.826,230.452 60.826 L 83.100 60.826 83.100 79.673 " stroke="none" fill-rule="evenodd" fill="black"></path></svg>