<svg width="136mm" height="120mm" version="1.1" viewBox="0 0 600 529.4117647058824" xmlns="http://www.w3.org/2000/svg"><path d="M224.401 212.247 C 195.550 298.828,171.783 370.106,171.586 370.644 C 171.363 371.252,177.995 373.881,189.108 377.590 L 206.989 383.557 226.201 325.879 C 236.767 294.156,245.661 268.478,245.964 268.816 C 246.267 269.155,255.064 295.126,265.512 326.529 L 284.508 383.625 299.030 378.803 L 313.552 373.981 328.112 378.816 C 336.120 381.475,342.815 383.395,342.989 383.084 C 343.163 382.772,351.871 356.783,362.340 325.332 C 372.809 293.880,381.503 268.147,381.660 268.147 C 381.817 268.147,390.511 293.880,400.980 325.332 C 411.449 356.783,420.159 382.775,420.335 383.090 C 420.679 383.705,453.980 372.902,455.218 371.774 C 455.625 371.404,443.707 334.350,428.734 289.431 L 401.511 207.761 424.782 137.929 C 437.582 99.521,448.054 67.649,448.054 67.102 C 448.054 65.823,413.857 54.395,412.961 55.375 C 412.589 55.781,390.172 122.505,363.145 203.650 C 336.118 284.794,313.758 350.910,313.457 350.574 C 313.156 350.237,302.259 317.963,289.242 278.853 L 265.575 207.744 289.119 137.124 C 302.068 98.283,312.574 66.436,312.465 66.352 C 312.056 66.038,277.974 54.829,277.428 54.829 C 277.114 54.829,253.252 125.667,224.401 212.247 M60.826 98.520 L 60.826 117.368 85.242 117.368 L 109.658 117.368 109.658 166.200 L 109.658 215.032 85.242 215.032 L 60.826 215.032 60.826 233.879 L 60.826 252.727 85.242 252.727 L 109.658 252.727 109.658 311.410 L 109.658 370.094 128.505 370.094 L 147.352 370.094 147.352 311.410 L 147.352 252.727 172.213 252.727 L 197.074 252.727 196.844 234.093 L 196.613 215.460 171.983 215.233 L 147.352 215.005 147.352 166.200 L 147.352 117.394 171.983 117.167 L 196.613 116.940 196.844 98.306 L 197.074 79.673 128.950 79.673 L 60.826 79.673 60.826 98.520 " stroke="none" fill-rule="evenodd" fill="black"></path></svg>