<svg width="136mm" height="120mm" version="1.1" viewBox="0 0 600 529.4117647058824" xmlns="http://www.w3.org/2000/svg"><path d="M90.810 86.527 L 90.810 105.374 220.600 105.374 C 291.985 105.374,350.390 105.665,350.390 106.020 C 350.390 106.375,332.851 124.202,311.414 145.635 L 272.438 184.604 240.778 168.793 C 223.365 160.096,208.949 153.160,208.744 153.379 C 208.538 153.598,204.663 161.198,200.133 170.267 L 191.895 186.755 256.146 218.883 L 320.398 251.011 328.541 234.744 C 333.019 225.796,336.683 218.089,336.683 217.615 C 336.683 217.142,330.418 213.625,322.762 209.800 C 315.105 205.975,308.664 202.680,308.449 202.478 C 308.233 202.277,338.303 171.865,375.269 134.896 L 442.481 67.679 266.646 67.679 L 90.810 67.679 90.810 86.527 M137.071 312.268 L 56.974 392.369 255.297 392.369 L 453.621 392.369 399.865 338.613 L 346.109 284.857 332.620 298.346 L 319.131 311.836 340.537 333.255 L 361.943 354.674 254.865 354.674 L 147.786 354.674 195.756 306.699 L 243.725 258.724 230.447 245.446 L 217.168 232.167 137.071 312.268 " stroke="none" fill-rule="evenodd" fill="black"></path></svg>