<svg width="136mm" height="120mm" version="1.1" viewBox="0 0 600 529.4117647058824" xmlns="http://www.w3.org/2000/svg"><path d="M90.810 86.955 L 90.810 106.231 220.811 106.231 L 350.812 106.231 311.839 145.211 C 290.404 166.650,272.380 184.190,271.787 184.191 C 271.194 184.191,256.789 177.229,239.778 168.721 C 222.766 160.212,208.740 153.369,208.609 153.514 C 208.478 153.659,204.663 161.198,200.133 170.267 L 191.895 186.755 256.146 218.883 L 320.398 251.011 328.541 234.744 C 333.019 225.796,336.683 218.173,336.683 217.803 C 336.683 217.433,330.482 214.056,322.902 210.298 C 315.323 206.541,308.912 203.132,308.655 202.724 C 308.398 202.316,338.404 171.763,375.334 134.830 L 442.481 67.679 266.646 67.679 L 90.810 67.679 90.810 86.955 M137.284 312.056 C 93.347 355.994,57.399 392.232,57.399 392.584 C 57.399 392.937,146.453 393.225,255.297 393.225 C 364.140 393.225,453.194 392.935,453.194 392.580 C 453.194 392.225,429.100 367.843,399.651 338.397 L 346.108 284.859 332.619 298.347 L 319.130 311.836 340.965 333.683 L 362.800 355.531 255.504 355.531 C 196.492 355.531,148.209 355.243,148.209 354.891 C 148.209 354.539,169.700 332.758,195.967 306.488 L 243.725 258.724 230.447 245.446 L 217.168 232.167 137.284 312.056 " stroke="none" fill-rule="evenodd" fill="black"></path></svg>