<svg width="136mm" height="120mm" version="1.1" viewBox="0 0 600 529.4117647058824" xmlns="http://www.w3.org/2000/svg"><path d="M200.865 44.763 C 200.642 45.352,186.036 89.108,168.408 141.998 L 136.355 238.163 179.120 238.163 C 202.641 238.163,221.885 238.356,221.885 238.593 C 221.885 238.830,206.454 269.884,187.594 307.602 C 168.734 345.320,153.474 376.449,153.682 376.778 C 154.277 377.715,186.644 393.630,187.059 393.190 C 187.263 392.974,204.839 357.966,226.118 315.395 L 264.807 237.993 286.395 238.374 C 303.867 238.683,308.876 239.043,312.664 240.260 C 325.093 244.254,336.618 251.977,344.448 261.558 C 349.358 267.566,355.659 279.970,357.369 286.995 C 358.868 293.148,358.852 310.923,357.342 316.979 C 351.746 339.434,334.353 357.466,311.815 364.179 C 305.783 365.976,303.471 366.107,271.788 366.453 L 238.163 366.820 238.163 385.678 L 238.163 404.536 273.073 404.123 C 301.700 403.784,309.140 403.448,314.409 402.257 C 333.018 398.049,349.066 390.141,361.485 379.060 C 383.348 359.552,395.076 335.212,396.391 306.616 C 396.699 299.930,396.492 293.116,395.847 288.706 C 390.107 249.452,363.735 217.828,326.246 205.244 C 312.813 200.734,308.481 200.475,246.515 200.471 C 201.031 200.469,189.331 200.246,189.331 199.386 C 189.331 198.791,193.122 186.936,197.757 173.042 L 206.183 147.781 282.570 147.562 L 358.957 147.343 358.957 128.500 L 358.957 109.658 289.136 109.658 C 250.735 109.658,219.315 109.362,219.315 109.000 C 219.315 108.638,223.309 96.373,228.191 81.744 L 237.067 55.147 219.816 49.419 C 210.328 46.269,202.274 43.692,201.918 43.692 C 201.562 43.692,201.088 44.174,200.865 44.763 " stroke="none" fill-rule="evenodd" fill="black"></path></svg>