<svg width="136mm" height="120mm" version="1.1" viewBox="0 0 600 529.4117647058824" xmlns="http://www.w3.org/2000/svg"><path d="M200.865 44.763 C 200.642 45.352,186.036 89.108,168.408 141.998 L 136.355 238.163 179.120 238.163 C 202.641 238.163,221.885 238.356,221.885 238.593 C 221.885 238.830,206.454 269.884,187.594 307.602 C 168.734 345.320,153.474 376.449,153.682 376.778 C 154.277 377.715,186.644 393.630,187.059 393.190 C 187.263 392.974,204.820 358.004,226.076 315.480 L 264.722 238.163 282.926 238.169 C 292.938 238.173,303.609 238.578,306.639 239.069 C 321.822 241.533,337.336 251.356,346.642 264.398 C 354.583 275.525,357.822 284.736,358.654 298.560 C 359.773 317.154,354.038 332.779,341.123 346.319 C 332.572 355.284,323.856 360.589,311.747 364.198 C 305.799 365.971,303.367 366.108,271.788 366.453 L 238.163 366.820 238.163 385.591 L 238.163 404.362 267.505 404.348 C 283.643 404.339,300.446 403.954,304.845 403.490 C 370.602 396.564,412.346 331.410,391.085 268.888 C 382.168 242.666,361.353 220.061,335.998 209.064 C 316.584 200.644,314.833 200.475,246.515 200.471 C 201.031 200.469,189.331 200.246,189.331 199.386 C 189.331 198.791,193.122 186.936,197.757 173.042 L 206.183 147.781 282.570 147.562 L 358.957 147.343 358.957 128.500 L 358.957 109.658 289.136 109.658 C 250.735 109.658,219.315 109.362,219.315 109.000 C 219.315 108.638,223.309 96.373,228.191 81.744 L 237.067 55.147 219.816 49.419 C 210.328 46.269,202.274 43.692,201.918 43.692 C 201.562 43.692,201.088 44.174,200.865 44.763 " stroke="none" fill-rule="evenodd" fill="black"></path></svg>