<svg width="136mm" height="120mm" version="1.1" viewBox="0 0 600 529.4117647058824" xmlns="http://www.w3.org/2000/svg"><path d="M200.865 44.763 C 198.707 50.464,137.072 236.282,137.072 237.087 C 137.072 237.936,146.118 238.163,179.908 238.163 L 222.744 238.163 188.045 307.557 L 153.345 376.952 170.012 385.272 C 179.179 389.848,186.848 393.413,187.054 393.195 C 187.261 392.976,204.820 358.004,226.076 315.480 L 264.722 238.163 283.614 238.163 C 305.298 238.163,310.805 239.025,321.691 244.124 C 335.401 250.546,345.666 260.518,352.153 273.716 C 357.193 283.968,358.503 289.895,358.498 302.415 C 358.494 311.196,358.135 314.281,356.504 319.549 C 349.505 342.151,332.851 358.309,310.125 364.547 C 305.359 365.855,299.777 366.129,271.360 366.448 L 238.163 366.821 238.163 385.672 L 238.163 404.524 273.073 404.113 C 309.795 403.681,312.327 403.445,325.974 399.188 C 345.292 393.162,364.213 379.491,376.882 362.403 C 397.786 334.211,402.372 296.839,389.020 263.495 C 378.294 236.707,355.069 214.879,327.446 205.625 C 312.473 200.608,310.283 200.468,247.046 200.468 C 201.133 200.468,189.331 200.247,189.331 199.386 C 189.331 198.791,193.122 186.936,197.757 173.042 L 206.183 147.781 282.570 147.562 L 358.957 147.343 358.957 128.500 L 358.957 109.658 289.136 109.658 C 250.735 109.658,219.315 109.362,219.315 109.000 C 219.315 108.638,223.327 96.321,228.229 81.630 L 237.144 54.917 220.304 49.304 C 211.043 46.217,202.971 43.692,202.368 43.692 C 201.764 43.692,201.088 44.174,200.865 44.763 " stroke="none" fill-rule="evenodd" fill="black"></path></svg>