<svg width="136mm" height="120mm" version="1.1" viewBox="0 0 600 529.4117647058824" xmlns="http://www.w3.org/2000/svg"><path d="M238.163 55.103 L 238.163 72.511 228.953 73.564 C 189.818 78.037,155.340 94.827,141.006 116.394 C 134.003 126.930,131.622 136.681,132.089 152.921 L 132.360 162.345 151.208 162.345 L 170.055 162.345 170.483 150.708 C 170.891 139.620,171.024 138.924,173.291 135.956 C 181.825 124.784,207.680 114.010,233.237 110.976 L 238.163 110.391 238.163 149.861 L 238.163 189.331 171.752 189.331 L 105.341 189.331 105.572 207.964 L 105.802 226.597 157.633 227.025 C 186.139 227.261,208.744 227.748,207.865 228.107 C 206.986 228.467,203.116 230.836,199.265 233.372 C 195.414 235.908,165.813 251.206,133.485 267.368 L 74.706 296.754 82.962 313.292 C 87.503 322.388,91.514 329.830,91.875 329.829 C 92.237 329.829,106.837 322.675,124.320 313.931 C 141.803 305.188,156.249 298.176,156.423 298.349 C 156.597 298.523,156.364 300.955,155.906 303.753 C 152.300 325.771,158.575 353.022,171.916 373.279 C 194.037 406.870,234.950 424.527,274.628 417.608 C 322.891 409.191,358.980 366.351,358.952 317.509 C 358.950 312.741,358.572 306.551,358.114 303.753 C 357.656 300.955,357.423 298.523,357.597 298.349 C 357.771 298.176,372.217 305.188,389.700 313.931 C 407.183 322.675,421.783 329.829,422.145 329.829 C 422.506 329.829,426.517 322.388,431.058 313.292 L 439.314 296.754 380.535 267.368 C 348.207 251.206,318.606 235.908,314.755 233.372 C 310.904 230.836,307.034 228.467,306.155 228.107 C 305.276 227.748,326.146 227.261,352.532 227.025 L 400.507 226.597 400.738 207.964 L 400.969 189.331 338.413 189.331 L 275.857 189.331 275.857 149.861 L 275.857 110.391 280.783 110.976 C 306.340 114.010,332.195 124.784,340.729 135.956 C 342.996 138.924,343.129 139.620,343.537 150.708 L 343.965 162.345 362.812 162.345 L 381.660 162.345 381.581 149.066 C 381.511 137.299,381.256 135.039,379.339 129.220 C 370.107 101.193,332.489 78.984,285.067 73.564 L 275.857 72.511 275.857 55.103 L 275.857 37.695 257.010 37.695 L 238.163 37.695 238.163 55.103 M266.126 253.926 C 269.428 254.234,274.147 256.148,284.974 261.571 C 300.622 269.408,304.856 272.835,311.260 282.846 C 318.263 293.793,320.848 303.277,320.797 317.836 C 320.767 326.498,320.383 329.772,318.790 334.970 C 314.835 347.877,306.820 359.740,296.745 367.600 C 289.788 373.027,285.140 375.581,277.142 378.369 C 270.782 380.587,269.333 380.759,257.010 380.759 C 244.687 380.759,243.238 380.587,236.878 378.369 C 216.642 371.313,201.613 355.659,195.210 334.970 C 193.584 329.719,193.218 326.588,193.203 317.836 C 193.179 303.265,195.773 293.768,202.760 282.846 C 209.175 272.818,213.389 269.413,229.167 261.506 C 242.353 254.898,244.339 254.153,250.156 253.632 C 253.690 253.316,257.738 253.160,259.152 253.286 C 260.565 253.412,263.704 253.700,266.126 253.926 " stroke="none" fill-rule="evenodd" fill="black"></path></svg>