<svg width="136mm" height="120mm" version="1.1" viewBox="0 0 600 529.4117647058824" xmlns="http://www.w3.org/2000/svg"><path d="M238.163 55.103 L 238.163 72.511 228.953 73.564 C 203.842 76.434,178.312 85.181,160.884 96.886 C 152.642 102.422,142.293 113.344,138.635 120.366 C 133.571 130.092,132.545 134.918,132.447 149.494 L 132.360 162.345 151.208 162.345 L 170.055 162.345 170.295 151.324 C 170.528 140.665,170.620 140.180,173.102 136.573 C 180.964 125.146,206.911 114.102,233.237 110.976 L 238.163 110.391 238.163 149.861 L 238.163 189.331 172.197 189.331 L 106.231 189.331 106.231 208.178 L 106.231 227.025 157.847 227.052 C 196.327 227.071,209.027 227.321,207.750 228.035 C 206.807 228.561,202.943 231.011,199.163 233.479 C 195.383 235.946,165.987 251.118,133.840 267.193 C 101.692 283.268,75.390 296.803,75.390 297.270 C 75.390 298.674,91.164 329.829,91.875 329.829 C 92.237 329.829,106.837 322.675,124.320 313.931 C 141.803 305.188,156.284 298.211,156.500 298.427 C 156.717 298.643,156.482 301.049,155.978 303.774 C 154.673 310.833,154.852 323.778,156.386 333.233 C 163.328 376.039,196.939 410.204,239.392 417.608 C 249.070 419.295,264.950 419.295,274.628 417.608 C 311.288 411.215,341.753 384.822,353.728 349.080 C 358.457 334.964,360.276 315.860,358.042 303.774 C 357.538 301.049,357.303 298.643,357.520 298.427 C 357.736 298.211,372.217 305.188,389.700 313.931 C 407.183 322.675,421.783 329.829,422.145 329.829 C 422.856 329.830,438.630 298.674,438.630 297.270 C 438.630 296.803,412.328 283.268,380.180 267.193 C 348.033 251.118,318.585 235.895,314.742 233.363 C 310.898 230.832,307.034 228.467,306.155 228.107 C 305.276 227.748,326.146 227.261,352.532 227.025 L 400.507 226.597 400.738 207.964 L 400.969 189.331 338.413 189.331 L 275.857 189.331 275.857 149.861 L 275.857 110.391 280.783 110.976 C 301.549 113.441,321.234 120.361,333.769 129.599 C 342.002 135.668,343.026 137.934,343.537 151.208 L 343.965 162.345 362.812 162.345 L 381.660 162.345 381.573 149.494 C 381.475 134.918,380.449 130.092,375.385 120.366 C 371.727 113.344,361.378 102.422,353.136 96.886 C 335.708 85.181,310.178 76.434,285.067 73.564 L 275.857 72.511 275.857 55.103 L 275.857 37.695 257.010 37.695 L 238.163 37.695 238.163 55.103 M266.126 253.926 C 269.428 254.234,274.147 256.148,284.974 261.571 C 300.630 269.412,304.954 272.914,311.190 282.801 C 318.086 293.737,320.704 303.099,320.748 316.979 C 320.798 333.255,317.422 343.500,307.851 356.112 C 303.040 362.451,294.609 369.895,287.851 373.769 C 285.731 374.985,280.912 377.055,277.142 378.369 C 270.782 380.587,269.333 380.759,257.010 380.759 C 244.687 380.759,243.238 380.587,236.878 378.369 C 228.443 375.428,223.980 372.909,216.575 366.910 C 206.295 358.583,198.201 346.106,194.744 333.256 C 192.700 325.661,192.737 308.406,194.813 300.766 C 196.483 294.622,201.134 284.728,204.506 280.149 C 210.725 271.704,214.300 269.004,229.167 261.530 C 242.372 254.891,244.331 254.154,250.156 253.632 C 253.690 253.316,257.738 253.160,259.152 253.286 C 260.565 253.412,263.704 253.700,266.126 253.926 " stroke="none" fill-rule="evenodd" fill="black"></path></svg>