<svg width="136mm" height="120mm" version="1.1" viewBox="0 0 600 529.4117647058824" xmlns="http://www.w3.org/2000/svg"><path d="M238.163 55.100 L 238.163 72.505 229.582 73.511 C 204.107 76.500,179.196 84.800,161.916 96.055 C 153.558 101.500,142.365 113.189,138.638 120.366 C 133.563 130.139,132.788 133.961,132.788 149.238 L 132.788 162.806 151.422 162.576 L 170.055 162.345 170.483 150.708 C 170.894 139.545,171.011 138.941,173.351 135.877 C 174.693 134.121,177.584 131.347,179.776 129.713 C 185.712 125.287,199.865 118.593,208.606 116.076 C 215.443 114.107,233.761 110.514,236.963 110.514 C 237.974 110.514,238.163 116.646,238.163 149.494 L 238.163 188.474 172.197 188.474 L 106.231 188.474 106.231 207.750 L 106.231 227.025 157.847 227.036 L 209.463 227.046 205.982 229.037 C 204.067 230.132,200.199 232.591,197.386 234.502 C 194.573 236.412,165.973 251.125,133.830 267.198 C 101.688 283.270,75.390 296.617,75.390 296.856 C 75.390 297.694,91.679 329.829,92.104 329.829 C 92.340 329.829,106.837 322.675,124.320 313.931 C 141.803 305.188,156.240 298.166,156.402 298.329 C 156.565 298.491,156.337 301.115,155.897 304.161 C 153.133 323.290,157.019 345.178,166.454 363.621 C 179.823 389.751,202.615 408.002,232.002 416.108 C 239.691 418.229,241.539 418.398,257.010 418.396 C 272.377 418.393,274.388 418.212,282.106 416.129 C 316.375 406.884,342.609 382.268,353.803 348.855 C 358.362 335.249,360.066 317.610,358.123 304.161 C 357.683 301.115,357.455 298.491,357.618 298.329 C 357.780 298.166,372.217 305.188,389.700 313.931 C 407.183 322.675,421.680 329.829,421.916 329.829 C 422.341 329.829,438.630 297.694,438.630 296.856 C 438.630 296.617,412.457 283.333,380.468 267.337 C 348.478 251.341,318.751 235.920,314.408 233.068 C 310.065 230.216,306.071 227.791,305.534 227.679 C 304.997 227.567,326.146 227.278,352.532 227.036 L 400.507 226.597 400.507 207.750 L 400.507 188.902 338.182 188.683 L 275.857 188.463 275.857 149.489 C 275.857 116.645,276.046 110.514,277.057 110.514 C 280.230 110.514,298.561 114.125,305.414 116.100 C 320.221 120.367,336.103 129.393,341.080 136.369 C 342.906 138.929,343.151 140.366,343.537 150.779 L 343.965 162.345 362.598 162.576 L 381.231 162.806 381.231 149.691 C 381.231 134.640,380.244 129.625,375.500 120.598 C 369.240 108.686,353.790 95.436,337.244 87.791 C 322.583 81.018,302.787 75.664,284.438 73.511 L 275.857 72.505 275.857 55.100 L 275.857 37.695 257.010 37.695 L 238.163 37.695 238.163 55.100 M264.994 253.605 C 269.667 254.281,273.729 255.911,285.285 261.749 C 298.368 268.357,300.216 269.575,304.847 274.628 C 310.634 280.944,316.998 292.781,319.325 301.558 C 321.338 309.149,321.282 325.627,319.218 333.256 C 314.490 350.731,301.837 366.453,286.113 374.390 C 276.316 379.336,269.658 380.803,257.010 380.803 C 247.282 380.803,244.424 380.484,239.019 378.797 C 216.995 371.920,200.731 355.169,194.802 333.256 C 192.734 325.610,192.682 309.142,194.702 301.558 C 197.132 292.439,203.164 281.186,209.087 274.722 C 213.978 269.384,215.511 268.378,229.058 261.621 C 246.633 252.854,251.811 251.699,264.994 253.605 " stroke="none" fill-rule="evenodd" fill="black"></path></svg>