<svg width="136mm" height="120mm" version="1.1" viewBox="0 0 600 529.4117647058824" xmlns="http://www.w3.org/2000/svg"><path d="M238.163 96.379 L 238.163 131.932 156.760 131.932 L 75.357 131.932 75.587 150.993 L 75.818 170.055 155.704 170.274 L 235.589 170.492 183.332 275.004 C 154.591 332.485,131.075 379.810,131.075 380.169 C 131.075 380.529,138.593 384.577,147.782 389.164 L 164.490 397.505 210.534 305.411 C 235.858 254.760,256.772 213.318,257.010 213.318 C 257.248 213.318,278.162 254.760,303.486 305.411 L 349.530 397.505 366.238 389.164 C 375.427 384.577,382.945 380.529,382.945 380.169 C 382.945 379.810,359.429 332.485,330.688 275.004 L 278.431 170.492 358.316 170.274 L 438.202 170.055 438.433 150.993 L 438.663 131.932 357.260 131.932 L 275.857 131.932 275.857 96.379 L 275.857 60.826 257.010 60.826 L 238.163 60.826 238.163 96.379 " stroke="none" fill-rule="evenodd" fill="black"></path></svg>