<svg width="136mm" height="120mm" version="1.1" viewBox="0 0 600 529.4117647058824" xmlns="http://www.w3.org/2000/svg"><path d="M238.163 96.374 L 238.163 131.923 156.990 132.142 L 75.818 132.360 75.587 150.993 L 75.356 169.627 155.474 169.627 C 199.539 169.627,235.593 169.820,235.593 170.056 C 235.593 170.293,212.076 217.518,183.334 275.001 C 154.592 332.484,131.075 379.810,131.075 380.169 C 131.075 380.529,138.593 384.577,147.782 389.164 L 164.490 397.505 210.534 305.411 C 235.858 254.760,256.772 213.318,257.010 213.318 C 257.248 213.318,278.162 254.760,303.486 305.411 L 349.530 397.505 366.238 389.164 C 375.427 384.577,382.945 380.529,382.945 380.169 C 382.945 379.810,359.428 332.484,330.686 275.001 C 301.944 217.518,278.428 170.293,278.428 170.056 C 278.428 169.820,314.481 169.627,358.546 169.627 L 438.664 169.627 438.433 150.993 L 438.202 132.360 357.030 132.142 L 275.857 131.923 275.857 96.374 L 275.857 60.826 257.010 60.826 L 238.163 60.826 238.163 96.374 " stroke="none" fill-rule="evenodd" fill="black"></path></svg>