<svg width="136mm" height="120mm" version="1.1" viewBox="0 0 600 529.4117647058824" xmlns="http://www.w3.org/2000/svg"><path d="M132.519 57.097 C 132.196 57.420,131.932 65.138,131.932 74.247 L 131.932 90.810 99.806 90.810 L 67.679 90.810 67.679 109.658 L 67.679 128.505 151.208 128.505 L 234.736 128.505 234.736 109.658 L 234.736 90.810 202.628 90.810 L 170.520 90.810 170.287 73.890 L 170.055 56.971 151.581 56.740 C 141.420 56.613,132.842 56.774,132.519 57.097 M343.537 100.234 L 343.537 139.642 301.987 139.642 L 260.437 139.642 260.437 158.489 L 260.437 177.337 301.987 177.337 L 343.537 177.337 343.537 180.125 C 343.537 181.659,328.526 227.942,310.180 282.977 C 287.806 350.091,277.157 383.166,277.839 383.421 C 287.394 387.003,312.338 394.767,312.765 394.292 C 313.082 393.941,324.471 360.208,338.075 319.329 L 362.809 245.005 387.655 319.484 C 401.320 360.447,412.721 394.177,412.989 394.439 C 413.353 394.794,439.708 386.450,447.786 383.421 C 448.468 383.166,437.819 350.091,415.445 282.977 C 397.099 227.942,382.088 181.659,382.088 180.125 L 382.088 177.337 423.638 177.337 L 465.188 177.337 465.188 158.489 L 465.188 139.642 423.638 139.642 L 382.088 139.642 382.088 100.234 L 382.088 60.826 362.812 60.826 L 343.537 60.826 343.537 100.234 M131.932 160.631 L 131.932 181.620 99.789 181.620 L 67.646 181.620 67.877 200.254 L 68.108 218.887 94.023 219.114 C 108.276 219.238,119.938 219.528,119.938 219.758 C 119.938 219.988,102.761 254.528,81.767 296.515 C 60.772 338.501,43.713 372.961,43.858 373.091 C 44.211 373.412,77.025 389.798,77.313 389.798 C 77.437 389.799,94.114 356.643,114.371 316.119 L 151.203 242.440 187.923 315.905 C 208.119 356.311,224.752 389.489,224.885 389.635 C 225.089 389.857,257.780 373.796,258.557 373.091 C 258.702 372.961,241.643 338.501,220.648 296.515 C 199.654 254.528,182.477 219.988,182.477 219.758 C 182.477 219.528,194.139 219.238,208.392 219.114 L 234.307 218.887 234.538 200.254 L 234.769 181.620 202.626 181.620 L 170.483 181.620 170.483 160.631 L 170.483 139.642 151.208 139.642 L 131.932 139.642 131.932 160.631 " stroke="none" fill-rule="evenodd" fill="black"></path></svg>