<svg width="136mm" height="120mm" version="1.1" viewBox="0 0 600 529.4117647058824" xmlns="http://www.w3.org/2000/svg"><path d="M132.592 73.462 L 132.360 90.382 100.448 90.606 L 68.536 90.831 68.536 109.672 L 68.536 128.514 151.422 128.295 L 234.307 128.077 234.538 109.443 L 234.769 90.810 202.626 90.810 L 170.483 90.810 170.483 73.676 L 170.483 56.542 151.654 56.542 L 132.825 56.542 132.592 73.462 M343.537 100.234 L 343.537 139.642 301.987 139.642 L 260.437 139.642 260.437 158.489 L 260.437 177.337 301.987 177.337 L 343.537 177.337 343.537 180.125 C 343.537 181.659,328.526 227.942,310.180 282.977 C 287.806 350.091,277.157 383.166,277.839 383.421 C 283.981 385.724,312.226 394.837,312.469 394.595 C 312.645 394.418,324.012 360.594,337.728 319.431 L 362.666 244.588 387.673 319.549 C 409.730 385.669,412.870 394.480,414.303 394.252 C 417.664 393.716,447.202 383.630,447.682 382.855 C 447.957 382.409,433.319 337.431,415.152 282.903 C 396.985 228.376,382.018 182.413,381.891 180.764 L 381.660 177.765 422.996 177.543 L 464.331 177.320 464.331 158.481 L 464.331 139.642 422.781 139.642 L 381.231 139.642 381.231 100.234 L 381.231 60.826 362.384 60.826 L 343.537 60.826 343.537 100.234 M132.590 160.417 L 132.360 181.192 100.448 181.417 L 68.536 181.641 68.536 200.478 L 68.536 219.315 94.237 219.315 C 108.373 219.315,119.938 219.509,119.938 219.745 C 119.938 219.982,102.761 254.528,81.767 296.515 C 60.772 338.501,43.713 372.961,43.858 373.091 C 44.211 373.412,77.025 389.798,77.313 389.798 C 77.437 389.798,94.114 356.643,114.371 316.119 L 151.203 242.440 187.923 315.905 C 208.119 356.311,224.752 389.489,224.885 389.635 C 225.089 389.857,257.780 373.796,258.557 373.091 C 258.702 372.961,241.643 338.501,220.648 296.515 C 199.654 254.528,182.477 219.988,182.477 219.758 C 182.477 219.528,194.139 219.238,208.392 219.114 L 234.307 218.887 234.538 200.254 L 234.769 181.620 202.626 181.620 L 170.483 181.620 170.483 160.631 L 170.483 139.642 151.651 139.642 L 132.819 139.642 132.590 160.417 " stroke="none" fill-rule="evenodd" fill="black"></path></svg>