<svg width="136mm" height="120mm" version="1.1" viewBox="0 0 600 529.4117647058824" xmlns="http://www.w3.org/2000/svg"><path d="M75.587 79.459 L 75.818 98.092 149.066 98.317 L 222.314 98.542 217.602 101.230 C 182.944 120.998,168.473 163.722,183.988 200.468 C 187.579 208.973,189.721 212.520,195.983 220.333 C 204.610 231.097,218.234 240.582,231.095 244.777 L 238.163 247.083 238.163 274.321 C 238.163 295.611,237.928 301.558,237.086 301.558 C 234.240 301.558,213.819 298.870,207.750 297.696 C 183.558 293.016,160.475 284.459,146.384 274.947 C 138.496 269.622,129.757 260.600,127.231 255.174 L 125.095 250.585 125.087 219.958 L 125.078 189.331 105.802 189.331 L 86.527 189.331 86.533 216.959 C 86.537 232.155,86.904 247.753,87.349 251.622 C 89.135 267.156,95.265 278.799,108.709 292.191 C 120.748 304.183,131.991 311.658,149.727 319.463 C 171.340 328.974,198.933 335.744,227.240 338.480 L 238.163 339.536 238.163 377.518 L 238.163 415.500 257.010 415.500 L 275.857 415.500 275.857 377.518 L 275.857 339.536 286.780 338.480 C 315.087 335.744,342.680 328.974,364.293 319.463 C 382.029 311.658,393.272 304.183,405.311 292.191 C 415.283 282.257,420.061 275.124,423.678 264.771 C 426.865 255.650,427.480 247.935,427.487 216.959 L 427.493 189.331 408.218 189.331 L 388.942 189.331 388.942 220.004 L 388.942 250.677 386.639 255.343 C 383.908 260.875,375.251 269.806,367.636 274.947 C 353.545 284.459,330.462 293.016,306.270 297.696 C 300.201 298.870,279.780 301.558,276.934 301.558 C 276.092 301.558,275.857 295.611,275.857 274.321 L 275.857 247.083 282.925 244.777 C 299.170 239.478,314.885 226.866,324.793 211.177 C 328.260 205.687,332.982 193.750,334.621 186.332 C 335.597 181.914,336.127 175.977,336.111 169.627 C 336.040 141.064,321.090 115.302,296.418 101.230 L 291.706 98.542 364.954 98.317 L 438.202 98.092 438.433 79.459 L 438.664 60.826 257.010 60.826 L 75.356 60.826 75.587 79.459 M265.674 129.363 C 277.306 131.526,288.660 140.528,294.394 152.136 L 297.703 158.835 297.686 170.013 C 297.670 180.756,297.563 181.417,294.960 186.964 C 292.092 193.077,285.469 200.792,279.713 204.727 C 272.925 209.366,266.881 211.049,257.010 211.049 C 247.139 211.049,241.095 209.366,234.307 204.727 C 228.584 200.815,221.961 193.107,219.059 186.982 C 216.409 181.388,216.317 180.814,216.317 170.011 L 216.317 158.829 219.626 152.133 C 228.316 134.551,246.149 125.733,265.674 129.363 " stroke="none" fill-rule="evenodd" fill="black"></path></svg>