<svg width="136mm" height="120mm" version="1.1" viewBox="0 0 600 529.4117647058824" xmlns="http://www.w3.org/2000/svg"><path d="M75.587 79.459 L 75.818 98.092 149.066 98.317 L 222.314 98.542 217.602 101.230 C 190.631 116.614,174.833 147.339,178.249 177.765 C 179.490 188.816,181.151 194.592,185.919 204.441 C 195.268 223.752,211.130 237.900,231.094 244.738 L 238.162 247.158 238.162 274.426 L 238.163 301.695 232.380 301.127 C 182.557 296.230,141.498 278.927,128.505 257.349 L 125.507 252.369 125.078 220.636 L 124.650 188.902 106.017 188.671 L 87.383 188.441 87.383 220.875 C 87.383 250.124,87.546 253.945,89.038 259.780 C 92.236 272.284,99.090 283.244,110.623 294.298 C 135.570 318.209,179.625 334.457,231.523 338.888 L 238.163 339.455 238.163 377.477 L 238.163 415.500 257.010 415.500 L 275.857 415.500 275.857 377.466 L 275.857 339.432 282.925 338.854 C 305.260 337.028,333.606 331.120,351.637 324.533 C 391.765 309.875,418.121 286.606,424.982 259.780 C 426.474 253.945,426.637 250.124,426.637 220.875 L 426.637 188.441 408.003 188.671 L 389.370 188.902 388.942 220.636 L 388.513 252.369 385.515 257.349 C 373.185 277.825,335.281 294.633,288.733 300.266 C 282.858 300.977,277.557 301.558,276.954 301.558 C 276.086 301.558,275.857 295.875,275.857 274.300 L 275.857 247.043 280.783 245.522 C 307.437 237.294,328.877 213.698,334.566 186.332 C 336.628 176.411,336.479 161.688,334.222 152.258 C 328.951 130.245,315.534 112.133,296.418 101.230 L 291.706 98.542 364.954 98.317 L 438.202 98.092 438.433 79.459 L 438.664 60.826 257.010 60.826 L 75.356 60.826 75.587 79.459 M267.071 129.721 C 286.004 134.762,298.132 150.515,298.132 170.069 C 298.132 190.684,283.856 207.379,263.221 210.895 C 243.797 214.205,223.466 201.530,217.511 182.399 C 215.305 175.310,215.347 164.707,217.610 157.380 C 223.966 136.801,246.445 124.230,267.071 129.721 " stroke="none" fill-rule="evenodd" fill="black"></path></svg>