<svg width="136mm" height="120mm" version="1.1" viewBox="0 0 600 529.4117647058824" xmlns="http://www.w3.org/2000/svg"><path d="M75.587 79.459 L 75.818 98.092 149.066 98.317 L 222.314 98.542 217.602 101.230 C 184.877 119.896,169.737 160.177,182.110 195.659 C 190.129 218.652,208.993 237.567,231.095 244.777 L 238.163 247.083 238.163 274.321 C 238.163 295.611,237.928 301.558,237.086 301.558 C 234.240 301.558,213.819 298.870,207.750 297.696 C 183.624 293.029,162.406 285.216,147.212 275.404 C 139.449 270.391,130.496 261.377,127.648 255.706 L 125.507 251.441 125.262 220.386 L 125.017 189.331 105.772 189.331 L 86.527 189.331 86.550 215.674 C 86.578 247.177,87.238 255.203,90.607 264.978 C 97.193 284.083,115.644 302.458,141.040 315.203 C 165.667 327.562,194.310 335.297,227.240 338.480 L 238.163 339.536 238.163 377.518 L 238.163 415.500 257.010 415.500 L 275.857 415.500 275.857 377.518 L 275.857 339.536 286.780 338.480 C 352.116 332.164,403.291 306.676,420.574 271.842 C 426.459 259.982,426.810 257.353,427.271 221.671 L 427.689 189.331 408.346 189.331 L 389.003 189.331 388.758 220.386 L 388.513 251.441 386.372 255.706 C 378.728 270.926,352.720 286.346,321.262 294.310 C 308.110 297.639,284.143 301.558,276.934 301.558 C 276.092 301.558,275.857 295.616,275.857 274.347 L 275.857 247.135 283.183 244.648 C 308.862 235.929,328.842 213.182,334.601 186.111 C 336.456 177.391,336.436 162.628,334.558 153.790 C 329.867 131.718,315.695 112.185,296.418 101.222 L 291.706 98.542 364.954 98.317 L 438.202 98.092 438.433 79.459 L 438.664 60.826 257.010 60.826 L 75.356 60.826 75.587 79.459 M265.674 129.363 C 277.199 131.506,288.709 140.631,294.392 152.130 C 297.277 157.966,297.593 159.319,297.950 167.354 C 298.546 180.756,295.619 189.045,287.054 198.205 C 282.097 203.506,277.648 206.541,271.146 209.059 C 266.936 210.689,264.376 211.049,257.010 211.049 C 249.644 211.049,247.084 210.689,242.874 209.059 C 236.372 206.541,231.923 203.506,226.966 198.205 C 218.472 189.121,215.532 180.870,216.026 167.510 C 216.324 159.451,216.604 158.248,219.572 152.243 C 228.265 134.654,246.216 125.745,265.674 129.363 " stroke="none" fill-rule="evenodd" fill="black"></path></svg>