<svg width="136mm" height="120mm" version="1.1" viewBox="0 0 600 529.4117647058824" xmlns="http://www.w3.org/2000/svg"><path d="M186.217 63.755 C 177.201 66.713,169.226 69.363,168.494 69.644 C 167.386 70.069,169.675 77.686,182.175 115.179 C 190.827 141.129,197.619 160.203,198.209 160.203 C 199.400 160.203,232.210 149.307,232.803 148.714 C 233.232 148.285,204.035 59.926,203.145 58.959 C 202.851 58.639,195.233 60.797,186.217 63.755 M295.870 114.100 L 277.142 170.055 206.679 170.274 L 136.215 170.493 136.215 189.336 L 136.215 208.178 226.598 208.178 L 316.982 208.178 288.615 264.934 C 273.013 296.150,260.140 321.809,260.008 321.954 C 259.876 322.099,243.148 313.905,222.834 303.746 L 185.901 285.276 177.580 301.943 C 173.004 311.110,169.438 318.780,169.657 318.986 C 170.231 319.527,334.883 401.792,335.392 401.792 C 335.814 401.792,352.104 369.654,352.104 368.820 C 352.104 368.581,338.969 361.816,322.915 353.787 C 306.862 345.757,293.851 338.897,294.002 338.540 C 294.153 338.184,313.070 300.452,336.041 254.691 C 359.011 208.930,377.805 171.263,377.805 170.986 C 377.805 170.710,364.312 170.483,347.820 170.483 C 324.278 170.483,317.836 170.251,317.836 169.404 C 317.836 168.810,325.157 146.369,334.104 119.535 C 343.052 92.701,350.088 70.490,349.739 70.176 C 349.391 69.863,341.780 67.189,332.828 64.233 C 323.875 61.278,316.111 58.699,315.574 58.502 C 314.956 58.276,307.715 78.706,295.870 114.100 " stroke="none" fill-rule="evenodd" fill="black"></path></svg>