<svg width="136mm" height="120mm" version="1.1" viewBox="0 0 600 529.4117647058824" xmlns="http://www.w3.org/2000/svg"><path d="M185.749 64.145 C 176.476 67.267,168.629 70.086,168.312 70.410 C 167.825 70.907,196.599 159.010,197.628 160.173 C 198.118 160.726,233.022 149.076,233.022 148.360 C 233.022 147.284,203.685 59.545,203.145 59.005 C 202.851 58.711,195.022 61.024,185.749 64.145 M296.009 113.884 L 277.428 169.627 206.822 169.627 L 136.215 169.627 136.215 188.474 L 136.215 207.321 226.597 207.321 C 276.307 207.321,316.979 207.515,316.979 207.752 C 316.979 208.177,260.475 321.443,260.008 321.954 C 259.876 322.099,243.222 313.942,223.000 303.829 L 186.232 285.441 177.884 302.164 C 173.292 311.361,169.652 318.993,169.795 319.124 C 170.565 319.827,335.197 401.847,335.397 401.626 C 335.527 401.482,339.341 393.944,343.871 384.876 L 352.109 368.388 322.978 353.818 C 306.957 345.805,293.848 339.056,293.848 338.821 C 293.848 338.585,312.738 300.614,335.826 254.440 C 358.914 208.266,377.805 170.293,377.805 170.057 C 377.805 169.820,364.312 169.627,347.820 169.627 C 331.329 169.627,317.836 169.334,317.836 168.976 C 317.836 168.618,325.157 146.369,334.104 119.535 C 343.052 92.701,350.088 70.490,349.739 70.176 C 349.391 69.863,341.780 67.189,332.828 64.233 C 323.875 61.278,316.109 58.698,315.570 58.501 C 314.947 58.273,307.816 78.464,296.009 113.884 " stroke="none" fill-rule="evenodd" fill="black"></path></svg>