<svg width="136mm" height="120mm" version="1.1" viewBox="0 0 600 529.4117647058824" xmlns="http://www.w3.org/2000/svg"><path d="M185.749 64.145 C 176.476 67.267,168.629 70.086,168.312 70.410 C 167.825 70.907,196.599 159.010,197.628 160.173 C 198.118 160.726,233.022 149.076,233.022 148.360 C 233.022 147.284,203.685 59.545,203.145 59.005 C 202.851 58.711,195.022 61.024,185.749 64.145 M295.870 114.100 L 277.142 170.055 206.679 170.274 L 136.215 170.493 136.215 189.336 L 136.215 208.178 226.598 208.178 L 316.982 208.178 288.615 264.934 C 273.013 296.150,260.140 321.809,260.008 321.954 C 259.876 322.099,243.148 313.905,222.834 303.746 L 185.901 285.276 177.580 301.943 C 173.004 311.110,169.438 318.780,169.657 318.986 C 170.231 319.527,334.883 401.792,335.392 401.792 C 335.814 401.792,352.104 369.654,352.104 368.820 C 352.104 368.581,338.996 361.830,322.976 353.817 C 306.956 345.804,293.848 339.056,293.848 338.821 C 293.848 338.585,312.739 300.613,335.827 254.438 L 377.806 170.483 347.821 170.483 C 324.279 170.483,317.836 170.251,317.836 169.404 C 317.836 168.810,325.157 146.369,334.104 119.535 C 343.052 92.701,350.088 70.490,349.739 70.176 C 349.391 69.863,341.780 67.189,332.828 64.233 C 323.875 61.278,316.111 58.699,315.574 58.502 C 314.956 58.276,307.715 78.706,295.870 114.100 " stroke="none" fill-rule="evenodd" fill="black"></path></svg>