<svg width="136mm" height="120mm" version="1.1" viewBox="0 0 600 529.4117647058824" xmlns="http://www.w3.org/2000/svg"><path d="M109.658 94.237 L 109.658 113.084 145.731 113.084 C 174.228 113.084,181.721 113.309,181.410 114.155 C 174.999 131.587,95.986 371.309,96.497 371.776 C 97.147 372.370,128.611 382.990,130.538 383.266 C 130.950 383.325,151.575 322.655,176.372 248.443 L 221.457 113.513 254.226 113.288 C 272.249 113.165,286.995 113.361,286.995 113.724 C 286.995 114.087,278.706 139.243,268.575 169.627 C 258.445 200.010,250.156 225.339,250.156 225.913 C 250.156 226.719,261.060 227.015,297.917 227.207 L 345.678 227.456 352.532 229.789 C 362.566 233.205,369.591 237.668,377.923 245.922 C 384.353 252.291,385.891 254.425,389.655 262.199 C 394.576 272.361,396.660 280.964,396.637 291.028 C 396.599 307.961,390.162 323.289,377.805 335.870 C 370.503 343.304,362.568 348.318,352.532 351.840 L 345.678 354.245 310.768 354.504 L 275.857 354.763 275.857 373.566 L 275.857 392.369 309.585 392.369 C 351.610 392.369,357.394 391.543,375.929 382.900 C 401.374 371.036,422.130 347.044,430.099 320.287 C 439.243 289.581,433.387 255.681,414.584 230.484 C 396.790 206.638,370.956 192.172,341.115 189.342 C 336.086 188.866,325.321 188.475,317.193 188.475 C 309.065 188.474,302.415 188.374,302.415 188.252 C 302.415 188.130,310.704 163.172,320.834 132.788 C 330.965 102.405,339.253 77.061,339.253 76.468 C 339.253 75.607,316.147 75.390,224.455 75.390 L 109.658 75.390 109.658 94.237 " stroke="none" fill-rule="evenodd" fill="black"></path></svg>