<svg width="136mm" height="120mm" version="1.1" viewBox="0 0 600 529.4117647058824" xmlns="http://www.w3.org/2000/svg"><path d="M109.658 94.237 L 109.658 113.084 145.731 113.084 C 174.228 113.084,181.721 113.309,181.410 114.155 C 174.999 131.587,95.986 371.309,96.497 371.776 C 97.147 372.370,128.611 382.990,130.538 383.266 C 130.950 383.325,151.575 322.655,176.372 248.443 L 221.457 113.513 254.226 113.288 C 272.249 113.165,286.995 113.361,286.995 113.724 C 286.995 114.087,278.706 139.243,268.575 169.627 C 258.445 200.010,250.156 225.354,250.156 225.947 C 250.156 226.800,259.691 227.029,295.776 227.040 C 347.851 227.057,348.548 227.127,361.527 233.605 C 368.324 236.998,370.937 238.944,377.376 245.411 C 386.049 254.121,390.477 261.046,393.833 271.146 C 395.892 277.342,396.111 279.231,396.112 290.850 C 396.114 302.390,395.888 304.379,393.896 310.364 C 388.234 327.377,374.916 342.166,358.592 349.567 C 347.988 354.375,344.403 354.785,308.626 355.275 L 275.857 355.724 275.857 374.570 L 275.857 393.416 309.483 392.993 C 328.687 392.751,345.374 392.156,348.392 391.605 C 386.092 384.724,416.260 359.652,428.671 324.889 C 436.268 303.610,436.263 277.988,428.658 256.810 C 418.113 227.445,394.642 204.389,364.908 194.188 C 353.547 190.291,345.238 189.331,322.864 189.331 C 311.617 189.331,302.415 189.038,302.415 188.681 C 302.415 188.323,310.704 163.172,320.834 132.788 C 330.965 102.405,339.253 77.061,339.253 76.468 C 339.253 75.607,316.147 75.390,224.455 75.390 L 109.658 75.390 109.658 94.237 " stroke="none" fill-rule="evenodd" fill="black"></path></svg>