<svg width="136mm" height="120mm" version="1.1" viewBox="0 0 600 529.4117647058824" xmlns="http://www.w3.org/2000/svg"><path d="M109.658 94.237 L 109.658 113.084 145.731 113.084 C 174.228 113.084,181.721 113.309,181.410 114.155 C 174.999 131.587,95.986 371.309,96.497 371.776 C 97.147 372.370,128.611 382.990,130.538 383.266 C 130.950 383.325,151.575 322.655,176.372 248.443 L 221.457 113.513 254.226 113.288 C 272.249 113.165,286.995 113.361,286.995 113.724 C 286.995 114.087,278.706 139.243,268.575 169.627 C 258.445 200.010,250.156 225.354,250.156 225.947 C 250.156 226.800,259.691 227.029,295.776 227.040 C 345.854 227.057,348.306 227.256,358.791 232.163 C 383.426 243.690,397.989 267.762,396.360 294.261 C 395.443 309.189,390.995 320.798,382.166 331.311 C 372.826 342.431,361.923 349.428,348.249 353.077 C 341.979 354.750,338.603 354.941,308.626 355.315 L 275.857 355.724 275.857 374.570 L 275.857 393.416 309.483 392.993 C 328.687 392.751,345.374 392.156,348.392 391.605 C 386.546 384.641,416.800 359.178,428.780 323.948 C 437.856 297.260,435.785 268.643,422.987 243.876 C 408.793 216.409,380.882 195.882,350.531 190.590 C 345.539 189.719,337.005 189.331,322.864 189.331 C 311.617 189.331,302.415 189.038,302.415 188.681 C 302.415 188.323,310.704 163.172,320.834 132.788 C 330.965 102.405,339.253 77.061,339.253 76.468 C 339.253 75.607,316.147 75.390,224.455 75.390 L 109.658 75.390 109.658 94.237 " stroke="none" fill-rule="evenodd" fill="black"></path></svg>