<svg width="136mm" height="120mm" version="1.1" viewBox="0 0 600 529.4117647058824" xmlns="http://www.w3.org/2000/svg"><path d="M94.237 75.390 L 94.237 94.237 257.010 94.237 L 419.783 94.237 419.783 75.390 L 419.783 56.542 257.010 56.542 L 94.237 56.542 94.237 75.390 M117.368 170.055 L 117.368 189.331 257.010 189.331 L 396.652 189.331 396.652 170.055 L 396.652 150.779 257.010 150.779 L 117.368 150.779 117.368 170.055 M94.237 264.720 L 94.237 283.568 166.200 283.568 L 238.163 283.568 238.163 349.534 L 238.163 415.500 257.010 415.500 L 275.857 415.500 275.857 349.534 L 275.857 283.568 347.820 283.568 L 419.783 283.568 419.783 264.720 L 419.783 245.873 257.010 245.873 L 94.237 245.873 94.237 264.720 " stroke="none" fill-rule="evenodd" fill="black"></path></svg>