<svg width="136mm" height="120mm" version="1.1" viewBox="0 0 600 529.4117647058824" xmlns="http://www.w3.org/2000/svg"><path d="M94.810 57.111 C 94.495 57.426,94.237 65.909,94.237 75.961 L 94.237 94.237 257.027 94.237 L 419.816 94.237 419.586 75.604 L 419.355 56.971 257.369 56.754 C 168.277 56.635,95.126 56.796,94.810 57.111 M117.368 170.055 L 117.368 189.331 257.010 189.331 L 396.652 189.331 396.652 170.055 L 396.652 150.779 257.010 150.779 L 117.368 150.779 117.368 170.055 M94.434 264.506 L 94.665 283.139 166.414 283.358 L 238.163 283.577 238.163 349.538 L 238.163 415.500 257.010 415.500 L 275.857 415.500 275.857 349.538 L 275.857 283.577 347.606 283.358 L 419.355 283.139 419.586 264.506 L 419.816 245.873 257.010 245.873 L 94.204 245.873 94.434 264.506 " stroke="none" fill-rule="evenodd" fill="black"></path></svg>