<svg width="136mm" height="120mm" version="1.1" viewBox="0 0 600 529.4117647058824" xmlns="http://www.w3.org/2000/svg"><path d="M94.449 230.238 L 94.665 392.797 113.513 392.797 L 132.360 392.797 132.577 249.514 L 132.794 106.231 257.010 106.231 L 381.226 106.231 381.443 249.514 L 381.660 392.797 400.507 392.797 L 419.355 392.797 419.571 230.238 L 419.787 67.679 257.010 67.679 L 94.233 67.679 94.449 230.238 M274.076 168.907 L 251.730 213.592 232.729 194.606 L 213.729 175.620 200.467 188.903 L 187.205 202.186 210.613 225.605 L 234.020 249.024 208.677 299.703 L 183.335 350.382 199.603 358.525 C 208.551 363.003,216.260 366.668,216.735 366.668 C 217.210 366.668,227.654 346.559,239.944 321.982 L 262.290 277.297 281.291 296.283 L 300.291 315.269 313.553 301.986 L 326.815 288.703 303.407 265.284 L 280.000 241.865 305.263 191.346 L 330.525 140.826 313.894 132.524 C 304.747 127.958,297.074 124.222,296.842 124.222 C 296.611 124.222,286.366 144.330,274.076 168.907 " stroke="none" fill-rule="evenodd" fill="black"></path></svg>