<svg width="136mm" height="120mm" version="1.1" viewBox="0 0 600 529.4117647058824" xmlns="http://www.w3.org/2000/svg"><path d="M94.810 68.248 C 94.495 68.564,94.237 141.620,94.237 230.595 L 94.237 392.369 113.513 392.369 L 132.788 392.369 132.788 248.871 L 132.788 105.374 257.010 105.374 L 381.231 105.374 381.231 248.871 L 381.231 392.369 400.509 392.369 L 419.787 392.369 419.571 230.238 L 419.355 68.108 257.369 67.891 C 168.277 67.772,95.126 67.933,94.810 68.248 M274.076 168.907 L 251.730 213.592 232.729 194.606 L 213.729 175.620 200.467 188.903 L 187.205 202.186 210.613 225.605 L 234.020 249.024 208.677 299.703 L 183.335 350.382 199.603 358.525 C 208.551 363.003,216.260 366.668,216.735 366.668 C 217.210 366.668,227.654 346.559,239.944 321.982 L 262.290 277.297 281.291 296.283 L 300.291 315.269 313.553 301.986 L 326.815 288.703 303.407 265.284 L 280.000 241.865 305.343 191.186 L 330.685 140.507 314.417 132.364 C 305.469 127.886,297.760 124.222,297.285 124.222 C 296.810 124.222,286.366 144.330,274.076 168.907 " stroke="none" fill-rule="evenodd" fill="black"></path></svg>