<svg width="136mm" height="120mm" version="1.1" viewBox="0 0 600 529.4117647058824" xmlns="http://www.w3.org/2000/svg"><path d="M238.163 122.936 L 238.163 208.178 156.759 208.178 L 75.356 208.178 75.587 226.811 L 75.818 245.445 143.490 245.664 L 211.162 245.883 142.415 314.634 L 73.668 383.386 86.955 396.652 L 100.243 409.919 178.626 331.539 L 257.010 253.158 335.394 331.539 L 413.777 409.919 427.065 396.652 L 440.352 383.386 371.605 314.634 L 302.858 245.883 370.530 245.664 L 438.202 245.445 438.433 226.811 L 438.664 208.178 357.261 208.178 L 275.857 208.178 275.857 122.936 L 275.857 37.695 257.010 37.695 L 238.163 37.695 238.163 122.936 M113.291 94.458 L 100.240 107.530 138.153 145.435 L 176.066 183.341 189.331 170.055 L 202.596 156.769 164.911 119.078 C 144.185 98.348,127.028 81.386,126.785 81.386 C 126.542 81.386,120.470 87.269,113.291 94.458 M349.109 119.078 L 311.424 156.769 324.689 170.055 L 337.954 183.341 375.867 145.435 L 413.780 107.530 400.729 94.458 C 393.550 87.269,387.478 81.386,387.235 81.386 C 386.992 81.386,369.835 98.348,349.109 119.078 M222.949 321.484 L 209.898 334.555 247.586 372.236 L 285.274 409.917 298.560 396.652 L 311.846 383.387 274.365 345.900 C 253.751 325.281,236.686 308.412,236.442 308.412 C 236.199 308.412,230.127 314.294,222.949 321.484 " stroke="none" fill-rule="evenodd" fill="black"></path></svg>