<svg width="136mm" height="120mm" version="1.1" viewBox="0 0 600 529.4117647058824" xmlns="http://www.w3.org/2000/svg"><path d="M257.777 91.814 L 155.311 125.995 154.715 146.311 C 153.610 183.989,150.282 211.633,143.439 239.972 C 131.578 289.096,110.246 329.922,86.522 348.904 C 76.385 357.014,64.200 362.384,55.934 362.384 L 53.115 362.384 53.115 381.231 L 53.115 400.079 57.435 400.079 C 67.124 400.079,81.936 395.785,93.518 389.617 C 102.945 384.598,110.582 378.709,120.428 368.867 C 160.285 329.028,186.405 255.909,191.909 168.770 C 192.429 160.524,193.123 153.554,193.449 153.280 C 193.775 153.006,233.365 139.755,281.426 123.833 C 329.487 107.911,369.654 94.564,370.687 94.173 C 372.546 93.468,372.509 93.298,366.642 75.740 C 363.384 65.993,360.612 57.932,360.481 57.826 C 360.350 57.720,314.133 73.015,257.777 91.814 M283.568 175.624 L 283.568 196.184 242.018 196.184 L 200.468 196.184 200.468 215.032 L 200.468 233.879 236.021 233.879 C 255.575 233.879,271.574 234.073,271.574 234.309 C 271.574 234.546,253.454 270.978,231.307 315.269 L 191.040 395.799 207.707 404.120 C 216.874 408.696,224.525 412.261,224.709 412.042 C 224.894 411.823,242.357 377.242,263.516 335.195 C 284.675 293.148,302.181 258.740,302.417 258.734 C 302.654 258.728,320.098 293.227,341.182 335.398 C 362.266 377.569,379.906 412.073,380.383 412.073 C 380.859 412.073,388.569 408.409,397.516 403.930 L 413.784 395.788 373.520 315.264 C 351.375 270.975,333.256 234.546,333.256 234.309 C 333.256 234.073,349.255 233.879,368.809 233.879 L 404.362 233.879 404.362 215.032 L 404.362 196.184 362.812 196.184 L 321.262 196.184 321.262 175.624 L 321.262 155.063 302.415 155.063 L 283.568 155.063 283.568 175.624 " stroke="none" fill-rule="evenodd" fill="black"></path></svg>