<svg width="136mm" height="120mm" version="1.1" viewBox="0 0 600 529.4117647058824" xmlns="http://www.w3.org/2000/svg"><path d="M105.572 79.459 L 105.802 98.092 220.390 98.520 L 334.978 98.949 301.568 132.351 L 268.158 165.752 244.204 153.800 C 231.030 147.226,220.084 142.026,219.879 142.244 C 219.675 142.462,215.800 150.060,211.270 159.129 L 203.032 175.618 259.672 203.940 C 290.823 219.518,316.418 232.144,316.549 232.000 C 316.881 231.634,333.256 198.827,333.256 198.529 C 333.256 198.395,326.697 195.024,318.680 191.038 L 304.105 183.791 365.583 122.308 L 427.060 60.826 266.201 60.826 L 105.341 60.826 105.572 79.459 M238.163 239.876 L 238.163 264.720 175.624 264.720 L 113.084 264.720 113.084 283.568 L 113.084 302.415 175.624 302.415 L 238.163 302.415 238.163 334.541 L 238.163 366.668 166.200 366.668 L 94.237 366.668 94.237 385.515 L 94.237 404.362 257.010 404.362 L 419.783 404.362 419.783 385.515 L 419.783 366.668 347.820 366.668 L 275.857 366.668 275.857 334.541 L 275.857 302.415 338.397 302.415 L 400.936 302.415 400.936 283.568 L 400.936 264.720 338.397 264.720 L 275.857 264.720 275.857 239.876 L 275.857 215.032 257.010 215.032 L 238.163 215.032 238.163 239.876 " stroke="none" fill-rule="evenodd" fill="black"></path></svg>