<svg width="136mm" height="120mm" version="1.1" viewBox="0 0 600 529.4117647058824" xmlns="http://www.w3.org/2000/svg"><path d="M106.231 79.673 L 106.231 98.520 220.813 98.520 L 335.395 98.520 301.778 132.137 L 268.162 165.754 244.206 153.801 C 231.031 147.227,220.084 142.026,219.879 142.244 C 219.675 142.462,215.800 150.060,211.270 159.129 L 203.032 175.618 259.672 203.940 C 290.823 219.518,316.418 232.144,316.549 232.000 C 316.881 231.634,333.256 198.827,333.256 198.529 C 333.256 198.395,326.697 195.024,318.680 191.038 L 304.105 183.791 365.583 122.308 L 427.060 60.826 266.646 60.826 L 106.231 60.826 106.231 79.673 M238.163 239.876 L 238.163 264.720 175.607 264.720 L 113.051 264.720 113.282 283.354 L 113.513 301.987 175.838 302.207 L 238.163 302.426 238.163 334.547 L 238.163 366.668 166.183 366.668 L 94.204 366.668 94.434 385.301 L 94.665 403.934 257.010 403.934 L 419.355 403.934 419.586 385.301 L 419.816 366.668 347.837 366.668 L 275.857 366.668 275.857 334.547 L 275.857 302.426 338.182 302.207 L 400.507 301.987 400.738 283.354 L 400.969 264.720 338.413 264.720 L 275.857 264.720 275.857 239.876 L 275.857 215.032 257.010 215.032 L 238.163 215.032 238.163 239.876 " stroke="none" fill-rule="evenodd" fill="black"></path></svg>