<svg width="136mm" height="120mm" version="1.1" viewBox="0 0 600 529.4117647058824" xmlns="http://www.w3.org/2000/svg"><path d="M211.879 78.281 C 159.492 95.774,116.373 110.348,116.059 110.669 C 115.745 110.990,118.103 119.130,121.300 128.758 L 127.111 146.263 142.131 141.239 C 150.392 138.476,157.452 136.215,157.820 136.215 C 158.188 136.215,158.489 154.913,158.489 177.765 L 158.489 219.315 149.066 219.315 L 139.642 219.315 139.659 255.082 C 139.668 274.754,140.060 293.504,140.529 296.749 C 144.828 326.491,178.073 349.464,227.454 356.815 C 232.166 357.517,236.503 358.093,237.092 358.096 C 237.924 358.099,238.163 363.643,238.163 382.945 L 238.163 407.789 257.010 407.789 L 275.857 407.789 275.857 382.945 C 275.857 363.643,276.096 358.099,276.928 358.096 C 277.517 358.093,281.854 357.517,286.566 356.815 C 335.947 349.464,369.192 326.491,373.491 296.749 C 373.960 293.504,374.352 274.754,374.361 255.082 L 374.378 219.315 355.102 219.315 L 335.826 219.315 335.826 256.196 C 335.826 296.851,335.987 295.557,330.344 300.511 C 320.260 309.365,300.752 316.718,279.070 319.836 L 275.857 320.298 275.857 260.383 L 275.857 200.468 257.010 200.468 L 238.163 200.468 238.163 260.383 L 238.163 320.298 234.950 319.836 C 213.277 316.719,194.505 309.704,184.088 300.830 C 178.018 295.659,178.194 296.903,178.194 258.976 L 178.194 224.875 244.158 191.901 L 310.123 158.928 331.764 180.557 L 353.405 202.185 366.670 188.900 L 379.935 175.614 342.036 137.716 L 304.138 99.817 290.872 113.062 L 277.607 126.307 279.703 128.495 L 281.799 130.683 239.420 151.867 L 197.041 173.051 197.041 147.989 L 197.041 122.927 258.353 102.497 C 297.432 89.475,319.534 81.710,319.305 81.084 C 319.107 80.544,316.527 72.777,313.571 63.824 C 310.616 54.872,307.957 47.306,307.663 47.011 C 307.368 46.717,264.265 60.788,211.879 78.281 " stroke="none" fill-rule="evenodd" fill="black"></path></svg>