<svg width="136mm" height="120mm" version="1.1" viewBox="0 0 600 529.4117647058824" xmlns="http://www.w3.org/2000/svg"><path d="M211.044 78.539 L 114.960 110.603 120.924 128.471 L 126.887 146.339 142.019 141.277 C 150.341 138.493,157.452 136.215,157.820 136.215 C 158.188 136.215,158.489 154.913,158.489 177.765 L 158.489 219.315 149.006 219.315 L 139.522 219.315 139.821 259.366 L 140.121 299.417 142.305 305.088 C 145.458 313.276,148.479 318.039,154.713 324.647 C 169.807 340.647,195.615 352.089,227.135 356.753 C 232.143 357.494,236.673 358.101,237.202 358.101 C 237.890 358.101,238.163 365.157,238.163 382.945 L 238.163 407.789 257.010 407.789 L 275.857 407.789 275.857 382.945 C 275.857 363.643,276.096 358.099,276.928 358.096 C 277.517 358.093,281.854 357.517,286.566 356.815 C 318.386 352.078,344.215 340.645,359.357 324.594 C 365.746 317.821,369.320 312.035,371.999 304.129 C 373.816 298.765,373.897 297.098,374.186 258.938 L 374.486 219.315 355.585 219.315 L 336.683 219.315 336.683 254.896 C 336.683 293.136,336.587 294.067,332.145 298.858 C 329.239 301.991,320.971 307.373,314.831 310.128 C 304.686 314.680,296.104 316.986,278.213 319.970 L 275.857 320.363 275.857 260.415 L 275.857 200.468 257.010 200.468 L 238.163 200.468 238.163 260.415 L 238.163 320.363 235.807 319.970 C 216.163 316.694,208.140 314.392,196.286 308.630 C 186.781 304.009,178.831 296.920,177.908 292.242 C 177.594 290.652,177.337 274.941,177.337 257.331 L 177.337 225.311 243.729 192.118 L 310.120 158.925 331.763 180.555 L 353.405 202.185 366.670 188.900 L 379.935 175.614 342.036 137.716 L 304.138 99.817 290.872 113.062 L 277.607 126.307 279.703 128.495 L 281.799 130.683 239.420 151.867 L 197.041 173.051 197.041 147.989 L 197.041 122.927 258.353 102.497 C 297.432 89.475,319.534 81.710,319.305 81.084 C 319.107 80.544,316.527 72.777,313.571 63.824 C 310.616 54.872,307.957 47.306,307.663 47.011 C 307.368 46.717,263.889 60.905,211.044 78.539 " stroke="none" fill-rule="evenodd" fill="black"></path></svg>