<svg width="136mm" height="120mm" version="1.1" viewBox="0 0 600 529.4117647058824" xmlns="http://www.w3.org/2000/svg"><path d="M211.879 78.281 C 159.492 95.774,116.373 110.348,116.059 110.669 C 115.745 110.990,118.103 119.130,121.300 128.758 L 127.111 146.263 142.131 141.239 C 150.392 138.476,157.452 136.215,157.820 136.215 C 158.188 136.215,158.489 154.913,158.489 177.765 L 158.489 219.315 149.012 219.315 L 139.534 219.315 139.834 258.938 C 140.123 297.098,140.204 298.765,142.021 304.129 C 148.784 324.090,168.181 340.110,197.017 349.551 C 206.479 352.649,220.065 355.726,229.167 356.833 C 231.523 357.120,234.511 357.553,235.807 357.795 L 238.163 358.237 238.163 383.013 L 238.163 407.789 257.010 407.789 L 275.857 407.789 275.857 382.984 L 275.857 358.178 278.642 357.729 C 280.173 357.483,284.510 356.855,288.280 356.335 C 317.891 352.250,344.460 340.385,359.357 324.594 C 365.746 317.821,369.320 312.035,371.999 304.129 C 373.816 298.765,373.897 297.098,374.186 258.938 L 374.486 219.315 355.585 219.315 L 336.683 219.315 336.683 254.896 C 336.683 293.667,336.634 294.109,331.712 299.269 C 328.297 302.848,318.344 308.775,310.626 311.825 C 302.682 314.963,288.816 318.458,281.212 319.237 L 275.857 319.786 275.857 260.127 L 275.857 200.468 257.010 200.468 L 238.163 200.468 238.163 260.008 L 238.163 319.549 235.807 319.549 C 233.032 319.549,221.919 317.483,215.113 315.703 C 202.727 312.463,187.726 304.948,182.308 299.269 C 177.429 294.154,177.337 293.385,177.337 257.893 L 177.337 225.311 243.729 192.118 L 310.120 158.925 331.763 180.555 L 353.405 202.185 366.670 188.900 L 379.935 175.614 342.036 137.716 L 304.138 99.817 290.872 113.062 L 277.607 126.307 279.703 128.495 L 281.799 130.683 239.418 151.868 C 216.108 163.520,196.839 173.053,196.597 173.053 C 196.356 173.053,196.261 161.809,196.386 148.067 L 196.613 123.080 257.762 102.695 C 291.394 91.483,319.048 82.173,319.216 82.005 C 319.591 81.630,308.406 47.759,307.661 47.011 C 307.367 46.717,264.265 60.788,211.879 78.281 " stroke="none" fill-rule="evenodd" fill="black"></path></svg>