<svg width="136mm" height="120mm" version="1.1" viewBox="0 0 600 529.4117647058824" xmlns="http://www.w3.org/2000/svg"><path d="M240.519 71.295 L 166.200 96.093 166.200 178.265 C 166.200 223.459,166.394 260.437,166.630 260.437 C 167.481 260.437,298.988 194.459,298.988 194.032 C 298.988 193.792,295.680 186.949,291.636 178.827 L 284.284 164.058 328.046 207.746 L 371.808 251.435 385.298 237.945 L 398.788 224.454 338.400 164.061 L 278.011 103.668 264.511 117.148 L 251.012 130.628 266.179 145.813 C 274.521 154.164,281.171 161.161,280.957 161.362 C 280.378 161.907,204.831 199.611,204.318 199.611 C 204.075 199.611,203.977 182.391,204.100 161.345 L 204.323 123.079 265.712 102.616 L 327.101 82.153 321.208 64.517 C 317.966 54.818,315.207 46.795,315.076 46.689 C 314.945 46.583,281.394 57.656,240.519 71.295 M249.302 245.442 L 236.039 258.726 254.872 277.574 L 273.705 296.422 286.986 283.141 L 300.268 269.860 281.417 251.009 L 262.566 232.158 249.302 245.442 M173.689 279.712 L 165.350 296.417 195.331 311.412 C 211.821 319.660,225.312 326.598,225.312 326.832 C 225.312 327.065,203.336 338.246,176.477 351.677 L 127.643 376.097 135.880 392.586 C 140.411 401.654,144.225 409.192,144.356 409.337 C 144.486 409.481,172.393 395.699,206.370 378.709 L 268.147 347.818 329.874 378.683 C 363.823 395.660,391.870 409.378,392.199 409.169 C 393.135 408.575,409.051 376.208,408.610 375.793 C 408.394 375.590,386.245 364.442,359.390 351.020 L 310.562 326.618 340.756 311.516 C 357.363 303.209,370.951 296.218,370.951 295.979 C 370.951 295.143,354.661 263.007,354.238 263.007 C 354.003 263.007,334.923 272.452,311.839 283.996 C 288.755 295.540,269.286 304.985,268.575 304.985 C 267.865 304.985,248.396 295.540,225.312 283.996 C 202.228 272.452,183.045 263.007,182.685 263.007 C 182.324 263.007,178.276 270.524,173.689 279.712 " stroke="none" fill-rule="evenodd" fill="black"></path></svg>