<svg width="136mm" height="120mm" version="1.1" viewBox="0 0 600 529.4117647058824" xmlns="http://www.w3.org/2000/svg"><path d="M240.733 71.140 L 166.628 95.752 166.410 178.094 C 166.290 223.383,166.387 260.437,166.626 260.437 C 167.480 260.437,298.988 194.460,298.988 194.032 C 298.988 193.792,295.711 187.050,291.706 179.050 C 287.701 171.051,284.424 164.213,284.424 163.857 C 284.424 163.500,304.185 182.965,328.337 207.114 L 372.250 251.020 385.515 237.734 L 398.781 224.447 338.396 164.058 L 278.011 103.668 264.445 117.157 L 250.879 130.647 266.468 145.800 L 282.058 160.954 243.408 180.283 C 222.151 190.913,204.560 199.611,204.318 199.611 C 204.075 199.611,203.977 182.392,204.100 161.346 L 204.323 123.080 265.472 102.695 C 299.104 91.483,326.759 82.173,326.926 82.005 C 327.305 81.626,316.107 47.740,315.371 47.037 C 315.077 46.757,281.490 57.603,240.733 71.140 M249.302 245.442 L 236.039 258.726 254.872 277.574 L 273.705 296.422 286.986 283.141 L 300.268 269.860 281.417 251.009 L 262.566 232.158 249.302 245.442 M173.689 279.712 L 165.350 296.417 195.331 311.412 C 211.821 319.660,225.312 326.598,225.312 326.832 C 225.312 327.065,203.336 338.246,176.477 351.677 L 127.643 376.097 135.880 392.586 C 140.411 401.654,144.225 409.192,144.356 409.337 C 144.486 409.481,172.393 395.699,206.370 378.709 L 268.147 347.818 329.874 378.683 C 363.823 395.660,391.870 409.378,392.199 409.169 C 393.135 408.575,409.051 376.208,408.610 375.793 C 408.394 375.590,386.245 364.442,359.390 351.020 L 310.562 326.618 340.756 311.516 C 357.363 303.209,370.951 296.218,370.951 295.979 C 370.951 295.143,354.661 263.007,354.238 263.007 C 354.003 263.007,334.923 272.452,311.839 283.996 C 288.755 295.540,269.286 304.985,268.575 304.985 C 267.865 304.985,248.396 295.540,225.312 283.996 C 202.228 272.452,183.045 263.007,182.685 263.007 C 182.324 263.007,178.276 270.524,173.689 279.712 " stroke="none" fill-rule="evenodd" fill="black"></path></svg>