<svg width="136mm" height="120mm" version="1.1" viewBox="0 0 600 529.4117647058824" xmlns="http://www.w3.org/2000/svg"><path d="M167.061 123.789 L 77.543 213.309 90.809 226.596 L 104.074 239.882 135.137 208.828 L 166.200 177.774 166.215 246.306 C 166.228 300.980,166.478 316.574,167.453 323.426 C 174.545 373.302,218.169 409.585,268.575 407.532 C 312.366 405.749,348.667 376.110,359.911 332.958 C 361.968 325.067,363.416 305.999,363.078 291.278 L 362.812 279.713 343.751 279.482 L 324.689 279.251 324.674 298.329 C 324.657 320.656,323.786 326.187,318.704 336.255 C 308.633 356.203,289.967 368.601,268.115 369.855 C 244.495 371.210,223.019 359.248,211.284 338.200 C 206.405 329.450,204.774 322.003,204.165 305.693 L 203.632 291.408 266.644 259.905 L 329.656 228.403 321.400 211.865 C 316.859 202.770,312.849 195.328,312.489 195.328 C 312.128 195.328,287.934 207.279,258.723 221.885 C 229.513 236.492,205.227 248.443,204.754 248.443 C 204.192 248.443,203.895 235.528,203.895 211.177 L 203.895 173.910 186.976 173.910 L 170.057 173.910 213.533 130.434 L 257.009 86.958 333.476 163.421 L 409.943 239.885 423.210 226.597 L 436.477 213.309 346.959 123.789 C 297.724 74.552,257.247 34.268,257.010 34.268 C 256.773 34.268,216.296 74.552,167.061 123.789 " stroke="none" fill-rule="evenodd" fill="black"></path></svg>