<svg width="136mm" height="120mm" version="1.1" viewBox="0 0 600 529.4117647058824" xmlns="http://www.w3.org/2000/svg"><path d="M167.061 123.789 L 77.543 213.309 90.809 226.596 L 104.074 239.882 135.137 208.828 L 166.200 177.774 166.203 247.162 C 166.207 323.271,166.317 325.252,171.350 340.277 C 180.898 368.776,202.686 391.361,230.686 401.784 C 242.108 406.037,249.954 407.311,264.720 407.311 C 276.428 407.311,280.137 406.988,286.315 405.433 C 318.218 397.403,342.438 377.052,354.886 347.820 C 361.250 332.874,363.520 317.645,363.060 292.991 L 362.812 279.713 343.965 279.713 L 325.118 279.713 324.613 301.130 C 324.209 318.265,323.804 323.490,322.589 327.259 C 319.110 338.052,312.285 348.168,303.263 355.906 C 274.417 380.648,229.019 371.689,210.891 337.678 C 206.315 329.093,204.728 321.555,204.154 305.691 L 203.638 291.405 266.647 259.904 L 329.656 228.403 321.400 211.865 C 316.859 202.770,312.905 195.328,312.613 195.328 C 312.321 195.328,287.896 207.279,258.336 221.885 C 228.776 236.492,204.434 248.443,204.243 248.443 C 204.051 248.443,203.895 231.673,203.895 211.177 L 203.895 173.910 186.976 173.910 L 170.057 173.910 213.533 130.434 L 257.009 86.958 333.476 163.421 L 409.943 239.885 423.210 226.597 L 436.477 213.309 346.959 123.789 C 297.724 74.552,257.247 34.268,257.010 34.268 C 256.773 34.268,216.296 74.552,167.061 123.789 " stroke="none" fill-rule="evenodd" fill="black"></path></svg>