<svg width="136mm" height="120mm" version="1.1" viewBox="0 0 600 529.4117647058824" xmlns="http://www.w3.org/2000/svg"><path d="M167.061 123.789 L 77.543 213.309 90.809 226.596 L 104.074 239.882 135.092 208.873 L 166.110 177.864 166.430 250.634 C 166.740 320.930,166.811 323.652,168.538 330.686 C 173.483 350.832,182.640 366.940,196.882 380.547 C 235.802 417.731,296.790 416.726,334.541 378.279 C 346.322 366.282,355.173 350.755,359.582 334.351 C 361.695 326.489,361.855 324.541,362.180 302.629 L 362.527 279.284 343.608 279.284 L 324.689 279.284 324.689 298.423 C 324.689 314.651,324.433 318.564,323.004 324.151 C 320.035 335.759,315.632 343.625,307.394 352.039 C 295.340 364.350,278.181 370.919,260.895 369.842 C 239.199 368.489,219.860 355.659,210.468 336.384 C 205.749 326.700,204.693 321.570,204.150 305.685 L 203.661 291.393 266.664 259.895 L 329.667 228.397 321.177 211.435 L 312.688 194.472 258.722 221.458 C 229.041 236.300,204.563 248.443,204.326 248.443 C 204.089 248.443,203.895 231.673,203.895 211.177 L 203.895 173.910 186.976 173.910 L 170.057 173.910 213.533 130.434 L 257.009 86.958 333.476 163.421 L 409.943 239.885 423.210 226.597 L 436.477 213.309 346.959 123.789 C 297.724 74.552,257.247 34.268,257.010 34.268 C 256.773 34.268,216.296 74.552,167.061 123.789 " stroke="none" fill-rule="evenodd" fill="black"></path></svg>