<svg width="136mm" height="120mm" version="1.1" viewBox="0 0 600 529.4117647058824" xmlns="http://www.w3.org/2000/svg"><path d="M170.483 144.353 L 170.483 197.895 106.017 230.117 C 70.560 247.839,41.433 262.445,41.290 262.575 C 41.147 262.706,44.787 270.338,49.378 279.535 L 57.726 296.257 113.246 268.495 C 143.781 253.226,169.151 240.733,169.624 240.733 C 170.187 240.733,170.483 255.070,170.483 282.283 C 170.483 309.608,170.188 323.833,169.620 323.833 C 169.146 323.833,158.354 318.628,145.639 312.267 C 132.924 305.906,122.327 300.702,122.090 300.702 C 121.665 300.702,105.374 332.835,105.374 333.675 C 105.374 333.914,128.505 345.677,156.776 359.814 L 208.178 385.518 208.178 303.272 L 208.178 221.026 246.215 202.013 L 284.252 183.000 275.996 166.461 C 271.455 157.365,267.443 149.923,267.082 149.923 C 266.720 149.923,253.319 156.477,237.301 164.489 L 208.178 179.055 208.178 134.933 L 208.178 90.810 189.331 90.810 L 170.483 90.810 170.483 144.353 M322.978 218.455 L 266.436 331.536 282.704 339.678 C 291.651 344.156,299.360 347.820,299.835 347.820 C 300.310 347.820,310.755 327.711,323.046 303.132 L 345.393 258.444 392.661 305.706 L 439.929 352.968 453.194 339.681 L 466.460 326.395 414.779 274.709 L 363.098 223.022 388.441 172.341 L 413.785 121.659 397.517 113.517 C 388.569 109.038,380.860 105.374,380.384 105.374 C 379.908 105.374,354.076 156.260,322.978 218.455 " stroke="none" fill-rule="evenodd" fill="black"></path></svg>