<svg width="136mm" height="120mm" version="1.1" viewBox="0 0 600 529.4117647058824" xmlns="http://www.w3.org/2000/svg"><path d="M169.627 144.573 L 169.627 198.335 105.374 230.452 C 70.035 248.117,41.122 262.864,41.122 263.225 C 41.122 263.586,44.786 271.201,49.264 280.149 L 57.407 296.417 113.086 268.575 C 143.709 253.262,168.959 240.733,169.196 240.733 C 169.433 240.733,169.627 259.430,169.627 282.283 C 169.627 305.135,169.431 323.833,169.192 323.833 C 168.953 323.833,158.332 318.617,145.590 312.243 C 132.848 305.868,122.153 300.824,121.823 301.034 C 120.885 301.629,104.969 333.996,105.410 334.411 C 105.985 334.953,207.238 385.515,207.747 385.515 C 207.984 385.515,208.178 348.505,208.178 303.271 L 208.178 221.026 246.215 202.013 L 284.252 183.000 275.996 166.461 C 271.455 157.365,267.443 149.923,267.082 149.923 C 266.720 149.923,253.319 156.477,237.301 164.489 L 208.178 179.055 208.178 134.933 L 208.178 90.810 188.902 90.810 L 169.627 90.810 169.627 144.573 M322.978 218.455 L 266.436 331.536 282.704 339.678 C 291.651 344.156,299.360 347.820,299.835 347.820 C 300.310 347.820,310.755 327.711,323.046 303.132 L 345.393 258.444 392.865 305.910 L 440.336 353.375 453.623 340.110 L 466.909 326.844 415.004 274.933 L 363.098 223.022 388.441 172.341 L 413.785 121.659 397.517 113.517 C 388.569 109.038,380.860 105.374,380.384 105.374 C 379.908 105.374,354.076 156.260,322.978 218.455 " stroke="none" fill-rule="evenodd" fill="black"></path></svg>