<svg width="136mm" height="120mm" version="1.1" viewBox="0 0 600 529.4117647058824" xmlns="http://www.w3.org/2000/svg"><path d="M292.559 77.105 L 259.146 110.518 209.040 93.810 C 181.482 84.621,158.481 77.103,157.926 77.103 C 156.638 77.103,145.198 111.294,146.185 112.196 C 146.592 112.567,165.236 118.947,187.617 126.373 C 209.999 133.800,228.486 140.032,228.701 140.222 C 228.916 140.411,212.821 156.841,192.934 176.732 L 156.776 212.897 170.266 226.387 L 183.756 239.876 226.806 196.832 L 269.857 153.788 319.707 170.396 C 347.124 179.530,370.117 187.046,370.802 187.097 C 371.681 187.162,373.769 182.048,377.910 169.684 C 381.135 160.056,383.684 152.110,383.574 152.025 C 383.463 151.940,364.533 145.602,341.506 137.940 L 299.638 124.010 326.506 97.132 L 353.373 70.255 340.113 56.973 C 332.819 49.668,326.654 43.692,326.412 43.692 C 326.170 43.692,310.936 58.728,292.559 77.105 M293.206 246.940 L 259.586 280.560 208.554 263.558 C 180.486 254.206,157.407 246.691,157.266 246.857 C 156.688 247.538,145.485 281.982,145.764 282.219 C 145.931 282.361,164.908 288.745,187.936 296.407 L 229.804 310.338 193.287 346.862 L 156.769 383.387 170.055 396.652 L 183.341 409.917 226.496 366.769 L 269.651 323.620 320.376 340.528 C 348.275 349.828,371.404 357.104,371.774 356.698 C 372.902 355.460,383.705 322.158,383.090 321.814 C 382.775 321.638,364.205 315.414,341.823 307.984 C 319.442 300.553,300.797 294.283,300.390 294.050 C 299.982 293.817,311.739 281.532,326.515 266.750 L 353.380 239.874 340.103 226.597 L 326.826 213.320 293.206 246.940 " stroke="none" fill-rule="evenodd" fill="black"></path></svg>