<svg width="136mm" height="120mm" version="1.1" viewBox="0 0 600 529.4117647058824" xmlns="http://www.w3.org/2000/svg"><path d="M120.795 75.390 L 120.795 101.947 83.100 101.947 L 45.405 101.947 45.405 120.795 L 45.405 139.642 83.100 139.642 L 120.795 139.642 120.795 160.850 L 120.795 182.057 87.393 282.254 C 69.022 337.362,54.276 382.706,54.624 383.019 C 54.972 383.332,62.582 386.006,71.534 388.961 C 80.487 391.916,88.253 394.496,88.792 394.693 C 89.417 394.922,98.708 368.209,114.386 321.105 C 127.924 280.434,139.275 246.853,139.612 246.481 C 139.949 246.109,151.332 279.070,164.907 319.729 C 178.482 360.388,189.727 393.912,189.896 394.227 C 190.226 394.843,223.533 384.034,224.766 382.911 C 225.172 382.541,210.426 337.003,191.997 281.715 L 158.489 181.192 158.489 160.417 L 158.489 139.642 196.613 139.642 L 234.736 139.642 234.736 120.795 L 234.736 101.947 196.613 101.947 L 158.489 101.947 158.489 75.390 L 158.489 48.832 139.642 48.832 L 120.795 48.832 120.795 75.390 M340.110 64.244 L 340.110 75.372 300.488 75.595 L 260.865 75.818 260.634 94.451 L 260.403 113.084 360.654 113.084 L 460.905 113.084 460.905 94.237 L 460.905 75.390 419.355 75.390 L 377.805 75.390 377.805 64.252 L 377.805 53.115 358.957 53.115 L 340.110 53.115 340.110 64.244 M340.110 179.479 L 340.110 233.879 292.991 233.879 L 245.873 233.879 245.873 253.155 L 245.873 272.431 286.996 272.431 L 328.119 272.431 299.418 329.827 C 283.633 361.395,270.717 387.518,270.717 387.879 C 270.717 388.239,278.236 392.287,287.425 396.875 L 304.132 405.215 331.327 350.817 C 346.285 320.898,358.717 296.425,358.954 296.434 C 359.191 296.442,371.720 320.874,386.796 350.727 L 414.206 405.004 430.701 396.769 C 439.774 392.240,447.197 388.239,447.197 387.879 C 447.197 387.518,434.284 361.399,418.501 329.835 L 389.804 272.447 431.137 272.225 L 472.470 272.002 472.470 253.155 L 472.470 234.307 425.137 234.086 L 377.805 233.865 377.805 179.471 L 377.805 125.078 358.957 125.078 L 340.110 125.078 340.110 179.479 M268.143 158.922 L 254.880 172.205 279.504 196.828 L 304.127 221.452 317.616 207.962 L 331.106 194.473 306.700 170.056 C 293.277 156.627,282.094 145.639,281.850 145.639 C 281.605 145.639,275.437 151.616,268.143 158.922 M411.422 169.849 L 387.224 194.058 400.727 207.541 L 414.230 221.024 438.630 196.613 L 463.030 172.201 449.770 158.920 C 442.477 151.616,436.309 145.639,436.065 145.639 C 435.821 145.639,424.731 156.533,411.422 169.849 " stroke="none" fill-rule="evenodd" fill="black"></path></svg>