<svg width="136mm" height="120mm" version="1.1" viewBox="0 0 600 529.4117647058824" xmlns="http://www.w3.org/2000/svg"><path d="M121.366 49.403 C 121.052 49.717,120.795 61.668,120.795 75.961 L 120.795 101.947 83.100 101.947 L 45.405 101.947 45.405 120.795 L 45.405 139.642 83.100 139.642 L 120.795 139.642 120.795 161.278 L 120.795 182.914 87.438 282.977 C 65.064 350.091,54.415 383.166,55.097 383.421 C 56.640 384.000,89.451 394.939,89.643 394.939 C 89.735 394.939,101.087 361.110,114.869 319.763 L 139.928 244.588 164.932 319.549 C 186.988 385.670,190.128 394.480,191.561 394.252 C 194.913 393.718,224.459 383.632,224.937 382.858 C 225.211 382.415,210.373 336.849,191.963 281.600 L 158.489 181.149 158.489 160.396 L 158.489 139.642 196.613 139.642 L 234.736 139.642 234.736 120.795 L 234.736 101.947 196.613 101.947 L 158.489 101.947 158.489 75.390 L 158.489 48.832 140.213 48.832 C 130.161 48.832,121.680 49.089,121.366 49.403 M340.110 64.244 L 340.110 75.372 300.488 75.595 L 260.865 75.818 260.634 94.451 L 260.403 113.084 360.654 113.084 L 460.905 113.084 460.905 94.237 L 460.905 75.390 419.355 75.390 L 377.805 75.390 377.805 64.252 L 377.805 53.115 358.957 53.115 L 340.110 53.115 340.110 64.244 M340.110 179.050 L 340.110 233.879 292.991 233.879 L 245.873 233.879 245.873 252.727 L 245.873 271.574 286.995 271.574 C 309.611 271.574,328.116 271.768,328.116 272.005 C 328.116 272.242,315.201 298.263,299.417 329.829 C 283.632 361.396,270.717 387.415,270.717 387.650 C 270.717 388.145,302.929 404.362,303.911 404.362 C 304.272 404.362,316.707 380.075,331.543 350.390 C 346.379 320.706,358.715 296.418,358.955 296.418 C 359.195 296.418,371.630 320.898,386.587 350.817 L 413.782 405.215 430.490 396.875 C 439.679 392.287,447.197 388.239,447.197 387.879 C 447.197 387.518,434.283 361.396,418.498 329.830 C 402.713 298.263,389.798 272.242,389.798 272.005 C 389.798 271.768,408.303 271.574,430.920 271.574 L 472.042 271.574 472.042 252.727 L 472.042 233.879 424.923 233.879 L 377.805 233.879 377.805 179.050 L 377.805 124.222 358.957 124.222 L 340.110 124.222 340.110 179.050 M268.145 158.920 L 254.884 172.201 279.285 196.613 L 303.685 221.024 317.188 207.541 L 330.691 194.058 306.492 169.849 C 293.183 156.533,282.094 145.639,281.850 145.639 C 281.605 145.639,275.438 151.616,268.145 158.920 M411.422 169.849 L 387.224 194.058 400.727 207.541 L 414.230 221.024 438.630 196.613 L 463.030 172.201 449.770 158.920 C 442.477 151.616,436.309 145.639,436.065 145.639 C 435.821 145.639,424.731 156.533,411.422 169.849 " stroke="none" fill-rule="evenodd" fill="black"></path></svg>