<svg width="136mm" height="120mm" version="1.1" viewBox="0 0 600 529.4117647058824" xmlns="http://www.w3.org/2000/svg"><path d="M120.795 75.373 L 120.795 101.947 83.100 101.947 L 45.405 101.947 45.405 120.795 L 45.405 139.642 83.100 139.642 L 120.795 139.642 120.795 161.278 L 120.795 182.914 87.438 282.977 C 65.064 350.091,54.415 383.166,55.097 383.421 C 56.640 384.000,89.451 394.939,89.643 394.939 C 89.735 394.939,101.087 361.110,114.869 319.764 L 139.927 244.590 164.625 318.693 C 178.209 359.450,189.496 393.256,189.709 393.817 C 189.975 394.521,195.362 393.090,207.061 389.211 C 216.392 386.116,224.360 383.281,224.766 382.911 C 225.172 382.541,210.619 337.581,192.426 283.000 L 159.346 183.762 159.346 161.702 L 159.346 139.642 197.041 139.642 L 234.736 139.642 234.736 120.795 L 234.736 101.947 197.053 101.947 L 159.371 101.947 159.144 75.604 L 158.918 49.260 139.856 49.030 L 120.795 48.799 120.795 75.373 M340.110 64.244 L 340.110 75.372 300.488 75.595 L 260.865 75.818 260.634 94.451 L 260.403 113.084 360.654 113.084 L 460.905 113.084 460.905 94.237 L 460.905 75.390 419.355 75.390 L 377.805 75.390 377.805 64.252 L 377.805 53.115 358.957 53.115 L 340.110 53.115 340.110 64.244 M340.110 179.479 L 340.110 233.879 292.991 233.879 L 245.873 233.879 245.873 253.155 L 245.873 272.431 286.996 272.431 L 328.119 272.431 299.418 329.827 C 283.633 361.395,270.717 387.518,270.717 387.879 C 270.717 388.239,278.236 392.287,287.425 396.875 L 304.132 405.215 331.327 350.817 C 346.285 320.898,358.718 296.418,358.957 296.418 C 359.196 296.418,371.630 320.898,386.587 350.817 L 413.782 405.215 430.490 396.875 C 439.679 392.287,447.197 388.239,447.197 387.879 C 447.197 387.518,434.282 361.395,418.497 329.827 L 389.796 272.431 430.919 272.431 L 472.042 272.431 472.042 253.155 L 472.042 233.879 424.923 233.879 L 377.805 233.879 377.805 179.479 L 377.805 125.078 358.957 125.078 L 340.110 125.078 340.110 179.479 M268.145 158.920 L 254.884 172.201 279.285 196.613 L 303.685 221.024 317.188 207.541 L 330.691 194.058 306.492 169.849 C 293.183 156.533,282.094 145.639,281.850 145.639 C 281.605 145.639,275.438 151.616,268.145 158.920 M411.422 169.849 L 387.224 194.058 400.727 207.541 L 414.230 221.024 438.630 196.613 L 463.030 172.201 449.770 158.920 C 442.477 151.616,436.309 145.639,436.065 145.639 C 435.821 145.639,424.731 156.533,411.422 169.849 " stroke="none" fill-rule="evenodd" fill="black"></path></svg>