<svg width="136mm" height="120mm" version="1.1" viewBox="0 0 600 529.4117647058824" xmlns="http://www.w3.org/2000/svg"><path d="M209.243 96.171 L 149.058 156.360 162.561 169.843 L 176.064 183.326 236.449 122.937 L 296.834 62.547 283.572 49.264 C 276.278 41.959,270.111 35.981,269.869 35.981 C 269.626 35.981,242.344 63.067,209.243 96.171 M260.431 136.001 C 260.416 164.966,254.951 208.669,247.539 239.100 C 245.083 249.184,239.263 269.573,238.459 270.913 C 238.252 271.257,220.441 262.715,198.879 251.932 L 159.674 232.326 151.372 248.957 C 146.805 258.104,143.069 265.778,143.069 266.009 C 143.069 266.241,161.192 275.493,183.342 286.570 L 223.614 306.710 220.525 312.844 C 216.479 320.879,209.042 332.859,203.678 339.981 C 192.695 354.566,175.320 369.220,163.925 373.508 C 158.625 375.504,149.079 377.765,145.853 377.790 L 143.926 377.805 143.926 396.652 L 143.926 415.500 147.240 415.500 C 151.951 415.500,163.957 413.300,170.951 411.155 C 200.980 401.946,232.151 372.114,252.796 332.828 C 255.272 328.116,257.384 324.143,257.488 323.999 C 257.592 323.854,291.226 340.511,332.230 361.014 C 387.743 388.772,406.997 398.029,407.619 397.258 C 408.820 395.773,424.220 364.818,423.903 364.528 C 423.757 364.394,389.616 347.280,348.034 326.496 C 306.452 305.711,272.431 288.586,272.431 288.439 C 272.431 288.293,273.600 284.727,275.030 280.516 C 287.053 245.102,296.127 194.506,297.683 154.206 C 297.947 147.374,298.366 138.025,298.615 133.431 L 299.067 125.078 279.752 125.078 L 260.437 125.078 260.431 136.001 " stroke="none" fill-rule="evenodd" fill="black"></path></svg>