<svg width="136mm" height="120mm" version="1.1" viewBox="0 0 600 529.4117647058824" xmlns="http://www.w3.org/2000/svg"><path d="M209.675 95.739 C 176.811 128.605,149.923 155.885,149.923 156.360 C 149.923 156.836,155.804 163.098,162.993 170.276 L 176.064 183.326 236.449 122.937 L 296.834 62.547 283.572 49.264 C 276.278 41.959,270.111 35.981,269.869 35.981 C 269.626 35.981,242.539 62.872,209.675 95.739 M261.008 124.793 C 260.694 125.107,260.433 130.408,260.429 136.572 C 260.410 165.609,255.973 202.571,248.750 233.879 C 246.265 244.649,240.510 265.448,238.612 270.516 C 238.338 271.247,225.449 265.220,198.940 251.963 L 159.674 232.326 151.372 248.957 C 146.805 258.104,143.069 265.778,143.069 266.009 C 143.069 266.241,161.188 275.491,183.334 286.566 C 205.479 297.641,223.599 306.837,223.599 307.001 C 223.599 307.840,213.472 325.802,210.487 330.258 C 196.316 351.413,178.346 368.080,163.807 373.553 C 158.607 375.510,149.052 377.765,145.853 377.790 L 143.926 377.805 143.926 396.770 L 143.926 415.736 150.565 415.152 C 190.358 411.653,226.084 382.676,253.226 331.886 C 255.467 327.692,257.386 324.143,257.489 323.999 C 257.593 323.854,291.226 340.511,332.230 361.014 C 387.743 388.772,406.997 398.029,407.619 397.258 C 408.820 395.773,424.220 364.818,423.903 364.528 C 423.757 364.394,389.616 347.280,348.034 326.496 C 306.452 305.711,272.431 288.586,272.431 288.439 C 272.431 288.293,273.600 284.727,275.030 280.516 C 288.713 240.212,298.122 181.871,298.130 137.286 L 298.132 124.222 279.855 124.222 C 269.803 124.222,261.322 124.479,261.008 124.793 " stroke="none" fill-rule="evenodd" fill="black"></path></svg>