<svg width="136mm" height="120mm" version="1.1" viewBox="0 0 600 529.4117647058824" xmlns="http://www.w3.org/2000/svg"><path d="M209.243 96.171 L 149.058 156.360 162.561 169.843 L 176.064 183.326 236.449 122.937 L 296.834 62.547 283.572 49.264 C 276.278 41.959,270.111 35.981,269.869 35.981 C 269.626 35.981,242.344 63.067,209.243 96.171 M260.431 136.001 C 260.416 164.966,254.951 208.669,247.539 239.100 C 245.083 249.184,239.263 269.573,238.459 270.913 C 238.252 271.257,220.755 262.872,199.575 252.280 C 178.396 241.688,160.682 233.022,160.211 233.022 C 159.501 233.022,143.069 264.630,143.069 265.995 C 143.069 266.234,161.192 275.493,183.342 286.570 L 223.614 306.710 220.525 312.844 C 206.231 341.229,182.663 366.454,163.807 373.553 C 158.607 375.510,149.052 377.765,145.853 377.790 L 143.926 377.805 143.926 396.775 L 143.926 415.746 150.733 415.178 C 159.385 414.457,171.959 411.278,179.836 407.821 C 207.602 395.634,233.935 368.562,252.780 332.828 C 255.265 328.116,257.384 324.143,257.488 323.999 C 257.592 323.854,291.303 340.549,332.400 361.099 C 373.497 381.649,407.229 398.344,407.359 398.200 C 408.064 397.422,424.125 364.731,423.903 364.528 C 423.757 364.394,389.582 347.263,347.958 326.457 C 300.109 302.540,272.422 288.250,272.672 287.598 C 274.673 282.363,280.001 264.615,282.722 254.124 C 291.935 218.598,296.936 182.017,298.519 138.571 L 299.011 125.078 279.724 125.078 L 260.437 125.078 260.431 136.001 " stroke="none" fill-rule="evenodd" fill="black"></path></svg>