<svg width="136mm" height="120mm" version="1.1" viewBox="0 0 600 529.4117647058824" xmlns="http://www.w3.org/2000/svg"><path d="M280.355 99.209 L 200.468 139.209 200.464 150.349 C 200.444 205.854,189.560 259.908,170.364 299.844 C 154.111 333.654,133.435 354.370,112.143 358.175 L 106.231 359.232 106.231 378.053 L 106.231 396.873 112.335 396.272 C 141.737 393.375,168.848 374.320,190.424 341.387 C 211.256 309.591,226.374 265.705,233.374 216.713 C 235.296 203.263,236.109 194.729,237.802 170.230 L 238.323 162.695 308.489 127.610 L 378.656 92.524 370.316 75.818 C 365.729 66.630,361.586 59.134,361.109 59.160 C 360.632 59.186,324.293 77.208,280.355 99.209 " stroke="none" fill-rule="evenodd" fill="black"></path></svg>