<svg width="136mm" height="120mm" version="1.1" viewBox="0 0 600 529.4117647058824" xmlns="http://www.w3.org/2000/svg"><path d="M280.522 99.125 L 200.801 139.043 199.771 164.401 C 197.467 221.097,188.220 263.129,169.687 301.147 C 153.501 334.351,133.285 354.397,112.184 358.168 L 106.231 359.232 106.231 378.060 L 106.231 396.888 112.696 396.303 C 148.159 393.089,181.923 363.710,204.352 316.551 C 219.567 284.560,229.423 248.907,234.667 206.893 C 236.090 195.485,238.163 170.271,238.163 164.354 C 238.163 163.118,253.422 155.145,308.409 127.650 L 378.656 92.524 370.316 75.818 C 365.729 66.630,361.586 59.134,361.109 59.160 C 360.632 59.186,324.368 77.171,280.522 99.125 " stroke="none" fill-rule="evenodd" fill="black"></path></svg>