<svg width="136mm" height="120mm" version="1.1" viewBox="0 0 600 529.4117647058824" xmlns="http://www.w3.org/2000/svg"><path d="M280.718 99.096 L 200.692 139.080 200.114 157.137 C 199.414 179.032,198.302 193.593,196.123 209.380 C 184.943 290.398,150.176 351.763,111.802 358.211 L 105.342 359.297 105.572 377.760 L 105.802 396.224 112.441 395.982 C 124.765 395.533,140.387 389.803,153.176 381.040 C 160.939 375.720,172.958 364.431,179.955 355.887 C 206.467 323.513,226.386 270.163,234.305 210.320 C 235.467 201.534,238.064 170.632,238.139 164.702 C 238.160 163.011,246.764 158.474,308.412 127.648 C 347.049 108.329,378.661 92.325,378.661 92.086 C 378.661 90.770,362.243 59.112,361.560 59.112 C 361.112 59.112,324.733 77.105,280.718 99.096 " stroke="none" fill-rule="evenodd" fill="black"></path></svg>