<svg width="136mm" height="120mm" version="1.1" viewBox="0 0 600 529.4117647058824" xmlns="http://www.w3.org/2000/svg"><path d="M94.237 224.900 L 94.237 377.837 113.299 377.607 L 132.360 377.376 132.577 243.517 L 132.794 109.658 257.010 109.658 L 381.226 109.658 381.443 243.517 L 381.660 377.376 400.721 377.607 L 419.783 377.837 419.783 224.900 L 419.783 71.963 257.010 71.963 L 94.237 71.963 94.237 224.900 M279.602 135.465 L 255.508 159.559 233.075 152.082 C 220.736 147.969,210.462 144.783,210.243 145.002 C 209.650 145.595,198.754 178.405,198.754 179.597 C 198.754 180.160,204.776 182.628,212.135 185.081 L 225.515 189.541 208.071 207.000 L 190.627 224.460 204.113 237.946 L 217.600 251.432 241.811 227.232 L 266.023 203.031 287.841 210.317 C 299.841 214.323,310.118 217.602,310.678 217.602 C 311.552 217.602,322.976 185.348,322.976 182.880 C 322.976 182.396,317.868 180.320,311.625 178.267 C 305.381 176.214,299.332 174.182,298.181 173.752 C 296.191 173.009,296.949 172.109,313.592 155.451 L 331.096 137.931 317.837 124.651 C 310.544 117.347,304.379 111.371,304.137 111.371 C 303.895 111.371,292.854 122.213,279.602 135.465 M279.602 256.260 L 255.508 280.354 233.075 272.876 C 220.736 268.764,210.462 265.578,210.243 265.797 C 209.650 266.390,198.754 299.200,198.754 300.392 C 198.754 300.955,204.776 303.423,212.135 305.876 L 225.515 310.335 208.071 327.795 L 190.627 345.255 204.113 358.741 L 217.600 372.227 241.811 348.027 L 266.023 323.826 287.841 331.111 C 299.841 335.118,310.118 338.397,310.678 338.397 C 311.552 338.397,322.976 306.142,322.976 303.675 C 322.976 303.191,317.868 301.114,311.625 299.061 C 305.381 297.008,299.332 294.977,298.181 294.547 C 296.191 293.804,296.949 292.904,313.592 276.246 L 331.096 258.726 317.837 245.446 C 310.544 238.142,304.379 232.166,304.137 232.166 C 303.895 232.166,292.854 243.008,279.602 256.260 " stroke="none" fill-rule="evenodd" fill="black"></path></svg>