<svg width="136mm" height="120mm" version="1.1" viewBox="0 0 600 529.4117647058824" xmlns="http://www.w3.org/2000/svg"><path d="M238.163 54.829 L 238.163 71.963 170.055 71.963 L 101.947 71.963 101.947 90.810 L 101.947 109.658 111.371 109.658 L 120.795 109.658 120.795 122.936 L 120.795 136.215 79.245 136.215 L 37.695 136.215 37.695 155.063 L 37.695 173.910 65.745 173.910 L 93.796 173.910 72.390 195.329 L 50.983 216.748 64.471 230.236 L 77.959 243.723 109.020 212.671 L 140.081 181.619 162.136 203.686 C 174.266 215.822,184.191 226.039,184.191 226.389 C 184.191 226.739,175.902 227.025,165.771 227.025 L 147.352 227.025 147.352 245.873 L 147.352 264.720 119.081 264.720 L 90.810 264.720 90.810 283.568 L 90.810 302.415 119.081 302.415 L 147.352 302.415 147.352 321.262 L 147.352 340.110 119.081 340.110 L 90.810 340.110 90.810 358.957 L 90.810 377.805 119.081 377.805 L 147.352 377.805 147.352 396.652 L 147.352 415.500 166.200 415.500 L 185.047 415.500 185.047 396.652 L 185.047 377.805 213.318 377.805 L 241.589 377.805 241.589 358.957 L 241.589 340.110 213.318 340.110 L 185.047 340.110 185.047 321.262 L 185.047 302.415 213.318 302.415 L 241.589 302.415 241.589 283.579 L 241.589 264.744 213.532 264.518 L 185.476 264.292 185.244 245.445 L 185.013 226.597 193.600 235.151 L 202.187 243.705 215.465 230.447 L 228.743 217.190 207.116 195.550 L 185.488 173.910 213.539 173.910 L 241.589 173.910 241.589 155.063 L 241.589 136.215 200.468 136.215 L 159.346 136.215 159.346 122.936 L 159.346 109.658 257.010 109.658 L 354.674 109.658 354.674 122.936 L 354.674 136.215 313.552 136.215 L 272.431 136.215 272.431 155.063 L 272.431 173.910 300.481 173.910 L 328.532 173.910 306.904 195.550 L 285.277 217.190 298.562 230.455 L 311.848 243.719 342.896 212.671 L 373.944 181.623 405.003 212.673 L 436.061 243.723 449.549 230.236 L 463.037 216.748 441.630 195.329 L 420.224 173.910 448.275 173.910 L 476.325 173.910 476.325 155.063 L 476.325 136.215 434.775 136.215 L 393.225 136.215 393.225 122.936 L 393.225 109.658 402.649 109.658 L 412.073 109.658 412.073 90.810 L 412.073 71.963 343.965 71.963 L 275.857 71.963 275.857 54.829 L 275.857 37.695 257.010 37.695 L 238.163 37.695 238.163 54.829 M335.826 242.407 L 335.826 257.789 332.614 258.307 C 294.279 264.489,269.885 279.771,262.406 302.289 C 261.402 305.313,260.984 311.676,260.668 328.759 L 260.252 351.247 279.620 351.247 L 298.988 351.247 298.988 331.643 L 298.988 312.038 302.539 308.830 C 304.493 307.065,308.527 304.517,311.506 303.166 C 317.666 300.373,330.721 296.418,333.780 296.418 L 335.826 296.418 335.826 355.959 L 335.826 415.500 355.102 415.500 L 374.378 415.500 374.378 355.959 L 374.378 296.418 376.163 296.418 C 383.801 296.418,403.866 304.546,409.066 309.746 L 412.073 312.753 412.073 332.000 L 412.073 351.247 430.920 351.247 L 449.767 351.247 449.767 331.231 C 449.767 320.223,449.382 309.139,448.912 306.601 C 447.542 299.216,442.559 290.085,436.616 284.072 C 423.372 270.672,405.271 262.771,377.591 258.307 L 374.378 257.789 374.378 242.407 L 374.378 227.025 355.102 227.025 L 335.826 227.025 335.826 242.407 " stroke="none" fill-rule="evenodd" fill="black"></path></svg>