<svg width="136mm" height="120mm" version="1.1" viewBox="0 0 600 529.4117647058824" xmlns="http://www.w3.org/2000/svg"><path d="M238.163 54.829 L 238.163 71.963 170.055 71.963 L 101.947 71.963 101.947 90.810 L 101.947 109.658 111.371 109.658 L 120.795 109.658 120.795 122.936 L 120.795 136.215 79.245 136.215 L 37.695 136.215 37.695 155.063 L 37.695 173.910 65.745 173.910 L 93.796 173.910 72.390 195.329 L 50.983 216.748 64.471 230.236 L 77.959 243.723 109.020 212.671 L 140.081 181.619 162.326 203.876 L 184.571 226.134 166.176 226.365 L 147.781 226.597 147.550 245.659 L 147.320 264.720 119.065 264.720 L 90.810 264.720 90.810 283.568 L 90.810 302.415 119.081 302.415 L 147.352 302.415 147.352 321.262 L 147.352 340.110 119.081 340.110 L 90.810 340.110 90.810 358.957 L 90.810 377.805 119.081 377.805 L 147.352 377.805 147.352 396.652 L 147.352 415.500 166.200 415.500 L 185.047 415.500 185.047 396.652 L 185.047 377.805 213.318 377.805 L 241.589 377.805 241.589 358.957 L 241.589 340.110 213.318 340.110 L 185.047 340.110 185.047 321.262 L 185.047 302.415 213.318 302.415 L 241.589 302.415 241.589 283.579 L 241.589 264.744 213.532 264.518 L 185.476 264.292 185.244 245.445 L 185.013 226.597 193.600 235.151 L 202.187 243.705 215.465 230.447 L 228.743 217.190 207.116 195.550 L 185.488 173.910 213.539 173.910 L 241.589 173.910 241.589 155.071 L 241.589 136.232 200.254 136.009 L 158.918 135.787 158.681 122.722 L 158.445 109.658 257.010 109.658 L 355.575 109.658 355.339 122.722 L 355.102 135.787 313.766 136.009 L 272.431 136.232 272.431 155.071 L 272.431 173.910 300.481 173.910 L 328.532 173.910 306.904 195.550 L 285.277 217.190 298.562 230.455 L 311.848 243.719 342.896 212.671 L 373.944 181.623 405.003 212.673 L 436.061 243.723 449.549 230.236 L 463.037 216.748 441.630 195.329 L 420.224 173.910 448.275 173.910 L 476.325 173.910 476.325 155.063 L 476.325 136.215 434.775 136.215 L 393.225 136.215 393.225 122.936 L 393.225 109.658 402.649 109.658 L 412.073 109.658 412.073 90.810 L 412.073 71.963 343.965 71.963 L 275.857 71.963 275.857 54.829 L 275.857 37.695 257.010 37.695 L 238.163 37.695 238.163 54.829 M336.683 241.949 L 336.683 257.762 332.614 258.331 C 306.161 262.029,282.277 273.091,270.980 286.876 C 265.900 293.076,262.369 300.856,261.309 308.182 C 260.848 311.371,260.463 322.366,260.454 332.614 L 260.437 351.247 279.284 351.247 L 298.132 351.247 298.132 332.402 L 298.132 313.557 301.114 310.256 C 306.196 304.631,320.858 298.297,332.315 296.777 L 336.683 296.197 336.683 355.848 L 336.683 415.500 355.531 415.500 L 374.378 415.500 374.378 355.959 L 374.378 296.418 376.163 296.418 C 383.892 296.418,403.804 304.484,409.066 309.746 L 412.073 312.753 412.073 332.000 L 412.073 351.247 430.920 351.247 L 449.767 351.247 449.767 331.231 C 449.767 308.462,449.226 304.365,445.107 295.990 C 436.194 277.863,413.951 264.725,382.750 259.158 L 374.416 257.671 374.183 242.134 L 373.950 226.597 355.316 226.366 L 336.683 226.135 336.683 241.949 " stroke="none" fill-rule="evenodd" fill="black"></path></svg>