<svg width="136mm" height="120mm" version="1.1" viewBox="0 0 600 529.4117647058824" xmlns="http://www.w3.org/2000/svg"><path d="M238.163 54.829 L 238.163 71.963 170.055 71.963 L 101.947 71.963 101.947 90.810 L 101.947 109.658 111.371 109.658 L 120.795 109.658 120.795 122.936 L 120.795 136.215 79.245 136.215 L 37.695 136.215 37.695 155.063 L 37.695 173.910 65.745 173.910 L 93.796 173.910 72.390 195.329 L 50.983 216.748 64.471 230.236 L 77.959 243.723 109.020 212.671 L 140.081 181.619 162.136 203.686 C 174.266 215.822,184.191 226.039,184.191 226.389 C 184.191 226.739,175.902 227.025,165.771 227.025 L 147.352 227.025 147.352 245.873 L 147.352 264.720 119.081 264.720 L 90.810 264.720 90.810 283.568 L 90.810 302.415 119.081 302.415 L 147.352 302.415 147.352 321.262 L 147.352 340.110 119.081 340.110 L 90.810 340.110 90.810 358.957 L 90.810 377.805 119.081 377.805 L 147.352 377.805 147.352 396.652 L 147.352 415.500 166.200 415.500 L 185.047 415.500 185.047 396.652 L 185.047 377.805 213.318 377.805 L 241.589 377.805 241.589 358.957 L 241.589 340.110 213.318 340.110 L 185.047 340.110 185.047 321.262 L 185.047 302.415 213.318 302.415 L 241.589 302.415 241.589 283.579 L 241.589 264.744 213.532 264.518 L 185.476 264.292 185.244 245.445 L 185.013 226.597 193.600 235.151 L 202.187 243.705 215.465 230.447 L 228.743 217.190 207.116 195.550 L 185.488 173.910 213.539 173.910 L 241.589 173.910 241.589 155.063 L 241.589 136.215 200.039 136.215 L 158.489 136.215 158.489 122.936 L 158.489 109.658 257.010 109.658 L 355.531 109.658 355.531 122.936 L 355.531 136.215 313.981 136.215 L 272.431 136.215 272.431 155.063 L 272.431 173.910 300.481 173.910 L 328.532 173.910 306.904 195.550 L 285.277 217.190 298.562 230.455 L 311.848 243.719 342.896 212.671 L 373.944 181.623 405.003 212.673 L 436.061 243.723 449.549 230.236 L 463.037 216.748 441.630 195.329 L 420.224 173.910 448.275 173.910 L 476.325 173.910 476.325 155.063 L 476.325 136.215 434.775 136.215 L 393.225 136.215 393.225 122.936 L 393.225 109.658 402.649 109.658 L 412.073 109.658 412.073 90.810 L 412.073 71.963 343.965 71.963 L 275.857 71.963 275.857 54.829 L 275.857 37.695 257.010 37.695 L 238.163 37.695 238.163 54.829 M336.683 242.394 L 336.683 257.762 332.614 258.326 C 305.522 262.083,281.772 273.294,270.551 287.622 C 261.822 298.767,261.173 301.467,260.668 328.759 L 260.252 351.247 279.620 351.247 L 298.988 351.247 298.988 331.643 L 298.988 312.038 302.499 308.867 C 304.430 307.122,308.574 304.543,311.708 303.135 C 318.533 300.070,330.765 296.418,334.209 296.418 L 336.683 296.418 336.683 355.959 L 336.683 415.500 355.531 415.500 L 374.378 415.500 374.378 355.959 L 374.378 296.418 376.163 296.418 C 383.597 296.418,403.450 304.321,408.860 309.434 L 412.073 312.469 412.073 331.858 L 412.073 351.247 430.971 351.247 L 449.870 351.247 449.565 328.330 C 449.221 302.404,448.860 300.438,442.778 291.381 C 431.978 275.297,409.137 263.297,380.589 258.710 L 374.378 257.712 374.378 242.369 L 374.378 227.025 355.531 227.025 L 336.683 227.025 336.683 242.394 " stroke="none" fill-rule="evenodd" fill="black"></path></svg>