<svg width="136mm" height="120mm" version="1.1" viewBox="0 0 600 529.4117647058824" xmlns="http://www.w3.org/2000/svg"><path d="M125.078 50.974 L 125.078 64.252 83.528 64.252 L 41.978 64.252 41.978 83.100 L 41.978 101.947 82.243 101.947 L 122.508 101.947 122.508 103.929 C 122.508 115.351,111.866 166.679,108.830 169.900 C 108.466 170.286,96.896 164.963,83.119 158.071 C 69.342 151.179,57.962 145.659,57.830 145.804 C 57.126 146.581,41.062 179.273,41.285 179.476 C 41.431 179.608,53.212 185.544,67.465 192.665 C 81.718 199.787,93.380 205.938,93.380 206.335 C 93.380 206.732,90.722 211.068,87.472 215.970 C 74.559 235.452,61.600 245.953,47.158 248.639 L 41.978 249.602 41.978 268.416 L 41.978 287.231 48.302 286.658 C 56.002 285.960,65.075 283.520,72.514 280.148 C 90.389 272.042,110.526 252.232,123.651 229.840 L 127.776 222.803 178.254 248.045 C 206.018 261.928,229.028 273.287,229.389 273.287 C 229.749 273.287,233.798 265.769,238.385 256.580 L 246.726 239.872 194.860 213.959 C 156.164 194.626,143.091 187.719,143.375 186.761 C 143.585 186.054,145.147 180.967,146.846 175.457 C 152.460 157.255,156.305 139.040,159.358 116.197 C 160.294 109.193,161.060 103.121,161.060 102.704 C 161.060 102.277,178.588 101.947,201.325 101.947 L 241.589 101.947 241.589 83.100 L 241.589 64.252 202.181 64.252 L 162.773 64.252 162.773 50.974 L 162.773 37.695 143.926 37.695 L 125.078 37.695 125.078 50.974 M332.400 49.611 L 332.400 61.528 326.189 62.564 C 300.513 66.847,278.949 78.980,270.044 94.154 C 262.813 106.476,263.041 121.682,270.633 133.513 C 274.383 139.357,282.935 147.278,289.993 151.443 C 300.105 157.410,311.041 161.069,330.533 165.005 C 334.342 165.774,331.815 167.395,325.063 168.513 C 305.479 171.755,287.568 180.219,277.057 191.199 C 268.347 200.298,264.720 208.570,264.720 219.338 C 264.720 243.324,289.048 263.334,326.189 269.894 L 332.400 270.992 332.400 277.280 L 332.400 283.568 285.281 283.568 L 238.163 283.568 238.163 302.415 L 238.163 321.262 281.208 321.262 L 324.253 321.262 287.630 357.893 L 251.007 394.524 264.510 408.007 L 278.013 421.490 314.840 384.655 L 351.668 347.820 388.292 384.437 L 424.917 421.054 438.202 407.789 L 451.488 394.524 414.872 357.901 L 378.257 321.279 421.508 321.056 L 464.760 320.834 464.991 302.201 L 465.222 283.568 417.658 283.568 L 370.094 283.568 370.094 277.298 L 370.094 271.028 378.141 269.602 C 416.640 262.780,441.396 239.801,437.783 214.240 C 435.756 199.897,425.449 187.312,408.695 178.721 C 397.947 173.209,380.544 167.913,373.180 167.913 C 371.079 167.913,369.458 166.551,370.417 165.592 C 370.688 165.320,374.069 164.552,377.929 163.886 C 398.927 160.260,419.392 149.973,428.572 138.429 C 452.902 107.836,428.864 71.785,378.141 62.798 L 370.094 61.372 370.094 49.533 L 370.094 37.695 351.247 37.695 L 332.400 37.695 332.400 49.611 M332.400 113.513 C 332.400 121.905,332.080 126.792,331.532 126.792 C 331.055 126.792,327.959 126.042,324.653 125.126 C 317.020 123.011,306.872 118.149,304.242 115.348 L 302.214 113.189 304.671 110.874 C 308.943 106.849,324.464 100.485,330.472 100.295 C 332.391 100.234,332.400 100.295,332.400 113.513 M379.854 102.032 C 386.724 104.060,396.611 108.960,398.870 111.455 C 400.311 113.048,400.273 113.217,397.899 115.694 C 394.277 119.475,382.114 124.727,373.039 126.430 L 370.094 126.982 370.094 113.608 C 370.094 98.096,369.382 98.940,379.854 102.032 M332.400 218.887 C 332.400 233.997,333.041 233.043,324.385 230.804 C 317.026 228.902,307.576 224.316,304.723 221.264 L 302.318 218.692 305.151 216.297 C 308.690 213.304,316.874 209.424,323.978 207.370 C 333.132 204.724,332.400 203.723,332.400 218.887 M381.660 208.329 C 391.350 211.576,400.079 216.796,400.079 219.344 C 400.079 220.419,393.599 225.102,389.798 226.773 C 385.077 228.849,374.144 232.165,372.022 232.166 C 370.105 232.166,370.094 232.090,370.094 218.792 L 370.094 205.417 373.307 206.012 C 375.074 206.340,378.833 207.382,381.660 208.329 M117.368 307.984 L 117.368 358.957 79.673 358.957 L 41.978 358.957 41.978 377.805 L 41.978 396.652 136.215 396.652 L 230.452 396.652 230.452 377.805 L 230.452 358.957 192.757 358.957 L 155.063 358.957 155.063 307.984 L 155.063 257.010 136.215 257.010 L 117.368 257.010 117.368 307.984 " stroke="none" fill-rule="evenodd" fill="black"></path></svg>