<svg width="136mm" height="120mm" version="1.1" viewBox="0 0 600 529.4117647058824" xmlns="http://www.w3.org/2000/svg"><path d="M124.222 50.974 L 124.222 64.252 82.672 64.252 L 41.122 64.252 41.122 83.100 L 41.122 101.947 81.815 101.947 C 120.543 101.947,122.508 102.022,122.508 103.501 C 122.508 106.282,120.037 123.574,118.323 132.788 C 115.132 149.943,109.436 170.483,107.869 170.483 C 107.433 170.483,95.898 164.892,82.236 158.058 L 57.397 145.632 49.076 162.300 C 44.499 171.468,40.933 179.137,41.152 179.343 C 41.371 179.548,53.212 185.544,67.465 192.665 C 81.718 199.787,93.380 205.784,93.380 205.993 C 93.380 206.877,87.231 216.762,83.745 221.482 C 71.675 237.825,58.610 247.201,45.477 248.943 L 41.122 249.520 41.122 268.381 L 41.122 287.241 47.797 286.684 C 55.503 286.042,64.188 283.793,71.526 280.541 C 90.462 272.150,111.297 251.367,125.378 226.824 L 127.705 222.768 178.219 248.028 C 206.002 261.920,229.028 273.287,229.389 273.287 C 229.749 273.287,233.805 265.753,238.402 256.545 L 246.760 239.804 195.259 214.197 C 166.933 200.114,143.577 188.411,143.357 188.191 C 143.136 187.970,144.311 183.414,145.968 178.066 C 152.278 157.688,156.430 138.304,159.368 115.491 C 160.297 108.277,161.058 102.279,161.059 102.161 C 161.059 102.044,179.179 101.947,201.325 101.947 L 241.589 101.947 241.589 83.100 L 241.589 64.252 202.181 64.252 L 162.773 64.252 162.773 50.974 L 162.773 37.695 143.497 37.695 L 124.222 37.695 124.222 50.974 M332.400 49.580 L 332.400 61.465 324.669 62.879 C 288.488 69.499,264.720 89.394,264.720 113.062 C 264.720 123.830,268.347 132.102,277.057 141.201 C 287.675 152.292,305.111 160.418,325.974 164.000 C 329.970 164.686,331.971 165.420,331.971 166.200 C 331.971 166.981,329.976 167.708,325.974 168.387 C 306.177 171.745,289.502 179.223,278.647 189.612 C 269.103 198.748,264.720 208.076,264.720 219.259 C 264.720 243.329,288.992 263.324,326.189 269.894 L 332.400 270.992 332.400 277.280 L 332.400 283.568 285.281 283.568 L 238.163 283.568 238.163 302.415 L 238.163 321.262 281.208 321.262 L 324.253 321.262 287.630 357.893 L 251.007 394.524 264.510 408.007 L 278.013 421.490 314.840 384.655 L 351.668 347.820 388.292 384.437 L 424.917 421.054 438.202 407.789 L 451.488 394.524 414.864 357.893 L 378.241 321.262 421.714 321.262 L 465.188 321.262 465.188 302.415 L 465.188 283.568 417.641 283.568 L 370.094 283.568 370.094 277.260 L 370.094 270.952 376.605 269.902 C 391.428 267.511,408.690 260.829,418.206 253.799 C 436.859 240.019,443.039 220.426,434.354 202.610 C 428.182 189.949,413.861 179.162,394.739 172.773 C 387.603 170.388,376.624 167.913,373.180 167.913 C 371.113 167.913,369.453 166.556,370.383 165.626 C 370.636 165.373,373.949 164.627,377.745 163.968 C 392.420 161.421,408.053 155.199,418.636 147.692 C 441.132 131.734,444.709 105.733,427.033 86.641 C 415.986 74.709,397.539 65.861,376.734 62.515 L 370.094 61.447 370.094 49.571 L 370.094 37.695 351.247 37.695 L 332.400 37.695 332.400 49.580 M332.400 113.513 C 332.400 120.816,332.110 126.785,331.757 126.777 C 331.404 126.769,328.371 126.050,325.018 125.178 C 317.492 123.223,306.955 118.238,304.242 115.348 L 302.214 113.189 304.600 110.978 C 309.098 106.809,324.409 100.487,330.472 100.295 C 332.391 100.234,332.400 100.295,332.400 113.513 M382.499 102.886 C 390.619 105.578,397.895 109.674,399.579 112.499 C 400.345 113.783,400.057 114.425,397.937 116.158 C 393.123 120.095,376.274 126.792,371.182 126.792 C 370.350 126.792,370.094 123.677,370.094 113.513 L 370.094 100.234 372.298 100.234 C 373.510 100.234,378.100 101.427,382.499 102.886 M332.400 218.887 C 332.400 233.969,333.008 233.036,324.589 230.855 C 317.302 228.966,307.514 224.239,304.723 221.259 L 302.318 218.692 305.151 216.293 C 308.529 213.433,317.142 209.381,324.261 207.303 C 333.082 204.728,332.400 203.756,332.400 218.887 M377.251 206.971 C 387.531 209.636,400.079 216.125,400.079 218.779 C 400.079 221.697,390.420 227.228,379.854 230.360 C 369.390 233.463,370.094 234.291,370.094 218.887 C 370.094 209.759,370.391 205.608,371.042 205.608 C 371.563 205.608,374.357 206.222,377.251 206.971 M117.368 307.984 L 117.368 358.957 79.245 358.957 L 41.122 358.957 41.122 377.805 L 41.122 396.652 135.787 396.652 L 230.452 396.652 230.452 377.805 L 230.452 358.957 192.757 358.957 L 155.063 358.957 155.063 307.984 L 155.063 257.010 136.215 257.010 L 117.368 257.010 117.368 307.984 " stroke="none" fill-rule="evenodd" fill="black"></path></svg>