<svg width="136mm" height="120mm" version="1.1" viewBox="0 0 600 529.4117647058824" xmlns="http://www.w3.org/2000/svg"><path d="M125.078 50.974 L 125.078 64.252 83.528 64.252 L 41.978 64.252 41.978 83.100 L 41.978 101.947 82.243 101.947 L 122.508 101.947 122.503 104.732 C 122.484 116.318,111.525 168.371,108.743 170.091 C 108.350 170.333,96.788 164.909,83.049 158.036 C 69.310 151.163,57.962 145.659,57.830 145.804 C 57.126 146.581,41.062 179.273,41.285 179.476 C 41.431 179.608,53.212 185.544,67.465 192.665 C 81.718 199.787,93.380 205.894,93.380 206.236 C 93.380 206.579,91.963 209.180,90.231 212.016 C 77.533 232.808,62.280 245.834,47.297 248.681 L 41.978 249.692 41.978 268.466 L 41.978 287.241 47.797 286.700 C 76.339 284.047,102.949 264.153,123.282 230.265 L 127.763 222.797 178.248 248.042 C 206.015 261.927,229.028 273.287,229.389 273.287 C 229.749 273.287,233.797 265.770,238.384 256.582 L 246.724 239.876 195.111 214.081 C 166.723 199.893,143.371 188.169,143.216 188.027 C 143.061 187.885,144.336 183.433,146.049 178.134 C 151.666 160.757,157.194 134.907,159.316 116.083 C 159.848 111.371,160.475 106.263,160.710 104.732 L 161.137 101.947 201.363 101.947 L 241.589 101.947 241.589 83.100 L 241.589 64.252 202.181 64.252 L 162.773 64.252 162.773 50.974 L 162.773 37.695 143.926 37.695 L 125.078 37.695 125.078 50.974 M332.400 49.611 L 332.400 61.528 326.189 62.564 C 299.839 66.959,277.965 79.568,269.405 95.296 C 262.813 107.408,263.306 122.096,270.693 133.607 C 274.258 139.163,283.026 147.308,289.574 151.145 C 300.146 157.341,316.230 162.858,327.513 164.159 C 331.393 164.606,332.421 165.027,332.218 166.083 C 332.034 167.037,330.193 167.732,325.967 168.445 C 305.174 171.950,287.704 180.078,277.057 191.199 C 267.745 200.926,264.206 209.613,264.933 220.956 C 265.458 229.144,268.023 235.919,273.158 242.674 C 282.654 255.167,302.348 265.445,324.475 269.458 L 332.400 270.895 332.400 277.231 L 332.400 283.568 285.281 283.568 L 238.163 283.568 238.163 302.415 L 238.163 321.262 281.208 321.262 L 324.253 321.262 287.630 357.893 L 251.006 394.524 264.084 407.582 C 271.277 414.764,277.545 420.640,278.013 420.640 C 278.481 420.640,295.244 404.255,315.266 384.230 L 351.668 347.820 388.292 384.437 L 424.917 421.054 438.202 407.789 L 451.488 394.524 414.864 357.893 L 378.241 321.262 421.286 321.262 L 464.331 321.262 464.331 302.422 L 464.331 283.582 417.427 283.361 L 370.523 283.139 370.273 277.044 L 370.024 270.948 377.790 269.527 C 411.363 263.385,434.357 246.189,437.693 224.727 C 441.726 198.789,418.298 176.406,379.190 168.832 C 374.586 167.940,370.586 166.977,370.300 166.691 C 369.248 165.639,371.528 164.704,377.433 163.768 C 398.391 160.446,419.303 150.084,428.572 138.429 C 441.809 121.785,441.143 101.881,426.833 86.424 C 416.168 74.905,399.559 66.828,378.447 62.894 L 370.094 61.337 370.094 49.516 L 370.094 37.695 351.247 37.695 L 332.400 37.695 332.400 49.611 M332.400 113.513 C 332.400 120.816,332.057 126.792,331.639 126.792 C 331.220 126.792,327.472 125.805,323.309 124.598 C 314.947 122.175,307.005 118.288,304.103 115.199 L 302.214 113.189 304.671 110.874 C 308.943 106.849,324.464 100.485,330.472 100.295 C 332.391 100.234,332.400 100.295,332.400 113.513 M382.390 102.856 C 389.905 105.371,397.055 109.188,399.287 111.877 C 401.779 114.880,390.772 121.740,378.163 125.043 C 374.490 126.005,371.172 126.792,370.790 126.792 C 370.407 126.792,370.094 120.816,370.094 113.513 L 370.094 100.234 372.324 100.234 C 373.550 100.234,378.080 101.414,382.390 102.856 M332.400 218.887 C 332.400 234.165,333.127 233.229,323.402 230.458 C 316.054 228.364,307.943 224.433,304.709 221.399 L 302.290 219.130 304.263 217.031 C 307.863 213.198,324.633 206.169,331.329 205.685 C 332.143 205.627,332.400 208.794,332.400 218.887 M383.302 208.838 C 390.502 211.207,400.079 216.959,400.079 218.914 C 400.079 221.659,389.213 227.708,379.397 230.428 C 369.308 233.224,370.094 234.207,370.094 218.792 L 370.094 205.417 373.307 206.011 C 375.074 206.338,379.572 207.610,383.302 208.838 M117.368 307.984 L 117.368 358.957 79.673 358.957 L 41.978 358.957 41.978 377.805 L 41.978 396.652 136.215 396.652 L 230.452 396.652 230.452 377.805 L 230.452 358.957 192.757 358.957 L 155.063 358.957 155.063 307.984 L 155.063 257.010 136.215 257.010 L 117.368 257.010 117.368 307.984 " stroke="none" fill-rule="evenodd" fill="black"></path></svg>