<svg width="136mm" height="120mm" version="1.1" viewBox="0 0 600 529.4117647058824" xmlns="http://www.w3.org/2000/svg"><path d="M238.163 200.042 L 238.163 354.680 214.082 342.633 C 200.837 336.008,189.893 330.706,189.762 330.851 C 189.057 331.629,172.994 364.320,173.217 364.524 C 173.729 364.992,275.000 415.500,275.426 415.500 C 275.663 415.500,275.857 332.228,275.857 230.452 L 275.857 45.405 257.010 45.405 L 238.163 45.405 238.163 200.042 M131.718 140.120 L 115.656 148.217 143.929 204.758 L 172.202 261.299 188.691 253.062 C 197.760 248.531,205.297 244.718,205.441 244.588 C 206.008 244.074,149.445 131.935,148.640 131.977 C 148.168 132.002,140.553 135.667,131.718 140.120 M336.419 188.141 C 320.963 219.057,308.436 244.457,308.579 244.588 C 308.723 244.718,316.260 248.531,325.329 253.062 L 341.818 261.299 370.091 204.758 L 398.364 148.217 382.096 140.074 C 373.149 135.596,365.534 131.932,365.174 131.932 C 364.814 131.932,351.874 157.226,336.419 188.141 " stroke="none" fill-rule="evenodd" fill="black"></path></svg>