<svg width="136mm" height="120mm" version="1.1" viewBox="0 0 600 529.4117647058824" xmlns="http://www.w3.org/2000/svg"><path d="M245.445 38.635 C 206.663 42.666,173.208 69.748,160.359 107.516 C 142.359 160.420,171.502 218.542,224.966 236.366 C 278.195 254.113,335.920 225.117,353.734 171.686 C 370.722 120.734,344.807 65.190,294.705 45.164 C 285.575 41.515,277.702 39.617,267.290 38.555 C 258.087 37.616,255.146 37.627,245.445 38.635 M272.002 77.261 C 290.489 81.133,310.094 98.184,317.020 116.413 L 318.685 120.795 257.045 120.795 L 195.404 120.795 196.674 117.195 C 201.883 102.431,217.161 86.727,232.594 80.274 C 237.187 78.353,242.917 76.961,250.585 75.902 C 254.246 75.396,266.948 76.202,272.002 77.261 M317.346 162.089 C 312.620 175.485,299.340 190.377,286.210 197.004 C 276.313 202.001,269.690 203.466,257.010 203.466 C 244.330 203.466,237.707 202.001,227.810 197.004 C 214.680 190.377,201.400 175.485,196.674 162.089 L 195.404 158.489 257.010 158.489 L 318.616 158.489 317.346 162.089 M120.795 232.166 L 120.795 252.727 79.245 252.727 L 37.695 252.727 37.695 272.002 L 37.695 291.278 73.249 291.278 L 108.804 291.278 83.958 340.964 C 70.293 368.291,59.112 390.944,59.112 391.305 C 59.112 391.666,66.630 395.714,75.818 400.300 L 92.523 408.640 116.190 361.313 L 139.856 313.987 163.403 361.102 C 176.353 387.016,187.058 408.337,187.191 408.482 C 187.394 408.705,220.085 392.643,220.863 391.938 C 221.007 391.807,209.924 369.299,196.233 341.920 C 182.542 314.541,171.340 291.946,171.340 291.709 C 171.340 291.472,187.146 291.278,206.465 291.278 L 241.589 291.278 241.589 272.002 L 241.589 252.727 200.039 252.727 L 158.489 252.727 158.489 232.166 L 158.489 211.605 139.642 211.605 L 120.795 211.605 120.795 232.166 M355.531 232.166 L 355.531 252.727 313.981 252.727 L 272.431 252.727 272.431 272.002 L 272.431 291.278 307.555 291.278 C 326.874 291.278,342.680 291.472,342.680 291.709 C 342.680 291.946,331.478 314.541,317.787 341.920 C 304.096 369.299,293.013 391.807,293.157 391.938 C 293.935 392.643,326.626 408.705,326.829 408.482 C 326.962 408.337,337.667 387.016,350.617 361.102 L 374.164 313.987 397.830 361.313 L 421.497 408.640 438.202 400.300 C 447.390 395.714,454.908 391.666,454.908 391.305 C 454.908 390.944,443.727 368.291,430.062 340.964 L 405.216 291.278 440.771 291.278 L 476.325 291.278 476.325 272.002 L 476.325 252.727 434.775 252.727 L 393.225 252.727 393.225 232.166 L 393.225 211.605 374.378 211.605 L 355.531 211.605 355.531 232.166 " stroke="none" fill-rule="evenodd" fill="black"></path></svg>