<svg width="136mm" height="120mm" version="1.1" viewBox="0 0 600 529.4117647058824" xmlns="http://www.w3.org/2000/svg"><path d="M245.445 38.635 C 223.120 40.955,201.914 51.141,185.252 67.546 C 154.099 98.219,146.255 146.235,165.987 185.476 C 183.162 219.631,218.775 241.584,257.010 241.584 C 291.131 241.584,323.942 223.800,342.269 195.372 C 360.063 167.771,363.688 135.289,352.451 104.131 C 343.427 79.112,322.364 56.935,297.703 46.489 C 285.444 41.296,279.963 39.868,267.414 38.595 C 257.580 37.597,255.391 37.601,245.445 38.635 M272.002 77.261 C 290.530 81.142,309.574 97.701,316.896 116.297 L 318.667 120.795 257.010 120.795 L 195.353 120.795 197.104 116.297 C 202.950 101.284,217.384 86.634,232.594 80.274 C 237.187 78.353,242.917 76.961,250.585 75.902 C 254.246 75.396,266.948 76.202,272.002 77.261 M317.346 162.089 C 311.097 179.801,294.274 195.442,275.001 201.460 C 265.701 204.364,248.319 204.364,239.019 201.460 C 219.746 195.442,202.923 179.801,196.674 162.089 L 195.404 158.489 257.010 158.489 L 318.616 158.489 317.346 162.089 M120.795 232.166 L 120.795 252.727 79.228 252.727 L 37.662 252.727 37.893 271.788 L 38.123 290.850 73.462 291.073 C 92.898 291.196,108.801 291.487,108.801 291.719 C 108.801 291.951,97.599 314.541,83.908 341.920 C 70.217 369.299,59.133 391.807,59.278 391.938 C 59.422 392.069,66.960 395.883,76.029 400.414 L 92.518 408.652 116.187 361.319 L 139.856 313.987 163.403 361.102 C 176.353 387.016,187.058 408.337,187.191 408.482 C 187.394 408.705,220.085 392.643,220.863 391.938 C 221.007 391.807,209.924 369.299,196.233 341.920 C 182.542 314.541,171.340 291.946,171.340 291.709 C 171.340 291.472,187.146 291.278,206.465 291.278 L 241.589 291.278 241.589 272.002 L 241.589 252.727 200.468 252.727 L 159.346 252.727 159.346 232.166 L 159.346 211.605 140.070 211.605 L 120.795 211.605 120.795 232.166 M354.674 232.166 L 354.674 252.727 313.552 252.727 L 272.431 252.727 272.431 272.002 L 272.431 291.278 307.555 291.278 C 326.874 291.278,342.680 291.472,342.680 291.709 C 342.680 291.946,331.478 314.541,317.787 341.920 C 304.096 369.299,293.013 391.807,293.157 391.938 C 293.935 392.643,326.626 408.705,326.829 408.482 C 326.962 408.337,337.620 387.108,350.514 361.309 L 373.957 314.400 397.506 361.523 C 410.458 387.440,421.159 408.646,421.285 408.646 C 421.574 408.646,454.387 392.260,454.742 391.938 C 454.887 391.807,443.803 369.299,430.112 341.920 C 416.421 314.541,405.219 291.951,405.219 291.719 C 405.219 291.487,421.122 291.196,440.558 291.073 L 475.897 290.850 476.127 271.788 L 476.358 252.727 434.792 252.727 L 393.225 252.727 393.225 232.166 L 393.225 211.605 373.950 211.605 L 354.674 211.605 354.674 232.166 " stroke="none" fill-rule="evenodd" fill="black"></path></svg>