<svg width="136mm" height="120mm" version="1.1" viewBox="0 0 600 529.4117647058824" xmlns="http://www.w3.org/2000/svg"><path d="M242.018 38.900 C 232.256 40.538,225.542 42.434,217.527 45.814 C 162.657 68.955,139.243 133.774,166.643 186.679 C 191.784 235.222,251.382 255.257,300.580 231.704 C 312.083 226.198,319.717 220.828,328.546 212.033 C 386.384 154.419,357.188 56.609,277.142 39.827 C 267.953 37.901,250.685 37.445,242.018 38.900 M272.859 77.507 C 275.686 78.233,281.662 80.623,286.138 82.818 C 293.006 86.186,295.491 88.024,302.052 94.592 C 308.487 101.033,310.519 103.757,313.832 110.387 C 316.034 114.794,317.836 118.938,317.836 119.597 C 317.836 120.612,308.528 120.795,256.917 120.795 L 195.999 120.795 196.582 118.439 C 197.444 114.961,201.942 106.377,205.314 101.773 C 212.215 92.351,224.436 83.268,235.756 79.145 C 246.218 75.335,261.732 74.650,272.859 77.507 M317.836 159.666 C 317.836 164.026,308.856 178.604,302.037 185.315 C 273.395 213.503,226.446 208.832,203.841 175.544 C 200.165 170.132,196.184 161.920,196.184 159.750 C 196.184 158.652,204.038 158.489,257.010 158.489 C 308.003 158.489,317.836 158.680,317.836 159.666 M120.795 232.157 L 120.795 252.710 79.459 252.932 L 38.123 253.155 37.892 271.788 L 37.661 290.421 73.231 290.421 C 96.453 290.421,108.801 290.720,108.801 291.281 C 108.801 291.754,97.599 314.541,83.908 341.920 C 70.217 369.299,59.133 391.807,59.278 391.938 C 59.422 392.069,66.960 395.883,76.029 400.414 L 92.518 408.652 116.187 361.319 L 139.856 313.987 163.403 361.102 C 176.353 387.016,187.058 408.337,187.191 408.482 C 187.394 408.705,220.085 392.643,220.863 391.938 C 221.007 391.807,209.731 368.913,195.803 341.061 L 170.480 290.421 206.035 290.421 L 241.589 290.421 241.589 271.574 L 241.589 252.727 200.039 252.727 L 158.489 252.727 158.489 232.166 L 158.489 211.605 139.642 211.605 L 120.795 211.605 120.795 232.157 M355.531 232.166 L 355.531 252.727 313.981 252.727 L 272.431 252.727 272.431 271.574 L 272.431 290.421 307.985 290.421 L 343.540 290.421 318.217 341.061 C 304.289 368.913,293.013 391.807,293.157 391.938 C 293.935 392.643,326.626 408.705,326.829 408.482 C 326.962 408.337,337.667 387.016,350.617 361.102 L 374.164 313.987 397.833 361.319 L 421.502 408.652 437.991 400.414 C 447.060 395.883,454.598 392.069,454.742 391.938 C 454.887 391.807,443.803 369.299,430.112 341.920 C 416.421 314.541,405.219 291.754,405.219 291.281 C 405.219 290.720,417.567 290.421,440.789 290.421 L 476.359 290.421 476.128 271.788 L 475.897 253.155 434.561 252.932 L 393.225 252.710 393.225 232.157 L 393.225 211.605 374.378 211.605 L 355.531 211.605 355.531 232.166 " stroke="none" fill-rule="evenodd" fill="black"></path></svg>