<svg width="136mm" height="120mm" version="1.1" viewBox="0 0 600 529.4117647058824" xmlns="http://www.w3.org/2000/svg"><path d="M75.587 79.459 L 75.818 98.092 255.082 98.308 L 434.347 98.525 434.347 79.675 L 434.347 60.826 254.852 60.826 L 75.356 60.826 75.587 79.459 M232.594 107.931 C 212.051 111.580,195.157 117.841,177.999 128.164 C 159.020 139.582,139.068 159.719,127.581 179.050 C 124.159 184.808,117.490 198.491,116.203 202.395 C 115.750 203.767,113.989 203.895,95.549 203.895 L 75.390 203.895 75.390 222.742 L 75.390 241.589 90.810 241.589 L 106.231 241.589 106.231 319.121 L 106.231 396.652 125.078 396.652 L 143.926 396.652 143.926 321.798 C 143.926 280.628,144.167 245.739,144.461 244.267 L 144.996 241.589 257.005 241.589 L 369.014 241.589 369.545 244.802 C 369.837 246.569,370.080 281.458,370.085 322.333 L 370.094 396.652 388.942 396.652 L 407.789 396.652 407.789 319.121 L 407.789 241.589 421.068 241.589 L 434.347 241.589 434.347 222.742 L 434.347 203.895 416.276 203.895 C 398.464 203.895,398.198 203.868,397.720 202.039 C 397.015 199.343,389.307 183.759,385.714 177.765 C 366.521 145.749,331.286 119.871,294.276 110.610 C 275.547 105.924,250.113 104.819,232.594 107.931 M275.857 145.251 C 306.742 150.256,334.259 168.464,352.183 195.756 L 357.247 203.466 307.128 203.687 C 279.563 203.809,234.457 203.809,206.892 203.687 L 156.773 203.466 161.838 195.756 C 176.581 173.312,196.591 157.756,221.393 149.456 C 226.231 147.837,233.429 145.970,237.389 145.306 C 247.225 143.658,265.861 143.631,275.857 145.251 " stroke="none" fill-rule="evenodd" fill="black"></path></svg>