<svg width="136mm" height="120mm" version="1.1" viewBox="0 0 600 529.4117647058824" xmlns="http://www.w3.org/2000/svg"><path d="M75.587 79.459 L 75.818 98.092 255.082 98.308 L 434.347 98.525 434.347 79.675 L 434.347 60.826 254.852 60.826 L 75.356 60.826 75.587 79.459 M245.395 106.303 C 190.224 110.293,140.710 145.544,118.524 196.626 L 115.367 203.895 95.378 203.895 L 75.390 203.895 75.390 222.742 L 75.390 241.589 90.810 241.589 L 106.231 241.589 106.231 319.121 L 106.231 396.652 125.078 396.652 L 143.926 396.652 143.926 321.798 C 143.926 280.628,144.167 245.739,144.461 244.267 L 144.996 241.589 257.010 241.589 L 369.024 241.589 369.559 244.267 C 369.853 245.739,370.094 280.628,370.094 321.798 L 370.094 396.652 388.942 396.652 L 407.789 396.652 407.789 319.121 L 407.789 241.589 421.068 241.589 L 434.347 241.589 434.347 222.742 L 434.347 203.895 416.511 203.895 L 398.675 203.895 395.765 197.255 C 369.536 137.416,310.332 101.606,245.395 106.303 M276.388 145.250 C 290.934 147.782,307.128 154.216,319.522 162.390 C 332.530 170.968,342.657 181.245,351.940 195.289 L 357.345 203.466 307.178 203.687 C 279.585 203.809,234.450 203.809,206.877 203.687 L 156.744 203.466 161.769 195.697 C 178.891 169.221,206.316 150.834,236.925 145.308 C 246.258 143.623,266.867 143.593,276.388 145.250 " stroke="none" fill-rule="evenodd" fill="black"></path></svg>