<svg width="136mm" height="120mm" version="1.1" viewBox="0 0 600 529.4117647058824" xmlns="http://www.w3.org/2000/svg"><path d="M75.587 79.459 L 75.818 98.092 255.082 98.308 L 434.347 98.525 434.347 79.675 L 434.347 60.826 254.852 60.826 L 75.356 60.826 75.587 79.459 M232.594 107.931 C 199.496 113.810,173.319 127.289,150.304 150.304 C 136.495 164.113,125.688 179.816,118.580 196.398 L 115.367 203.895 95.378 203.895 L 75.390 203.895 75.390 222.742 L 75.390 241.589 90.596 241.589 L 105.802 241.589 105.521 319.121 L 105.240 396.652 124.583 396.652 L 143.926 396.652 143.926 321.798 C 143.926 280.628,144.167 245.739,144.461 244.267 L 144.996 241.589 257.010 241.589 L 369.024 241.589 369.559 244.267 C 369.853 245.739,370.094 280.628,370.094 321.798 L 370.094 396.652 389.437 396.652 L 408.780 396.652 408.499 319.121 L 408.218 241.589 421.282 241.589 L 434.347 241.589 434.347 222.742 L 434.347 203.895 416.522 203.895 L 398.696 203.895 395.002 195.542 C 387.455 178.476,377.514 164.103,363.716 150.304 C 340.214 126.802,312.787 112.953,279.079 107.564 C 267.570 105.725,243.965 105.911,232.594 107.931 M275.576 145.207 C 308.835 150.601,337.122 170.247,355.449 200.682 L 357.384 203.895 257.010 203.895 L 156.636 203.895 158.570 200.682 C 167.995 185.022,180.179 171.882,193.443 163.071 C 206.262 154.555,223.300 147.667,237.389 145.306 C 247.089 143.681,265.865 143.632,275.576 145.207 " stroke="none" fill-rule="evenodd" fill="black"></path></svg>