<svg width="136mm" height="120mm" version="1.1" viewBox="0 0 600 529.4117647058824" xmlns="http://www.w3.org/2000/svg"><path d="M229.596 35.565 C 196.481 39.657,165.057 52.298,137.827 72.482 C 127.438 80.182,107.929 99.397,100.498 109.248 C 87.067 127.053,77.114 146.008,70.358 166.649 C 63.528 187.514,60.840 204.446,60.840 226.597 C 60.840 248.635,63.531 265.687,70.247 286.210 C 80.055 316.179,94.694 339.905,117.282 362.444 C 134.310 379.435,147.578 389.041,167.995 399.161 C 186.790 408.478,207.040 414.608,229.167 417.677 C 242.120 419.474,272.117 419.033,283.996 416.872 C 318.292 410.630,347.815 397.453,373.521 376.911 C 385.762 367.130,400.435 351.650,410.028 338.397 C 451.365 281.287,457.268 202.141,424.878 139.293 C 398.065 87.268,350.792 50.968,293.226 38.200 C 276.219 34.428,248.192 33.267,229.596 35.565 M273.577 73.248 C 331.995 80.906,381.429 121.902,400.122 178.194 C 405.614 194.733,407.789 208.464,407.789 226.597 C 407.789 244.731,405.614 258.461,400.122 275.001 C 384.455 322.180,347.134 359.100,299.845 374.198 C 282.282 379.806,268.487 381.607,248.017 380.965 C 231.211 380.437,221.815 378.915,206.943 374.312 C 154.816 358.177,112.876 312.254,101.971 259.373 C 91.126 206.779,106.478 154.816,143.926 117.368 C 178.209 83.085,225.598 66.958,273.577 73.248 M158.687 173.696 L 158.918 192.329 219.100 192.549 L 279.283 192.769 262.576 226.175 C 253.387 244.548,245.588 259.580,245.244 259.580 C 244.901 259.580,241.044 256.019,236.673 251.666 L 228.725 243.751 215.453 257.024 L 202.181 270.296 239.873 307.980 L 277.564 345.664 290.847 332.402 L 304.130 319.140 288.928 303.920 L 273.725 288.699 306.917 222.308 C 325.173 185.793,340.110 155.724,340.110 155.490 C 340.110 155.255,299.238 155.063,249.283 155.063 L 158.456 155.063 158.687 173.696 " stroke="none" fill-rule="evenodd" fill="black"></path></svg>