<svg width="136mm" height="120mm" version="1.1" viewBox="0 0 600 529.4117647058824" xmlns="http://www.w3.org/2000/svg"><path d="M228.739 35.615 C 187.723 40.877,149.718 59.162,119.860 87.999 C 102.793 104.482,90.887 120.766,80.537 141.784 C 67.080 169.110,60.840 195.978,60.840 226.597 C 60.840 277.152,79.660 323.730,114.798 360.136 C 146.736 393.227,187.471 413.083,233.732 418.109 C 247.143 419.566,272.398 418.749,285.709 416.428 C 317.392 410.903,348.743 396.834,373.521 377.024 C 381.440 370.692,394.114 358.112,401.647 349.105 C 419.992 327.173,435.222 296.225,441.084 268.970 C 446.949 241.702,446.983 211.468,441.179 184.619 C 435.181 156.876,420.096 126.146,401.647 104.089 C 383.168 81.996,362.577 65.846,337.111 53.475 C 316.718 43.567,296.011 37.566,273.964 35.171 C 262.841 33.964,239.852 34.189,228.739 35.615 M284.056 74.875 C 342.893 87.269,388.786 131.205,403.451 189.176 C 409.230 212.022,409.230 241.173,403.451 264.018 C 388.459 323.284,340.253 368.264,280.141 379.076 C 269.323 381.022,247.503 381.715,236.785 380.453 C 182.550 374.066,137.265 342.117,114.031 293.848 C 102.416 269.716,97.757 247.316,98.797 220.600 C 99.553 201.204,102.544 186.820,109.397 169.628 C 130.538 116.589,176.715 80.941,234.772 72.839 C 237.815 72.415,247.822 72.209,257.010 72.382 C 270.778 72.641,275.534 73.080,284.056 74.875 M158.687 173.696 L 158.918 192.329 219.100 192.549 L 279.283 192.769 262.576 226.175 C 253.387 244.548,245.588 259.580,245.244 259.580 C 244.901 259.580,241.044 256.019,236.673 251.666 L 228.725 243.751 215.453 257.024 L 202.181 270.296 239.873 307.980 L 277.564 345.664 290.847 332.402 L 304.130 319.140 288.928 303.920 L 273.725 288.699 306.917 222.308 C 325.173 185.793,340.110 155.724,340.110 155.490 C 340.110 155.255,299.238 155.063,249.283 155.063 L 158.456 155.063 158.687 173.696 " stroke="none" fill-rule="evenodd" fill="black"></path></svg>