<svg width="136mm" height="120mm" version="1.1" viewBox="0 0 600 529.4117647058824" xmlns="http://www.w3.org/2000/svg"><path d="M316.979 122.936 L 316.979 208.178 296.418 208.178 L 275.857 208.178 275.857 151.208 L 275.857 94.237 257.010 94.237 L 238.163 94.237 238.163 151.208 L 238.163 208.178 217.607 208.178 L 197.052 208.178 196.832 141.998 L 196.613 75.818 177.765 75.818 L 158.918 75.818 158.698 141.998 L 158.479 208.178 128.500 208.178 L 98.520 208.178 98.520 227.025 L 98.520 245.873 128.500 245.873 L 158.479 245.873 158.698 311.625 L 158.918 377.376 177.765 377.376 L 196.613 377.376 196.832 311.625 L 197.052 245.873 217.607 245.873 L 238.163 245.873 238.163 302.415 L 238.163 358.957 257.010 358.957 L 275.857 358.957 275.857 302.415 L 275.857 245.873 296.418 245.873 L 316.979 245.873 316.979 330.686 L 316.979 415.500 336.255 415.500 L 355.531 415.500 355.531 330.697 L 355.531 245.894 387.443 245.669 L 419.355 245.445 419.586 226.811 L 419.816 208.178 387.673 208.178 L 355.531 208.178 355.531 122.936 L 355.531 37.695 336.255 37.695 L 316.979 37.695 316.979 122.936 " stroke="none" fill-rule="evenodd" fill="black"></path></svg>