<svg width="136mm" height="120mm" version="1.1" viewBox="0 0 600 529.4117647058824" xmlns="http://www.w3.org/2000/svg"><path d="M317.836 122.508 L 317.836 207.321 296.847 207.321 L 275.857 207.321 275.857 150.779 L 275.857 94.237 257.010 94.237 L 238.163 94.237 238.163 150.779 L 238.163 207.321 217.173 207.321 L 196.184 207.321 196.184 141.356 L 196.184 75.390 177.337 75.390 L 158.489 75.390 158.489 141.356 L 158.489 207.321 128.505 207.321 L 98.520 207.321 98.520 226.597 L 98.520 245.873 128.505 245.873 L 158.489 245.873 158.489 311.839 L 158.489 377.805 177.337 377.805 L 196.184 377.805 196.184 311.839 L 196.184 245.873 217.173 245.873 L 238.163 245.873 238.163 302.415 L 238.163 358.957 257.010 358.957 L 275.857 358.957 275.857 302.415 L 275.857 245.873 296.847 245.873 L 317.836 245.873 317.836 330.686 L 317.836 415.500 336.683 415.500 L 355.531 415.500 355.531 330.697 L 355.531 245.894 387.443 245.669 L 419.355 245.445 419.355 226.597 L 419.355 207.750 387.443 207.525 L 355.531 207.301 355.531 122.498 L 355.531 37.695 336.683 37.695 L 317.836 37.695 317.836 122.508 " stroke="none" fill-rule="evenodd" fill="black"></path></svg>