<svg width="136mm" height="120mm" version="1.1" viewBox="0 0 600 529.4117647058824" xmlns="http://www.w3.org/2000/svg"><path d="M238.163 96.379 L 238.163 131.932 189.328 131.932 L 140.493 131.932 152.490 107.949 L 164.488 83.966 148.218 75.823 C 139.270 71.344,131.560 67.679,131.085 67.679 C 130.304 67.679,66.823 193.572,66.823 195.121 C 66.823 195.482,74.341 199.530,83.531 204.118 L 100.240 212.459 110.723 191.471 L 121.207 170.483 178.400 170.483 L 235.594 170.483 183.334 274.999 C 154.592 332.483,131.075 379.810,131.075 380.169 C 131.075 380.529,138.593 384.577,147.782 389.164 L 164.490 397.505 210.534 305.411 C 235.858 254.760,256.772 213.318,257.010 213.318 C 257.248 213.318,278.162 254.760,303.486 305.411 L 349.530 397.505 366.238 389.164 C 375.427 384.577,382.945 380.529,382.945 380.169 C 382.945 379.810,359.429 332.486,330.688 275.005 L 278.431 170.494 343.325 170.275 L 408.218 170.055 408.218 151.208 L 408.218 132.360 342.037 132.141 L 275.857 131.921 275.857 96.373 L 275.857 60.826 257.010 60.826 L 238.163 60.826 238.163 96.379 " stroke="none" fill-rule="evenodd" fill="black"></path></svg>