<svg width="136mm" height="120mm" version="1.1" viewBox="0 0 600 529.4117647058824" xmlns="http://www.w3.org/2000/svg"><path d="M105.572 79.459 L 105.802 98.092 220.390 98.520 L 334.978 98.949 301.568 132.351 L 268.158 165.752 244.204 153.800 C 231.030 147.226,220.084 142.026,219.879 142.244 C 219.675 142.462,215.800 150.060,211.270 159.129 L 203.032 175.618 259.672 203.940 C 290.823 219.518,316.418 232.144,316.549 232.000 C 316.881 231.634,333.256 198.827,333.256 198.529 C 333.256 198.395,326.697 195.024,318.680 191.038 L 304.105 183.791 365.583 122.308 L 427.060 60.826 266.201 60.826 L 105.341 60.826 105.572 79.459 M245.445 223.733 C 214.351 227.210,186.210 247.352,172.193 276.164 C 165.881 289.138,163.588 298.497,163.031 313.552 C 162.508 327.691,163.723 336.295,167.980 348.579 C 177.190 375.161,199.417 397.220,226.169 406.329 C 246.259 413.169,267.761 413.169,287.851 406.329 C 309.805 398.854,328.875 382.586,340.442 361.466 C 353.138 338.287,354.749 307.161,344.552 282.102 C 331.305 249.551,301.955 227.394,267.110 223.639 C 257.757 222.631,255.199 222.642,245.445 223.733 M272.728 262.739 C 290.376 267.954,305.782 282.865,311.063 299.845 C 313.505 307.696,314.093 320.808,312.371 328.973 C 310.160 339.447,305.045 348.686,296.941 356.844 C 285.104 368.759,273.602 373.579,257.010 373.579 C 240.483 373.579,228.986 368.773,217.090 356.891 C 209.005 348.815,203.879 339.546,201.652 328.973 C 199.907 320.687,200.487 307.604,202.943 299.845 C 209.057 280.532,228.308 264.020,247.885 261.294 C 254.672 260.350,267.083 261.072,272.728 262.739 " stroke="none" fill-rule="evenodd" fill="black"></path></svg>