<svg width="136mm" height="120mm" version="1.1" viewBox="0 0 600 529.4117647058824" xmlns="http://www.w3.org/2000/svg"><path d="M106.231 79.673 L 106.231 98.520 220.813 98.520 L 335.395 98.520 301.778 132.137 L 268.162 165.754 244.206 153.801 C 231.031 147.227,220.084 142.026,219.879 142.244 C 219.675 142.462,215.838 149.985,211.354 158.961 L 203.200 175.282 259.927 203.642 L 316.653 232.001 324.955 215.372 C 329.521 206.226,333.256 198.640,333.256 198.514 C 333.256 198.389,326.697 195.024,318.680 191.038 L 304.105 183.791 365.583 122.308 L 427.060 60.826 266.646 60.826 L 106.231 60.826 106.231 79.673 M244.121 223.684 C 213.728 227.615,186.012 247.837,172.167 276.184 C 161.934 297.135,159.916 322.930,166.801 344.801 C 176.643 376.070,200.802 399.486,232.332 408.316 C 243.074 411.324,263.061 412.119,274.411 409.988 C 305.573 404.138,332.195 382.555,344.018 353.554 C 349.703 339.610,350.783 333.727,350.734 316.979 C 350.694 303.512,350.456 301.118,348.398 293.440 C 335.999 247.186,291.673 217.534,244.121 223.684 M267.969 261.768 C 299.023 268.026,318.794 298.211,312.268 329.401 C 308.991 345.062,297.037 360.428,282.711 367.393 C 273.130 372.052,266.968 373.521,257.010 373.521 C 247.052 373.521,240.890 372.052,231.309 367.393 C 216.983 360.428,205.029 345.062,201.752 329.401 C 197.271 307.982,205.376 285.462,222.129 272.786 C 235.945 262.332,251.827 258.515,267.969 261.768 " stroke="none" fill-rule="evenodd" fill="black"></path></svg>