<svg width="136mm" height="120mm" version="1.1" viewBox="0 0 600 529.4117647058824" xmlns="http://www.w3.org/2000/svg"><path d="M106.231 79.673 L 106.231 98.520 220.813 98.520 L 335.395 98.520 301.778 132.137 L 268.162 165.754 244.206 153.801 C 231.031 147.227,220.084 142.026,219.879 142.244 C 219.675 142.462,215.800 150.060,211.270 159.129 L 203.032 175.618 259.672 203.940 C 290.823 219.518,316.418 232.144,316.549 232.000 C 316.881 231.634,333.256 198.827,333.256 198.529 C 333.256 198.395,326.697 195.024,318.680 191.038 L 304.105 183.791 365.583 122.308 L 427.060 60.826 266.646 60.826 L 106.231 60.826 106.231 79.673 M245.445 223.733 C 210.295 227.664,179.251 252.924,167.608 287.069 C 160.203 308.782,161.399 333.817,170.888 355.712 C 179.035 374.513,196.404 392.555,215.460 402.015 C 237.087 412.750,264.240 414.368,287.851 406.329 C 311.774 398.183,333.247 378.522,343.132 355.713 C 352.621 333.817,353.817 308.782,346.412 287.069 C 337.753 261.674,318.562 241.057,293.848 230.596 C 283.894 226.382,277.926 224.832,267.110 223.651 C 257.767 222.630,255.216 222.640,245.445 223.733 M272.726 262.746 C 292.461 268.606,308.574 285.971,312.288 305.380 C 316.095 325.281,310.861 342.832,296.941 356.844 C 285.104 368.759,273.602 373.579,257.010 373.579 C 240.418 373.579,228.916 368.759,217.079 356.844 C 203.245 342.918,197.916 325.220,201.680 305.703 C 202.347 302.246,203.679 297.594,204.640 295.367 C 212.241 277.748,229.956 263.790,247.885 261.294 C 254.684 260.348,267.093 261.073,272.726 262.746 " stroke="none" fill-rule="evenodd" fill="black"></path></svg>