<svg width="136mm" height="120mm" version="1.1" viewBox="0 0 600 529.4117647058824" xmlns="http://www.w3.org/2000/svg"><path d="M139.508 120.947 L 121.811 126.881 145.622 198.157 C 158.719 237.358,169.845 270.469,170.346 271.736 L 171.258 274.039 188.219 268.414 C 197.547 265.321,205.512 262.486,205.919 262.116 C 206.583 261.511,159.026 116.833,157.740 115.547 C 157.445 115.253,149.241 117.683,139.508 120.947 M328.064 233.607 C 306.312 298.863,288.848 352.556,289.254 352.927 C 289.660 353.297,297.628 356.131,306.959 359.226 C 318.658 363.106,324.045 364.536,324.311 363.833 C 324.524 363.272,342.391 309.728,364.016 244.847 L 403.335 126.882 385.474 120.921 L 367.613 114.960 328.064 233.607 " stroke="none" fill-rule="evenodd" fill="black"></path></svg>