<svg width="136mm" height="120mm" version="1.1" viewBox="0 0 600 529.4117647058824" xmlns="http://www.w3.org/2000/svg"><path d="M240.838 49.750 C 194.951 51.948,154.005 63.768,124.791 83.249 C 114.793 89.917,100.901 103.765,96.121 111.828 C 94.156 115.142,91.547 120.722,90.322 124.228 C 88.046 130.741,86.267 142.113,87.337 143.301 C 87.665 143.664,96.183 143.856,106.268 143.729 L 124.603 143.497 125.248 139.719 C 128.495 120.681,162.044 100.474,204.227 92.147 C 223.124 88.417,230.496 87.812,257.010 87.812 C 283.524 87.812,290.896 88.417,309.793 92.147 C 351.976 100.474,385.522 120.680,388.773 139.719 L 389.418 143.497 408.241 143.497 L 427.065 143.497 426.769 138.357 C 426.364 131.321,422.409 119.434,417.994 111.988 C 413.116 103.759,399.329 89.985,389.229 83.249 C 361.055 64.461,319.174 51.998,277.999 50.150 C 271.874 49.875,264.163 49.521,260.865 49.364 C 257.567 49.206,248.555 49.380,240.838 49.750 M313.552 158.918 L 313.552 189.331 289.136 189.331 L 264.720 189.331 264.720 208.178 L 264.720 227.025 289.136 227.025 L 313.552 227.025 313.552 264.720 L 313.552 302.415 289.136 302.415 L 264.720 302.415 264.720 321.262 L 264.720 340.110 289.124 340.110 L 313.527 340.110 313.754 366.453 L 313.981 392.797 332.614 393.028 L 351.247 393.259 351.247 366.684 L 351.247 340.110 383.373 340.110 L 415.500 340.110 415.500 321.262 L 415.500 302.415 383.373 302.415 L 351.247 302.415 351.247 264.720 L 351.247 227.025 383.373 227.025 L 415.500 227.025 415.500 208.189 L 415.500 189.352 383.587 189.127 L 351.675 188.902 351.450 158.704 L 351.225 128.505 332.389 128.505 L 313.552 128.505 313.552 158.918 M162.570 160.417 L 162.345 188.902 128.274 189.126 L 94.204 189.350 94.434 207.974 L 94.665 226.597 128.719 226.821 L 162.773 227.045 162.773 264.730 L 162.773 302.415 128.505 302.415 L 94.237 302.415 94.237 321.262 L 94.237 340.110 170.055 340.110 L 245.873 340.110 245.873 321.262 L 245.873 302.415 223.170 302.415 L 200.468 302.415 200.468 264.735 L 200.468 227.054 222.956 226.826 L 245.445 226.597 245.675 207.964 L 245.906 189.331 223.187 189.331 L 200.468 189.331 200.468 160.631 L 200.468 131.932 181.632 131.932 L 162.796 131.932 162.570 160.417 " stroke="none" fill-rule="evenodd" fill="black"></path></svg>