<svg width="136mm" height="120mm" version="1.1" viewBox="0 0 600 529.4117647058824" xmlns="http://www.w3.org/2000/svg"><path d="M241.560 49.724 C 170.210 53.092,112.085 79.533,93.446 117.100 C 90.068 123.908,87.383 133.795,87.383 139.427 L 87.383 143.959 105.919 143.728 L 124.455 143.497 125.624 138.930 C 130.937 118.159,166.077 98.416,211.177 90.862 C 227.157 88.186,237.727 87.383,257.010 87.383 C 276.293 87.383,286.863 88.186,302.843 90.862 C 348.878 98.572,384.355 118.974,388.778 140.281 L 389.446 143.497 408.041 143.728 L 426.637 143.959 426.637 139.427 C 426.637 133.725,423.962 123.961,420.517 117.086 C 412.018 100.126,395.419 85.131,372.236 73.471 C 350.793 62.685,326.712 55.713,297.674 51.883 C 289.202 50.766,282.309 50.290,261.293 49.375 C 257.760 49.221,248.880 49.378,241.560 49.724 M313.552 158.918 L 313.552 189.331 289.136 189.331 L 264.720 189.331 264.720 208.178 L 264.720 227.025 289.136 227.025 L 313.552 227.025 313.552 264.720 L 313.552 302.415 289.136 302.415 L 264.720 302.415 264.720 321.262 L 264.720 340.110 289.124 340.110 L 313.527 340.110 313.754 366.453 L 313.981 392.797 332.614 393.028 L 351.247 393.259 351.247 366.684 L 351.247 340.110 383.373 340.110 L 415.500 340.110 415.500 321.262 L 415.500 302.415 383.373 302.415 L 351.247 302.415 351.247 264.720 L 351.247 227.025 383.373 227.025 L 415.500 227.025 415.500 208.189 L 415.500 189.352 383.587 189.127 L 351.675 188.902 351.450 158.704 L 351.225 128.505 332.389 128.505 L 313.552 128.505 313.552 158.918 M162.570 160.417 L 162.345 188.902 128.274 189.126 L 94.204 189.350 94.434 207.974 L 94.665 226.597 128.719 226.821 L 162.773 227.045 162.773 264.730 L 162.773 302.415 128.488 302.415 L 94.204 302.415 94.434 321.048 L 94.665 339.682 170.269 339.900 L 245.873 340.119 245.873 321.267 L 245.873 302.415 223.170 302.415 L 200.468 302.415 200.468 264.735 L 200.468 227.054 222.956 226.826 L 245.445 226.597 245.675 207.964 L 245.906 189.331 223.187 189.331 L 200.468 189.331 200.468 160.631 L 200.468 131.932 181.632 131.932 L 162.796 131.932 162.570 160.417 " stroke="none" fill-rule="evenodd" fill="black"></path></svg>