<svg width="136mm" height="120mm" version="1.1" viewBox="0 0 600 529.4117647058824" xmlns="http://www.w3.org/2000/svg"><path d="M241.589 49.357 C 169.109 53.526,112.318 79.547,93.423 117.245 C 90.140 123.795,87.383 134.087,87.383 139.796 L 87.383 143.959 105.952 143.728 L 124.521 143.497 125.516 139.080 C 130.389 117.432,169.158 96.789,218.469 89.585 C 242.113 86.131,271.907 86.131,295.551 89.585 C 335.174 95.374,368.175 109.688,382.290 127.208 C 385.940 131.739,387.138 134.355,389.453 142.855 C 389.675 143.669,394.161 143.926,408.191 143.926 L 426.637 143.926 426.637 139.779 C 426.637 134.086,423.877 123.788,420.597 117.245 C 416.387 108.846,411.193 102.066,403.095 94.401 C 379.296 71.873,339.092 56.226,291.706 51.049 C 279.500 49.715,251.684 48.776,241.589 49.357 M313.552 158.489 L 313.552 188.474 289.136 188.474 L 264.720 188.474 264.720 207.750 L 264.720 227.025 289.136 227.025 L 313.552 227.025 313.552 264.720 L 313.552 302.415 289.136 302.415 L 264.720 302.415 264.720 321.262 L 264.720 340.110 289.136 340.110 L 313.552 340.110 313.552 366.239 L 313.552 392.369 332.400 392.369 L 351.247 392.369 351.247 366.239 L 351.247 340.110 383.373 340.110 L 415.500 340.110 415.500 321.262 L 415.500 302.415 383.373 302.415 L 351.247 302.415 351.247 264.720 L 351.247 227.025 383.373 227.025 L 415.500 227.025 415.500 207.750 L 415.500 188.474 383.373 188.474 L 351.247 188.474 351.247 158.489 L 351.247 128.505 332.400 128.505 L 313.552 128.505 313.552 158.489 M162.773 160.193 L 162.773 188.454 128.719 188.678 L 94.665 188.902 94.665 207.750 L 94.665 226.597 128.719 226.821 L 162.773 227.045 162.773 264.730 L 162.773 302.415 128.488 302.415 L 94.204 302.415 94.434 321.048 L 94.665 339.682 170.269 339.900 L 245.873 340.119 245.873 321.267 L 245.873 302.415 223.170 302.415 L 200.468 302.415 200.468 264.735 L 200.468 227.054 222.956 226.826 L 245.445 226.597 245.445 207.750 L 245.445 188.902 222.956 188.674 L 200.468 188.446 200.468 160.189 L 200.468 131.932 181.620 131.932 L 162.773 131.932 162.773 160.193 " stroke="none" fill-rule="evenodd" fill="black"></path></svg>