<svg width="136mm" height="120mm" version="1.1" viewBox="0 0 600 529.4117647058824" xmlns="http://www.w3.org/2000/svg"><path d="M167.061 123.789 L 77.543 213.309 90.810 226.597 L 104.077 239.885 180.543 163.422 L 257.010 86.959 333.477 163.422 L 409.943 239.885 423.210 226.597 L 436.477 213.309 346.959 123.789 C 297.724 74.552,257.247 34.268,257.010 34.268 C 256.773 34.268,216.296 74.552,167.061 123.789 M236.952 164.122 C 191.388 171.783,153.725 203.698,138.962 247.158 C 123.574 292.459,135.800 343.004,170.169 376.169 C 186.247 391.684,204.077 401.711,226.169 407.663 C 244.890 412.707,269.130 412.707,287.851 407.663 C 316.411 399.969,339.559 384.449,356.803 361.433 C 384.860 323.985,389.451 273.593,368.611 231.821 C 350.383 195.285,316.711 170.585,276.259 164.075 C 266.444 162.496,246.481 162.520,236.952 164.122 M238.163 235.164 L 238.163 268.147 205.180 268.147 C 187.039 268.147,172.197 267.995,172.197 267.809 C 172.197 267.623,173.010 264.828,174.005 261.598 C 175.940 255.312,180.689 245.148,184.438 239.269 C 191.437 228.294,205.538 215.732,217.480 209.833 C 222.454 207.376,235.715 202.340,237.520 202.223 C 237.873 202.200,238.163 217.024,238.163 235.164 M282.969 204.294 C 307.234 212.215,326.660 229.639,336.490 252.298 C 338.584 257.125,341.823 266.585,341.823 267.874 C 341.823 268.024,326.981 268.147,308.840 268.147 L 275.857 268.147 275.857 235.164 C 275.857 217.024,276.001 202.181,276.176 202.181 C 276.352 202.181,279.409 203.132,282.969 204.294 M238.163 338.841 L 238.163 371.840 235.807 371.278 C 234.511 370.969,230.431 369.627,226.740 368.297 C 201.665 359.260,182.045 338.402,173.941 312.167 C 172.982 309.060,172.197 306.366,172.197 306.180 C 172.197 305.994,187.039 305.842,205.180 305.842 L 238.163 305.842 238.163 338.841 M341.823 306.115 C 341.823 307.197,338.689 316.621,336.928 320.834 C 329.791 337.905,315.590 353.800,299.369 362.871 C 294.289 365.712,283.396 370.040,278.213 371.278 L 275.857 371.840 275.857 338.841 L 275.857 305.842 308.840 305.842 C 326.981 305.842,341.823 305.965,341.823 306.115 " stroke="none" fill-rule="evenodd" fill="black"></path></svg>