<svg width="136mm" height="120mm" version="1.1" viewBox="0 0 600 529.4117647058824" xmlns="http://www.w3.org/2000/svg"><path d="M167.061 123.789 L 77.543 213.309 90.810 226.597 L 104.077 239.885 180.543 163.422 L 257.010 86.959 333.477 163.422 L 409.943 239.885 423.210 226.597 L 436.477 213.309 346.959 123.789 C 297.724 74.552,257.247 34.268,257.010 34.268 C 256.773 34.268,216.296 74.552,167.061 123.789 M236.952 164.122 C 200.000 170.335,167.577 192.759,149.203 224.811 C 133.045 252.997,128.299 287.350,136.352 317.836 C 148.124 362.400,181.444 395.729,226.169 407.678 C 244.973 412.701,269.047 412.701,287.851 407.678 C 336.650 394.640,371.780 356.005,380.056 306.270 C 380.762 302.030,381.345 293.355,381.352 286.995 C 381.394 248.055,363.593 211.859,332.909 188.492 C 315.474 175.214,297.599 167.509,276.259 164.075 C 266.444 162.496,246.481 162.520,236.952 164.122 M238.163 235.164 L 238.163 268.147 205.163 268.147 L 172.164 268.147 172.727 265.791 C 173.672 261.836,177.022 253.265,179.851 247.563 C 185.593 235.989,195.652 224.306,206.600 216.494 C 213.198 211.786,226.227 205.429,233.022 203.603 C 235.614 202.907,237.831 202.302,237.948 202.259 C 238.066 202.216,238.163 217.024,238.163 235.164 M295.133 209.444 C 316.447 219.855,332.204 238.041,339.636 260.808 C 340.839 264.493,341.823 267.653,341.823 267.828 C 341.823 268.004,326.981 268.147,308.840 268.147 L 275.857 268.147 275.857 235.245 L 275.857 202.344 280.783 203.593 C 283.493 204.279,289.950 206.913,295.133 209.444 M238.163 338.841 L 238.163 371.840 235.807 371.275 C 212.230 365.614,190.236 347.698,179.233 325.191 C 176.496 319.591,172.197 307.976,172.197 306.180 C 172.197 305.994,187.039 305.842,205.180 305.842 L 238.163 305.842 238.163 338.841 M341.823 306.180 C 341.823 307.976,337.524 319.591,334.787 325.191 C 323.784 347.698,301.790 365.614,278.213 371.275 L 275.857 371.840 275.857 338.841 L 275.857 305.842 308.840 305.842 C 326.981 305.842,341.823 305.994,341.823 306.180 " stroke="none" fill-rule="evenodd" fill="black"></path></svg>