<svg width="136mm" height="120mm" version="1.1" viewBox="0 0 600 529.4117647058824" xmlns="http://www.w3.org/2000/svg"><path d="M167.061 123.789 L 77.543 213.309 90.810 226.597 L 104.077 239.885 180.543 163.422 L 257.010 86.959 333.477 163.422 L 409.943 239.885 423.210 226.597 L 436.477 213.309 346.959 123.789 C 297.724 74.552,257.247 34.268,257.010 34.268 C 256.773 34.268,216.296 74.552,167.061 123.789 M241.161 163.310 C 212.522 167.614,188.867 179.385,169.171 199.131 C 151.491 216.857,140.227 237.526,134.809 262.185 C 132.527 272.572,132.526 301.412,134.807 311.794 C 141.348 341.562,157.318 367.243,180.335 385.005 C 189.148 391.807,192.524 393.944,201.837 398.620 C 210.644 403.041,221.759 406.917,232.166 409.194 C 242.606 411.479,271.414 411.479,281.854 409.194 C 315.796 401.767,344.755 381.549,363.022 352.526 C 369.388 342.413,375.701 326.830,378.811 313.552 C 381.325 302.823,381.931 278.964,379.990 267.138 C 375.771 241.432,363.562 217.797,344.873 199.155 C 327.274 181.601,306.921 170.455,282.283 164.880 C 276.414 163.553,247.016 162.430,241.161 163.310 M238.163 235.164 L 238.163 268.147 205.163 268.147 L 172.164 268.147 172.715 265.791 C 174.202 259.438,179.239 247.812,183.403 241.124 C 191.703 227.792,207.265 214.008,220.709 208.080 C 224.765 206.292,236.225 202.297,237.520 202.220 C 237.873 202.198,238.163 217.024,238.163 235.164 M282.097 203.900 C 309.805 212.458,331.547 234.200,340.105 261.907 C 341.050 264.967,341.823 267.623,341.823 267.809 C 341.823 267.995,326.981 268.147,308.840 268.147 L 275.857 268.147 275.857 235.164 C 275.857 217.024,276.010 202.181,276.196 202.181 C 276.381 202.181,279.037 202.954,282.097 203.900 M238.163 338.841 L 238.163 371.840 235.807 371.275 C 224.212 368.491,209.497 360.663,199.343 351.877 C 187.099 341.282,176.456 323.816,172.727 308.198 L 172.164 305.842 205.163 305.842 L 238.163 305.842 238.163 338.841 M341.293 308.198 C 338.663 319.216,331.522 333.087,323.436 342.884 C 312.477 356.161,294.715 367.313,278.213 371.275 L 275.857 371.840 275.857 338.841 L 275.857 305.842 308.857 305.842 L 341.856 305.842 341.293 308.198 " stroke="none" fill-rule="evenodd" fill="black"></path></svg>