<svg width="136mm" height="120mm" version="1.1" viewBox="0 0 600 529.4117647058824" xmlns="http://www.w3.org/2000/svg"><path d="M140.074 101.084 L 107.946 165.335 124.214 173.478 C 133.161 177.956,140.779 181.620,141.143 181.620 C 141.507 181.620,148.155 168.900,155.918 153.353 L 170.030 125.086 262.566 124.868 L 355.102 124.650 355.333 106.017 L 355.564 87.383 272.447 87.383 C 226.733 87.383,189.331 87.134,189.331 86.829 C 189.331 86.524,193.067 79.017,197.634 70.146 C 202.202 61.275,205.768 53.857,205.559 53.662 C 205.350 53.467,197.760 49.601,188.691 45.070 L 172.202 36.832 140.074 101.084 M287.851 180.336 L 237.740 230.452 175.412 230.452 L 113.084 230.452 113.084 249.300 L 113.084 268.147 156.558 268.147 L 200.032 268.147 161.491 306.695 L 122.950 345.243 136.212 358.525 L 149.473 371.807 161.692 359.611 L 173.910 347.414 173.910 383.598 L 173.910 419.782 242.016 385.732 L 310.121 351.682 335.397 376.947 L 360.673 402.212 373.950 388.934 L 387.228 375.657 340.113 328.548 L 292.999 281.439 279.719 294.698 L 266.439 307.957 274.139 315.689 L 281.839 323.422 247.148 340.761 C 228.067 350.298,212.265 358.101,212.030 358.101 C 211.796 358.101,211.605 347.207,211.605 333.892 L 211.605 309.684 232.386 288.916 L 253.168 268.147 334.334 268.147 L 415.500 268.147 415.500 249.300 L 415.500 230.452 353.178 230.452 L 290.857 230.452 327.688 193.614 L 364.519 156.776 351.240 143.497 L 337.962 130.219 287.851 180.336 M181.057 151.421 L 164.645 159.675 177.846 186.065 L 191.046 212.455 207.751 204.116 C 216.938 199.529,224.455 195.480,224.455 195.118 C 224.455 193.830,198.737 143.070,198.109 143.118 C 197.757 143.145,190.084 146.881,181.057 151.421 " stroke="none" fill-rule="evenodd" fill="black"></path></svg>