<svg width="136mm" height="120mm" version="1.1" viewBox="0 0 600 529.4117647058824" xmlns="http://www.w3.org/2000/svg"><path d="M140.344 120.688 C 131.071 123.809,123.224 126.628,122.907 126.952 C 122.464 127.404,169.600 270.866,171.035 273.433 C 171.379 274.047,204.680 263.244,205.919 262.116 C 206.583 261.511,159.026 116.833,157.740 115.547 C 157.445 115.253,149.617 117.566,140.344 120.688 M333.945 215.969 L 300.279 316.979 180.552 316.979 L 60.826 316.979 60.826 335.826 L 60.826 354.674 260.865 354.674 L 460.905 354.674 460.905 335.826 L 460.905 316.979 400.507 316.979 C 367.289 316.979,340.110 316.881,340.110 316.760 C 340.110 316.640,354.336 273.869,371.723 221.712 L 403.336 126.882 385.473 120.921 L 367.610 114.960 333.945 215.969 " stroke="none" fill-rule="evenodd" fill="black"></path></svg>