<svg width="136mm" height="120mm" version="1.1" viewBox="0 0 600 529.4117647058824" xmlns="http://www.w3.org/2000/svg"><path d="M106.231 94.201 L 106.231 113.012 198.112 113.308 C 288.182 113.597,290.150 113.639,297.941 115.423 C 322.004 120.935,339.712 130.528,355.983 146.865 C 377.511 168.482,388.935 196.122,388.935 226.597 C 388.935 257.072,377.511 284.713,355.983 306.329 C 339.712 322.667,322.004 332.259,297.941 337.771 C 290.150 339.556,288.182 339.597,198.112 339.887 L 106.231 340.182 106.231 358.993 L 106.231 377.805 193.523 377.805 C 245.969 377.805,284.358 377.459,289.688 376.938 C 323.960 373.590,355.707 359.131,379.757 335.917 C 403.481 313.017,417.776 287.063,424.241 255.154 C 425.939 246.774,426.208 242.865,426.208 226.597 C 426.208 205.451,424.887 196.308,419.419 179.616 C 403.028 129.579,360.158 90.567,309.269 79.379 C 292.151 75.615,285.605 75.390,193.465 75.390 L 106.231 75.390 106.231 94.201 " stroke="none" fill-rule="evenodd" fill="black"></path></svg>