<svg width="136mm" height="120mm" version="1.1" viewBox="0 0 600 529.4117647058824" xmlns="http://www.w3.org/2000/svg"><path d="M105.997 75.909 C 105.654 76.252,105.374 84.756,105.374 94.808 L 105.374 113.084 189.635 113.084 C 278.808 113.084,290.081 113.463,303.698 116.918 C 345.409 127.498,377.770 161.319,386.951 203.924 C 389.155 214.156,389.155 239.039,386.951 249.271 C 376.404 298.218,336.475 334.190,287.118 339.208 C 281.541 339.775,246.135 340.110,191.793 340.110 L 105.341 340.110 105.572 358.743 L 105.802 377.376 197.469 377.376 C 295.566 377.376,295.792 377.368,312.695 372.996 C 340.059 365.919,363.566 352.465,383.141 332.677 C 402.363 313.247,415.795 289.674,422.333 263.902 C 428.333 240.248,428.333 212.946,422.333 189.292 C 408.923 136.429,366.420 93.917,313.552 80.491 C 295.656 75.947,298.259 76.057,199.163 75.659 C 148.264 75.454,106.339 75.567,105.997 75.909 " stroke="none" fill-rule="evenodd" fill="black"></path></svg>