<svg width="136mm" height="120mm" version="1.1" viewBox="0 0 600 529.4117647058824" xmlns="http://www.w3.org/2000/svg"><path d="M106.231 94.136 L 106.231 112.986 197.684 113.329 C 277.712 113.629,289.996 113.845,296.016 115.061 C 333.002 122.531,362.624 145.399,378.327 178.603 C 394.162 212.086,392.105 252.832,372.972 284.682 C 354.435 315.540,322.895 335.570,287.118 339.208 C 281.545 339.775,246.269 340.110,192.238 340.110 L 106.231 340.110 106.231 358.999 L 106.231 377.889 199.397 377.537 C 299.302 377.160,297.483 377.237,314.012 372.696 C 331.731 367.827,349.051 359.745,363.241 349.724 C 373.207 342.685,391.916 324.160,398.475 314.837 C 412.649 294.690,421.318 273.168,425.303 248.238 C 427.049 237.316,427.049 215.878,425.303 204.956 C 420.139 172.651,407.147 145.895,385.605 123.199 C 362.011 98.342,334.297 83.668,298.988 77.336 C 292.852 76.236,277.122 75.972,198.969 75.658 L 106.231 75.286 106.231 94.136 " stroke="none" fill-rule="evenodd" fill="black"></path></svg>