<svg width="136mm" height="120mm" version="1.1" viewBox="0 0 600 529.4117647058824" xmlns="http://www.w3.org/2000/svg"><path d="M305.842 142.430 L 305.842 247.164 253.155 273.504 L 200.468 299.843 200.468 206.464 L 200.468 113.084 181.620 113.084 L 162.773 113.084 162.773 215.885 L 162.773 318.686 139.642 330.258 C 126.920 336.622,116.511 342.025,116.511 342.263 C 116.511 343.625,132.943 375.235,133.651 375.235 C 134.121 375.235,173.056 355.958,220.174 332.399 L 305.842 289.563 305.842 352.531 L 305.842 415.500 325.118 415.500 L 344.393 415.500 344.393 342.883 L 344.393 270.267 370.951 257.010 C 385.558 249.719,397.509 243.648,397.509 243.519 C 397.509 243.226,381.126 210.416,380.800 210.055 C 380.668 209.910,372.422 213.863,362.477 218.841 L 344.393 227.890 344.393 132.792 L 344.393 37.695 325.118 37.695 L 305.842 37.695 305.842 142.430 " stroke="none" fill-rule="evenodd" fill="black"></path></svg>