<svg width="136mm" height="120mm" version="1.1" viewBox="0 0 600 529.4117647058824" xmlns="http://www.w3.org/2000/svg"><path d="M305.842 142.430 L 305.842 247.164 253.155 273.504 L 200.468 299.843 200.468 206.464 L 200.468 113.084 181.620 113.084 L 162.773 113.084 162.773 215.885 L 162.773 318.686 139.646 330.256 L 116.518 341.826 124.857 358.530 C 129.444 367.718,133.491 375.235,133.851 375.235 C 134.211 375.235,173.056 355.958,220.174 332.399 L 305.842 289.563 305.842 352.531 L 305.842 415.500 324.689 415.500 L 343.537 415.500 343.537 343.111 L 343.537 270.723 370.309 257.346 C 385.033 249.989,397.200 243.861,397.345 243.728 C 397.568 243.525,381.504 210.833,380.800 210.055 C 380.668 209.910,372.426 213.862,362.484 218.837 C 352.543 223.812,344.213 227.882,343.973 227.882 C 343.733 227.882,343.537 185.090,343.537 132.788 L 343.537 37.695 324.689 37.695 L 305.842 37.695 305.842 142.430 " stroke="none" fill-rule="evenodd" fill="black"></path></svg>