<svg width="136mm" height="120mm" version="1.1" viewBox="0 0 600 529.4117647058824" xmlns="http://www.w3.org/2000/svg"><path d="M162.452 78.067 C 162.157 79.539,161.914 85.611,161.910 91.560 C 161.904 102.756,160.043 128.860,158.238 143.069 L 157.204 151.208 99.806 180.073 C 68.236 195.950,42.021 209.098,41.550 209.292 C 40.761 209.617,56.217 242.112,57.569 242.970 C 57.899 243.179,78.233 233.316,102.757 221.052 C 127.281 208.788,147.513 198.754,147.717 198.754 C 148.360 198.754,143.234 216.997,139.186 229.112 C 126.736 266.374,109.825 296.712,90.099 317.175 C 81.014 326.600,73.658 332.254,64.681 336.715 C 57.324 340.370,46.325 343.537,40.985 343.537 L 37.695 343.537 37.695 362.513 L 37.695 381.490 45.619 380.949 C 109.479 376.593,164.994 302.482,188.835 189.759 L 191.553 176.909 219.135 162.980 L 246.716 149.051 238.380 132.353 C 233.796 123.169,229.747 115.654,229.383 115.654 C 229.019 115.654,221.744 119.147,213.217 123.415 L 197.714 131.176 198.266 125.343 C 199.157 115.937,200.443 91.009,200.456 82.886 L 200.468 75.390 181.727 75.390 L 162.987 75.390 162.452 78.067 M313.564 82.886 C 313.577 91.009,314.863 115.937,315.754 125.343 L 316.306 131.176 300.803 123.415 C 292.276 119.147,285.001 115.654,284.637 115.654 C 284.273 115.654,280.224 123.169,275.640 132.353 L 267.304 149.051 294.885 162.980 L 322.467 176.909 325.185 189.759 C 349.026 302.482,404.541 376.593,468.401 380.949 L 476.325 381.490 476.325 362.513 L 476.325 343.537 473.035 343.537 C 467.695 343.537,456.696 340.370,449.339 336.715 C 419.967 322.121,392.258 281.824,374.326 227.624 C 370.578 216.296,365.703 198.754,366.303 198.754 C 366.507 198.754,386.739 208.788,411.263 221.052 C 435.787 233.316,456.121 243.179,456.451 242.970 C 457.803 242.112,473.259 209.617,472.470 209.292 C 471.999 209.098,445.784 195.950,414.214 180.073 L 356.816 151.208 355.782 143.069 C 353.977 128.860,352.116 102.756,352.110 91.560 C 352.106 85.611,351.863 79.539,351.568 78.067 L 351.033 75.390 332.293 75.390 L 313.552 75.390 313.564 82.886 " stroke="none" fill-rule="evenodd" fill="black"></path></svg>