<svg width="136mm" height="120mm" version="1.1" viewBox="0 0 600 529.4117647058824" xmlns="http://www.w3.org/2000/svg"><path d="M162.471 79.887 C 162.174 82.361,161.925 88.626,161.918 93.809 C 161.903 104.135,159.894 131.328,158.248 143.497 L 157.204 151.208 99.806 180.073 C 68.236 195.950,42.021 209.098,41.550 209.292 C 40.761 209.617,56.217 242.112,57.569 242.970 C 57.899 243.179,78.277 233.294,102.854 221.003 C 127.432 208.713,147.678 198.794,147.845 198.962 C 148.431 199.547,139.764 228.404,135.943 238.591 C 125.231 267.148,112.271 291.173,98.511 307.984 C 91.910 316.048,80.397 326.979,73.749 331.494 C 63.282 338.602,49.962 343.480,40.907 343.522 L 37.695 343.537 37.695 362.513 L 37.695 381.490 45.619 380.938 C 84.044 378.263,121.333 349.231,149.226 300.273 C 166.232 270.425,180.824 229.552,189.198 188.314 L 191.513 176.909 219.115 162.980 L 246.716 149.051 238.380 132.353 C 233.796 123.169,229.747 115.654,229.383 115.654 C 229.019 115.654,221.738 119.150,213.203 123.422 L 197.686 131.190 198.242 125.778 C 199.130 117.146,200.443 91.960,200.456 83.314 L 200.468 75.390 181.740 75.390 L 163.012 75.390 162.471 79.887 M313.564 83.314 C 313.577 91.960,314.890 117.146,315.778 125.778 L 316.334 131.190 300.817 123.422 C 292.282 119.150,285.001 115.654,284.637 115.654 C 284.273 115.654,280.224 123.169,275.640 132.353 L 267.304 149.051 294.905 162.980 L 322.507 176.909 324.839 188.396 C 333.209 229.612,347.779 270.409,364.794 300.273 C 392.708 349.268,429.947 378.261,468.401 380.938 L 476.325 381.490 476.325 362.513 L 476.325 343.537 473.113 343.522 C 464.058 343.480,450.738 338.602,440.271 331.494 C 433.623 326.979,422.110 316.048,415.509 307.984 C 401.502 290.871,387.549 264.790,377.240 236.449 C 373.204 225.352,365.570 199.567,366.149 198.987 C 366.331 198.806,386.588 208.713,411.166 221.003 C 435.743 233.294,456.121 243.179,456.451 242.970 C 457.803 242.112,473.259 209.617,472.470 209.292 C 471.999 209.098,445.784 195.950,414.214 180.073 L 356.816 151.208 355.767 143.497 C 354.114 131.342,352.105 104.142,352.096 93.809 C 352.092 88.626,351.846 82.361,351.549 79.887 L 351.008 75.390 332.280 75.390 L 313.552 75.390 313.564 83.314 " stroke="none" fill-rule="evenodd" fill="black"></path></svg>