<svg width="136mm" height="120mm" version="1.1" viewBox="0 0 600 529.4117647058824" xmlns="http://www.w3.org/2000/svg"><path d="M162.426 90.168 C 161.693 108.723,160.579 123.830,158.806 139.271 L 157.423 151.323 99.272 180.388 C 67.289 196.374,41.122 209.556,41.122 209.681 C 41.122 209.970,57.508 242.783,57.829 243.137 C 57.960 243.282,78.199 233.333,102.804 221.029 C 127.409 208.724,147.691 198.807,147.875 198.991 C 148.469 199.585,139.903 227.999,135.936 238.591 C 125.255 267.115,112.222 291.268,98.495 307.984 C 91.677 316.286,80.304 327.108,73.781 331.502 C 63.192 338.635,49.940 343.480,40.907 343.522 L 37.695 343.537 37.695 362.384 L 37.695 381.231 42.192 381.230 C 57.365 381.226,76.950 374.545,93.243 363.815 C 137.108 334.925,171.299 272.669,188.835 189.759 L 191.553 176.909 219.135 162.980 L 246.716 149.051 238.380 132.353 C 233.796 123.169,229.747 115.654,229.383 115.654 C 229.019 115.654,221.738 119.150,213.203 123.422 L 197.686 131.190 198.251 124.922 C 199.103 115.465,200.433 89.545,200.451 82.029 L 200.468 75.390 181.739 75.390 L 163.010 75.390 162.426 90.168 M313.569 82.029 C 313.587 89.545,314.917 115.465,315.769 124.922 L 316.334 131.190 300.817 123.422 C 292.282 119.150,285.001 115.654,284.637 115.654 C 284.273 115.654,280.224 123.169,275.640 132.353 L 267.304 149.051 294.883 162.980 L 322.463 176.909 325.670 191.901 C 344.623 280.529,383.058 345.055,431.951 370.331 C 444.230 376.679,460.834 381.231,471.708 381.231 L 476.325 381.231 476.325 362.384 L 476.325 343.537 473.113 343.522 C 464.058 343.480,450.738 338.602,440.271 331.494 C 433.601 326.964,422.105 316.042,415.449 307.911 C 397.340 285.789,380.707 251.215,369.665 212.744 C 367.546 205.363,365.963 199.174,366.146 198.990 C 366.329 198.807,386.611 208.724,411.216 221.029 C 435.821 233.333,456.060 243.282,456.191 243.137 C 456.512 242.783,472.898 209.970,472.898 209.681 C 472.898 209.556,446.718 196.368,414.720 180.374 L 356.542 151.295 356.017 146.968 C 354.088 131.060,352.854 115.844,351.966 97.021 L 350.946 75.390 332.249 75.390 L 313.552 75.390 313.569 82.029 " stroke="none" fill-rule="evenodd" fill="black"></path></svg>