<svg width="136mm" height="120mm" version="1.1" viewBox="0 0 600 529.4117647058824" xmlns="http://www.w3.org/2000/svg"><path d="M158.489 90.602 L 158.489 143.509 107.173 169.155 L 55.857 194.802 64.114 211.342 C 68.655 220.439,72.666 227.882,73.027 227.882 C 73.388 227.882,92.570 218.437,115.654 206.893 C 138.739 195.349,157.820 185.904,158.058 185.904 C 158.295 185.904,158.489 201.809,158.489 221.248 L 158.489 256.593 107.168 282.243 L 55.846 307.892 64.337 324.857 L 72.827 341.823 117.466 319.500 C 142.017 307.223,162.221 297.296,162.362 297.440 C 162.504 297.585,163.256 300.209,164.033 303.272 C 170.223 327.666,184.369 352.144,203.107 370.882 C 226.419 394.194,254.809 408.531,288.280 413.897 C 298.232 415.492,323.185 415.284,333.788 413.517 C 347.792 411.184,365.084 405.625,376.989 399.630 C 416.452 379.757,445.278 344.054,456.169 301.558 C 460.056 286.392,460.905 275.793,460.905 242.402 L 460.905 211.605 442.146 211.605 L 423.388 211.605 422.938 245.230 C 422.691 263.724,422.075 281.019,421.571 283.662 C 413.104 328.020,381.155 362.656,338.348 373.882 C 284.822 387.919,228.744 360.754,206.392 309.959 C 202.881 301.982,199.290 290.190,198.302 283.400 L 197.717 279.377 248.353 254.057 C 276.202 240.130,298.988 228.347,298.988 227.872 C 298.988 227.397,295.324 219.688,290.846 210.740 L 282.703 194.472 239.872 215.890 L 197.041 237.309 197.041 201.756 L 197.041 166.203 247.800 140.834 C 275.718 126.882,298.739 115.297,298.958 115.091 C 299.176 114.885,295.611 107.216,291.035 98.049 L 282.714 81.382 239.878 102.803 L 197.041 124.225 197.041 80.960 L 197.041 37.695 177.765 37.695 L 158.489 37.695 158.489 90.602 " stroke="none" fill-rule="evenodd" fill="black"></path></svg>