<svg width="136mm" height="120mm" version="1.1" viewBox="0 0 600 529.4117647058824" xmlns="http://www.w3.org/2000/svg"><path d="M158.489 90.599 L 158.489 143.504 107.516 168.986 C 79.480 183.002,56.542 194.852,56.542 195.321 C 56.542 196.725,72.316 227.882,73.026 227.882 C 73.388 227.882,92.570 218.437,115.654 206.893 C 138.739 195.349,157.820 185.904,158.058 185.904 C 158.295 185.904,158.489 201.808,158.489 221.246 L 158.489 256.588 107.516 282.071 C 79.480 296.086,56.542 307.943,56.542 308.420 C 56.542 308.896,60.206 316.607,64.685 325.554 L 72.828 341.822 117.466 319.500 C 142.017 307.223,162.189 297.296,162.293 297.440 C 162.397 297.585,163.185 300.402,164.045 303.700 C 174.630 344.324,204.687 380.911,242.874 399.658 C 278.904 417.345,320.464 420.124,358.570 407.395 C 368.808 403.975,388.331 393.976,397.509 387.452 C 407.950 380.029,425.434 362.545,432.857 352.104 C 439.753 342.402,449.578 323.070,453.208 312.060 C 459.592 292.697,460.889 280.921,460.898 242.232 L 460.905 211.605 442.133 211.605 L 423.361 211.605 422.962 245.659 C 422.646 272.631,422.275 281.044,421.179 286.117 C 411.092 332.797,376.863 366.516,330.150 375.792 C 319.939 377.820,299.687 377.818,289.333 375.789 C 250.848 368.245,219.061 342.155,204.725 306.343 C 201.835 299.124,197.898 284.691,197.898 281.318 C 197.898 279.490,202.947 276.762,248.443 254.012 C 276.243 240.110,298.988 228.546,298.988 228.315 C 298.988 228.083,295.252 220.410,290.686 211.263 L 282.383 194.631 239.715 215.969 C 216.248 227.704,196.849 237.306,196.607 237.306 C 196.364 237.306,196.266 221.403,196.389 201.967 L 196.613 166.628 247.158 141.189 C 274.958 127.197,298.089 115.590,298.560 115.394 C 299.031 115.199,295.659 107.466,291.065 98.210 L 282.714 81.382 239.881 102.802 C 216.323 114.583,196.853 124.222,196.616 124.222 C 196.379 124.222,196.184 104.753,196.184 80.958 L 196.184 37.695 177.337 37.695 L 158.489 37.695 158.489 90.599 " stroke="none" fill-rule="evenodd" fill="black"></path></svg>