<svg width="136mm" height="120mm" version="1.1" viewBox="0 0 600 529.4117647058824" xmlns="http://www.w3.org/2000/svg"><path d="M158.489 90.602 L 158.489 143.509 107.173 169.155 L 55.857 194.802 64.114 211.342 C 68.655 220.439,72.666 227.882,73.027 227.882 C 73.388 227.882,92.570 218.437,115.654 206.893 C 138.739 195.349,157.820 185.904,158.058 185.904 C 158.295 185.904,158.489 201.809,158.489 221.248 L 158.489 256.593 107.168 282.243 L 55.846 307.892 64.337 324.857 L 72.827 341.823 117.369 319.549 C 141.866 307.298,162.061 297.275,162.246 297.275 C 162.431 297.275,162.848 298.693,163.173 300.426 C 164.181 305.799,168.774 318.724,172.860 327.688 C 184.930 354.166,205.577 377.317,231.409 393.339 C 247.355 403.229,267.773 410.609,288.280 413.897 C 298.202 415.487,323.191 415.284,333.685 413.528 C 393.191 403.569,441.161 360.015,456.246 302.251 C 460.185 287.168,460.873 278.596,460.889 244.374 L 460.905 211.605 442.057 211.605 L 423.210 211.605 423.207 240.947 C 423.204 279.925,422.007 289.202,414.662 307.185 C 408.452 322.390,401.124 333.207,388.757 345.425 C 362.839 371.033,324.810 382.460,288.459 375.565 C 257.195 369.634,229.171 349.810,212.232 321.641 C 206.065 311.387,199.755 294.194,198.351 283.821 L 197.748 279.362 248.368 254.049 C 276.209 240.127,298.988 228.347,298.988 227.872 C 298.988 227.397,295.324 219.688,290.846 210.740 L 282.703 194.472 239.872 215.890 L 197.041 237.309 197.041 201.756 L 197.041 166.203 247.800 140.834 C 275.718 126.882,298.739 115.297,298.958 115.091 C 299.176 114.885,295.611 107.216,291.035 98.049 L 282.714 81.382 239.878 102.803 L 197.041 124.225 197.041 80.960 L 197.041 37.695 177.765 37.695 L 158.489 37.695 158.489 90.602 " stroke="none" fill-rule="evenodd" fill="black"></path></svg>