<svg width="136mm" height="120mm" version="1.1" viewBox="0 0 600 529.4117647058824" xmlns="http://www.w3.org/2000/svg"><path d="M222.427 35.569 C 213.585 37.370,208.578 39.181,199.611 43.824 C 178.158 54.931,163.366 73.974,157.125 98.520 C 154.719 107.984,154.883 127.205,157.451 136.741 C 161.770 152.778,169.407 165.964,180.491 176.527 C 191.803 187.305,202.922 193.529,218.357 197.722 C 226.517 199.939,226.892 199.961,257.010 199.961 C 287.128 199.961,287.503 199.939,295.663 197.722 C 326.553 189.330,348.258 167.598,356.569 136.741 C 359.137 127.205,359.301 107.984,356.895 98.520 C 350.493 73.342,335.606 54.542,313.124 43.244 C 296.995 35.139,295.037 34.824,259.152 34.581 C 235.435 34.420,226.952 34.649,222.427 35.569 M238.163 85.242 L 238.163 98.520 217.602 98.520 C 206.293 98.520,197.041 98.300,197.041 98.031 C 197.041 96.397,202.250 89.165,206.455 84.960 C 214.098 77.318,225.279 72.162,234.522 72.019 L 238.163 71.963 238.163 85.242 M285.378 72.818 C 292.685 74.173,301.664 79.059,307.413 84.808 C 311.741 89.136,316.979 96.376,316.979 98.031 C 316.979 98.300,307.727 98.520,296.418 98.520 L 275.857 98.520 275.857 85.242 L 275.857 71.963 278.311 71.963 C 279.660 71.963,282.840 72.348,285.378 72.818 M238.163 149.547 L 238.163 162.878 234.093 162.339 C 218.853 160.321,205.717 151.847,198.827 139.589 L 196.931 136.215 217.547 136.215 L 238.163 136.215 238.163 149.547 M315.193 139.589 C 308.303 151.847,295.167 160.321,279.927 162.339 L 275.857 162.878 275.857 149.547 L 275.857 136.215 296.473 136.215 L 317.089 136.215 315.193 139.589 M67.877 226.811 L 68.108 245.445 153.135 245.663 L 238.163 245.881 238.163 309.546 L 238.163 373.211 231.952 372.476 C 211.013 369.996,188.832 362.613,176.202 353.920 C 171.650 350.786,164.716 343.396,163.617 340.506 C 163.108 339.165,162.773 322.862,162.773 299.361 L 162.773 260.437 143.889 260.437 L 125.005 260.437 125.256 303.914 L 125.507 347.392 127.773 352.771 C 131.547 361.728,135.463 367.581,142.327 374.522 C 160.620 393.022,193.739 406.385,231.309 410.425 C 236.256 410.957,247.822 411.392,257.010 411.392 C 283.256 411.392,304.043 408.382,324.261 401.654 C 354.193 391.692,374.442 376.780,384.064 357.611 C 388.778 348.221,388.942 346.346,388.942 301.649 L 388.942 260.437 370.094 260.437 L 351.247 260.437 351.247 299.501 C 351.247 344.326,351.733 341.338,343.135 349.381 C 331.482 360.282,307.068 369.515,282.068 372.476 L 275.857 373.211 275.857 309.546 L 275.857 245.881 360.885 245.663 L 445.912 245.445 446.143 226.811 L 446.374 208.178 257.010 208.178 L 67.646 208.178 67.877 226.811 " stroke="none" fill-rule="evenodd" fill="black"></path></svg>