<svg width="136mm" height="120mm" version="1.1" viewBox="0 0 600 529.4117647058824" xmlns="http://www.w3.org/2000/svg"><path d="M221.029 35.935 C 211.667 37.996,207.714 39.460,199.010 44.091 C 162.226 63.658,145.966 106.454,160.283 146.019 C 163.835 155.835,170.397 166.115,178.502 174.557 C 189.513 186.026,201.929 193.276,218.037 197.641 C 226.589 199.958,226.626 199.961,257.010 199.961 C 287.394 199.961,287.431 199.958,295.983 197.641 C 312.014 193.296,324.600 185.929,335.645 174.424 C 351.721 157.680,359.717 136.730,358.733 113.941 C 358.194 101.483,355.824 92.073,350.425 80.958 C 341.642 62.873,329.456 50.881,310.802 41.964 C 296.656 35.202,293.993 34.820,259.152 34.561 C 231.639 34.356,227.525 34.504,221.029 35.935 M238.163 85.242 L 238.163 98.520 217.602 98.520 C 206.293 98.520,197.041 98.210,197.041 97.832 C 197.041 96.152,202.726 88.425,206.944 84.372 C 214.469 77.143,225.598 72.157,234.522 72.019 L 238.163 71.963 238.163 85.242 M287.387 73.275 C 294.463 75.118,301.674 79.182,307.076 84.372 C 311.294 88.425,316.979 96.152,316.979 97.832 C 316.979 98.210,307.727 98.520,296.418 98.520 L 275.857 98.520 275.857 85.242 L 275.857 71.963 279.104 71.963 C 280.890 71.963,284.617 72.553,287.387 73.275 M238.163 149.547 L 238.163 162.878 234.093 162.339 C 218.900 160.328,205.624 151.811,198.914 139.772 L 196.931 136.215 217.547 136.215 L 238.163 136.215 238.163 149.547 M315.106 139.772 C 308.396 151.811,295.120 160.328,279.927 162.339 L 275.857 162.878 275.857 149.547 L 275.857 136.215 296.473 136.215 L 317.089 136.215 315.106 139.772 M67.877 226.811 L 68.108 245.445 153.135 245.663 L 238.163 245.881 238.163 309.546 L 238.163 373.211 231.952 372.476 C 205.225 369.310,180.188 359.444,168.523 347.480 C 162.617 341.423,162.773 342.724,162.773 299.428 L 162.773 260.404 143.711 260.635 L 124.650 260.865 124.671 302.415 L 124.692 343.965 127.090 350.810 C 130.411 360.292,134.601 366.832,142.298 374.550 C 157.432 389.724,182.419 401.590,211.188 407.264 C 227.151 410.412,238.033 411.392,257.010 411.392 C 266.198 411.392,277.764 410.957,282.711 410.425 C 320.289 406.384,353.203 393.118,371.722 374.550 C 379.419 366.832,383.609 360.292,386.930 350.810 L 389.328 343.965 389.349 302.415 L 389.370 260.865 370.333 260.635 L 351.296 260.404 351.057 300.558 L 350.819 340.713 347.593 344.852 C 337.404 357.928,311.033 369.045,282.068 372.476 L 275.857 373.211 275.857 309.546 L 275.857 245.881 360.885 245.663 L 445.912 245.445 446.143 226.811 L 446.374 208.178 257.010 208.178 L 67.646 208.178 67.877 226.811 " stroke="none" fill-rule="evenodd" fill="black"></path></svg>