<svg width="136mm" height="120mm" version="1.1" viewBox="0 0 600 529.4117647058824" xmlns="http://www.w3.org/2000/svg"><path d="M230.452 44.419 C 230.452 48.118,230.203 54.093,229.898 57.698 L 229.344 64.252 182.780 64.252 L 136.215 64.252 136.215 83.100 L 136.215 101.947 180.861 101.947 L 225.507 101.947 224.923 106.017 C 222.712 121.440,212.417 161.060,210.620 161.060 C 210.213 161.060,197.935 155.084,183.334 147.781 C 168.733 140.477,156.491 134.502,156.129 134.502 C 155.767 134.502,151.718 142.019,147.131 151.207 L 138.792 167.911 167.060 182.050 C 182.607 189.827,195.328 196.521,195.328 196.926 C 195.328 197.331,192.178 202.438,188.328 208.275 C 180.114 220.729,167.930 233.381,159.322 238.393 C 153.815 241.600,145.581 244.525,139.428 245.462 L 136.215 245.951 136.215 264.802 L 136.215 283.653 141.570 283.104 C 150.079 282.231,160.711 279.509,168.079 276.316 C 188.313 267.548,208.997 247.646,224.484 222.044 L 229.725 213.381 297.384 247.212 C 334.596 265.820,365.312 280.873,365.641 280.664 C 366.578 280.070,382.493 247.703,382.052 247.288 C 381.837 247.084,351.011 231.605,313.552 212.890 C 276.093 194.175,245.381 178.808,245.302 178.742 C 245.224 178.676,246.875 173.417,248.971 167.056 C 253.633 152.911,258.745 132.234,261.672 115.689 C 262.877 108.876,263.864 102.997,263.864 102.624 C 263.864 102.252,290.464 101.947,322.976 101.947 L 382.088 101.947 382.088 83.100 L 382.088 64.252 324.903 64.254 L 267.719 64.255 267.975 50.975 L 268.231 37.695 249.342 37.695 L 230.452 37.695 230.452 44.419 M143.926 310.125 L 143.926 328.973 257.010 328.973 L 370.094 328.973 370.094 310.125 L 370.094 291.278 257.010 291.278 L 143.926 291.278 143.926 310.125 M86.527 377.805 L 86.527 396.652 257.010 396.652 L 427.493 396.652 427.493 377.805 L 427.493 358.957 257.010 358.957 L 86.527 358.957 86.527 377.805 " stroke="none" fill-rule="evenodd" fill="black"></path></svg>