<svg width="136mm" height="120mm" version="1.1" viewBox="0 0 600 529.4117647058824" xmlns="http://www.w3.org/2000/svg"><path d="M230.443 47.761 C 230.438 53.297,230.194 59.273,229.902 61.040 L 229.371 64.252 182.793 64.252 L 136.215 64.252 136.215 83.100 L 136.215 101.947 180.764 101.947 C 224.354 101.947,225.312 101.983,225.312 103.617 C 225.312 111.769,212.690 161.060,210.603 161.060 C 210.206 161.060,197.913 155.073,183.286 147.757 C 168.658 140.440,156.421 134.625,156.091 134.834 C 155.154 135.429,139.237 167.796,139.678 168.211 C 139.894 168.414,152.503 174.792,167.699 182.385 C 182.895 189.977,195.328 196.429,195.328 196.721 C 195.328 198.000,186.946 210.912,182.051 217.173 C 169.231 233.573,154.867 243.361,141.356 244.906 L 136.644 245.445 136.413 264.532 L 136.182 283.619 141.982 283.053 C 150.946 282.178,163.130 278.816,170.802 275.101 C 190.260 265.676,209.749 246.402,224.534 221.962 L 229.725 213.381 297.384 247.212 C 334.596 265.820,365.312 280.873,365.641 280.664 C 366.578 280.070,382.493 247.703,382.052 247.288 C 381.837 247.084,351.011 231.605,313.552 212.890 C 276.093 194.175,245.372 178.800,245.284 178.724 C 245.195 178.648,246.253 175.393,247.634 171.491 C 253.025 156.255,259.725 128.680,263.021 108.158 L 264.018 101.947 322.625 101.947 L 381.231 101.947 381.231 83.100 L 381.231 64.252 324.475 64.253 L 267.719 64.254 268.010 50.974 L 268.301 37.695 249.377 37.695 L 230.452 37.695 230.443 47.761 M143.926 309.697 L 143.926 328.973 257.010 328.973 L 370.094 328.973 370.094 309.697 L 370.094 290.421 257.010 290.421 L 143.926 290.421 143.926 309.697 M87.383 377.805 L 87.383 396.652 257.010 396.652 L 426.637 396.652 426.637 377.805 L 426.637 358.957 257.010 358.957 L 87.383 358.957 87.383 377.805 " stroke="none" fill-rule="evenodd" fill="black"></path></svg>