<svg width="136mm" height="120mm" version="1.1" viewBox="0 0 600 529.4117647058824" xmlns="http://www.w3.org/2000/svg"><path d="M230.452 44.419 C 230.452 48.118,230.203 54.093,229.898 57.698 L 229.344 64.252 182.780 64.252 L 136.215 64.252 136.215 83.100 L 136.215 101.947 180.764 101.947 C 216.869 101.947,225.312 102.160,225.312 103.067 C 225.312 111.085,212.651 161.060,210.620 161.060 C 210.213 161.060,197.913 155.073,183.286 147.757 C 168.658 140.440,156.421 134.625,156.091 134.834 C 155.154 135.429,139.237 167.796,139.678 168.211 C 139.894 168.414,152.503 174.792,167.699 182.385 C 182.895 189.977,195.328 196.429,195.328 196.721 C 195.328 198.000,186.946 210.912,182.051 217.173 C 170.371 232.115,155.822 242.679,144.318 244.573 C 142.453 244.880,139.867 245.329,138.571 245.570 L 136.215 246.009 136.215 264.831 L 136.215 283.653 141.570 283.085 C 165.161 280.586,183.128 271.184,202.204 251.357 C 210.941 242.278,218.065 232.840,225.243 220.842 L 229.710 213.374 297.377 247.209 C 334.593 265.818,365.312 280.873,365.641 280.664 C 366.578 280.070,382.493 247.703,382.052 247.288 C 381.837 247.084,351.011 231.605,313.552 212.890 C 276.093 194.175,245.381 178.808,245.302 178.742 C 245.224 178.676,246.875 173.417,248.971 167.056 C 253.633 152.911,258.745 132.234,261.672 115.689 C 262.877 108.876,263.864 102.997,263.864 102.624 C 263.864 102.252,290.464 101.947,322.976 101.947 L 382.088 101.947 382.088 83.100 L 382.088 64.252 324.903 64.254 L 267.719 64.255 267.975 50.975 L 268.231 37.695 249.342 37.695 L 230.452 37.695 230.452 44.419 M143.926 310.125 L 143.926 328.973 257.010 328.973 L 370.094 328.973 370.094 310.125 L 370.094 291.278 257.010 291.278 L 143.926 291.278 143.926 310.125 M86.527 377.805 L 86.527 396.652 257.010 396.652 L 427.493 396.652 427.493 377.805 L 427.493 358.957 257.010 358.957 L 86.527 358.957 86.527 377.805 " stroke="none" fill-rule="evenodd" fill="black"></path></svg>