<svg width="136mm" height="120mm" version="1.1" viewBox="0 0 600 529.4117647058824" xmlns="http://www.w3.org/2000/svg"><path d="M117.368 90.810 L 117.368 109.658 175.624 109.658 L 233.880 109.658 165.296 246.824 C 127.574 322.266,96.829 384.098,96.973 384.229 C 97.751 384.933,130.442 400.994,130.645 400.772 C 130.778 400.626,152.133 358.004,178.101 306.056 L 225.314 211.605 271.147 211.605 L 316.981 211.605 272.003 301.557 C 247.265 351.030,227.025 391.702,227.025 391.939 C 227.025 392.175,272.901 392.369,328.972 392.369 L 430.918 392.369 407.190 344.903 L 383.461 297.437 366.496 305.928 L 349.531 314.418 359.384 334.111 C 364.804 344.941,369.238 353.999,369.238 354.238 C 369.238 354.478,350.925 354.674,328.544 354.674 L 287.850 354.674 332.827 264.722 C 357.565 215.248,377.805 174.577,377.805 174.340 C 377.805 174.104,347.735 173.910,310.984 173.910 L 244.162 173.910 260.219 141.784 L 276.275 109.658 344.174 109.658 L 412.073 109.658 412.073 90.810 L 412.073 71.963 264.720 71.963 L 117.368 71.963 117.368 90.810 " stroke="none" fill-rule="evenodd" fill="black"></path></svg>