<svg width="136mm" height="120mm" version="1.1" viewBox="0 0 600 529.4117647058824" xmlns="http://www.w3.org/2000/svg"><path d="M117.368 90.810 L 117.368 109.658 175.624 109.658 L 233.880 109.658 165.321 246.774 C 127.613 322.189,96.932 384.160,97.141 384.489 C 97.735 385.425,130.102 401.340,130.517 400.900 C 130.721 400.684,152.133 358.004,178.101 306.056 L 225.314 211.605 271.147 211.605 L 316.981 211.605 272.003 301.557 C 247.265 351.030,227.025 391.895,227.025 392.367 C 227.025 392.935,261.451 393.225,328.973 393.225 C 385.044 393.225,430.920 393.033,430.920 392.799 C 430.920 392.565,420.242 371.012,407.191 344.905 L 383.461 297.437 366.496 305.928 L 349.531 314.418 359.384 334.111 C 364.804 344.941,369.238 354.192,369.238 354.667 C 369.238 355.235,355.326 355.531,328.544 355.531 C 306.163 355.531,287.851 355.337,287.851 355.101 C 287.851 354.864,308.091 314.193,332.828 264.720 C 357.565 215.248,377.805 174.577,377.805 174.340 C 377.805 174.104,347.735 173.910,310.984 173.910 L 244.162 173.910 260.219 141.784 L 276.275 109.658 344.174 109.658 L 412.073 109.658 412.073 90.810 L 412.073 71.963 264.720 71.963 L 117.368 71.963 117.368 90.810 " stroke="none" fill-rule="evenodd" fill="black"></path></svg>