<svg width="136mm" height="120mm" version="1.1" viewBox="0 0 600 529.4117647058824" xmlns="http://www.w3.org/2000/svg"><path d="M181.322 81.172 C 181.022 84.353,180.773 90.819,180.770 95.542 C 180.759 111.148,177.496 144.759,174.222 162.987 L 172.875 170.483 129.684 170.483 L 86.493 170.483 86.724 189.117 L 86.955 207.750 125.735 207.973 L 164.515 208.196 163.975 210.543 C 162.555 216.727,153.037 244.005,149.108 253.155 C 140.265 273.749,128.470 294.232,117.839 307.461 C 111.529 315.311,99.163 327.106,92.628 331.504 C 82.032 338.637,68.785 343.480,59.755 343.522 L 56.542 343.537 56.542 362.513 L 56.542 381.490 64.467 380.938 C 107.849 377.918,149.139 341.753,177.631 281.819 C 186.621 262.909,193.152 245.309,200.032 221.457 L 203.738 208.606 257.010 208.606 L 310.282 208.606 313.985 221.457 C 321.075 246.058,327.426 263.111,336.717 282.498 C 365.324 342.187,406.289 377.926,449.553 380.938 L 457.478 381.490 457.478 362.513 L 457.478 343.537 454.265 343.522 C 448.779 343.496,439.919 341.218,433.156 338.093 C 407.332 326.162,383.184 295.973,364.529 252.298 C 360.892 243.783,351.385 216.377,350.045 210.543 L 349.505 208.196 388.285 207.973 L 427.065 207.750 427.296 189.117 L 427.527 170.483 384.336 170.483 L 341.145 170.483 339.798 162.987 C 336.524 144.759,333.261 111.148,333.250 95.542 C 333.247 90.819,332.998 84.353,332.698 81.172 L 332.152 75.390 313.294 75.390 L 294.436 75.390 295.018 93.166 C 295.854 118.674,298.878 150.575,302.084 167.699 L 302.606 170.483 257.010 170.483 L 211.414 170.483 211.936 167.699 C 215.142 150.575,218.166 118.674,219.002 93.166 L 219.584 75.390 200.726 75.390 L 181.868 75.390 181.322 81.172 " stroke="none" fill-rule="evenodd" fill="black"></path></svg>