<svg width="136mm" height="120mm" version="1.1" viewBox="0 0 600 529.4117647058824" xmlns="http://www.w3.org/2000/svg"><path d="M181.279 90.596 C 180.264 116.944,177.821 142.986,174.506 162.773 L 173.430 169.198 130.406 169.420 L 87.383 169.642 87.383 188.482 L 87.383 207.321 126.003 207.321 L 164.623 207.321 164.045 210.106 C 162.902 215.617,153.432 243.072,149.491 252.298 C 130.683 296.332,106.869 326.078,80.774 338.135 C 74.091 341.223,65.218 343.497,59.755 343.522 L 56.542 343.537 56.542 362.384 L 56.542 381.231 61.040 381.230 C 67.593 381.229,78.422 379.140,87.306 376.163 C 124.918 363.562,158.585 326.313,182.553 270.782 C 188.932 256.004,196.581 234.348,200.127 221.029 C 201.319 216.552,202.684 211.637,203.161 210.106 L 204.027 207.321 257.019 207.321 C 306.746 207.321,310.037 207.414,310.454 208.821 C 310.698 209.645,311.897 213.982,313.119 218.459 C 318.967 239.886,330.009 269.434,338.477 286.315 C 358.769 326.764,384.189 355.383,413.104 370.331 C 425.383 376.679,441.987 381.232,452.861 381.231 L 457.478 381.231 457.478 362.384 L 457.478 343.537 454.265 343.522 C 445.200 343.480,431.891 338.602,421.394 331.473 C 414.734 326.951,402.301 315.122,396.197 307.500 C 384.105 292.403,371.047 268.944,362.132 246.301 C 357.581 234.743,351.258 215.874,350.003 210.106 L 349.397 207.321 388.017 207.321 L 426.637 207.321 426.637 188.482 L 426.637 169.642 383.587 169.420 L 340.538 169.198 338.667 157.000 C 335.809 138.375,334.185 120.956,333.084 97.098 L 332.082 75.390 313.263 75.390 L 294.445 75.390 295.030 91.881 C 295.351 100.951,296.015 113.770,296.505 120.366 C 297.399 132.413,301.072 163.537,302.068 167.503 L 302.601 169.627 257.035 169.627 L 211.469 169.627 211.945 167.271 C 214.750 153.403,218.066 118.032,218.973 92.309 L 219.570 75.390 200.717 75.390 L 181.865 75.390 181.279 90.596 " stroke="none" fill-rule="evenodd" fill="black"></path></svg>