<svg width="136mm" height="120mm" version="1.1" viewBox="0 0 600 529.4117647058824" xmlns="http://www.w3.org/2000/svg"><path d="M181.308 79.364 C 181.009 81.550,180.764 87.824,180.764 93.305 C 180.764 113.277,175.171 165.507,172.584 169.693 C 172.296 170.159,154.513 170.483,129.294 170.483 L 86.493 170.483 86.724 189.117 L 86.955 207.750 125.776 207.973 C 162.209 208.182,164.568 208.287,164.134 209.686 C 163.880 210.506,162.281 215.803,160.580 221.457 C 153.891 243.697,141.379 271.969,130.603 289.194 C 116.926 311.056,99.536 328.766,83.973 336.681 C 77.633 339.905,68.529 342.669,62.357 343.242 L 56.542 343.783 56.542 362.636 L 56.542 381.490 64.467 380.949 C 98.665 378.616,131.957 355.352,159.078 314.837 C 175.202 290.750,190.667 255.276,200.349 220.172 L 203.538 208.606 256.943 208.606 L 310.348 208.606 314.025 221.457 C 329.435 275.313,351.878 317.742,379.507 345.250 C 401.393 367.041,425.458 379.306,449.553 380.949 L 457.478 381.490 457.478 362.636 L 457.478 343.783 451.663 343.242 C 445.491 342.669,436.387 339.905,430.047 336.681 C 414.484 328.766,397.094 311.056,383.417 289.194 C 372.646 271.977,360.082 243.605,353.422 221.457 C 351.721 215.803,350.126 210.506,349.877 209.686 C 349.452 208.287,351.815 208.182,388.244 207.973 L 427.065 207.750 427.296 189.124 L 427.527 170.499 384.461 170.277 L 341.395 170.055 340.433 166.157 C 337.576 154.586,333.330 111.934,333.273 94.237 C 333.256 88.818,332.998 82.361,332.701 79.887 L 332.161 75.390 313.298 75.390 L 294.434 75.390 295.003 92.419 C 295.861 118.079,298.728 149.424,301.627 164.818 C 302.060 167.120,302.415 169.337,302.415 169.744 C 302.415 170.150,281.983 170.483,257.010 170.483 C 232.037 170.483,211.605 170.169,211.605 169.784 C 211.605 169.399,211.982 166.990,212.443 164.430 C 215.389 148.073,218.131 118.048,218.992 92.738 L 219.581 75.390 200.717 75.390 L 181.853 75.390 181.308 79.364 " stroke="none" fill-rule="evenodd" fill="black"></path></svg>