<svg width="136mm" height="120mm" version="1.1" viewBox="0 0 600 529.4117647058824" xmlns="http://www.w3.org/2000/svg"><path d="M87.383 101.947 L 87.383 120.795 125.078 120.795 L 162.773 120.795 162.773 167.913 L 162.773 215.032 125.078 215.032 L 87.383 215.032 87.383 233.879 L 87.383 252.727 125.078 252.727 L 162.773 252.727 162.773 319.121 L 162.773 385.515 181.620 385.515 L 200.468 385.515 200.468 319.121 L 200.468 252.727 257.010 252.727 L 313.552 252.727 313.552 319.121 L 313.552 385.515 332.400 385.515 L 351.247 385.515 351.247 319.121 L 351.247 252.727 388.942 252.727 L 426.637 252.727 426.637 233.879 L 426.637 215.032 388.942 215.032 L 351.247 215.032 351.247 167.913 L 351.247 120.795 388.942 120.795 L 426.637 120.795 426.637 101.947 L 426.637 83.100 257.010 83.100 L 87.383 83.100 87.383 101.947 M313.552 167.913 L 313.552 215.032 257.010 215.032 L 200.468 215.032 200.468 167.913 L 200.468 120.795 257.010 120.795 L 313.552 120.795 313.552 167.913 " stroke="none" fill-rule="evenodd" fill="black"></path></svg>