<svg width="136mm" height="120mm" version="1.1" viewBox="0 0 600 529.4117647058824" xmlns="http://www.w3.org/2000/svg"><path d="M86.527 101.947 L 86.527 120.795 124.650 120.795 L 162.773 120.795 162.773 167.904 L 162.773 215.014 124.864 215.237 L 86.955 215.460 86.724 234.093 L 86.493 252.727 124.633 252.727 L 162.773 252.727 162.773 319.121 L 162.773 385.515 181.620 385.515 L 200.468 385.515 200.468 319.121 L 200.468 252.727 257.010 252.727 L 313.552 252.727 313.552 319.121 L 313.552 385.515 332.400 385.515 L 351.247 385.515 351.247 319.121 L 351.247 252.727 389.387 252.727 L 427.527 252.727 427.296 234.093 L 427.065 215.460 389.156 215.237 L 351.247 215.014 351.247 167.904 L 351.247 120.795 389.370 120.795 L 427.493 120.795 427.493 101.947 L 427.493 83.100 257.010 83.100 L 86.527 83.100 86.527 101.947 M313.552 167.913 L 313.552 215.032 257.010 215.032 L 200.468 215.032 200.468 167.913 L 200.468 120.795 257.010 120.795 L 313.552 120.795 313.552 167.913 " stroke="none" fill-rule="evenodd" fill="black"></path></svg>