<svg width="136mm" height="120mm" version="1.1" viewBox="0 0 600 529.4117647058824" xmlns="http://www.w3.org/2000/svg"><path d="M120.795 75.390 L 120.795 101.947 83.100 101.947 L 45.405 101.947 45.405 120.795 L 45.405 139.642 83.100 139.642 L 120.795 139.642 120.795 160.850 L 120.795 182.057 87.393 282.254 C 69.022 337.362,54.276 382.706,54.624 383.019 C 54.972 383.332,62.582 386.006,71.534 388.961 C 80.487 391.916,88.253 394.496,88.792 394.693 C 89.417 394.922,98.708 368.209,114.386 321.105 C 127.924 280.434,139.275 246.853,139.612 246.481 C 139.949 246.109,151.332 279.070,164.907 319.729 C 178.482 360.388,189.727 393.912,189.896 394.227 C 190.226 394.843,223.533 384.034,224.766 382.911 C 225.172 382.541,210.426 337.003,191.997 281.715 L 158.489 181.192 158.489 160.417 L 158.489 139.642 196.613 139.642 L 234.736 139.642 234.736 120.795 L 234.736 101.947 196.613 101.947 L 158.489 101.947 158.489 75.390 L 158.489 48.832 139.642 48.832 L 120.795 48.832 120.795 75.390 M252.727 101.947 L 252.727 120.795 289.107 120.795 L 325.487 120.795 284.395 243.427 C 261.794 310.875,243.303 366.492,243.303 367.022 C 243.303 367.903,278.221 380.068,278.799 379.387 C 278.938 379.224,290.764 343.912,305.080 300.916 L 331.107 222.742 356.528 222.742 L 381.949 222.742 355.531 301.987 L 329.112 381.231 402.290 381.231 C 442.538 381.231,475.469 380.942,475.469 380.589 C 475.469 379.995,445.440 289.384,445.095 288.936 C 444.815 288.573,410.805 300.046,410.013 300.771 C 409.564 301.182,412.166 310.030,416.225 321.890 C 420.066 333.115,423.210 342.578,423.210 342.918 C 423.210 343.258,413.957 343.537,402.649 343.537 C 391.341 343.537,382.088 343.245,382.088 342.889 C 382.088 342.533,393.846 306.971,408.218 263.864 C 422.589 220.756,434.347 185.387,434.347 185.267 C 434.347 185.146,413.945 185.047,389.010 185.047 L 343.674 185.047 354.387 152.921 L 365.100 120.795 407.434 120.795 L 449.767 120.795 449.767 101.947 L 449.767 83.100 351.247 83.100 L 252.727 83.100 252.727 101.947 " stroke="none" fill-rule="evenodd" fill="black"></path></svg>