<svg width="136mm" height="120mm" version="1.1" viewBox="0 0 600 529.4117647058824" xmlns="http://www.w3.org/2000/svg"><path d="M120.795 75.373 L 120.795 101.947 83.100 101.947 L 45.405 101.947 45.405 120.795 L 45.405 139.642 83.100 139.642 L 120.795 139.642 120.795 161.278 L 120.795 182.914 87.438 282.977 C 65.064 350.091,54.415 383.166,55.097 383.421 C 56.640 384.000,89.451 394.939,89.643 394.939 C 89.735 394.939,101.087 361.110,114.869 319.764 L 139.927 244.590 164.625 318.693 C 178.209 359.450,189.496 393.256,189.709 393.817 C 189.975 394.521,195.362 393.090,207.061 389.211 C 216.392 386.116,224.360 383.281,224.766 382.911 C 225.172 382.541,210.619 337.581,192.426 283.000 L 159.346 183.762 159.346 161.702 L 159.346 139.642 197.041 139.642 L 234.736 139.642 234.736 120.795 L 234.736 101.947 197.053 101.947 L 159.371 101.947 159.144 75.604 L 158.918 49.260 139.856 49.030 L 120.795 48.799 120.795 75.373 M252.727 101.947 L 252.727 120.795 288.708 120.795 C 308.498 120.795,324.689 121.085,324.689 121.441 C 324.689 121.796,306.377 177.019,283.996 244.159 C 261.615 311.300,243.303 366.627,243.303 367.108 C 243.303 367.933,278.258 380.025,278.799 379.387 C 278.938 379.224,290.764 343.912,305.080 300.916 L 331.107 222.742 356.528 222.742 L 381.949 222.742 355.531 301.987 L 329.112 381.231 402.382 381.231 C 460.637 381.231,475.571 381.012,475.258 380.161 C 475.041 379.572,468.205 359.043,460.067 334.541 C 451.929 310.040,445.015 289.710,444.704 289.363 C 443.933 288.504,409.503 300.020,409.503 301.137 C 409.503 301.626,412.587 311.261,416.356 322.548 C 420.126 333.834,423.210 343.174,423.210 343.302 C 423.210 343.431,413.796 343.537,402.290 343.537 L 381.371 343.537 407.789 264.292 L 434.208 185.047 388.941 185.047 L 343.674 185.047 354.387 152.921 L 365.100 120.795 407.434 120.795 L 449.767 120.795 449.767 101.947 L 449.767 83.100 351.247 83.100 L 252.727 83.100 252.727 101.947 " stroke="none" fill-rule="evenodd" fill="black"></path></svg>