<svg width="136mm" height="120mm" version="1.1" viewBox="0 0 600 529.4117647058824" xmlns="http://www.w3.org/2000/svg"><path d="M100.014 126.584 L 24.836 201.765 38.117 215.026 L 51.398 228.286 86.335 193.388 L 121.272 158.490 179.717 158.489 L 238.163 158.489 238.163 235.661 L 238.163 312.832 232.380 312.262 C 223.176 311.356,206.473 307.811,197.769 304.916 C 181.298 299.439,169.218 292.616,161.651 284.516 C 154.731 277.108,155.063 279.956,155.063 227.910 L 155.063 181.620 136.183 181.620 L 117.303 181.620 117.550 231.952 L 117.796 282.283 119.894 288.216 C 124.215 300.439,135.029 313.538,148.436 322.789 C 168.105 336.361,198.283 346.527,228.392 349.725 L 238.163 350.762 238.163 379.276 L 238.163 407.789 257.010 407.789 L 275.857 407.789 275.857 379.276 L 275.857 350.762 285.628 349.725 C 315.737 346.527,345.915 336.361,365.584 322.789 C 378.991 313.538,389.805 300.439,394.126 288.216 L 396.224 282.283 396.470 231.952 L 396.717 181.620 377.837 181.620 L 358.957 181.620 358.957 227.910 C 358.957 279.956,359.289 277.108,352.369 284.516 C 344.802 292.616,332.722 299.439,316.251 304.916 C 307.547 307.811,290.844 311.356,281.640 312.262 L 275.857 312.832 275.857 235.661 L 275.857 158.489 334.303 158.489 L 392.748 158.489 427.689 193.391 L 462.629 228.293 475.901 215.020 L 489.174 201.748 413.790 126.367 L 338.405 50.986 325.120 64.250 L 311.835 77.515 333.462 99.155 L 355.090 120.795 257.010 120.795 L 158.930 120.795 180.558 99.155 L 202.185 77.515 189.109 64.458 C 181.916 57.277,175.843 51.402,175.612 51.402 C 175.381 51.402,141.361 85.234,100.014 126.584 " stroke="none" fill-rule="evenodd" fill="black"></path></svg>