<svg width="136mm" height="120mm" version="1.1" viewBox="0 0 600 529.4117647058824" xmlns="http://www.w3.org/2000/svg"><path d="M100.014 126.584 L 24.836 201.765 38.122 215.031 L 51.408 228.296 86.320 193.393 L 121.231 158.489 179.697 158.489 L 238.163 158.489 238.163 235.673 L 238.163 312.856 233.665 312.295 C 201.750 308.310,176.911 299.116,163.440 286.303 C 154.554 277.850,155.063 281.388,155.063 228.040 L 155.063 181.620 136.215 181.620 L 117.368 181.620 117.368 229.050 C 117.368 257.178,117.718 278.358,118.228 281.095 C 124.171 312.962,161.296 338.464,215.226 347.725 C 220.538 348.637,227.871 349.655,231.523 349.988 L 238.163 350.592 238.163 379.190 L 238.163 407.789 257.010 407.789 L 275.857 407.789 275.857 379.229 L 275.857 350.670 285.459 349.628 C 327.635 345.054,365.575 328.619,382.895 307.421 C 388.358 300.734,394.522 288.288,395.741 281.483 C 396.312 278.296,396.652 258.716,396.652 229.010 L 396.652 181.620 377.805 181.620 L 358.957 181.620 358.957 227.910 C 358.957 279.956,359.289 277.108,352.369 284.516 C 340.322 297.413,317.052 306.953,286.885 311.364 C 281.877 312.096,277.347 312.695,276.818 312.695 C 276.115 312.695,275.857 291.999,275.857 235.593 L 275.857 158.489 334.323 158.489 L 392.789 158.489 427.704 193.396 L 462.619 228.303 475.896 215.025 L 489.174 201.748 413.790 126.367 L 338.405 50.986 325.120 64.250 L 311.835 77.515 333.462 99.155 L 355.090 120.795 257.010 120.795 L 158.930 120.795 180.558 99.155 L 202.185 77.515 189.109 64.458 C 181.916 57.277,175.843 51.402,175.612 51.402 C 175.381 51.402,141.361 85.234,100.014 126.584 " stroke="none" fill-rule="evenodd" fill="black"></path></svg>