<svg width="136mm" height="120mm" version="1.1" viewBox="0 0 600 529.4117647058824" xmlns="http://www.w3.org/2000/svg"><path d="M99.810 126.787 L 24.428 202.173 37.694 215.459 L 50.959 228.745 86.095 193.617 L 121.231 158.489 179.697 158.489 L 238.163 158.489 238.163 235.661 L 238.163 312.832 232.380 312.262 C 223.375 311.375,206.731 307.872,198.056 305.037 C 182.470 299.944,171.492 293.994,163.319 286.209 C 154.599 277.905,155.103 281.458,155.082 228.096 L 155.063 181.620 136.183 181.620 L 117.304 181.620 117.550 232.380 L 117.796 283.139 120.043 288.915 C 121.279 292.091,123.592 296.884,125.183 299.566 C 129.106 306.177,140.320 317.393,148.529 322.916 C 168.919 336.634,198.377 346.549,228.096 349.696 L 238.163 350.762 238.163 379.276 L 238.163 407.789 257.010 407.789 L 275.857 407.789 275.857 379.276 L 275.857 350.762 285.628 349.725 C 315.628 346.539,345.068 336.656,365.491 322.916 C 373.700 317.393,384.914 306.177,388.837 299.566 C 390.428 296.884,392.741 292.091,393.977 288.915 L 396.224 283.139 396.470 232.380 L 396.716 181.620 377.837 181.620 L 358.957 181.620 358.957 227.910 C 358.957 280.115,359.261 277.529,352.278 284.718 C 339.179 298.205,310.390 309.431,281.640 312.262 L 275.857 312.832 275.857 235.661 L 275.857 158.489 334.323 158.489 L 392.789 158.489 427.925 193.617 L 463.061 228.745 476.327 215.458 L 489.593 202.171 414.000 126.578 L 338.406 50.985 325.120 64.250 L 311.835 77.515 333.462 99.155 L 355.090 120.795 257.010 120.795 L 158.930 120.795 180.558 99.155 L 202.185 77.515 189.109 64.458 C 181.916 57.277,175.843 51.402,175.612 51.402 C 175.381 51.402,141.270 85.325,99.810 126.787 " stroke="none" fill-rule="evenodd" fill="black"></path></svg>