<svg width="136mm" height="120mm" version="1.1" viewBox="0 0 600 529.4117647058824" xmlns="http://www.w3.org/2000/svg"><path d="M128.505 64.252 L 128.505 83.100 92.524 83.100 L 56.542 83.100 56.542 101.947 L 56.542 120.795 92.524 120.795 L 128.505 120.795 128.505 149.066 L 128.505 177.337 101.947 177.337 L 75.390 177.337 75.390 196.184 L 75.390 215.032 101.947 215.032 L 128.505 215.032 128.505 243.731 L 128.505 272.431 92.507 272.431 L 56.509 272.431 56.740 291.064 L 56.971 309.697 92.738 309.921 L 128.505 310.144 128.505 357.253 L 128.505 404.362 147.352 404.362 L 166.200 404.362 166.200 357.244 L 166.200 310.125 202.181 310.125 L 238.163 310.125 238.163 291.278 L 238.163 272.431 202.181 272.431 L 166.200 272.431 166.200 243.731 L 166.200 215.032 192.757 215.032 L 219.315 215.032 219.315 196.184 L 219.315 177.337 192.757 177.337 L 166.200 177.337 166.200 149.066 L 166.200 120.795 202.181 120.795 L 238.163 120.795 238.163 101.947 L 238.163 83.100 202.181 83.100 L 166.200 83.100 166.200 64.252 L 166.200 45.405 147.352 45.405 L 128.505 45.405 128.505 64.252 M252.924 106.017 L 253.155 124.650 288.922 124.873 C 308.594 124.996,324.689 125.382,324.689 125.730 C 324.689 126.078,305.373 184.311,281.765 255.136 C 258.157 325.961,239.002 384.070,239.200 384.268 C 239.397 384.465,262.061 377.123,289.565 367.953 C 317.068 358.782,339.686 351.395,339.828 351.537 C 339.970 351.679,337.586 359.274,334.530 368.416 C 331.473 377.558,328.973 385.145,328.973 385.276 C 328.973 385.408,361.934 385.515,402.221 385.515 C 460.245 385.515,475.469 385.292,475.469 384.444 C 475.469 381.813,445.238 292.991,444.342 292.991 C 442.555 292.991,409.503 304.253,409.503 304.862 C 409.503 305.188,412.587 314.688,416.356 325.974 C 420.126 337.261,423.210 346.793,423.210 347.158 C 423.210 347.522,413.957 347.820,402.649 347.820 C 386.718 347.820,382.088 347.578,382.088 346.744 C 382.088 346.152,393.815 310.492,408.148 267.499 L 434.208 189.331 389.351 189.331 C 364.680 189.331,344.328 189.042,344.123 188.688 C 343.919 188.335,348.576 173.878,354.470 156.562 L 365.189 125.078 407.478 125.078 L 449.767 125.078 449.767 106.231 L 449.767 87.383 351.230 87.383 L 252.693 87.383 252.924 106.017 M361.973 286.669 C 350.934 319.474,341.787 346.429,341.645 346.570 C 341.504 346.712,338.920 339.630,335.903 330.832 C 332.886 322.035,330.354 314.746,330.277 314.634 C 330.200 314.523,323.237 316.739,314.804 319.560 C 306.370 322.381,299.200 324.689,298.870 324.689 C 298.541 324.689,305.597 302.715,314.551 275.857 L 330.831 227.025 356.437 227.025 L 382.044 227.025 361.973 286.669 " stroke="none" fill-rule="evenodd" fill="black"></path></svg>