<svg width="136mm" height="120mm" version="1.1" viewBox="0 0 600 529.4117647058824" xmlns="http://www.w3.org/2000/svg"><path d="M128.505 64.252 L 128.505 83.100 92.524 83.100 L 56.542 83.100 56.542 101.947 L 56.542 120.795 92.524 120.795 L 128.505 120.795 128.505 149.053 L 128.505 177.312 102.161 177.539 L 75.818 177.765 75.587 196.398 L 75.356 215.032 101.931 215.032 L 128.505 215.032 128.505 243.731 L 128.505 272.431 92.507 272.431 L 56.509 272.431 56.740 291.064 L 56.971 309.697 92.738 309.921 L 128.505 310.144 128.505 357.253 L 128.505 404.362 147.352 404.362 L 166.200 404.362 166.200 357.244 L 166.200 310.125 202.181 310.125 L 238.163 310.125 238.163 291.287 L 238.163 272.449 202.395 272.226 L 166.628 272.002 166.402 243.517 L 166.177 215.032 192.746 215.032 L 219.315 215.032 219.315 196.184 L 219.315 177.337 192.757 177.337 L 166.200 177.337 166.200 149.066 L 166.200 120.795 202.181 120.795 L 238.163 120.795 238.163 101.947 L 238.163 83.100 202.181 83.100 L 166.200 83.100 166.200 64.252 L 166.200 45.405 147.352 45.405 L 128.505 45.405 128.505 64.252 M252.924 106.017 L 253.155 124.650 288.922 124.873 C 308.594 124.996,324.689 125.382,324.689 125.730 C 324.689 126.078,305.373 184.311,281.765 255.136 C 258.157 325.961,239.002 384.070,239.200 384.268 C 239.397 384.465,262.061 377.123,289.565 367.953 C 317.068 358.782,339.686 351.395,339.828 351.537 C 339.970 351.679,337.586 359.274,334.530 368.416 C 331.473 377.558,328.973 385.145,328.973 385.276 C 328.973 385.408,361.934 385.515,402.221 385.515 C 442.507 385.515,475.469 385.226,475.469 384.873 C 475.469 384.020,445.351 293.535,444.897 293.021 C 444.399 292.458,409.503 304.125,409.503 304.855 C 409.503 305.184,412.587 314.688,416.356 325.974 C 420.126 337.261,423.210 346.793,423.210 347.158 C 423.210 347.522,413.957 347.820,402.649 347.820 C 386.718 347.820,382.088 347.578,382.088 346.744 C 382.088 346.152,393.815 310.492,408.148 267.499 L 434.208 189.331 389.443 189.331 C 364.823 189.331,344.461 189.113,344.195 188.847 C 343.929 188.580,348.427 174.220,354.191 156.935 L 364.671 125.507 407.005 125.078 L 449.339 124.650 449.570 106.017 L 449.801 87.383 351.247 87.383 L 252.693 87.383 252.924 106.017 M381.231 227.675 C 381.231 228.584,341.972 346.244,341.516 346.699 C 341.312 346.904,338.739 339.818,335.798 330.954 C 332.858 322.090,330.381 314.746,330.295 314.634 C 330.208 314.523,323.237 316.739,314.804 319.560 C 306.370 322.381,299.200 324.689,298.870 324.689 C 298.541 324.689,305.597 302.715,314.551 275.857 L 330.831 227.025 356.031 227.025 C 369.891 227.025,381.231 227.318,381.231 227.675 " stroke="none" fill-rule="evenodd" fill="black"></path></svg>