<svg width="136mm" height="120mm" version="1.1" viewBox="0 0 600 529.4117647058824" xmlns="http://www.w3.org/2000/svg"><path d="M86.733 204.965 L 87.000 303.700 88.929 309.987 C 99.171 343.365,135.720 369.221,190.187 381.620 C 214.017 387.045,227.909 388.468,257.010 388.468 C 286.111 388.468,300.003 387.045,323.833 381.620 C 378.300 369.221,414.849 343.365,425.091 309.987 L 427.020 303.700 427.287 204.965 L 427.555 106.231 408.248 106.231 L 388.942 106.231 388.933 202.824 L 388.925 299.417 386.801 303.978 C 378.873 321.009,348.574 337.909,312.267 345.552 C 291.970 349.824,282.292 350.732,257.010 350.732 C 231.728 350.732,222.050 349.824,201.753 345.552 C 165.446 337.909,135.147 321.009,127.219 303.978 L 125.095 299.417 125.087 202.824 L 125.078 106.231 105.772 106.231 L 86.465 106.231 86.733 204.965 " stroke="none" fill-rule="evenodd" fill="black"></path></svg>