<svg width="136mm" height="120mm" version="1.1" viewBox="0 0 600 529.4117647058824" xmlns="http://www.w3.org/2000/svg"><path d="M87.383 203.741 C 87.383 299.471,87.430 302.324,89.104 308.868 C 99.201 348.349,148.794 377.795,220.600 386.945 C 238.889 389.276,277.486 389.077,296.163 386.556 C 319.551 383.399,339.755 378.432,356.772 371.656 C 394.608 356.591,418.290 334.778,424.910 308.893 C 426.592 302.316,426.637 299.590,426.637 203.741 L 426.637 105.341 408.003 105.572 L 389.370 105.802 388.942 203.466 L 388.513 301.130 386.468 304.968 C 377.501 321.792,347.580 338.152,312.267 345.538 C 292.315 349.711,281.416 350.737,257.010 350.739 C 232.798 350.742,223.238 349.849,202.369 345.639 C 167.681 338.640,137.187 322.200,127.934 305.509 L 125.507 301.130 125.078 203.466 L 124.650 105.802 106.017 105.572 L 87.383 105.341 87.383 203.741 " stroke="none" fill-rule="evenodd" fill="black"></path></svg>