<svg width="136mm" height="120mm" version="1.1" viewBox="0 0 600 529.4117647058824" xmlns="http://www.w3.org/2000/svg"><path d="M86.542 198.969 C 86.550 251.641,86.909 295.037,87.373 299.417 C 88.889 313.746,94.400 325.779,104.714 337.281 C 128.349 363.640,168.026 380.359,223.599 387.377 C 237.208 389.096,280.160 388.821,293.848 386.927 C 348.377 379.384,386.097 363.164,409.306 337.281 C 419.766 325.616,425.207 313.601,426.647 298.988 C 427.088 294.511,427.459 249.327,427.471 198.540 L 427.493 106.231 408.218 106.231 L 388.942 106.231 388.933 202.824 L 388.925 299.417 386.782 304.021 C 384.165 309.642,374.478 319.571,366.668 324.637 C 349.075 336.049,321.740 344.967,291.278 349.232 C 276.182 351.346,237.838 351.346,222.742 349.232 C 191.312 344.831,164.167 335.828,146.303 323.880 C 138.421 318.609,129.844 309.615,127.121 303.769 L 125.095 299.417 125.087 202.824 L 125.078 106.231 105.802 106.231 L 86.527 106.231 86.542 198.969 " stroke="none" fill-rule="evenodd" fill="black"></path></svg>