<svg width="136mm" height="120mm" version="1.1" viewBox="0 0 600 529.4117647058824" xmlns="http://www.w3.org/2000/svg"><path d="M332.400 104.089 L 332.400 128.505 298.560 128.505 L 264.720 128.505 264.720 147.352 L 264.720 166.200 298.560 166.200 L 332.400 166.200 332.400 192.757 L 332.400 219.315 290.850 219.315 L 249.300 219.315 249.300 238.163 L 249.300 257.010 290.850 257.010 L 332.400 257.010 332.400 286.995 L 332.400 316.979 351.247 316.979 L 370.094 316.979 370.094 286.995 L 370.094 257.010 411.644 257.010 L 453.194 257.010 453.194 238.163 L 453.194 219.315 411.644 219.315 L 370.094 219.315 370.094 192.757 L 370.094 166.200 404.362 166.200 L 438.630 166.200 438.630 147.352 L 438.630 128.505 404.362 128.505 L 370.094 128.505 370.094 104.089 L 370.094 79.673 351.247 79.673 L 332.400 79.673 332.400 104.089 M49.689 236.021 L 49.689 377.805 68.536 377.805 L 87.383 377.805 87.383 254.868 L 87.383 131.932 134.434 131.932 L 181.484 131.932 181.936 137.286 C 182.185 140.231,182.811 148.038,183.327 154.634 C 187.303 205.472,199.933 254.468,218.749 292.040 C 229.585 313.679,239.185 327.432,253.567 341.918 C 268.529 356.990,281.685 365.386,298.686 370.714 L 306.270 373.091 389.156 373.331 L 472.042 373.570 472.042 354.698 L 472.042 335.826 393.439 335.816 C 309.995 335.805,311.585 335.877,302.184 331.718 C 291.553 327.016,278.550 315.546,268.741 302.218 C 237.672 260.003,219.386 189.617,219.328 112.014 L 219.315 94.237 134.502 94.237 L 49.689 94.237 49.689 236.021 M124.864 166.288 L 107.943 174.776 120.889 200.686 C 128.010 214.937,134.004 226.776,134.209 226.995 C 134.733 227.552,167.924 210.900,167.867 210.109 C 167.841 209.754,161.962 197.839,154.802 183.631 L 141.784 157.800 124.864 166.288 M124.650 275.571 C 115.697 280.075,108.254 283.868,108.109 283.999 C 107.858 284.226,133.434 335.828,134.204 336.647 C 134.617 337.087,166.986 321.173,167.578 320.238 C 167.993 319.584,142.065 267.262,141.362 267.336 C 141.123 267.361,133.602 271.067,124.650 275.571 " stroke="none" fill-rule="evenodd" fill="black"></path></svg>