<svg width="136mm" height="120mm" version="1.1" viewBox="0 0 600 529.4117647058824" xmlns="http://www.w3.org/2000/svg"><path d="M332.400 104.089 L 332.400 128.505 298.560 128.505 L 264.720 128.505 264.720 147.352 L 264.720 166.200 298.560 166.200 L 332.400 166.200 332.400 192.757 L 332.400 219.315 290.850 219.315 L 249.300 219.315 249.300 238.163 L 249.300 257.010 290.850 257.010 L 332.400 257.010 332.400 286.995 L 332.400 316.979 351.247 316.979 L 370.094 316.979 370.094 286.995 L 370.094 257.010 411.644 257.010 L 453.194 257.010 453.194 238.163 L 453.194 219.315 411.644 219.315 L 370.094 219.315 370.094 192.757 L 370.094 166.200 404.362 166.200 L 438.630 166.200 438.630 147.352 L 438.630 128.505 404.362 128.505 L 370.094 128.505 370.094 104.089 L 370.094 79.673 351.247 79.673 L 332.400 79.673 332.400 104.089 M49.228 95.308 C 49.004 95.897,48.919 159.603,49.040 236.878 L 49.260 377.376 68.108 377.376 L 86.955 377.376 87.172 254.654 L 87.389 131.932 134.505 131.932 C 178.799 131.932,181.621 132.022,181.638 133.431 C 181.701 138.795,184.413 167.884,185.831 178.402 C 194.321 241.383,215.133 296.714,243.237 331.018 C 250.155 339.463,263.081 351.767,270.524 356.993 C 283.885 366.373,299.030 371.984,315.105 373.508 C 320.472 374.017,354.835 374.377,398.151 374.377 L 472.042 374.378 472.042 355.102 L 472.042 335.826 393.439 335.816 C 308.793 335.805,311.418 335.935,301.233 331.272 C 283.378 323.098,264.895 301.367,251.185 272.431 C 230.262 228.270,219.358 172.489,219.323 109.443 L 219.315 94.237 134.475 94.237 C 67.391 94.237,49.550 94.461,49.228 95.308 M124.864 166.288 L 107.943 174.776 120.889 200.686 C 128.010 214.937,134.004 226.776,134.209 226.995 C 134.733 227.552,167.924 210.900,167.867 210.109 C 167.841 209.754,161.962 197.839,154.802 183.631 L 141.784 157.800 124.864 166.288 M124.650 275.571 C 115.697 280.075,108.254 283.868,108.109 283.999 C 107.858 284.226,133.434 335.828,134.204 336.647 C 134.617 337.087,166.986 321.173,167.578 320.238 C 167.993 319.584,142.065 267.262,141.362 267.336 C 141.123 267.361,133.602 271.067,124.650 275.571 " stroke="none" fill-rule="evenodd" fill="black"></path></svg>