<svg width="136mm" height="120mm" version="1.1" viewBox="0 0 600 529.4117647058824" xmlns="http://www.w3.org/2000/svg"><path d="M332.400 104.089 L 332.400 128.505 298.560 128.505 L 264.720 128.505 264.720 147.352 L 264.720 166.200 298.560 166.200 L 332.400 166.200 332.400 192.757 L 332.400 219.315 290.850 219.315 L 249.300 219.315 249.300 238.163 L 249.300 257.010 290.850 257.010 L 332.400 257.010 332.400 286.995 L 332.400 316.979 351.247 316.979 L 370.094 316.979 370.094 287.003 L 370.094 257.026 411.859 256.804 L 453.623 256.582 453.854 237.948 L 454.084 219.315 412.089 219.315 L 370.094 219.315 370.094 192.757 L 370.094 166.200 404.362 166.200 L 438.630 166.200 438.630 147.352 L 438.630 128.505 404.362 128.505 L 370.094 128.505 370.094 104.089 L 370.094 79.673 351.247 79.673 L 332.400 79.673 332.400 104.089 M48.832 236.037 L 48.832 377.837 67.893 377.607 L 86.955 377.376 87.172 254.654 L 87.389 131.932 134.505 131.932 L 181.620 131.932 181.638 133.859 C 181.682 138.706,184.276 167.659,185.494 176.909 C 193.797 239.939,215.016 296.570,243.237 331.018 C 250.155 339.463,263.081 351.767,270.524 356.993 C 284.194 366.590,299.238 372.067,316.017 373.555 C 322.189 374.103,353.820 374.345,399.222 374.194 L 472.470 373.950 472.470 355.102 L 472.470 336.255 391.940 335.826 C 316.014 335.423,311.166 335.307,307.127 333.798 C 296.455 329.812,288.027 324.004,278.950 314.383 C 241.894 275.101,219.342 197.756,219.319 109.872 L 219.315 94.237 134.074 94.237 L 48.832 94.237 48.832 236.037 M124.007 166.678 L 107.943 174.776 120.889 200.687 C 128.010 214.937,134.001 226.774,134.204 226.990 C 134.619 227.431,166.986 211.514,167.581 210.577 C 168.226 209.560,142.275 158.487,141.139 158.535 C 140.551 158.560,132.842 162.225,124.007 166.678 M124.650 275.571 C 115.697 280.075,108.254 283.868,108.109 283.999 C 107.858 284.226,133.434 335.828,134.204 336.647 C 134.617 337.087,166.986 321.173,167.578 320.238 C 167.993 319.584,142.065 267.262,141.362 267.336 C 141.123 267.361,133.602 271.067,124.650 275.571 " stroke="none" fill-rule="evenodd" fill="black"></path></svg>