<svg width="136mm" height="120mm" version="1.1" viewBox="0 0 600 529.4117647058824" xmlns="http://www.w3.org/2000/svg"><path d="M75.390 101.947 L 75.390 120.795 175.195 120.795 C 230.088 120.795,275.001 120.988,275.001 121.224 C 275.001 121.460,245.509 180.636,209.463 252.727 C 173.417 324.817,143.926 384.185,143.926 384.657 C 143.926 385.226,192.063 385.515,286.995 385.515 C 400.876 385.515,430.063 385.297,430.063 384.444 C 430.063 382.944,385.446 249.031,384.657 248.163 C 384.153 247.609,349.972 257.999,348.956 259.015 C 348.820 259.152,355.255 278.895,363.256 302.890 C 371.258 326.884,377.805 346.810,377.805 347.168 C 377.805 347.527,338.868 347.820,291.278 347.820 C 243.688 347.820,204.751 347.627,204.751 347.391 C 204.751 347.155,234.436 287.592,270.718 215.031 L 336.684 83.100 206.037 83.100 L 75.390 83.100 75.390 101.947 " stroke="none" fill-rule="evenodd" fill="black"></path></svg>