<svg width="136mm" height="120mm" version="1.1" viewBox="0 0 600 529.4117647058824" xmlns="http://www.w3.org/2000/svg"><path d="M177.337 163.422 L 177.337 266.018 149.491 279.933 C 134.175 287.586,121.453 293.848,121.220 293.848 C 120.986 293.848,120.795 257.417,120.795 212.890 L 120.795 131.932 101.947 131.932 L 83.100 131.932 83.100 222.545 L 83.100 313.158 65.966 321.691 C 56.542 326.384,48.832 330.524,48.832 330.892 C 48.832 331.882,65.046 364.097,65.544 364.097 C 65.779 364.097,91.028 351.568,121.654 336.253 L 177.337 308.409 177.337 354.244 L 177.337 400.079 196.613 400.079 L 215.888 400.079 215.888 344.592 L 215.888 289.105 234.736 279.713 C 245.102 274.547,253.583 270.020,253.583 269.653 C 253.583 268.650,237.365 236.449,236.860 236.449 C 236.620 236.449,231.803 238.765,226.156 241.596 L 215.888 246.743 215.888 153.784 L 215.888 60.826 196.613 60.826 L 177.337 60.826 177.337 163.422 M381.231 163.422 L 381.231 266.018 353.385 279.933 C 338.070 287.586,325.348 293.848,325.114 293.848 C 324.881 293.848,324.689 257.417,324.689 212.890 L 324.689 131.932 305.842 131.932 L 286.995 131.932 286.995 222.545 L 286.995 313.158 269.861 321.691 C 260.437 326.384,252.727 330.524,252.727 330.892 C 252.727 331.882,268.941 364.097,269.439 364.097 C 269.674 364.097,294.923 351.568,325.549 336.253 L 381.231 308.409 381.231 354.244 L 381.231 400.079 400.507 400.079 L 419.783 400.079 419.783 344.592 L 419.783 289.105 438.630 279.713 C 448.996 274.547,457.478 270.020,457.478 269.653 C 457.478 268.650,441.260 236.449,440.755 236.449 C 440.514 236.449,435.697 238.765,430.050 241.596 L 419.783 246.743 419.783 153.784 L 419.783 60.826 400.507 60.826 L 381.231 60.826 381.231 163.422 " stroke="none" fill-rule="evenodd" fill="black"></path></svg>