<svg width="136mm" height="120mm" version="1.1" viewBox="0 0 600 529.4117647058824" xmlns="http://www.w3.org/2000/svg"><path d="M240.733 46.703 C 221.125 49.404,199.917 59.227,184.914 72.557 C 149.547 103.980,138.047 152.224,155.528 195.832 C 168.381 227.892,196.116 252.096,230.024 260.842 L 237.734 262.830 237.975 273.199 L 238.215 283.568 200.494 283.568 L 162.773 283.568 162.773 302.415 L 162.773 321.262 200.468 321.262 L 238.163 321.262 238.163 341.823 L 238.163 362.384 183.334 362.384 L 128.505 362.384 128.505 381.231 L 128.505 400.079 257.010 400.079 L 385.515 400.079 385.515 381.231 L 385.515 362.384 330.686 362.384 L 275.857 362.384 275.857 341.823 L 275.857 321.262 315.694 321.262 L 355.531 321.262 355.531 302.415 L 355.531 283.568 315.668 283.568 L 275.805 283.568 276.045 273.199 L 276.286 262.830 283.996 260.842 C 337.526 247.035,372.731 195.541,365.739 141.278 C 357.880 80.281,302.289 38.223,240.733 46.703 M238.163 110.943 L 238.163 136.215 212.832 136.215 L 187.502 136.215 188.094 134.288 C 194.274 114.157,209.495 97.255,229.167 88.679 C 232.937 87.035,236.503 85.686,237.092 85.680 C 237.924 85.672,238.163 91.290,238.163 110.943 M286.844 89.572 C 305.309 98.103,319.966 114.873,325.926 134.288 L 326.518 136.215 301.188 136.215 L 275.857 136.215 275.857 110.850 L 275.857 85.484 278.199 86.072 C 279.488 86.395,283.377 87.970,286.844 89.572 M238.163 199.137 L 238.163 224.363 233.293 222.688 C 216.041 216.752,200.336 202.512,192.253 185.476 C 190.241 181.235,188.349 176.898,188.048 175.838 L 187.502 173.910 212.832 173.910 L 238.163 173.910 238.163 199.137 M325.972 175.838 C 325.671 176.898,323.779 181.235,321.767 185.476 C 313.684 202.512,297.979 216.752,280.727 222.688 L 275.857 224.363 275.857 199.137 L 275.857 173.910 301.188 173.910 L 326.518 173.910 325.972 175.838 " stroke="none" fill-rule="evenodd" fill="black"></path></svg>