<svg width="136mm" height="120mm" version="1.1" viewBox="0 0 600 529.4117647058824" xmlns="http://www.w3.org/2000/svg"><path d="M240.304 46.594 C 228.684 48.519,220.170 51.249,209.429 56.492 C 177.862 71.899,156.662 99.440,149.379 134.502 C 147.323 144.399,147.303 164.707,149.338 174.947 C 153.718 196.980,163.933 216.276,179.432 231.794 C 194.110 246.491,210.451 255.881,230.024 260.866 L 237.734 262.830 237.975 273.199 L 238.215 283.568 200.494 283.568 L 162.773 283.568 162.773 302.415 L 162.773 321.262 200.468 321.262 L 238.163 321.262 238.163 341.823 L 238.163 362.384 183.334 362.384 L 128.505 362.384 128.505 381.231 L 128.505 400.079 257.010 400.079 L 385.515 400.079 385.515 381.231 L 385.515 362.384 330.686 362.384 L 275.857 362.384 275.857 341.832 L 275.857 321.280 315.480 321.057 L 355.102 320.834 355.333 302.201 L 355.564 283.568 315.684 283.568 L 275.805 283.568 276.045 273.199 L 276.286 262.830 283.996 260.866 C 325.736 250.235,357.365 215.974,365.063 173.053 C 366.718 163.825,366.491 143.494,364.633 134.502 C 355.447 90.053,323.065 57.207,278.856 47.494 C 270.544 45.668,248.934 45.163,240.304 46.594 M238.163 110.943 L 238.163 136.215 212.931 136.215 L 187.699 136.215 188.844 132.574 C 193.405 118.075,204.469 103.718,218.047 94.683 C 222.409 91.780,235.503 85.730,237.520 85.684 C 237.873 85.676,238.163 97.043,238.163 110.943 M282.477 87.848 C 302.123 95.223,318.983 112.884,325.176 132.574 L 326.321 136.215 301.089 136.215 L 275.857 136.215 275.857 110.943 C 275.857 97.043,276.041 85.670,276.266 85.670 C 276.491 85.670,279.286 86.650,282.477 87.848 M238.163 198.754 C 238.163 227.242,238.954 225.172,229.596 221.173 C 210.847 213.160,195.731 197.223,189.385 178.780 L 187.710 173.910 212.936 173.910 L 238.163 173.910 238.163 198.754 M324.749 178.449 C 318.260 197.308,302.498 213.832,283.717 221.463 C 275.149 224.945,275.857 226.993,275.857 198.754 L 275.857 173.910 301.084 173.910 L 326.310 173.910 324.749 178.449 " stroke="none" fill-rule="evenodd" fill="black"></path></svg>