<svg width="136mm" height="120mm" version="1.1" viewBox="0 0 600 529.4117647058824" xmlns="http://www.w3.org/2000/svg"><path d="M240.627 46.707 C 218.846 49.679,195.845 61.379,179.628 77.736 C 161.222 96.300,151.000 117.910,148.094 144.399 C 146.020 163.313,149.956 184.921,158.745 202.868 C 173.085 232.149,199.969 253.768,231.309 261.221 L 237.734 262.749 237.975 273.158 L 238.215 283.568 200.494 283.568 L 162.773 283.568 162.773 302.415 L 162.773 321.262 200.468 321.262 L 238.163 321.262 238.163 341.823 L 238.163 362.384 183.334 362.384 L 128.505 362.384 128.505 381.231 L 128.505 400.079 257.010 400.079 L 385.515 400.079 385.515 381.231 L 385.515 362.384 330.686 362.384 L 275.857 362.384 275.857 341.832 L 275.857 321.280 315.480 321.057 L 355.102 320.834 355.333 302.201 L 355.564 283.568 315.684 283.568 L 275.805 283.568 276.045 273.158 L 276.286 262.749 282.711 261.221 C 313.974 253.786,340.955 232.127,355.189 203.038 C 375.938 160.636,367.465 110.427,333.973 77.326 C 309.179 52.820,275.877 41.896,240.627 46.707 M238.163 110.943 L 238.163 136.215 212.890 136.215 C 198.990 136.215,187.617 136.083,187.617 135.921 C 187.617 135.759,188.393 133.373,189.340 130.619 C 193.918 117.315,205.165 103.095,217.687 94.780 C 222.457 91.614,235.066 85.700,237.092 85.680 C 237.924 85.672,238.163 91.290,238.163 110.943 M284.424 88.505 C 299.930 95.297,312.038 106.220,320.274 120.847 C 322.406 124.632,326.403 134.464,326.403 135.921 C 326.403 136.083,315.030 136.215,301.130 136.215 L 275.857 136.215 275.857 110.943 C 275.857 91.290,276.096 85.672,276.928 85.680 C 277.517 85.686,280.891 86.957,284.424 88.505 M238.163 199.169 L 238.163 224.427 232.760 222.466 C 215.482 216.194,201.075 203.157,192.833 186.332 C 190.524 181.620,188.442 176.898,188.207 175.838 L 187.778 173.910 212.970 173.910 L 238.163 173.910 238.163 199.169 M325.813 175.838 C 325.578 176.898,323.496 181.620,321.187 186.332 C 312.945 203.157,298.538 216.194,281.260 222.466 L 275.857 224.427 275.857 199.169 L 275.857 173.910 301.050 173.910 L 326.242 173.910 325.813 175.838 " stroke="none" fill-rule="evenodd" fill="black"></path></svg>