<svg width="136mm" height="120mm" version="1.1" viewBox="0 0 600 529.4117647058824" xmlns="http://www.w3.org/2000/svg"><path d="M170.483 144.353 L 170.483 197.895 106.017 230.117 C 70.560 247.839,41.433 262.445,41.290 262.575 C 41.147 262.706,44.787 270.338,49.378 279.535 L 57.726 296.257 113.246 268.495 C 143.781 253.226,169.151 240.733,169.624 240.733 C 170.187 240.733,170.483 255.070,170.483 282.283 C 170.483 309.608,170.188 323.833,169.620 323.833 C 169.146 323.833,158.354 318.628,145.639 312.267 C 132.924 305.906,122.327 300.702,122.090 300.702 C 121.665 300.702,105.374 332.835,105.374 333.675 C 105.374 333.914,128.505 345.677,156.776 359.814 L 208.178 385.518 208.178 303.272 L 208.178 221.026 246.215 202.013 L 284.252 183.000 275.996 166.461 C 271.455 157.365,267.443 149.923,267.082 149.923 C 266.720 149.923,253.319 156.477,237.301 164.489 L 208.178 179.055 208.178 134.933 L 208.178 90.810 189.331 90.810 L 170.483 90.810 170.483 144.353 M366.668 144.353 L 366.668 197.895 302.201 230.117 C 266.744 247.839,237.615 262.447,237.470 262.580 C 237.324 262.713,241.005 270.414,245.649 279.694 L 254.094 296.566 309.952 268.649 C 340.674 253.295,366.003 240.733,366.239 240.733 C 366.475 240.733,366.668 259.430,366.668 282.283 C 366.668 305.135,366.486 323.833,366.263 323.833 C 366.041 323.833,355.183 318.627,342.136 312.264 C 329.088 305.902,318.326 300.794,318.220 300.913 C 318.114 301.032,314.321 308.550,309.790 317.619 L 301.553 334.107 352.958 359.813 L 404.362 385.518 404.362 303.480 L 404.362 221.441 442.125 202.602 C 462.894 192.240,480.061 183.492,480.273 183.161 C 480.838 182.280,464.476 149.923,463.466 149.923 C 462.994 149.923,449.503 156.477,433.485 164.489 L 404.362 179.055 404.362 134.933 L 404.362 90.810 385.515 90.810 L 366.668 90.810 366.668 144.353 " stroke="none" fill-rule="evenodd" fill="black"></path></svg>