<svg width="136mm" height="120mm" version="1.1" viewBox="0 0 600 529.4117647058824" xmlns="http://www.w3.org/2000/svg"><path d="M169.627 144.573 L 169.627 198.335 105.374 230.452 C 70.035 248.117,41.122 262.665,41.122 262.782 C 41.122 262.900,44.858 270.479,49.424 279.626 L 57.726 296.257 113.246 268.495 C 143.781 253.226,168.959 240.733,169.196 240.733 C 169.433 240.733,169.627 259.430,169.627 282.283 C 169.627 305.135,169.431 323.833,169.192 323.833 C 168.953 323.833,158.332 318.617,145.590 312.243 C 132.848 305.868,122.153 300.824,121.823 301.034 C 120.885 301.629,104.969 333.996,105.410 334.411 C 105.985 334.953,207.238 385.515,207.747 385.515 C 207.984 385.515,208.178 348.505,208.178 303.271 L 208.178 221.026 246.215 202.013 L 284.252 183.000 275.996 166.461 C 271.455 157.365,267.443 149.923,267.082 149.923 C 266.720 149.923,253.319 156.477,237.301 164.489 L 208.178 179.055 208.178 134.933 L 208.178 90.810 188.902 90.810 L 169.627 90.810 169.627 144.573 M366.668 144.353 L 366.668 197.895 302.201 230.117 C 266.744 247.839,237.615 262.447,237.470 262.580 C 237.247 262.784,253.309 295.475,254.013 296.252 C 254.144 296.397,279.351 283.964,310.028 268.624 C 340.706 253.284,366.000 240.733,366.237 240.733 C 366.474 240.733,366.668 259.430,366.668 282.283 C 366.668 309.608,366.372 323.833,365.805 323.833 C 365.330 323.833,354.494 318.606,341.724 312.217 C 328.954 305.829,318.399 300.721,318.267 300.866 C 318.135 301.011,314.321 308.550,309.790 317.619 L 301.553 334.107 352.958 359.813 L 404.362 385.518 404.362 303.480 L 404.362 221.441 442.125 202.602 C 462.894 192.240,480.061 183.492,480.273 183.161 C 480.838 182.280,464.476 149.923,463.466 149.923 C 462.994 149.923,449.503 156.477,433.485 164.489 L 404.362 179.055 404.362 134.933 L 404.362 90.810 385.515 90.810 L 366.668 90.810 366.668 144.353 " stroke="none" fill-rule="evenodd" fill="black"></path></svg>