<svg width="136mm" height="120mm" version="1.1" viewBox="0 0 600 529.4117647058824" xmlns="http://www.w3.org/2000/svg"><path d="M234.307 38.618 C 201.997 40.301,166.487 47.201,139.214 57.097 C 127.186 61.461,104.594 72.581,95.950 78.392 C 80.153 89.011,70.144 98.689,61.622 111.583 C 54.476 122.393,50.967 132.219,49.227 146.282 L 48.671 150.779 67.918 150.779 L 87.165 150.779 87.575 146.516 C 88.218 139.822,92.619 131.994,100.301 123.878 C 141.528 80.325,252.494 62.890,340.730 86.102 C 372.688 94.510,398.628 107.935,413.719 123.878 C 421.401 131.994,425.802 139.822,426.445 146.516 L 426.855 150.779 446.102 150.779 L 465.349 150.779 464.793 146.282 C 461.382 118.705,447.040 97.866,418.070 78.392 C 409.426 72.581,386.834 61.461,374.806 57.097 C 346.555 46.847,313.073 40.474,277.571 38.592 C 259.227 37.619,253.424 37.623,234.307 38.618 M169.627 166.193 L 169.627 196.171 118.867 196.392 L 68.108 196.613 67.877 215.246 L 67.646 233.879 118.636 233.879 L 169.627 233.879 169.627 316.979 L 169.627 400.079 188.902 400.079 L 208.178 400.079 208.178 316.979 L 208.178 233.879 257.010 233.879 L 305.842 233.879 305.842 316.979 L 305.842 400.079 325.118 400.079 L 344.393 400.079 344.393 316.979 L 344.393 233.879 395.384 233.879 L 446.374 233.879 446.143 215.246 L 445.912 196.613 395.153 196.392 L 344.393 196.171 344.393 166.193 L 344.393 136.215 325.118 136.215 L 305.842 136.215 305.842 166.200 L 305.842 196.184 257.010 196.184 L 208.178 196.184 208.178 166.200 L 208.178 136.215 188.902 136.215 L 169.627 136.215 169.627 166.193 " stroke="none" fill-rule="evenodd" fill="black"></path></svg>