<svg width="136mm" height="120mm" version="1.1" viewBox="0 0 600 529.4117647058824" xmlns="http://www.w3.org/2000/svg"><path d="M234.307 38.622 C 202.536 40.286,170.417 46.398,142.212 56.146 C 128.374 60.929,106.030 71.701,95.950 78.449 C 68.362 96.918,52.158 119.919,49.840 143.898 L 49.174 150.779 68.279 150.779 L 87.383 150.779 87.393 148.423 C 87.422 140.944,92.497 131.846,101.889 122.434 C 128.048 96.220,178.256 79.435,240.090 76.233 C 300.720 73.092,362.051 86.433,398.119 110.606 C 414.165 121.361,426.565 137.812,426.624 148.423 L 426.637 150.779 445.739 150.779 L 464.841 150.779 464.221 144.286 C 461.306 113.774,437.689 86.560,396.868 66.678 C 363.622 50.485,323.435 41.024,277.571 38.592 C 259.210 37.618,253.395 37.622,234.307 38.622 M169.627 166.193 L 169.627 196.171 118.867 196.392 L 68.108 196.613 67.877 215.246 L 67.646 233.879 118.636 233.879 L 169.627 233.879 169.627 316.979 L 169.627 400.079 188.902 400.079 L 208.178 400.079 208.178 316.979 L 208.178 233.879 257.010 233.879 L 305.842 233.879 305.842 316.979 L 305.842 400.079 325.118 400.079 L 344.393 400.079 344.393 316.979 L 344.393 233.879 395.384 233.879 L 446.374 233.879 446.143 215.246 L 445.912 196.613 395.153 196.392 L 344.393 196.171 344.393 166.193 L 344.393 136.215 325.118 136.215 L 305.842 136.215 305.842 166.200 L 305.842 196.184 257.010 196.184 L 208.178 196.184 208.178 166.200 L 208.178 136.215 188.902 136.215 L 169.627 136.215 169.627 166.193 " stroke="none" fill-rule="evenodd" fill="black"></path></svg>