<svg width="136mm" height="120mm" version="1.1" viewBox="0 0 600 529.4117647058824" xmlns="http://www.w3.org/2000/svg"><path d="M236.878 38.197 C 183.727 42.194,146.261 51.428,112.709 68.802 C 74.864 88.400,52.156 115.658,49.949 144.140 L 49.435 150.779 68.290 150.779 L 87.145 150.779 87.677 146.289 C 88.515 139.208,92.774 131.667,100.447 123.674 C 139.530 82.964,238.644 64.723,325.067 82.334 C 348.344 87.078,371.350 95.118,387.657 104.208 C 409.990 116.658,424.734 132.696,426.343 146.289 L 426.875 150.779 445.730 150.779 L 464.585 150.779 464.071 144.140 C 462.582 124.928,450.622 104.366,431.843 88.734 C 401.018 63.076,353.655 45.864,297.275 39.833 C 285.497 38.573,246.076 37.506,236.878 38.197 M170.483 166.200 L 170.483 196.184 119.510 196.184 L 68.536 196.184 68.536 215.025 L 68.536 233.866 119.295 234.086 L 170.055 234.307 170.273 317.193 L 170.492 400.079 189.335 400.079 L 208.178 400.079 208.178 316.979 L 208.178 233.879 257.010 233.879 L 305.842 233.879 305.842 316.979 L 305.842 400.079 324.685 400.079 L 343.528 400.079 343.747 317.193 L 343.965 234.307 394.725 234.086 L 445.484 233.866 445.484 215.025 L 445.484 196.184 394.510 196.184 L 343.537 196.184 343.537 166.200 L 343.537 136.215 324.689 136.215 L 305.842 136.215 305.842 166.200 L 305.842 196.184 257.010 196.184 L 208.178 196.184 208.178 166.200 L 208.178 136.215 189.331 136.215 L 170.483 136.215 170.483 166.200 " stroke="none" fill-rule="evenodd" fill="black"></path></svg>