<svg width="136mm" height="120mm" version="1.1" viewBox="0 0 600 529.4117647058824" xmlns="http://www.w3.org/2000/svg"><path d="M298.132 90.599 L 298.132 143.504 245.445 169.843 L 192.757 196.182 192.757 145.210 L 192.757 94.237 173.910 94.237 L 155.063 94.237 155.063 175.625 L 155.063 257.012 226.167 221.458 C 265.274 201.903,297.464 185.904,297.701 185.904 C 297.938 185.904,298.132 204.184,298.132 226.526 L 298.132 267.148 204.965 298.177 C 153.724 315.244,111.709 329.277,111.599 329.362 C 111.248 329.632,122.697 363.638,123.399 364.408 C 123.769 364.814,162.946 352.189,210.459 336.351 C 257.972 320.513,297.136 307.555,297.489 307.555 C 297.842 307.555,298.132 331.843,298.132 361.527 L 298.132 415.500 317.407 415.500 L 336.683 415.500 336.683 354.879 L 336.683 294.258 365.811 284.562 C 381.831 279.230,394.939 274.608,394.939 274.292 C 394.939 273.604,383.681 239.582,383.308 239.143 C 383.166 238.975,372.617 242.318,359.866 246.571 L 336.683 254.305 336.683 146.000 L 336.683 37.695 317.407 37.695 L 298.132 37.695 298.132 90.599 " stroke="none" fill-rule="evenodd" fill="black"></path></svg>