<svg width="136mm" height="120mm" version="1.1" viewBox="0 0 600 529.4117647058824" xmlns="http://www.w3.org/2000/svg"><path d="M101.947 81.386 L 101.947 101.947 69.821 101.947 L 37.695 101.947 37.695 120.795 L 37.695 139.642 69.821 139.642 L 101.947 139.642 101.947 161.278 L 101.947 182.914 68.590 282.977 C 46.217 350.091,35.568 383.166,36.250 383.421 C 37.793 384.000,70.604 394.939,70.796 394.939 C 70.888 394.939,82.240 361.110,96.021 319.764 L 121.080 244.590 145.777 318.693 C 159.361 359.450,170.649 393.256,170.861 393.817 C 171.127 394.521,176.515 393.090,188.213 389.211 C 197.545 386.116,205.511 383.282,205.916 382.914 C 206.321 382.545,191.575 336.997,173.147 281.696 L 139.642 181.149 139.642 160.396 L 139.642 139.642 171.768 139.642 L 203.895 139.642 203.895 120.795 L 203.895 101.947 171.768 101.947 L 139.642 101.947 139.642 81.386 L 139.642 60.826 120.795 60.826 L 101.947 60.826 101.947 81.386 M374.378 81.386 L 374.378 101.947 342.252 101.947 L 310.125 101.947 310.125 120.795 L 310.125 139.642 342.252 139.642 L 374.378 139.642 374.378 160.396 L 374.378 181.149 340.873 281.696 C 322.445 336.997,307.699 382.545,308.104 382.914 C 308.509 383.282,316.475 386.116,325.807 389.211 C 337.505 393.090,342.893 394.521,343.159 393.817 C 343.371 393.256,354.659 359.450,368.243 318.693 L 392.940 244.590 417.999 319.764 C 431.780 361.110,443.132 394.939,443.224 394.939 C 443.416 394.939,476.227 384.000,477.770 383.421 C 478.452 383.166,467.803 350.091,445.430 282.977 L 412.073 182.914 412.073 161.278 L 412.073 139.642 444.199 139.642 L 476.325 139.642 476.325 120.795 L 476.325 101.947 444.199 101.947 L 412.073 101.947 412.073 81.386 L 412.073 60.826 393.225 60.826 L 374.378 60.826 374.378 81.386 M189.331 173.910 L 189.331 192.757 198.754 192.757 L 208.178 192.757 208.178 226.597 L 208.178 260.437 198.754 260.437 L 189.331 260.437 189.331 279.284 L 189.331 298.132 257.010 298.132 L 324.689 298.132 324.689 279.284 L 324.689 260.437 315.266 260.437 L 305.842 260.437 305.842 226.597 L 305.842 192.757 315.266 192.757 L 324.689 192.757 324.689 173.910 L 324.689 155.063 257.010 155.063 L 189.331 155.063 189.331 173.910 M268.147 226.597 L 268.147 260.437 257.010 260.437 L 245.873 260.437 245.873 226.597 L 245.873 192.757 257.010 192.757 L 268.147 192.757 268.147 226.597 " stroke="none" fill-rule="evenodd" fill="black"></path></svg>