<svg width="136mm" height="120mm" version="1.1" viewBox="0 0 600 529.4117647058824" xmlns="http://www.w3.org/2000/svg"><path d="M101.947 81.386 L 101.947 101.947 69.821 101.947 L 37.695 101.947 37.695 120.795 L 37.695 139.642 69.821 139.642 L 101.947 139.642 101.947 160.850 L 101.947 182.057 68.546 282.254 C 50.175 337.362,35.429 382.706,35.777 383.019 C 36.125 383.332,43.735 386.006,52.687 388.961 C 61.640 391.916,69.406 394.496,69.945 394.693 C 70.569 394.922,79.860 368.209,95.539 321.105 C 109.076 280.434,120.399 246.882,120.701 246.545 C 121.003 246.208,132.380 279.362,145.983 320.221 C 159.586 361.080,170.785 394.600,170.871 394.711 C 171.144 395.061,205.148 383.613,205.919 382.911 C 206.325 382.541,191.579 337.003,173.150 281.715 L 139.642 181.192 139.642 160.417 L 139.642 139.642 171.768 139.642 L 203.895 139.642 203.895 120.795 L 203.895 101.947 171.768 101.947 L 139.642 101.947 139.642 81.386 L 139.642 60.826 120.795 60.826 L 101.947 60.826 101.947 81.386 M374.378 81.386 L 374.378 101.947 342.252 101.947 L 310.125 101.947 310.125 120.795 L 310.125 139.642 342.252 139.642 L 374.378 139.642 374.378 160.417 L 374.378 181.192 340.870 281.715 C 322.441 337.003,307.695 382.541,308.101 382.911 C 308.872 383.613,342.876 395.061,343.149 394.711 C 343.235 394.600,354.434 361.080,368.037 320.221 C 381.640 279.362,393.017 246.208,393.319 246.545 C 393.621 246.882,404.944 280.434,418.481 321.105 C 434.160 368.209,443.451 394.922,444.075 394.693 C 444.614 394.496,452.380 391.916,461.333 388.961 C 470.285 386.006,477.895 383.332,478.243 383.019 C 478.591 382.706,463.845 337.362,445.474 282.254 L 412.073 182.057 412.073 160.850 L 412.073 139.642 444.199 139.642 L 476.325 139.642 476.325 120.795 L 476.325 101.947 444.199 101.947 L 412.073 101.947 412.073 81.386 L 412.073 60.826 393.225 60.826 L 374.378 60.826 374.378 81.386 M188.671 173.696 L 188.902 192.329 198.540 192.571 L 208.178 192.814 208.178 226.597 L 208.178 260.381 198.540 260.623 L 188.902 260.865 188.671 279.498 L 188.441 298.132 257.010 298.132 L 325.579 298.132 325.349 279.498 L 325.118 260.865 315.480 260.623 L 305.842 260.381 305.842 226.597 L 305.842 192.814 315.480 192.571 L 325.118 192.329 325.349 173.696 L 325.579 155.063 257.010 155.063 L 188.441 155.063 188.671 173.696 M268.147 226.597 L 268.147 260.437 257.010 260.437 L 245.873 260.437 245.873 226.597 L 245.873 192.757 257.010 192.757 L 268.147 192.757 268.147 226.597 " stroke="none" fill-rule="evenodd" fill="black"></path></svg>