<svg width="136mm" height="120mm" version="1.1" viewBox="0 0 600 529.4117647058824" xmlns="http://www.w3.org/2000/svg"><path d="M238.163 64.504 L 238.163 83.603 226.811 85.135 C 183.730 90.950,149.771 109.310,137.879 133.217 C 132.337 144.358,131.877 148.252,132.135 181.834 L 132.360 211.177 151.208 211.177 L 170.055 211.177 170.280 181.371 L 170.506 151.565 172.728 148.207 C 180.487 136.482,204.559 126.328,234.522 122.140 L 238.163 121.631 238.156 169.402 L 238.150 217.173 231.088 219.090 C 221.246 221.761,206.510 229.336,198.163 236.014 C 175.407 254.221,162.773 280.526,162.773 309.697 C 162.773 358.430,198.933 398.261,247.969 403.540 C 289.722 408.036,330.536 382.398,345.681 342.162 C 353.067 322.539,353.047 296.896,345.630 277.057 C 335.147 249.016,311.241 226.926,282.932 219.120 L 275.870 217.173 275.864 169.402 L 275.857 121.631 279.498 122.131 C 303.278 125.393,322.663 132.191,334.732 141.503 C 343.337 148.142,343.046 146.827,343.537 181.192 L 343.965 211.177 362.812 211.177 L 381.660 211.177 381.660 179.479 C 381.660 144.226,381.538 143.275,375.585 131.932 C 368.053 117.578,350.571 104.128,327.688 95.078 C 317.925 91.217,300.430 86.920,287.209 85.135 L 275.857 83.603 275.857 64.504 L 275.857 45.405 257.010 45.405 L 238.163 45.405 238.163 64.504 M269.432 254.534 C 276.027 255.666,287.073 260.996,292.578 265.702 C 309.631 280.278,316.499 299.713,312.318 321.563 C 309.198 337.870,297.134 353.132,281.426 360.644 C 272.521 364.903,266.976 366.154,257.010 366.154 C 247.044 366.154,241.499 364.903,232.594 360.644 C 225.018 357.021,219.219 352.450,213.098 345.278 C 196.343 325.645,196.350 293.761,213.113 274.092 C 227.862 256.786,245.953 250.504,269.432 254.534 " stroke="none" fill-rule="evenodd" fill="black"></path></svg>