<svg width="136mm" height="120mm" version="1.1" viewBox="0 0 600 529.4117647058824" xmlns="http://www.w3.org/2000/svg"><path d="M238.163 64.551 L 238.163 83.696 227.402 85.131 C 206.419 87.930,191.101 92.412,174.338 100.658 C 156.958 109.208,144.883 119.871,138.038 132.714 C 133.066 142.042,132.789 144.520,132.788 179.659 L 132.788 211.605 151.636 211.605 L 170.483 211.605 170.483 181.910 L 170.483 152.215 172.614 148.580 C 179.306 137.161,206.227 125.602,234.093 122.183 L 238.163 121.684 238.160 169.429 L 238.156 217.173 231.948 218.694 C 222.802 220.933,206.459 229.290,198.177 235.963 C 174.147 255.325,161.818 282.542,163.030 313.552 C 163.889 335.513,171.203 354.227,185.610 371.322 C 204.440 393.665,236.876 406.706,265.806 403.565 C 278.514 402.186,286.934 399.739,298.560 394.048 C 324.143 381.524,341.257 360.256,348.834 331.569 C 351.271 322.341,351.864 304.405,350.071 294.130 C 345.382 267.252,328.635 242.516,305.994 229.027 C 298.631 224.640,287.059 219.761,280.783 218.399 L 275.857 217.329 275.857 169.507 L 275.857 121.684 279.927 122.183 C 307.552 125.573,333.320 136.505,340.995 148.093 L 343.537 151.930 343.537 181.767 L 343.537 211.605 362.421 211.605 L 381.306 211.605 381.055 177.979 C 380.820 146.557,380.688 144.038,379.044 139.534 C 368.999 112.003,334.148 91.408,287.083 85.189 L 275.857 83.705 275.857 64.555 L 275.857 45.405 257.010 45.405 L 238.163 45.405 238.163 64.551 M271.517 254.969 C 278.249 256.677,287.532 261.414,292.585 265.719 C 313.483 283.525,319.319 310.710,307.451 334.970 C 304.573 340.852,302.471 343.653,296.512 349.545 C 284.797 361.128,272.959 366.085,257.010 366.085 C 240.990 366.085,229.107 361.111,217.559 349.571 C 206.026 338.045,200.468 325.079,200.468 309.697 C 200.468 272.706,235.394 245.803,271.517 254.969 " stroke="none" fill-rule="evenodd" fill="black"></path></svg>