<svg width="136mm" height="120mm" version="1.1" viewBox="0 0 600 529.4117647058824" xmlns="http://www.w3.org/2000/svg"><path d="M238.163 64.504 L 238.163 83.603 226.844 85.137 C 178.500 91.687,143.312 113.216,134.260 141.784 C 132.440 147.528,132.360 149.116,132.360 179.479 L 132.360 211.177 151.208 211.177 L 170.055 211.177 170.483 181.153 C 170.862 154.614,171.083 150.867,172.391 148.873 C 180.552 136.427,204.058 126.309,234.522 122.131 L 238.163 121.631 238.156 169.402 L 238.150 217.173 231.088 219.090 C 214.340 223.636,195.375 236.091,184.225 249.868 C 170.559 266.754,163.890 284.235,162.989 305.535 C 162.463 317.968,163.651 327.170,167.234 338.397 C 171.905 353.036,179.397 365.228,190.619 376.449 C 214.655 400.485,250.057 409.724,282.543 400.437 C 312.275 391.937,336.405 369.176,346.148 340.439 C 361.386 295.494,341.577 246.870,299.417 225.731 C 294.234 223.133,286.815 220.144,282.932 219.090 L 275.870 217.173 275.864 169.402 L 275.857 121.631 279.498 122.131 C 309.962 126.309,333.468 136.427,341.629 148.873 C 342.937 150.867,343.158 154.614,343.537 181.153 L 343.965 211.177 362.812 211.177 L 381.660 211.177 381.660 179.479 C 381.660 149.116,381.580 147.528,379.760 141.784 C 370.708 113.216,335.520 91.687,287.176 85.137 L 275.857 83.603 275.857 64.504 L 275.857 45.405 257.010 45.405 L 238.163 45.405 238.163 64.504 M269.432 254.534 C 277.791 255.969,287.859 261.348,295.151 268.275 C 303.121 275.846,307.174 281.922,310.470 291.240 C 312.812 297.863,313.062 299.580,313.088 309.269 C 313.135 326.851,309.084 336.817,296.851 349.213 C 290.377 355.774,287.965 357.585,281.854 360.477 C 272.479 364.913,267.045 366.154,257.010 366.154 C 246.995 366.154,241.518 364.907,232.333 360.536 C 227.189 358.088,223.458 355.478,218.869 351.119 C 210.899 343.548,206.846 337.472,203.550 328.154 C 201.209 321.535,200.958 319.809,200.929 310.125 C 200.900 300.625,201.170 298.580,203.326 292.003 C 206.127 283.461,210.132 276.958,216.775 270.167 C 230.806 255.826,247.715 250.806,269.432 254.534 " stroke="none" fill-rule="evenodd" fill="black"></path></svg>