<svg width="136mm" height="120mm" version="1.1" viewBox="0 0 600 529.4117647058824" xmlns="http://www.w3.org/2000/svg"><path d="M264.720 75.385 L 264.720 113.075 189.117 113.294 L 113.513 113.513 113.282 132.146 L 113.051 150.779 188.886 150.779 L 264.720 150.779 264.720 165.975 L 264.720 181.171 182.475 263.433 L 100.230 345.695 113.515 358.959 L 126.800 372.224 195.760 303.268 L 264.720 234.311 264.720 290.626 L 264.720 346.941 240.554 334.896 L 216.388 322.850 207.949 339.711 C 203.308 348.985,199.629 356.681,199.775 356.814 C 200.287 357.281,301.558 407.789,301.984 407.789 C 302.221 407.789,302.415 349.962,302.415 279.284 L 302.415 150.779 351.692 150.779 L 400.969 150.779 400.738 132.146 L 400.507 113.513 351.461 113.292 L 302.415 113.070 302.415 75.383 L 302.415 37.695 283.568 37.695 L 264.720 37.695 264.720 75.385 " stroke="none" fill-rule="evenodd" fill="black"></path></svg>