<svg width="136mm" height="120mm" version="1.1" viewBox="0 0 600 529.4117647058824" xmlns="http://www.w3.org/2000/svg"><path d="M264.720 75.390 L 264.720 113.084 188.902 113.084 L 113.084 113.084 113.084 131.932 L 113.084 150.779 188.902 150.779 L 264.720 150.779 264.763 165.986 L 264.806 181.192 182.327 263.239 L 99.847 345.285 113.320 358.758 L 126.793 372.231 195.757 303.271 L 264.720 234.311 264.720 290.637 C 264.720 321.617,264.525 346.964,264.286 346.964 C 264.047 346.963,253.134 341.602,240.034 335.049 L 216.217 323.134 207.868 339.858 C 203.277 349.056,199.637 356.688,199.780 356.818 C 200.290 357.284,301.561 407.789,301.984 407.789 C 302.221 407.789,302.415 349.962,302.415 279.284 L 302.415 150.779 351.675 150.779 L 400.936 150.779 400.936 131.932 L 400.936 113.084 351.675 113.084 L 302.415 113.084 302.415 75.390 L 302.415 37.695 283.568 37.695 L 264.720 37.695 264.720 75.390 " stroke="none" fill-rule="evenodd" fill="black"></path></svg>