<svg width="136mm" height="120mm" version="1.1" viewBox="0 0 600 529.4117647058824" xmlns="http://www.w3.org/2000/svg"><path d="M264.720 75.385 L 264.720 113.075 189.117 113.294 L 113.513 113.513 113.282 132.146 L 113.051 150.779 188.886 150.779 L 264.720 150.779 264.720 165.975 L 264.720 181.171 182.475 263.433 L 100.230 345.695 113.515 358.959 L 126.800 372.224 195.760 303.268 L 264.720 234.311 264.720 290.637 C 264.720 321.617,264.525 346.964,264.286 346.964 C 264.047 346.963,253.134 341.602,240.034 335.049 L 216.217 323.134 207.868 339.858 C 203.277 349.056,199.637 356.688,199.780 356.818 C 200.290 357.284,301.561 407.789,301.984 407.789 C 302.221 407.789,302.415 349.962,302.415 279.284 L 302.415 150.779 351.692 150.779 L 400.969 150.779 400.738 132.146 L 400.507 113.513 351.461 113.292 L 302.415 113.070 302.415 75.383 L 302.415 37.695 283.568 37.695 L 264.720 37.695 264.720 75.385 " stroke="none" fill-rule="evenodd" fill="black"></path></svg>