<svg width="136mm" height="120mm" version="1.1" viewBox="0 0 600 529.4117647058824" xmlns="http://www.w3.org/2000/svg"><path d="M232.152 73.203 C 180.495 80.573,136.848 112.308,114.266 158.918 C 102.436 183.333,97.748 205.661,98.797 232.594 C 99.732 256.605,104.539 275.127,115.505 296.978 C 138.150 342.099,182.311 373.199,233.451 380.040 C 245.952 381.713,267.888 381.255,280.141 379.066 C 340.159 368.345,388.460 323.281,403.451 264.018 C 409.230 241.173,409.230 212.022,403.451 189.176 C 388.458 129.904,340.412 85.067,280.141 74.101 C 269.264 72.122,243.154 71.634,232.152 73.203 M279.284 112.512 C 301.346 117.707,319.945 128.039,335.829 143.923 C 381.629 189.723,381.594 263.597,335.751 309.340 C 319.650 325.406,300.148 336.039,277.473 341.116 C 265.624 343.769,241.783 343.964,230.452 341.501 C 188.304 332.337,155.580 303.354,142.302 263.427 C 124.002 208.400,148.730 148.371,200.533 122.070 C 210.811 116.852,225.912 112.242,239.448 110.191 C 240.861 109.977,248.379 109.935,256.153 110.098 C 267.440 110.334,272.102 110.821,279.284 112.512 " stroke="none" fill-rule="evenodd" fill="black"></path></svg>