<svg width="136mm" height="120mm" version="1.1" viewBox="0 0 600 529.4117647058824" xmlns="http://www.w3.org/2000/svg"><path d="M235.026 72.842 C 200.113 77.241,168.940 92.459,143.995 117.279 C 122.304 138.862,107.990 165.310,101.434 195.918 C 98.480 209.712,97.709 232.498,99.717 246.730 C 104.606 281.389,119.518 311.470,143.900 335.852 C 165.942 357.893,193.331 372.533,224.074 378.704 C 235.739 381.045,259.809 381.926,271.195 380.428 C 288.476 378.155,302.032 374.322,317.142 367.438 C 335.009 359.298,348.127 350.148,362.416 335.859 C 384.750 313.525,398.331 288.292,405.369 256.050 C 407.086 248.188,407.311 244.775,407.311 226.597 C 407.311 208.419,407.086 205.006,405.369 197.144 C 395.816 153.383,371.682 118.487,334.911 95.264 C 319.807 85.725,297.935 77.285,280.141 74.129 C 270.633 72.443,244.182 71.688,235.026 72.842 M267.313 110.541 C 293.433 113.719,317.034 125.249,335.769 143.983 C 358.035 166.249,370.094 195.274,370.094 226.597 C 370.094 258.253,358.039 286.981,335.170 309.818 C 313.461 331.497,284.384 343.476,253.360 343.522 C 192.856 343.612,142.601 297.719,136.933 237.202 C 132.684 191.836,155.154 148.433,194.899 125.236 C 215.914 112.970,242.665 107.542,267.313 110.541 " stroke="none" fill-rule="evenodd" fill="black"></path></svg>