<svg width="136mm" height="120mm" version="1.1" viewBox="0 0 600 529.4117647058824" xmlns="http://www.w3.org/2000/svg"><path d="M235.026 72.846 C 199.883 77.254,168.665 92.570,143.468 117.767 C 121.525 139.711,107.629 165.769,100.918 197.563 C 99.191 205.746,98.949 209.316,98.949 226.597 C 98.949 248.328,100.031 256.007,105.514 273.193 C 118.793 314.811,148.978 348.875,188.902 367.296 C 208.454 376.318,225.494 380.258,248.017 380.965 C 274.035 381.781,293.699 377.994,316.551 367.765 C 344.340 355.326,369.487 333.218,385.543 307.109 C 415.501 258.397,415.501 194.798,385.543 146.085 C 373.121 125.885,353.013 105.919,333.256 94.165 C 317.281 84.661,297.654 77.252,280.141 74.114 C 270.680 72.419,244.332 71.678,235.026 72.846 M267.313 110.541 C 286.099 112.827,303.221 119.255,318.829 129.883 C 344.437 147.320,361.525 172.982,368.114 203.895 C 370.300 214.149,370.300 239.045,368.114 249.300 C 356.266 304.891,309.144 343.507,253.155 343.507 C 229.813 343.507,208.166 337.016,188.902 324.239 C 129.649 284.941,118.534 203.339,165.123 149.657 C 190.167 120.798,229.109 105.892,267.313 110.541 " stroke="none" fill-rule="evenodd" fill="black"></path></svg>