<svg width="136mm" height="120mm" version="1.1" viewBox="0 0 600 529.4117647058824" xmlns="http://www.w3.org/2000/svg"><path d="M238.163 58.684 L 238.163 79.673 175.624 79.673 L 113.084 79.673 113.084 98.520 L 113.084 117.368 257.010 117.368 L 400.936 117.368 400.936 98.520 L 400.936 79.673 338.397 79.673 L 275.857 79.673 275.857 58.684 L 275.857 37.695 257.010 37.695 L 238.163 37.695 238.163 58.684 M222.871 126.009 C 217.605 126.920,206.772 130.504,201.753 132.995 C 188.862 139.394,175.097 151.790,167.730 163.634 C 150.673 191.056,151.011 226.382,168.585 253.155 C 173.985 261.382,185.803 272.978,193.851 277.947 C 210.785 288.401,224.409 291.277,257.010 291.277 C 289.611 291.277,303.235 288.401,320.169 277.947 C 328.217 272.978,340.035 261.382,345.435 253.155 C 357.095 235.392,361.588 212.037,357.321 191.364 C 350.917 160.333,328.352 136.461,296.568 127.092 C 292.472 125.884,286.647 125.624,259.580 125.437 C 241.911 125.315,225.391 125.573,222.871 126.009 M238.163 177.765 L 238.163 192.757 216.745 192.757 C 204.965 192.757,195.328 192.522,195.328 192.235 C 195.328 190.001,201.916 180.171,206.465 175.618 C 214.510 167.564,224.247 163.067,234.093 162.859 L 238.163 162.773 238.163 177.765 M286.995 163.703 C 298.022 166.242,310.342 175.936,315.908 186.452 C 317.439 189.345,318.692 191.947,318.692 192.235 C 318.692 192.522,309.055 192.757,297.275 192.757 L 275.857 192.757 275.857 177.765 L 275.857 162.773 279.498 162.794 C 281.501 162.805,284.874 163.214,286.995 163.703 M238.163 241.589 L 238.163 252.727 234.522 252.716 C 222.969 252.684,209.027 244.962,201.485 234.419 L 198.648 230.452 218.405 230.452 L 238.163 230.452 238.163 241.589 M312.535 234.419 C 304.993 244.962,291.051 252.684,279.498 252.716 L 275.857 252.727 275.857 241.589 L 275.857 230.452 295.615 230.452 L 315.372 230.452 312.535 234.419 M124.793 261.008 C 124.479 261.322,124.222 269.798,124.222 279.844 L 124.222 298.108 96.165 298.334 L 68.108 298.560 67.877 317.182 L 67.646 335.803 96.148 336.029 L 124.650 336.255 125.209 341.823 C 128.201 371.595,162.430 397.648,211.188 407.264 C 227.151 410.412,238.033 411.392,257.010 411.392 C 266.198 411.392,277.764 410.957,282.711 410.425 C 319.892 406.427,352.767 393.291,371.259 375.044 C 381.636 364.805,387.644 353.433,388.811 341.823 L 389.370 336.255 417.872 336.029 L 446.374 335.803 446.143 317.182 L 445.912 298.560 417.872 298.334 L 389.832 298.108 389.601 279.487 L 389.370 260.865 370.309 260.635 L 351.247 260.404 351.247 279.268 L 351.247 298.132 257.010 298.132 L 162.773 298.132 162.773 279.284 L 162.773 260.437 144.068 260.437 C 133.781 260.437,125.107 260.694,124.793 261.008 M350.915 338.557 C 349.642 344.924,340.266 353.462,327.798 359.609 C 308.339 369.204,286.011 373.624,257.010 373.624 C 240.222 373.624,230.964 372.786,217.388 370.039 C 192.120 364.925,168.577 352.228,163.934 341.208 C 161.459 335.333,152.910 335.826,257.117 335.826 L 351.461 335.826 350.915 338.557 " stroke="none" fill-rule="evenodd" fill="black"></path></svg>