<svg width="136mm" height="120mm" version="1.1" viewBox="0 0 600 529.4117647058824" xmlns="http://www.w3.org/2000/svg"><path d="M238.163 58.684 L 238.163 79.673 175.607 79.673 L 113.051 79.673 113.282 98.306 L 113.513 116.940 257.010 116.940 L 400.507 116.940 400.738 98.306 L 400.969 79.673 338.413 79.673 L 275.857 79.673 275.857 58.684 L 275.857 37.695 257.010 37.695 L 238.163 37.695 238.163 58.684 M222.871 126.009 C 220.350 126.445,215.338 127.813,211.734 129.048 C 184.804 138.278,165.093 159.612,157.493 187.754 C 155.894 193.673,155.563 197.105,155.563 207.750 C 155.563 223.219,157.205 230.576,163.595 243.731 C 176.692 270.697,201.375 287.604,231.737 290.407 C 243.844 291.524,270.176 291.524,282.283 290.407 C 315.204 287.368,342.717 266.585,353.712 236.449 C 357.733 225.429,358.463 221.012,358.460 207.750 C 358.457 193.458,357.019 186.146,351.916 174.475 C 343.606 155.469,326.495 138.725,307.468 130.982 C 294.427 125.675,294.447 125.677,259.580 125.437 C 241.911 125.315,225.391 125.573,222.871 126.009 M238.163 177.765 L 238.163 192.757 216.745 192.757 C 204.965 192.757,195.328 192.522,195.328 192.235 C 195.328 191.947,196.581 189.345,198.112 186.452 C 205.071 173.305,220.624 163.103,234.093 162.850 L 238.163 162.773 238.163 177.765 M287.423 163.935 C 299.075 167.042,310.353 175.957,315.908 186.452 C 317.439 189.345,318.692 191.947,318.692 192.235 C 318.692 192.522,309.055 192.757,297.275 192.757 L 275.857 192.757 275.857 177.765 L 275.857 162.773 279.498 162.783 C 281.501 162.789,285.067 163.307,287.423 163.935 M238.163 241.589 L 238.163 252.727 234.522 252.716 C 223.120 252.684,208.866 244.797,201.485 234.436 L 198.648 230.452 218.405 230.452 L 238.163 230.452 238.163 241.589 M312.535 234.417 C 309.513 238.639,303.063 244.432,298.132 247.355 C 293.877 249.877,284.057 252.727,279.622 252.727 L 275.857 252.727 275.857 241.589 L 275.857 230.452 295.615 230.452 L 315.372 230.452 312.535 234.417 M125.078 279.273 L 125.078 298.109 96.593 298.334 L 68.108 298.560 67.877 317.193 L 67.646 335.826 96.238 335.826 L 124.830 335.826 125.328 341.774 C 126.252 352.790,132.235 364.316,142.327 374.522 C 160.620 393.022,193.739 406.385,231.309 410.425 C 236.256 410.957,247.822 411.392,257.010 411.392 C 266.198 411.392,277.764 410.957,282.711 410.425 C 318.003 406.630,349.335 394.647,368.649 377.557 C 380.575 367.004,388.942 351.249,388.942 339.344 L 388.942 335.826 417.658 335.826 L 446.374 335.826 446.143 317.193 L 445.912 298.560 417.427 298.334 L 388.942 298.109 388.942 279.273 L 388.942 260.437 370.094 260.437 L 351.247 260.437 351.247 279.284 L 351.247 298.132 257.010 298.132 L 162.773 298.132 162.773 279.284 L 162.773 260.437 143.926 260.437 L 125.078 260.437 125.078 279.273 M351.247 337.196 C 351.247 342.885,341.409 352.537,329.306 358.723 C 309.061 369.070,286.965 373.624,257.010 373.624 C 240.286 373.624,230.944 372.784,217.602 370.080 C 202.507 367.021,185.711 360.464,176.202 353.920 C 171.650 350.786,164.716 343.396,163.617 340.506 C 161.700 335.462,154.424 335.826,257.010 335.826 C 342.795 335.826,351.247 335.949,351.247 337.196 " stroke="none" fill-rule="evenodd" fill="black"></path></svg>