<svg width="136mm" height="120mm" version="1.1" viewBox="0 0 600 529.4117647058824" xmlns="http://www.w3.org/2000/svg"><path d="M238.163 58.684 L 238.163 79.673 175.607 79.673 L 113.051 79.673 113.282 98.306 L 113.513 116.940 257.010 116.940 L 400.507 116.940 400.738 98.306 L 400.969 79.673 338.413 79.673 L 275.857 79.673 275.857 58.684 L 275.857 37.695 257.010 37.695 L 238.163 37.695 238.163 58.684 M230.334 125.119 C 210.730 126.865,191.993 135.941,178.358 150.295 C 171.280 157.746,168.285 161.994,163.786 170.963 C 147.542 203.341,154.774 243.306,181.381 268.196 C 191.548 277.707,204.057 284.593,218.030 288.371 C 223.426 289.830,227.334 289.993,257.010 289.993 C 286.686 289.993,290.594 289.830,295.990 288.371 C 320.622 281.711,339.436 266.288,350.446 243.731 C 356.581 231.161,358.462 222.610,358.457 207.321 C 358.452 192.665,356.796 185.091,350.841 172.472 C 346.214 162.668,343.118 158.144,335.662 150.295 C 321.552 135.441,303.638 126.977,282.283 125.075 C 271.507 124.116,241.318 124.141,230.334 125.119 M238.163 177.765 L 238.163 192.757 216.734 192.757 L 195.305 192.757 196.629 189.545 C 198.522 184.953,203.549 177.849,207.309 174.452 C 214.292 168.143,226.486 162.836,234.093 162.795 L 238.163 162.773 238.163 177.765 M288.832 164.455 C 295.056 166.378,303.250 171.048,307.375 175.023 C 310.886 178.406,315.642 185.303,317.391 189.545 L 318.715 192.757 297.286 192.757 L 275.857 192.757 275.857 177.765 L 275.857 162.773 279.622 162.773 C 281.693 162.773,285.837 163.530,288.832 164.455 M238.163 241.589 L 238.163 252.727 234.916 252.727 C 223.600 252.727,208.783 244.611,201.485 234.416 L 198.648 230.452 218.405 230.452 L 238.163 230.452 238.163 241.589 M314.409 231.277 C 314.409 233.146,306.759 241.291,301.845 244.654 C 295.259 249.161,288.271 251.815,281.268 252.469 L 275.857 252.974 275.857 241.713 L 275.857 230.452 295.133 230.452 C 306.912 230.452,314.409 230.773,314.409 231.277 M125.078 279.284 L 125.078 298.132 96.807 298.132 L 68.536 298.132 68.536 316.979 L 68.536 335.826 96.406 335.826 C 117.973 335.826,124.342 336.069,124.570 336.897 C 124.732 337.486,125.310 340.860,125.855 344.393 C 130.623 375.307,166.759 400.042,219.794 408.694 C 240.222 412.026,272.363 412.192,292.135 409.068 C 346.693 400.446,383.314 375.716,388.191 344.200 C 388.721 340.772,389.288 337.486,389.450 336.897 C 389.678 336.069,396.047 335.826,417.614 335.826 L 445.484 335.826 445.484 316.979 L 445.484 298.132 417.213 298.132 L 388.942 298.132 388.942 279.284 L 388.942 260.437 370.094 260.437 L 351.247 260.437 351.247 279.284 L 351.247 298.132 257.010 298.132 L 162.773 298.132 162.773 279.284 L 162.773 260.437 143.926 260.437 L 125.078 260.437 125.078 279.284 M350.927 338.495 C 348.689 349.689,326.752 362.941,300.273 369.094 C 274.613 375.057,239.407 375.057,213.747 369.094 C 187.268 362.941,165.331 349.689,163.093 338.495 L 162.559 335.826 257.010 335.826 L 351.461 335.826 350.927 338.495 " stroke="none" fill-rule="evenodd" fill="black"></path></svg>