<svg width="136mm" height="120mm" version="1.1" viewBox="0 0 600 529.4117647058824" xmlns="http://www.w3.org/2000/svg"><path d="M238.163 65.966 L 238.163 94.237 191.044 94.237 L 143.926 94.237 143.926 113.084 L 143.926 131.932 191.044 131.932 L 238.163 131.932 238.163 156.776 L 238.163 181.620 152.904 181.620 L 67.646 181.620 67.877 200.254 L 68.108 218.887 257.010 218.887 L 445.912 218.887 446.143 200.254 L 446.374 181.620 361.116 181.620 L 275.857 181.620 275.857 156.776 L 275.857 131.932 322.976 131.932 L 370.094 131.932 370.094 113.084 L 370.094 94.237 322.976 94.237 L 275.857 94.237 275.857 65.966 L 275.857 37.695 257.010 37.695 L 238.163 37.695 238.163 65.966 M237.336 228.800 C 217.293 233.126,198.961 244.029,185.341 259.724 C 176.048 270.433,169.884 282.329,165.550 297.920 C 163.441 305.504,163.229 307.607,163.238 320.834 C 163.246 332.896,163.565 336.649,165.093 342.680 C 174.268 378.895,201.939 405.716,238.163 413.505 C 243.184 414.585,249.035 415.071,257.010 415.071 C 264.985 415.071,270.836 414.585,275.857 413.505 C 312.081 405.716,339.752 378.895,348.927 342.680 C 350.455 336.649,350.774 332.896,350.782 320.834 C 350.791 307.567,350.583 305.518,348.443 297.818 C 343.521 280.104,335.794 266.609,323.580 254.395 C 311.682 242.497,296.037 233.583,279.828 229.466 C 269.259 226.782,248.216 226.452,237.336 228.800 M270.717 266.054 C 273.780 266.774,279.177 268.778,282.711 270.509 C 291.300 274.714,302.370 285.632,306.937 294.402 C 308.691 297.769,310.125 300.949,310.125 301.470 C 310.125 302.149,295.178 302.415,257.010 302.415 C 218.842 302.415,203.895 302.149,203.895 301.470 C 203.895 300.949,205.329 297.769,207.083 294.402 C 211.650 285.632,222.718 274.717,231.319 270.499 C 234.859 268.763,240.064 266.785,242.885 266.103 C 249.741 264.446,263.767 264.421,270.717 266.054 M309.672 342.037 C 307.181 350.483,295.281 364.236,285.472 370.007 C 276.373 375.360,268.694 377.338,257.010 377.338 C 245.326 377.338,237.647 375.360,228.548 370.007 C 218.739 364.236,206.839 350.483,204.348 342.037 L 203.779 340.110 257.010 340.110 L 310.241 340.110 309.672 342.037 " stroke="none" fill-rule="evenodd" fill="black"></path></svg>