<svg width="136mm" height="120mm" version="1.1" viewBox="0 0 600 529.4117647058824" xmlns="http://www.w3.org/2000/svg"><path d="M238.163 65.966 L 238.163 94.237 191.044 94.237 L 143.926 94.237 143.926 113.084 L 143.926 131.932 191.044 131.932 L 238.163 131.932 238.163 156.776 L 238.163 181.620 153.349 181.620 L 68.536 181.620 68.536 200.468 L 68.536 219.315 257.010 219.315 L 445.484 219.315 445.484 200.468 L 445.484 181.620 360.671 181.620 L 275.857 181.620 275.857 156.776 L 275.857 131.932 322.976 131.932 L 370.094 131.932 370.094 113.084 L 370.094 94.237 322.976 94.237 L 275.857 94.237 275.857 65.966 L 275.857 37.695 257.010 37.695 L 238.163 37.695 238.163 65.966 M239.019 228.298 C 199.758 236.132,169.354 268.053,163.587 307.493 C 162.045 318.041,162.961 334.201,165.703 344.802 C 175.809 383.883,210.699 412.578,251.232 415.145 C 295.926 417.977,337.111 388.136,348.317 344.802 C 351.059 334.201,351.975 318.041,350.433 307.493 C 344.661 268.021,313.884 235.738,274.991 228.360 C 266.453 226.740,246.993 226.707,239.019 228.298 M270.323 266.014 C 273.131 266.725,278.706 268.901,282.711 270.848 C 292.046 275.387,302.097 285.164,306.925 294.402 C 308.685 297.769,310.125 300.949,310.125 301.470 C 310.125 302.149,295.178 302.415,257.010 302.415 C 218.842 302.415,203.895 302.149,203.895 301.470 C 203.895 300.949,205.335 297.769,207.095 294.402 C 211.709 285.574,221.893 275.556,231.015 270.874 C 234.858 268.901,240.255 266.742,243.008 266.075 C 249.790 264.433,263.959 264.402,270.323 266.014 M310.125 340.647 C 310.125 342.307,304.407 352.368,301.087 356.551 C 291.243 368.951,272.881 377.805,257.010 377.805 C 241.139 377.805,222.777 368.951,212.933 356.551 C 209.613 352.368,203.895 342.307,203.895 340.647 C 203.895 340.352,227.797 340.110,257.010 340.110 C 286.223 340.110,310.125 340.352,310.125 340.647 " stroke="none" fill-rule="evenodd" fill="black"></path></svg>