<svg width="136mm" height="120mm" version="1.1" viewBox="0 0 600 529.4117647058824" xmlns="http://www.w3.org/2000/svg"><path d="M238.163 65.966 L 238.163 94.237 191.044 94.237 L 143.926 94.237 143.926 113.084 L 143.926 131.932 191.044 131.932 L 238.163 131.932 238.163 156.776 L 238.163 181.620 152.904 181.620 L 67.646 181.620 67.877 200.254 L 68.108 218.887 257.010 218.887 L 445.912 218.887 446.143 200.254 L 446.374 181.620 361.116 181.620 L 275.857 181.620 275.857 156.776 L 275.857 131.932 322.976 131.932 L 370.094 131.932 370.094 113.084 L 370.094 94.237 322.976 94.237 L 275.857 94.237 275.857 65.966 L 275.857 37.695 257.010 37.695 L 238.163 37.695 238.163 65.966 M237.673 228.780 C 199.842 236.732,171.268 266.143,164.018 304.594 C 161.906 315.795,162.679 334.160,165.728 345.250 C 174.162 375.924,197.182 400.444,226.822 410.325 C 247.129 417.094,266.891 417.094,287.198 410.325 C 317.759 400.136,340.338 375.538,348.808 343.205 C 351.338 333.546,351.916 315.905,350.054 305.197 C 344.300 272.104,321.335 244.322,290.079 232.641 C 274.918 226.976,253.698 225.412,237.673 228.780 M270.717 266.054 C 273.780 266.774,279.177 268.778,282.711 270.509 C 291.300 274.714,302.370 285.632,306.937 294.402 C 308.691 297.769,310.125 300.949,310.125 301.470 C 310.125 302.149,295.178 302.415,257.010 302.415 C 218.842 302.415,203.895 302.149,203.895 301.470 C 203.895 300.949,205.317 297.769,207.056 294.402 C 211.553 285.695,222.644 274.772,231.319 270.507 C 234.859 268.767,240.064 266.785,242.885 266.103 C 249.741 264.446,263.767 264.421,270.717 266.054 M310.125 341.001 C 310.125 341.491,309.302 343.515,308.295 345.498 C 301.117 359.640,287.961 370.864,273.287 375.367 C 268.168 376.938,264.859 377.338,257.010 377.338 C 249.161 377.338,245.852 376.938,240.733 375.367 C 226.059 370.864,212.903 359.640,205.725 345.498 C 204.718 343.515,203.895 341.491,203.895 341.001 C 203.895 340.394,220.814 340.110,257.010 340.110 C 293.206 340.110,310.125 340.394,310.125 341.001 " stroke="none" fill-rule="evenodd" fill="black"></path></svg>