<svg width="136mm" height="120mm" version="1.1" viewBox="0 0 600 529.4117647058824" xmlns="http://www.w3.org/2000/svg"><path d="M260.437 101.628 L 260.437 120.156 256.583 116.604 C 241.354 102.566,212.831 91.592,182.905 88.257 C 171.227 86.955,142.974 87.187,131.333 88.680 C 96.736 93.117,66.509 107.099,52.719 125.043 C 46.227 133.490,41.978 143.902,41.978 151.363 L 41.978 155.063 60.719 155.063 L 79.459 155.063 79.945 152.630 C 80.619 149.263,89.146 141.581,96.441 137.770 C 112.359 129.454,128.495 125.910,153.255 125.293 C 173.371 124.791,184.074 125.769,198.728 129.444 C 216.645 133.939,234.688 144.502,237.438 152.108 L 238.507 155.063 257.182 155.063 L 275.857 155.063 275.845 152.707 C 275.803 144.974,270.203 131.360,264.160 124.300 L 261.160 120.795 293.322 120.795 L 325.485 120.795 286.094 238.321 C 264.429 302.960,246.999 356.113,247.359 356.439 C 247.720 356.764,255.339 359.448,264.292 362.403 C 273.244 365.359,281.011 367.938,281.551 368.136 C 282.178 368.366,291.326 342.113,306.820 295.619 L 331.107 222.742 354.456 222.742 C 367.298 222.742,377.805 223.034,377.805 223.390 C 377.805 223.747,366.849 256.901,353.458 297.066 L 329.112 370.094 400.668 370.094 C 457.553 370.094,472.144 369.875,471.831 369.024 C 471.615 368.435,464.779 347.906,456.640 323.404 C 448.502 298.903,441.540 278.523,441.169 278.117 C 440.588 277.482,410.817 286.748,406.782 288.820 C 405.503 289.476,406.124 291.885,412.500 310.978 L 419.653 332.400 400.512 332.400 L 381.371 332.400 405.717 259.372 C 419.108 219.206,430.063 186.052,430.063 185.695 C 430.063 185.339,410.626 185.047,386.869 185.047 L 343.674 185.047 354.387 152.921 L 365.100 120.795 405.720 120.795 L 446.341 120.795 446.341 101.947 L 446.341 83.100 353.389 83.100 L 260.437 83.100 260.437 101.628 M143.926 137.104 C 115.902 141.848,91.930 157.281,76.663 180.407 C 71.464 188.283,65.901 200.732,63.774 209.249 L 62.331 215.032 53.868 215.032 L 45.405 215.032 45.405 233.879 L 45.405 252.727 53.877 252.727 L 62.348 252.727 62.949 255.939 C 63.819 260.600,67.924 272.129,70.654 277.579 C 81.284 298.802,100.066 316.234,121.657 324.915 C 144.073 333.928,167.247 334.704,189.667 327.192 C 222.187 316.297,245.596 290.696,254.426 256.367 L 255.363 252.727 265.610 252.727 L 275.857 252.727 275.857 233.879 L 275.857 215.032 265.601 215.032 L 255.344 215.032 253.983 210.106 C 244.037 174.119,218.104 148.327,182.520 139.033 C 175.988 137.327,171.748 136.836,161.488 136.601 C 154.420 136.439,146.517 136.665,143.926 137.104 M139.357 214.746 C 139.181 214.922,130.473 214.961,120.006 214.834 L 100.974 214.603 104.415 207.750 C 110.456 195.715,121.225 185.091,133.217 179.335 L 139.214 176.456 139.445 195.441 C 139.572 205.884,139.532 214.571,139.357 214.746 M192.047 183.860 C 199.890 189.073,208.091 198.164,212.368 206.384 C 214.304 210.106,215.888 213.575,215.888 214.092 C 215.888 214.746,210.032 215.032,196.613 215.032 L 177.337 215.032 177.337 195.768 L 177.337 176.505 181.817 178.271 C 184.282 179.243,188.885 181.757,192.047 183.860 M139.642 272.002 C 139.642 285.421,139.356 291.278,138.702 291.278 C 138.185 291.278,134.619 289.654,130.778 287.668 C 118.972 281.568,106.451 267.704,102.416 256.267 L 101.167 252.727 120.404 252.727 L 139.642 252.727 139.642 272.002 M215.888 253.797 C 215.886 255.964,210.871 265.303,206.859 270.611 C 204.588 273.615,200.197 278.165,197.101 280.721 C 191.706 285.177,180.959 291.278,178.507 291.278 C 177.553 291.278,177.337 287.722,177.337 272.002 L 177.337 252.727 196.613 252.727 C 211.462 252.727,215.888 252.972,215.888 253.797 " stroke="none" fill-rule="evenodd" fill="black"></path></svg>