<svg width="136mm" height="120mm" version="1.1" viewBox="0 0 600 529.4117647058824" xmlns="http://www.w3.org/2000/svg"><path d="M260.437 101.628 L 260.437 120.156 256.583 116.604 C 241.354 102.566,212.831 91.592,182.905 88.257 C 171.118 86.943,142.961 87.186,131.333 88.701 C 85.011 94.739,51.316 115.616,43.373 143.201 C 42.606 145.865,41.978 149.624,41.978 151.554 L 41.978 155.063 60.654 155.063 L 79.329 155.063 80.394 152.117 C 82.829 145.383,97.726 135.667,112.540 131.150 C 126.206 126.983,134.321 125.818,153.085 125.328 C 173.083 124.806,182.562 125.595,196.847 128.972 C 216.932 133.719,235.751 144.713,237.805 152.899 L 238.348 155.063 257.103 155.063 L 275.857 155.063 275.845 152.707 C 275.803 144.974,270.203 131.360,264.160 124.300 L 261.160 120.795 292.925 120.795 C 310.395 120.795,324.689 121.085,324.689 121.441 C 324.689 121.796,307.153 174.693,285.719 238.990 C 264.286 303.286,247.034 356.149,247.382 356.461 C 247.730 356.774,255.339 359.448,264.292 362.403 C 273.244 365.359,281.011 367.938,281.551 368.136 C 282.178 368.366,291.326 342.113,306.820 295.619 L 331.107 222.742 354.456 222.742 C 367.298 222.742,377.805 223.034,377.805 223.390 C 377.805 223.747,366.849 256.901,353.458 297.066 L 329.112 370.094 400.508 370.094 L 471.905 370.094 456.584 324.149 C 448.157 298.880,441.080 278.022,440.857 277.799 C 440.545 277.487,406.354 288.397,405.446 289.097 C 405.336 289.183,408.487 298.961,412.449 310.826 L 419.653 332.400 400.512 332.400 L 381.371 332.400 405.717 259.372 C 419.108 219.206,430.063 186.052,430.063 185.695 C 430.063 185.339,410.626 185.047,386.869 185.047 L 343.674 185.047 354.387 152.921 L 365.100 120.795 405.720 120.795 L 446.341 120.795 446.341 101.947 L 446.341 83.100 353.389 83.100 L 260.437 83.100 260.437 101.628 M142.145 137.490 C 102.647 144.976,73.439 172.390,63.409 211.391 L 62.473 215.032 53.939 215.032 L 45.405 215.032 45.405 233.879 L 45.405 252.727 53.868 252.727 L 62.331 252.727 63.694 258.154 C 70.674 285.939,89.596 309.308,115.446 322.066 C 138.748 333.566,165.192 335.392,189.667 327.192 C 222.187 316.297,245.596 290.696,254.426 256.367 L 255.363 252.727 265.610 252.727 L 275.857 252.727 275.857 233.879 L 275.857 215.032 265.601 215.032 L 255.344 215.032 253.964 210.106 C 248.739 191.453,240.857 177.648,228.217 165.008 C 215.072 151.863,199.885 143.330,181.391 138.700 C 172.049 136.361,151.452 135.726,142.145 137.490 M139.642 195.756 L 139.642 215.032 120.702 215.032 L 101.762 215.032 102.342 212.676 C 103.974 206.054,112.316 194.556,120.564 187.562 C 124.011 184.640,137.867 176.480,139.383 176.480 C 139.526 176.480,139.642 185.154,139.642 195.756 M184.102 179.083 C 194.733 183.907,206.683 195.459,212.390 206.427 C 214.314 210.125,215.888 213.575,215.888 214.092 C 215.888 214.745,210.149 215.032,197.041 215.032 L 178.194 215.032 178.194 196.184 C 178.194 181.667,178.440 177.341,179.264 177.356 C 179.853 177.366,182.030 178.143,184.102 179.083 M139.642 272.060 L 139.642 291.393 137.715 290.809 C 132.808 289.323,123.753 283.768,118.725 279.160 C 110.909 271.999,105.486 264.175,102.022 255.064 L 101.133 252.727 120.388 252.727 L 139.642 252.727 139.642 272.060 M215.888 253.896 C 215.888 256.182,209.913 266.939,205.843 271.981 C 199.398 279.967,187.730 288.508,180.121 290.810 L 178.194 291.393 178.194 272.060 L 178.194 252.727 197.041 252.727 C 212.399 252.727,215.888 252.943,215.888 253.896 " stroke="none" fill-rule="evenodd" fill="black"></path></svg>