<svg width="136mm" height="120mm" version="1.1" viewBox="0 0 600 529.4117647058824" xmlns="http://www.w3.org/2000/svg"><path d="M53.115 105.374 L 53.115 124.222 83.100 124.222 C 106.572 124.222,113.084 124.455,113.084 125.296 C 113.084 125.887,96.507 176.099,76.246 236.878 C 55.985 297.656,39.408 347.779,39.408 348.260 C 39.408 349.085,74.364 361.178,74.903 360.540 C 75.042 360.376,86.034 327.570,99.331 287.637 L 123.508 215.032 144.854 215.032 C 156.594 215.032,166.200 215.323,166.200 215.680 C 166.200 216.036,155.244 249.191,141.853 289.356 L 117.507 362.384 186.830 362.384 C 224.958 362.384,256.153 362.095,256.153 361.742 C 256.153 361.388,250.158 343.113,242.830 321.130 L 229.507 281.160 211.639 287.123 L 193.771 293.087 198.833 308.219 C 201.617 316.541,203.895 323.652,203.895 324.020 C 203.895 324.388,196.377 324.689,187.189 324.689 C 178.001 324.689,170.483 324.398,170.483 324.041 C 170.483 323.684,181.278 291.015,194.471 251.441 C 207.664 211.868,218.458 179.006,218.459 178.414 C 218.459 177.564,209.780 177.337,177.337 177.337 C 154.720 177.337,136.244 177.048,136.279 176.694 C 136.314 176.341,140.265 164.486,145.060 150.351 L 153.778 124.650 192.115 124.427 L 230.452 124.204 230.452 105.365 L 230.452 86.527 141.784 86.527 L 53.115 86.527 53.115 105.374 M268.718 87.098 C 268.404 87.412,268.147 95.893,268.147 105.945 L 268.147 124.222 300.273 124.222 C 317.943 124.222,332.400 124.512,332.400 124.868 C 332.400 125.223,315.660 175.728,295.201 237.102 C 262.425 335.423,258.173 348.777,259.434 349.424 C 262.921 351.214,293.159 360.790,293.688 360.272 C 294.011 359.955,305.103 327.242,318.335 287.578 L 342.394 215.460 363.954 215.231 C 375.813 215.105,385.515 215.108,385.515 215.237 C 385.515 215.366,374.528 248.428,361.099 288.708 C 347.670 328.988,336.683 362.043,336.683 362.164 C 336.683 362.285,367.910 362.384,406.076 362.384 C 444.242 362.384,475.469 362.095,475.469 361.742 C 475.469 361.388,469.452 343.051,462.099 320.991 C 453.634 295.596,448.370 281.015,447.750 281.243 C 447.210 281.440,439.444 284.020,430.492 286.975 C 421.539 289.931,413.927 292.607,413.576 292.923 C 413.225 293.239,415.249 300.407,418.074 308.852 C 420.899 317.298,423.210 324.316,423.210 324.448 C 423.210 324.581,415.531 324.689,406.145 324.689 L 389.081 324.689 413.427 251.661 C 426.818 211.496,437.774 178.342,437.774 177.985 C 437.774 177.629,419.269 177.337,396.652 177.337 C 374.035 177.337,355.531 177.048,355.531 176.695 C 355.531 176.341,359.418 164.390,364.169 150.137 L 372.807 124.222 409.146 124.222 L 445.484 124.222 445.484 105.374 L 445.484 86.527 357.387 86.527 C 308.933 86.527,269.032 86.784,268.718 87.098 " stroke="none" fill-rule="evenodd" fill="black"></path></svg>