<svg width="136mm" height="120mm" version="1.1" viewBox="0 0 600 529.4117647058824" xmlns="http://www.w3.org/2000/svg"><path d="M53.115 106.231 L 53.115 125.078 83.100 125.078 C 99.591 125.078,113.084 125.369,113.084 125.724 C 113.084 126.080,96.507 176.099,76.246 236.878 C 55.985 297.656,39.408 347.779,39.408 348.262 C 39.408 349.057,70.692 359.951,73.564 360.156 C 74.428 360.217,81.718 339.436,98.928 287.851 L 123.078 215.460 144.639 215.231 C 156.497 215.105,166.200 215.301,166.200 215.665 C 166.200 216.030,155.244 249.191,141.853 289.356 L 117.507 362.384 186.830 362.384 C 224.958 362.384,256.153 362.095,256.153 361.742 C 256.153 361.388,250.158 343.113,242.830 321.130 L 229.507 281.160 211.639 287.123 L 193.771 293.087 198.833 308.219 C 201.617 316.541,203.895 323.652,203.895 324.020 C 203.895 324.388,196.213 324.689,186.825 324.689 L 169.756 324.689 194.107 251.691 C 207.500 211.542,218.459 178.387,218.459 178.015 C 218.459 177.642,199.954 177.337,177.337 177.337 C 154.720 177.337,136.215 177.043,136.215 176.683 C 136.215 176.324,140.007 164.662,144.641 150.768 L 153.067 125.507 191.760 125.284 L 230.452 125.061 230.452 106.222 L 230.452 87.383 141.784 87.383 L 53.115 87.383 53.115 106.231 M268.345 106.017 L 268.575 124.650 300.488 124.874 C 318.039 124.998,332.400 125.192,332.400 125.306 C 332.400 125.421,315.660 175.728,295.201 237.102 C 262.425 335.423,258.173 348.777,259.434 349.424 C 262.921 351.214,293.159 360.790,293.688 360.272 C 294.011 359.955,305.103 327.242,318.335 287.578 L 342.394 215.460 363.954 215.231 C 376.983 215.093,385.515 215.321,385.515 215.807 C 385.515 216.249,374.529 249.313,361.101 289.283 C 347.673 329.253,336.686 362.052,336.685 362.170 C 336.684 362.288,367.910 362.384,406.076 362.384 C 444.242 362.384,475.469 362.095,475.469 361.742 C 475.469 361.388,469.473 343.113,462.145 321.130 L 448.822 281.160 430.954 287.123 L 413.087 293.087 418.148 308.219 C 420.932 316.541,423.210 323.652,423.210 324.020 C 423.210 324.388,415.531 324.689,406.145 324.689 L 389.081 324.689 413.427 251.661 C 426.818 211.496,437.774 178.342,437.774 177.985 C 437.774 177.629,419.269 177.337,396.652 177.337 C 374.035 177.337,355.531 177.043,355.531 176.683 C 355.531 176.324,359.322 164.662,363.956 150.768 L 372.382 125.507 409.147 125.078 L 445.912 124.650 446.143 106.017 L 446.374 87.383 357.244 87.383 L 268.114 87.383 268.345 106.017 " stroke="none" fill-rule="evenodd" fill="black"></path></svg>