<svg width="136mm" height="120mm" version="1.1" viewBox="0 0 600 529.4117647058824" xmlns="http://www.w3.org/2000/svg"><path d="M75.390 98.520 L 75.390 117.368 257.010 117.368 L 438.630 117.368 438.630 98.520 L 438.630 79.673 257.010 79.673 L 75.390 79.673 75.390 98.520 M96.402 237.260 C 65.319 299.431,40.069 350.469,40.290 350.677 C 40.512 350.885,48.114 354.762,57.184 359.293 L 73.674 367.532 96.160 322.551 L 118.646 277.570 165.982 324.900 L 213.318 372.230 226.808 358.740 L 240.298 345.249 188.474 293.420 L 136.650 241.590 161.705 191.471 C 175.486 163.905,186.761 141.162,186.761 140.930 C 186.761 140.439,154.544 124.222,153.569 124.222 C 153.210 124.222,127.484 175.089,96.402 237.260 M322.978 237.302 L 266.436 350.383 282.704 358.525 C 291.651 363.004,299.360 366.668,299.835 366.668 C 300.310 366.668,310.755 346.558,323.046 321.979 L 345.393 277.291 392.865 324.757 L 440.336 372.223 453.623 358.957 L 466.909 345.691 415.004 293.780 L 363.098 241.870 388.441 191.188 L 413.785 140.507 397.517 132.364 C 388.569 127.886,380.860 124.222,380.384 124.222 C 379.908 124.222,354.076 175.108,322.978 237.302 " stroke="none" fill-rule="evenodd" fill="black"></path></svg>