<svg width="136mm" height="120mm" version="1.1" viewBox="0 0 600 529.4117647058824" xmlns="http://www.w3.org/2000/svg"><path d="M75.587 98.306 L 75.818 116.940 257.010 116.940 L 438.202 116.940 438.433 98.306 L 438.664 79.673 257.010 79.673 L 75.356 79.673 75.587 98.306 M96.591 236.878 C 65.612 298.840,40.265 349.726,40.265 349.959 C 40.265 350.451,72.481 366.668,73.460 366.668 C 73.822 366.668,84.136 346.620,96.380 322.117 L 118.642 277.566 165.980 324.898 L 213.318 372.230 226.808 358.740 L 240.298 345.249 188.474 293.420 L 136.650 241.590 161.705 191.471 C 175.486 163.905,186.761 141.162,186.761 140.930 C 186.761 140.439,154.545 124.222,153.571 124.222 C 153.212 124.222,127.571 174.917,96.591 236.878 M322.978 237.302 L 266.436 350.383 282.704 358.525 C 291.651 363.004,299.360 366.668,299.835 366.668 C 300.310 366.668,310.755 346.558,323.046 321.979 L 345.393 277.291 392.865 324.757 L 440.336 372.223 453.623 358.957 L 466.909 345.691 415.004 293.780 L 363.098 241.870 388.361 191.348 L 413.625 140.826 396.994 132.524 C 387.847 127.958,380.174 124.222,379.941 124.222 C 379.709 124.222,354.076 175.108,322.978 237.302 " stroke="none" fill-rule="evenodd" fill="black"></path></svg>