<svg width="136mm" height="120mm" version="1.1" viewBox="0 0 600 529.4117647058824" xmlns="http://www.w3.org/2000/svg"><path d="M238.163 54.829 L 238.163 71.963 234.271 71.963 C 228.430 71.963,217.960 74.351,210.836 77.308 C 192.310 84.998,176.898 101.337,170.407 120.170 C 158.114 155.840,175.921 195.195,210.928 209.725 C 217.970 212.648,228.455 215.032,234.271 215.032 C 237.851 215.032,238.163 215.203,238.163 217.173 C 238.163 219.305,238.124 219.315,230.181 219.315 C 217.268 219.315,206.679 221.824,194.899 227.675 C 183.625 233.274,172.290 243.059,165.289 253.233 C 161.454 258.807,155.541 271.843,153.667 278.856 C 151.201 288.084,151.385 309.865,154.005 318.940 C 158.057 332.969,164.711 344.372,174.484 354.033 C 182.167 361.628,187.248 365.229,196.650 369.743 C 206.424 374.436,216.235 376.831,228.525 377.523 L 238.163 378.067 238.163 396.783 L 238.163 415.500 257.010 415.500 L 275.857 415.500 275.857 396.783 L 275.857 378.067 285.495 377.542 C 321.851 375.564,350.070 353.372,360.015 318.940 C 362.635 309.865,362.819 288.084,360.353 278.856 C 356.627 264.914,347.632 249.786,337.482 240.389 C 330.563 233.982,326.002 230.957,316.703 226.606 C 306.027 221.609,299.646 220.106,286.780 219.555 C 276.210 219.103,275.857 219.026,275.857 217.187 C 275.857 215.432,276.369 215.245,282.497 214.755 C 299.694 213.381,315.264 205.747,327.804 192.542 C 354.164 164.785,354.164 122.210,327.804 94.452 C 315.264 81.247,299.694 73.614,282.497 72.239 L 275.857 71.709 275.857 54.702 L 275.857 37.695 257.010 37.695 L 238.163 37.695 238.163 54.829 M238.163 143.615 L 238.163 177.573 233.359 177.008 C 215.256 174.881,201.361 156.066,204.663 138.150 C 206.437 128.520,211.340 120.847,219.156 115.469 C 223.467 112.503,231.147 109.774,235.378 109.704 L 238.163 109.658 238.163 143.615 M285.340 111.018 C 297.882 114.686,306.915 124.895,309.361 138.169 C 312.651 156.026,298.715 174.886,280.661 177.008 L 275.857 177.573 275.857 143.615 L 275.857 109.658 278.272 109.658 C 279.600 109.658,282.781 110.270,285.340 111.018 M238.163 298.686 L 238.163 340.362 230.238 339.863 C 212.714 338.762,200.099 330.539,193.001 315.594 C 190.282 309.869,189.871 308.114,189.514 300.707 C 188.865 287.221,192.747 277.273,202.192 268.217 C 210.169 260.569,218.997 257.163,231.095 257.066 L 238.163 257.010 238.163 298.686 M298.340 259.528 C 308.510 263.423,318.093 272.982,322.278 283.403 C 323.934 287.528,324.238 289.864,324.248 298.560 C 324.261 308.655,324.204 308.960,321.099 315.463 C 313.887 330.565,301.357 338.758,283.782 339.863 L 275.857 340.362 275.857 298.574 L 275.857 256.785 284.639 257.214 C 290.784 257.514,294.897 258.209,298.340 259.528 " stroke="none" fill-rule="evenodd" fill="black"></path></svg>