<svg width="136mm" height="120mm" version="1.1" viewBox="0 0 600 529.4117647058824" xmlns="http://www.w3.org/2000/svg"><path d="M238.163 54.703 L 238.163 71.711 231.666 72.261 C 214.038 73.751,198.483 81.431,185.746 94.933 C 170.180 111.434,163.412 134.172,167.558 156.039 C 170.575 171.953,177.490 184.423,189.715 195.995 C 201.119 206.790,216.484 213.634,231.952 214.808 C 237.648 215.240,238.163 215.436,238.163 217.174 C 238.163 219.005,237.796 219.085,227.240 219.548 C 202.565 220.629,181.470 231.677,167.019 251.087 C 156.674 264.983,151.501 280.813,151.529 298.494 C 151.579 330.871,170.594 359.138,200.777 371.703 C 208.836 375.058,222.545 377.805,231.229 377.805 L 238.163 377.805 238.163 396.652 L 238.163 415.500 257.010 415.500 L 275.857 415.500 275.857 396.652 L 275.857 377.805 282.791 377.805 C 315.210 377.805,345.611 357.147,357.177 327.259 C 363.682 310.448,364.293 289.972,358.774 273.716 C 350.320 248.815,330.456 229.674,305.414 222.297 C 299.592 220.583,295.027 219.909,286.780 219.548 C 276.224 219.085,275.857 219.005,275.857 217.174 C 275.857 215.436,276.372 215.240,282.068 214.808 C 291.259 214.110,298.376 212.038,308.241 207.187 C 322.914 199.972,335.599 186.431,342.036 171.110 C 345.207 163.563,347.794 151.327,347.809 143.806 C 347.881 107.185,318.745 75.337,282.354 72.261 L 275.857 71.711 275.857 54.703 L 275.857 37.695 257.010 37.695 L 238.163 37.695 238.163 54.703 M238.163 143.497 L 238.163 177.337 235.510 177.337 C 231.160 177.337,223.890 174.838,219.539 171.848 C 203.098 160.550,199.515 137.905,211.724 122.459 C 217.292 115.415,227.698 109.908,235.807 109.714 L 238.163 109.658 238.163 143.497 M284.713 110.942 C 294.862 113.586,303.811 121.719,307.571 131.716 C 310.131 138.524,310.118 148.503,307.541 155.357 C 303.017 167.390,289.879 177.337,278.510 177.337 L 275.857 177.337 275.857 143.497 L 275.857 109.658 277.819 109.658 C 278.898 109.658,282.001 110.236,284.713 110.942 M238.163 298.560 L 238.163 340.110 232.808 340.095 C 215.013 340.046,200.982 331.619,193.477 316.473 C 190.206 309.872,189.897 308.648,189.519 300.812 C 188.865 287.212,192.718 277.300,202.192 268.217 C 210.169 260.569,218.997 257.163,231.095 257.066 L 238.163 257.010 238.163 298.560 M298.340 259.528 C 308.510 263.423,318.093 272.982,322.278 283.403 C 323.934 287.528,324.238 289.864,324.248 298.560 C 324.261 308.679,324.211 308.946,321.057 315.550 C 317.247 323.529,309.482 331.817,302.503 335.353 C 296.935 338.175,288.403 340.075,281.212 340.095 L 275.857 340.110 275.857 298.448 L 275.857 256.785 284.639 257.214 C 290.784 257.514,294.897 258.209,298.340 259.528 " stroke="none" fill-rule="evenodd" fill="black"></path></svg>