<svg width="136mm" height="120mm" version="1.1" viewBox="0 0 600 529.4117647058824" xmlns="http://www.w3.org/2000/svg"><path d="M238.163 54.703 L 238.163 71.711 231.666 72.261 C 210.946 74.012,191.778 85.074,179.481 102.376 C 174.513 109.367,171.784 115.022,169.067 123.958 C 167.048 130.599,166.773 132.941,166.773 143.497 C 166.773 154.108,167.043 156.380,169.113 163.201 C 175.155 183.112,188.044 198.511,206.036 207.318 C 215.691 212.044,222.871 214.119,231.952 214.808 C 237.648 215.240,238.163 215.436,238.163 217.174 C 238.163 219.005,237.796 219.085,227.240 219.548 C 210.027 220.302,195.025 225.692,181.840 235.860 C 144.215 264.876,140.902 321.130,174.848 354.599 C 189.109 368.660,207.386 376.476,228.525 377.553 L 238.163 378.044 238.163 396.772 L 238.163 415.500 257.010 415.500 L 275.857 415.500 275.857 396.772 L 275.857 378.044 285.495 377.553 C 306.634 376.476,324.911 368.660,339.172 354.599 C 373.087 321.160,369.771 264.850,332.180 235.860 C 318.995 225.692,303.993 220.302,286.780 219.548 C 276.224 219.085,275.857 219.005,275.857 217.174 C 275.857 215.436,276.372 215.240,282.068 214.808 C 297.932 213.604,314.135 206.273,325.483 195.166 C 335.049 185.803,341.034 175.926,344.956 163.027 C 346.972 156.397,347.247 154.050,347.247 143.497 C 347.247 132.945,346.972 130.598,344.956 123.967 C 341.164 111.497,335.917 102.570,327.045 93.497 C 315.049 81.230,299.164 73.682,282.354 72.261 L 275.857 71.711 275.857 54.703 L 275.857 37.695 257.010 37.695 L 238.163 37.695 238.163 54.703 M238.163 143.497 L 238.163 177.337 235.297 177.337 C 228.319 177.337,218.689 172.506,212.905 166.104 C 204.281 156.558,201.855 140.173,207.427 129.110 C 212.940 118.164,224.922 109.974,235.807 109.714 L 238.163 109.658 238.163 143.497 M284.713 110.942 C 308.601 117.164,317.590 146.924,301.287 165.813 C 295.658 172.335,285.865 177.337,278.723 177.337 L 275.857 177.337 275.857 143.497 L 275.857 109.658 277.819 109.658 C 278.898 109.658,282.001 110.236,284.713 110.942 M238.163 298.560 L 238.163 340.110 232.380 340.097 C 220.776 340.072,211.123 336.505,203.059 329.261 C 192.868 320.107,188.817 310.042,189.512 295.601 C 189.887 287.809,190.232 286.377,193.152 280.469 C 195.267 276.188,198.064 272.282,201.279 269.117 C 209.841 260.686,218.550 257.166,231.095 257.066 L 238.163 257.010 238.163 298.560 M294.246 258.323 C 301.347 260.173,307.078 263.524,312.626 269.073 C 321.079 277.526,324.661 286.362,324.679 298.801 C 324.696 310.909,320.351 320.652,311.208 329.008 C 303.077 336.440,293.394 340.071,281.640 340.097 L 275.857 340.110 275.857 298.560 L 275.857 257.010 282.531 257.010 C 286.201 257.010,291.473 257.601,294.246 258.323 " stroke="none" fill-rule="evenodd" fill="black"></path></svg>