<svg width="136mm" height="120mm" version="1.1" viewBox="0 0 600 529.4117647058824" xmlns="http://www.w3.org/2000/svg"><path d="M245.445 38.685 C 210.295 42.616,179.251 67.877,167.608 102.021 C 160.203 123.735,161.399 148.769,170.888 170.665 C 179.007 189.400,196.471 207.541,215.460 216.967 C 237.087 227.703,264.240 229.321,287.851 221.281 C 311.719 213.155,333.270 193.423,343.132 170.665 C 352.621 148.769,353.817 123.735,346.412 102.021 C 334.539 67.202,303.698 42.534,267.110 38.591 C 257.757 37.583,255.199 37.594,245.445 38.685 M265.376 76.251 C 277.138 77.779,288.381 83.581,297.500 92.828 C 302.202 97.597,308.445 106.998,309.672 111.157 L 310.241 113.084 257.010 113.084 L 203.779 113.084 204.348 111.157 C 205.575 106.998,211.818 97.597,216.520 92.828 C 229.869 79.291,246.177 73.757,265.376 76.251 M310.125 151.725 C 310.125 152.245,308.685 155.425,306.925 158.793 C 302.814 166.658,292.135 177.608,284.424 181.864 C 276.080 186.470,267.767 188.474,257.010 188.474 C 246.253 188.474,237.940 186.470,229.596 181.864 C 221.885 177.608,211.206 166.658,207.095 158.793 C 205.335 155.425,203.895 152.245,203.895 151.725 C 203.895 151.045,218.842 150.779,257.010 150.779 C 295.178 150.779,310.125 151.045,310.125 151.725 M128.505 253.155 C 128.505 282.133,128.179 305.842,127.781 305.842 C 126.137 305.842,116.642 298.936,112.656 294.840 C 110.300 292.419,106.915 288.033,105.135 285.092 C 99.501 275.791,99.126 273.684,98.728 249.086 L 98.371 227.025 79.519 227.025 L 60.668 227.025 61.060 251.227 C 61.406 272.524,61.671 276.213,63.274 281.962 C 71.497 311.461,92.610 334.052,120.152 342.820 L 128.505 345.479 128.505 378.776 L 128.505 412.073 147.352 412.073 L 166.200 412.073 166.200 378.858 L 166.200 345.643 172.586 343.661 C 199.810 335.210,220.518 315.110,229.645 288.276 C 233.377 277.301,233.990 272.296,234.495 248.657 L 234.956 227.025 215.570 227.025 L 196.184 227.025 196.184 247.116 C 196.184 258.281,195.769 269.223,195.250 271.746 C 193.667 279.432,188.766 288.276,182.550 294.662 C 177.752 299.591,169.013 305.807,166.842 305.834 C 166.489 305.838,166.200 282.133,166.200 253.155 L 166.200 200.468 147.352 200.468 L 128.505 200.468 128.505 253.155 M347.820 253.155 C 347.820 282.133,347.531 305.838,347.178 305.834 C 346.824 305.829,344.415 304.611,341.823 303.126 C 335.427 299.461,327.357 291.170,323.620 284.424 C 318.483 275.154,317.836 271.041,317.836 247.677 L 317.836 227.025 298.440 227.025 L 279.044 227.025 279.543 249.514 C 280.074 273.409,280.847 279.233,284.943 290.190 C 294.678 316.233,314.979 335.449,341.434 343.661 L 347.820 345.643 347.820 378.858 L 347.820 412.073 366.668 412.073 L 385.515 412.073 385.515 378.776 L 385.515 345.479 393.868 342.820 C 421.230 334.109,442.589 311.309,450.697 282.156 C 452.359 276.178,452.611 272.736,452.960 251.227 L 453.352 227.025 434.501 227.025 L 415.649 227.025 415.292 249.086 C 414.894 273.684,414.519 275.791,408.885 285.092 C 407.105 288.033,403.720 292.419,401.364 294.840 C 397.378 298.936,387.883 305.842,386.239 305.842 C 385.841 305.842,385.515 282.133,385.515 253.155 L 385.515 200.468 366.668 200.468 L 347.820 200.468 347.820 253.155 " stroke="none" fill-rule="evenodd" fill="black"></path></svg>