<svg width="136mm" height="120mm" version="1.1" viewBox="0 0 600 529.4117647058824" xmlns="http://www.w3.org/2000/svg"><path d="M244.121 38.637 C 213.728 42.568,186.012 62.789,172.167 91.137 C 161.934 112.088,159.916 137.883,166.801 159.754 C 176.643 191.023,200.802 214.439,232.332 223.269 C 243.074 226.277,263.061 227.071,274.411 224.941 C 305.922 219.026,332.551 197.195,344.424 167.545 C 349.749 154.246,350.783 148.413,350.734 131.932 C 350.694 118.464,350.456 116.070,348.398 108.393 C 335.999 62.139,291.673 32.487,244.121 38.637 M267.969 76.720 C 280.682 79.282,293.911 87.323,301.415 97.050 C 304.627 101.213,310.088 110.875,310.115 112.442 C 310.121 112.795,286.223 113.084,257.010 113.084 C 227.797 113.084,203.895 112.843,203.895 112.547 C 203.895 112.251,205.058 109.649,206.479 106.764 C 215.488 88.477,235.786 75.750,256.404 75.459 C 259.133 75.421,264.337 75.988,267.969 76.720 M310.125 151.725 C 310.125 152.245,308.685 155.425,306.925 158.793 C 302.097 168.030,292.046 177.807,282.711 182.346 C 273.130 187.005,266.968 188.474,257.010 188.474 C 247.052 188.474,240.890 187.005,231.309 182.346 C 221.974 177.807,211.923 168.030,207.095 158.793 C 205.335 155.425,203.895 152.245,203.895 151.725 C 203.895 151.045,218.842 150.779,257.010 150.779 C 295.178 150.779,310.125 151.045,310.125 151.725 M128.505 253.205 L 128.505 305.942 123.573 303.314 C 114.038 298.231,105.030 287.521,101.001 276.477 C 99.209 271.565,99.030 269.411,98.724 249.086 L 98.393 227.025 79.530 227.025 L 60.668 227.025 61.037 251.227 C 61.370 272.978,61.601 276.121,63.321 282.263 C 71.514 311.522,91.832 333.251,119.875 342.744 L 128.485 345.658 128.709 378.651 L 128.933 411.644 147.567 411.875 L 166.200 412.106 166.200 378.819 L 166.200 345.531 171.554 344.044 C 194.701 337.617,215.598 319.633,226.170 297.041 C 232.740 283.000,234.657 270.888,234.707 243.089 L 234.736 227.025 215.460 227.025 L 196.184 227.025 196.173 248.229 C 196.161 269.308,196.147 269.473,193.723 276.437 C 190.961 284.372,185.150 293.114,179.687 297.554 C 175.589 300.885,167.934 305.842,166.889 305.842 C 166.510 305.842,166.200 282.133,166.200 253.155 L 166.200 200.468 147.352 200.468 L 128.505 200.468 128.505 253.205 M347.820 253.155 C 347.820 282.133,347.510 305.842,347.131 305.842 C 346.081 305.842,338.422 300.878,334.285 297.515 C 328.633 292.921,322.427 283.450,319.968 275.665 C 317.938 269.240,317.836 267.908,317.836 247.970 L 317.836 227.025 298.560 227.025 L 279.284 227.025 279.292 242.660 C 279.305 270.874,281.183 282.813,287.847 297.041 C 298.452 319.683,319.269 337.578,342.466 343.995 L 347.820 345.476 347.820 378.791 L 347.820 412.106 366.453 411.875 L 385.087 411.644 385.311 378.613 L 385.535 345.582 391.736 343.670 C 420.722 334.735,442.277 312.133,450.801 281.735 C 452.341 276.244,452.620 272.300,452.961 251.227 L 453.352 227.025 434.490 227.025 L 415.627 227.025 415.296 249.086 C 414.990 269.411,414.811 271.565,413.019 276.477 C 409.008 287.471,399.981 298.232,390.552 303.258 L 385.515 305.942 385.515 253.205 L 385.515 200.468 366.668 200.468 L 347.820 200.468 347.820 253.155 " stroke="none" fill-rule="evenodd" fill="black"></path></svg>