<svg width="136mm" height="120mm" version="1.1" viewBox="0 0 600 529.4117647058824" xmlns="http://www.w3.org/2000/svg"><path d="M206.037 59.967 L 194.465 83.100 167.053 83.100 L 139.642 83.100 139.642 101.947 L 139.642 120.795 157.634 120.795 L 175.626 120.795 145.638 180.765 L 115.650 240.736 132.317 249.057 C 141.484 253.633,149.153 257.198,149.358 256.979 C 149.564 256.761,156.381 243.281,164.506 227.025 C 177.188 201.655,179.415 197.702,180.236 199.109 C 186.000 208.998,192.653 217.637,200.829 225.852 C 217.618 242.719,235.052 252.353,259.152 258.081 C 266.599 259.851,269.019 259.924,330.044 260.212 L 393.225 260.509 393.225 241.663 L 393.225 222.816 331.757 222.542 C 271.076 222.270,270.201 222.242,263.435 220.343 C 248.750 216.221,234.563 207.533,224.735 196.644 C 214.066 184.823,206.113 167.453,205.049 153.645 L 204.530 146.917 211.071 133.856 L 217.613 120.795 250.590 120.795 L 283.568 120.795 283.568 101.947 L 283.568 83.100 260.004 83.100 L 236.440 83.100 243.777 68.444 C 247.813 60.383,250.995 53.680,250.850 53.548 C 250.704 53.416,243.165 49.601,234.097 45.071 L 217.610 36.834 206.037 59.967 M332.245 107.446 C 332.094 120.836,331.724 132.039,331.421 132.340 C 331.119 132.642,323.123 129.011,313.653 124.272 C 304.183 119.532,296.240 115.654,296.002 115.654 C 295.499 115.654,279.284 147.863,279.284 148.862 C 279.284 149.231,286.226 152.986,294.710 157.207 C 303.195 161.428,310.008 165.275,309.852 165.755 C 309.357 167.277,299.196 172.744,293.199 174.715 C 290.022 175.759,284.821 176.831,281.640 177.099 L 275.857 177.585 275.857 196.309 L 275.857 215.032 280.457 215.032 C 286.842 215.032,298.208 212.929,305.778 210.347 C 319.728 205.590,330.719 198.858,341.055 188.739 L 346.712 183.201 365.521 192.612 L 384.329 202.024 392.653 185.349 C 397.232 176.178,400.808 168.407,400.600 168.080 C 400.392 167.752,392.461 163.630,382.974 158.918 C 367.838 151.400,365.788 150.141,366.230 148.637 C 366.507 147.695,367.490 143.152,368.414 138.541 C 369.839 131.431,370.094 126.584,370.094 106.629 L 370.094 83.100 351.307 83.100 L 332.519 83.100 332.245 107.446 M173.910 284.853 L 173.910 298.132 151.208 298.132 L 128.505 298.132 128.505 316.979 L 128.505 335.826 151.110 335.826 L 173.716 335.826 174.102 347.606 C 174.550 361.282,175.956 366.010,182.027 374.257 C 200.415 399.235,251.182 410.780,295.133 399.979 C 315.428 394.992,331.353 385.666,339.809 373.815 C 345.706 365.552,347.181 360.531,347.634 347.178 L 348.019 335.826 364.625 335.826 L 381.231 335.826 381.231 316.979 L 381.231 298.132 364.548 298.132 L 347.865 298.132 347.628 285.067 L 347.392 272.002 328.759 271.771 L 310.125 271.540 310.125 284.836 L 310.125 298.132 260.865 298.132 L 211.605 298.132 211.605 284.853 L 211.605 271.574 192.757 271.574 L 173.910 271.574 173.910 284.853 M309.948 343.458 C 310.194 350.516,310.145 350.717,307.511 353.435 C 296.548 364.745,260.308 369.655,235.136 363.240 C 227.141 361.202,217.304 356.700,213.961 353.549 C 211.728 351.444,211.605 350.925,211.605 343.571 L 211.605 335.812 260.651 336.034 L 309.697 336.255 309.948 343.458 " stroke="none" fill-rule="evenodd" fill="black"></path></svg>