<svg width="136mm" height="120mm" version="1.1" viewBox="0 0 600 529.4117647058824" xmlns="http://www.w3.org/2000/svg"><path d="M206.037 59.967 L 194.465 83.100 167.053 83.100 L 139.642 83.100 139.642 101.947 L 139.642 120.795 157.634 120.795 L 175.626 120.795 145.638 180.765 L 115.650 240.736 132.317 249.057 C 141.484 253.633,149.153 257.198,149.358 256.979 C 149.564 256.761,156.381 243.281,164.506 227.025 C 177.085 201.860,179.422 197.706,180.236 199.062 C 192.256 219.086,206.512 233.825,224.077 244.389 C 230.911 248.499,241.990 253.203,250.988 255.814 C 266.348 260.272,269.155 260.430,333.470 260.433 L 393.225 260.437 393.225 241.626 L 393.225 222.816 331.329 222.535 C 269.816 222.256,269.393 222.243,263.065 220.310 C 234.149 211.480,213.916 190.828,206.798 162.877 C 203.514 149.983,203.736 148.502,211.182 133.634 L 217.613 120.795 250.590 120.795 L 283.568 120.795 283.568 101.947 L 283.568 83.100 260.004 83.100 L 236.440 83.100 243.777 68.444 C 247.813 60.383,250.995 53.680,250.850 53.548 C 250.704 53.416,243.165 49.601,234.097 45.071 L 217.610 36.834 206.037 59.967 M332.245 107.446 C 332.094 120.836,331.724 132.039,331.421 132.340 C 331.119 132.642,323.123 129.011,313.653 124.272 C 304.183 119.532,296.240 115.654,296.002 115.654 C 295.499 115.654,279.284 147.863,279.284 148.862 C 279.284 149.231,286.223 152.985,294.705 157.204 C 303.186 161.424,310.125 165.148,310.125 165.480 C 310.125 166.358,306.087 169.068,300.834 171.715 C 295.256 174.525,284.624 177.337,279.576 177.337 L 275.857 177.337 275.857 196.184 L 275.857 215.032 280.355 215.025 C 290.476 215.011,306.065 211.060,316.833 205.781 C 326.259 201.159,332.757 196.643,340.249 189.505 L 346.812 183.251 365.730 192.717 L 384.648 202.184 392.792 185.914 C 397.271 176.965,400.936 169.256,400.936 168.783 C 400.936 168.309,393.129 164.021,383.587 159.254 C 374.046 154.487,366.123 150.482,365.980 150.353 C 365.837 150.223,366.567 147.086,367.601 143.381 C 369.305 137.278,369.518 134.124,369.862 109.872 L 370.241 83.100 351.380 83.100 L 332.519 83.100 332.245 107.446 M173.910 285.281 L 173.910 298.132 151.208 298.132 L 128.505 298.132 128.505 316.979 L 128.505 335.826 151.110 335.826 L 173.716 335.826 174.102 347.606 C 174.550 361.282,175.956 366.010,182.027 374.257 C 204.506 404.791,272.368 413.922,316.551 392.357 C 329.630 385.973,339.833 376.417,344.227 366.435 C 346.739 360.730,347.820 354.049,347.820 344.236 L 347.820 335.826 364.971 335.826 L 382.122 335.826 381.891 317.193 L 381.660 298.560 364.740 298.328 L 347.820 298.095 347.820 285.263 L 347.820 272.431 328.973 272.431 L 310.125 272.431 310.125 285.281 L 310.125 298.132 260.865 298.132 L 211.605 298.132 211.605 285.281 L 211.605 272.431 192.757 272.431 L 173.910 272.431 173.910 285.281 M310.125 343.369 C 310.125 350.754,310.067 350.967,307.341 353.607 C 304.002 356.841,295.368 360.884,286.813 363.219 C 273.187 366.940,250.287 367.087,235.727 363.547 C 228.647 361.826,217.101 356.526,213.961 353.557 C 211.728 351.446,211.605 350.922,211.605 343.578 L 211.605 335.826 260.865 335.826 L 310.125 335.826 310.125 343.369 " stroke="none" fill-rule="evenodd" fill="black"></path></svg>