<svg width="136mm" height="120mm" version="1.1" viewBox="0 0 600 529.4117647058824" xmlns="http://www.w3.org/2000/svg"><path d="M113.084 113.513 L 113.084 139.642 84.813 139.642 L 56.542 139.642 56.542 158.489 L 56.542 177.337 84.813 177.337 L 113.084 177.337 113.084 198.969 L 113.084 220.600 87.294 297.971 C 73.110 340.525,61.640 375.458,61.807 375.599 C 62.478 376.169,96.931 387.385,97.144 387.103 C 97.269 386.937,105.240 363.366,114.855 334.725 L 132.338 282.649 149.664 334.620 C 159.194 363.204,167.128 386.728,167.295 386.896 C 167.463 387.063,175.477 384.562,185.105 381.337 C 197.023 377.345,202.578 375.094,202.511 374.283 C 202.457 373.628,190.988 339.031,177.025 297.400 L 151.636 221.706 151.636 199.522 L 151.636 177.337 179.907 177.337 L 208.178 177.337 208.178 158.489 L 208.178 139.642 179.907 139.642 L 151.636 139.642 151.636 113.513 L 151.636 87.383 132.360 87.383 L 113.084 87.383 113.084 113.513 M313.552 115.654 L 313.552 143.926 275.857 143.926 L 238.163 143.926 238.163 162.773 L 238.163 181.620 330.686 181.620 L 423.210 181.620 423.210 162.782 L 423.210 143.944 387.443 143.721 L 351.675 143.497 351.449 115.440 L 351.224 87.383 332.388 87.383 L 313.552 87.383 313.552 115.654 M241.589 213.318 L 241.589 233.879 221.029 233.879 L 200.468 233.879 200.468 253.155 L 200.468 272.431 217.173 272.431 C 226.362 272.431,233.879 272.724,233.879 273.083 C 233.879 273.442,227.518 292.809,219.744 316.122 C 211.969 339.435,205.608 358.967,205.608 359.526 C 205.608 360.533,240.320 372.549,241.002 371.778 C 241.196 371.559,245.680 358.368,250.967 342.466 C 256.254 326.563,260.708 313.552,260.865 313.552 C 261.022 313.552,265.476 326.563,270.763 342.466 C 276.050 358.368,280.534 371.559,280.728 371.778 C 281.222 372.336,316.122 360.677,316.122 359.955 C 316.122 359.631,309.599 339.806,301.627 315.899 L 287.131 272.431 304.197 272.431 L 321.262 272.431 321.262 253.155 L 321.262 233.879 300.702 233.879 L 280.141 233.879 280.141 213.318 L 280.141 192.757 260.865 192.757 L 241.589 192.757 241.589 213.318 M385.515 213.303 L 385.515 233.849 364.740 234.078 L 343.965 234.307 343.965 253.155 L 343.965 272.002 360.885 272.235 C 370.191 272.362,377.805 272.559,377.805 272.672 C 377.805 272.785,371.258 292.510,363.256 316.504 C 355.255 340.499,348.797 360.199,348.907 360.283 C 350.388 361.424,384.138 371.796,384.626 371.262 C 384.997 370.855,389.445 357.994,394.510 342.680 C 399.576 327.366,403.969 314.559,404.273 314.220 C 404.577 313.880,409.185 326.699,414.513 342.705 C 419.841 358.712,424.418 371.808,424.684 371.808 C 425.274 371.808,459.527 360.621,459.813 360.334 C 459.925 360.222,453.470 340.499,445.469 316.504 C 437.467 292.510,430.920 272.785,430.920 272.672 C 430.920 272.559,438.534 272.362,447.840 272.235 L 464.760 272.002 464.990 252.941 L 465.221 233.879 444.215 233.879 L 423.210 233.879 423.210 213.318 L 423.210 192.757 404.362 192.757 L 385.515 192.757 385.515 213.303 " stroke="none" fill-rule="evenodd" fill="black"></path></svg>