<svg width="136mm" height="120mm" version="1.1" viewBox="0 0 600 529.4117647058824" xmlns="http://www.w3.org/2000/svg"><path d="M113.672 87.082 C 113.349 87.405,113.084 99.363,113.084 113.656 L 113.084 139.642 84.813 139.642 L 56.542 139.642 56.542 158.489 L 56.542 177.337 84.813 177.337 L 113.084 177.337 113.084 198.974 L 113.084 220.611 87.393 297.675 C 73.262 340.060,61.986 374.995,62.334 375.308 C 62.683 375.621,70.292 378.295,79.245 381.251 C 88.197 384.206,95.964 386.786,96.505 386.984 C 97.131 387.213,103.821 368.337,114.921 335.021 L 132.354 282.698 149.672 334.644 C 159.197 363.215,167.174 386.775,167.398 386.999 C 167.922 387.523,202.030 376.172,202.574 375.292 C 202.799 374.928,191.430 339.976,177.309 297.621 L 151.636 220.611 151.636 198.974 L 151.636 177.337 179.907 177.337 L 208.178 177.337 208.178 158.489 L 208.178 139.642 179.919 139.642 L 151.661 139.642 151.434 113.299 L 151.208 86.955 132.733 86.725 C 122.573 86.598,113.995 86.758,113.672 87.082 M313.552 115.226 L 313.552 143.926 275.857 143.926 L 238.163 143.926 238.163 162.773 L 238.163 181.620 330.686 181.620 L 423.210 181.620 423.210 162.782 L 423.210 143.944 387.443 143.721 L 351.675 143.497 351.450 115.012 L 351.224 86.527 332.388 86.527 L 313.552 86.527 313.552 115.226 M241.589 213.318 L 241.589 233.879 221.029 233.879 L 200.468 233.879 200.468 252.727 L 200.468 271.574 217.173 271.574 C 230.047 271.574,233.879 271.822,233.879 272.655 C 233.879 273.249,227.518 292.809,219.744 316.122 C 211.969 339.435,205.608 358.967,205.608 359.526 C 205.608 360.533,240.320 372.549,241.002 371.778 C 241.196 371.559,245.680 358.368,250.967 342.466 C 256.254 326.563,260.708 313.552,260.865 313.552 C 261.022 313.552,265.476 326.563,270.763 342.466 C 276.050 358.368,280.534 371.559,280.728 371.778 C 281.222 372.336,316.122 360.677,316.122 359.955 C 316.122 359.631,309.569 339.714,301.558 315.694 C 293.548 291.674,286.995 271.921,286.995 271.798 C 286.995 271.675,294.705 271.574,304.129 271.574 L 321.262 271.574 321.262 252.727 L 321.262 233.879 300.273 233.879 L 279.284 233.879 279.284 213.318 L 279.284 192.757 260.437 192.757 L 241.589 192.757 241.589 213.318 M385.515 213.303 L 385.515 233.849 364.740 234.078 L 343.965 234.307 343.734 252.941 L 343.503 271.574 360.654 271.574 C 370.087 271.574,377.805 271.867,377.805 272.226 C 377.805 272.584,371.258 292.510,363.256 316.504 C 355.255 340.499,348.797 360.199,348.907 360.283 C 349.317 360.600,383.399 371.808,383.950 371.808 C 384.266 371.808,388.884 358.712,394.212 342.705 C 399.539 326.699,404.147 313.880,404.452 314.220 C 404.756 314.559,409.149 327.366,414.214 342.680 C 419.280 357.994,423.770 370.898,424.194 371.357 C 424.685 371.889,431.327 370.079,442.506 366.367 C 452.154 363.164,460.048 360.471,460.048 360.383 C 460.048 360.295,453.494 340.571,445.484 316.551 C 437.474 292.531,430.920 272.584,430.920 272.226 C 430.920 271.867,438.438 271.574,447.626 271.574 L 464.331 271.574 464.331 252.727 L 464.331 233.879 443.771 233.879 L 423.210 233.879 423.210 213.318 L 423.210 192.757 404.362 192.757 L 385.515 192.757 385.515 213.303 " stroke="none" fill-rule="evenodd" fill="black"></path></svg>