<svg width="136mm" height="120mm" version="1.1" viewBox="0 0 600 529.4117647058824" xmlns="http://www.w3.org/2000/svg"><path d="M113.084 113.513 L 113.084 139.642 84.813 139.642 L 56.542 139.642 56.542 158.489 L 56.542 177.337 84.813 177.337 L 113.084 177.337 113.084 198.974 L 113.084 220.611 87.393 297.675 C 73.262 340.060,61.986 374.995,62.334 375.308 C 62.683 375.621,70.292 378.295,79.245 381.251 C 88.197 384.206,95.964 386.786,96.505 386.984 C 97.131 387.213,103.821 368.337,114.921 335.021 L 132.354 282.698 149.672 334.644 C 159.197 363.215,167.128 386.728,167.295 386.896 C 167.670 387.271,201.504 376.096,202.386 375.307 C 202.734 374.995,191.458 340.060,177.328 297.675 L 151.636 220.611 151.636 198.974 L 151.636 177.337 179.907 177.337 L 208.178 177.337 208.178 158.489 L 208.178 139.642 179.907 139.642 L 151.636 139.642 151.636 113.513 L 151.636 87.383 132.360 87.383 L 113.084 87.383 113.084 113.513 M313.552 115.654 L 313.552 143.926 275.857 143.926 L 238.163 143.926 238.163 162.773 L 238.163 181.620 330.686 181.620 L 423.210 181.620 423.210 162.782 L 423.210 143.944 387.443 143.721 L 351.675 143.497 351.449 115.440 L 351.224 87.383 332.388 87.383 L 313.552 87.383 313.552 115.654 M241.589 213.318 L 241.589 233.879 221.029 233.879 L 200.468 233.879 200.468 253.155 L 200.468 272.431 217.173 272.431 C 226.362 272.431,233.879 272.724,233.879 273.083 C 233.879 273.442,227.518 292.809,219.744 316.122 C 211.969 339.435,205.608 358.967,205.608 359.526 C 205.608 360.533,240.320 372.549,241.002 371.778 C 241.196 371.559,245.680 358.368,250.967 342.466 C 256.254 326.563,260.708 313.552,260.865 313.552 C 261.022 313.552,265.476 326.563,270.763 342.466 C 276.050 358.368,280.534 371.559,280.728 371.778 C 281.222 372.336,316.122 360.677,316.122 359.955 C 316.122 359.631,309.599 339.806,301.627 315.899 L 287.131 272.431 304.197 272.431 L 321.262 272.431 321.262 253.155 L 321.262 233.879 300.702 233.879 L 280.141 233.879 280.141 213.318 L 280.141 192.757 260.865 192.757 L 241.589 192.757 241.589 213.318 M385.515 213.303 L 385.515 233.849 364.740 234.078 L 343.965 234.307 343.965 253.155 L 343.965 272.002 360.885 272.235 C 370.191 272.362,377.805 272.559,377.805 272.672 C 377.805 272.785,371.258 292.510,363.256 316.504 C 355.255 340.499,348.797 360.199,348.907 360.283 C 349.317 360.600,383.399 371.808,383.950 371.808 C 384.266 371.808,388.884 358.712,394.212 342.705 C 399.539 326.699,404.147 313.880,404.452 314.220 C 404.756 314.559,409.149 327.366,414.214 342.680 C 419.280 357.994,423.727 370.855,424.098 371.262 C 424.587 371.796,458.337 361.424,459.818 360.283 C 459.928 360.199,453.470 340.499,445.469 316.504 C 437.467 292.510,430.920 272.785,430.920 272.672 C 430.920 272.559,438.534 272.362,447.840 272.235 L 464.760 272.002 464.760 253.155 L 464.760 234.307 443.985 234.078 L 423.210 233.849 423.210 213.303 L 423.210 192.757 404.362 192.757 L 385.515 192.757 385.515 213.303 " stroke="none" fill-rule="evenodd" fill="black"></path></svg>