<svg width="136mm" height="120mm" version="1.1" viewBox="0 0 600 529.4117647058824" xmlns="http://www.w3.org/2000/svg"><path d="M229.596 35.511 C 193.131 40.238,157.560 55.579,130.264 78.351 C 120.893 86.169,105.882 101.969,98.893 111.371 C 73.445 145.604,60.740 183.974,60.740 226.597 C 60.740 277.154,79.206 323.216,113.941 359.305 C 131.001 377.030,147.219 388.947,168.342 399.278 C 196.121 412.865,222.325 418.929,253.155 418.905 C 275.932 418.887,293.706 416.096,313.930 409.363 C 383.425 386.224,432.961 326.853,444.263 253.155 C 446.237 240.280,446.237 212.914,444.263 200.039 C 431.211 114.932,367.041 49.763,283.071 36.338 C 271.343 34.463,241.267 33.998,229.596 35.511 M270.740 72.840 C 288.084 74.937,302.173 78.885,317.407 85.919 C 335.671 94.351,348.208 103.094,362.433 117.319 C 384.899 139.785,398.488 165.020,405.362 197.041 C 407.063 204.961,407.294 208.495,407.294 226.597 C 407.294 244.700,407.063 248.233,405.362 256.153 C 400.132 280.514,390.954 300.899,376.625 319.977 C 370.023 328.767,355.325 343.466,346.535 350.067 C 324.392 366.698,299.574 376.695,271.148 380.435 C 260.124 381.885,235.000 380.975,224.077 378.730 C 192.913 372.324,166.193 358.107,144.300 336.282 C 114.454 306.528,98.554 268.406,98.554 226.597 C 98.554 184.999,114.467 146.640,143.875 117.350 C 168.694 92.629,201.257 76.703,234.736 72.913 C 244.031 71.860,262.327 71.823,270.740 72.840 M154.634 128.466 C 145.211 131.668,137.549 134.625,137.607 135.037 C 137.884 136.976,181.917 268.666,182.503 269.308 C 182.871 269.712,191.056 267.424,200.693 264.225 L 218.213 258.408 195.561 190.458 C 183.103 153.086,172.653 122.538,172.339 122.576 C 172.025 122.613,164.058 125.263,154.634 128.466 M215.734 128.358 C 206.461 131.502,198.614 134.339,198.296 134.663 C 197.412 135.565,242.426 269.861,243.613 269.860 C 244.803 269.860,277.615 258.965,278.206 258.374 C 278.689 257.891,233.638 122.480,233.026 122.576 C 232.789 122.613,225.007 125.215,215.734 128.358 M307.360 200.625 L 281.283 278.856 208.749 279.075 L 136.215 279.294 136.215 298.136 L 136.215 316.979 257.010 316.979 L 377.805 316.979 377.805 298.132 L 377.805 279.284 349.534 279.284 C 333.984 279.284,321.262 279.185,321.262 279.064 C 321.262 278.943,332.053 246.479,345.241 206.921 C 358.429 167.363,368.934 134.741,368.586 134.428 C 368.238 134.115,360.628 131.441,351.675 128.486 C 342.723 125.531,334.957 122.951,334.418 122.753 C 333.793 122.525,323.973 150.786,307.360 200.625 " stroke="none" fill-rule="evenodd" fill="black"></path></svg>