<svg width="136mm" height="120mm" version="1.1" viewBox="0 0 600 529.4117647058824" xmlns="http://www.w3.org/2000/svg"><path d="M229.596 35.565 C 196.481 39.657,165.057 52.298,137.827 72.482 C 127.438 80.182,107.929 99.397,100.498 109.248 C 87.067 127.053,77.114 146.008,70.358 166.649 C 63.528 187.514,60.840 204.446,60.840 226.597 C 60.840 248.635,63.531 265.687,70.247 286.210 C 80.055 316.179,94.694 339.905,117.282 362.444 C 134.310 379.435,147.578 389.041,167.995 399.161 C 186.790 408.478,207.040 414.608,229.167 417.677 C 242.120 419.474,272.117 419.033,283.996 416.872 C 318.292 410.630,347.815 397.453,373.521 376.911 C 385.762 367.130,400.435 351.650,410.028 338.397 C 451.365 281.287,457.268 202.141,424.878 139.293 C 398.065 87.268,350.792 50.968,293.226 38.200 C 276.219 34.428,248.192 33.267,229.596 35.565 M273.577 73.248 C 331.995 80.906,381.429 121.902,400.122 178.194 C 405.614 194.733,407.789 208.464,407.789 226.597 C 407.789 244.731,405.614 258.461,400.122 275.001 C 384.455 322.180,347.134 359.100,299.845 374.198 C 282.282 379.806,268.487 381.607,248.017 380.965 C 231.211 380.437,221.815 378.915,206.943 374.312 C 154.816 358.177,112.876 312.254,101.971 259.373 C 91.126 206.779,106.478 154.816,143.926 117.368 C 178.209 83.085,225.598 66.958,273.577 73.248 M154.634 128.466 C 145.211 131.668,137.549 134.625,137.607 135.037 C 137.884 136.976,181.917 268.666,182.503 269.308 C 182.871 269.712,191.056 267.424,200.693 264.225 L 218.213 258.408 195.561 190.458 C 183.103 153.086,172.653 122.538,172.339 122.576 C 172.025 122.613,164.058 125.263,154.634 128.466 M215.734 128.358 C 206.461 131.502,198.614 134.339,198.296 134.663 C 197.412 135.565,242.426 269.861,243.613 269.860 C 244.803 269.860,277.615 258.965,278.206 258.374 C 278.689 257.891,233.638 122.480,233.026 122.576 C 232.789 122.613,225.007 125.215,215.734 128.358 M307.360 200.625 L 281.283 278.856 208.749 279.075 L 136.215 279.294 136.215 298.136 L 136.215 316.979 257.010 316.979 L 377.805 316.979 377.805 298.132 L 377.805 279.284 349.534 279.284 C 333.984 279.284,321.262 279.185,321.262 279.064 C 321.262 278.943,332.053 246.479,345.241 206.921 C 358.429 167.363,368.934 134.741,368.586 134.428 C 368.238 134.115,360.628 131.441,351.675 128.486 C 342.723 125.531,334.957 122.951,334.418 122.753 C 333.793 122.525,323.973 150.786,307.360 200.625 " stroke="none" fill-rule="evenodd" fill="black"></path></svg>