<svg width="136mm" height="120mm" version="1.1" viewBox="0 0 600 529.4117647058824" xmlns="http://www.w3.org/2000/svg"><path d="M162.773 84.813 L 162.773 131.932 125.078 131.932 L 87.383 131.932 87.383 150.770 L 87.383 169.609 124.864 169.832 L 162.345 170.055 162.345 226.597 L 162.345 283.139 124.864 283.363 L 87.383 283.586 87.383 302.424 L 87.383 321.262 125.078 321.262 L 162.773 321.262 162.773 368.381 L 162.773 415.500 181.620 415.500 L 200.468 415.500 200.468 368.381 L 200.468 321.262 257.010 321.262 L 313.552 321.262 313.552 368.381 L 313.552 415.500 332.400 415.500 L 351.247 415.500 351.247 368.381 L 351.247 321.262 388.942 321.262 L 426.637 321.262 426.637 302.424 L 426.637 283.586 389.156 283.363 L 351.675 283.139 351.675 226.597 L 351.675 170.055 389.156 169.832 L 426.637 169.609 426.637 150.770 L 426.637 131.932 388.942 131.932 L 351.247 131.932 351.247 84.813 L 351.247 37.695 332.400 37.695 L 313.552 37.695 313.552 84.813 L 313.552 131.932 257.010 131.932 L 200.468 131.932 200.468 84.813 L 200.468 37.695 181.620 37.695 L 162.773 37.695 162.773 84.813 M313.552 226.597 L 313.552 283.568 257.010 283.568 L 200.468 283.568 200.468 226.597 L 200.468 169.627 257.010 169.627 L 313.552 169.627 313.552 226.597 " stroke="none" fill-rule="evenodd" fill="black"></path></svg>