<svg width="136mm" height="120mm" version="1.1" viewBox="0 0 600 529.4117647058824" xmlns="http://www.w3.org/2000/svg"><path d="M162.773 84.804 L 162.773 131.914 124.864 132.137 L 86.955 132.360 86.955 151.208 L 86.955 170.055 124.864 170.278 L 162.773 170.501 162.773 227.034 L 162.773 283.568 124.633 283.568 L 86.493 283.568 86.724 302.201 L 86.955 320.834 124.864 321.057 L 162.773 321.280 162.773 368.390 L 162.773 415.500 181.620 415.500 L 200.468 415.500 200.468 368.381 L 200.468 321.262 257.010 321.262 L 313.552 321.262 313.552 368.381 L 313.552 415.500 332.400 415.500 L 351.247 415.500 351.247 368.390 L 351.247 321.280 389.156 321.057 L 427.065 320.834 427.296 302.201 L 427.527 283.568 389.387 283.568 L 351.247 283.568 351.247 227.034 L 351.247 170.501 389.156 170.278 L 427.065 170.055 427.065 151.208 L 427.065 132.360 389.156 132.137 L 351.247 131.914 351.247 84.804 L 351.247 37.695 332.400 37.695 L 313.552 37.695 313.552 84.813 L 313.552 131.932 257.010 131.932 L 200.468 131.932 200.468 84.813 L 200.468 37.695 181.620 37.695 L 162.773 37.695 162.773 84.804 M313.552 227.025 L 313.552 283.568 257.010 283.568 L 200.468 283.568 200.468 227.025 L 200.468 170.483 257.010 170.483 L 313.552 170.483 313.552 227.025 " stroke="none" fill-rule="evenodd" fill="black"></path></svg>