<svg width="136mm" height="120mm" version="1.1" viewBox="0 0 600 529.4117647058824" xmlns="http://www.w3.org/2000/svg"><path d="M68.536 131.920 L 68.536 150.756 96.593 150.982 L 124.650 151.208 125.098 222.314 C 125.581 298.967,125.346 295.246,130.328 305.323 C 133.770 312.286,137.815 317.588,144.347 323.698 C 182.146 359.058,267.935 369.494,330.935 346.396 C 356.567 336.999,375.208 322.486,383.692 305.323 C 388.674 295.246,388.439 298.967,388.922 222.314 L 389.370 151.208 417.427 150.982 L 445.484 150.756 445.484 131.920 L 445.484 113.084 257.010 113.084 L 68.536 113.084 68.536 131.920 M351.247 218.719 L 351.247 286.659 348.792 290.530 C 340.555 303.519,315.256 314.664,283.568 319.263 C 270.129 321.214,243.774 321.196,230.180 319.227 C 199.037 314.716,173.396 303.410,165.280 290.612 L 162.773 286.659 162.773 218.719 L 162.773 150.779 257.010 150.779 L 351.247 150.779 351.247 218.719 " stroke="none" fill-rule="evenodd" fill="black"></path></svg>