<svg width="136mm" height="120mm" version="1.1" viewBox="0 0 600 529.4117647058824" xmlns="http://www.w3.org/2000/svg"><path d="M68.252 113.654 C 67.937 113.969,67.679 122.451,67.679 132.503 L 67.679 150.779 95.905 150.779 L 124.130 150.779 124.404 220.814 L 124.679 290.850 127.048 297.887 C 137.071 327.663,173.157 349.251,225.740 356.929 C 240.119 359.029,273.901 359.029,288.280 356.929 C 316.944 352.743,341.599 344.188,358.950 332.404 C 372.237 323.382,382.749 310.433,386.972 297.887 L 389.341 290.850 389.616 220.814 L 389.890 150.779 418.132 150.779 L 446.374 150.779 446.143 132.146 L 445.912 113.513 257.369 113.297 C 153.670 113.178,68.568 113.338,68.252 113.654 M351.247 218.719 L 351.247 286.659 348.730 290.627 C 340.754 303.205,315.412 314.635,285.281 319.245 C 271.631 321.333,242.389 321.333,228.739 319.245 C 198.608 314.635,173.266 303.205,165.290 290.627 L 162.773 286.659 162.773 218.719 L 162.773 150.779 257.010 150.779 L 351.247 150.779 351.247 218.719 " stroke="none" fill-rule="evenodd" fill="black"></path></svg>