<svg width="136mm" height="120mm" version="1.1" viewBox="0 0 600 529.4117647058824" xmlns="http://www.w3.org/2000/svg"><path d="M68.252 113.654 C 67.937 113.969,67.679 122.451,67.679 132.503 L 67.679 150.779 96.355 150.779 L 125.031 150.779 125.269 222.528 L 125.507 294.276 128.180 300.865 C 133.939 315.062,145.908 327.563,163.031 337.264 C 213.577 365.903,300.443 365.903,350.989 337.264 C 368.234 327.494,380.320 314.742,386.160 300.154 L 388.513 294.276 388.751 222.528 L 388.989 150.779 417.681 150.779 L 446.374 150.779 446.143 132.146 L 445.912 113.513 257.369 113.297 C 153.670 113.178,68.568 113.338,68.252 113.654 M351.048 219.175 L 350.819 287.570 348.249 291.288 C 339.648 303.730,314.914 314.712,285.281 319.245 C 271.631 321.333,242.389 321.333,228.739 319.245 C 199.106 314.712,174.372 303.730,165.771 291.288 L 163.201 287.570 162.972 219.175 L 162.743 150.779 257.010 150.779 L 351.277 150.779 351.048 219.175 " stroke="none" fill-rule="evenodd" fill="black"></path></svg>