<svg width="136mm" height="120mm" version="1.1" viewBox="0 0 600 529.4117647058824" xmlns="http://www.w3.org/2000/svg"><path d="M316.979 84.813 L 316.979 131.932 302.193 131.932 L 287.407 131.932 269.432 95.950 C 259.546 76.161,251.161 59.969,250.799 59.969 C 249.811 59.969,217.602 76.187,217.602 76.684 C 217.602 76.920,223.767 89.438,231.301 104.502 L 245.001 131.891 230.231 132.126 L 215.460 132.360 215.460 151.208 L 215.460 170.055 252.715 170.278 L 289.969 170.502 239.438 221.038 C 211.647 248.833,188.617 271.574,188.263 271.574 C 187.908 271.574,187.617 270.651,187.617 269.522 C 187.617 265.916,184.135 255.954,180.200 248.302 C 169.867 228.210,150.543 213.755,128.129 209.351 C 123.670 208.475,120.855 207.525,121.059 206.966 C 121.246 206.455,124.379 197.073,128.022 186.118 L 134.644 166.200 159.846 166.200 L 185.047 166.200 185.047 147.352 L 185.047 128.505 115.226 128.505 L 45.405 128.505 45.405 147.352 L 45.405 166.200 70.180 166.200 L 94.954 166.200 67.181 249.509 C 51.906 295.329,39.408 333.081,39.408 333.402 C 39.408 334.121,74.311 345.776,74.802 345.221 C 74.996 345.001,82.565 322.558,91.621 295.347 L 108.087 245.873 114.288 245.873 C 124.158 245.873,132.361 249.347,139.847 256.698 C 148.081 264.783,151.182 273.052,150.637 285.467 C 150.189 295.673,147.216 302.515,140.163 309.567 C 133.599 316.131,126.633 319.535,117.137 320.820 L 113.051 321.372 113.282 339.951 L 113.513 358.529 119.279 358.343 C 143.092 357.573,167.784 341.476,180.192 318.632 C 185.976 307.984,190.273 288.747,188.978 279.293 L 188.449 275.429 200.680 287.637 C 207.407 294.351,213.288 299.845,213.749 299.845 C 214.210 299.845,221.834 292.617,230.691 283.782 L 246.796 267.719 244.535 272.859 C 237.361 289.171,234.647 301.119,234.625 316.492 C 234.608 328.923,235.642 336.019,239.127 347.392 C 250.545 384.648,283.105 412.417,322.049 418.111 C 332.882 419.695,350.639 418.759,360.939 416.060 C 424.947 399.290,456.531 329.885,427.094 270.687 C 424.882 266.240,425.627 266.862,441.977 283.130 L 459.189 300.255 472.473 286.992 L 485.757 273.729 434.149 222.116 L 382.542 170.504 415.941 170.279 L 449.339 170.055 449.570 150.993 L 449.800 131.932 438.644 131.932 L 427.488 131.932 441.198 104.523 C 448.738 89.448,454.908 76.920,454.908 76.684 C 454.908 76.187,422.699 59.969,421.711 59.969 C 421.348 59.969,412.963 76.161,403.077 95.950 L 385.103 131.932 370.317 131.932 L 355.531 131.932 355.531 84.813 L 355.531 37.695 336.255 37.695 L 316.979 37.695 316.979 84.813 M362.390 203.542 C 387.506 228.740,387.624 228.875,382.088 226.121 C 355.165 212.729,322.358 212.123,294.285 224.501 L 286.566 227.904 311.405 203.049 C 325.066 189.378,336.441 178.194,336.683 178.194 C 336.925 178.194,348.493 189.601,362.390 203.542 M356.632 256.217 C 367.829 259.948,378.866 267.835,386.767 277.752 C 395.862 289.168,400.089 301.613,400.064 316.902 C 400.044 328.963,398.397 336.292,393.502 346.107 C 390.072 352.982,388.173 355.514,381.267 362.415 C 374.630 369.048,371.723 371.266,365.811 374.210 C 354.643 379.770,346.270 381.544,333.711 381.010 C 315.723 380.246,303.989 375.095,291.278 362.384 C 278.552 349.658,273.396 337.903,272.678 319.977 C 272.173 307.375,273.600 299.750,278.289 289.993 C 288.724 268.283,308.886 254.737,332.828 253.353 C 339.220 252.983,351.286 254.435,356.632 256.217 " stroke="none" fill-rule="evenodd" fill="black"></path></svg>