<svg width="136mm" height="120mm" version="1.1" viewBox="0 0 600 529.4117647058824" xmlns="http://www.w3.org/2000/svg"><path d="M316.979 84.813 L 316.979 131.932 302.193 131.932 L 287.407 131.932 269.432 95.950 C 259.546 76.161,251.161 59.969,250.799 59.969 C 249.811 59.969,217.602 76.187,217.602 76.684 C 217.602 76.920,223.767 89.438,231.301 104.502 L 245.001 131.891 230.231 132.126 L 215.460 132.360 215.460 151.208 L 215.460 170.055 252.516 170.483 L 289.571 170.912 239.057 221.420 C 211.274 249.199,188.407 271.752,188.240 271.537 C 188.074 271.322,187.267 268.209,186.446 264.620 C 184.572 256.421,177.837 242.807,172.192 235.810 C 161.408 222.442,145.115 212.705,127.825 209.296 C 123.564 208.456,120.856 207.523,121.059 206.966 C 121.246 206.455,124.379 197.073,128.022 186.118 L 134.644 166.200 159.846 166.200 L 185.047 166.200 185.047 147.352 L 185.047 128.505 115.226 128.505 L 45.405 128.505 45.405 147.352 L 45.405 166.200 69.821 166.200 C 83.250 166.200,94.237 166.491,94.237 166.847 C 94.237 167.203,81.746 204.963,66.479 250.758 L 38.721 334.022 56.619 339.995 C 66.463 343.281,74.662 345.710,74.838 345.395 C 75.014 345.080,82.567 322.558,91.623 295.347 L 108.087 245.873 114.288 245.873 C 130.135 245.873,143.978 256.204,149.382 272.062 C 151.126 277.182,151.203 288.534,149.531 294.045 C 145.178 308.391,132.691 318.717,117.154 320.817 L 113.084 321.367 113.084 340.162 L 113.084 358.957 115.542 358.957 C 124.155 358.957,141.438 354.150,149.845 349.416 C 173.738 335.962,188.321 311.525,188.756 284.214 L 188.889 275.865 200.900 287.855 C 207.506 294.450,213.288 299.845,213.749 299.845 C 214.210 299.845,221.834 292.617,230.691 283.782 L 246.796 267.719 244.519 272.859 C 237.391 288.954,234.647 301.053,234.625 316.492 C 234.608 328.923,235.642 336.019,239.127 347.392 C 248.595 378.284,273.117 403.442,303.772 413.712 C 340.439 425.997,381.142 416.478,408.369 389.250 C 439.371 358.248,447.130 311.268,427.733 272.002 L 424.771 266.005 441.980 283.130 L 459.189 300.255 472.473 286.992 L 485.757 273.729 434.139 222.106 L 382.522 170.483 416.145 170.483 L 449.767 170.483 449.767 151.208 L 449.767 131.932 438.628 131.932 L 427.488 131.932 441.198 104.523 C 448.738 89.448,454.908 76.920,454.908 76.684 C 454.908 76.187,422.699 59.969,421.711 59.969 C 421.348 59.969,412.963 76.161,403.077 95.950 L 385.103 131.932 370.317 131.932 L 355.531 131.932 355.531 84.813 L 355.531 37.695 336.255 37.695 L 316.979 37.695 316.979 84.813 M362.390 203.542 C 387.514 228.748,387.625 228.875,382.088 226.124 C 367.991 219.118,353.467 215.805,336.683 215.765 C 320.199 215.726,306.423 218.687,292.809 225.197 L 286.013 228.446 311.128 203.320 C 324.942 189.500,336.442 178.194,336.683 178.194 C 336.925 178.194,348.493 189.601,362.390 203.542 M356.632 256.217 C 377.069 263.027,394.656 282.293,398.865 302.481 C 401.486 315.050,400.169 331.286,395.651 342.095 C 390.147 355.267,377.500 368.591,364.635 374.772 C 353.763 379.996,345.858 381.572,333.351 381.010 C 315.707 380.218,303.873 374.979,291.278 362.384 C 278.552 349.658,273.396 337.903,272.678 319.977 C 272.192 307.839,273.525 300.185,277.705 291.116 C 287.350 270.191,307.607 255.532,329.373 253.726 C 338.492 252.969,350.059 254.026,356.632 256.217 " stroke="none" fill-rule="evenodd" fill="black"></path></svg>