<svg width="136mm" height="120mm" version="1.1" viewBox="0 0 600 529.4117647058824" xmlns="http://www.w3.org/2000/svg"><path d="M317.836 84.813 L 317.836 131.932 302.621 131.932 L 287.407 131.932 269.432 95.950 C 259.546 76.161,251.161 59.969,250.799 59.969 C 249.811 59.969,217.602 76.187,217.602 76.684 C 217.602 76.920,223.771 89.448,231.312 104.523 L 245.021 131.932 230.455 131.932 L 215.888 131.932 215.888 150.779 L 215.888 169.627 253.366 169.627 L 290.844 169.627 239.910 220.566 C 211.897 248.583,188.794 271.322,188.570 271.099 C 188.347 270.876,187.469 267.904,186.619 264.494 C 184.492 255.958,177.553 242.316,171.816 235.389 C 161.198 222.567,145.888 213.209,129.790 209.701 C 125.078 208.674,121.133 207.789,121.023 207.735 C 120.914 207.681,123.935 198.313,127.736 186.918 L 134.649 166.200 159.848 166.200 L 185.047 166.200 185.047 147.352 L 185.047 128.505 115.226 128.505 L 45.405 128.505 45.405 147.352 L 45.405 166.200 70.180 166.200 L 94.954 166.200 67.181 249.509 C 51.906 295.329,39.408 333.081,39.408 333.402 C 39.408 334.121,74.311 345.776,74.802 345.221 C 74.996 345.001,82.579 322.514,91.654 295.250 L 108.152 245.678 115.973 246.037 C 122.613 246.342,124.673 246.819,129.624 249.200 C 144.501 256.353,153.254 272.747,150.726 288.722 C 148.113 305.232,135.483 317.804,118.720 320.582 L 113.084 321.516 113.084 339.758 C 113.084 351.401,113.405 358.198,113.971 358.547 C 115.562 359.531,130.481 357.112,137.661 354.707 C 162.692 346.323,182.032 324.269,187.648 297.703 C 188.246 294.876,188.772 288.810,188.818 284.222 L 188.902 275.881 200.907 287.863 C 207.509 294.453,213.288 299.845,213.749 299.845 C 214.210 299.845,222.040 292.424,231.148 283.354 C 240.558 273.983,246.963 268.157,245.980 269.861 C 245.029 271.510,242.903 276.354,241.255 280.626 C 232.993 302.045,232.434 328.034,239.769 349.669 C 253.866 391.246,292.430 418.926,336.255 418.926 C 384.987 418.926,426.260 385.283,436.097 337.540 C 438.446 326.142,438.649 309.631,436.574 298.753 C 434.955 290.264,431.106 278.782,427.318 271.146 C 424.785 266.038,424.878 266.113,441.979 283.130 L 459.189 300.255 472.473 286.992 L 485.757 273.729 433.711 221.678 L 381.665 169.627 415.716 169.627 L 449.767 169.627 449.767 150.779 L 449.767 131.932 438.628 131.932 L 427.488 131.932 441.198 104.523 C 448.738 89.448,454.908 76.920,454.908 76.684 C 454.908 76.187,422.699 59.969,421.711 59.969 C 421.348 59.969,412.963 76.161,403.077 95.950 L 385.103 131.932 370.317 131.932 L 355.531 131.932 355.531 84.813 L 355.531 37.695 336.683 37.695 L 317.836 37.695 317.836 84.813 M362.390 203.542 C 387.034 228.267,387.526 228.826,382.341 226.252 C 367.391 218.830,354.034 215.684,337.111 215.601 C 320.227 215.517,304.971 218.919,290.850 225.915 C 287.101 227.772,289.668 224.925,311.405 203.116 C 325.066 189.408,336.441 178.194,336.683 178.194 C 336.925 178.194,348.493 189.601,362.390 203.542 M353.290 255.441 C 370.692 260.249,384.780 271.735,393.266 288.034 C 398.082 297.284,400.126 305.906,400.142 317.038 C 400.161 329.711,397.918 338.430,391.806 349.448 C 388.001 356.306,376.038 368.441,369.033 372.549 C 352.389 382.309,330.859 383.941,312.759 376.814 C 295.310 369.944,281.524 355.315,275.342 337.111 C 272.243 327.986,271.525 313.507,273.679 303.562 C 275.484 295.225,281.352 282.945,286.508 276.714 C 302.687 257.162,329.085 248.753,353.290 255.441 " stroke="none" fill-rule="evenodd" fill="black"></path></svg>