<svg width="136mm" height="120mm" version="1.1" viewBox="0 0 600 529.4117647058824" xmlns="http://www.w3.org/2000/svg"><path d="M249.871 87.098 C 249.557 87.412,249.300 95.893,249.300 105.945 L 249.300 124.222 285.281 124.222 C 305.071 124.222,321.262 124.512,321.262 124.867 C 321.262 125.223,302.796 180.909,280.226 248.615 L 239.190 371.717 257.051 377.678 L 274.912 383.639 300.943 305.546 L 326.973 227.454 352.389 227.227 C 366.368 227.102,377.805 227.104,377.805 227.232 C 377.805 227.360,366.046 262.734,351.675 305.842 C 337.304 348.950,325.546 384.511,325.546 384.867 C 325.546 385.223,358.549 385.515,398.886 385.515 C 457.196 385.515,472.144 385.296,471.831 384.444 C 471.615 383.855,464.614 362.880,456.274 337.833 L 441.110 292.293 423.475 298.186 C 413.775 301.428,405.705 304.214,405.542 304.377 C 405.378 304.540,408.323 313.891,412.086 325.156 C 415.848 336.421,418.926 346.129,418.926 346.729 C 418.926 347.582,414.445 347.820,398.365 347.820 C 387.057 347.820,377.805 347.529,377.805 347.172 C 377.805 346.816,389.563 311.255,403.934 268.147 C 418.305 225.039,430.063 189.478,430.063 189.122 C 430.063 188.766,409.798 188.474,385.029 188.474 C 342.527 188.474,340.021 188.390,340.474 186.975 C 340.738 186.150,345.519 171.790,351.099 155.063 L 361.245 124.650 403.364 124.428 L 445.484 124.205 445.484 105.366 L 445.484 86.527 347.963 86.527 C 294.326 86.527,250.185 86.784,249.871 87.098 M53.115 109.658 L 53.115 128.505 89.027 128.505 L 124.938 128.505 87.742 240.086 C 67.284 301.456,50.545 351.930,50.545 352.251 C 50.545 353.069,85.474 364.579,86.090 363.963 C 86.367 363.686,96.537 333.629,108.690 297.170 L 130.786 230.881 137.998 230.628 C 153.390 230.090,165.862 235.086,176.940 246.229 C 184.809 254.145,188.551 260.540,191.065 270.371 C 198.919 301.079,177.411 332.131,145.876 335.614 L 140.070 336.255 139.840 354.888 L 139.609 373.521 144.671 373.521 C 147.455 373.521,152.806 372.938,156.562 372.226 C 191.159 365.663,218.468 340.212,227.684 305.944 C 229.659 298.601,229.900 296.116,229.897 283.139 C 229.893 266.962,228.927 261.840,223.257 247.931 C 211.246 218.470,181.699 196.574,149.280 193.109 C 146.335 192.794,143.926 192.303,143.926 192.017 C 143.926 191.731,148.644 177.324,154.411 160.001 L 164.897 128.505 197.675 128.505 L 230.452 128.505 230.452 109.658 L 230.452 90.810 141.784 90.810 L 53.115 90.810 53.115 109.658 " stroke="none" fill-rule="evenodd" fill="black"></path></svg>