<svg width="136mm" height="120mm" version="1.1" viewBox="0 0 600 529.4117647058824" xmlns="http://www.w3.org/2000/svg"><path d="M249.497 106.017 L 249.728 124.650 285.495 124.873 C 305.167 124.996,321.262 125.191,321.262 125.305 C 321.262 125.420,302.796 180.909,280.226 248.615 L 239.190 371.717 257.051 377.678 L 274.912 383.639 300.943 305.546 L 326.973 227.454 352.389 227.227 C 366.368 227.102,377.805 227.104,377.805 227.232 C 377.805 227.360,366.046 262.734,351.675 305.842 C 337.304 348.950,325.546 384.511,325.546 384.867 C 325.546 385.223,358.549 385.515,398.886 385.515 C 457.196 385.515,472.144 385.296,471.831 384.444 C 471.615 383.855,464.614 362.880,456.274 337.833 L 441.110 292.293 423.475 298.186 C 413.775 301.428,405.705 304.214,405.542 304.377 C 405.378 304.540,408.323 313.891,412.086 325.156 C 415.848 336.421,418.926 346.129,418.926 346.729 C 418.926 347.582,414.445 347.820,398.365 347.820 C 387.057 347.820,377.805 347.529,377.805 347.172 C 377.805 346.816,389.563 311.255,403.934 268.147 C 418.305 225.039,430.063 189.671,430.063 189.550 C 430.063 189.429,409.824 189.331,385.087 189.331 C 360.349 189.331,340.110 189.047,340.110 188.701 C 340.110 188.354,344.827 173.901,350.593 156.582 L 361.076 125.094 403.494 124.872 L 445.912 124.650 446.143 106.017 L 446.374 87.383 347.820 87.383 L 249.266 87.383 249.497 106.017 M53.115 109.658 L 53.115 128.505 89.027 128.505 L 124.938 128.505 87.742 240.086 C 67.284 301.456,50.545 351.930,50.545 352.251 C 50.545 353.069,85.474 364.579,86.090 363.963 C 86.367 363.686,96.537 333.629,108.689 297.170 L 130.785 230.881 136.713 230.603 C 152.668 229.856,165.720 234.913,176.989 246.206 C 182.144 251.372,184.729 254.803,187.066 259.580 C 194.573 274.924,194.634 291.197,187.242 306.270 C 179.050 322.973,163.234 334.170,145.853 335.573 L 139.642 336.074 139.642 354.927 L 139.642 373.780 147.995 373.264 C 177.083 371.468,205.751 352.475,220.021 325.546 C 235.337 296.643,233.548 260.599,215.448 233.395 C 201.040 211.742,177.987 197.261,152.064 193.580 C 147.824 192.977,144.219 192.379,144.054 192.249 C 143.889 192.120,148.511 177.725,154.326 160.260 L 164.897 128.505 197.675 128.505 L 230.452 128.505 230.452 109.658 L 230.452 90.810 141.784 90.810 L 53.115 90.810 53.115 109.658 " stroke="none" fill-rule="evenodd" fill="black"></path></svg>