<svg width="136mm" height="120mm" version="1.1" viewBox="0 0 600 529.4117647058824" xmlns="http://www.w3.org/2000/svg"><path d="M249.497 106.017 L 249.728 124.650 285.495 124.873 C 305.167 124.996,321.262 125.191,321.262 125.305 C 321.262 125.420,302.796 180.909,280.226 248.615 L 239.190 371.717 257.051 377.678 L 274.912 383.639 300.943 305.546 L 326.973 227.454 352.389 227.227 C 366.368 227.102,377.805 227.104,377.805 227.232 C 377.805 227.360,366.046 262.734,351.675 305.842 C 337.304 348.950,325.546 384.511,325.546 384.867 C 325.546 385.223,358.549 385.515,398.886 385.515 C 457.196 385.515,472.144 385.296,471.831 384.444 C 471.615 383.855,464.614 362.881,456.275 337.835 L 441.112 292.297 423.246 298.260 L 405.381 304.222 412.497 325.535 C 416.411 337.257,419.395 347.066,419.127 347.334 C 418.665 347.796,377.805 348.060,377.805 347.601 C 377.805 347.480,389.563 312.111,403.934 269.004 C 418.305 225.896,430.063 190.335,430.063 189.978 C 430.063 189.622,409.824 189.331,385.087 189.331 C 360.349 189.331,340.110 189.047,340.110 188.701 C 340.110 188.354,344.827 173.901,350.593 156.582 L 361.076 125.094 403.494 124.872 L 445.912 124.650 446.143 106.017 L 446.374 87.383 347.820 87.383 L 249.266 87.383 249.497 106.017 M53.115 109.658 L 53.115 128.505 89.027 128.505 L 124.938 128.505 87.742 240.086 C 67.284 301.456,50.545 351.927,50.545 352.243 C 50.545 352.812,83.584 364.098,85.248 364.098 C 85.723 364.098,96.129 334.027,108.373 297.275 L 130.634 230.452 137.923 230.467 C 154.275 230.501,165.994 235.227,176.989 246.221 C 182.155 251.387,184.724 254.793,187.066 259.580 C 198.057 282.045,192.503 307.970,173.247 324.082 C 164.867 331.093,152.978 335.826,143.746 335.826 L 139.642 335.826 139.642 354.803 L 139.642 373.780 147.995 373.264 C 173.786 371.671,200.555 355.801,215.350 333.330 C 220.333 325.762,222.500 321.378,225.414 312.969 C 236.819 280.054,228.533 244.057,203.877 219.401 C 189.590 205.115,171.345 196.161,151.108 193.505 L 143.299 192.480 153.965 160.492 L 164.632 128.505 197.542 128.505 L 230.452 128.505 230.452 109.658 L 230.452 90.810 141.784 90.810 L 53.115 90.810 53.115 109.658 " stroke="none" fill-rule="evenodd" fill="black"></path></svg>