<svg width="136mm" height="120mm" version="1.1" viewBox="0 0 600 529.4117647058824" xmlns="http://www.w3.org/2000/svg"><path d="M53.115 109.658 L 53.115 128.505 89.027 128.505 L 124.938 128.505 87.742 240.086 C 67.284 301.456,50.545 351.927,50.545 352.243 C 50.545 352.812,83.584 364.098,85.248 364.098 C 85.723 364.098,96.129 334.027,108.373 297.275 L 130.634 230.452 137.923 230.467 C 154.275 230.501,165.994 235.227,176.989 246.221 C 182.155 251.387,184.724 254.793,187.066 259.580 C 198.057 282.045,192.503 307.970,173.247 324.082 C 164.867 331.093,152.978 335.826,143.746 335.826 L 139.642 335.826 139.642 354.803 L 139.642 373.780 147.995 373.264 C 173.786 371.671,200.555 355.801,215.350 333.330 C 220.333 325.762,222.500 321.378,225.414 312.969 C 236.819 280.054,228.533 244.057,203.877 219.401 C 189.590 205.115,171.345 196.161,151.108 193.505 L 143.299 192.480 153.965 160.492 L 164.632 128.505 197.542 128.505 L 230.452 128.505 230.452 109.658 L 230.452 90.810 141.784 90.810 L 53.115 90.810 53.115 109.658 M351.039 150.065 L 350.819 209.321 295.562 227.714 C 265.170 237.830,240.170 246.221,240.007 246.359 C 239.367 246.901,251.463 281.854,252.291 281.854 C 252.775 281.854,275.139 274.530,301.987 265.577 C 328.835 256.624,350.902 249.300,351.024 249.300 C 351.147 249.300,351.247 266.070,351.247 286.566 C 351.247 307.063,351.051 323.833,350.813 323.833 C 350.574 323.833,339.975 318.628,327.259 312.267 C 314.544 305.906,303.844 300.702,303.482 300.702 C 303.120 300.702,299.070 308.219,294.483 317.407 L 286.143 334.113 337.540 359.814 C 365.808 373.950,389.128 385.515,389.363 385.515 C 389.597 385.515,389.888 351.911,390.008 310.839 L 390.227 236.164 433.919 221.625 C 457.949 213.629,477.744 206.974,477.908 206.835 C 478.549 206.293,466.450 171.340,465.621 171.340 C 465.135 171.340,447.978 176.930,427.493 183.762 C 407.009 190.594,390.148 196.184,390.024 196.184 C 389.900 196.184,389.798 172.475,389.798 143.497 L 389.798 90.810 370.529 90.810 L 351.259 90.810 351.039 150.065 " stroke="none" fill-rule="evenodd" fill="black"></path></svg>