<svg width="136mm" height="120mm" version="1.1" viewBox="0 0 600 529.4117647058824" xmlns="http://www.w3.org/2000/svg"><path d="M53.115 109.658 L 53.115 128.505 89.027 128.505 L 124.938 128.505 87.742 240.086 C 67.284 301.456,50.545 351.930,50.545 352.251 C 50.545 353.069,85.474 364.579,86.090 363.963 C 86.367 363.686,96.537 333.629,108.690 297.170 L 130.786 230.881 137.998 230.628 C 153.390 230.090,165.862 235.086,176.940 246.229 C 184.809 254.145,188.551 260.540,191.065 270.371 C 198.919 301.079,177.411 332.131,145.876 335.614 L 140.070 336.255 139.840 354.888 L 139.609 373.521 144.671 373.521 C 147.455 373.521,152.806 372.938,156.562 372.226 C 191.159 365.663,218.468 340.212,227.684 305.944 C 229.659 298.601,229.900 296.116,229.897 283.139 C 229.893 266.962,228.927 261.840,223.257 247.931 C 211.246 218.470,181.699 196.574,149.280 193.109 C 146.335 192.794,143.926 192.303,143.926 192.017 C 143.926 191.731,148.644 177.324,154.411 160.001 L 164.897 128.505 197.675 128.505 L 230.452 128.505 230.452 109.658 L 230.452 90.810 141.784 90.810 L 53.115 90.810 53.115 109.658 M351.039 150.065 L 350.819 209.321 295.562 227.714 C 265.170 237.830,240.170 246.221,240.007 246.359 C 239.367 246.901,251.463 281.854,252.291 281.854 C 252.775 281.854,275.139 274.530,301.987 265.577 C 328.835 256.624,350.902 249.300,351.024 249.300 C 351.147 249.300,351.247 266.070,351.247 286.566 C 351.247 307.063,351.051 323.833,350.813 323.833 C 350.574 323.833,339.975 318.628,327.259 312.267 C 314.544 305.906,303.844 300.702,303.482 300.702 C 303.120 300.702,299.070 308.219,294.483 317.407 L 286.143 334.113 337.543 359.815 L 388.942 385.518 388.942 311.055 L 388.942 236.592 433.276 221.839 C 457.660 213.726,477.744 206.974,477.908 206.835 C 478.549 206.293,466.450 171.340,465.621 171.340 C 465.135 171.340,447.978 176.930,427.493 183.762 C 407.009 190.594,389.955 196.184,389.595 196.184 C 389.236 196.184,388.942 172.475,388.942 143.497 L 388.942 90.810 370.100 90.810 L 351.259 90.810 351.039 150.065 " stroke="none" fill-rule="evenodd" fill="black"></path></svg>