<svg width="136mm" height="120mm" version="1.1" viewBox="0 0 600 529.4117647058824" xmlns="http://www.w3.org/2000/svg"><path d="M53.115 109.658 L 53.115 128.505 89.027 128.505 L 124.938 128.505 87.742 240.086 C 67.284 301.456,50.545 351.930,50.545 352.251 C 50.545 353.069,85.474 364.579,86.090 363.963 C 86.367 363.686,96.537 333.629,108.689 297.170 L 130.785 230.881 136.713 230.603 C 152.668 229.856,165.720 234.913,176.989 246.206 C 182.144 251.372,184.729 254.803,187.066 259.580 C 194.573 274.924,194.634 291.197,187.242 306.270 C 179.050 322.973,163.234 334.170,145.853 335.573 L 139.642 336.074 139.642 354.927 L 139.642 373.780 147.995 373.264 C 177.083 371.468,205.751 352.475,220.021 325.546 C 235.337 296.643,233.548 260.599,215.448 233.395 C 201.040 211.742,177.987 197.261,152.064 193.580 C 147.824 192.977,144.219 192.379,144.054 192.249 C 143.889 192.120,148.511 177.725,154.326 160.260 L 164.897 128.505 197.675 128.505 L 230.452 128.505 230.452 109.658 L 230.452 90.810 141.784 90.810 L 53.115 90.810 53.115 109.658 M351.039 150.065 L 350.819 209.321 295.562 227.714 C 265.170 237.830,240.170 246.221,240.007 246.359 C 239.367 246.901,251.463 281.854,252.291 281.854 C 252.775 281.854,275.139 274.530,301.987 265.577 C 328.835 256.624,350.902 249.300,351.024 249.300 C 351.147 249.300,351.247 266.070,351.247 286.566 C 351.247 307.063,351.051 323.833,350.813 323.833 C 350.574 323.833,339.975 318.628,327.259 312.267 C 314.544 305.906,303.844 300.702,303.482 300.702 C 303.120 300.702,299.070 308.219,294.483 317.407 L 286.143 334.113 337.543 359.815 L 388.942 385.518 388.942 311.055 L 388.942 236.592 433.276 221.839 C 457.660 213.726,477.744 206.974,477.908 206.835 C 478.549 206.293,466.450 171.340,465.621 171.340 C 465.135 171.340,447.978 176.930,427.493 183.762 C 407.009 190.594,389.955 196.184,389.595 196.184 C 389.236 196.184,388.942 172.475,388.942 143.497 L 388.942 90.810 370.100 90.810 L 351.259 90.810 351.039 150.065 " stroke="none" fill-rule="evenodd" fill="black"></path></svg>