<svg width="136mm" height="120mm" version="1.1" viewBox="0 0 600 529.4117647058824" xmlns="http://www.w3.org/2000/svg"><path d="M341.837 80.933 C 329.890 83.196,317.100 88.433,306.270 95.500 C 299.742 99.759,284.885 114.572,280.699 120.996 C 273.675 131.773,269.053 143.066,266.460 155.788 C 264.806 163.908,264.720 167.383,264.720 226.597 C 264.720 285.812,264.806 289.286,266.460 297.406 C 270.285 316.173,277.809 330.657,290.769 344.202 C 311.418 365.780,337.447 375.682,367.319 373.323 C 406.889 370.197,440.663 341.429,450.641 302.350 C 453.425 291.445,454.024 278.039,454.024 226.597 C 454.024 164.375,453.281 155.316,446.838 138.939 C 435.992 111.374,410.865 89.436,381.776 82.134 C 372.569 79.824,351.107 79.178,341.837 80.933 M59.969 109.658 L 59.969 128.505 95.950 128.505 C 115.740 128.505,131.932 128.796,131.932 129.151 C 131.932 129.507,115.200 179.989,94.751 241.334 L 57.569 352.870 75.516 358.859 C 93.275 364.786,93.470 364.829,94.156 362.974 C 94.538 361.943,104.637 331.704,116.599 295.776 L 138.349 230.452 145.635 230.467 C 161.983 230.501,173.697 235.237,184.646 246.239 C 195.685 257.333,200.009 268.031,199.926 284.040 C 199.873 294.293,197.864 301.823,193.001 310.004 C 189.180 316.431,179.560 325.862,172.999 329.614 C 167.349 332.845,157.001 335.826,151.439 335.826 L 147.352 335.826 147.352 354.917 L 147.352 374.008 155.632 373.342 C 186.479 370.858,214.504 351.621,228.381 323.404 C 248.004 283.505,237.045 237.799,201.325 210.554 C 189.945 201.875,171.713 194.784,156.660 193.183 L 150.976 192.579 161.659 160.542 L 172.342 128.505 205.252 128.505 L 238.163 128.505 238.163 109.658 L 238.163 90.810 149.066 90.810 L 59.969 90.810 59.969 109.658 M340.110 226.690 L 340.110 332.585 337.754 332.014 C 329.562 330.026,314.345 316.350,309.110 306.270 C 302.538 293.616,302.843 297.502,302.843 226.597 C 302.843 155.692,302.538 159.578,309.110 146.924 C 313.286 138.885,323.831 128.317,331.971 124.014 C 335.270 122.271,338.450 120.833,339.039 120.820 C 339.890 120.800,340.110 142.532,340.110 226.690 M387.228 124.429 C 389.820 125.885,395.226 130.385,399.241 134.430 C 407.488 142.737,412.148 150.955,414.259 160.914 C 416.037 169.306,416.037 283.889,414.259 292.281 C 412.150 302.229,407.488 310.456,399.241 318.779 C 392.254 325.830,382.599 332.400,379.222 332.400 C 377.911 332.400,377.805 324.442,377.805 226.504 L 377.805 120.609 380.161 121.196 C 381.456 121.518,384.637 122.973,387.228 124.429 " stroke="none" fill-rule="evenodd" fill="black"></path></svg>