<svg width="136mm" height="120mm" version="1.1" viewBox="0 0 600 529.4117647058824" xmlns="http://www.w3.org/2000/svg"><path d="M341.931 80.922 C 303.764 88.134,274.247 117.361,266.485 155.626 C 264.799 163.939,264.720 167.107,264.720 226.597 C 264.720 286.088,264.799 289.255,266.485 297.569 C 274.930 339.201,309.192 370.002,350.780 373.350 C 381.743 375.842,409.827 364.437,430.281 341.063 C 439.601 330.412,445.898 318.533,450.361 303.181 L 452.700 295.133 452.983 230.473 C 453.164 189.154,452.949 163.771,452.389 160.158 C 448.012 131.946,432.282 108.439,407.217 92.654 C 401.336 88.950,388.340 83.700,380.375 81.810 C 371.792 79.774,350.596 79.285,341.931 80.922 M60.826 109.658 L 60.826 128.505 96.737 128.505 L 132.648 128.505 95.452 240.086 C 74.994 301.456,58.256 351.927,58.256 352.243 C 58.256 352.812,91.294 364.098,92.959 364.098 C 93.433 364.098,103.839 334.027,116.083 297.275 L 138.345 230.452 145.633 230.467 C 161.697 230.500,173.548 235.204,184.208 245.780 C 195.628 257.109,199.927 267.312,199.947 283.139 C 199.967 298.290,195.498 309.377,185.047 320.107 C 175.941 329.456,165.440 334.614,153.563 335.573 L 147.352 336.074 147.352 354.927 L 147.352 373.780 155.705 373.264 C 166.260 372.612,176.899 369.597,188.046 364.100 C 228.005 344.390,247.681 296.785,233.339 254.514 C 222.131 221.482,193.520 198.139,158.527 193.480 L 151.009 192.480 161.676 160.492 L 172.342 128.505 205.252 128.505 L 238.163 128.505 238.163 109.658 L 238.163 90.810 149.494 90.810 L 60.826 90.810 60.826 109.658 M339.902 280.190 L 339.682 333.222 333.256 330.052 C 323.835 325.404,313.380 314.800,308.543 304.985 C 302.405 292.530,302.445 293.043,302.445 226.597 C 302.445 160.156,302.406 160.661,308.539 148.220 C 313.347 138.466,322.952 128.736,332.828 123.614 L 339.682 120.059 339.902 173.609 C 340.024 203.061,340.024 251.023,339.902 280.190 M391.205 127.307 C 402.607 135.374,411.522 148.618,414.215 161.488 C 416.068 170.343,416.068 282.851,414.215 291.706 C 410.757 308.233,397.152 324.902,381.725 331.515 L 377.805 333.195 377.805 226.615 L 377.805 120.034 381.874 121.809 C 384.112 122.785,388.311 125.259,391.205 127.307 " stroke="none" fill-rule="evenodd" fill="black"></path></svg>