<svg width="136mm" height="120mm" version="1.1" viewBox="0 0 600 529.4117647058824" xmlns="http://www.w3.org/2000/svg"><path d="M94.237 226.597 L 94.237 415.500 113.513 415.500 L 132.788 415.500 132.788 342.252 C 132.788 301.965,132.987 269.004,133.229 269.004 C 133.471 269.004,138.670 271.510,144.782 274.572 C 150.894 277.635,156.089 280.141,156.325 280.141 C 156.562 280.141,158.241 277.188,160.057 273.579 C 161.873 269.969,163.561 267.367,163.807 267.796 C 164.054 268.225,168.211 280.526,173.045 295.133 C 177.879 309.740,182.093 321.978,182.409 322.330 C 182.726 322.681,189.314 320.850,197.051 318.261 C 204.788 315.671,211.228 313.552,211.362 313.552 C 211.495 313.552,211.605 325.477,211.605 340.051 L 211.605 366.551 201.602 363.190 C 196.101 361.342,191.464 359.966,191.297 360.132 C 191.131 360.298,188.340 368.381,185.094 378.094 L 179.192 395.754 214.032 407.157 L 248.871 418.560 249.092 365.628 C 249.213 336.515,249.599 312.696,249.948 312.695 C 250.298 312.695,257.644 315.049,266.273 317.925 C 274.902 320.801,282.144 322.972,282.366 322.750 C 283.426 321.690,304.889 255.723,304.335 255.226 C 303.627 254.592,269.636 243.215,269.393 243.531 C 269.308 243.641,264.848 256.839,259.483 272.859 L 249.728 301.987 249.507 251.227 L 249.286 200.468 230.446 200.468 L 211.605 200.468 211.538 245.659 L 211.472 290.850 203.831 268.147 C 199.628 255.661,196.015 244.983,195.803 244.419 C 195.532 243.700,192.021 244.532,184.056 247.203 C 177.808 249.299,172.391 251.013,172.017 251.013 C 171.643 251.013,185.410 222.871,202.610 188.474 C 219.809 154.077,234.073 125.935,234.307 125.935 C 234.541 125.935,246.920 150.319,261.815 180.121 C 276.710 209.924,289.006 234.427,289.140 234.574 C 289.273 234.720,294.335 232.358,300.386 229.325 L 311.390 223.810 322.714 229.454 C 328.942 232.557,334.205 234.919,334.409 234.702 C 334.614 234.485,346.989 209.881,361.910 180.027 C 376.831 150.173,389.167 125.885,389.324 126.055 C 389.481 126.224,399.498 146.150,411.584 170.334 L 433.558 214.304 429.664 211.625 C 417.662 203.367,405.817 200.091,390.227 200.715 C 372.301 201.433,360.546 206.589,347.820 219.315 C 339.591 227.544,335.111 234.606,331.787 244.588 C 329.750 250.705,329.499 252.776,329.453 263.864 C 329.408 274.551,329.680 277.183,331.395 282.711 C 333.878 290.711,338.290 298.927,343.200 304.693 C 345.270 307.125,346.963 309.378,346.964 309.702 C 346.964 310.026,345.390 312.078,343.467 314.263 C 338.839 319.521,334.391 327.608,331.685 335.684 C 329.711 341.575,329.484 343.576,329.486 355.102 C 329.488 366.749,329.703 368.595,331.779 374.806 C 335.119 384.800,339.598 391.856,347.820 400.079 C 356.026 408.285,363.068 412.761,373.093 416.141 C 379.372 418.259,381.059 418.452,393.225 418.448 C 405.530 418.443,407.007 418.268,413.358 416.058 C 425.489 411.838,435.235 404.891,443.398 394.646 C 453.099 382.469,456.958 371.248,456.994 355.102 C 457.021 343.038,455.669 336.992,450.672 326.831 C 448.818 323.062,445.418 317.651,443.117 314.807 L 438.934 309.637 443.108 304.527 C 448.075 298.447,453.468 287.860,455.530 280.141 C 457.762 271.784,457.540 256.018,455.069 247.313 C 454.023 243.629,452.243 238.810,451.113 236.604 L 449.059 232.594 463.462 225.312 L 477.865 218.030 433.510 129.362 L 389.155 40.694 350.713 117.582 C 329.570 159.871,312.078 194.465,311.841 194.459 C 311.604 194.452,294.107 159.922,272.958 117.726 L 234.506 41.006 183.861 141.723 L 133.217 242.439 132.999 140.067 L 132.782 37.695 113.509 37.695 L 94.237 37.695 94.237 226.597 M37.695 226.597 L 37.695 358.957 56.542 358.957 L 75.390 358.957 75.390 226.597 L 75.390 94.237 56.542 94.237 L 37.695 94.237 37.695 226.597 M404.585 240.694 C 406.828 241.829,409.297 243.459,410.072 244.316 C 411.430 245.816,410.817 245.873,393.209 245.873 L 374.936 245.873 376.942 243.738 C 382.297 238.037,396.294 236.496,404.585 240.694 M409.451 284.915 C 406.974 287.900,401.442 289.856,394.384 290.244 C 388.250 290.580,386.847 290.367,382.818 288.480 C 372.671 283.729,372.880 283.625,392.688 283.595 C 408.856 283.570,410.462 283.697,409.451 284.915 M404.848 331.327 C 406.764 332.319,408.835 333.738,409.451 334.479 C 410.462 335.697,408.856 335.824,392.688 335.799 C 372.938 335.769,372.819 335.713,382.517 330.977 C 386.261 329.149,387.716 328.926,394.082 329.204 C 399.335 329.434,402.335 330.025,404.848 331.327 M408.218 376.541 C 402.349 381.341,391.815 382.603,383.522 379.500 C 380.977 378.548,378.204 377.006,377.360 376.073 C 375.836 374.389,375.941 374.378,393.307 374.409 L 410.788 374.440 408.218 376.541 " stroke="none" fill-rule="evenodd" fill="black"></path></svg>