<svg width="136mm" height="120mm" version="1.1" viewBox="0 0 600 529.4117647058824" xmlns="http://www.w3.org/2000/svg"><path d="M94.237 226.597 L 94.237 415.500 113.513 415.500 L 132.788 415.500 132.788 342.252 C 132.788 301.965,132.987 269.004,133.229 269.004 C 133.471 269.004,138.670 271.510,144.782 274.572 C 150.894 277.635,156.089 280.141,156.325 280.141 C 156.562 280.141,158.241 277.188,160.057 273.579 C 161.873 269.969,163.561 267.367,163.807 267.796 C 164.054 268.225,168.211 280.526,173.045 295.133 C 177.879 309.740,182.093 321.978,182.409 322.330 C 182.726 322.681,189.314 320.850,197.051 318.261 C 204.788 315.671,211.228 313.552,211.362 313.552 C 211.495 313.552,211.605 325.477,211.605 340.051 L 211.605 366.551 201.602 363.190 C 196.101 361.342,191.464 359.966,191.297 360.132 C 191.131 360.298,188.362 368.315,185.143 377.947 L 179.290 395.460 214.295 407.120 L 249.300 418.781 249.300 365.738 C 249.300 336.565,249.589 312.695,249.942 312.695 C 250.295 312.695,257.644 315.049,266.273 317.925 C 274.902 320.801,282.144 322.972,282.366 322.750 C 283.426 321.690,304.889 255.723,304.335 255.226 C 303.627 254.592,269.636 243.215,269.393 243.531 C 269.308 243.641,264.848 256.839,259.483 272.859 L 249.728 301.987 249.507 251.227 L 249.286 200.468 230.446 200.468 L 211.605 200.468 211.537 245.230 L 211.470 289.993 203.710 266.862 C 199.442 254.140,195.878 243.639,195.790 243.526 C 195.703 243.413,190.471 245.052,184.164 247.167 C 177.857 249.282,172.391 251.013,172.017 251.013 C 171.643 251.013,185.410 222.871,202.610 188.474 C 219.809 154.077,234.073 125.935,234.307 125.935 C 234.541 125.935,246.920 150.319,261.815 180.121 C 276.710 209.924,289.006 234.427,289.140 234.574 C 289.273 234.720,294.335 232.358,300.386 229.325 L 311.390 223.810 322.714 229.454 C 328.942 232.557,334.205 234.919,334.409 234.702 C 334.614 234.485,346.989 209.881,361.910 180.027 C 376.831 150.173,389.167 125.885,389.324 126.055 C 390.611 127.446,433.308 214.171,432.458 213.668 C 431.848 213.307,430.192 212.159,428.778 211.118 C 424.933 208.284,416.492 204.241,410.743 202.479 C 406.750 201.256,402.866 200.925,392.797 200.951 C 381.197 200.980,379.279 201.206,373.093 203.274 C 363.099 206.614,356.043 211.093,347.820 219.315 C 335.109 232.026,329.959 243.760,329.194 261.748 C 328.827 270.378,329.050 273.236,330.562 279.311 C 332.822 288.386,338.070 298.950,343.274 304.899 C 346.048 308.070,347.022 309.787,346.471 310.536 C 346.035 311.128,343.979 313.687,341.902 316.223 C 337.027 322.176,332.104 332.751,330.230 341.301 C 329.099 346.457,328.853 350.419,329.194 358.006 C 329.986 375.650,335.226 387.484,347.820 400.079 C 360.576 412.835,372.411 418.030,390.227 418.696 C 403.329 419.185,410.718 417.712,421.068 412.550 C 429.422 408.382,435.949 403.235,442.400 395.727 C 461.670 373.297,462.170 339.278,443.576 315.673 L 438.836 309.656 442.627 304.965 C 453.926 290.985,458.944 273.670,456.663 256.529 C 455.680 249.145,453.031 240.133,450.362 235.092 L 449.039 232.594 463.452 225.312 L 477.865 218.030 433.510 129.362 L 389.155 40.694 350.713 117.582 C 329.570 159.871,312.077 194.471,311.839 194.471 C 311.601 194.471,294.107 159.871,272.964 117.582 L 234.523 40.693 183.703 142.212 L 132.883 243.731 132.836 140.713 L 132.788 37.695 113.513 37.695 L 94.237 37.695 94.237 226.597 M37.695 226.597 L 37.695 358.990 56.756 358.760 L 75.818 358.529 75.818 226.597 L 75.818 94.665 56.756 94.435 L 37.695 94.204 37.695 226.597 M404.409 240.947 C 413.458 245.568,412.744 245.873,392.868 245.873 C 383.170 245.873,375.237 245.584,375.240 245.230 C 375.250 244.223,380.495 240.905,384.251 239.530 C 386.124 238.844,390.199 238.256,393.307 238.223 C 398.062 238.172,399.820 238.604,404.409 240.947 M409.451 284.915 C 406.531 288.434,401.609 289.971,393.225 289.982 C 384.814 289.993,381.895 289.150,376.948 285.281 L 374.806 283.606 392.688 283.587 C 408.856 283.570,410.462 283.697,409.451 284.915 M405.449 331.810 C 407.630 333.088,409.649 334.514,409.937 334.980 C 410.276 335.527,404.164 335.817,392.633 335.799 C 372.943 335.769,372.821 335.711,382.517 330.977 C 386.255 329.152,387.734 328.924,394.142 329.186 C 400.250 329.435,402.149 329.876,405.449 331.810 M409.644 375.493 C 407.572 377.990,400.556 380.631,394.926 381.034 C 388.377 381.502,382.423 379.927,377.771 376.495 L 374.902 374.378 392.735 374.378 C 407.283 374.378,410.399 374.583,409.644 375.493 " stroke="none" fill-rule="evenodd" fill="black"></path></svg>