<svg width="136mm" height="120mm" version="1.1" viewBox="0 0 600 529.4117647058824" xmlns="http://www.w3.org/2000/svg"><path d="M94.237 226.597 L 94.237 415.532 113.299 415.302 L 132.360 415.071 132.579 341.606 L 132.798 268.140 144.777 274.141 L 156.755 280.142 160.057 273.579 C 161.873 269.969,163.561 267.367,163.807 267.796 C 164.054 268.225,168.211 280.526,173.045 295.133 C 177.879 309.740,182.093 321.978,182.409 322.330 C 182.726 322.681,189.314 320.850,197.051 318.261 C 204.788 315.671,211.228 313.552,211.362 313.552 C 211.495 313.552,211.605 325.477,211.605 340.051 L 211.605 366.551 201.602 363.190 C 196.101 361.342,191.464 359.966,191.297 360.132 C 191.131 360.298,188.362 368.315,185.143 377.947 L 179.290 395.460 214.295 407.120 L 249.300 418.781 249.300 365.738 C 249.300 336.565,249.589 312.695,249.942 312.695 C 250.295 312.695,257.644 315.049,266.273 317.925 C 274.902 320.801,282.144 322.972,282.366 322.750 C 283.426 321.690,304.889 255.723,304.335 255.226 C 303.627 254.592,269.636 243.215,269.393 243.531 C 269.308 243.641,264.848 256.839,259.483 272.859 L 249.728 301.987 249.507 251.227 L 249.286 200.468 230.446 200.468 L 211.605 200.468 211.538 245.230 L 211.472 289.993 203.915 267.564 C 199.759 255.228,196.121 244.751,195.832 244.282 C 195.512 243.764,190.874 244.916,184.001 247.222 C 177.783 249.307,172.391 251.013,172.017 251.013 C 171.643 251.013,185.410 222.871,202.610 188.474 C 219.809 154.077,234.073 125.935,234.307 125.935 C 234.541 125.935,246.920 150.319,261.815 180.121 C 276.710 209.924,289.006 234.427,289.139 234.573 C 289.273 234.720,294.435 232.307,300.611 229.213 L 311.839 223.586 323.067 229.213 C 329.242 232.307,334.404 234.720,334.538 234.573 C 334.672 234.427,346.989 209.881,361.910 180.027 C 376.831 150.173,389.167 125.885,389.324 126.055 C 390.611 127.446,433.308 214.171,432.458 213.668 C 431.848 213.307,430.182 212.137,428.756 211.068 C 424.528 207.898,415.507 204.031,407.785 202.078 C 401.658 200.529,398.994 200.322,390.253 200.721 C 376.564 201.346,368.001 204.065,357.215 211.209 C 326.184 231.764,319.626 275.681,343.256 304.692 C 345.295 307.196,346.964 309.448,346.964 309.697 C 346.964 309.946,345.255 312.247,343.167 314.810 C 334.333 325.656,329.909 337.212,329.201 351.286 C 328.584 363.567,330.347 372.167,335.782 383.373 C 342.171 396.547,351.500 405.929,364.629 412.383 C 375.227 417.593,379.412 418.479,393.225 418.435 C 404.367 418.399,406.354 418.158,412.501 416.096 C 429.392 410.430,442.503 399.050,450.205 383.373 C 455.130 373.348,456.815 365.982,456.770 354.674 C 456.710 339.751,452.379 327.269,443.028 315.068 L 438.771 309.514 442.567 304.894 C 447.725 298.615,452.887 288.438,454.995 280.387 C 458.519 266.931,456.855 248.756,451.051 237.303 C 449.811 234.855,448.918 232.741,449.067 232.605 C 449.217 232.470,455.757 229.135,463.602 225.194 L 477.865 218.030 433.510 129.363 L 389.156 40.697 350.390 118.224 L 311.625 195.752 272.964 118.435 L 234.304 41.118 183.760 142.216 L 133.217 243.315 132.788 140.719 L 132.360 38.123 113.299 37.893 L 94.237 37.662 94.237 226.597 M37.695 226.597 L 37.695 358.957 56.542 358.957 L 75.390 358.957 75.390 226.597 L 75.390 94.237 56.542 94.237 L 37.695 94.237 37.695 226.597 M403.934 240.598 C 406.761 241.936,409.603 243.671,410.250 244.452 C 411.339 245.768,410.085 245.873,393.330 245.873 C 382.909 245.873,375.235 245.539,375.235 245.086 C 375.235 244.653,376.635 243.434,378.346 242.376 C 386.458 237.363,395.740 236.718,403.934 240.598 M408.218 285.731 C 402.061 290.766,390.127 291.989,382.517 288.365 C 372.749 283.714,372.949 283.622,392.797 283.626 L 410.788 283.629 408.218 285.731 M405.449 331.810 C 407.630 333.088,409.649 334.514,409.937 334.980 C 410.276 335.527,404.164 335.817,392.633 335.799 C 372.943 335.769,372.821 335.711,382.517 330.977 C 386.255 329.152,387.734 328.924,394.142 329.186 C 400.250 329.435,402.149 329.876,405.449 331.810 M410.304 374.873 C 409.687 375.617,407.230 377.246,404.845 378.494 C 401.151 380.426,399.419 380.765,393.170 380.783 C 386.680 380.801,385.252 380.506,380.816 378.233 C 372.198 373.818,372.982 373.521,393.259 373.521 C 409.709 373.521,411.320 373.649,410.304 374.873 " stroke="none" fill-rule="evenodd" fill="black"></path></svg>