<svg width="136mm" height="120mm" version="1.1" viewBox="0 0 600 529.4117647058824" xmlns="http://www.w3.org/2000/svg"><path d="M75.390 101.947 L 75.390 120.795 175.195 120.795 C 230.088 120.795,275.001 120.989,275.001 121.227 C 275.001 121.735,242.431 187.004,241.891 187.578 C 241.690 187.792,233.730 180.178,224.202 170.658 C 214.674 161.138,206.500 153.349,206.039 153.349 C 204.928 153.349,179.907 178.352,179.907 179.462 C 179.907 179.936,189.769 190.191,201.823 202.251 L 223.739 224.179 183.832 303.989 C 161.884 347.884,143.926 384.184,143.926 384.656 C 143.926 385.227,191.984 385.515,286.995 385.515 C 400.876 385.515,430.063 385.297,430.063 384.444 C 430.063 382.944,385.446 249.031,384.657 248.163 C 384.153 247.609,349.972 257.999,348.956 259.015 C 348.820 259.152,355.255 278.895,363.256 302.890 C 371.258 326.884,377.805 346.810,377.805 347.168 C 377.805 347.527,338.868 347.820,291.278 347.820 C 243.688 347.820,204.751 347.626,204.751 347.389 C 204.751 347.152,215.385 325.694,228.381 299.705 L 252.010 252.452 272.295 272.723 L 292.580 292.995 306.062 279.492 L 319.545 265.990 294.772 241.228 L 269.998 216.465 303.342 149.783 L 336.685 83.100 206.037 83.100 L 75.390 83.100 75.390 101.947 " stroke="none" fill-rule="evenodd" fill="black"></path></svg>