<svg width="136mm" height="120mm" version="1.1" viewBox="0 0 600 529.4117647058824" xmlns="http://www.w3.org/2000/svg"><path d="M322.022 73.311 C 311.628 74.936,299.213 79.087,288.708 84.452 C 255.400 101.459,233.809 131.728,227.842 169.780 C 226.517 178.225,227.250 199.549,229.160 208.178 C 234.607 232.776,246.586 253.148,265.633 270.204 C 279.068 282.235,298.631 292.144,315.908 295.669 L 321.262 296.761 321.262 318.435 L 321.262 340.110 270.289 340.110 L 219.315 340.110 219.315 358.960 L 219.315 377.811 336.469 377.594 L 453.623 377.376 453.854 358.743 L 454.084 340.110 406.521 340.110 L 358.957 340.110 358.957 318.470 L 358.957 296.831 366.025 295.244 C 409.573 285.464,444.715 247.994,451.903 203.677 C 453.547 193.536,453.547 176.558,451.903 166.418 C 450.448 157.450,445.755 142.709,441.893 134.981 C 429.171 109.522,406.662 89.292,379.430 78.845 C 363.132 72.592,340.548 70.415,322.022 73.311 M53.115 109.658 L 53.115 128.505 89.027 128.505 L 124.938 128.505 87.742 240.086 C 67.284 301.456,50.545 351.927,50.545 352.243 C 50.545 352.812,83.584 364.098,85.248 364.098 C 85.723 364.098,96.129 334.027,108.373 297.275 L 130.634 230.452 137.923 230.467 C 154.275 230.501,165.994 235.227,176.989 246.221 C 182.155 251.387,184.724 254.793,187.066 259.580 C 198.057 282.045,192.503 307.970,173.247 324.082 C 164.867 331.093,152.978 335.826,143.746 335.826 L 139.642 335.826 139.642 354.803 L 139.642 373.780 147.995 373.264 C 173.786 371.671,200.555 355.801,215.350 333.330 C 220.333 325.762,222.500 321.378,225.414 312.969 C 236.819 280.054,228.533 244.057,203.877 219.401 C 189.590 205.115,171.345 196.161,151.108 193.505 L 143.299 192.480 153.965 160.492 L 164.632 128.505 197.542 128.505 L 230.452 128.505 230.452 109.658 L 230.452 90.810 141.784 90.810 L 53.115 90.810 53.115 109.658 M321.262 185.140 L 321.262 258.052 319.086 257.506 C 314.187 256.277,307.615 253.397,301.416 249.764 C 285.581 240.484,273.229 224.503,267.619 206.036 C 265.499 199.059,265.277 197.063,265.277 185.047 C 265.277 173.031,265.499 171.035,267.619 164.058 C 273.517 144.644,286.097 128.914,303.615 119.049 C 308.593 116.245,318.099 112.360,320.192 112.272 C 321.040 112.237,321.262 127.358,321.262 185.140 M367.773 114.808 C 386.603 121.869,403.829 139.557,410.984 159.178 C 425.315 198.477,404.377 242.737,365.054 256.267 C 362.495 257.147,360.077 257.867,359.680 257.867 C 359.282 257.867,358.957 225.056,358.957 184.954 L 358.957 112.042 361.134 112.588 C 362.331 112.889,365.319 113.888,367.773 114.808 " stroke="none" fill-rule="evenodd" fill="black"></path></svg>