<svg width="136mm" height="120mm" version="1.1" viewBox="0 0 600 529.4117647058824" xmlns="http://www.w3.org/2000/svg"><path d="M322.548 73.244 C 276.185 80.584,239.445 115.469,229.160 161.916 C 227.250 170.545,226.517 191.869,227.842 200.314 C 233.460 236.142,253.050 265.257,283.566 283.136 C 291.758 287.935,305.127 293.223,314.195 295.251 L 321.262 296.831 321.262 318.470 L 321.262 340.110 270.289 340.110 L 219.315 340.110 219.315 358.957 L 219.315 377.805 336.255 377.805 L 453.194 377.805 453.194 358.957 L 453.194 340.110 406.076 340.110 L 358.957 340.110 358.957 318.435 L 358.957 296.761 364.312 295.669 C 367.257 295.068,372.557 293.588,376.091 292.381 C 414.637 279.210,442.511 247.634,451.203 207.292 C 453.401 197.091,453.401 173.004,451.203 162.802 C 446.488 140.918,436.763 122.512,421.697 106.956 C 395.710 80.123,358.664 67.527,322.548 73.244 M53.115 109.658 L 53.115 128.505 89.027 128.505 L 124.938 128.505 87.742 240.086 C 67.284 301.456,50.545 351.930,50.545 352.251 C 50.545 353.069,85.474 364.579,86.090 363.963 C 86.367 363.686,96.537 333.629,108.689 297.170 L 130.785 230.881 136.713 230.603 C 152.668 229.856,165.720 234.913,176.989 246.206 C 182.144 251.372,184.729 254.803,187.066 259.580 C 194.573 274.924,194.634 291.197,187.242 306.270 C 179.050 322.973,163.234 334.170,145.853 335.573 L 139.642 336.074 139.642 354.927 L 139.642 373.780 147.995 373.264 C 177.083 371.468,205.751 352.475,220.021 325.546 C 235.337 296.643,233.548 260.599,215.448 233.395 C 201.040 211.742,177.987 197.261,152.064 193.580 C 147.824 192.977,144.219 192.379,144.054 192.249 C 143.889 192.120,148.511 177.725,154.326 160.260 L 164.897 128.505 197.675 128.505 L 230.452 128.505 230.452 109.658 L 230.452 90.810 141.784 90.810 L 53.115 90.810 53.115 109.658 M321.262 185.047 C 321.262 225.098,320.937 257.867,320.540 257.867 C 319.033 257.867,310.328 254.572,305.823 252.296 C 287.684 243.135,273.771 226.288,267.619 206.036 C 265.499 199.059,265.277 197.063,265.277 185.047 C 265.277 173.031,265.499 171.035,267.619 164.058 C 273.517 144.644,286.097 128.914,303.615 119.049 C 308.593 116.245,318.099 112.360,320.192 112.272 C 321.040 112.237,321.262 127.339,321.262 185.047 M365.406 113.949 C 387.508 121.553,405.488 140.643,412.601 164.058 C 414.720 171.035,414.943 173.031,414.943 185.047 C 414.943 197.063,414.720 199.059,412.601 206.036 C 406.396 226.460,392.332 243.282,373.562 252.731 C 369.760 254.645,361.052 257.867,359.680 257.867 C 359.282 257.867,358.957 225.098,358.957 185.047 C 358.957 144.996,359.282 112.228,359.680 112.228 C 360.077 112.228,362.654 113.002,365.406 113.949 " stroke="none" fill-rule="evenodd" fill="black"></path></svg>