<svg width="136mm" height="120mm" version="1.1" viewBox="0 0 600 529.4117647058824" xmlns="http://www.w3.org/2000/svg"><path d="M322.119 73.171 C 297.691 77.495,278.334 87.353,260.940 104.327 C 245.291 119.598,235.369 137.098,229.774 159.294 C 227.692 167.555,227.494 169.794,227.494 185.047 C 227.494 200.300,227.692 202.540,229.774 210.800 C 231.028 215.776,233.266 222.908,234.748 226.649 C 248.248 260.740,279.290 287.551,314.195 295.268 L 321.262 296.831 321.262 318.470 L 321.262 340.110 270.289 340.110 L 219.315 340.110 219.315 358.957 L 219.315 377.805 336.255 377.805 L 453.194 377.805 453.194 358.957 L 453.194 340.110 406.076 340.110 L 358.957 340.110 358.957 318.470 L 358.957 296.831 366.025 295.255 C 395.475 288.689,422.397 268.666,438.180 241.591 C 445.425 229.162,450.182 215.147,452.394 199.717 C 453.681 190.739,452.964 170.753,451.037 161.916 C 446.345 140.398,436.686 122.410,421.325 106.586 C 404.686 89.444,386.293 79.204,362.812 74.008 C 354.569 72.184,330.492 71.689,322.119 73.171 M53.115 109.658 L 53.115 128.505 89.027 128.505 L 124.938 128.505 87.742 240.086 C 67.284 301.456,50.545 351.930,50.545 352.251 C 50.545 353.069,85.474 364.579,86.090 363.963 C 86.367 363.686,96.537 333.629,108.690 297.170 L 130.786 230.881 137.998 230.628 C 153.390 230.090,165.862 235.086,176.940 246.229 C 184.809 254.145,188.551 260.540,191.065 270.371 C 198.919 301.079,177.411 332.131,145.876 335.614 L 140.070 336.255 139.840 354.888 L 139.609 373.521 144.671 373.521 C 147.455 373.521,152.806 372.938,156.562 372.226 C 191.159 365.663,218.468 340.212,227.684 305.944 C 229.659 298.601,229.900 296.116,229.897 283.139 C 229.893 266.962,228.927 261.840,223.257 247.931 C 211.246 218.470,181.699 196.574,149.280 193.109 C 146.335 192.794,143.926 192.303,143.926 192.017 C 143.926 191.731,148.644 177.324,154.411 160.001 L 164.897 128.505 197.675 128.505 L 230.452 128.505 230.452 109.658 L 230.452 90.810 141.784 90.810 L 53.115 90.810 53.115 109.658 M321.262 185.047 C 321.262 225.098,320.937 257.867,320.540 257.867 C 319.033 257.867,310.328 254.572,305.823 252.296 C 276.868 237.671,260.011 204.240,265.621 172.568 C 270.430 145.414,289.217 123.012,314.837 113.880 C 317.193 113.040,319.603 112.325,320.192 112.290 C 321.040 112.241,321.262 127.329,321.262 185.047 M365.252 113.896 C 387.583 121.579,405.400 140.468,412.605 164.100 C 414.721 171.040,414.943 173.030,414.943 185.047 C 414.943 197.064,414.721 199.055,412.605 205.994 C 405.400 229.626,387.583 248.515,365.252 256.198 C 362.585 257.116,360.077 257.867,359.680 257.867 C 359.282 257.867,358.957 225.098,358.957 185.047 C 358.957 144.996,359.282 112.228,359.680 112.228 C 360.077 112.228,362.585 112.978,365.252 113.896 " stroke="none" fill-rule="evenodd" fill="black"></path></svg>