<svg width="136mm" height="120mm" version="1.1" viewBox="0 0 600 529.4117647058824" xmlns="http://www.w3.org/2000/svg"><path d="M238.163 56.537 L 238.163 75.378 175.838 75.598 L 113.513 75.818 113.282 94.451 L 113.051 113.084 175.607 113.084 L 238.163 113.084 238.163 160.631 L 238.163 208.178 170.038 208.178 L 101.914 208.178 102.145 226.811 L 102.376 245.445 156.768 245.665 L 211.160 245.886 142.414 314.636 L 73.668 383.386 86.955 396.652 L 100.243 409.919 178.626 331.539 L 257.010 253.158 335.394 331.539 L 413.777 409.919 427.065 396.652 L 440.352 383.386 371.600 314.629 L 302.847 245.873 355.318 245.873 L 407.789 245.873 407.789 227.025 L 407.789 208.178 341.823 208.178 L 275.857 208.178 275.857 160.631 L 275.857 113.084 336.255 113.084 L 396.652 113.084 396.652 94.237 L 396.652 75.390 336.255 75.390 L 275.857 75.390 275.857 56.542 L 275.857 37.695 257.010 37.695 L 238.163 37.695 238.163 56.537 M113.517 139.634 C 109.038 148.581,105.374 156.098,105.374 156.337 C 105.374 156.577,122.337 165.256,143.070 175.624 L 180.767 194.476 189.087 177.809 C 193.664 168.642,197.229 160.973,197.010 160.767 C 196.435 160.225,122.598 123.365,122.088 123.365 C 121.853 123.365,117.996 130.686,113.517 139.634 M354.245 141.925 C 333.984 152.082,317.228 160.561,317.010 160.767 C 316.791 160.973,320.356 168.642,324.933 177.809 L 333.253 194.476 370.950 175.624 C 391.683 165.256,408.646 156.577,408.646 156.337 C 408.646 155.209,392.281 123.371,391.722 123.412 C 391.371 123.437,374.506 131.768,354.245 141.925 " stroke="none" fill-rule="evenodd" fill="black"></path></svg>