<svg width="136mm" height="120mm" version="1.1" viewBox="0 0 600 529.4117647058824" xmlns="http://www.w3.org/2000/svg"><path d="M238.163 56.542 L 238.163 75.390 175.624 75.390 L 113.084 75.390 113.084 94.237 L 113.084 113.084 175.624 113.084 L 238.163 113.084 238.163 160.631 L 238.163 208.178 170.055 208.178 L 101.947 208.178 101.947 227.025 L 101.947 245.873 156.560 245.873 L 211.173 245.873 142.420 314.629 L 73.668 383.386 86.955 396.652 L 100.243 409.919 178.626 331.539 L 257.010 253.158 335.394 331.539 L 413.777 409.919 427.065 396.652 L 440.352 383.386 371.606 314.636 L 302.861 245.886 355.539 245.665 L 408.218 245.445 408.448 226.811 L 408.679 208.178 342.268 208.178 L 275.857 208.178 275.857 160.631 L 275.857 113.084 336.255 113.084 L 396.652 113.084 396.652 94.237 L 396.652 75.390 336.255 75.390 L 275.857 75.390 275.857 56.542 L 275.857 37.695 257.010 37.695 L 238.163 37.695 238.163 56.542 M113.517 139.634 C 109.038 148.581,105.374 156.098,105.374 156.337 C 105.374 156.577,122.263 165.218,142.905 175.541 L 180.436 194.311 188.784 177.588 C 193.376 168.391,197.015 160.759,196.872 160.629 C 196.365 160.166,122.508 123.365,122.088 123.365 C 121.853 123.365,117.996 130.686,113.517 139.634 M354.245 141.925 C 333.984 152.082,317.215 160.576,316.979 160.800 C 316.743 161.024,320.397 168.649,325.099 177.744 L 333.647 194.279 371.146 175.526 C 391.771 165.211,408.646 156.577,408.646 156.337 C 408.646 155.209,392.281 123.371,391.722 123.412 C 391.371 123.437,374.506 131.768,354.245 141.925 " stroke="none" fill-rule="evenodd" fill="black"></path></svg>