<svg width="136mm" height="120mm" version="1.1" viewBox="0 0 600 529.4117647058824" xmlns="http://www.w3.org/2000/svg"><path d="M238.163 56.537 L 238.163 75.378 175.838 75.598 L 113.513 75.818 113.282 94.451 L 113.051 113.084 175.607 113.084 L 238.163 113.084 238.163 160.198 L 238.163 207.311 170.269 207.530 L 102.376 207.750 102.376 226.597 L 102.376 245.445 156.768 245.665 L 211.160 245.886 142.414 314.636 L 73.668 383.386 86.955 396.652 L 100.243 409.919 178.626 331.539 L 257.010 253.158 335.394 331.539 L 413.777 409.919 427.065 396.652 L 440.352 383.386 371.600 314.629 L 302.847 245.873 355.318 245.873 L 407.789 245.873 407.789 226.597 L 407.789 207.321 341.823 207.321 L 275.857 207.321 275.857 160.203 L 275.857 113.084 336.255 113.084 L 396.652 113.084 396.652 94.237 L 396.652 75.390 336.255 75.390 L 275.857 75.390 275.857 56.542 L 275.857 37.695 257.010 37.695 L 238.163 37.695 238.163 56.537 M113.517 139.634 C 109.038 148.581,105.374 156.098,105.374 156.337 C 105.374 156.577,122.263 165.218,142.905 175.541 L 180.436 194.311 188.738 177.679 C 193.305 168.532,197.041 160.859,197.041 160.628 C 197.041 160.073,123.626 123.365,122.516 123.365 C 122.045 123.365,117.996 130.686,113.517 139.634 M353.603 141.833 C 333.460 151.938,316.979 160.396,316.979 160.628 C 316.979 160.859,320.715 168.532,325.282 177.679 L 333.584 194.311 371.115 175.541 C 391.757 165.218,408.646 156.577,408.646 156.337 C 408.646 154.692,392.141 123.374,391.293 123.412 C 390.707 123.437,373.746 131.727,353.603 141.833 " stroke="none" fill-rule="evenodd" fill="black"></path></svg>