<svg width="136mm" height="120mm" version="1.1" viewBox="0 0 600 529.4117647058824" xmlns="http://www.w3.org/2000/svg"><path d="M189.331 75.357 L 189.331 113.018 185.690 113.926 C 175.070 116.572,154.198 124.047,144.826 128.559 C 114.143 143.335,94.809 163.141,89.037 185.711 C 87.470 191.838,87.383 195.829,87.383 262.287 L 87.383 332.400 106.216 332.400 L 125.049 332.400 125.278 263.221 L 125.507 194.043 127.578 189.834 C 131.982 180.887,146.549 169.146,162.138 161.980 C 169.140 158.761,186.457 152.493,188.347 152.493 C 189.083 152.493,189.331 185.581,189.331 283.996 L 189.331 415.500 208.178 415.500 L 227.025 415.500 227.025 280.265 L 227.025 145.030 232.808 144.484 C 240.294 143.777,273.726 143.777,281.212 144.484 L 286.995 145.030 286.995 280.265 L 286.995 415.500 305.842 415.500 L 324.689 415.500 324.689 283.996 C 324.689 184.662,324.933 152.493,325.685 152.493 C 327.632 152.493,344.847 158.714,351.838 161.943 C 367.529 169.192,382.039 180.887,386.442 189.834 L 388.513 194.043 388.742 263.221 L 388.971 332.400 407.804 332.400 L 426.637 332.400 426.624 262.364 C 426.610 184.441,426.796 187.222,420.749 174.420 C 408.256 147.971,376.700 127.156,329.615 114.307 L 324.689 112.963 324.689 75.329 L 324.689 37.695 305.842 37.695 L 286.995 37.695 286.995 72.478 L 286.995 107.261 280.821 106.641 C 272.837 105.840,241.183 105.840,233.199 106.641 L 227.025 107.261 227.025 72.478 L 227.025 37.695 208.178 37.695 L 189.331 37.695 189.331 75.357 " stroke="none" fill-rule="evenodd" fill="black"></path></svg>