<svg width="136mm" height="120mm" version="1.1" viewBox="0 0 600 529.4117647058824" xmlns="http://www.w3.org/2000/svg"><path d="M189.125 75.494 L 188.902 113.292 178.622 116.115 C 165.056 119.841,155.975 123.251,143.491 129.308 C 113.853 143.688,95.258 162.912,88.861 185.788 C 87.073 192.179,87.024 193.942,86.729 262.364 L 86.427 332.400 105.752 332.400 L 125.078 332.400 125.079 264.078 L 125.080 195.756 127.641 190.341 C 132.713 179.620,145.945 169.212,165.343 160.683 C 171.857 157.819,186.931 152.493,188.523 152.493 C 189.025 152.493,189.331 202.187,189.331 283.996 L 189.331 415.500 208.178 415.500 L 227.025 415.500 227.025 280.269 L 227.025 145.039 234.867 144.482 C 244.953 143.766,269.067 143.766,279.153 144.482 L 286.995 145.039 286.995 280.269 L 286.995 415.500 305.842 415.500 L 324.689 415.500 324.689 283.996 C 324.689 202.187,324.995 152.493,325.497 152.493 C 327.089 152.493,342.163 157.819,348.677 160.683 C 368.075 169.212,381.307 179.620,386.379 190.341 L 388.940 195.756 388.941 264.078 L 388.942 332.400 408.268 332.400 L 427.593 332.400 427.291 262.364 C 426.996 193.942,426.947 192.179,425.159 185.788 C 418.762 162.912,400.167 143.688,370.529 129.308 C 358.045 123.251,348.964 119.841,335.398 116.115 L 325.118 113.292 324.895 75.494 L 324.671 37.695 305.833 37.695 L 286.995 37.695 286.995 72.177 L 286.995 106.659 257.010 106.659 L 227.025 106.659 227.025 72.177 L 227.025 37.695 208.187 37.695 L 189.349 37.695 189.125 75.494 " stroke="none" fill-rule="evenodd" fill="black"></path></svg>