<svg width="136mm" height="120mm" version="1.1" viewBox="0 0 600 529.4117647058824" xmlns="http://www.w3.org/2000/svg"><path d="M188.474 75.682 L 188.474 113.668 183.548 114.747 C 173.826 116.874,155.289 123.563,144.354 128.889 C 115.277 143.051,97.347 160.602,89.857 182.235 L 86.955 190.616 86.695 261.508 L 86.436 332.400 105.738 332.400 L 125.039 332.400 125.273 262.793 L 125.507 193.186 128.045 188.902 C 135.585 176.178,154.850 163.464,178.667 155.496 C 183.604 153.844,187.830 152.493,188.058 152.493 C 188.287 152.493,188.474 211.669,188.474 283.996 L 188.474 415.500 207.750 415.500 L 227.025 415.500 227.025 280.269 L 227.025 145.039 234.867 144.482 C 244.953 143.766,269.067 143.766,279.153 144.482 L 286.995 145.039 286.995 280.269 L 286.995 415.500 306.270 415.500 L 325.546 415.500 325.546 283.996 C 325.546 211.669,325.733 152.493,325.962 152.493 C 326.190 152.493,330.416 153.844,335.353 155.496 C 359.170 163.464,378.435 176.178,385.975 188.902 L 388.513 193.186 388.747 262.793 L 388.981 332.400 408.237 332.400 L 427.493 332.400 427.493 266.625 C 427.493 226.135,427.150 198.115,426.601 193.732 C 424.043 173.332,410.335 153.775,388.513 139.395 C 373.601 129.567,347.454 118.463,330.472 114.747 L 325.546 113.668 325.546 75.682 L 325.546 37.695 306.270 37.695 L 286.995 37.695 286.995 72.177 L 286.995 106.659 257.010 106.659 L 227.025 106.659 227.025 72.177 L 227.025 37.695 207.750 37.695 L 188.474 37.695 188.474 75.682 " stroke="none" fill-rule="evenodd" fill="black"></path></svg>