<svg width="136mm" height="120mm" version="1.1" viewBox="0 0 600 529.4117647058824" xmlns="http://www.w3.org/2000/svg"><path d="M347.612 97.450 L 347.392 157.204 329.613 121.866 C 319.835 102.429,311.639 86.527,311.400 86.527 C 310.563 86.527,278.428 102.817,278.428 103.241 C 278.428 103.664,315.231 177.520,315.696 178.030 C 315.829 178.176,322.915 174.802,331.442 170.534 C 339.969 166.265,347.149 162.773,347.397 162.773 C 347.645 162.773,347.746 172.893,347.620 185.261 L 347.392 207.750 311.625 207.973 L 275.857 208.197 275.857 227.035 L 275.857 245.873 307.984 245.873 C 325.653 245.873,340.110 245.972,340.110 246.093 C 340.110 246.214,329.323 278.669,316.139 318.215 C 302.955 357.761,292.300 390.249,292.461 390.410 C 292.622 390.572,300.636 393.338,310.268 396.557 L 327.782 402.409 346.994 344.729 C 357.561 313.004,366.455 287.325,366.759 287.664 C 367.062 288.002,375.860 313.976,386.309 345.383 L 405.308 402.486 423.169 396.525 L 441.031 390.564 417.128 318.867 C 403.982 279.433,393.225 246.882,393.225 246.532 C 393.225 246.181,407.586 245.793,425.137 245.669 L 457.049 245.445 457.280 226.811 L 457.511 208.178 421.513 208.178 L 385.515 208.178 385.515 185.476 C 385.515 172.989,385.712 162.773,385.952 162.773 C 386.193 162.773,393.366 166.265,401.893 170.534 C 410.421 174.802,417.506 178.176,417.639 178.030 C 418.758 176.804,454.865 103.432,454.575 102.975 C 453.981 102.038,421.613 86.122,421.198 86.562 C 420.995 86.778,412.904 102.761,403.219 122.080 L 385.608 157.204 385.562 97.450 L 385.515 37.695 366.673 37.695 L 347.832 37.695 347.612 97.450 M71.963 101.947 L 71.963 120.795 111.727 120.795 L 151.491 120.795 138.933 158.489 L 126.375 196.184 123.585 196.184 L 120.795 196.184 120.795 204.537 L 120.795 212.890 95.004 290.261 C 80.820 332.815,69.351 367.747,69.518 367.889 C 70.199 368.468,104.645 379.673,104.882 379.393 C 105.024 379.226,115.842 346.899,128.923 307.555 C 142.004 268.211,153.035 235.663,153.437 235.227 C 154.834 233.706,165.632 236.466,173.910 240.458 C 180.852 243.806,183.198 245.532,189.861 252.196 C 196.549 258.884,198.235 261.180,201.575 268.147 C 206.308 278.021,207.550 283.787,207.477 295.562 C 207.373 312.486,201.925 325.158,189.417 337.569 C 183.598 343.343,180.518 345.633,174.767 348.463 C 166.623 352.470,158.585 354.642,151.834 354.661 L 147.320 354.674 147.550 373.688 L 147.781 392.702 152.921 392.504 C 170.268 391.838,189.755 384.925,205.050 374.010 C 211.275 369.568,222.038 358.866,227.081 352.104 C 231.909 345.629,239.378 330.064,241.923 321.170 C 251.652 287.177,242.065 250.640,216.804 225.433 C 203.592 212.250,188.357 203.748,169.058 198.788 L 165.490 197.871 178.340 159.333 L 191.189 120.795 229.668 120.795 L 268.147 120.795 268.147 101.947 L 268.147 83.100 170.055 83.100 L 71.963 83.100 71.963 101.947 " stroke="none" fill-rule="evenodd" fill="black"></path></svg>