<svg width="136mm" height="120mm" version="1.1" viewBox="0 0 600 529.4117647058824" xmlns="http://www.w3.org/2000/svg"><path d="M347.612 97.234 L 347.392 156.774 329.546 121.650 C 319.731 102.332,311.535 86.527,311.333 86.527 C 310.541 86.527,278.428 102.838,278.428 103.241 C 278.428 103.664,315.231 177.520,315.696 178.030 C 315.829 178.176,322.915 174.802,331.442 170.534 C 339.969 166.265,347.142 162.773,347.383 162.773 C 347.623 162.773,347.820 172.989,347.820 185.476 L 347.820 208.178 311.839 208.178 L 275.857 208.178 275.857 227.025 L 275.857 245.873 307.984 245.873 C 325.653 245.873,340.110 245.972,340.110 246.093 C 340.110 246.214,329.323 278.669,316.139 318.215 C 302.955 357.761,292.300 390.249,292.461 390.410 C 292.622 390.572,300.632 393.336,310.261 396.554 L 327.767 402.404 346.870 345.128 C 357.377 313.626,366.228 287.851,366.540 287.851 C 366.851 287.851,375.700 313.645,386.205 345.172 L 405.305 402.492 422.943 396.598 C 432.644 393.356,440.713 390.572,440.874 390.410 C 441.036 390.249,430.381 357.761,417.196 318.215 C 404.012 278.669,393.225 246.218,393.225 246.103 C 393.225 245.988,407.586 245.793,425.137 245.669 L 457.049 245.445 457.280 226.811 L 457.511 208.178 421.513 208.178 L 385.515 208.178 385.515 185.476 C 385.515 172.989,385.712 162.773,385.952 162.773 C 386.193 162.773,393.366 166.265,401.893 170.534 C 410.421 174.802,417.506 178.176,417.639 178.030 C 418.758 176.804,454.865 103.432,454.575 102.975 C 453.981 102.038,421.613 86.122,421.198 86.562 C 420.995 86.778,412.904 102.761,403.219 122.080 L 385.608 157.204 385.562 97.450 L 385.515 37.695 366.673 37.695 L 347.832 37.695 347.612 97.234 M71.963 101.947 L 71.963 120.795 111.727 120.795 L 151.491 120.795 138.933 158.489 L 126.375 196.184 123.585 196.184 L 120.795 196.184 120.795 204.537 L 120.795 212.890 95.004 290.261 C 80.820 332.815,69.351 367.747,69.518 367.889 C 70.199 368.468,104.645 379.673,104.882 379.393 C 105.024 379.226,115.842 346.899,128.923 307.555 C 142.004 268.211,153.035 235.663,153.437 235.227 C 154.836 233.704,165.630 236.465,173.883 240.456 C 180.786 243.795,183.157 245.544,189.802 252.194 C 196.147 258.543,198.278 261.374,201.172 267.290 C 206.045 277.253,207.373 283.019,207.386 294.276 C 207.404 308.959,204.561 318.190,196.531 329.523 C 186.471 343.722,170.036 353.364,154.022 354.461 L 147.352 354.919 147.352 373.912 L 147.352 392.906 152.707 392.583 C 177.520 391.085,200.523 380.540,217.790 362.748 C 226.062 354.223,229.981 348.647,235.204 337.968 C 248.103 311.593,249.071 284.269,238.067 257.151 C 226.357 228.292,201.249 207.058,169.058 198.788 L 165.490 197.871 178.340 159.333 L 191.189 120.795 229.668 120.795 L 268.147 120.795 268.147 101.947 L 268.147 83.100 170.055 83.100 L 71.963 83.100 71.963 101.947 " stroke="none" fill-rule="evenodd" fill="black"></path></svg>