<svg width="136mm" height="120mm" version="1.1" viewBox="0 0 600 529.4117647058824" xmlns="http://www.w3.org/2000/svg"><path d="M120.748 97.450 L 120.701 157.204 103.091 122.080 C 93.405 102.761,85.312 86.776,85.106 86.557 C 84.900 86.339,77.231 89.904,68.064 94.480 L 51.397 102.801 70.249 140.497 C 80.617 161.230,89.297 178.194,89.536 178.194 C 89.776 178.194,96.907 174.722,105.383 170.479 L 120.795 162.764 120.795 185.043 L 120.795 207.321 85.242 207.321 L 49.689 207.321 49.689 226.597 L 49.689 245.873 81.386 245.873 C 98.820 245.873,113.084 246.165,113.084 246.521 C 113.084 246.878,102.328 279.433,89.181 318.867 L 65.279 390.564 83.177 396.537 C 93.021 399.823,101.219 402.253,101.396 401.937 C 101.572 401.622,110.314 375.535,120.821 343.966 L 139.927 286.569 158.968 343.684 C 169.440 375.098,178.247 401.185,178.538 401.656 C 179.134 402.621,213.476 391.468,213.909 390.167 C 214.056 389.726,203.413 357.079,190.258 317.619 L 166.339 245.873 198.396 245.873 L 230.452 245.873 230.452 226.597 L 230.452 207.321 194.471 207.321 L 158.489 207.321 158.489 185.047 C 158.489 172.796,158.686 162.773,158.927 162.773 C 159.167 162.773,166.295 166.243,174.767 170.483 C 183.238 174.724,190.365 178.194,190.605 178.194 C 190.844 178.194,199.522 161.233,209.889 140.503 L 228.739 102.812 212.470 94.670 C 203.522 90.191,195.813 86.527,195.338 86.527 C 194.863 86.527,186.475 102.429,176.696 121.866 L 158.918 157.204 158.698 97.450 L 158.478 37.695 139.636 37.695 L 120.795 37.695 120.748 97.450 M253.583 101.947 L 253.583 120.795 292.991 120.795 C 314.666 120.795,332.400 121.085,332.400 121.441 C 332.400 121.796,314.088 177.019,291.706 244.160 C 269.325 311.300,251.013 366.684,251.013 367.236 C 251.013 368.399,285.096 379.983,285.977 379.119 C 286.301 378.802,297.392 346.090,310.623 306.425 L 334.679 234.307 341.464 234.046 C 354.925 233.527,368.314 236.617,378.520 242.600 C 381.189 244.164,386.466 248.529,390.247 252.298 C 401.959 263.977,407.802 278.086,407.777 294.628 C 407.761 304.809,406.126 311.977,401.801 320.834 C 395.767 333.191,387.384 341.794,375.064 348.276 C 368.421 351.770,357.939 354.674,351.967 354.674 L 347.820 354.674 347.820 373.651 L 347.820 392.627 356.173 392.104 C 370.834 391.186,386.099 386.157,399.749 377.747 C 409.918 371.481,424.541 356.894,430.732 346.839 C 440.183 331.491,444.498 317.341,445.225 299.311 C 445.818 284.596,444.725 276.082,440.677 263.895 C 428.378 226.871,396.390 201.141,357.504 196.993 C 352.413 196.450,348.112 195.877,347.945 195.720 C 347.778 195.563,353.208 178.737,360.010 158.329 L 372.379 121.223 411.073 121.000 L 449.767 120.777 449.767 101.939 L 449.767 83.100 351.675 83.100 L 253.583 83.100 253.583 101.947 " stroke="none" fill-rule="evenodd" fill="black"></path></svg>