<svg width="136mm" height="120mm" version="1.1" viewBox="0 0 600 529.4117647058824" xmlns="http://www.w3.org/2000/svg"><path d="M120.748 97.450 L 120.701 157.204 103.091 122.080 C 93.405 102.761,85.315 86.778,85.111 86.562 C 84.697 86.122,52.329 102.038,51.735 102.975 C 51.444 103.432,87.552 176.804,88.671 178.030 C 88.804 178.176,95.889 174.802,104.416 170.534 C 112.943 166.265,120.117 162.773,120.357 162.773 C 120.598 162.773,120.795 172.989,120.795 185.476 L 120.795 208.178 84.797 208.178 L 48.798 208.178 49.029 226.811 L 49.260 245.445 81.172 245.669 C 98.724 245.793,113.084 246.181,113.084 246.532 C 113.084 246.882,102.328 279.433,89.181 318.867 L 65.279 390.564 83.140 396.525 L 101.002 402.486 120.001 345.383 C 130.450 313.976,139.247 288.003,139.549 287.666 C 139.852 287.328,148.722 312.965,159.262 344.636 C 169.802 376.308,178.495 402.311,178.581 402.421 C 178.989 402.944,213.678 390.861,213.929 390.108 C 214.141 389.473,169.626 255.280,166.509 247.157 C 166.077 246.030,169.957 245.873,198.234 245.873 L 230.452 245.873 230.452 227.035 L 230.452 208.197 194.685 207.973 L 158.918 207.750 158.689 185.261 C 158.564 172.893,158.664 162.773,158.913 162.773 C 159.161 162.773,166.295 166.243,174.767 170.483 C 183.238 174.724,190.365 178.194,190.605 178.194 C 190.844 178.194,199.522 161.233,209.889 140.503 L 228.739 102.812 212.470 94.670 C 203.522 90.191,195.813 86.527,195.338 86.527 C 194.863 86.527,186.399 102.622,176.529 122.294 L 158.583 158.061 158.536 97.878 L 158.489 37.695 139.642 37.695 L 120.795 37.695 120.748 97.450 M252.727 101.947 L 252.727 120.795 292.563 120.795 C 314.473 120.795,332.400 121.085,332.400 121.441 C 332.400 121.796,314.088 177.019,291.706 244.160 C 269.325 311.300,251.013 366.684,251.013 367.236 C 251.013 368.399,285.096 379.983,285.977 379.119 C 286.301 378.802,297.399 346.090,310.638 306.425 L 334.710 234.307 346.072 234.496 C 359.564 234.721,365.297 235.983,375.235 240.916 C 381.078 243.817,384.045 246.060,390.255 252.270 C 402.636 264.651,407.741 276.907,407.774 294.333 C 407.792 303.775,406.720 309.952,403.818 317.118 C 395.506 337.647,375.193 353.013,354.460 354.456 L 347.820 354.919 347.820 373.878 L 347.820 392.838 355.745 392.251 C 378.304 390.580,398.619 381.445,415.308 365.467 C 447.990 334.176,455.212 287.224,433.527 247.022 C 418.540 219.237,388.704 199.816,356.881 197.131 C 352.350 196.749,348.465 196.258,348.248 196.041 C 348.030 195.823,353.468 178.804,360.331 158.220 L 372.810 120.795 411.289 120.795 L 449.767 120.795 449.767 101.947 L 449.767 83.100 351.247 83.100 L 252.727 83.100 252.727 101.947 " stroke="none" fill-rule="evenodd" fill="black"></path></svg>