<svg width="136mm" height="120mm" version="1.1" viewBox="0 0 600 529.4117647058824" xmlns="http://www.w3.org/2000/svg"><path d="M120.748 97.450 L 120.701 157.204 103.091 122.080 C 93.405 102.761,85.312 86.776,85.106 86.557 C 84.900 86.339,77.231 89.904,68.064 94.480 L 51.397 102.801 70.249 140.497 C 80.617 161.230,89.297 178.194,89.536 178.194 C 89.776 178.194,96.907 174.722,105.383 170.479 L 120.795 162.764 120.795 185.471 L 120.795 208.178 84.797 208.178 L 48.798 208.178 49.029 226.811 L 49.260 245.445 81.172 245.669 C 98.724 245.793,113.084 246.181,113.084 246.532 C 113.084 246.882,102.328 279.433,89.181 318.867 L 65.279 390.564 83.177 396.537 C 93.021 399.823,101.219 402.253,101.396 401.937 C 101.572 401.622,110.314 375.535,120.821 343.966 L 139.927 286.569 158.968 343.684 C 169.440 375.098,178.247 401.185,178.538 401.656 C 179.134 402.621,213.476 391.468,213.909 390.167 C 214.056 389.726,203.413 357.079,190.258 317.619 L 166.339 245.873 198.396 245.873 L 230.452 245.873 230.452 227.025 L 230.452 208.178 194.899 208.178 L 159.346 208.178 159.346 185.471 L 159.346 162.764 174.758 170.479 C 183.234 174.722,190.365 178.194,190.605 178.194 C 190.844 178.194,199.522 161.233,209.889 140.503 L 228.739 102.812 212.470 94.670 C 203.522 90.191,195.813 86.527,195.338 86.527 C 194.863 86.527,186.592 102.236,176.957 121.437 L 159.440 156.348 159.393 97.021 L 159.346 37.695 140.070 37.695 L 120.795 37.695 120.748 97.450 M252.727 101.947 L 252.727 120.795 292.563 120.795 C 314.473 120.795,332.400 121.085,332.400 121.441 C 332.400 121.796,314.088 177.019,291.706 244.160 C 269.325 311.300,251.013 366.684,251.013 367.236 C 251.013 368.399,285.096 379.983,285.977 379.119 C 286.301 378.802,297.399 346.090,310.639 306.425 L 334.711 234.307 346.354 234.535 C 359.878 234.799,367.917 236.696,376.972 241.760 C 389.414 248.718,400.692 262.311,404.909 275.429 C 407.823 284.496,408.551 298.337,406.595 307.525 C 402.975 324.538,390.227 341.022,374.825 348.604 C 368.233 351.849,357.596 354.674,351.967 354.674 L 347.820 354.674 347.820 373.765 L 347.820 392.855 356.110 392.188 C 379.064 390.340,400.137 380.470,416.845 363.740 C 435.889 344.672,445.564 321.291,445.542 294.387 C 445.503 243.866,406.701 201.334,356.809 197.125 C 352.318 196.746,348.418 196.211,348.142 195.935 C 347.867 195.660,353.208 178.737,360.010 158.329 L 372.379 121.223 411.073 121.000 L 449.767 120.777 449.767 101.939 L 449.767 83.100 351.247 83.100 L 252.727 83.100 252.727 101.947 " stroke="none" fill-rule="evenodd" fill="black"></path></svg>