<svg width="136mm" height="120mm" version="1.1" viewBox="0 0 600 529.4117647058824" xmlns="http://www.w3.org/2000/svg"><path d="M244.121 38.637 C 213.728 42.568,186.012 62.789,172.167 91.137 C 161.934 112.088,159.916 137.883,166.801 159.754 C 176.643 191.023,200.802 214.439,232.332 223.269 C 243.074 226.277,263.061 227.071,274.411 224.941 C 305.922 219.026,332.551 197.195,344.424 167.545 C 349.749 154.246,350.783 148.413,350.734 131.932 C 350.694 118.464,350.456 116.070,348.398 108.393 C 335.999 62.139,291.673 32.487,244.121 38.637 M267.969 76.720 C 280.682 79.282,293.911 87.323,301.415 97.050 C 304.627 101.213,310.088 110.875,310.115 112.442 C 310.121 112.795,286.223 113.084,257.010 113.084 C 227.797 113.084,203.895 112.843,203.895 112.547 C 203.895 112.251,205.058 109.649,206.479 106.764 C 215.488 88.477,235.786 75.750,256.404 75.459 C 259.133 75.421,264.337 75.988,267.969 76.720 M310.125 151.725 C 310.125 152.245,308.685 155.425,306.925 158.793 C 302.097 168.030,292.046 177.807,282.711 182.346 C 273.130 187.005,266.968 188.474,257.010 188.474 C 247.052 188.474,240.890 187.005,231.309 182.346 C 221.974 177.807,211.923 168.030,207.095 158.793 C 205.335 155.425,203.895 152.245,203.895 151.725 C 203.895 151.045,218.842 150.779,257.010 150.779 C 295.178 150.779,310.125 151.045,310.125 151.725 M143.926 252.727 L 143.926 271.574 191.044 271.574 L 238.163 271.574 238.163 290.421 L 238.163 309.269 153.349 309.269 L 68.536 309.269 68.536 328.544 L 68.536 347.820 153.349 347.820 L 238.163 347.820 238.163 381.660 L 238.163 415.500 257.010 415.500 L 275.857 415.500 275.857 381.660 L 275.857 347.820 360.671 347.820 L 445.484 347.820 445.484 328.544 L 445.484 309.269 360.671 309.269 L 275.857 309.269 275.857 290.421 L 275.857 271.574 322.976 271.574 L 370.094 271.574 370.094 252.727 L 370.094 233.879 257.010 233.879 L 143.926 233.879 143.926 252.727 " stroke="none" fill-rule="evenodd" fill="black"></path></svg>