<svg width="136mm" height="120mm" version="1.1" viewBox="0 0 600 529.4117647058824" xmlns="http://www.w3.org/2000/svg"><path d="M245.445 38.685 C 210.295 42.616,179.251 67.877,167.608 102.021 C 160.203 123.735,161.399 148.769,170.888 170.665 C 179.007 189.400,196.471 207.541,215.460 216.967 C 237.087 227.703,264.240 229.321,287.851 221.281 C 311.719 213.155,333.270 193.423,343.132 170.665 C 352.621 148.769,353.817 123.735,346.412 102.021 C 334.539 67.202,303.698 42.534,267.110 38.591 C 257.757 37.583,255.199 37.594,245.445 38.685 M265.376 76.251 C 277.138 77.779,288.381 83.581,297.500 92.828 C 302.202 97.597,308.445 106.998,309.672 111.157 L 310.241 113.084 257.010 113.084 L 203.779 113.084 204.348 111.157 C 205.575 106.998,211.818 97.597,216.520 92.828 C 229.869 79.291,246.177 73.757,265.376 76.251 M310.125 151.725 C 310.125 152.245,308.685 155.425,306.925 158.793 C 302.814 166.658,292.135 177.608,284.424 181.864 C 276.080 186.470,267.767 188.474,257.010 188.474 C 246.253 188.474,237.940 186.470,229.596 181.864 C 221.885 177.608,211.206 166.658,207.095 158.793 C 205.335 155.425,203.895 152.245,203.895 151.725 C 203.895 151.045,218.842 150.779,257.010 150.779 C 295.178 150.779,310.125 151.045,310.125 151.725 M143.926 253.155 L 143.926 272.431 191.044 272.431 L 238.163 272.431 238.163 291.278 L 238.163 310.125 152.904 310.125 L 67.646 310.125 67.877 328.759 L 68.108 347.392 153.135 347.610 L 238.163 347.829 238.163 381.664 L 238.163 415.500 257.010 415.500 L 275.857 415.500 275.857 381.664 L 275.857 347.829 360.885 347.610 L 445.912 347.392 446.143 328.759 L 446.374 310.125 361.116 310.125 L 275.857 310.125 275.857 291.278 L 275.857 272.431 322.976 272.431 L 370.094 272.431 370.094 253.155 L 370.094 233.879 257.010 233.879 L 143.926 233.879 143.926 253.155 " stroke="none" fill-rule="evenodd" fill="black"></path></svg>