<svg width="136mm" height="120mm" version="1.1" viewBox="0 0 600 529.4117647058824" xmlns="http://www.w3.org/2000/svg"><path d="M245.597 38.630 C 226.889 40.606,206.783 50.036,192.090 63.726 C 180.343 74.671,170.198 91.689,165.728 107.944 C 162.679 119.034,161.906 137.399,164.018 148.600 C 167.799 168.652,176.359 184.826,190.770 199.144 C 208.691 216.948,231.494 226.295,257.010 226.295 C 282.526 226.295,305.329 216.948,323.250 199.144 C 337.833 184.654,346.584 167.957,350.054 147.998 C 351.916 137.289,351.338 119.648,348.808 109.990 C 338.469 70.521,306.832 42.872,267.110 38.591 C 257.878 37.596,255.344 37.601,245.597 38.630 M272.728 77.692 C 283.206 80.788,294.547 88.390,301.130 96.730 C 304.918 101.529,310.099 110.343,310.115 112.014 C 310.123 112.859,298.937 113.084,257.010 113.084 C 221.032 113.084,203.895 112.799,203.895 112.199 C 203.895 110.483,208.049 103.145,211.988 97.905 C 220.501 86.581,234.764 78.078,248.437 76.177 C 254.749 75.299,267.273 76.081,272.728 77.692 M310.125 151.725 C 310.125 152.245,308.685 155.425,306.925 158.793 C 302.814 166.658,292.135 177.608,284.424 181.864 C 276.080 186.470,267.767 188.474,257.010 188.474 C 246.253 188.474,237.940 186.470,229.596 181.864 C 221.885 177.608,211.206 166.658,207.095 158.793 C 205.335 155.425,203.895 152.245,203.895 151.725 C 203.895 151.045,218.842 150.779,257.010 150.779 C 295.178 150.779,310.125 151.045,310.125 151.725 M143.926 253.155 L 143.926 272.431 191.044 272.431 L 238.163 272.431 238.163 291.278 L 238.163 310.125 152.904 310.125 L 67.646 310.125 67.877 328.759 L 68.108 347.392 153.135 347.610 L 238.163 347.829 238.163 381.664 L 238.163 415.500 257.010 415.500 L 275.857 415.500 275.857 381.664 L 275.857 347.829 360.885 347.610 L 445.912 347.392 446.143 328.759 L 446.374 310.125 361.116 310.125 L 275.857 310.125 275.857 291.278 L 275.857 272.431 322.976 272.431 L 370.094 272.431 370.094 253.155 L 370.094 233.879 257.010 233.879 L 143.926 233.879 143.926 253.155 " stroke="none" fill-rule="evenodd" fill="black"></path></svg>