<svg width="136mm" height="120mm" version="1.1" viewBox="0 0 600 529.4117647058824" xmlns="http://www.w3.org/2000/svg"><path d="M298.719 49.387 C 298.396 49.710,298.132 55.603,298.132 62.482 C 298.132 100.009,292.383 147.938,283.028 188.405 C 280.283 200.279,271.955 230.356,271.205 231.107 C 271.040 231.271,249.274 220.589,222.835 207.368 L 174.763 183.329 166.443 199.996 C 161.867 209.163,158.301 216.832,158.520 217.038 C 158.739 217.245,180.989 228.444,207.964 241.925 C 234.939 255.406,257.010 266.858,257.010 267.374 C 257.010 269.529,241.796 297.966,235.428 307.712 C 226.118 321.962,218.636 331.172,208.054 341.412 C 190.289 358.604,174.024 367.264,155.277 369.515 L 147.352 370.467 147.352 389.128 L 147.352 407.789 151.913 407.789 C 158.996 407.789,171.760 405.364,181.322 402.202 C 221.357 388.963,257.630 352.061,285.043 296.682 L 291.486 283.667 322.916 299.387 L 354.346 315.106 362.694 298.383 C 367.286 289.185,370.925 281.554,370.783 281.424 C 370.640 281.293,355.816 273.838,337.841 264.856 L 305.159 248.526 309.384 235.494 C 325.141 186.887,335.079 122.987,336.016 64.252 L 336.255 49.260 317.781 49.030 C 307.620 48.903,299.042 49.064,298.719 49.387 " stroke="none" fill-rule="evenodd" fill="black"></path></svg>