<svg width="136mm" height="120mm" version="1.1" viewBox="0 0 600 529.4117647058824" xmlns="http://www.w3.org/2000/svg"><path d="M298.703 49.403 C 298.389 49.717,298.126 55.982,298.118 63.324 C 298.078 103.480,291.442 155.204,280.906 197.469 C 278.487 207.174,271.716 230.574,271.161 231.143 C 271.021 231.288,249.276 220.590,222.840 207.371 L 174.775 183.335 166.632 199.603 C 162.154 208.551,158.490 216.269,158.490 216.756 C 158.489 217.242,180.560 228.645,207.536 242.095 C 234.511 255.545,256.698 266.874,256.841 267.270 C 257.175 268.197,246.405 289.678,241.214 298.438 C 223.418 328.474,201.590 351.305,180.911 361.511 C 171.411 366.200,164.276 368.426,155.277 369.511 L 147.352 370.467 147.352 389.128 L 147.352 407.789 151.913 407.789 C 158.996 407.789,171.760 405.364,181.322 402.202 C 221.379 388.956,258.141 351.462,285.449 296.003 L 291.516 283.682 322.931 299.394 L 354.346 315.106 362.694 298.383 C 367.286 289.185,370.925 281.554,370.783 281.424 C 370.640 281.293,355.760 273.810,337.716 264.794 C 319.673 255.778,305.114 248.071,305.363 247.668 C 306.524 245.789,313.844 221.201,317.310 207.538 C 328.813 162.189,334.381 120.569,336.335 65.323 L 336.919 48.832 318.096 48.832 C 307.744 48.832,299.017 49.089,298.703 49.403 " stroke="none" fill-rule="evenodd" fill="black"></path></svg>