<svg width="136mm" height="120mm" version="1.1" viewBox="0 0 600 529.4117647058824" xmlns="http://www.w3.org/2000/svg"><path d="M298.703 49.403 C 298.389 49.717,298.131 56.367,298.131 64.181 C 298.128 101.705,291.901 151.743,282.249 191.795 C 279.551 202.989,271.806 230.471,271.158 231.143 C 271.019 231.288,249.274 220.589,222.835 207.368 L 174.763 183.329 166.443 199.996 C 161.867 209.163,158.301 216.832,158.520 217.038 C 158.739 217.245,180.989 228.444,207.964 241.925 C 234.939 255.406,257.010 266.858,257.010 267.374 C 257.010 269.529,241.796 297.966,235.428 307.712 C 225.976 322.179,218.515 331.327,207.571 341.869 C 190.262 358.544,173.690 367.305,155.277 369.515 L 147.352 370.467 147.352 389.256 L 147.352 408.046 154.854 407.513 C 190.212 405.003,223.269 385.182,252.366 349.042 C 263.625 335.060,278.277 311.194,287.169 292.355 L 291.311 283.580 322.828 299.343 L 354.346 315.106 362.694 298.383 C 367.286 289.185,370.925 281.554,370.783 281.424 C 370.640 281.293,355.811 273.836,337.831 264.851 L 305.139 248.515 308.423 238.413 C 320.898 200.032,329.491 155.914,333.739 108.432 C 335.036 93.942,336.749 50.711,336.075 49.474 C 335.643 48.680,299.494 48.611,298.703 49.403 " stroke="none" fill-rule="evenodd" fill="black"></path></svg>