<svg width="136mm" height="120mm" version="1.1" viewBox="0 0 600 529.4117647058824" xmlns="http://www.w3.org/2000/svg"><path d="M228.739 35.615 C 187.723 40.877,149.718 59.162,119.860 87.999 C 102.793 104.482,90.887 120.766,80.537 141.784 C 67.080 169.110,60.840 195.978,60.840 226.597 C 60.840 277.152,79.660 323.730,114.798 360.136 C 146.736 393.227,187.471 413.083,233.732 418.109 C 247.143 419.566,272.398 418.749,285.709 416.428 C 317.392 410.903,348.743 396.834,373.521 377.024 C 381.440 370.692,394.114 358.112,401.647 349.105 C 419.992 327.173,435.222 296.225,441.084 268.970 C 446.949 241.702,446.983 211.468,441.179 184.619 C 435.181 156.876,420.096 126.146,401.647 104.089 C 383.168 81.996,362.577 65.846,337.111 53.475 C 316.718 43.567,296.011 37.566,273.964 35.171 C 262.841 33.964,239.852 34.189,228.739 35.615 M284.056 74.875 C 342.893 87.269,388.786 131.205,403.451 189.176 C 409.230 212.022,409.230 241.173,403.451 264.018 C 399.504 279.622,391.947 297.173,383.783 309.697 C 381.326 313.467,379.153 316.727,378.954 316.942 C 378.755 317.157,355.477 294.220,327.225 265.971 L 275.857 214.609 275.857 209.252 L 275.857 203.895 326.831 203.895 L 377.805 203.895 377.805 185.047 L 377.805 166.200 326.831 166.200 L 275.857 166.200 275.857 126.363 L 275.857 86.527 257.010 86.527 L 238.163 86.527 238.163 126.363 L 238.163 166.200 187.189 166.200 L 136.215 166.200 136.215 185.047 L 136.215 203.895 187.189 203.895 L 238.163 203.895 238.163 209.246 L 238.163 214.598 184.836 267.930 C 155.506 297.263,131.261 321.262,130.958 321.262 C 129.629 321.263,118.732 303.614,114.031 293.848 C 102.416 269.716,97.757 247.316,98.797 220.600 C 99.553 201.204,102.544 186.820,109.397 169.628 C 130.538 116.589,176.715 80.941,234.772 72.839 C 237.815 72.415,247.822 72.209,257.010 72.382 C 270.778 72.641,275.534 73.080,284.056 74.875 M304.988 297.749 L 352.532 345.342 349.962 347.483 C 348.548 348.660,343.385 352.325,338.488 355.626 C 293.511 385.953,233.656 389.683,184.619 365.216 C 175.654 360.743,158.489 349.959,158.489 348.799 C 158.489 348.159,256.371 250.156,257.010 250.156 C 257.249 250.156,278.839 271.573,304.988 297.749 " stroke="none" fill-rule="evenodd" fill="black"></path></svg>