<svg width="136mm" height="120mm" version="1.1" viewBox="0 0 600 529.4117647058824" xmlns="http://www.w3.org/2000/svg"><path d="M229.596 35.511 C 193.131 40.238,157.560 55.579,130.264 78.351 C 120.893 86.169,105.882 101.969,98.893 111.371 C 73.445 145.604,60.740 183.974,60.740 226.597 C 60.740 277.154,79.206 323.216,113.941 359.305 C 131.001 377.030,147.219 388.947,168.342 399.278 C 196.121 412.865,222.325 418.929,253.155 418.905 C 275.932 418.887,293.706 416.096,313.930 409.363 C 383.425 386.224,432.961 326.853,444.263 253.155 C 446.237 240.280,446.237 212.914,444.263 200.039 C 431.211 114.932,367.041 49.763,283.071 36.338 C 271.343 34.463,241.267 33.998,229.596 35.511 M270.740 72.840 C 288.084 74.937,302.173 78.885,317.407 85.919 C 335.671 94.351,348.208 103.094,362.433 117.319 C 384.899 139.785,398.488 165.020,405.362 197.041 C 407.063 204.961,407.294 208.495,407.294 226.597 C 407.294 248.765,406.452 255.136,401.246 272.390 C 397.507 284.782,386.590 306.930,379.913 315.671 C 378.683 317.280,376.143 314.884,327.239 265.985 L 275.857 214.609 275.857 209.252 L 275.857 203.895 326.831 203.895 L 377.805 203.895 377.805 185.047 L 377.805 166.200 326.831 166.200 L 275.857 166.200 275.857 126.792 L 275.857 87.383 257.010 87.383 L 238.163 87.383 238.163 126.792 L 238.163 166.200 187.189 166.200 L 136.215 166.200 136.215 185.047 L 136.215 203.895 187.189 203.895 L 238.163 203.895 238.163 209.252 L 238.163 214.608 184.639 268.127 C 133.516 319.245,131.056 321.569,129.796 319.955 C 122.124 310.122,111.537 290.538,107.117 277.999 C 87.391 222.048,101.746 159.310,143.875 117.350 C 168.694 92.629,201.257 76.703,234.736 72.913 C 244.031 71.860,262.327 71.823,270.740 72.840 M304.774 297.492 C 330.805 323.526,352.104 345.069,352.104 345.363 C 352.104 346.286,340.010 355.002,332.400 359.565 C 314.162 370.498,293.726 377.464,271.195 380.428 C 259.809 381.926,235.739 381.045,224.074 378.704 C 201.219 374.116,176.778 363.184,159.797 349.954 C 158.183 348.696,160.323 346.420,207.342 299.397 C 234.421 272.314,256.771 250.156,257.010 250.156 C 257.249 250.156,278.743 271.457,304.774 297.492 " stroke="none" fill-rule="evenodd" fill="black"></path></svg>