<svg width="136mm" height="120mm" version="1.1" viewBox="0 0 600 529.4117647058824" xmlns="http://www.w3.org/2000/svg"><path d="M229.596 35.565 C 196.481 39.657,165.057 52.298,137.827 72.482 C 127.438 80.182,107.929 99.397,100.498 109.248 C 87.067 127.053,77.114 146.008,70.358 166.649 C 63.528 187.514,60.840 204.446,60.840 226.597 C 60.840 248.635,63.531 265.687,70.247 286.210 C 80.055 316.179,94.694 339.905,117.282 362.444 C 134.310 379.435,147.578 389.041,167.995 399.161 C 186.790 408.478,207.040 414.608,229.167 417.677 C 242.120 419.474,272.117 419.033,283.996 416.872 C 318.292 410.630,347.815 397.453,373.521 376.911 C 385.762 367.130,400.435 351.650,410.028 338.397 C 451.365 281.287,457.268 202.141,424.878 139.293 C 398.065 87.268,350.792 50.968,293.226 38.200 C 276.219 34.428,248.192 33.267,229.596 35.565 M273.577 73.248 C 331.995 80.906,381.429 121.902,400.122 178.194 C 410.304 208.857,410.534 242.549,400.769 273.287 C 396.564 286.525,387.641 304.509,379.323 316.509 C 378.959 317.034,357.346 296.062,327.279 266.008 L 275.857 214.609 275.857 209.252 L 275.857 203.895 326.831 203.895 L 377.805 203.895 377.805 185.047 L 377.805 166.200 326.831 166.200 L 275.857 166.200 275.857 126.792 L 275.857 87.383 257.010 87.383 L 238.163 87.383 238.163 126.792 L 238.163 166.200 187.189 166.200 L 136.215 166.200 136.215 185.047 L 136.215 203.895 187.189 203.895 L 238.163 203.895 238.163 209.252 L 238.163 214.608 184.639 268.127 C 133.516 319.245,131.056 321.569,129.796 319.955 C 117.662 304.405,106.039 279.098,101.971 259.373 C 91.126 206.779,106.478 154.816,143.926 117.368 C 178.209 83.085,225.598 66.958,273.577 73.248 M304.774 297.492 C 330.805 323.526,352.104 345.069,352.104 345.363 C 352.104 346.286,340.010 355.002,332.400 359.565 C 314.162 370.498,293.726 377.464,271.195 380.428 C 259.809 381.926,235.739 381.045,224.074 378.704 C 201.319 374.136,176.715 363.131,159.797 349.953 C 158.183 348.696,160.325 346.418,207.342 299.397 C 234.421 272.314,256.771 250.156,257.010 250.156 C 257.249 250.156,278.743 271.457,304.774 297.492 " stroke="none" fill-rule="evenodd" fill="black"></path></svg>