<svg width="136mm" height="120mm" version="1.1" viewBox="0 0 600 529.4117647058824" xmlns="http://www.w3.org/2000/svg"><path d="M252.727 173.482 C 252.727 248.165,252.428 309.269,252.064 309.269 C 251.699 309.269,242.184 306.190,230.919 302.428 C 219.654 298.666,210.303 295.721,210.140 295.884 C 209.977 296.048,207.191 304.117,203.949 313.817 L 198.056 331.453 243.596 346.616 C 268.643 354.956,289.618 361.957,290.207 362.174 C 291.061 362.488,291.278 329.719,291.278 200.131 L 291.278 37.695 272.002 37.695 L 252.727 37.695 252.727 173.482 M136.214 98.093 L 122.948 111.380 156.995 145.427 L 191.042 179.474 204.322 166.194 L 217.602 152.914 183.541 118.860 L 149.480 84.807 136.214 98.093 M357.023 118.874 L 322.969 152.935 336.256 166.201 L 349.543 179.467 383.590 145.420 L 417.637 111.373 404.356 98.093 L 391.076 84.813 357.023 118.874 M156.552 239.672 L 122.502 273.730 135.580 286.787 C 142.772 293.969,149.040 299.845,149.508 299.845 C 149.976 299.845,165.490 284.710,183.983 266.212 L 217.608 232.580 204.105 219.097 L 190.602 205.614 156.552 239.672 M336.465 219.105 L 322.982 232.608 356.608 266.226 C 375.103 284.717,390.614 299.845,391.077 299.845 C 392.197 299.845,417.213 274.841,417.213 273.722 C 417.213 273.243,402.078 257.720,383.580 239.226 L 349.948 205.602 336.465 219.105 M117.368 393.225 L 117.368 412.073 274.144 412.073 L 430.920 412.073 430.920 393.225 L 430.920 374.378 274.144 374.378 L 117.368 374.378 117.368 393.225 " stroke="none" fill-rule="evenodd" fill="black"></path></svg>