<svg width="136mm" height="120mm" version="1.1" viewBox="0 0 600 529.4117647058824" xmlns="http://www.w3.org/2000/svg"><path d="M248.108 95.086 C 209.846 99.920,177.458 122.274,160.433 155.598 C 155.156 165.929,152.260 173.876,149.781 184.838 C 147.943 192.962,147.884 194.903,147.577 257.224 L 147.262 321.262 107.899 321.262 L 68.536 321.262 68.536 340.110 L 68.536 358.957 257.010 358.957 L 445.484 358.957 445.484 340.110 L 445.484 321.262 409.985 321.262 L 374.486 321.262 374.140 257.653 C 373.810 197.173,373.705 193.642,372.014 185.904 C 366.856 162.295,357.232 144.526,340.650 127.994 C 323.711 111.106,305.843 101.346,283.543 96.802 C 273.767 94.810,256.801 93.988,248.108 95.086 M278.760 134.477 C 302.819 140.631,321.898 157.324,331.041 180.220 C 336.258 193.285,336.212 192.573,336.234 259.580 L 336.255 320.834 260.610 321.053 L 184.964 321.272 185.264 258.942 C 185.557 198.149,185.611 196.439,187.430 189.566 C 193.413 166.957,209.069 148.225,229.857 138.799 C 244.505 132.157,263.221 130.503,278.760 134.477 " stroke="none" fill-rule="evenodd" fill="black"></path></svg>