<svg width="136mm" height="120mm" version="1.1" viewBox="0 0 600 529.4117647058824" xmlns="http://www.w3.org/2000/svg"><path d="M254.012 94.806 C 207.723 97.636,167.977 128.120,153.397 171.976 C 147.713 189.074,147.922 186.020,147.582 256.796 L 147.272 321.262 107.459 321.262 L 67.646 321.262 67.877 339.896 L 68.108 358.529 257.010 358.529 L 445.912 358.529 446.143 339.896 L 446.374 321.262 410.376 321.262 L 374.378 321.262 374.378 262.973 C 374.378 228.461,374.014 201.290,373.486 196.365 C 369.397 158.242,346.637 124.798,312.803 107.196 C 295.836 98.368,273.329 93.625,254.012 94.806 M268.075 132.822 C 294.661 135.550,316.453 150.562,328.345 174.338 C 332.742 183.127,334.875 190.917,335.825 201.648 C 336.289 206.889,336.672 235.946,336.676 266.220 L 336.683 321.262 260.814 321.262 L 184.946 321.262 185.266 258.938 C 185.573 199.442,185.666 196.321,187.334 190.187 C 191.239 175.820,196.609 165.939,205.727 156.339 C 218.531 142.860,234.660 134.738,252.313 132.880 C 256.074 132.484,259.207 132.108,259.275 132.046 C 259.343 131.983,263.303 132.332,268.075 132.822 " stroke="none" fill-rule="evenodd" fill="black"></path></svg>