<svg width="136mm" height="120mm" version="1.1" viewBox="0 0 600 529.4117647058824" xmlns="http://www.w3.org/2000/svg"><path d="M254.012 94.806 C 199.195 98.157,154.796 140.187,148.276 194.899 C 147.705 199.688,147.356 225.091,147.355 261.936 L 147.352 321.262 107.499 321.262 L 67.646 321.262 67.877 339.896 L 68.108 358.529 257.010 358.529 L 445.912 358.529 446.143 339.896 L 446.374 321.262 410.435 321.262 L 374.495 321.262 374.151 257.653 C 373.818 196.103,373.746 193.773,371.942 185.733 C 366.497 161.472,356.302 142.970,339.320 126.532 C 323.063 110.796,304.882 101.234,283.043 96.933 C 274.488 95.248,261.885 94.325,254.012 94.806 M268.075 132.822 C 287.034 134.768,303.629 142.976,316.218 156.635 C 322.499 163.449,326.193 169.270,330.269 178.777 C 335.801 191.680,335.826 192.054,335.826 259.972 L 335.826 321.262 260.382 321.262 L 184.937 321.262 185.278 258.938 C 185.589 202.344,185.762 196.061,187.166 190.617 C 195.310 159.022,221.128 136.172,252.412 132.871 C 256.119 132.480,259.207 132.108,259.275 132.046 C 259.343 131.983,263.303 132.332,268.075 132.822 " stroke="none" fill-rule="evenodd" fill="black"></path></svg>