<svg width="136mm" height="120mm" version="1.1" viewBox="0 0 600 529.4117647058824" xmlns="http://www.w3.org/2000/svg"><path d="M121.223 71.676 C 112.271 76.180,104.828 79.972,104.683 80.103 C 104.539 80.234,116.584 104.666,131.451 134.397 L 158.482 188.453 126.574 188.678 L 94.665 188.902 94.665 207.750 L 94.665 226.597 257.010 226.597 L 419.355 226.597 419.355 207.750 L 419.355 188.902 387.446 188.678 L 355.538 188.453 382.569 134.397 C 397.436 104.666,409.481 80.234,409.337 80.103 C 409.192 79.972,401.654 76.158,392.585 71.628 L 376.097 63.390 344.823 125.932 L 313.550 188.474 257.010 188.474 L 200.470 188.474 169.198 125.935 C 151.999 91.538,137.831 63.416,137.713 63.441 C 137.596 63.466,130.176 67.172,121.223 71.676 M75.390 358.957 L 75.390 377.805 257.010 377.805 L 438.630 377.805 438.630 358.957 L 438.630 340.110 257.010 340.110 L 75.390 340.110 75.390 358.957 " stroke="none" fill-rule="evenodd" fill="black"></path></svg>