<svg width="136mm" height="120mm" version="1.1" viewBox="0 0 600 529.4117647058824" xmlns="http://www.w3.org/2000/svg"><path d="M121.009 71.833 C 111.939 76.370,104.517 80.376,104.517 80.736 C 104.517 81.097,116.468 105.291,131.075 134.502 C 145.682 163.712,157.633 187.999,157.633 188.471 C 157.633 189.031,146.557 189.331,125.918 189.331 L 94.204 189.331 94.434 207.964 L 94.665 226.597 257.010 226.597 L 419.355 226.597 419.586 207.964 L 419.816 189.331 388.102 189.331 C 367.463 189.331,356.387 189.031,356.387 188.471 C 356.387 187.999,368.338 163.712,382.945 134.502 C 397.552 105.291,409.503 81.097,409.503 80.736 C 409.503 80.376,401.986 76.329,392.800 71.743 L 376.097 63.404 344.610 126.153 L 313.124 188.902 257.010 188.902 L 200.896 188.902 169.627 126.631 C 152.428 92.382,138.164 64.186,137.929 63.973 C 137.693 63.760,130.079 67.297,121.009 71.833 M75.390 358.957 L 75.390 377.805 257.010 377.805 L 438.630 377.805 438.630 358.957 L 438.630 340.110 257.010 340.110 L 75.390 340.110 75.390 358.957 " stroke="none" fill-rule="evenodd" fill="black"></path></svg>