<svg width="136mm" height="120mm" version="1.1" viewBox="0 0 600 529.4117647058824" xmlns="http://www.w3.org/2000/svg"><path d="M89.696 111.024 L 67.681 155.063 135.360 155.063 C 172.583 155.063,203.038 155.256,203.038 155.493 C 203.038 155.729,183.366 195.265,159.323 243.349 C 135.280 291.433,115.779 331.044,115.988 331.373 C 116.582 332.310,148.950 348.225,149.365 347.784 C 149.568 347.569,171.380 304.090,197.836 251.165 L 245.937 154.938 279.102 155.274 C 310.500 155.592,312.609 155.712,318.686 157.538 C 328.219 160.403,337.996 165.504,345.690 171.626 C 380.579 199.390,383.581 251.486,352.129 283.385 C 343.054 292.589,333.692 298.208,319.549 302.937 L 312.267 305.372 269.646 305.658 L 227.025 305.944 227.025 324.790 L 227.025 343.636 270.931 343.306 C 318.991 342.945,318.993 342.945,335.398 337.377 C 385.351 320.422,417.517 269.580,411.189 217.579 C 405.787 173.178,376.287 137.090,333.822 122.934 C 316.955 117.312,318.115 117.368,218.896 117.368 C 169.652 117.368,129.362 117.171,129.362 116.931 C 129.362 116.691,133.025 109.175,137.502 100.230 L 145.643 83.967 128.677 75.476 L 111.711 66.984 89.696 111.024 M75.390 381.231 L 75.390 400.079 257.010 400.079 L 438.630 400.079 438.630 381.231 L 438.630 362.384 257.010 362.384 L 75.390 362.384 75.390 381.231 " stroke="none" fill-rule="evenodd" fill="black"></path></svg>