<svg width="136mm" height="120mm" version="1.1" viewBox="0 0 600 529.4117647058824" xmlns="http://www.w3.org/2000/svg"><path d="M89.525 111.371 L 67.676 155.063 135.357 155.063 C 172.581 155.063,203.038 155.256,203.038 155.493 C 203.038 155.729,183.366 195.265,159.323 243.349 C 135.280 291.433,115.779 331.044,115.988 331.373 C 116.582 332.310,148.950 348.225,149.365 347.784 C 149.568 347.569,171.380 304.090,197.836 251.165 L 245.937 154.938 279.102 155.274 C 310.500 155.592,312.609 155.712,318.686 157.538 C 346.202 165.807,366.628 187.587,372.210 214.608 C 373.991 223.232,374.032 237.535,372.299 245.847 C 366.612 273.122,346.807 294.399,319.121 302.977 L 311.410 305.366 269.218 305.649 L 227.025 305.931 227.025 324.784 L 227.025 343.636 270.931 343.306 C 318.998 342.945,318.936 342.951,335.398 337.366 C 373.053 324.591,401.191 292.414,409.612 252.498 C 412.238 240.052,412.218 220.759,409.566 208.178 C 401.021 167.643,372.569 135.654,333.751 122.939 C 316.512 117.292,318.087 117.368,218.896 117.368 C 169.652 117.368,129.362 117.171,129.362 116.931 C 129.362 116.691,133.025 109.175,137.502 100.230 L 145.642 83.967 129.372 75.823 C 120.423 71.344,112.713 67.679,112.238 67.679 C 111.763 67.679,101.542 87.341,89.525 111.371 M75.963 362.953 C 75.648 363.268,75.390 371.751,75.390 381.803 L 75.390 400.079 257.027 400.079 L 438.664 400.079 438.433 381.446 L 438.202 362.812 257.369 362.596 C 157.911 362.477,76.278 362.638,75.963 362.953 " stroke="none" fill-rule="evenodd" fill="black"></path></svg>