<svg width="136mm" height="120mm" version="1.1" viewBox="0 0 600 529.4117647058824" xmlns="http://www.w3.org/2000/svg"><path d="M89.955 110.511 C 78.175 134.068,68.536 153.730,68.536 154.203 C 68.536 154.771,91.491 155.063,136.216 155.063 L 203.896 155.063 159.774 243.305 L 115.651 331.547 132.318 339.867 C 141.484 344.443,149.153 348.008,149.360 347.790 C 149.566 347.571,171.366 304.118,197.805 251.227 L 245.874 155.063 276.323 155.063 C 300.730 155.063,308.070 155.331,313.321 156.416 C 349.005 163.786,373.781 194.126,373.781 230.452 C 373.781 251.404,366.233 269.372,351.160 284.306 C 344.720 290.687,338.862 294.664,329.565 298.970 C 315.839 305.327,316.304 305.275,269.218 305.628 L 227.026 305.944 227.025 324.741 L 227.025 343.537 267.505 343.533 C 299.662 343.531,309.657 343.261,316.122 342.222 C 363.258 334.647,399.613 299.760,409.619 252.498 C 412.049 241.018,412.247 221.609,410.047 210.428 C 406.816 194.010,401.526 180.962,392.763 167.799 C 376.335 143.123,352.314 126.739,321.691 119.322 C 316.281 118.012,306.580 117.843,222.528 117.594 C 171.286 117.441,129.362 117.132,129.362 116.906 C 129.362 116.679,133.025 109.175,137.502 100.230 L 145.642 83.967 129.372 75.823 C 120.423 71.344,112.713 67.679,112.238 67.679 C 111.763 67.679,101.736 86.954,89.955 110.511 M75.963 362.953 C 75.648 363.268,75.390 371.751,75.390 381.803 L 75.390 400.079 257.027 400.079 L 438.664 400.079 438.433 381.446 L 438.202 362.812 257.369 362.596 C 157.911 362.477,76.278 362.638,75.963 362.953 " stroke="none" fill-rule="evenodd" fill="black"></path></svg>