<svg width="136mm" height="120mm" version="1.1" viewBox="0 0 600 529.4117647058824" xmlns="http://www.w3.org/2000/svg"><path d="M241.406 46.734 C 233.156 48.018,220.925 51.852,213.972 55.332 C 193.855 65.403,175.102 84.894,167.148 104.002 C 160.541 119.873,158.490 132.816,158.489 158.638 L 158.489 173.910 122.491 173.910 L 86.493 173.910 86.724 192.543 L 86.955 211.177 257.010 211.177 L 427.065 211.177 427.296 192.543 L 427.527 173.910 391.529 173.910 L 355.531 173.910 355.531 158.638 C 355.531 132.816,353.479 119.873,346.872 104.002 C 338.918 84.894,320.165 65.403,300.048 55.332 C 283.295 46.946,261.019 43.680,241.406 46.734 M274.572 85.690 C 290.394 90.557,303.516 101.815,311.106 117.036 C 316.190 127.230,316.914 131.862,316.949 154.420 L 316.979 173.910 257.010 173.910 L 197.041 173.910 197.071 154.420 C 197.106 131.862,197.830 127.230,202.914 117.036 C 211.652 99.514,227.633 87.382,246.527 83.926 C 253.229 82.700,267.838 83.619,274.572 85.690 M242.831 231.646 C 223.672 235.310,208.911 242.936,195.818 255.934 C 188.180 263.518,183.301 270.448,178.687 280.268 C 171.994 294.511,170.923 299.663,170.962 317.407 C 170.993 331.733,171.162 333.376,173.349 340.538 C 178.165 356.311,185.911 369.219,196.769 379.564 C 204.651 387.075,210.816 391.308,220.436 395.814 C 252.343 410.758,290.278 404.802,316.038 380.803 C 327.220 370.386,336.019 356.017,340.695 340.538 C 342.852 333.399,343.027 331.686,343.050 317.407 C 343.076 301.369,342.781 299.478,338.340 287.218 C 328.772 260.803,306.182 240.463,278.437 233.281 C 268.311 230.660,251.924 229.907,242.831 231.646 M267.719 269.438 C 276.880 271.365,283.891 275.312,291.287 282.705 C 302.346 293.760,306.382 304.274,305.594 319.977 C 305.074 330.330,302.561 337.715,296.821 345.759 C 287.358 359.021,273.481 366.130,257.010 366.154 C 240.471 366.179,226.746 359.138,217.165 345.711 C 211.381 337.606,208.887 330.279,208.406 319.977 C 207.668 304.176,211.709 293.643,222.705 282.711 C 235.167 270.320,250.465 265.809,267.719 269.438 " stroke="none" fill-rule="evenodd" fill="black"></path></svg>