<svg width="136mm" height="120mm" version="1.1" viewBox="0 0 600 529.4117647058824" xmlns="http://www.w3.org/2000/svg"><path d="M240.304 46.782 C 202.094 53.603,171.522 81.950,161.931 119.451 C 159.561 128.720,158.489 140.898,158.489 158.580 L 158.489 173.910 122.936 173.910 L 87.383 173.910 87.383 192.757 L 87.383 211.605 257.010 211.605 L 426.637 211.605 426.637 192.757 L 426.637 173.910 391.201 173.910 L 355.766 173.910 355.279 152.707 C 354.744 129.413,353.674 122.186,348.801 108.944 C 332.813 65.496,285.933 38.637,240.304 46.782 M275.508 86.095 C 291.960 91.611,304.026 102.209,311.499 117.709 C 316.283 127.632,317.308 134.161,317.361 155.063 L 317.407 173.482 257.010 173.482 L 196.613 173.482 196.692 154.206 C 196.762 137.211,196.991 134.140,198.628 128.249 C 204.019 108.857,217.562 93.872,235.953 86.950 C 244.086 83.888,249.262 83.136,259.659 83.503 C 266.575 83.747,270.344 84.363,275.508 86.095 M241.876 231.721 C 224.586 234.858,208.821 243.035,196.299 255.359 C 188.530 263.006,183.389 270.277,178.597 280.393 C 172.129 294.045,171.013 299.488,171.003 317.407 C 170.996 331.784,171.154 333.350,173.343 340.538 C 181.082 365.948,197.280 384.968,220.405 395.799 C 254.021 411.544,294.117 404.032,319.587 377.219 C 329.731 366.540,336.186 355.298,340.647 340.538 C 342.784 333.468,342.983 331.584,343.043 317.836 C 343.100 304.706,342.862 301.939,341.126 295.562 C 330.512 256.571,296.039 230.156,256.255 230.530 C 251.723 230.572,245.252 231.108,241.876 231.721 M268.102 269.474 C 277.200 271.619,284.134 275.563,291.360 282.705 C 301.277 292.506,305.842 303.445,305.842 317.407 C 305.842 325.846,304.179 332.571,300.246 340.031 C 296.243 347.625,291.640 352.804,284.666 357.559 C 267.728 369.106,246.292 369.106,229.354 357.559 C 208.997 343.680,202.416 317.639,213.469 294.705 C 217.077 287.218,227.063 277.304,234.822 273.504 C 245.432 268.309,257.143 266.891,268.102 269.474 " stroke="none" fill-rule="evenodd" fill="black"></path></svg>