<svg width="136mm" height="120mm" version="1.1" viewBox="0 0 600 529.4117647058824" xmlns="http://www.w3.org/2000/svg"><path d="M241.406 46.734 C 206.595 52.154,175.984 77.587,164.569 110.575 C 159.963 123.886,159.248 128.998,158.741 152.278 L 158.269 173.910 122.381 173.910 L 86.493 173.910 86.724 192.543 L 86.955 211.177 257.010 211.177 L 427.065 211.177 427.296 192.543 L 427.527 173.910 391.639 173.910 L 355.751 173.910 355.279 152.278 C 354.772 128.998,354.057 123.886,349.451 110.575 C 344.781 97.081,335.580 82.869,325.016 72.834 C 302.587 51.529,271.976 41.973,241.406 46.734 M275.239 85.950 C 292.076 91.315,306.270 104.423,312.967 120.795 C 316.546 129.542,316.936 132.785,316.958 153.992 L 316.979 173.910 257.010 173.910 L 197.041 173.910 197.054 153.992 C 197.068 131.565,197.739 127.105,202.572 117.325 C 211.282 99.702,227.453 87.413,246.522 83.927 C 253.757 82.604,267.852 83.597,275.239 85.950 M242.151 231.762 C 206.459 238.518,178.907 265.340,171.774 300.273 C 168.924 314.233,170.276 332.142,175.258 346.438 C 190.042 388.855,236.569 412.943,280.319 400.830 C 293.824 397.091,306.495 389.813,317.109 379.700 C 337.618 360.160,347.276 331.144,342.693 302.844 C 337.321 269.671,311.682 241.884,278.529 233.304 C 267.979 230.574,252.006 229.897,242.151 231.762 M267.719 269.438 C 276.831 271.355,283.883 275.321,291.315 282.711 C 302.314 293.647,306.355 304.183,305.609 319.977 C 305.116 330.420,302.739 337.465,296.996 345.513 C 287.274 359.138,273.665 366.167,257.010 366.167 C 240.355 366.167,226.746 359.138,217.024 345.513 C 211.281 337.465,208.904 330.420,208.411 319.977 C 207.665 304.183,211.706 293.647,222.705 282.711 C 235.167 270.320,250.465 265.809,267.719 269.438 " stroke="none" fill-rule="evenodd" fill="black"></path></svg>