<svg width="136mm" height="120mm" version="1.1" viewBox="0 0 600 529.4117647058824" xmlns="http://www.w3.org/2000/svg"><path d="M147.292 156.530 L 112.018 262.351 96.910 247.261 L 81.803 232.171 68.317 245.657 L 54.831 259.142 76.677 281.000 L 98.522 302.857 83.973 346.486 C 75.971 370.482,69.556 390.248,69.718 390.409 C 69.880 390.571,77.896 393.338,87.530 396.558 L 105.048 402.412 116.551 367.834 C 122.877 348.816,128.253 333.256,128.498 333.256 C 128.742 333.256,142.816 347.134,159.772 364.095 L 190.602 394.933 204.105 381.450 L 217.608 367.966 179.698 330.049 L 141.789 292.132 180.037 177.381 L 218.285 62.629 200.425 56.668 L 182.566 50.708 147.292 156.530 M246.602 160.149 L 212.635 262.061 230.531 268.033 C 240.374 271.318,248.572 273.748,248.748 273.432 C 248.924 273.117,253.024 260.908,257.858 246.301 C 262.692 231.695,266.898 219.464,267.204 219.123 C 267.510 218.782,274.283 231.565,282.254 247.530 L 296.748 276.557 313.717 268.065 L 330.685 259.572 307.511 213.231 L 284.338 166.889 300.326 118.923 C 309.120 92.541,315.983 70.652,315.576 70.281 C 315.170 69.910,307.512 67.189,298.560 64.233 C 289.607 61.278,281.897 58.720,281.426 58.549 C 280.955 58.377,265.284 104.097,246.602 160.149 M367.736 163.420 C 349.243 218.904,334.113 264.690,334.113 265.166 C 334.113 266.267,368.554 277.762,369.318 276.916 C 369.631 276.569,374.073 263.660,379.190 248.229 C 384.307 232.798,388.696 220.172,388.942 220.172 C 389.189 220.172,395.725 232.859,403.467 248.365 L 417.542 276.557 434.511 268.065 L 451.480 259.572 428.654 213.957 L 405.828 168.342 421.460 121.381 C 430.057 95.553,436.913 74.243,436.695 74.025 C 436.148 73.478,403.337 62.539,402.243 62.539 C 401.756 62.539,386.228 107.935,367.736 163.420 M79.402 75.609 C 68.294 79.320,61.704 81.937,61.928 82.548 C 62.125 83.087,69.721 105.888,78.807 133.217 C 87.894 160.546,95.441 183.039,95.580 183.203 C 95.938 183.627,131.075 171.893,131.075 171.350 C 131.075 171.103,123.461 148.119,114.155 120.276 L 97.235 69.650 79.402 75.609 M249.497 309.911 L 249.728 328.544 336.469 328.763 L 423.210 328.981 423.210 310.129 L 423.210 291.278 336.238 291.278 L 249.266 291.278 249.497 309.911 M227.025 377.805 L 227.025 396.652 336.683 396.652 L 446.341 396.652 446.341 377.805 L 446.341 358.957 336.683 358.957 L 227.025 358.957 227.025 377.805 " stroke="none" fill-rule="evenodd" fill="black"></path></svg>