<svg width="136mm" height="120mm" version="1.1" viewBox="0 0 600 529.4117647058824" xmlns="http://www.w3.org/2000/svg"><path d="M181.701 52.526 C 181.320 53.557,165.438 101.142,146.408 158.271 L 111.808 262.141 96.594 246.945 L 81.381 231.750 67.893 245.237 L 54.406 258.725 76.359 280.678 L 98.312 302.631 83.851 345.996 C 75.897 369.846,69.510 389.723,69.658 390.166 C 69.805 390.608,77.711 393.569,87.226 396.745 C 102.687 401.906,104.605 402.367,105.263 401.085 C 105.668 400.296,110.923 384.808,116.941 366.668 C 122.959 348.527,128.038 333.509,128.227 333.294 C 128.417 333.079,142.534 346.861,159.598 363.921 L 190.623 394.938 204.113 381.449 L 217.602 367.960 179.695 330.046 L 141.789 292.132 180.037 177.381 L 218.285 62.629 200.340 56.640 C 182.583 50.714,182.387 50.671,181.701 52.526 M246.602 160.149 L 212.635 262.061 230.531 268.033 C 240.374 271.318,248.572 273.748,248.748 273.432 C 248.924 273.117,253.024 260.908,257.858 246.301 C 262.692 231.695,266.898 219.464,267.204 219.123 C 267.510 218.782,274.283 231.565,282.254 247.530 L 296.748 276.557 313.717 268.065 L 330.685 259.572 307.511 213.231 L 284.338 166.889 300.326 118.923 C 309.120 92.541,315.983 70.652,315.576 70.281 C 315.170 69.910,307.512 67.189,298.560 64.233 C 289.607 61.278,281.897 58.720,281.426 58.549 C 280.955 58.377,265.284 104.097,246.602 160.149 M367.736 163.420 C 349.243 218.904,334.113 264.691,334.113 265.168 C 334.113 265.988,369.072 278.074,369.608 277.440 C 369.747 277.276,374.013 264.613,379.088 249.300 C 384.164 233.986,388.520 221.103,388.769 220.670 C 389.017 220.238,395.520 232.478,403.220 247.871 C 410.919 263.263,417.606 275.857,418.081 275.857 C 418.555 275.857,426.264 272.193,435.212 267.715 L 451.480 259.572 428.734 214.087 L 405.989 168.602 421.453 122.210 C 429.958 96.694,436.917 75.368,436.917 74.818 C 436.917 73.963,404.635 62.539,402.217 62.539 C 401.745 62.539,386.228 107.935,367.736 163.420 M79.402 75.609 C 68.294 79.320,61.704 81.937,61.928 82.548 C 62.125 83.087,69.721 105.888,78.807 133.217 C 87.894 160.546,95.398 182.996,95.483 183.106 C 95.726 183.421,129.716 172.045,130.423 171.412 C 130.771 171.100,123.447 148.076,114.146 120.247 L 97.235 69.650 79.402 75.609 M249.497 309.911 L 249.728 328.544 336.469 328.763 L 423.210 328.981 423.210 310.129 L 423.210 291.278 336.238 291.278 L 249.266 291.278 249.497 309.911 M227.025 377.805 L 227.025 396.652 336.683 396.652 L 446.341 396.652 446.341 377.805 L 446.341 358.957 336.683 358.957 L 227.025 358.957 227.025 377.805 " stroke="none" fill-rule="evenodd" fill="black"></path></svg>