<svg width="136mm" height="120mm" version="1.1" viewBox="0 0 600 529.4117647058824" xmlns="http://www.w3.org/2000/svg"><path d="M343.537 58.684 L 343.537 79.673 301.970 79.673 L 260.403 79.673 260.634 98.306 L 260.865 116.940 302.201 117.162 L 343.537 117.384 343.537 122.734 L 343.537 128.083 303.272 168.342 C 281.126 190.483,263.007 208.991,263.007 209.470 C 263.007 210.594,288.026 235.593,289.150 235.593 C 289.618 235.593,306.382 219.208,326.403 199.183 L 362.805 162.773 399.429 199.390 L 436.054 236.007 449.335 222.746 L 462.616 209.485 421.924 168.760 L 381.231 128.035 381.231 122.701 L 381.231 117.368 422.781 117.368 L 464.331 117.368 464.331 98.529 L 464.331 79.690 422.996 79.467 L 381.660 79.245 381.430 58.470 L 381.201 37.695 362.369 37.695 L 343.537 37.695 343.537 58.684 M68.536 131.895 L 68.536 150.740 53.330 150.974 L 38.123 151.208 37.892 169.821 L 37.661 188.434 52.885 188.668 L 68.108 188.902 68.556 228.311 L 69.005 267.719 71.441 275.001 C 78.758 296.881,92.499 312.460,112.722 321.803 C 125.984 327.930,144.612 329.968,159.158 326.882 C 184.042 321.603,204.952 303.743,214.234 279.839 C 218.766 268.168,219.315 262.074,219.315 223.486 L 219.315 188.474 234.307 188.474 L 249.300 188.474 249.300 169.627 L 249.300 150.779 234.307 150.779 L 219.315 150.779 219.315 131.932 L 219.315 113.084 200.468 113.084 L 181.620 113.084 181.620 131.932 L 181.620 150.779 143.942 150.779 L 106.264 150.779 106.033 132.146 L 105.802 113.513 87.169 113.282 L 68.536 113.051 68.536 131.895 M181.419 222.314 C 181.562 243.197,181.310 257.352,180.749 260.064 C 178.354 271.639,170.486 281.786,159.842 287.025 C 154.609 289.602,152.950 289.982,145.707 290.269 C 138.959 290.536,136.523 290.264,132.003 288.737 C 121.958 285.344,114.070 278.222,109.370 268.301 L 106.659 262.579 106.411 225.517 L 106.162 188.456 143.677 188.679 L 181.192 188.902 181.419 222.314 M343.537 243.731 L 343.537 264.720 301.970 264.720 L 260.403 264.720 260.634 283.354 L 260.865 301.987 302.201 302.209 L 343.537 302.432 343.537 307.781 L 343.537 313.131 303.272 353.389 C 281.126 375.531,263.007 394.039,263.007 394.518 C 263.007 395.641,288.026 420.640,289.150 420.640 C 289.618 420.640,306.382 404.255,326.403 384.230 L 362.805 347.820 399.429 384.437 L 436.054 421.054 449.335 407.793 L 462.616 394.533 421.924 353.807 L 381.231 313.082 381.231 307.749 L 381.231 302.415 422.781 302.415 L 464.331 302.415 464.331 283.576 L 464.331 264.737 422.996 264.514 L 381.660 264.292 381.430 243.517 L 381.201 222.742 362.369 222.742 L 343.537 222.742 343.537 243.731 " stroke="none" fill-rule="evenodd" fill="black"></path></svg>