<svg width="136mm" height="120mm" version="1.1" viewBox="0 0 600 529.4117647058824" xmlns="http://www.w3.org/2000/svg"><path d="M343.537 58.684 L 343.537 79.673 301.970 79.673 L 260.403 79.673 260.634 98.306 L 260.865 116.940 302.201 117.162 L 343.537 117.384 343.537 123.242 L 343.537 129.100 303.272 168.724 C 281.126 190.518,263.007 208.788,263.007 209.324 C 263.007 209.861,268.883 216.185,276.065 223.378 L 289.122 236.456 325.971 199.614 L 362.820 162.773 399.647 199.608 L 436.475 236.443 449.546 223.392 C 456.736 216.214,462.618 209.949,462.618 209.470 C 462.618 208.991,444.499 190.483,422.353 168.342 L 382.088 128.083 382.088 122.726 L 382.088 117.368 423.638 117.368 L 465.188 117.368 465.188 98.520 L 465.188 79.673 423.638 79.673 L 382.088 79.673 382.088 58.684 L 382.088 37.695 362.812 37.695 L 343.537 37.695 343.537 58.684 M68.267 113.639 C 67.944 113.962,67.679 122.451,67.679 132.503 L 67.679 150.779 52.687 150.779 L 37.695 150.779 37.695 170.055 L 37.695 189.331 52.610 189.331 L 67.525 189.331 67.904 226.383 C 68.257 260.967,68.407 263.920,70.152 270.717 C 83.145 321.321,140.632 344.256,184.509 316.340 C 198.382 307.514,209.259 293.828,214.703 278.351 C 218.853 266.550,219.253 261.823,219.285 224.241 L 219.315 189.331 234.307 189.331 L 249.300 189.331 249.300 170.055 L 249.300 150.779 234.307 150.779 L 219.315 150.779 219.315 131.932 L 219.315 113.084 200.468 113.084 L 181.620 113.084 181.620 131.932 L 181.620 150.779 143.942 150.779 L 106.264 150.779 106.033 132.146 L 105.802 113.513 87.328 113.282 C 77.167 113.156,68.590 113.316,68.267 113.639 M181.592 220.814 C 181.577 238.130,181.229 254.897,180.820 258.074 C 179.767 266.238,175.999 273.752,169.995 279.661 C 162.099 287.432,154.742 290.433,143.497 290.470 C 126.933 290.524,113.157 280.460,107.643 264.275 C 106.421 260.690,106.231 255.364,106.231 224.731 L 106.231 189.331 143.926 189.331 L 181.620 189.331 181.592 220.814 M343.537 243.731 L 343.537 264.720 301.970 264.720 L 260.403 264.720 260.634 283.354 L 260.865 301.987 302.201 302.209 L 343.537 302.432 343.537 308.332 L 343.537 314.232 303.272 353.853 C 281.126 375.645,263.007 393.896,263.007 394.411 C 263.007 394.926,268.883 401.232,276.065 408.425 L 289.122 421.503 325.971 384.662 L 362.820 347.820 399.647 384.655 L 436.475 421.490 449.546 408.439 C 456.736 401.261,462.618 394.996,462.618 394.517 C 462.618 394.039,444.499 375.531,422.353 353.389 L 382.088 313.131 382.088 307.773 L 382.088 302.415 423.638 302.415 L 465.188 302.415 465.188 283.568 L 465.188 264.720 423.638 264.720 L 382.088 264.720 382.088 243.731 L 382.088 222.742 362.812 222.742 L 343.537 222.742 343.537 243.731 " stroke="none" fill-rule="evenodd" fill="black"></path></svg>