<svg width="136mm" height="120mm" version="1.1" viewBox="0 0 600 529.4117647058824" xmlns="http://www.w3.org/2000/svg"><path d="M343.537 58.684 L 343.537 79.673 301.970 79.673 L 260.403 79.673 260.634 98.306 L 260.865 116.940 302.201 117.162 L 343.537 117.384 343.537 122.734 L 343.537 128.083 303.272 168.342 C 281.126 190.483,263.007 208.991,263.007 209.470 C 263.007 209.949,268.889 216.214,276.078 223.392 L 289.150 236.443 325.978 199.608 L 362.805 162.773 399.429 199.390 L 436.054 236.007 449.339 222.742 L 462.625 209.477 422.357 169.202 L 382.088 128.927 382.088 123.156 L 382.088 117.384 423.424 117.162 L 464.760 116.940 464.991 98.306 L 465.222 79.673 423.655 79.673 L 382.088 79.673 382.088 58.684 L 382.088 37.695 362.812 37.695 L 343.537 37.695 343.537 58.684 M68.250 113.656 C 67.936 113.970,67.679 122.451,67.679 132.503 L 67.679 150.779 52.671 150.779 L 37.662 150.779 37.893 169.841 L 38.123 188.902 52.901 189.137 L 67.679 189.371 67.680 219.550 C 67.681 253.785,68.487 265.151,71.629 275.230 C 82.340 309.590,115.578 331.679,151.084 328.034 C 179.183 325.149,203.140 307.184,213.828 280.984 C 218.757 268.901,219.292 263.402,219.304 224.670 L 219.315 189.331 234.307 189.331 L 249.300 189.331 249.300 170.055 L 249.300 150.779 234.307 150.779 L 219.315 150.779 219.315 131.932 L 219.315 113.084 200.468 113.084 L 181.620 113.084 181.620 131.932 L 181.620 150.779 143.926 150.779 L 106.231 150.779 106.231 131.932 L 106.231 113.084 87.526 113.084 C 77.239 113.084,68.565 113.341,68.250 113.656 M181.603 221.243 C 181.594 238.794,181.234 255.586,180.805 258.557 C 178.742 272.825,168.304 284.903,154.308 289.222 C 148.764 290.932,137.965 290.853,132.526 289.062 C 122.602 285.795,114.007 278.088,109.370 268.301 L 106.659 262.579 106.410 225.955 L 106.161 189.331 143.891 189.331 L 181.620 189.331 181.603 221.243 M343.537 243.731 L 343.537 264.720 301.970 264.720 L 260.403 264.720 260.634 283.354 L 260.865 301.987 302.201 302.209 L 343.537 302.432 343.537 307.781 L 343.537 313.131 303.272 353.389 C 281.126 375.531,263.007 394.039,263.007 394.517 C 263.007 394.996,268.889 401.261,276.078 408.439 L 289.150 421.490 325.978 384.655 L 362.805 347.820 399.429 384.437 L 436.054 421.054 449.339 407.789 L 462.625 394.524 422.357 354.249 L 382.088 313.974 382.088 308.203 L 382.088 302.432 423.424 302.209 L 464.760 301.987 464.991 283.354 L 465.222 264.720 423.655 264.720 L 382.088 264.720 382.088 243.731 L 382.088 222.742 362.812 222.742 L 343.537 222.742 343.537 243.731 " stroke="none" fill-rule="evenodd" fill="black"></path></svg>