<svg width="136mm" height="120mm" version="1.1" viewBox="0 0 600 529.4117647058824" xmlns="http://www.w3.org/2000/svg"><path d="M109.658 72.734 L 109.658 107.773 105.160 108.844 C 82.258 114.294,60.252 130.771,47.437 152.064 C 43.636 158.381,38.889 169.928,36.694 178.201 C 34.774 185.435,34.762 185.887,34.484 258.938 L 34.205 332.400 53.051 332.400 L 71.898 332.400 72.162 260.651 C 72.457 180.548,72.029 186.287,78.660 173.482 C 83.112 164.887,94.241 153.924,102.804 149.700 L 109.229 146.531 109.446 281.015 L 109.663 415.500 128.505 415.500 L 147.347 415.500 147.564 280.933 L 147.781 146.366 154.206 149.631 C 163.380 154.292,174.917 165.890,179.321 174.877 C 185.099 186.670,185.016 185.391,185.032 262.793 L 185.047 332.400 194.043 332.400 C 198.990 332.400,203.038 332.506,203.038 332.635 C 203.038 332.765,200.152 341.509,196.625 352.066 C 193.098 362.624,190.346 371.396,190.510 371.559 C 190.673 371.723,198.688 374.490,208.321 377.709 L 225.835 383.562 245.047 325.881 C 255.614 294.157,264.508 268.478,264.811 268.816 C 265.115 269.155,273.913 295.131,284.363 326.540 L 303.363 383.647 317.025 379.074 L 330.686 374.502 344.348 379.074 L 358.009 383.647 377.009 326.540 C 387.459 295.131,396.258 269.155,396.561 268.816 C 396.864 268.478,405.758 294.157,416.325 325.881 L 435.538 383.562 453.052 377.709 C 462.684 374.490,470.697 371.724,470.859 371.563 C 471.020 371.402,459.016 334.866,444.182 290.372 C 429.349 245.878,417.213 208.696,417.213 207.747 C 417.213 206.798,425.109 182.340,434.759 153.397 C 444.410 124.454,452.174 100.641,452.012 100.479 C 451.850 100.318,443.838 97.552,434.208 94.334 L 416.698 88.482 373.909 216.866 C 350.376 287.477,330.925 345.250,330.685 345.250 C 330.446 345.250,319.939 314.309,307.337 276.493 L 284.424 207.736 302.331 154.031 L 320.238 100.325 302.375 94.364 L 284.513 88.403 253.842 180.202 L 223.170 272.002 222.692 228.311 C 222.163 180.081,222.111 179.578,216.031 164.679 C 205.184 138.097,181.274 116.747,154.252 109.515 L 147.352 107.668 147.352 72.681 L 147.352 37.695 128.505 37.695 L 109.658 37.695 109.658 72.734 " stroke="none" fill-rule="evenodd" fill="black"></path></svg>