<svg width="136mm" height="120mm" version="1.1" viewBox="0 0 600 529.4117647058824" xmlns="http://www.w3.org/2000/svg"><path d="M109.658 72.681 L 109.658 107.668 102.758 109.515 C 74.262 117.142,49.284 140.559,39.487 168.831 C 34.242 183.968,34.268 183.515,34.268 261.388 L 34.268 332.400 53.115 332.400 L 71.963 332.400 71.963 263.593 C 71.963 217.890,72.274 193.079,72.891 189.702 C 74.148 182.819,77.548 174.478,81.457 168.692 C 86.094 161.826,95.603 153.375,102.933 149.605 L 109.229 146.366 109.446 280.933 L 109.663 415.500 128.505 415.500 L 147.347 415.500 147.564 280.933 L 147.781 146.366 154.077 149.605 C 161.407 153.375,170.916 161.826,175.553 168.692 C 179.462 174.478,182.862 182.819,184.119 189.702 C 184.736 193.079,185.047 217.890,185.047 263.593 L 185.047 332.400 194.043 332.400 C 198.990 332.400,203.038 332.506,203.038 332.635 C 203.038 332.765,200.152 341.509,196.625 352.066 C 193.098 362.624,190.346 371.396,190.510 371.559 C 190.673 371.723,198.688 374.490,208.321 377.709 L 225.835 383.562 245.047 325.881 C 255.614 294.157,264.508 268.478,264.811 268.816 C 265.115 269.155,273.913 295.131,284.363 326.540 L 303.363 383.647 317.025 379.074 L 330.686 374.502 344.348 379.074 L 358.009 383.647 377.009 326.540 C 387.459 295.131,396.258 269.155,396.561 268.816 C 396.864 268.478,405.758 294.156,416.324 325.879 L 435.536 383.557 453.361 377.609 C 463.164 374.337,471.185 371.380,471.185 371.038 C 471.185 370.695,459.041 334.057,444.199 289.619 C 429.357 245.181,417.213 208.192,417.213 207.422 C 417.213 206.651,425.109 182.340,434.759 153.397 C 444.410 124.454,452.174 100.641,452.012 100.479 C 451.850 100.318,443.838 97.552,434.208 94.334 L 416.698 88.482 373.909 216.866 C 350.376 287.477,330.925 345.250,330.685 345.250 C 330.446 345.250,319.939 314.309,307.337 276.493 L 284.424 207.736 302.331 154.031 L 320.238 100.325 302.375 94.364 L 284.513 88.403 253.842 180.202 L 223.170 272.002 222.685 228.311 C 222.161 181.138,222.221 181.792,217.085 167.485 C 207.275 140.157,182.158 116.984,154.252 109.515 L 147.352 107.668 147.352 72.681 L 147.352 37.695 128.505 37.695 L 109.658 37.695 109.658 72.681 " stroke="none" fill-rule="evenodd" fill="black"></path></svg>