<svg width="136mm" height="120mm" version="1.1" viewBox="0 0 600 529.4117647058824" xmlns="http://www.w3.org/2000/svg"><path d="M109.658 72.611 L 109.658 107.528 102.666 109.487 C 72.928 117.820,47.562 142.468,38.609 171.729 C 34.351 185.643,34.268 187.382,34.268 262.262 L 34.268 332.400 53.115 332.400 L 71.963 332.400 71.963 263.390 C 71.963 186.029,71.822 188.049,78.120 174.860 C 82.816 165.026,92.469 155.234,102.590 150.038 L 109.658 146.409 109.658 280.954 L 109.658 415.500 128.502 415.500 L 147.347 415.500 147.564 281.015 L 147.781 146.531 154.206 149.708 C 159.004 152.082,162.488 154.735,167.964 160.186 C 176.357 168.540,180.659 175.873,183.358 186.426 C 184.971 192.734,185.047 196.166,185.047 262.716 L 185.047 332.400 194.043 332.400 C 198.990 332.400,203.038 332.506,203.038 332.635 C 203.038 332.765,200.152 341.509,196.625 352.066 C 193.098 362.624,190.346 371.396,190.510 371.559 C 190.673 371.723,198.688 374.490,208.321 377.709 L 225.835 383.562 245.047 325.881 C 255.614 294.157,264.508 268.478,264.811 268.816 C 265.115 269.155,273.913 295.131,284.363 326.540 L 303.363 383.647 317.025 379.074 L 330.686 374.502 344.348 379.074 L 358.009 383.647 377.009 326.540 C 387.459 295.131,396.258 269.155,396.561 268.816 C 396.864 268.478,405.758 294.157,416.325 325.881 L 435.538 383.562 453.052 377.709 C 462.684 374.490,470.697 371.724,470.859 371.563 C 471.020 371.402,459.016 334.866,444.182 290.372 C 429.349 245.878,417.213 208.696,417.213 207.747 C 417.213 206.798,425.109 182.340,434.759 153.397 C 444.410 124.454,452.174 100.641,452.012 100.479 C 451.850 100.318,443.838 97.552,434.208 94.334 L 416.698 88.482 373.909 216.866 C 350.376 287.477,330.925 345.250,330.685 345.250 C 330.446 345.250,319.939 314.309,307.337 276.493 L 284.424 207.736 302.331 154.031 L 320.238 100.325 302.375 94.364 L 284.513 88.403 253.842 180.202 L 223.170 272.002 222.711 228.311 L 222.252 184.619 219.986 176.304 C 211.175 143.973,185.814 118.117,154.427 109.463 L 147.365 107.516 147.359 72.605 L 147.352 37.695 128.505 37.695 L 109.658 37.695 109.658 72.611 " stroke="none" fill-rule="evenodd" fill="black"></path></svg>