<svg width="136mm" height="120mm" version="1.1" viewBox="0 0 600 529.4117647058824" xmlns="http://www.w3.org/2000/svg"><path d="M127.272 88.747 C 99.519 94.929,77.531 116.481,70.101 144.782 C 68.194 152.045,68.189 152.288,67.896 238.377 L 67.603 324.689 54.362 324.689 L 41.122 324.689 41.122 343.537 L 41.122 362.384 143.497 362.384 L 245.873 362.384 245.873 343.537 L 245.873 324.689 232.594 324.689 L 219.315 324.689 219.315 240.845 C 219.315 169.553,219.120 155.879,218.009 149.509 C 213.125 121.504,192.916 98.841,164.915 89.969 C 156.883 87.424,136.221 86.753,127.272 88.747 M291.278 131.927 L 291.278 150.779 359.402 150.779 L 427.527 150.779 427.296 132.146 L 427.065 113.513 359.171 113.293 L 291.278 113.074 291.278 131.927 M159.441 128.208 C 170.798 133.552,179.227 145.072,180.820 157.425 C 181.229 160.602,181.577 199.536,181.592 243.945 L 181.620 324.689 143.926 324.689 L 106.231 324.689 106.231 240.029 C 106.231 163.643,106.369 154.963,107.643 151.224 C 111.579 139.673,120.378 130.605,131.503 126.635 C 134.784 125.464,137.893 125.158,144.782 125.325 C 152.812 125.520,154.386 125.829,159.441 128.208 M264.720 336.255 L 264.720 355.538 359.171 355.320 L 453.623 355.102 453.623 336.255 L 453.623 317.407 359.171 317.189 L 264.720 316.971 264.720 336.255 " stroke="none" fill-rule="evenodd" fill="black"></path></svg>