<svg width="136mm" height="120mm" version="1.1" viewBox="0 0 600 529.4117647058824" xmlns="http://www.w3.org/2000/svg"><path d="M134.906 87.378 C 114.933 90.150,96.752 100.272,84.855 115.242 C 79.187 122.375,73.779 132.655,70.892 141.784 L 68.996 147.781 68.743 236.235 L 68.490 324.689 55.234 324.689 L 41.978 324.689 41.978 343.537 L 41.978 362.384 143.926 362.384 L 245.873 362.384 245.873 343.537 L 245.873 324.689 232.594 324.689 L 219.315 324.689 219.315 240.845 C 219.315 148.829,219.314 148.808,214.174 135.502 C 210.403 125.739,205.963 118.769,198.417 110.768 C 184.667 96.189,167.583 88.266,147.352 87.086 C 143.347 86.852,137.747 86.984,134.906 87.378 M291.278 131.932 L 291.278 150.779 358.957 150.779 L 426.637 150.779 426.637 131.932 L 426.637 113.084 358.957 113.084 L 291.278 113.084 291.278 131.932 M153.240 126.025 C 166.221 128.950,177.759 141.095,180.664 154.891 C 181.330 158.051,181.620 184.534,181.620 242.060 L 181.620 324.689 143.926 324.689 L 106.231 324.689 106.231 240.277 C 106.231 158.054,106.275 155.733,107.949 150.765 C 110.207 144.063,112.129 141.013,117.561 135.519 C 126.772 126.202,139.270 122.877,153.240 126.025 M264.720 335.826 L 264.720 354.674 358.957 354.674 L 453.194 354.674 453.194 335.826 L 453.194 316.979 358.957 316.979 L 264.720 316.979 264.720 335.826 " stroke="none" fill-rule="evenodd" fill="black"></path></svg>