<svg width="136mm" height="120mm" version="1.1" viewBox="0 0 600 529.4117647058824" xmlns="http://www.w3.org/2000/svg"><path d="M127.648 88.665 C 95.013 95.963,71.768 122.665,68.556 156.547 C 68.033 162.057,67.680 197.763,67.680 245.230 L 67.679 324.689 54.829 324.689 L 41.978 324.689 41.978 343.537 L 41.978 362.384 143.926 362.384 L 245.873 362.384 245.873 343.537 L 245.873 324.689 232.594 324.689 L 219.315 324.689 219.304 240.090 C 219.293 160.852,219.191 155.002,217.693 147.781 C 211.947 120.080,192.529 98.798,164.915 89.938 C 157.121 87.437,136.315 86.726,127.648 88.665 M291.278 131.927 L 291.278 150.779 359.402 150.779 L 427.527 150.779 427.296 132.146 L 427.065 113.513 359.171 113.293 L 291.278 113.074 291.278 131.927 M159.441 128.208 C 170.590 133.455,179.055 144.839,180.805 156.942 C 181.234 159.914,181.594 198.872,181.603 243.517 L 181.620 324.689 143.910 324.689 L 106.199 324.689 106.429 238.805 L 106.659 152.921 109.402 147.131 C 112.506 140.577,119.519 132.659,124.644 129.920 C 132.355 125.798,135.379 125.109,144.782 125.331 C 152.820 125.521,154.381 125.827,159.441 128.208 M264.720 336.255 L 264.720 355.531 358.957 355.531 L 453.194 355.531 453.194 336.255 L 453.194 316.979 358.957 316.979 L 264.720 316.979 264.720 336.255 " stroke="none" fill-rule="evenodd" fill="black"></path></svg>