<svg width="136mm" height="120mm" version="1.1" viewBox="0 0 600 529.4117647058824" xmlns="http://www.w3.org/2000/svg"><path d="M347.820 84.813 L 347.820 131.932 344.171 131.932 L 340.522 131.932 322.548 95.950 C 312.662 76.161,304.277 59.969,303.914 59.969 C 302.926 59.969,270.717 76.187,270.717 76.684 C 270.717 76.920,276.887 89.448,284.427 104.523 L 298.137 131.932 281.429 131.932 L 264.720 131.932 264.720 151.208 L 264.720 170.483 300.274 170.483 L 335.828 170.483 301.212 239.712 L 266.595 308.941 283.317 317.289 C 292.514 321.881,300.146 325.520,300.275 325.377 C 300.405 325.235,306.819 312.588,314.528 297.275 L 328.544 269.432 328.779 283.782 L 329.014 298.132 338.417 298.132 L 347.820 298.132 347.820 349.105 L 347.820 400.079 366.668 400.079 L 385.515 400.079 385.515 349.105 L 385.515 298.132 394.939 298.132 L 404.362 298.132 404.409 283.782 L 404.455 269.432 418.547 297.489 C 426.297 312.920,432.834 325.546,433.073 325.546 C 434.436 325.546,466.045 309.114,466.045 308.406 C 466.045 307.936,450.626 276.715,431.781 239.027 L 397.517 170.503 431.138 170.279 L 464.760 170.055 464.760 151.208 L 464.760 132.360 449.989 132.126 L 435.219 131.891 448.918 104.502 C 456.453 89.438,462.618 76.920,462.618 76.684 C 462.618 76.187,430.409 59.969,429.421 59.969 C 429.059 59.969,420.674 76.161,410.788 95.950 L 392.813 131.932 389.164 131.932 L 385.515 131.932 385.515 84.813 L 385.515 37.695 366.668 37.695 L 347.820 37.695 347.820 84.813 M68.250 113.656 C 67.936 113.970,67.679 122.438,67.679 132.474 L 67.679 150.721 58.470 150.964 L 49.260 151.208 49.260 170.055 L 49.260 188.902 58.470 189.146 L 67.679 189.389 67.680 219.558 C 67.681 253.786,68.487 265.152,71.629 275.230 C 82.340 309.590,115.578 331.679,151.084 328.034 C 179.183 325.149,203.140 307.184,213.828 280.984 C 218.757 268.901,219.292 263.402,219.304 224.670 L 219.315 189.331 228.739 189.331 L 238.163 189.331 238.163 170.055 L 238.163 150.779 228.739 150.779 L 219.315 150.779 219.315 131.932 L 219.315 113.084 200.468 113.084 L 181.620 113.084 181.620 131.932 L 181.620 150.779 143.926 150.779 L 106.231 150.779 106.231 131.932 L 106.231 113.084 87.526 113.084 C 77.239 113.084,68.565 113.341,68.250 113.656 M181.603 221.243 C 181.594 238.794,181.234 255.586,180.805 258.557 C 178.742 272.825,168.304 284.903,154.308 289.222 C 148.764 290.932,137.965 290.853,132.526 289.062 C 122.602 285.795,114.007 278.088,109.370 268.301 L 106.659 262.579 106.410 225.955 L 106.161 189.331 143.891 189.331 L 181.620 189.331 181.603 221.243 M383.373 227.025 L 400.083 260.437 366.670 260.437 C 348.292 260.437,333.256 260.245,333.256 260.011 C 333.256 259.449,366.165 193.614,366.446 193.614 C 366.566 193.614,374.183 208.649,383.373 227.025 " stroke="none" fill-rule="evenodd" fill="black"></path></svg>