<svg width="136mm" height="120mm" version="1.1" viewBox="0 0 600 529.4117647058824" xmlns="http://www.w3.org/2000/svg"><path d="M347.820 84.813 L 347.820 131.932 343.967 131.932 L 340.114 131.932 322.119 95.950 C 312.222 76.161,303.929 59.969,303.690 59.969 C 302.852 59.969,270.717 76.259,270.717 76.684 C 270.717 76.920,276.887 89.448,284.427 104.523 L 298.137 131.932 281.429 131.932 L 264.720 131.932 264.720 150.779 L 264.720 169.627 300.273 169.627 C 319.828 169.627,335.826 169.820,335.826 170.057 C 335.826 170.294,320.249 201.640,301.211 239.714 L 266.595 308.941 283.317 317.289 C 292.514 321.881,300.146 325.520,300.275 325.377 C 300.405 325.235,306.819 312.588,314.528 297.275 L 328.544 269.432 328.779 283.782 L 329.014 298.132 338.417 298.132 L 347.820 298.132 347.820 349.105 L 347.820 400.079 366.668 400.079 L 385.515 400.079 385.515 349.105 L 385.515 298.132 394.939 298.132 L 404.362 298.132 404.409 283.782 L 404.455 269.432 418.547 297.489 C 426.297 312.920,432.834 325.546,433.073 325.546 C 434.436 325.546,466.045 309.114,466.045 308.406 C 466.045 307.936,450.624 276.712,431.777 239.019 C 412.929 201.327,397.509 170.294,397.509 170.057 C 397.509 169.820,412.544 169.627,430.920 169.627 L 464.331 169.627 464.331 150.779 L 464.331 131.932 449.767 131.932 C 441.757 131.932,435.204 131.737,435.204 131.498 C 435.204 131.260,441.372 118.733,448.911 103.660 L 462.619 76.255 446.350 68.112 C 437.402 63.633,429.784 59.969,429.421 59.969 C 429.059 59.969,420.674 76.161,410.788 95.950 L 392.813 131.932 389.164 131.932 L 385.515 131.932 385.515 84.813 L 385.515 37.695 366.668 37.695 L 347.820 37.695 347.820 84.813 M68.536 131.915 L 68.536 150.779 59.112 150.779 L 49.689 150.779 49.689 169.598 L 49.689 188.416 58.898 188.659 L 68.108 188.902 68.556 228.311 L 69.005 267.719 71.441 275.001 C 78.758 296.881,92.499 312.460,112.722 321.803 C 125.984 327.930,144.612 329.968,159.158 326.882 C 184.042 321.603,204.952 303.743,214.234 279.839 C 218.766 268.168,219.315 262.074,219.315 223.486 L 219.315 188.474 228.739 188.474 L 238.163 188.474 238.163 169.627 L 238.163 150.779 228.739 150.779 L 219.315 150.779 219.315 131.932 L 219.315 113.084 200.468 113.084 L 181.620 113.084 181.620 131.932 L 181.620 150.779 143.942 150.779 L 106.264 150.779 106.033 132.146 L 105.802 113.513 87.169 113.282 L 68.536 113.051 68.536 131.915 M181.419 222.314 C 181.562 243.197,181.310 257.352,180.749 260.064 C 178.354 271.639,170.486 281.786,159.842 287.025 C 154.609 289.602,152.950 289.982,145.707 290.269 C 138.959 290.536,136.523 290.264,132.003 288.737 C 121.958 285.344,114.070 278.222,109.370 268.301 L 106.659 262.579 106.411 225.517 L 106.162 188.456 143.677 188.679 L 181.192 188.902 181.419 222.314 M383.373 227.025 L 400.083 260.437 366.670 260.437 C 348.292 260.437,333.256 260.245,333.256 260.011 C 333.256 259.449,366.165 193.614,366.446 193.614 C 366.566 193.614,374.183 208.649,383.373 227.025 " stroke="none" fill-rule="evenodd" fill="black"></path></svg>