<svg width="136mm" height="120mm" version="1.1" viewBox="0 0 600 529.4117647058824" xmlns="http://www.w3.org/2000/svg"><path d="M347.820 84.813 L 347.820 131.932 344.171 131.932 L 340.522 131.932 322.548 95.950 C 312.662 76.161,304.277 59.969,303.914 59.969 C 302.926 59.969,270.717 76.187,270.717 76.684 C 270.717 76.920,276.887 89.448,284.427 104.523 L 298.137 131.932 281.429 131.932 L 264.720 131.932 264.720 151.208 L 264.720 170.483 300.274 170.483 L 335.828 170.483 301.212 239.712 L 266.595 308.941 283.317 317.289 C 292.514 321.881,300.230 325.447,300.462 325.214 C 300.695 324.982,307.193 312.336,314.902 297.112 L 328.918 269.432 328.945 283.782 L 328.973 298.132 338.397 298.132 L 347.820 298.132 347.820 349.105 L 347.820 400.079 366.668 400.079 L 385.515 400.079 385.515 349.105 L 385.515 298.132 394.939 298.132 L 404.362 298.132 404.409 283.782 L 404.455 269.432 418.547 297.489 C 426.297 312.920,432.834 325.546,433.073 325.546 C 434.436 325.546,466.045 309.114,466.045 308.406 C 466.045 307.936,450.626 276.715,431.781 239.027 L 397.517 170.503 431.138 170.279 L 464.760 170.055 464.990 150.993 L 465.221 131.932 450.210 131.932 L 435.198 131.932 448.908 104.523 C 456.449 89.448,462.618 76.920,462.618 76.684 C 462.618 76.187,430.409 59.969,429.421 59.969 C 429.059 59.969,420.674 76.161,410.788 95.950 L 392.813 131.932 389.164 131.932 L 385.515 131.932 385.515 84.813 L 385.515 37.695 366.668 37.695 L 347.820 37.695 347.820 84.813 M68.267 113.639 C 67.944 113.962,67.679 122.451,67.679 132.503 L 67.679 150.779 58.239 150.779 L 48.799 150.779 49.030 169.841 L 49.260 188.902 58.393 189.145 L 67.525 189.387 67.904 226.411 C 68.257 260.967,68.407 263.921,70.152 270.717 C 83.145 321.321,140.632 344.256,184.509 316.340 C 198.382 307.514,209.259 293.828,214.703 278.351 C 218.853 266.550,219.253 261.823,219.285 224.241 L 219.315 189.331 228.739 189.331 L 238.163 189.331 238.163 170.055 L 238.163 150.779 228.739 150.779 L 219.315 150.779 219.315 131.932 L 219.315 113.084 200.468 113.084 L 181.620 113.084 181.620 131.932 L 181.620 150.779 143.942 150.779 L 106.264 150.779 106.033 132.146 L 105.802 113.513 87.328 113.282 C 77.167 113.156,68.590 113.316,68.267 113.639 M181.592 220.814 C 181.577 238.130,181.229 254.897,180.820 258.074 C 179.767 266.238,175.999 273.752,169.995 279.661 C 162.099 287.432,154.742 290.433,143.497 290.470 C 126.933 290.524,113.157 280.460,107.643 264.275 C 106.421 260.690,106.231 255.364,106.231 224.731 L 106.231 189.331 143.926 189.331 L 181.620 189.331 181.592 220.814 M383.591 227.454 L 400.076 260.437 366.668 260.437 L 333.259 260.437 349.744 227.454 C 358.811 209.313,366.426 194.471,366.668 194.471 C 366.909 194.471,374.524 209.313,383.591 227.454 " stroke="none" fill-rule="evenodd" fill="black"></path></svg>