<svg width="136mm" height="120mm" version="1.1" viewBox="0 0 600 529.4117647058824" xmlns="http://www.w3.org/2000/svg"><path d="M136.215 75.390 L 136.215 94.237 190.616 94.237 C 220.536 94.237,245.016 94.430,245.016 94.666 C 245.016 94.903,212.477 160.174,172.706 239.714 L 100.396 384.331 117.026 392.634 C 126.173 397.200,133.750 400.936,133.865 400.936 C 133.980 400.936,157.590 354.106,186.332 296.869 L 238.591 192.803 265.014 192.780 C 288.104 192.760,292.496 192.973,299.827 194.467 C 332.084 201.041,356.310 224.491,364.273 256.850 C 366.866 267.386,366.849 284.397,364.235 295.028 C 357.600 322.008,337.877 344.042,311.627 353.799 C 300.717 357.853,297.018 358.301,270.931 358.723 L 245.873 359.129 245.873 377.890 L 245.873 396.652 267.505 396.650 C 279.402 396.648,292.606 396.233,296.847 395.727 C 347.110 389.728,387.874 354.333,400.558 305.677 C 414.776 251.139,388.105 192.832,337.514 167.849 C 317.921 158.174,307.196 155.871,279.070 155.301 C 267.408 155.065,257.867 154.719,257.867 154.534 C 257.867 154.348,264.614 140.706,272.861 124.217 L 287.856 94.237 340.541 94.237 L 393.225 94.237 393.225 75.390 L 393.225 56.542 264.720 56.542 L 136.215 56.542 136.215 75.390 " stroke="none" fill-rule="evenodd" fill="black"></path></svg>