<svg width="136mm" height="120mm" version="1.1" viewBox="0 0 600 529.4117647058824" xmlns="http://www.w3.org/2000/svg"><path d="M136.215 75.390 L 136.215 94.237 190.616 94.237 C 220.536 94.237,245.016 94.430,245.016 94.666 C 245.016 94.903,212.477 160.174,172.706 239.714 L 100.396 384.331 117.069 392.655 C 126.238 397.232,134.008 400.805,134.336 400.594 C 134.663 400.382,158.254 353.508,186.761 296.427 L 238.591 192.645 268.147 193.000 C 302.114 193.409,304.590 193.805,319.977 201.307 C 341.621 211.859,357.566 231.354,363.785 254.868 C 366.895 266.630,367.089 283.630,364.243 295.082 C 362.195 303.321,356.547 316.090,352.076 322.588 C 341.877 337.411,325.506 349.393,307.836 354.966 C 297.770 358.141,289.259 358.957,266.242 358.957 L 245.873 358.957 245.873 377.895 L 245.873 396.833 272.216 396.398 C 300.852 395.924,306.189 395.288,320.471 390.650 C 378.886 371.681,414.004 311.795,401.808 251.949 C 393.115 209.287,362.593 174.702,321.691 161.165 C 307.144 156.350,302.778 155.744,279.498 155.302 C 267.601 155.076,257.867 154.735,257.867 154.544 C 257.867 154.353,264.614 140.706,272.861 124.217 L 287.856 94.237 340.541 94.237 L 393.225 94.237 393.225 75.390 L 393.225 56.542 264.720 56.542 L 136.215 56.542 136.215 75.390 " stroke="none" fill-rule="evenodd" fill="black"></path></svg>