<svg width="136mm" height="120mm" version="1.1" viewBox="0 0 600 529.4117647058824" xmlns="http://www.w3.org/2000/svg"><path d="M136.215 75.390 L 136.215 94.237 190.616 94.237 C 220.536 94.237,245.016 94.430,245.016 94.666 C 245.016 94.903,212.477 160.174,172.706 239.714 L 100.396 384.331 117.069 392.655 C 126.238 397.232,134.008 400.805,134.336 400.594 C 134.663 400.382,158.253 353.533,186.758 296.484 L 238.585 192.757 265.011 192.757 C 294.374 192.757,302.083 193.681,314.333 198.666 C 339.688 208.984,358.991 231.898,364.568 258.295 C 366.308 266.531,366.533 283.314,365.010 291.278 C 359.475 320.233,338.115 344.709,310.029 354.283 C 299.185 357.980,290.261 358.950,267.076 358.954 L 245.873 358.957 245.873 377.805 L 245.873 396.652 267.505 396.650 C 297.802 396.646,310.516 394.781,328.510 387.701 C 381.926 366.683,413.342 308.544,401.824 252.024 C 397.590 231.251,388.346 212.472,374.504 196.529 C 357.532 176.981,334.105 163.125,308.602 157.551 C 301.815 156.068,296.350 155.651,279.070 155.301 C 267.408 155.065,257.867 154.719,257.867 154.534 C 257.867 154.348,264.614 140.706,272.861 124.217 L 287.856 94.237 340.541 94.237 L 393.225 94.237 393.225 75.390 L 393.225 56.542 264.720 56.542 L 136.215 56.542 136.215 75.390 " stroke="none" fill-rule="evenodd" fill="black"></path></svg>