<svg width="136mm" height="120mm" version="1.1" viewBox="0 0 600 529.4117647058824" xmlns="http://www.w3.org/2000/svg"><path d="M181.620 117.587 L 181.620 167.495 120.795 197.898 C 87.341 214.619,59.969 228.596,59.969 228.957 C 59.969 229.939,76.187 262.150,76.682 262.150 C 76.916 262.150,100.624 250.391,129.364 236.019 L 181.620 209.889 181.620 250.158 L 181.620 290.427 157.540 278.381 C 144.295 271.755,133.351 266.453,133.220 266.598 C 132.515 267.376,116.452 300.068,116.675 300.271 C 116.820 300.404,136.215 310.172,159.775 321.978 L 202.610 343.443 129.576 343.490 L 56.542 343.537 56.542 362.384 L 56.542 381.231 257.010 381.231 L 457.478 381.231 457.478 362.384 L 457.478 343.537 400.936 343.537 L 344.393 343.537 344.393 283.357 L 344.393 223.177 382.941 261.718 L 421.490 300.259 434.776 286.994 L 448.062 273.729 396.233 221.892 L 344.404 170.055 344.185 119.081 L 343.965 68.108 324.903 67.877 L 305.842 67.647 305.842 205.592 L 305.842 343.537 262.579 343.537 L 219.315 343.537 219.315 267.293 L 219.315 191.050 242.443 179.480 L 265.570 167.911 257.231 151.206 C 252.644 142.019,248.593 134.502,248.229 134.502 C 247.864 134.502,241.407 137.586,233.879 141.356 C 226.351 145.125,219.995 148.209,219.754 148.209 C 219.512 148.209,219.315 130.090,219.315 107.944 L 219.315 67.679 200.468 67.679 L 181.620 67.679 181.620 117.587 " stroke="none" fill-rule="evenodd" fill="black"></path></svg>