<svg width="136mm" height="120mm" version="1.1" viewBox="0 0 600 529.4117647058824" xmlns="http://www.w3.org/2000/svg"><path d="M234.084 64.475 L 221.031 77.549 239.876 96.379 L 258.720 115.208 272.002 101.947 L 285.284 88.686 266.657 70.044 C 256.412 59.791,247.829 51.402,247.583 51.402 C 247.338 51.402,241.263 57.285,234.084 64.475 M154.848 113.268 C 151.682 122.793,149.375 130.843,149.721 131.156 C 150.067 131.469,160.663 135.140,173.268 139.313 C 185.872 143.486,196.171 147.098,196.155 147.340 C 196.139 147.583,175.672 154.527,150.673 162.773 C 125.673 171.019,104.873 177.978,104.450 178.238 C 103.744 178.672,114.282 212.072,115.583 213.523 C 115.895 213.872,147.844 203.590,186.580 190.676 L 257.010 167.195 327.440 190.676 C 366.176 203.590,398.125 213.872,398.437 213.523 C 399.815 211.985,410.266 178.666,409.516 178.202 C 409.063 177.922,388.256 170.963,363.279 162.737 C 338.301 154.511,317.858 147.583,317.850 147.340 C 317.842 147.098,328.148 143.486,340.752 139.313 C 353.357 135.140,363.953 131.469,364.299 131.156 C 365.152 130.385,353.647 95.950,352.536 95.950 C 352.053 95.950,330.848 102.890,305.414 111.371 C 279.979 119.852,258.198 126.792,257.010 126.792 C 255.822 126.792,234.041 119.852,208.606 111.371 C 183.172 102.890,161.967 95.950,161.484 95.950 C 161.000 95.950,158.014 103.744,154.848 113.268 M242.018 189.848 C 241.075 190.073,237.233 190.849,233.480 191.571 C 188.794 200.172,152.419 238.392,145.132 284.400 C 143.413 295.254,143.880 315.764,146.070 325.546 C 151.247 348.676,162.341 368.289,179.361 384.399 C 214.710 417.861,266.884 424.926,310.153 402.113 C 339.142 386.828,360.602 358.400,367.951 325.546 C 370.140 315.762,370.607 295.252,368.888 284.400 C 361.624 238.539,326.927 201.847,280.998 191.458 C 274.765 190.048,246.127 188.865,242.018 189.848 M238.163 256.582 L 238.163 283.568 211.069 283.568 L 183.976 283.568 184.515 280.877 C 185.217 277.366,191.822 263.620,195.111 258.824 C 199.084 253.031,208.840 243.581,215.268 239.299 C 221.089 235.421,233.855 229.641,236.663 229.611 C 238.060 229.597,238.163 231.446,238.163 256.582 M285.902 232.529 C 298.800 237.843,311.687 248.275,319.250 259.526 C 322.934 265.007,328.761 277.153,329.515 280.924 L 330.044 283.568 302.951 283.568 L 275.857 283.568 275.857 256.582 C 275.857 225.393,274.789 227.952,285.902 232.529 M238.163 348.249 C 238.163 363.091,238.030 375.235,237.868 375.235 C 237.707 375.235,235.459 374.507,232.875 373.618 C 215.768 367.732,201.187 355.860,191.968 340.312 C 188.850 335.052,184.191 324.142,184.191 322.100 C 184.191 321.572,194.177 321.262,211.177 321.262 L 238.163 321.262 238.163 348.249 M329.815 322.333 C 329.807 322.922,328.541 326.488,327.002 330.258 C 318.662 350.683,301.992 366.445,281.145 373.618 C 278.561 374.507,276.313 375.235,276.152 375.235 C 275.990 375.235,275.857 363.091,275.857 348.249 L 275.857 321.262 302.843 321.262 C 323.869 321.262,329.826 321.499,329.815 322.333 " stroke="none" fill-rule="evenodd" fill="black"></path></svg>