<svg width="136mm" height="120mm" version="1.1" viewBox="0 0 600 529.4117647058824" xmlns="http://www.w3.org/2000/svg"><path d="M234.084 64.475 L 221.031 77.549 239.876 96.379 L 258.720 115.208 272.002 101.947 L 285.284 88.686 266.657 70.044 C 256.412 59.791,247.829 51.402,247.583 51.402 C 247.338 51.402,241.263 57.285,234.084 64.475 M160.604 97.021 C 160.383 97.610,157.719 105.531,154.684 114.624 C 149.212 131.018,149.181 131.161,151.043 131.852 C 152.076 132.236,162.655 135.778,174.553 139.724 C 186.450 143.670,196.184 147.100,196.184 147.346 C 196.184 147.592,175.463 154.685,150.137 163.109 C 124.810 171.532,103.999 178.495,103.889 178.581 C 103.574 178.827,114.948 212.815,115.583 213.523 C 115.895 213.872,147.844 203.590,186.580 190.676 L 257.010 167.195 327.419 190.669 C 366.143 203.579,397.959 214.010,398.121 213.849 C 398.282 213.687,401.048 205.673,404.267 196.040 L 410.121 178.525 363.978 163.162 C 338.600 154.712,317.836 147.596,317.836 147.348 C 317.836 147.101,327.570 143.670,339.467 139.724 C 351.365 135.778,361.943 132.236,362.974 131.853 C 364.832 131.164,364.799 131.005,359.224 114.196 C 356.131 104.868,353.297 96.903,352.927 96.497 C 352.556 96.090,331.306 102.740,305.703 111.275 C 280.100 119.809,258.184 126.792,257.001 126.792 C 255.818 126.792,234.041 119.852,208.606 111.371 C 183.172 102.890,162.057 95.950,161.684 95.950 C 161.311 95.950,160.825 96.432,160.604 97.021 M242.018 189.848 C 241.075 190.073,237.233 190.849,233.480 191.571 C 202.941 197.449,174.818 217.985,158.626 246.229 C 149.376 262.366,144.866 278.431,144.171 297.719 C 143.259 323.080,149.223 344.231,163.283 365.497 C 175.431 383.873,196.947 400.972,216.741 407.983 C 248.183 419.120,279.684 417.575,307.501 403.533 C 340.694 386.777,364.268 353.841,369.249 317.263 C 370.574 307.536,369.918 288.213,367.960 279.284 C 362.509 254.425,349.777 232.788,331.115 216.671 C 316.823 204.329,299.605 195.667,280.998 191.458 C 274.765 190.048,246.127 188.865,242.018 189.848 M238.163 256.582 L 238.163 283.568 211.177 283.568 C 196.334 283.568,184.191 283.243,184.191 282.845 C 184.191 281.352,187.477 272.648,189.748 268.128 C 195.231 257.214,206.147 245.059,216.298 238.566 C 221.716 235.100,234.139 229.638,236.663 229.611 C 238.060 229.597,238.163 231.446,238.163 256.582 M285.099 232.210 C 294.354 235.916,300.943 240.153,308.265 247.108 C 315.167 253.664,320.571 260.761,324.272 268.128 C 326.543 272.648,329.829 281.352,329.829 282.845 C 329.829 283.243,317.686 283.568,302.843 283.568 L 275.857 283.568 275.857 256.582 C 275.857 232.533,276.005 229.596,277.214 229.596 C 277.960 229.596,281.508 230.772,285.099 232.210 M238.163 348.249 C 238.163 363.091,238.030 375.235,237.868 375.235 C 237.707 375.235,235.459 374.507,232.875 373.618 C 216.341 367.929,202.603 357.012,192.890 341.842 C 189.933 337.224,184.237 324.428,184.206 322.333 C 184.194 321.499,190.150 321.262,211.177 321.262 L 238.163 321.262 238.163 348.249 M329.427 323.618 C 328.457 327.507,323.780 337.680,320.860 342.252 C 311.468 356.961,297.503 367.990,281.145 373.618 C 278.561 374.507,276.313 375.235,276.152 375.235 C 275.990 375.235,275.857 363.091,275.857 348.249 L 275.857 321.262 302.936 321.262 L 330.015 321.262 329.427 323.618 " stroke="none" fill-rule="evenodd" fill="black"></path></svg>