<svg width="136mm" height="120mm" version="1.1" viewBox="0 0 600 529.4117647058824" xmlns="http://www.w3.org/2000/svg"><path d="M234.084 64.475 L 221.031 77.549 239.876 96.379 L 258.720 115.208 272.002 101.947 L 285.284 88.686 266.657 70.044 C 256.412 59.791,247.829 51.402,247.583 51.402 C 247.338 51.402,241.263 57.285,234.084 64.475 M160.604 97.021 C 160.383 97.610,157.719 105.531,154.684 114.624 C 149.212 131.018,149.181 131.161,151.043 131.852 C 152.076 132.236,162.655 135.778,174.553 139.724 C 186.450 143.670,196.184 147.100,196.184 147.346 C 196.184 147.592,175.463 154.685,150.137 163.109 C 124.810 171.532,103.999 178.495,103.889 178.581 C 103.574 178.827,114.948 212.815,115.583 213.523 C 115.895 213.872,147.844 203.590,186.580 190.676 L 257.010 167.195 327.440 190.676 C 366.176 203.590,398.133 213.872,398.454 213.523 C 398.775 213.175,401.026 206.722,403.456 199.183 C 405.886 191.644,408.403 183.859,409.048 181.883 L 410.222 178.291 364.671 163.143 C 339.619 154.811,318.842 147.745,318.501 147.439 C 318.160 147.134,327.605 143.658,339.490 139.716 C 351.375 135.774,361.943 132.236,362.974 131.853 C 364.832 131.164,364.799 131.005,359.224 114.196 C 356.131 104.868,353.297 96.903,352.927 96.497 C 352.556 96.090,331.306 102.740,305.703 111.275 C 280.100 119.809,258.377 126.792,257.429 126.792 C 256.482 126.792,234.897 119.852,209.463 111.371 C 184.029 102.890,162.721 95.950,162.113 95.950 C 161.504 95.950,160.825 96.432,160.604 97.021 M247.158 189.386 C 217.034 191.995,188.076 207.227,169.617 230.173 C 157.465 245.279,150.113 260.587,145.995 279.357 C 143.898 288.913,143.455 309.553,145.127 319.752 C 152.905 367.182,188.733 404.034,236.293 413.523 C 247.527 415.765,268.392 415.524,280.141 413.017 C 332.601 401.823,370.147 355.648,370.074 302.415 C 370.045 281.480,365.364 263.607,355.336 246.146 C 344.263 226.867,329.166 212.212,310.158 202.291 C 299.717 196.841,294.655 194.874,284.412 192.285 C 277.905 190.640,257.466 188.060,255.297 188.610 C 255.061 188.669,251.399 189.019,247.158 189.386 M238.163 256.153 L 238.163 283.568 211.177 283.568 C 187.845 283.568,184.191 283.395,184.191 282.292 C 184.191 280.172,188.607 269.787,192.011 263.904 C 200.460 249.302,215.255 236.955,231.207 231.192 C 234.797 229.896,237.831 228.813,237.948 228.787 C 238.066 228.760,238.163 241.075,238.163 256.153 M293.420 236.047 C 296.247 237.618,299.909 239.902,301.558 241.123 C 306.784 244.992,315.333 253.832,318.896 259.050 C 322.782 264.742,328.498 276.592,329.380 280.783 L 329.966 283.568 302.912 283.568 L 275.857 283.568 275.857 256.172 L 275.857 228.776 282.068 230.983 C 285.485 232.197,290.593 234.476,293.420 236.047 M238.163 348.249 C 238.163 363.091,238.030 375.235,237.868 375.235 C 237.707 375.235,235.490 374.517,232.942 373.640 C 211.565 366.283,194.165 349.508,186.369 328.739 C 185.171 325.548,184.191 322.560,184.191 322.100 C 184.191 321.572,194.177 321.262,211.177 321.262 L 238.163 321.262 238.163 348.249 M329.829 322.100 C 329.829 324.142,325.170 335.052,322.052 340.312 C 312.878 355.784,298.145 367.769,281.082 373.640 C 278.532 374.517,276.313 375.235,276.152 375.235 C 275.990 375.235,275.857 363.091,275.857 348.249 L 275.857 321.262 302.843 321.262 C 319.843 321.262,329.829 321.572,329.829 322.100 " stroke="none" fill-rule="evenodd" fill="black"></path></svg>