<svg width="136mm" height="120mm" version="1.1" viewBox="0 0 600 529.4117647058824" xmlns="http://www.w3.org/2000/svg"><path d="M185.476 94.795 C 138.786 97.516,96.714 124.766,75.528 166.011 C 65.498 185.538,60.856 204.705,60.856 226.597 C 60.856 261.990,74.017 293.971,98.949 319.161 C 112.913 333.271,127.339 342.882,144.500 349.511 C 163.133 356.708,171.720 358.068,202.395 358.682 L 227.025 359.175 227.025 340.219 L 227.025 321.262 209.001 321.262 C 199.088 321.262,187.281 320.850,182.764 320.347 C 144.495 316.079,112.232 288.791,102.065 252.090 L 100.347 245.886 154.048 245.665 L 207.750 245.445 207.981 226.811 L 208.212 208.178 154.223 208.178 C 124.529 208.178,100.234 208.074,100.234 207.947 C 100.234 207.819,101.033 204.832,102.009 201.307 C 109.131 175.597,127.110 153.980,151.208 142.152 C 167.509 134.150,180.342 131.957,210.962 131.941 L 227.025 131.932 227.025 113.084 L 227.025 94.237 208.392 94.391 C 198.144 94.476,187.831 94.658,185.476 94.795 M286.995 112.959 L 286.995 131.932 303.058 131.941 C 333.678 131.957,346.511 134.150,362.812 142.152 C 386.805 153.928,404.893 175.612,411.937 201.041 C 412.873 204.419,413.415 207.407,413.141 207.681 C 412.868 207.954,388.606 208.178,359.226 208.178 L 305.808 208.178 306.039 226.811 L 306.270 245.445 359.972 245.665 L 413.673 245.886 411.955 252.090 C 401.801 288.743,369.476 316.085,331.256 320.347 C 326.739 320.850,314.932 321.262,305.019 321.262 L 286.995 321.262 286.995 340.213 L 286.995 359.164 311.196 358.723 C 336.179 358.269,344.532 357.374,356.816 353.836 C 379.811 347.212,398.059 336.350,415.071 319.161 C 439.974 293.999,453.164 261.950,453.164 226.597 C 453.164 166.937,413.632 115.154,355.959 99.268 C 343.554 95.851,335.780 95.023,311.196 94.500 L 286.995 93.985 286.995 112.959 " stroke="none" fill-rule="evenodd" fill="black"></path></svg>