<svg width="136mm" height="120mm" version="1.1" viewBox="0 0 600 529.4117647058824" xmlns="http://www.w3.org/2000/svg"><path d="M183.334 94.780 C 182.156 94.950,177.722 95.522,173.482 96.051 C 126.309 101.939,83.154 137.864,67.644 184.159 C 62.374 199.889,61.344 206.851,61.364 226.597 C 61.379 241.893,61.662 245.860,63.255 253.080 C 75.219 307.325,116.467 347.178,170.758 356.949 C 175.284 357.763,186.489 358.379,202.395 358.686 L 227.025 359.162 227.025 340.212 L 227.025 321.262 209.001 321.262 C 179.132 321.262,167.506 319.139,150.351 310.550 C 128.701 299.711,112.100 281.039,104.163 258.600 C 102.604 254.192,101.075 249.527,100.766 248.235 L 100.204 245.886 153.977 245.665 L 207.750 245.445 207.750 226.597 L 207.750 207.750 153.977 207.529 L 100.204 207.309 100.766 204.959 C 102.246 198.769,107.369 185.930,110.641 180.211 C 124.264 156.401,146.377 140.273,173.910 134.065 C 178.728 132.979,186.175 132.506,203.680 132.176 L 227.025 131.736 227.025 112.986 L 227.025 94.237 206.251 94.354 C 194.824 94.418,184.512 94.610,183.334 94.780 M286.995 113.084 L 286.995 131.932 305.628 131.934 C 335.040 131.938,346.429 134.035,363.683 142.624 C 387.712 154.586,405.871 176.879,412.416 202.449 L 413.553 206.893 359.912 207.321 L 306.270 207.750 306.270 226.597 L 306.270 245.445 359.912 245.873 L 413.553 246.301 412.416 250.746 C 405.871 276.316,387.712 298.608,363.683 310.570 C 346.451 319.148,334.852 321.262,305.019 321.262 L 286.995 321.262 286.995 340.110 L 286.995 358.957 306.179 358.957 C 316.731 358.957,329.357 358.557,334.236 358.069 C 378.331 353.652,417.770 327.029,438.055 287.986 C 444.044 276.459,447.265 267.729,450.298 254.802 C 452.522 245.323,452.695 243.292,452.695 226.597 C 452.695 209.902,452.522 207.871,450.298 198.392 C 447.481 186.386,444.382 177.656,439.434 167.788 C 418.903 126.847,379.549 99.664,334.236 95.126 C 329.357 94.637,316.731 94.237,306.179 94.237 L 286.995 94.237 286.995 113.084 " stroke="none" fill-rule="evenodd" fill="black"></path></svg>