<svg width="136mm" height="120mm" version="1.1" viewBox="0 0 600 529.4117647058824" xmlns="http://www.w3.org/2000/svg"><path d="M185.476 94.795 C 135.310 97.718,91.090 128.486,71.570 174.051 C 61.736 197.006,58.422 222.173,62.052 246.341 C 69.326 294.770,103.539 335.715,149.923 351.501 C 167.128 357.358,179.186 358.902,207.964 358.935 L 227.025 358.957 227.025 340.215 L 227.025 321.473 203.680 321.014 C 179.415 320.537,173.784 319.843,162.345 315.916 C 139.088 307.933,118.796 290.028,107.722 267.719 C 105.628 263.500,101.807 252.828,100.747 248.235 L 100.204 245.886 153.977 245.665 L 207.750 245.445 207.981 226.811 L 208.212 208.178 154.155 208.178 L 100.098 208.178 100.678 205.394 C 101.629 200.826,105.444 190.062,107.737 185.476 C 117.145 166.660,131.930 151.787,150.337 142.624 C 167.369 134.146,179.784 131.958,210.962 131.941 L 227.025 131.932 227.025 113.084 L 227.025 94.237 208.392 94.391 C 198.144 94.476,187.831 94.658,185.476 94.795 M286.995 112.959 L 286.995 131.932 303.058 131.941 C 332.714 131.957,346.140 134.135,361.455 141.413 C 371.819 146.339,379.507 151.722,387.525 159.669 C 400.085 172.118,410.110 189.873,413.342 205.394 L 413.922 208.178 359.865 208.178 L 305.808 208.178 306.039 226.811 L 306.270 245.445 360.043 245.665 L 413.816 245.886 413.273 248.235 C 406.206 278.843,381.911 305.537,351.675 315.916 C 340.236 319.843,334.605 320.537,310.340 321.014 L 286.995 321.473 286.995 340.215 L 286.995 358.957 306.056 358.935 C 334.834 358.902,346.892 357.358,364.098 351.501 C 405.892 337.276,438.183 302.405,449.399 259.383 C 454.490 239.851,454.490 213.343,449.399 193.811 C 446.310 181.965,440.147 167.450,434.036 157.633 C 416.148 128.895,388.698 108.302,356.245 99.273 C 344.087 95.891,335.929 95.026,311.196 94.500 L 286.995 93.985 286.995 112.959 " stroke="none" fill-rule="evenodd" fill="black"></path></svg>