<svg width="136mm" height="120mm" version="1.1" viewBox="0 0 600 529.4117647058824" xmlns="http://www.w3.org/2000/svg"><path d="M294.705 226.597 L 294.705 415.500 313.552 415.500 L 332.400 415.500 332.400 321.261 L 332.400 227.022 375.329 248.490 C 398.940 260.297,418.365 269.840,418.496 269.695 C 418.818 269.340,435.204 236.527,435.204 236.238 C 435.204 236.112,412.073 224.449,383.802 210.320 L 332.400 184.630 332.400 111.163 L 332.400 37.695 313.552 37.695 L 294.705 37.695 294.705 226.597 M187.062 95.107 C 144.895 99.600,107.805 123.546,86.088 160.297 C 78.136 173.755,71.698 192.422,69.460 208.514 C 68.273 217.049,68.273 236.145,69.460 244.681 C 76.307 293.913,110.756 335.655,157.633 351.523 C 175.167 357.458,188.635 359.134,215.888 358.773 L 234.307 358.529 234.538 339.994 L 234.769 321.459 211.407 321.006 C 182.168 320.440,174.292 318.945,158.155 310.903 C 133.434 298.582,114.604 274.839,108.458 248.235 L 107.915 245.886 161.687 245.665 L 215.460 245.445 215.460 226.597 L 215.460 207.750 161.687 207.529 L 107.915 207.309 108.458 204.959 C 115.621 173.952,139.940 147.276,170.301 137.121 C 182.007 133.205,186.377 132.675,210.979 132.191 L 234.769 131.723 234.538 113.194 L 234.307 94.665 213.747 94.560 C 202.438 94.502,190.430 94.748,187.062 95.107 " stroke="none" fill-rule="evenodd" fill="black"></path></svg>