<svg width="136mm" height="120mm" version="1.1" viewBox="0 0 600 529.4117647058824" xmlns="http://www.w3.org/2000/svg"><path d="M294.705 226.597 L 294.705 415.500 313.552 415.500 L 332.400 415.500 332.400 321.261 L 332.400 227.022 375.231 248.441 C 398.789 260.222,418.255 269.861,418.490 269.861 C 418.986 269.861,435.204 237.650,435.204 236.666 C 435.204 236.305,412.073 224.449,383.802 210.320 L 332.400 184.630 332.400 111.163 L 332.400 37.695 313.552 37.695 L 294.705 37.695 294.705 226.597 M188.902 95.145 C 139.335 99.080,95.051 132.240,77.041 178.909 C 71.116 194.263,68.322 209.543,68.322 226.597 C 68.322 263.662,82.308 296.195,109.422 322.201 C 123.349 335.559,139.507 345.386,157.633 351.522 C 175.097 357.434,189.264 359.174,216.745 358.780 L 234.307 358.529 234.538 339.896 L 234.769 321.262 215.691 321.236 C 188.920 321.199,179.234 319.751,163.820 313.484 C 136.812 302.501,115.077 276.885,108.458 248.235 L 107.915 245.886 161.687 245.665 L 215.460 245.445 215.691 226.811 L 215.922 208.178 161.865 208.178 L 107.808 208.178 108.388 205.394 C 109.611 199.529,113.350 189.509,116.777 182.917 C 129.132 159.152,151.356 141.707,177.821 134.998 C 185.425 133.070,200.424 131.947,218.689 131.939 L 234.769 131.932 234.538 113.299 L 234.307 94.665 215.888 94.565 C 205.758 94.510,193.614 94.771,188.902 95.145 " stroke="none" fill-rule="evenodd" fill="black"></path></svg>