<svg width="136mm" height="120mm" version="1.1" viewBox="0 0 600 529.4117647058824" xmlns="http://www.w3.org/2000/svg"><path d="M294.705 226.597 L 294.705 415.500 313.552 415.500 L 332.400 415.500 332.400 321.261 L 332.400 227.022 375.329 248.490 C 398.940 260.297,418.365 269.840,418.496 269.695 C 418.818 269.340,435.204 236.527,435.204 236.238 C 435.204 236.112,412.073 224.449,383.802 210.320 L 332.400 184.630 332.400 111.163 L 332.400 37.695 313.552 37.695 L 294.705 37.695 294.705 226.597 M193.186 94.787 C 142.899 97.812,98.799 128.490,79.296 174.015 C 67.129 202.414,65.003 233.979,73.317 262.757 C 85.379 304.506,116.833 337.612,157.633 351.501 C 175.047 357.429,189.221 359.174,216.745 358.780 L 234.307 358.529 234.538 339.994 L 234.769 321.459 211.407 321.018 C 183.517 320.492,177.735 319.507,161.488 312.513 C 136.313 301.675,114.765 275.557,108.457 248.235 L 107.915 245.886 161.687 245.665 L 215.460 245.445 215.691 226.811 L 215.922 208.178 161.865 208.178 L 107.808 208.178 108.388 205.394 C 112.760 184.403,128.836 160.898,147.053 148.860 C 167.345 135.451,182.142 131.956,218.689 131.939 L 234.769 131.932 234.538 113.299 L 234.307 94.665 215.888 94.598 C 205.758 94.560,195.542 94.646,193.186 94.787 " stroke="none" fill-rule="evenodd" fill="black"></path></svg>