<svg width="136mm" height="120mm" version="1.1" viewBox="0 0 600 529.4117647058824" xmlns="http://www.w3.org/2000/svg"><path d="M238.163 58.684 L 238.163 79.673 166.200 79.673 L 94.237 79.673 94.237 98.520 L 94.237 117.368 152.704 117.368 L 211.171 117.368 165.122 163.422 L 119.074 209.476 132.360 222.742 L 145.647 236.008 201.328 180.331 L 257.010 124.655 312.692 180.331 L 368.373 236.008 381.660 222.742 L 394.946 209.476 348.898 163.422 L 302.849 117.368 361.316 117.368 L 419.783 117.368 419.783 98.520 L 419.783 79.673 347.820 79.673 L 275.857 79.673 275.857 58.684 L 275.857 37.695 257.010 37.695 L 238.163 37.695 238.163 58.684 M238.163 243.731 L 238.163 264.720 166.200 264.720 L 94.237 264.720 94.237 283.568 L 94.237 302.415 152.704 302.415 L 211.171 302.415 165.122 348.469 L 119.074 394.524 132.360 407.789 L 145.647 421.055 201.328 365.379 L 257.010 309.702 312.692 365.379 L 368.373 421.055 381.660 407.789 L 394.946 394.524 348.898 348.469 L 302.849 302.415 361.316 302.415 L 419.783 302.415 419.783 283.568 L 419.783 264.720 347.820 264.720 L 275.857 264.720 275.857 243.731 L 275.857 222.742 257.010 222.742 L 238.163 222.742 238.163 243.731 " stroke="none" fill-rule="evenodd" fill="black"></path></svg>