<svg width="136mm" height="120mm" version="1.1" viewBox="0 0 600 529.4117647058824" xmlns="http://www.w3.org/2000/svg"><path d="M238.163 58.684 L 238.163 79.673 166.183 79.673 L 94.204 79.673 94.434 98.306 L 94.665 116.940 152.912 117.160 L 211.158 117.380 165.116 163.428 L 119.074 209.476 132.360 222.742 L 145.647 236.008 201.328 180.331 L 257.010 124.655 312.692 180.331 L 368.373 236.008 381.660 222.742 L 394.946 209.476 348.904 163.428 L 302.862 117.380 361.108 117.160 L 419.355 116.940 419.586 98.306 L 419.816 79.673 347.837 79.673 L 275.857 79.673 275.857 58.684 L 275.857 37.695 257.010 37.695 L 238.163 37.695 238.163 58.684 M238.163 243.731 L 238.163 264.720 166.183 264.720 L 94.204 264.720 94.434 283.354 L 94.665 301.987 152.912 302.207 L 211.158 302.427 165.116 348.475 L 119.074 394.524 132.360 407.789 L 145.647 421.055 201.328 365.379 L 257.010 309.702 312.692 365.379 L 368.373 421.055 381.660 407.789 L 394.946 394.524 348.904 348.475 L 302.862 302.427 361.108 302.207 L 419.355 301.987 419.586 283.354 L 419.816 264.720 347.837 264.720 L 275.857 264.720 275.857 243.731 L 275.857 222.742 257.010 222.742 L 238.163 222.742 238.163 243.731 " stroke="none" fill-rule="evenodd" fill="black"></path></svg>