<svg width="136mm" height="120mm" version="1.1" viewBox="0 0 600 529.4117647058824" xmlns="http://www.w3.org/2000/svg"><path d="M238.163 111.367 L 238.163 169.618 156.990 169.836 L 75.818 170.055 75.587 188.688 L 75.356 207.321 156.759 207.321 L 238.163 207.321 238.163 283.139 L 238.163 358.957 156.776 358.957 L 75.390 358.957 75.390 377.805 L 75.390 396.652 257.010 396.652 L 438.630 396.652 438.630 377.805 L 438.630 358.957 357.244 358.957 L 275.857 358.957 275.857 283.139 L 275.857 207.321 357.261 207.321 L 438.664 207.321 438.433 188.688 L 438.202 170.055 357.030 169.836 L 275.857 169.618 275.857 111.367 L 275.857 53.115 257.010 53.115 L 238.163 53.115 238.163 111.367 " stroke="none" fill-rule="evenodd" fill="black"></path></svg>