<svg width="136mm" height="120mm" version="1.1" viewBox="0 0 600 529.4117647058824" xmlns="http://www.w3.org/2000/svg"><path d="M238.163 111.799 L 238.163 170.483 156.759 170.483 L 75.356 170.483 75.587 189.117 L 75.818 207.750 156.990 207.968 L 238.163 208.187 238.163 283.572 L 238.163 358.957 156.776 358.957 L 75.390 358.957 75.390 377.805 L 75.390 396.652 257.010 396.652 L 438.630 396.652 438.630 377.805 L 438.630 358.957 357.244 358.957 L 275.857 358.957 275.857 283.572 L 275.857 208.187 357.030 207.968 L 438.202 207.750 438.433 189.117 L 438.664 170.483 357.261 170.483 L 275.857 170.483 275.857 111.799 L 275.857 53.115 257.010 53.115 L 238.163 53.115 238.163 111.799 " stroke="none" fill-rule="evenodd" fill="black"></path></svg>