<svg width="136mm" height="120mm" version="1.1" viewBox="0 0 600 529.4117647058824" xmlns="http://www.w3.org/2000/svg"><path d="M156.317 84.171 C 155.007 87.627,58.256 378.332,58.256 378.809 C 58.256 379.527,93.159 391.180,93.650 390.626 C 93.845 390.406,114.198 329.605,138.881 255.511 L 183.758 120.795 233.663 120.795 L 283.568 120.795 283.568 219.164 C 283.568 328.237,283.447 325.600,289.188 341.700 C 297.216 364.216,313.763 382.819,335.398 393.650 C 362.530 407.234,391.167 407.546,418.498 394.556 C 443.731 382.564,461.882 360.714,469.272 333.433 C 471.507 325.180,471.527 324.847,471.841 288.922 L 472.158 252.727 453.252 252.727 L 434.347 252.727 434.347 284.716 C 434.347 320.714,433.889 324.358,427.941 335.677 C 417.862 354.857,399.349 366.085,377.805 366.085 C 361.934 366.085,349.916 361.056,338.303 349.556 C 332.351 343.662,330.239 340.845,327.364 334.970 C 320.966 321.891,321.294 329.196,321.277 199.397 L 321.262 83.100 238.992 83.100 C 173.964 83.100,156.637 83.324,156.317 84.171 " stroke="none" fill-rule="evenodd" fill="black"></path></svg>