<svg width="136mm" height="120mm" version="1.1" viewBox="0 0 600 529.4117647058824" xmlns="http://www.w3.org/2000/svg"><path d="M156.317 84.171 C 155.007 87.627,58.256 378.332,58.256 378.809 C 58.256 379.527,93.159 391.180,93.650 390.626 C 93.845 390.406,114.198 329.605,138.881 255.511 L 183.758 120.795 233.643 120.795 L 283.527 120.795 283.763 222.528 L 284.000 324.261 286.266 332.463 C 289.483 344.105,293.184 352.509,298.947 361.255 C 318.182 390.453,352.969 407.188,386.846 403.540 C 424.016 399.538,454.930 375.226,466.947 340.546 C 471.601 327.114,472.042 322.399,472.042 286.043 L 472.042 252.727 453.255 252.727 L 434.468 252.727 434.175 287.209 C 433.891 320.663,433.823 321.857,431.904 327.259 C 426.660 342.027,415.940 354.083,402.221 360.644 C 393.192 364.962,387.729 366.173,377.376 366.151 C 361.693 366.119,350.084 361.183,338.303 349.540 C 332.341 343.649,330.243 340.855,327.364 334.970 C 320.966 321.891,321.294 329.196,321.277 199.397 L 321.262 83.100 238.992 83.100 C 173.964 83.100,156.637 83.324,156.317 84.171 " stroke="none" fill-rule="evenodd" fill="black"></path></svg>