<svg width="136mm" height="120mm" version="1.1" viewBox="0 0 600 529.4117647058824" xmlns="http://www.w3.org/2000/svg"><path d="M241.314 59.326 C 240.264 101.179,235.601 140.226,226.936 179.725 C 223.236 196.588,214.659 227.741,213.357 229.043 C 211.768 230.632,197.325 220.278,188.270 211.058 C 179.682 202.314,175.245 196.035,169.584 184.619 C 160.397 166.091,158.489 154.217,158.489 115.564 L 158.489 90.810 139.642 90.810 L 120.795 90.810 120.795 116.725 C 120.796 130.979,121.194 146.881,121.681 152.064 C 125.674 194.575,148.132 232.405,183.357 255.957 C 186.903 258.328,192.031 261.359,194.751 262.694 C 199.199 264.875,199.643 265.333,199.164 267.243 C 198.521 269.803,186.546 294.509,184.915 296.639 C 183.840 298.044,180.848 297.173,140.331 283.658 L 96.899 269.171 90.937 287.034 L 84.976 304.897 123.875 317.863 L 162.774 330.829 158.777 335.917 C 152.311 344.147,135.508 359.896,127.648 365.093 C 113.124 374.697,99.456 379.947,86.313 380.969 L 79.673 381.485 79.673 400.206 L 79.673 418.926 84.599 418.923 C 94.829 418.916,109.619 415.673,122.715 410.565 C 145.485 401.684,172.018 380.555,190.616 356.493 C 194.385 351.616,198.240 346.698,199.183 345.564 L 200.896 343.502 312.641 380.769 C 374.101 401.266,424.518 417.904,424.679 417.743 C 424.840 417.582,427.605 409.571,430.823 399.940 L 436.675 382.431 329.066 346.590 C 269.881 326.878,221.297 310.610,221.102 310.439 C 220.906 310.268,223.647 304.056,227.193 296.634 C 230.739 289.212,234.136 281.862,234.743 280.300 L 235.846 277.462 241.502 278.159 C 244.613 278.542,254.290 278.817,263.007 278.769 C 275.817 278.700,280.581 278.321,287.851 276.793 C 337.627 266.337,377.375 231.404,393.159 184.245 C 399.203 166.185,400.902 150.663,400.923 113.299 L 400.936 90.810 381.660 90.810 L 362.384 90.810 362.384 120.874 C 362.384 147.642,362.195 151.867,360.657 159.412 C 356.373 180.437,347.814 196.322,332.478 211.712 C 312.862 231.396,288.148 241.589,260.039 241.589 C 254.761 241.589,250.231 241.379,249.974 241.122 C 249.717 240.864,250.585 237.298,251.904 233.197 C 267.855 183.589,279.284 107.980,279.284 52.059 L 279.284 37.695 260.571 37.695 L 241.857 37.695 241.314 59.326 " stroke="none" fill-rule="evenodd" fill="black"></path></svg>