<svg width="136mm" height="120mm" version="1.1" viewBox="0 0 600 529.4117647058824" xmlns="http://www.w3.org/2000/svg"><path d="M241.302 58.470 C 240.011 106.374,234.069 151.643,223.509 194.043 C 219.345 210.760,214.316 228.043,213.319 229.064 C 211.846 230.571,197.864 220.717,188.980 211.911 C 176.885 199.924,166.362 181.710,162.322 165.771 C 159.423 154.336,158.519 142.123,158.503 114.155 L 158.489 90.810 139.550 90.810 L 120.611 90.810 121.061 123.151 C 121.517 155.933,121.957 161.080,125.467 174.767 C 134.427 209.702,157.355 240.214,189.331 259.757 C 192.865 261.917,196.623 263.943,197.684 264.260 C 198.744 264.577,199.611 265.223,199.611 265.697 C 199.611 267.413,184.724 298.132,183.892 298.132 C 183.810 298.132,164.161 291.602,140.228 283.620 C 110.819 273.813,96.589 269.439,96.331 270.127 C 95.752 271.671,84.813 304.483,84.813 304.675 C 84.813 304.767,102.360 310.691,123.805 317.840 L 162.797 330.837 160.012 334.403 C 158.481 336.364,153.367 341.963,148.649 346.845 C 128.934 367.247,106.888 379.310,86.313 380.955 L 79.673 381.485 79.673 400.206 L 79.673 418.926 84.599 418.923 C 102.902 418.910,130.362 409.386,148.011 396.929 C 164.256 385.463,179.089 371.382,190.616 356.484 C 194.385 351.612,198.240 346.698,199.183 345.564 L 200.896 343.502 312.662 380.776 C 374.134 401.277,424.684 417.765,424.996 417.417 C 425.629 416.710,437.004 382.720,436.689 382.477 C 436.579 382.392,388.107 366.218,328.973 346.535 C 269.839 326.852,221.296 310.607,221.100 310.436 C 220.903 310.265,223.854 303.668,227.656 295.775 C 231.458 287.883,234.837 280.521,235.165 279.414 C 235.691 277.639,236.128 277.465,238.889 277.928 C 240.610 278.217,248.572 278.684,256.582 278.966 C 267.988 279.369,273.096 279.171,280.141 278.053 C 312.006 272.997,337.338 260.368,359.228 238.626 C 380.403 217.593,393.487 192.151,398.896 161.488 C 399.902 155.790,400.373 145.561,400.701 122.294 L 401.146 90.810 381.765 90.810 L 362.384 90.810 362.384 120.700 C 362.384 152.912,361.927 157.698,357.509 171.705 C 348.661 199.763,324.777 224.699,296.847 235.039 C 285.375 239.286,277.050 240.843,263.106 241.348 L 249.927 241.826 250.368 239.352 C 250.610 237.991,252.953 229.471,255.573 220.418 C 268.561 175.545,277.450 118.243,278.867 70.249 C 279.111 62.004,279.493 51.306,279.717 46.476 L 280.125 37.695 260.994 37.695 L 241.863 37.695 241.302 58.470 " stroke="none" fill-rule="evenodd" fill="black"></path></svg>