<svg width="136mm" height="120mm" version="1.1" viewBox="0 0 600 529.4117647058824" xmlns="http://www.w3.org/2000/svg"><path d="M241.589 49.046 C 241.587 89.661,235.553 141.439,225.690 185.476 C 222.801 198.374,214.421 227.979,213.357 229.043 C 212.867 229.532,210.814 228.735,208.014 226.968 C 182.842 211.083,165.505 185.873,160.665 158.117 C 159.648 152.283,159.346 143.728,159.346 120.682 L 159.346 90.810 139.966 90.810 L 120.586 90.810 121.040 122.722 C 121.583 160.904,122.614 168.354,130.246 189.268 C 140.766 218.092,163.395 244.732,190.620 260.343 C 194.819 262.751,198.601 264.720,199.025 264.720 C 199.450 264.720,199.533 265.780,199.210 267.076 C 198.531 269.800,185.153 297.108,184.212 297.690 C 183.867 297.903,164.080 291.574,140.241 283.625 L 96.899 269.171 90.937 287.034 L 84.976 304.897 123.881 317.865 L 162.785 330.833 160.862 333.544 C 156.968 339.031,138.999 356.752,131.932 362.074 C 117.801 372.716,100.548 379.862,86.313 380.969 L 79.673 381.485 79.673 400.323 L 79.673 419.160 87.598 418.707 C 125.771 416.524,165.001 391.586,195.819 349.914 C 198.413 346.406,200.618 343.537,200.719 343.537 C 200.821 343.537,251.187 360.299,312.645 380.786 C 374.102 401.273,424.518 417.904,424.679 417.743 C 424.840 417.582,427.605 409.571,430.823 399.940 L 436.675 382.431 329.066 346.590 C 269.881 326.878,221.299 310.612,221.106 310.444 C 220.913 310.276,223.259 305.027,226.318 298.780 C 229.378 292.534,232.800 285.174,233.924 282.425 C 235.959 277.448,235.980 277.429,238.993 277.940 C 240.656 278.222,248.572 278.684,256.582 278.966 C 272.017 279.511,281.724 278.519,295.562 274.984 C 335.540 264.771,370.750 235.394,387.469 198.302 C 398.181 174.538,400.049 163.733,400.685 121.866 L 401.158 90.810 381.771 90.810 L 362.384 90.810 362.384 120.254 C 362.384 152.758,361.784 158.766,357.154 172.621 C 347.875 200.390,324.914 224.351,297.703 234.662 C 285.596 239.251,277.426 240.829,263.106 241.348 L 249.927 241.826 250.368 239.352 C 250.610 237.991,252.953 229.471,255.573 220.418 C 268.781 174.784,277.629 117.136,278.884 68.536 C 279.121 59.348,279.482 48.650,279.686 44.763 L 280.057 37.695 260.823 37.695 L 241.589 37.695 241.589 49.046 " stroke="none" fill-rule="evenodd" fill="black"></path></svg>