<svg width="136mm" height="120mm" version="1.1" viewBox="0 0 600 529.4117647058824" xmlns="http://www.w3.org/2000/svg"><path d="M239.394 35.604 C 188.522 44.155,151.479 87.993,151.479 139.642 C 151.479 198.379,198.273 245.174,257.010 245.174 C 315.747 245.174,362.541 198.379,362.541 139.642 C 362.541 80.713,315.194 33.857,256.153 34.359 C 250.735 34.405,243.193 34.965,239.394 35.604 M274.572 73.933 C 299.933 81.070,319.896 102.913,323.869 127.872 C 325.338 137.099,324.520 152.100,322.129 159.775 C 315.220 181.951,296.367 199.808,273.716 205.628 C 264.268 208.056,249.752 208.056,240.304 205.628 C 217.470 199.761,198.762 181.927,191.753 159.346 C 190.037 153.818,189.760 151.127,189.767 140.070 C 189.772 130.429,190.154 125.836,191.296 121.679 C 197.967 97.389,219.908 77.294,244.652 72.813 C 250.467 71.760,269.364 72.468,274.572 73.933 M169.627 268.575 L 169.627 291.278 118.636 291.278 L 67.646 291.278 67.877 309.911 L 68.108 328.544 118.867 328.765 L 169.627 328.986 169.627 368.388 L 169.627 407.789 188.902 407.789 L 208.178 407.789 208.178 368.381 L 208.178 328.973 257.010 328.973 L 305.842 328.973 305.842 368.381 L 305.842 407.789 325.118 407.789 L 344.393 407.789 344.393 368.388 L 344.393 328.986 395.153 328.765 L 445.912 328.544 446.143 309.911 L 446.374 291.278 395.384 291.278 L 344.393 291.278 344.393 268.575 L 344.393 245.873 325.118 245.873 L 305.842 245.873 305.842 268.575 L 305.842 291.278 257.010 291.278 L 208.178 291.278 208.178 268.575 L 208.178 245.873 188.902 245.873 L 169.627 245.873 169.627 268.575 " stroke="none" fill-rule="evenodd" fill="black"></path></svg>