<svg width="136mm" height="120mm" version="1.1" viewBox="0 0 600 529.4117647058824" xmlns="http://www.w3.org/2000/svg"><path d="M238.163 88.668 L 238.163 139.642 183.334 139.642 L 128.505 139.642 128.505 158.489 L 128.505 177.337 169.838 177.337 L 211.170 177.337 168.770 219.743 L 126.370 262.150 139.860 275.640 L 153.350 289.130 205.180 237.306 L 257.010 185.481 308.840 237.306 L 360.670 289.130 374.160 275.640 L 387.650 262.150 345.250 219.743 L 302.850 177.337 342.469 177.337 L 382.088 177.337 382.088 158.489 L 382.088 139.642 328.973 139.642 L 275.857 139.642 275.857 88.668 L 275.857 37.695 257.010 37.695 L 238.163 37.695 238.163 88.668 M154.838 64.049 C 147.894 71.004,142.212 77.079,142.212 77.547 C 142.212 78.015,153.971 90.152,168.342 104.518 L 194.473 130.638 207.961 117.150 L 221.448 103.663 195.329 77.532 C 180.963 63.161,168.816 51.402,168.336 51.402 C 167.856 51.402,161.782 57.093,154.838 64.049 M318.691 77.532 L 292.572 103.663 306.059 117.150 L 319.547 130.638 345.678 104.518 C 360.049 90.152,371.808 78.006,371.808 77.526 C 371.808 76.400,346.789 51.402,345.663 51.402 C 345.194 51.402,333.057 63.161,318.691 77.532 M238.165 245.442 L 224.901 258.726 243.735 277.574 L 262.568 296.422 275.849 283.141 L 289.130 269.860 270.280 251.009 L 251.429 232.158 238.165 245.442 M162.552 298.559 L 154.212 315.264 184.194 330.259 C 200.683 338.507,214.175 345.446,214.175 345.679 C 214.175 345.913,192.199 357.093,165.340 370.524 L 116.506 394.944 124.743 411.433 C 129.274 420.502,133.088 428.040,133.219 428.184 C 133.349 428.329,161.256 414.546,195.233 397.556 L 257.010 366.665 318.787 397.556 C 352.764 414.546,380.671 428.329,380.801 428.184 C 380.932 428.040,384.746 420.502,389.277 411.433 L 397.514 394.944 348.680 370.524 C 321.821 357.093,299.845 345.913,299.845 345.679 C 299.845 345.446,313.339 338.506,329.832 330.257 L 359.819 315.258 351.582 298.771 C 347.051 289.702,343.237 282.164,343.106 282.020 C 342.975 281.875,323.937 291.224,300.799 302.795 C 277.661 314.366,257.956 323.833,257.010 323.833 C 256.064 323.833,236.403 314.387,213.318 302.843 C 190.234 291.299,171.244 281.854,171.119 281.854 C 170.994 281.854,167.139 289.371,162.552 298.559 " stroke="none" fill-rule="evenodd" fill="black"></path></svg>