<svg width="136mm" height="120mm" version="1.1" viewBox="0 0 600 529.4117647058824" xmlns="http://www.w3.org/2000/svg"><path d="M238.163 79.245 L 238.163 101.947 175.624 101.947 L 113.084 101.947 113.084 120.795 L 113.084 139.642 174.750 139.642 L 236.416 139.642 236.007 143.283 C 233.445 166.037,232.522 172.931,230.357 185.467 C 228.973 193.482,226.141 207.012,224.064 215.535 C 220.374 230.669,213.791 252.457,212.485 253.856 C 212.125 254.242,197.129 247.204,179.160 238.217 L 146.489 221.878 153.346 208.184 C 157.117 200.653,160.203 194.193,160.203 193.828 C 160.203 193.464,152.687 189.413,143.500 184.827 L 126.797 176.489 119.844 190.406 C 116.020 198.060,112.787 204.438,112.660 204.580 C 112.532 204.721,109.505 203.390,105.933 201.622 C 102.360 199.855,99.274 198.583,99.075 198.796 C 98.876 199.009,95.004 206.606,90.472 215.678 L 82.231 232.174 88.662 235.356 C 92.200 237.106,95.094 238.844,95.094 239.217 C 95.094 239.591,92.009 246.057,88.238 253.588 L 81.382 267.280 97.653 275.424 C 106.602 279.903,114.311 283.568,114.784 283.568 C 115.257 283.568,118.733 277.399,122.508 269.861 C 126.283 262.322,129.564 256.153,129.799 256.153 C 131.046 256.153,197.041 289.686,197.041 290.319 C 197.041 291.663,189.290 305.220,183.758 313.552 C 164.484 342.580,141.663 359.708,118.916 362.216 L 113.513 362.812 113.282 381.446 L 113.051 400.079 117.667 400.079 C 128.899 400.079,142.771 396.403,156.348 389.829 C 168.562 383.914,178.806 376.350,190.616 364.525 C 204.948 350.174,216.505 334.367,227.396 314.225 L 231.432 306.758 307.661 344.875 C 349.587 365.839,384.160 382.820,384.488 382.612 C 385.425 382.017,401.340 349.650,400.900 349.235 C 400.684 349.031,366.004 331.625,323.833 310.554 C 281.662 289.483,247.053 272.148,246.926 272.033 C 246.798 271.918,248.773 265.503,251.316 257.777 C 261.715 226.175,268.852 191.718,272.859 153.778 C 273.556 147.181,274.130 141.302,274.135 140.713 C 274.142 139.866,287.399 139.642,337.540 139.642 L 400.936 139.642 400.936 120.795 L 400.936 101.947 338.397 101.947 L 275.857 101.947 275.857 79.245 L 275.857 56.542 257.010 56.542 L 238.163 56.542 238.163 79.245 " stroke="none" fill-rule="evenodd" fill="black"></path></svg>