<svg width="136mm" height="120mm" version="1.1" viewBox="0 0 600 529.4117647058824" xmlns="http://www.w3.org/2000/svg"><path d="M238.163 79.245 L 238.163 101.947 175.624 101.947 L 113.084 101.947 113.084 120.795 L 113.084 139.642 174.575 139.642 L 236.066 139.642 235.793 143.283 C 234.235 164.037,228.384 198.806,222.726 220.929 C 219.166 234.849,213.630 252.677,212.501 253.856 C 212.132 254.242,197.129 247.204,179.160 238.217 L 146.489 221.878 153.346 208.184 C 157.117 200.653,160.203 194.193,160.203 193.828 C 160.203 193.464,152.687 189.413,143.500 184.827 L 126.797 176.489 119.844 190.406 C 116.020 198.060,112.787 204.438,112.660 204.580 C 112.532 204.721,109.505 203.390,105.933 201.622 C 102.360 199.855,99.274 198.583,99.075 198.796 C 98.876 199.009,95.004 206.606,90.472 215.678 L 82.231 232.174 88.662 235.356 C 92.200 237.106,95.094 238.844,95.094 239.217 C 95.094 239.591,92.009 246.057,88.238 253.588 L 81.382 267.280 97.653 275.424 C 106.602 279.903,114.311 283.568,114.784 283.568 C 115.257 283.568,118.733 277.399,122.508 269.861 C 126.283 262.322,129.564 256.153,129.799 256.153 C 130.669 256.153,197.041 289.585,197.041 290.024 C 197.041 292.499,185.481 311.696,177.672 322.189 C 159.979 345.963,139.444 359.952,118.916 362.216 L 113.513 362.812 113.282 381.446 L 113.051 400.079 117.667 400.079 C 129.334 400.079,145.996 395.391,159.521 388.304 C 184.301 375.318,209.740 347.507,227.673 313.797 L 231.421 306.752 307.655 344.872 C 349.585 365.837,384.160 382.820,384.488 382.612 C 385.425 382.017,401.340 349.650,400.900 349.235 C 400.684 349.031,366.004 331.625,323.833 310.554 C 281.662 289.483,247.053 272.148,246.925 272.033 C 246.797 271.917,248.778 265.502,251.327 257.777 C 259.054 234.363,265.276 208.070,269.348 181.620 C 271.249 169.277,274.144 144.727,274.144 140.952 C 274.144 139.789,281.235 139.642,337.540 139.642 L 400.936 139.642 400.936 120.795 L 400.936 101.947 338.397 101.947 L 275.857 101.947 275.857 79.245 L 275.857 56.542 257.010 56.542 L 238.163 56.542 238.163 79.245 " stroke="none" fill-rule="evenodd" fill="black"></path></svg>