<svg width="136mm" height="120mm" version="1.1" viewBox="0 0 600 529.4117647058824" xmlns="http://www.w3.org/2000/svg"><path d="M238.163 79.245 L 238.163 101.947 175.624 101.947 L 113.084 101.947 113.084 120.795 L 113.084 139.642 174.338 139.642 L 235.593 139.642 235.591 143.711 C 235.586 155.354,228.622 197.620,223.063 219.744 C 219.890 232.369,213.597 252.666,212.485 253.856 C 212.125 254.242,197.129 247.204,179.160 238.217 L 146.489 221.878 153.346 208.184 C 157.117 200.653,160.203 194.173,160.203 193.785 C 160.203 193.034,128.688 177.324,127.199 177.332 C 126.716 177.335,123.256 183.505,119.510 191.044 C 115.764 198.583,112.599 204.751,112.477 204.751 C 112.356 204.751,109.372 203.324,105.847 201.580 C 102.322 199.836,99.274 198.583,99.075 198.796 C 98.876 199.009,95.004 206.606,90.472 215.678 L 82.231 232.174 88.662 235.356 C 92.200 237.106,95.094 238.844,95.094 239.217 C 95.094 239.591,92.009 246.057,88.238 253.588 L 81.382 267.280 97.653 275.424 C 106.602 279.903,114.311 283.568,114.784 283.568 C 115.257 283.568,118.733 277.399,122.508 269.861 C 126.283 262.322,129.564 256.153,129.799 256.153 C 130.669 256.153,197.041 289.585,197.041 290.024 C 197.041 290.982,192.323 299.739,187.829 307.122 C 174.031 329.792,156.542 347.548,139.758 355.928 C 132.623 359.490,122.334 362.384,116.803 362.384 L 113.084 362.384 113.084 381.361 L 113.084 400.337 121.009 399.808 C 145.424 398.179,168.881 386.214,191.028 364.094 C 204.998 350.141,216.378 334.565,227.154 314.651 L 231.426 306.755 307.658 344.873 C 349.586 365.838,384.160 382.820,384.488 382.612 C 385.425 382.017,401.340 349.650,400.900 349.235 C 400.684 349.031,366.004 331.625,323.833 310.554 C 281.662 289.483,247.053 272.148,246.925 272.033 C 246.797 271.917,248.778 265.502,251.327 257.777 C 259.054 234.363,265.276 208.070,269.348 181.620 C 271.249 169.277,274.144 144.727,274.144 140.952 C 274.144 139.789,281.235 139.642,337.540 139.642 L 400.936 139.642 400.936 120.795 L 400.936 101.947 338.397 101.947 L 275.857 101.947 275.857 79.245 L 275.857 56.542 257.010 56.542 L 238.163 56.542 238.163 79.245 " stroke="none" fill-rule="evenodd" fill="black"></path></svg>