<svg width="136mm" height="120mm" version="1.1" viewBox="0 0 600 529.4117647058824" xmlns="http://www.w3.org/2000/svg"><path d="M128.291 41.600 C 119.456 46.054,112.228 50.083,112.228 50.554 C 112.228 51.025,119.938 66.827,129.362 85.670 C 138.785 104.513,146.496 120.124,146.496 120.362 C 146.496 120.600,125.485 120.795,99.806 120.795 L 53.115 120.795 53.115 139.642 L 53.115 158.489 122.508 158.489 C 160.674 158.489,191.901 158.683,191.901 158.919 C 191.901 159.155,165.493 212.163,133.217 276.714 C 100.941 341.265,74.533 394.464,74.533 394.933 C 74.533 395.642,106.144 412.073,107.507 412.073 C 107.747 412.073,136.488 354.985,171.375 285.210 L 234.808 158.348 276.108 158.719 C 321.815 159.129,323.584 159.311,340.538 165.359 C 368.010 175.158,391.119 195.867,403.918 222.158 C 412.431 239.642,415.926 256.078,415.248 275.429 C 414.449 298.256,408.690 316.307,396.244 335.002 C 379.760 359.763,352.862 377.485,322.613 383.514 C 316.856 384.661,306.952 384.956,263.649 385.268 L 211.605 385.643 211.605 404.426 L 211.605 423.210 259.003 423.210 C 307.634 423.210,318.526 422.695,333.166 419.702 C 396.157 406.828,444.252 354.296,452.292 289.587 C 457.211 249.996,444.890 207.862,419.149 176.255 C 399.852 152.560,370.122 133.419,340.967 125.918 C 325.155 121.850,321.332 121.507,286.820 121.059 L 253.662 120.628 271.185 85.591 C 280.823 66.320,288.708 50.361,288.708 50.125 C 288.708 49.629,256.498 33.411,255.513 33.411 C 255.151 33.411,245.030 53.073,233.022 77.103 L 211.190 120.795 185.482 120.750 L 159.775 120.705 171.553 114.747 L 183.332 108.790 164.484 71.101 C 154.117 50.371,145.347 33.432,144.995 33.457 C 144.642 33.482,137.126 37.146,128.291 41.600 " stroke="none" fill-rule="evenodd" fill="black"></path></svg>