<svg width="136mm" height="120mm" version="1.1" viewBox="0 0 600 529.4117647058824" xmlns="http://www.w3.org/2000/svg"><path d="M128.291 41.600 C 119.456 46.054,112.228 50.083,112.228 50.554 C 112.228 51.025,119.938 66.827,129.362 85.670 C 138.785 104.513,146.496 120.124,146.496 120.362 C 146.496 120.600,125.485 120.795,99.806 120.795 L 53.115 120.795 53.115 139.642 L 53.115 158.489 122.508 158.489 C 160.674 158.489,191.901 158.683,191.901 158.919 C 191.901 159.155,165.493 212.163,133.217 276.714 C 100.941 341.265,74.533 394.464,74.533 394.933 C 74.533 395.642,106.144 412.073,107.507 412.073 C 107.747 412.073,136.490 354.979,171.382 285.198 L 234.820 158.323 275.257 158.742 C 317.924 159.183,321.705 159.493,335.424 163.676 C 372.759 175.060,402.613 206.384,411.999 244.022 C 421.818 283.400,410.485 323.971,381.707 352.458 C 363.012 370.963,338.996 382.085,312.256 384.621 C 307.079 385.112,282.315 385.514,257.224 385.514 L 211.605 385.515 211.605 404.435 L 211.605 423.354 264.934 422.976 C 308.908 422.664,319.585 422.357,325.794 421.226 C 359.658 415.058,385.978 401.492,409.096 378.287 C 437.840 349.435,453.129 312.609,453.179 272.104 C 453.243 219.756,426.387 171.385,381.928 143.768 C 367.194 134.616,349.600 127.552,333.226 124.215 C 320.690 121.661,307.381 120.823,279.068 120.808 L 253.579 120.795 271.144 85.674 C 280.804 66.358,288.708 50.361,288.708 50.125 C 288.708 49.629,256.498 33.411,255.513 33.411 C 255.151 33.411,245.030 53.073,233.022 77.103 L 211.190 120.795 185.482 120.750 L 159.775 120.705 171.553 114.747 L 183.332 108.790 164.484 71.101 C 154.117 50.371,145.347 33.432,144.995 33.457 C 144.642 33.482,137.126 37.146,128.291 41.600 " stroke="none" fill-rule="evenodd" fill="black"></path></svg>