<svg width="136mm" height="120mm" version="1.1" viewBox="0 0 600 529.4117647058824" xmlns="http://www.w3.org/2000/svg"><path d="M127.942 41.763 L 111.531 50.017 129.013 84.973 C 138.629 104.199,146.496 120.124,146.496 120.362 C 146.496 120.600,125.485 120.795,99.806 120.795 L 53.115 120.795 53.115 139.642 L 53.115 158.489 122.508 158.489 C 160.674 158.489,191.901 158.683,191.901 158.919 C 191.901 159.155,165.301 212.548,132.790 277.568 L 73.679 395.788 89.946 403.930 C 98.893 408.409,106.603 412.073,107.078 412.073 C 107.554 412.073,136.491 354.977,171.384 285.193 L 234.825 158.314 275.688 158.725 C 313.098 159.101,317.238 159.287,324.689 160.930 C 353.430 167.268,375.789 181.427,392.875 204.109 C 426.663 248.963,422.230 311.868,382.467 351.784 C 363.718 370.605,339.046 382.152,312.267 384.639 C 307.084 385.120,282.315 385.514,257.224 385.514 L 211.605 385.515 211.605 404.435 L 211.605 423.354 264.934 422.976 C 321.321 422.576,322.872 422.476,339.720 418.171 C 393.230 404.496,435.374 362.264,448.827 308.835 C 454.820 285.032,454.803 257.657,448.781 234.736 C 441.354 206.472,427.759 183.305,406.800 163.201 C 395.005 151.887,384.274 144.351,369.666 137.122 C 342.607 123.731,326.515 120.834,279.068 120.808 L 253.579 120.795 271.144 85.674 C 280.804 66.358,288.708 50.361,288.708 50.125 C 288.708 49.629,256.498 33.411,255.513 33.411 C 255.151 33.411,245.030 53.073,233.022 77.103 L 211.190 120.795 185.482 120.750 L 159.775 120.705 171.553 114.747 L 183.332 108.790 164.484 71.101 C 154.117 50.371,145.347 33.433,144.995 33.460 C 144.642 33.487,136.969 37.223,127.942 41.763 " stroke="none" fill-rule="evenodd" fill="black"></path></svg>