<svg width="136mm" height="120mm" version="1.1" viewBox="0 0 600 529.4117647058824" xmlns="http://www.w3.org/2000/svg"><path d="M227.029 174.981 C 227.033 326.903,226.795 319.948,232.582 337.249 C 246.453 378.717,281.327 407.998,324.261 414.225 C 350.044 417.965,378.481 412.038,399.592 398.522 C 422.801 383.665,439.329 362.498,447.716 336.895 C 452.614 321.944,453.187 316.068,453.191 280.783 L 453.194 249.300 434.347 249.300 L 415.500 249.300 415.500 278.744 C 415.500 312.244,414.813 318.517,409.828 330.574 C 400.568 352.970,382.388 368.810,358.382 375.397 C 348.849 378.014,331.371 378.014,321.838 375.397 C 293.039 367.494,272.172 345.693,266.335 317.409 C 264.881 310.369,264.742 304.941,264.732 255.082 L 264.720 200.466 338.743 163.458 L 412.766 126.449 404.277 109.487 L 395.788 92.525 330.685 125.079 C 294.878 142.984,265.388 157.633,265.151 157.633 C 264.914 157.633,264.720 130.647,264.720 97.664 L 264.720 37.695 245.873 37.695 L 227.025 37.695 227.029 174.981 M122.716 130.439 L 73.669 179.492 86.955 192.757 L 100.241 206.023 149.494 156.776 L 198.747 107.529 185.696 94.458 C 178.519 87.268,172.447 81.386,172.204 81.386 C 171.961 81.386,149.692 103.460,122.716 130.439 M122.715 224.676 L 73.669 273.729 86.956 286.995 L 100.243 300.262 149.283 251.223 L 198.322 202.184 185.042 188.904 L 171.762 175.624 122.715 224.676 M310.127 226.596 L 296.861 239.883 334.545 277.574 L 372.229 315.266 385.509 301.986 L 398.789 288.706 361.091 251.007 L 323.393 213.309 310.127 226.596 M122.712 318.916 L 73.669 367.965 87.172 381.449 L 100.675 394.932 149.718 345.883 L 198.762 296.834 185.259 283.351 L 171.756 269.867 122.712 318.916 " stroke="none" fill-rule="evenodd" fill="black"></path></svg>