<svg width="136mm" height="120mm" version="1.1" viewBox="0 0 600 529.4117647058824" xmlns="http://www.w3.org/2000/svg"><path d="M227.253 178.408 C 227.499 310.551,227.609 319.512,229.061 325.546 C 238.710 365.662,266.064 396.422,303.413 409.156 C 343.633 422.868,387.050 413.468,417.759 384.399 C 439.168 364.134,450.842 339.320,453.194 309.081 C 453.644 303.295,454.021 287.476,454.032 273.930 L 454.051 249.300 434.838 249.300 L 415.624 249.300 415.303 282.497 L 414.982 315.694 412.660 323.239 C 404.080 351.121,382.846 370.268,353.829 376.288 C 320.295 383.245,284.437 363.921,270.618 331.446 C 264.917 318.049,264.744 315.805,264.732 255.082 L 264.720 200.466 338.738 163.461 L 412.756 126.455 404.500 109.918 C 399.959 100.822,395.999 93.380,395.699 93.380 C 395.398 93.380,365.953 107.837,330.264 125.507 C 294.574 143.176,265.227 157.633,265.047 157.633 C 264.867 157.633,264.720 130.647,264.720 97.664 L 264.720 37.695 245.856 37.695 L 226.991 37.695 227.253 178.408 M122.715 130.439 L 73.669 179.492 86.956 192.758 L 100.243 206.025 149.283 156.986 L 198.322 107.947 185.042 94.667 L 171.762 81.387 122.715 130.439 M122.715 224.676 L 73.669 273.729 86.956 286.995 L 100.243 300.262 149.283 251.223 L 198.322 202.184 185.042 188.904 L 171.762 175.624 122.715 224.676 M310.127 226.596 L 296.861 239.883 334.545 277.574 L 372.229 315.266 385.509 301.986 L 398.789 288.706 361.091 251.007 L 323.393 213.309 310.127 226.596 M122.715 318.913 L 73.669 367.966 86.956 381.232 L 100.243 394.499 149.283 345.460 L 198.322 296.421 185.042 283.141 L 171.762 269.861 122.715 318.913 " stroke="none" fill-rule="evenodd" fill="black"></path></svg>