<svg width="136mm" height="120mm" version="1.1" viewBox="0 0 600 529.4117647058824" xmlns="http://www.w3.org/2000/svg"><path d="M241.589 57.492 C 187.876 63.574,141.669 100.852,124.690 151.802 C 119.225 168.203,117.931 176.540,117.866 195.756 C 117.802 214.887,119.276 224.967,124.358 240.157 C 138.149 281.377,171.013 314.617,211.605 328.402 C 228.628 334.182,236.279 335.354,257.010 335.354 C 272.925 335.354,276.626 335.092,284.230 333.428 C 298.331 330.343,306.332 327.545,319.121 321.228 C 376.815 292.729,407.536 227.788,393.064 164.915 C 386.577 136.728,370.363 109.746,348.656 91.010 C 319.016 65.429,279.832 53.162,241.589 57.492 M238.163 136.644 L 238.163 177.337 197.453 177.337 L 156.743 177.337 157.269 174.981 C 165.693 137.225,194.341 107.419,231.592 97.655 C 234.970 96.769,237.831 96.024,237.948 95.998 C 238.066 95.972,238.163 114.262,238.163 136.644 M288.708 99.542 C 314.212 107.888,336.811 127.469,348.257 151.134 C 351.917 158.703,355.579 168.901,356.666 174.553 L 357.201 177.337 316.529 177.337 L 275.857 177.337 275.857 136.735 L 275.857 96.133 279.498 96.926 C 281.501 97.362,285.645 98.539,288.708 99.542 M238.163 255.764 L 238.163 296.496 234.950 295.908 C 224.946 294.076,210.442 287.758,199.299 280.377 C 191.517 275.223,178.079 261.779,172.944 254.012 C 165.909 243.369,159.409 228.410,157.216 217.816 L 156.640 215.032 197.401 215.032 L 238.163 215.032 238.163 255.764 M356.804 217.816 C 354.470 229.095,346.478 246.802,339.393 256.392 C 329.861 269.296,316.608 280.530,302.919 287.312 C 295.087 291.192,285.030 294.816,279.070 295.908 L 275.857 296.496 275.857 255.764 L 275.857 215.032 316.619 215.032 L 357.380 215.032 356.804 217.816 M75.963 355.243 C 75.648 355.558,75.390 364.040,75.390 374.092 L 75.390 392.369 257.027 392.369 L 438.664 392.369 438.433 373.735 L 438.202 355.102 257.369 354.886 C 157.911 354.767,76.278 354.928,75.963 355.243 " stroke="none" fill-rule="evenodd" fill="black"></path></svg>