<svg width="136mm" height="120mm" version="1.1" viewBox="0 0 600 529.4117647058824" xmlns="http://www.w3.org/2000/svg"><path d="M248.443 57.054 C 215.993 59.584,188.471 70.956,164.746 91.635 C 121.266 129.533,105.722 191.784,126.285 245.668 C 133.525 264.640,142.664 278.881,157.117 293.711 C 177.063 314.178,200.739 327.144,229.596 333.403 C 237.391 335.094,241.048 335.354,257.010 335.354 C 272.972 335.354,276.629 335.094,284.424 333.403 C 313.281 327.144,336.957 314.178,356.903 293.711 C 378.385 271.668,390.432 247.327,395.421 215.888 C 397.354 203.702,396.727 181.414,394.108 169.198 C 386.034 131.555,365.235 100.676,334.113 80.126 C 316.703 68.631,299.293 61.816,279.312 58.677 C 271.458 57.443,254.730 56.563,248.443 57.054 M238.163 136.644 L 238.163 177.337 197.412 177.337 C 159.004 177.337,156.686 177.251,157.102 175.838 C 157.344 175.013,158.134 172.025,158.857 169.198 C 164.174 148.397,177.988 128.299,196.613 114.265 C 205.246 107.760,218.738 101.290,230.273 98.124 C 234.377 96.998,237.831 96.048,237.948 96.013 C 238.066 95.979,238.163 114.262,238.163 136.644 M298.339 103.395 C 310.970 109.104,319.318 114.817,328.802 124.241 C 341.465 136.824,351.171 153.341,355.146 169.070 C 355.878 171.968,356.676 175.013,356.918 175.838 C 357.334 177.251,355.016 177.337,316.608 177.337 L 275.857 177.337 275.857 136.705 L 275.857 96.074 283.561 98.135 C 287.797 99.269,294.447 101.636,298.339 103.395 M238.163 255.725 C 238.163 278.106,237.929 296.418,237.644 296.418 C 237.358 296.418,234.756 295.818,231.861 295.083 C 203.508 287.894,179.786 268.889,166.328 242.581 C 162.465 235.030,158.754 224.923,157.235 217.816 L 156.640 215.032 197.401 215.032 L 238.163 215.032 238.163 255.725 M356.804 217.816 C 356.487 219.347,355.094 224.033,353.709 228.229 C 342.815 261.230,315.682 286.583,282.159 295.083 C 279.264 295.818,276.662 296.418,276.376 296.418 C 276.091 296.418,275.857 278.106,275.857 255.725 L 275.857 215.032 316.619 215.032 L 357.380 215.032 356.804 217.816 M75.587 374.164 L 75.818 392.797 257.010 392.797 L 438.202 392.797 438.433 374.164 L 438.664 355.531 257.010 355.531 L 75.356 355.531 75.587 374.164 " stroke="none" fill-rule="evenodd" fill="black"></path></svg>