<svg width="136mm" height="120mm" version="1.1" viewBox="0 0 600 529.4117647058824" xmlns="http://www.w3.org/2000/svg"><path d="M248.871 57.072 C 213.932 59.342,183.225 73.116,158.605 97.559 C 123.464 132.450,109.615 182.333,121.657 230.641 C 132.916 275.810,167.405 313.285,211.605 328.380 C 228.569 334.173,236.256 335.354,257.010 335.354 C 277.764 335.354,285.451 334.173,302.415 328.380 C 340.331 315.432,372.088 285.304,386.396 248.707 C 399.441 215.342,400.031 180.939,388.117 148.411 C 370.795 101.117,328.632 66.350,279.312 58.690 C 271.382 57.459,255.726 56.626,248.871 57.072 M238.163 136.644 L 238.163 177.337 197.412 177.337 C 159.002 177.337,156.686 177.251,157.108 175.838 C 157.354 175.013,158.023 172.411,158.594 170.055 C 160.170 163.554,165.028 151.914,168.962 145.211 C 182.376 122.353,204.833 105.106,230.273 98.124 C 234.377 96.998,237.831 96.048,237.948 96.013 C 238.066 95.979,238.163 114.262,238.163 136.644 M300.516 104.517 C 319.519 113.590,334.571 127.341,345.058 145.211 C 348.992 151.914,353.850 163.554,355.426 170.055 C 355.997 172.411,356.666 175.013,356.912 175.838 C 357.334 177.251,355.018 177.337,316.608 177.337 L 275.857 177.337 275.857 136.705 L 275.857 96.074 283.782 98.193 C 288.140 99.358,295.671 102.204,300.516 104.517 M238.163 255.725 C 238.163 278.106,237.929 296.418,237.644 296.418 C 236.312 296.418,226.108 293.569,221.897 292.021 C 191.666 280.911,167.698 254.943,158.984 223.859 C 157.770 219.526,156.776 215.768,156.776 215.506 C 156.776 215.245,175.088 215.032,197.469 215.032 L 238.163 215.032 238.163 255.725 M357.244 215.506 C 357.244 215.768,356.250 219.526,355.036 223.859 C 346.322 254.943,322.354 280.911,292.123 292.021 C 287.912 293.569,277.708 296.418,276.376 296.418 C 276.091 296.418,275.857 278.106,275.857 255.725 L 275.857 215.032 316.551 215.032 C 338.932 215.032,357.244 215.245,357.244 215.506 M75.587 374.164 L 75.818 392.797 257.010 392.797 L 438.202 392.797 438.433 374.164 L 438.664 355.531 257.010 355.531 L 75.356 355.531 75.587 374.164 " stroke="none" fill-rule="evenodd" fill="black"></path></svg>