<svg width="136mm" height="120mm" version="1.1" viewBox="0 0 600 529.4117647058824" xmlns="http://www.w3.org/2000/svg"><path d="M247.740 49.769 C 220.684 52.206,195.055 66.619,178.105 88.932 C 164.606 106.701,157.029 133.739,159.312 155.991 C 161.745 179.695,170.340 198.296,186.725 215.319 C 217.466 247.258,265.248 254.618,304.009 233.387 C 319.762 224.758,334.392 210.127,343.041 194.352 C 358.381 166.373,359.059 133.083,344.880 104.089 C 339.581 93.254,334.166 85.766,325.340 77.069 C 310.504 62.449,287.953 51.717,268.731 50.129 C 265.347 49.849,261.036 49.492,259.152 49.335 C 257.267 49.178,252.132 49.374,247.740 49.769 M272.811 89.084 C 283.287 91.764,290.571 96.103,299.436 104.946 C 312.808 118.285,317.545 130.656,316.765 150.205 C 316.287 162.185,314.562 168.634,309.506 177.337 C 305.357 184.477,294.144 195.693,286.994 199.853 C 269.401 210.090,244.619 210.090,227.026 199.853 C 219.876 195.693,208.663 184.477,204.514 177.337 C 199.458 168.634,197.733 162.185,197.255 150.205 C 196.475 130.656,201.212 118.285,214.584 104.946 C 223.335 96.217,230.686 91.792,240.871 89.124 C 249.643 86.827,263.913 86.809,272.811 89.084 M128.505 283.568 L 128.505 302.415 183.334 302.415 L 238.163 302.415 238.163 328.973 L 238.163 355.531 183.334 355.531 L 128.505 355.531 128.505 374.378 L 128.505 393.225 258.723 393.225 L 388.942 393.225 388.942 374.378 L 388.942 355.531 332.400 355.531 L 275.857 355.531 275.857 328.973 L 275.857 302.415 332.400 302.415 L 388.942 302.415 388.942 283.568 L 388.942 264.720 258.723 264.720 L 128.505 264.720 128.505 283.568 " stroke="none" fill-rule="evenodd" fill="black"></path></svg>