<svg width="136mm" height="120mm" version="1.1" viewBox="0 0 600 529.4117647058824" xmlns="http://www.w3.org/2000/svg"><path d="M248.871 49.378 C 209.662 53.552,178.448 77.480,164.752 113.863 C 155.623 138.115,157.256 166.438,169.179 190.616 C 178.954 210.439,193.676 225.160,213.747 235.180 C 240.675 248.624,273.152 248.632,300.273 235.203 C 320.152 225.360,334.867 210.631,344.819 190.616 C 371.135 137.686,344.565 73.399,288.488 54.326 C 277.445 50.570,259.145 48.284,248.871 49.378 M271.574 88.748 C 274.637 89.441,280.419 91.621,284.424 93.593 C 290.232 96.451,293.181 98.657,298.988 104.488 C 310.134 115.678,315.472 126.446,316.828 140.472 C 319.625 169.406,303.502 194.853,276.278 204.474 C 269.908 206.725,268.539 206.891,256.582 206.860 C 244.642 206.830,243.287 206.658,237.463 204.444 C 216.702 196.549,202.554 180.513,197.842 159.536 C 196.500 153.560,196.735 139.951,198.298 133.163 C 202.737 113.882,218.749 96.418,237.826 90.051 C 248.591 86.458,259.577 86.034,271.574 88.748 M128.505 283.568 L 128.505 302.415 183.334 302.415 L 238.163 302.415 238.163 328.544 L 238.163 354.674 183.334 354.674 L 128.505 354.674 128.505 373.521 L 128.505 392.369 258.723 392.369 L 388.942 392.369 388.942 373.521 L 388.942 354.674 332.400 354.674 L 275.857 354.674 275.857 328.544 L 275.857 302.415 332.400 302.415 L 388.942 302.415 388.942 283.568 L 388.942 264.720 258.723 264.720 L 128.505 264.720 128.505 283.568 " stroke="none" fill-rule="evenodd" fill="black"></path></svg>