<svg width="136mm" height="120mm" version="1.1" viewBox="0 0 600 529.4117647058824" xmlns="http://www.w3.org/2000/svg"><path d="M247.740 49.769 C 212.844 52.912,181.937 75.096,167.288 107.516 C 155.392 133.841,156.070 163.774,169.169 190.616 C 174.550 201.644,178.369 206.998,187.380 216.152 C 221.294 250.606,274.581 255.125,314.381 226.921 C 321.354 221.980,332.569 210.577,337.569 203.343 C 372.185 153.270,353.788 84.737,298.730 58.656 C 289.465 54.267,277.439 50.849,268.731 50.129 C 265.347 49.849,261.036 49.492,259.152 49.335 C 257.267 49.178,252.132 49.374,247.740 49.769 M272.811 89.084 C 283.287 91.764,290.571 96.103,299.436 104.946 C 312.808 118.285,317.545 130.656,316.765 150.205 C 316.074 167.546,311.626 177.550,298.988 190.187 C 286.830 202.346,274.515 207.394,257.010 207.394 C 239.243 207.394,227.195 202.373,214.603 189.724 C 201.911 176.972,197.041 165.224,197.041 147.352 C 197.041 129.448,201.947 117.602,214.603 104.946 C 223.333 96.216,230.671 91.796,240.871 89.124 C 249.643 86.827,263.913 86.809,272.811 89.084 M128.505 283.568 L 128.505 302.415 183.334 302.415 L 238.163 302.415 238.163 328.973 L 238.163 355.531 183.334 355.531 L 128.505 355.531 128.505 374.381 L 128.505 393.231 258.938 393.014 L 389.370 392.797 389.601 374.164 L 389.832 355.531 332.845 355.531 L 275.857 355.531 275.857 328.979 L 275.857 302.427 332.614 302.207 L 389.370 301.987 389.601 283.354 L 389.832 264.720 259.168 264.720 L 128.505 264.720 128.505 283.568 " stroke="none" fill-rule="evenodd" fill="black"></path></svg>