<svg width="136mm" height="120mm" version="1.1" viewBox="0 0 600 529.4117647058824" xmlns="http://www.w3.org/2000/svg"><path d="M132.788 75.390 L 132.788 94.237 204.106 94.237 L 275.424 94.237 257.860 111.801 L 240.296 129.365 190.192 112.657 C 162.634 103.469,139.633 95.950,139.079 95.950 C 137.790 95.950,126.351 130.142,127.338 131.043 C 127.744 131.414,146.389 137.794,168.770 145.221 C 191.151 152.648,209.639 158.879,209.853 159.068 C 210.068 159.258,198.213 171.447,183.510 186.156 L 156.777 212.899 167.267 223.389 L 177.757 233.879 164.696 233.879 L 151.636 233.879 151.636 252.727 L 151.636 271.574 203.895 271.574 C 232.637 271.574,256.153 271.859,256.153 272.207 C 256.153 273.020,228.531 300.702,227.721 300.702 C 227.385 300.702,226.995 298.485,226.854 295.776 L 226.597 290.850 207.964 290.619 L 189.331 290.388 189.334 295.759 C 189.339 303.031,191.436 315.458,194.028 323.575 C 195.202 327.251,196.167 330.834,196.173 331.538 C 196.179 332.243,183.075 345.932,167.054 361.959 L 137.923 391.099 151.207 404.362 L 164.492 417.626 190.559 391.569 L 216.626 365.512 223.965 372.458 C 231.230 379.335,243.355 388.070,250.942 391.892 C 257.822 395.359,270.929 399.906,279.741 401.885 C 288.078 403.756,289.778 403.809,351.890 404.136 L 415.500 404.471 415.500 385.620 L 415.500 366.770 353.603 366.449 C 293.226 366.136,291.531 366.082,284.580 364.255 C 276.438 362.115,266.744 357.847,260.716 353.747 C 254.747 349.688,247.787 343.654,245.711 340.739 L 243.915 338.218 296.079 286.048 L 348.243 233.879 269.003 233.879 L 189.762 233.879 220.385 203.257 L 251.007 172.634 300.858 189.243 C 328.276 198.378,351.269 205.893,351.954 205.944 C 352.834 206.009,354.921 200.895,359.063 188.531 C 362.288 178.904,364.836 170.957,364.726 170.872 C 364.616 170.787,345.685 164.449,322.657 156.787 L 280.788 142.856 323.939 99.699 L 367.090 56.542 249.939 56.542 L 132.788 56.542 132.788 75.390 M302.418 309.695 L 289.154 322.979 307.987 341.827 L 326.820 360.675 340.102 347.393 L 353.383 334.112 334.532 315.261 L 315.681 296.410 302.418 309.695 " stroke="none" fill-rule="evenodd" fill="black"></path></svg>