<svg width="136mm" height="120mm" version="1.1" viewBox="0 0 600 529.4117647058824" xmlns="http://www.w3.org/2000/svg"><path d="M132.503 57.113 C 132.189 57.427,131.932 65.909,131.932 75.961 L 131.932 94.237 203.678 94.237 L 275.424 94.237 257.860 111.801 L 240.296 129.365 190.192 112.657 C 162.634 103.469,139.633 95.950,139.079 95.950 C 137.790 95.950,126.351 130.142,127.338 131.043 C 127.744 131.414,146.389 137.794,168.770 145.221 C 191.151 152.648,209.639 158.879,209.853 159.068 C 210.068 159.258,198.211 171.449,183.506 186.160 L 156.768 212.908 167.069 223.180 L 177.370 233.451 164.289 233.879 L 151.208 234.307 151.208 253.155 L 151.208 272.002 203.878 272.223 L 256.549 272.444 242.486 286.526 C 234.752 294.271,228.109 300.414,227.725 300.176 C 227.340 299.938,227.025 297.839,227.025 295.511 L 227.025 291.278 208.178 291.278 L 189.331 291.278 189.333 296.632 C 189.337 303.830,191.485 315.668,194.412 324.624 L 196.813 331.971 167.368 361.535 L 137.923 391.098 151.207 404.362 L 164.492 417.626 190.567 391.561 L 216.643 365.496 222.905 371.439 C 243.096 390.603,264.983 400.748,292.011 403.469 C 297.202 403.992,324.663 404.362,358.191 404.362 L 415.500 404.362 415.500 385.566 L 415.500 366.770 353.603 366.442 C 286.289 366.086,288.556 366.241,275.001 361.067 C 264.383 357.014,251.446 348.064,246.127 341.090 L 243.927 338.206 296.085 286.043 L 348.243 233.879 269.003 233.879 L 189.762 233.879 220.385 203.257 L 251.007 172.634 300.858 189.243 C 328.276 198.378,351.269 205.893,351.954 205.944 C 352.834 206.009,354.921 200.895,359.063 188.531 C 362.288 178.904,364.836 170.957,364.726 170.872 C 364.616 170.787,345.685 164.449,322.657 156.787 L 280.788 142.856 323.939 99.699 L 367.090 56.542 250.082 56.542 C 185.728 56.542,132.817 56.799,132.503 57.113 M302.418 309.695 L 289.154 322.979 307.987 341.827 L 326.820 360.675 340.102 347.393 L 353.383 334.112 334.532 315.261 L 315.681 296.410 302.418 309.695 " stroke="none" fill-rule="evenodd" fill="black"></path></svg>