<svg width="136mm" height="120mm" version="1.1" viewBox="0 0 600 529.4117647058824" xmlns="http://www.w3.org/2000/svg"><path d="M323.404 68.651 C 283.433 71.526,247.754 95.105,228.781 131.185 C 224.317 139.673,219.831 152.003,218.078 160.603 L 217.025 165.771 202.749 166.006 L 188.474 166.241 188.386 178.000 C 188.283 191.900,187.675 190.342,185.118 169.627 C 182.625 149.427,181.620 132.951,181.620 112.281 L 181.620 94.237 115.226 94.237 L 48.832 94.237 48.832 236.037 L 48.832 377.837 67.893 377.607 L 86.955 377.376 87.172 254.654 L 87.389 131.932 115.535 131.932 L 143.681 131.932 144.732 146.710 C 153.063 263.758,199.281 352.899,260.760 370.496 C 273.659 374.187,282.261 374.453,380.375 374.193 L 472.470 373.950 472.470 355.102 L 472.470 336.255 372.665 335.826 L 272.859 335.398 267.480 333.132 C 259.141 329.618,253.182 325.680,245.689 318.732 C 226.478 300.916,210.294 271.801,198.438 233.727 C 195.696 224.922,191.044 206.629,191.044 204.653 C 191.044 204.178,196.356 203.947,204.035 204.086 L 217.025 204.323 218.078 209.491 C 224.792 242.432,247.707 272.442,278.537 288.670 C 306.333 303.301,340.098 305.953,370.094 295.860 C 408.696 282.872,437.461 250.886,446.826 210.534 L 448.367 203.895 460.633 203.895 L 472.898 203.895 472.898 185.047 L 472.898 166.200 460.633 166.200 L 448.367 166.200 446.826 159.560 C 442.285 139.993,434.157 123.873,421.142 108.620 C 402.155 86.367,371.774 70.721,343.965 68.875 C 340.667 68.656,336.619 68.377,334.970 68.256 C 333.321 68.134,328.116 68.312,323.404 68.651 M313.552 137.072 L 313.552 166.200 284.493 166.200 L 255.435 166.200 256.297 162.987 C 257.739 157.618,264.467 144.069,268.464 138.484 C 275.683 128.400,288.109 118.208,299.417 113.097 C 302.678 111.622,311.506 108.384,313.338 107.990 C 313.456 107.965,313.552 121.052,313.552 137.072 M365.702 113.149 C 381.934 120.624,395.295 133.623,403.505 149.929 C 406.052 154.988,409.503 164.192,409.503 165.927 C 409.503 166.077,396.395 166.200,380.375 166.200 L 351.247 166.200 351.247 137.118 L 351.247 108.037 355.745 109.336 C 358.218 110.050,362.699 111.766,365.702 113.149 M105.159 166.678 L 89.096 174.776 102.042 200.687 C 109.162 214.937,115.154 226.774,115.357 226.990 C 115.771 227.431,148.139 211.514,148.734 210.577 C 149.378 209.560,123.428 158.487,122.291 158.535 C 121.704 158.560,113.994 162.225,105.159 166.678 M313.552 232.976 L 313.552 262.058 309.055 260.726 C 293.731 256.189,277.960 244.876,268.464 231.610 C 264.467 226.025,257.739 212.476,256.297 207.107 L 255.435 203.895 284.493 203.895 L 313.552 203.895 313.552 232.976 M409.503 204.167 C 409.503 206.099,405.957 215.312,403.015 221.029 C 393.559 239.395,376.979 253.697,357.455 260.330 C 354.508 261.331,351.906 262.150,351.672 262.150 C 351.438 262.150,351.247 249.043,351.247 233.022 L 351.247 203.895 380.375 203.895 C 396.395 203.895,409.503 204.017,409.503 204.167 M105.802 275.571 C 96.850 280.075,89.407 283.868,89.262 283.999 C 89.010 284.226,114.587 335.828,115.357 336.647 C 115.770 337.087,148.138 321.173,148.731 320.238 C 149.146 319.584,123.217 267.262,122.515 267.336 C 122.275 267.361,114.755 271.067,105.802 275.571 " stroke="none" fill-rule="evenodd" fill="black"></path></svg>