<svg width="136mm" height="120mm" version="1.1" viewBox="0 0 600 529.4117647058824" xmlns="http://www.w3.org/2000/svg"><path d="M320.834 68.620 C 270.980 73.806,228.967 110.889,218.531 158.918 L 217.042 165.771 203.208 166.007 L 189.373 166.242 189.138 180.142 C 188.903 193.999,188.899 194.025,187.818 188.474 C 184.068 169.216,181.620 139.245,181.620 112.588 L 181.620 94.237 115.654 94.237 L 49.689 94.237 49.689 236.021 L 49.689 377.805 68.536 377.805 L 87.383 377.805 87.383 254.868 L 87.383 131.932 115.578 131.932 L 143.772 131.932 144.297 139.428 C 148.302 196.615,158.061 240.659,175.575 280.600 C 196.648 328.655,226.180 359.846,260.865 370.684 L 268.575 373.093 370.309 373.327 L 472.042 373.562 472.042 354.711 L 472.042 335.861 372.450 335.630 L 272.859 335.398 268.290 333.526 C 236.435 320.472,209.627 278.720,193.970 217.779 C 192.361 211.516,191.044 205.819,191.044 205.120 C 191.044 204.043,193.019 203.886,204.043 204.086 L 217.043 204.323 218.532 211.177 C 221.396 224.359,226.926 237.186,235.155 249.728 C 262.016 290.671,313.117 310.540,360.763 298.566 C 382.077 293.209,399.540 283.307,415.107 267.749 C 431.327 251.539,442.679 230.670,447.164 208.821 L 448.176 203.895 460.109 203.895 L 472.042 203.895 472.042 185.047 L 472.042 166.200 460.109 166.200 L 448.176 166.200 447.164 161.274 C 442.679 139.424,431.327 118.555,415.107 102.345 C 406.832 94.076,395.221 85.442,386.280 80.912 C 373.512 74.442,357.793 69.947,343.108 68.567 C 332.661 67.585,330.745 67.589,320.834 68.620 M313.552 137.072 L 313.552 166.200 284.471 166.200 L 255.389 166.200 256.632 162.012 C 263.367 139.334,282.065 119.495,304.889 110.809 C 308.947 109.265,312.556 107.988,312.910 107.973 C 313.263 107.957,313.552 121.052,313.552 137.072 M357.927 110.027 C 375.124 115.876,390.854 128.403,400.045 143.567 C 403.019 148.475,408.133 160.056,408.997 163.844 L 409.535 166.200 380.391 166.200 L 351.247 166.200 351.247 137.072 C 351.247 121.052,351.372 107.944,351.525 107.944 C 351.678 107.944,354.559 108.881,357.927 110.027 M106.016 166.288 L 89.096 174.776 102.042 200.686 C 109.162 214.937,115.156 226.776,115.362 226.995 C 115.886 227.552,149.076 210.900,149.019 210.109 C 148.994 209.754,143.115 197.839,135.955 183.631 L 122.936 157.800 106.016 166.288 M313.552 233.080 L 313.552 262.266 311.625 261.680 C 285.136 253.635,264.060 233.093,256.632 208.082 L 255.389 203.895 284.471 203.895 L 313.552 203.895 313.552 233.080 M408.997 206.251 C 408.133 210.038,403.019 221.619,400.045 226.527 C 393.327 237.612,381.338 248.901,369.900 254.911 C 365.317 257.319,353.055 262.150,351.525 262.150 C 351.372 262.150,351.247 249.043,351.247 233.022 L 351.247 203.895 380.391 203.895 L 409.535 203.895 408.997 206.251 M105.802 275.571 C 96.850 280.075,89.407 283.868,89.262 283.999 C 89.010 284.226,114.587 335.828,115.357 336.647 C 115.770 337.087,148.138 321.173,148.731 320.238 C 149.146 319.584,123.217 267.262,122.515 267.336 C 122.275 267.361,114.755 271.067,105.802 275.571 " stroke="none" fill-rule="evenodd" fill="black"></path></svg>