<svg width="136mm" height="120mm" version="1.1" viewBox="0 0 600 529.4117647058824" xmlns="http://www.w3.org/2000/svg"><path d="M323.404 68.651 C 273.329 72.253,230.535 108.694,218.909 157.633 C 218.069 161.167,217.251 164.540,217.091 165.129 C 216.873 165.929,213.325 166.200,203.065 166.200 L 189.331 166.200 189.243 180.121 C 189.139 196.562,188.609 195.370,185.529 171.768 C 182.868 151.376,181.624 131.942,181.622 110.723 L 181.620 94.226 115.440 94.446 L 49.260 94.665 49.260 236.021 L 49.260 377.376 68.108 377.376 L 86.955 377.376 87.172 254.654 L 87.389 131.932 115.657 131.932 L 143.926 131.932 143.943 133.859 C 143.987 138.687,146.579 167.649,147.796 176.909 C 157.123 247.900,181.428 307.354,215.104 341.560 C 234.580 361.341,253.974 371.286,277.410 373.508 C 282.944 374.033,323.255 374.377,379.304 374.377 L 472.042 374.378 472.042 355.119 L 472.042 335.861 372.450 335.630 L 272.859 335.398 267.480 333.132 C 259.158 329.625,253.185 325.683,245.755 318.794 C 223.435 298.095,205.195 262.156,193.662 216.153 C 192.222 210.408,191.044 205.300,191.044 204.801 C 191.044 203.406,216.710 203.567,217.091 204.965 C 217.251 205.554,218.069 208.928,218.909 212.462 C 232.119 268.069,285.913 306.928,342.295 301.592 C 371.142 298.861,396.041 287.109,415.928 266.838 C 431.443 251.022,442.096 231.565,446.755 210.534 L 448.226 203.895 460.134 203.895 L 472.042 203.895 472.042 185.047 L 472.042 166.200 460.134 166.200 L 448.226 166.200 446.768 159.560 C 439.504 126.480,416.753 97.034,386.420 81.453 C 372.100 74.097,357.507 69.774,343.965 68.875 C 340.667 68.656,336.619 68.377,334.970 68.256 C 333.321 68.134,328.116 68.312,323.404 68.651 M313.552 137.072 L 313.552 166.200 284.465 166.200 L 255.379 166.200 256.476 162.559 C 262.847 141.430,280.135 121.538,299.580 112.964 C 302.722 111.578,311.632 108.357,313.338 107.990 C 313.456 107.965,313.552 121.052,313.552 137.072 M365.702 113.149 C 376.714 118.220,389.143 128.297,396.265 137.929 C 401.153 144.540,407.203 156.906,408.946 163.851 L 409.535 166.200 380.391 166.200 L 351.247 166.200 351.247 137.118 L 351.247 108.037 355.745 109.336 C 358.218 110.050,362.699 111.766,365.702 113.149 M106.016 166.288 L 89.096 174.776 102.042 200.686 C 109.162 214.937,115.156 226.776,115.362 226.995 C 115.886 227.552,149.076 210.900,149.019 210.109 C 148.994 209.754,143.115 197.839,135.955 183.631 L 122.936 157.800 106.016 166.288 M313.552 232.976 L 313.552 262.058 309.055 260.726 C 284.874 253.566,263.982 232.431,256.476 207.536 L 255.379 203.895 284.465 203.895 L 313.552 203.895 313.552 232.976 M408.946 206.244 C 407.201 213.194,401.146 225.569,396.262 232.166 C 389.773 240.930,377.925 250.951,368.381 255.746 C 364.608 257.642,352.742 262.150,351.525 262.150 C 351.372 262.150,351.247 249.043,351.247 233.022 L 351.247 203.895 380.391 203.895 L 409.535 203.895 408.946 206.244 M105.802 275.571 C 96.850 280.075,89.407 283.868,89.262 283.999 C 89.010 284.226,114.587 335.828,115.357 336.647 C 115.770 337.087,148.138 321.173,148.731 320.238 C 149.146 319.584,123.217 267.262,122.515 267.336 C 122.275 267.361,114.755 271.067,105.802 275.571 " stroke="none" fill-rule="evenodd" fill="black"></path></svg>