<svg width="136mm" height="120mm" version="1.1" viewBox="0 0 600 529.4117647058824" xmlns="http://www.w3.org/2000/svg"><path d="M109.658 72.611 L 109.658 107.528 102.666 109.487 C 72.928 117.820,47.562 142.468,38.609 171.729 C 34.351 185.643,34.268 187.382,34.268 262.262 L 34.268 332.400 53.115 332.400 L 71.963 332.400 71.963 263.390 C 71.963 186.029,71.822 188.049,78.120 174.860 C 82.816 165.026,92.469 155.234,102.590 150.038 L 109.658 146.409 109.658 280.954 L 109.658 415.500 128.502 415.500 L 147.347 415.500 147.564 281.015 L 147.781 146.531 154.206 149.708 C 159.004 152.082,162.488 154.735,167.964 160.186 C 176.357 168.540,180.659 175.873,183.358 186.426 C 184.971 192.734,185.047 196.166,185.047 262.716 L 185.047 332.400 203.895 332.400 L 222.742 332.400 222.742 281.426 L 222.742 230.452 236.021 230.452 L 249.300 230.452 249.300 322.976 L 249.300 415.500 268.147 415.500 L 286.995 415.500 286.995 322.976 L 286.995 230.452 343.965 230.452 L 400.936 230.452 400.936 322.976 L 400.936 415.500 419.783 415.500 L 438.630 415.500 438.630 322.976 L 438.630 230.452 459.191 230.452 L 479.752 230.452 479.752 211.605 L 479.752 192.757 458.881 192.757 L 438.010 192.757 437.431 187.831 C 433.357 153.147,407.252 121.545,373.639 110.604 C 354.646 104.423,332.697 104.439,313.981 110.649 C 281.177 121.532,256.037 151.166,250.766 185.163 L 249.654 192.329 236.282 192.565 L 222.909 192.800 222.301 188.281 C 217.272 150.905,190.040 119.282,154.427 109.463 L 147.365 107.516 147.359 72.605 L 147.352 37.695 128.505 37.695 L 109.658 37.695 109.658 72.611 M222.939 79.459 L 223.170 98.092 351.461 98.309 L 479.752 98.526 479.752 79.676 L 479.752 60.826 351.230 60.826 L 222.709 60.826 222.939 79.459 M362.591 146.681 C 378.809 152.765,391.470 165.360,397.075 180.985 C 398.130 183.926,399.255 187.778,399.575 189.545 L 400.157 192.757 344.004 192.757 C 303.563 192.757,287.851 192.492,287.851 191.810 C 287.851 188.834,291.020 179.468,293.907 173.910 C 299.686 162.787,308.548 154.278,319.830 149.019 C 329.043 144.724,333.416 143.914,345.678 144.229 C 355.048 144.469,357.732 144.859,362.591 146.681 " stroke="none" fill-rule="evenodd" fill="black"></path></svg>