<svg width="136mm" height="120mm" version="1.1" viewBox="0 0 600 529.4117647058824" xmlns="http://www.w3.org/2000/svg"><path d="M109.658 72.734 L 109.658 107.773 105.160 108.844 C 82.258 114.294,60.252 130.771,47.437 152.064 C 43.636 158.381,38.889 169.928,36.694 178.201 C 34.774 185.435,34.762 185.887,34.484 258.938 L 34.205 332.400 53.051 332.400 L 71.898 332.400 72.162 260.651 C 72.457 180.548,72.029 186.287,78.660 173.482 C 83.112 164.887,94.241 153.924,102.804 149.700 L 109.229 146.531 109.446 281.015 L 109.663 415.500 128.505 415.500 L 147.347 415.500 147.564 280.933 L 147.781 146.366 154.206 149.631 C 163.380 154.292,174.917 165.890,179.321 174.877 C 185.099 186.670,185.016 185.391,185.032 262.793 L 185.047 332.400 203.895 332.400 L 222.742 332.400 222.742 281.426 L 222.742 230.452 236.021 230.452 L 249.300 230.452 249.300 322.976 L 249.300 415.500 268.147 415.500 L 286.995 415.500 286.995 322.976 L 286.995 230.452 343.537 230.452 L 400.079 230.452 400.079 322.976 L 400.079 415.500 419.355 415.500 L 438.630 415.500 438.630 322.976 L 438.630 230.452 459.191 230.452 L 479.752 230.452 479.752 211.605 L 479.752 192.757 458.763 192.757 L 437.774 192.757 437.774 190.580 C 437.774 187.675,435.380 176.219,433.760 171.370 C 422.684 138.216,395.140 113.943,361.313 107.526 C 352.383 105.832,335.390 105.862,326.294 107.587 C 292.850 113.932,265.246 137.992,254.492 170.171 C 253.054 174.476,251.377 181.222,250.766 185.163 L 249.654 192.329 236.351 192.564 L 223.048 192.799 221.578 184.426 C 215.272 148.489,188.476 118.675,154.252 109.515 L 147.352 107.668 147.352 72.681 L 147.352 37.695 128.505 37.695 L 109.658 37.695 109.658 72.734 M222.939 79.459 L 223.170 98.092 351.461 98.309 L 479.752 98.526 479.752 79.676 L 479.752 60.826 351.230 60.826 L 222.709 60.826 222.939 79.459 M356.016 144.861 C 376.622 148.651,395.757 168.279,399.579 189.545 L 400.157 192.757 343.929 192.757 L 287.701 192.757 288.305 189.117 C 290.032 178.704,297.268 166.024,305.982 158.138 C 312.025 152.669,322.393 147.009,329.535 145.280 C 335.634 143.804,349.109 143.590,356.016 144.861 " stroke="none" fill-rule="evenodd" fill="black"></path></svg>