<svg width="136mm" height="120mm" version="1.1" viewBox="0 0 600 529.4117647058824" xmlns="http://www.w3.org/2000/svg"><path d="M109.658 72.681 L 109.658 107.668 102.758 109.515 C 74.262 117.142,49.284 140.559,39.487 168.831 C 34.242 183.968,34.268 183.515,34.268 261.388 L 34.268 332.400 53.115 332.400 L 71.963 332.400 71.963 263.593 C 71.963 217.890,72.274 193.079,72.891 189.702 C 74.148 182.819,77.548 174.478,81.457 168.692 C 86.094 161.826,95.603 153.375,102.933 149.605 L 109.229 146.366 109.446 280.933 L 109.663 415.500 128.505 415.500 L 147.347 415.500 147.564 280.933 L 147.781 146.366 154.077 149.605 C 161.407 153.375,170.916 161.826,175.553 168.692 C 179.462 174.478,182.862 182.819,184.119 189.702 C 184.736 193.079,185.047 217.890,185.047 263.593 L 185.047 332.400 203.895 332.400 L 222.742 332.400 222.742 281.426 L 222.742 230.452 236.021 230.452 L 249.300 230.452 249.300 322.976 L 249.300 415.500 268.147 415.500 L 286.995 415.500 286.995 322.976 L 286.995 230.452 343.965 230.452 L 400.936 230.452 400.936 322.976 L 400.936 415.500 419.783 415.500 L 438.630 415.500 438.630 322.976 L 438.630 230.452 459.191 230.452 L 479.752 230.452 479.752 211.605 L 479.752 192.757 458.953 192.757 L 438.153 192.757 437.170 185.548 C 434.011 162.382,420.184 139.475,400.527 124.846 C 383.539 112.202,365.395 106.231,343.965 106.231 C 318.683 106.231,296.927 114.815,279.059 131.840 C 263.811 146.370,253.878 165.088,250.766 185.163 L 249.654 192.329 236.357 192.564 L 223.060 192.799 221.612 184.626 C 218.029 164.408,209.161 147.423,194.721 133.123 C 183.646 122.155,168.527 113.336,154.252 109.515 L 147.352 107.668 147.352 72.681 L 147.352 37.695 128.505 37.695 L 109.658 37.695 109.658 72.681 M222.939 79.459 L 223.170 98.092 351.461 98.309 L 479.752 98.526 479.752 79.676 L 479.752 60.826 351.230 60.826 L 222.709 60.826 222.939 79.459 M356.559 144.886 C 371.924 148.137,387.144 160.138,394.549 174.844 C 396.976 179.663,400.008 189.154,400.066 192.115 C 400.073 192.468,374.794 192.757,343.890 192.757 L 287.701 192.757 288.291 189.117 C 289.925 179.038,297.451 165.858,305.982 158.138 C 312.025 152.669,322.393 147.009,329.535 145.280 C 335.660 143.798,350.398 143.583,356.559 144.886 " stroke="none" fill-rule="evenodd" fill="black"></path></svg>