<svg width="136mm" height="120mm" version="1.1" viewBox="0 0 600 529.4117647058824" xmlns="http://www.w3.org/2000/svg"><path d="M336.683 94.665 L 336.683 128.505 298.560 128.505 L 260.437 128.505 260.437 147.352 L 260.437 166.200 298.560 166.200 L 336.683 166.200 336.683 173.674 L 336.683 181.149 303.178 281.696 C 284.750 336.997,270.004 382.545,270.409 382.914 C 270.814 383.282,278.780 386.116,288.112 389.211 C 299.811 393.090,305.198 394.521,305.464 393.817 C 305.676 393.256,316.964 359.450,330.548 318.693 L 355.246 244.590 380.314 319.796 C 401.447 383.194,405.606 394.931,406.800 394.550 C 426.796 388.172,440.752 382.994,440.647 381.993 C 440.578 381.339,425.639 336.304,407.450 281.917 L 374.378 183.031 374.378 174.615 L 374.378 166.200 412.073 166.200 L 449.767 166.200 449.767 147.352 L 449.767 128.505 412.073 128.505 L 374.378 128.505 374.378 94.665 L 374.378 60.826 355.531 60.826 L 336.683 60.826 336.683 94.665 M135.359 89.009 C 106.806 95.321,83.394 113.487,70.657 139.214 C 65.039 150.561,62.016 161.519,60.851 174.767 C 59.726 187.550,59.726 265.644,60.851 278.428 C 62.016 291.675,65.039 302.633,70.657 313.981 C 96.023 365.215,161.474 382.061,208.597 349.484 C 227.133 336.671,240.232 317.829,246.582 294.850 L 248.871 286.566 248.871 226.597 L 248.871 166.628 246.603 158.426 C 241.647 140.505,234.045 127.165,221.825 114.946 C 209.923 103.044,195.807 94.774,179.741 90.292 C 168.691 87.210,146.412 86.566,135.359 89.009 M136.008 276.401 L 135.787 325.645 129.790 322.643 C 115.016 315.248,103.041 300.150,99.815 284.853 C 97.951 276.017,97.951 177.178,99.815 168.342 C 103.041 153.044,115.016 137.947,129.790 130.551 L 135.787 127.549 136.008 177.353 C 136.130 204.746,136.130 249.317,136.008 276.401 M183.334 132.136 C 190.236 136.025,201.125 147.383,204.901 154.634 C 211.423 167.157,211.177 164.332,211.177 226.597 C 211.177 288.862,211.423 286.038,204.901 298.560 C 199.623 308.695,186.338 320.780,176.266 324.608 L 173.910 325.504 173.910 226.597 L 173.910 127.691 176.266 128.586 C 177.562 129.079,180.742 130.676,183.334 132.136 " stroke="none" fill-rule="evenodd" fill="black"></path></svg>