<svg width="136mm" height="120mm" version="1.1" viewBox="0 0 600 529.4117647058824" xmlns="http://www.w3.org/2000/svg"><path d="M336.683 94.665 L 336.683 128.505 298.560 128.505 L 260.437 128.505 260.437 147.352 L 260.437 166.200 298.560 166.200 L 336.683 166.200 336.683 173.674 L 336.683 181.149 303.178 281.696 C 284.750 336.997,270.004 382.545,270.409 382.914 C 270.814 383.282,278.780 386.116,288.112 389.211 C 299.811 393.090,305.198 394.521,305.464 393.817 C 305.676 393.256,316.964 359.450,330.548 318.693 L 355.246 244.590 380.304 319.764 C 394.086 361.110,405.437 394.939,405.529 394.939 C 405.721 394.939,438.532 384.000,440.075 383.421 C 440.757 383.166,430.108 350.091,407.735 282.977 L 374.378 182.914 374.378 174.557 L 374.378 166.200 412.073 166.200 L 449.767 166.200 449.767 147.352 L 449.767 128.505 412.073 128.505 L 374.378 128.505 374.378 94.665 L 374.378 60.826 355.531 60.826 L 336.683 60.826 336.683 94.665 M144.782 87.435 C 109.901 90.957,78.327 115.926,66.338 149.471 C 60.816 164.920,60.715 166.464,61.026 230.203 C 61.297 285.473,61.368 287.643,63.125 293.874 C 69.508 316.522,80.959 334.092,97.384 346.438 C 115.126 359.774,133.578 366.047,155.063 366.047 C 200.695 366.047,238.940 334.379,247.665 289.369 C 249.167 281.619,249.299 276.556,249.297 226.781 C 249.294 166.655,249.134 164.430,243.731 149.313 C 229.122 108.440,188.480 83.024,144.782 87.435 M136.008 276.278 L 135.787 325.399 129.362 322.277 C 120.686 318.061,109.624 307.177,105.085 298.389 C 98.531 285.700,98.520 285.587,98.520 226.597 C 98.520 167.607,98.531 167.495,105.085 154.805 C 109.589 146.086,120.662 135.164,129.362 130.861 L 135.787 127.683 136.008 177.420 C 136.130 204.776,136.130 249.262,136.008 276.278 M186.330 134.110 C 197.748 141.688,207.570 156.055,210.320 169.198 C 212.165 178.016,212.165 275.178,210.320 283.996 C 206.845 300.606,193.335 317.158,177.831 323.805 L 173.910 325.485 173.910 226.597 L 173.910 127.709 177.831 129.390 C 179.987 130.314,183.812 132.438,186.330 134.110 " stroke="none" fill-rule="evenodd" fill="black"></path></svg>