<svg width="136mm" height="120mm" version="1.1" viewBox="0 0 600 529.4117647058824" xmlns="http://www.w3.org/2000/svg"><path d="M335.826 94.665 L 335.826 128.505 298.132 128.505 L 260.437 128.505 260.437 147.352 L 260.437 166.200 298.132 166.200 L 335.826 166.200 335.826 174.981 L 335.826 183.762 302.747 283.000 C 284.553 337.581,270.000 382.541,270.407 382.911 C 270.813 383.281,278.780 386.116,288.112 389.211 C 299.811 393.090,305.198 394.521,305.464 393.817 C 305.676 393.256,316.964 359.450,330.548 318.693 L 355.246 244.590 380.304 319.764 C 394.086 361.110,405.437 394.939,405.529 394.939 C 405.721 394.939,438.532 384.000,440.075 383.421 C 440.757 383.166,430.108 350.091,407.735 282.977 L 374.378 182.914 374.378 174.557 L 374.378 166.200 412.073 166.200 L 449.767 166.200 449.767 147.352 L 449.767 128.505 412.073 128.505 L 374.378 128.505 374.378 94.665 L 374.378 60.826 355.102 60.826 L 335.826 60.826 335.826 94.665 M137.500 88.587 C 99.115 95.977,68.797 126.710,62.120 164.998 C 60.241 175.775,60.212 277.273,62.085 287.953 C 70.612 336.574,115.361 370.633,164.247 365.713 C 192.682 362.852,218.101 347.464,233.917 323.539 C 239.682 314.819,243.207 306.828,246.528 294.949 L 248.871 286.566 248.871 226.597 L 248.871 166.628 246.528 158.246 C 243.212 146.384,239.688 138.388,233.916 129.627 C 221.453 110.709,201.800 96.441,179.741 90.295 C 173.003 88.418,169.579 88.025,157.633 87.753 C 148.064 87.536,141.560 87.806,137.500 88.587 M136.008 276.401 L 135.787 325.645 129.664 322.582 C 118.314 316.904,107.279 304.853,102.567 292.991 C 98.586 282.971,98.414 279.848,98.713 223.170 C 99.023 164.435,98.728 167.735,104.815 155.063 C 108.645 147.090,120.662 135.204,129.362 130.783 L 135.787 127.518 136.008 177.338 C 136.130 204.739,136.130 249.317,136.008 276.401 M183.334 132.145 C 185.925 133.609,191.167 137.919,194.983 141.723 C 200.439 147.161,202.682 150.192,205.493 155.919 C 211.534 168.233,211.575 168.705,211.575 226.597 C 211.575 284.489,211.534 284.962,205.493 297.275 C 200.014 308.440,188.316 319.553,177.123 324.227 L 173.910 325.569 173.910 226.630 L 173.910 127.691 176.266 128.586 C 177.562 129.079,180.742 130.680,183.334 132.145 " stroke="none" fill-rule="evenodd" fill="black"></path></svg>