<svg width="136mm" height="120mm" version="1.1" viewBox="0 0 600 529.4117647058824" xmlns="http://www.w3.org/2000/svg"><path d="M238.163 71.529 L 238.163 105.364 170.269 105.583 L 102.376 105.802 102.376 124.650 L 102.376 143.497 257.010 143.497 L 411.644 143.497 411.644 124.650 L 411.644 105.802 343.751 105.583 L 275.857 105.364 275.857 71.529 L 275.857 37.695 257.010 37.695 L 238.163 37.695 238.163 71.529 M120.795 175.624 L 120.795 196.184 79.245 196.184 L 37.695 196.184 37.695 215.032 L 37.695 233.879 73.676 233.879 C 93.466 233.879,109.658 234.170,109.658 234.527 C 109.658 234.883,97.153 272.685,81.869 318.531 C 63.208 374.506,54.414 402.013,55.097 402.269 C 56.640 402.847,89.451 413.786,89.643 413.786 C 89.735 413.786,101.087 379.957,114.869 338.611 L 139.928 263.435 164.936 338.397 C 182.762 391.831,190.292 413.333,191.156 413.271 C 194.031 413.066,225.312 402.172,225.312 401.376 C 225.312 400.893,212.976 363.492,197.898 318.264 C 182.820 273.036,170.483 235.547,170.483 234.955 C 170.483 234.109,178.077 233.879,206.036 233.879 L 241.589 233.879 241.589 215.032 L 241.589 196.184 200.039 196.184 L 158.489 196.184 158.489 175.624 L 158.489 155.063 139.642 155.063 L 120.795 155.063 120.795 175.624 M355.531 175.624 L 355.531 196.184 313.981 196.184 L 272.431 196.184 272.431 215.032 L 272.431 233.879 307.984 233.879 C 335.943 233.879,343.537 234.109,343.537 234.955 C 343.537 235.547,331.200 273.036,316.122 318.264 C 301.044 363.492,288.719 400.885,288.733 401.359 C 288.752 402.030,321.725 413.358,323.660 413.358 C 323.912 413.358,335.362 379.625,349.105 338.397 L 374.092 263.435 399.151 338.611 C 412.933 379.957,424.285 413.786,424.377 413.786 C 424.569 413.786,457.380 402.847,458.923 402.269 C 459.606 402.013,450.812 374.506,432.151 318.531 C 416.867 272.685,404.362 234.883,404.362 234.527 C 404.362 234.170,420.554 233.879,440.344 233.879 L 476.325 233.879 476.325 215.032 L 476.325 196.184 434.775 196.184 L 393.225 196.184 393.225 175.624 L 393.225 155.063 374.378 155.063 L 355.531 155.063 355.531 175.624 " stroke="none" fill-rule="evenodd" fill="black"></path></svg>