<svg width="136mm" height="120mm" version="1.1" viewBox="0 0 600 529.4117647058824" xmlns="http://www.w3.org/2000/svg"><path d="M238.163 71.963 L 238.163 106.231 170.055 106.231 L 101.947 106.231 101.947 125.078 L 101.947 143.926 257.010 143.926 L 412.073 143.926 412.073 125.078 L 412.073 106.231 343.965 106.231 L 275.857 106.231 275.857 71.963 L 275.857 37.695 257.010 37.695 L 238.163 37.695 238.163 71.963 M120.795 175.624 L 120.795 196.184 79.245 196.184 L 37.695 196.184 37.695 215.032 L 37.695 233.879 73.676 233.879 C 93.466 233.879,109.658 233.978,109.658 234.098 C 109.658 234.219,97.133 271.888,81.824 317.807 C 66.516 363.727,54.276 401.553,54.624 401.866 C 54.972 402.179,62.582 404.853,71.534 407.808 C 80.487 410.764,88.253 413.343,88.792 413.541 C 89.417 413.770,98.708 387.056,114.386 339.953 C 127.924 299.282,139.241 265.735,139.536 265.404 C 139.832 265.074,151.029 297.457,164.419 337.367 C 177.809 377.277,189.066 410.775,189.435 411.806 C 190.098 413.661,190.291 413.619,207.442 407.894 C 216.977 404.712,224.899 401.746,225.046 401.305 C 225.193 400.864,212.816 363.012,197.540 317.191 L 169.766 233.879 205.678 233.879 L 241.589 233.879 241.589 215.032 L 241.589 196.184 200.039 196.184 L 158.489 196.184 158.489 175.624 L 158.489 155.063 139.642 155.063 L 120.795 155.063 120.795 175.624 M355.531 175.624 L 355.531 196.184 313.981 196.184 L 272.431 196.184 272.431 215.032 L 272.431 233.879 308.342 233.879 L 344.254 233.879 316.480 317.191 C 301.204 363.012,288.827 400.864,288.974 401.305 C 289.121 401.746,297.043 404.712,306.578 407.894 C 323.731 413.620,323.922 413.661,324.587 411.806 C 324.957 410.775,336.195 377.259,349.562 337.326 C 362.929 297.394,374.125 265.010,374.443 265.363 C 374.760 265.716,386.096 299.282,399.634 339.953 C 415.312 387.056,424.603 413.770,425.228 413.541 C 425.767 413.343,433.533 410.764,442.486 407.808 C 451.438 404.853,459.048 402.179,459.396 401.866 C 459.744 401.553,447.504 363.727,432.196 317.807 C 416.887 271.888,404.362 234.219,404.362 234.098 C 404.362 233.978,420.554 233.879,440.344 233.879 L 476.325 233.879 476.325 215.032 L 476.325 196.184 434.775 196.184 L 393.225 196.184 393.225 175.624 L 393.225 155.063 374.378 155.063 L 355.531 155.063 355.531 175.624 " stroke="none" fill-rule="evenodd" fill="black"></path></svg>