<svg width="136mm" height="120mm" version="1.1" viewBox="0 0 600 529.4117647058824" xmlns="http://www.w3.org/2000/svg"><path d="M238.163 71.963 L 238.163 106.231 170.038 106.231 L 101.914 106.231 102.145 124.864 L 102.376 143.497 257.010 143.497 L 411.644 143.497 411.875 124.864 L 412.106 106.231 343.982 106.231 L 275.857 106.231 275.857 71.963 L 275.857 37.695 257.010 37.695 L 238.163 37.695 238.163 71.963 M120.795 175.624 L 120.795 196.184 79.245 196.184 L 37.695 196.184 37.695 215.032 L 37.695 233.879 73.676 233.879 C 93.466 233.879,109.658 234.170,109.658 234.527 C 109.658 234.883,97.153 272.685,81.869 318.531 C 63.208 374.506,54.414 402.013,55.097 402.269 C 56.640 402.847,89.451 413.786,89.643 413.786 C 89.735 413.786,101.087 379.958,114.869 338.612 L 139.927 263.437 164.625 337.541 C 178.209 378.298,189.496 412.103,189.709 412.665 C 189.975 413.368,195.362 411.938,207.061 408.058 C 216.392 404.963,224.360 402.129,224.766 401.758 C 225.172 401.388,213.125 363.946,197.994 318.553 C 182.863 273.160,170.483 235.539,170.483 234.950 C 170.483 234.110,178.165 233.879,206.036 233.879 L 241.589 233.879 241.589 215.032 L 241.589 196.184 200.468 196.184 L 159.346 196.184 159.346 175.624 L 159.346 155.063 140.070 155.063 L 120.795 155.063 120.795 175.624 M354.674 175.624 L 354.674 196.184 313.552 196.184 L 272.431 196.184 272.431 215.032 L 272.431 233.879 307.984 233.879 C 335.855 233.879,343.537 234.110,343.537 234.950 C 343.537 235.539,331.157 273.160,316.026 318.553 C 300.895 363.946,288.848 401.388,289.254 401.758 C 289.660 402.129,297.628 404.963,306.959 408.058 C 318.658 411.938,324.045 413.368,324.311 412.665 C 324.524 412.103,335.811 378.298,349.395 337.541 L 374.093 263.437 399.151 338.612 C 412.933 379.958,424.285 413.786,424.377 413.786 C 424.569 413.786,457.380 402.847,458.923 402.269 C 459.606 402.013,450.812 374.506,432.151 318.531 C 416.867 272.685,404.362 234.883,404.362 234.527 C 404.362 234.170,420.554 233.879,440.344 233.879 L 476.325 233.879 476.325 215.032 L 476.325 196.184 434.775 196.184 L 393.225 196.184 393.225 175.624 L 393.225 155.063 373.950 155.063 L 354.674 155.063 354.674 175.624 " stroke="none" fill-rule="evenodd" fill="black"></path></svg>