<svg width="136mm" height="120mm" version="1.1" viewBox="0 0 600 529.4117647058824" xmlns="http://www.w3.org/2000/svg"><path d="M340.110 226.597 L 340.110 415.500 358.957 415.500 L 377.805 415.500 377.805 226.597 L 377.805 37.695 358.957 37.695 L 340.110 37.695 340.110 226.597 M166.200 154.634 C 166.200 208.585,165.911 252.723,165.557 252.718 C 165.204 252.714,162.847 251.525,160.321 250.076 C 153.763 246.315,145.680 237.753,141.903 230.566 C 136.486 220.258,136.247 217.805,136.230 172.411 L 136.215 131.932 117.319 131.932 L 98.424 131.932 98.748 177.123 C 99.059 220.492,99.148 222.579,100.945 228.902 C 106.592 248.765,116.409 263.779,131.719 275.966 C 139.009 281.768,152.232 288.616,160.417 290.827 L 166.200 292.389 166.200 344.521 L 166.200 396.652 185.047 396.652 L 203.895 396.652 203.895 344.489 L 203.895 292.325 207.107 291.723 C 212.474 290.716,223.870 285.823,230.557 281.655 C 253.979 267.053,268.417 244.038,271.546 216.317 C 272.025 212.076,272.420 191.347,272.424 170.253 L 272.431 131.899 253.369 132.130 L 234.307 132.360 233.879 176.052 C 233.457 219.070,233.421 219.818,231.495 224.580 C 228.897 231.005,223.822 238.623,219.209 243.022 C 215.011 247.025,206.654 252.727,204.985 252.727 C 204.109 252.727,203.895 233.474,203.895 154.634 L 203.895 56.542 185.047 56.542 L 166.200 56.542 166.200 154.634 " stroke="none" fill-rule="evenodd" fill="black"></path></svg>