<svg width="136mm" height="120mm" version="1.1" viewBox="0 0 600 529.4117647058824" xmlns="http://www.w3.org/2000/svg"><path d="M340.110 226.597 L 340.110 415.500 358.957 415.500 L 377.805 415.500 377.805 226.597 L 377.805 37.695 358.957 37.695 L 340.110 37.695 340.110 226.597 M166.200 154.634 C 166.200 208.585,165.992 252.727,165.737 252.727 C 164.470 252.727,158.299 249.027,154.322 245.883 C 149.255 241.879,143.062 233.898,140.441 227.997 C 136.462 219.038,136.241 216.146,136.228 172.839 L 136.215 131.932 117.320 131.932 L 98.424 131.932 98.714 177.551 L 99.004 223.170 101.337 230.696 C 106.350 246.865,113.950 259.563,124.806 269.907 C 135.312 279.917,148.347 287.556,160.568 290.865 L 166.200 292.389 166.200 344.521 L 166.200 396.652 185.047 396.652 L 203.895 396.652 203.895 344.489 L 203.895 292.325 207.107 291.723 C 212.474 290.716,223.870 285.823,230.557 281.655 C 253.808 267.160,268.160 244.438,271.543 216.768 C 272.035 212.741,272.431 192.230,272.431 170.704 L 272.431 131.899 253.369 132.130 L 234.307 132.360 233.879 176.052 C 233.457 219.070,233.421 219.818,231.495 224.580 C 228.897 231.005,223.822 238.623,219.209 243.022 C 215.011 247.025,206.654 252.727,204.985 252.727 C 204.109 252.727,203.895 233.474,203.895 154.634 L 203.895 56.542 185.047 56.542 L 166.200 56.542 166.200 154.634 " stroke="none" fill-rule="evenodd" fill="black"></path></svg>