<svg width="136mm" height="120mm" version="1.1" viewBox="0 0 600 529.4117647058824" xmlns="http://www.w3.org/2000/svg"><path d="M340.110 226.597 L 340.110 415.500 358.957 415.500 L 377.805 415.500 377.805 226.597 L 377.805 37.695 358.957 37.695 L 340.110 37.695 340.110 226.597 M166.200 154.634 C 166.200 208.585,165.874 252.727,165.476 252.727 C 165.078 252.727,162.313 251.150,159.331 249.223 C 151.742 244.317,145.279 237.278,141.776 230.102 C 136.278 218.838,136.215 218.189,136.215 172.873 L 136.215 131.932 117.319 131.932 L 98.424 131.932 98.734 177.123 L 99.044 222.314 101.365 230.348 C 109.830 259.647,132.539 282.902,160.507 290.911 L 166.200 292.542 166.200 344.597 L 166.200 396.652 185.041 396.652 L 203.881 396.652 204.102 344.722 L 204.323 292.792 211.735 290.376 C 241.078 280.813,262.204 257.682,270.024 226.556 C 271.893 219.116,271.951 217.594,271.976 175.624 L 272.002 132.360 253.433 132.129 L 234.865 131.899 234.526 173.679 C 234.152 219.768,234.101 220.248,228.498 230.788 C 223.867 239.500,213.253 249.404,205.394 252.348 C 203.971 252.881,203.895 247.877,203.895 154.726 L 203.895 56.542 185.047 56.542 L 166.200 56.542 166.200 154.634 " stroke="none" fill-rule="evenodd" fill="black"></path></svg>