<svg width="136mm" height="120mm" version="1.1" viewBox="0 0 600 529.4117647058824" xmlns="http://www.w3.org/2000/svg"><path d="M238.163 54.829 L 238.163 71.963 170.055 71.963 L 101.947 71.963 101.947 90.810 L 101.947 109.658 111.371 109.658 L 120.795 109.658 120.795 117.368 L 120.795 125.078 79.228 125.078 L 37.661 125.078 37.892 143.711 L 38.123 162.345 73.462 162.568 C 92.898 162.691,108.801 162.982,108.801 163.214 C 108.801 163.447,99.356 182.524,87.812 205.608 C 76.268 228.692,66.823 247.772,66.823 248.007 C 66.823 248.242,73.858 251.987,82.457 256.329 C 93.624 261.967,97.537 264.312,96.148 264.534 L 94.204 264.844 94.435 283.415 L 94.665 301.987 152.912 302.207 L 211.158 302.427 165.116 348.475 L 119.074 394.524 132.360 407.789 L 145.647 421.055 201.328 365.379 L 257.010 309.702 312.692 365.379 L 368.373 421.055 381.660 407.789 L 394.946 394.524 348.904 348.475 L 302.862 302.427 361.108 302.207 L 419.355 301.987 419.585 283.415 L 419.816 264.844 417.872 264.534 C 416.483 264.312,420.396 261.967,431.563 256.329 C 440.162 251.987,447.197 248.242,447.197 248.007 C 447.197 247.772,437.752 228.692,426.208 205.608 C 414.664 182.524,405.219 163.447,405.219 163.214 C 405.219 162.982,421.122 162.691,440.558 162.568 L 475.897 162.345 476.128 143.711 L 476.359 125.078 434.792 125.078 L 393.225 125.078 393.225 117.368 L 393.225 109.658 402.649 109.658 L 412.073 109.658 412.073 90.810 L 412.073 71.963 343.965 71.963 L 275.857 71.963 275.857 54.829 L 275.857 37.695 257.010 37.695 L 238.163 37.695 238.163 54.829 M354.674 117.368 L 354.674 125.078 313.552 125.078 L 272.431 125.078 272.431 143.926 L 272.431 162.773 307.555 162.773 C 326.874 162.773,342.680 162.967,342.680 163.205 C 342.680 163.442,333.235 182.524,321.691 205.608 C 310.147 228.692,300.702 247.772,300.702 248.007 C 300.702 248.242,307.641 251.908,316.122 256.153 C 324.604 260.399,331.543 264.063,331.543 264.296 C 331.543 264.530,319.014 264.720,303.700 264.720 L 275.857 264.720 275.857 243.731 L 275.857 222.742 257.010 222.742 L 238.163 222.742 238.163 243.731 L 238.163 264.720 210.320 264.720 C 195.006 264.720,182.477 264.530,182.477 264.296 C 182.477 264.063,189.416 260.399,197.898 256.153 C 206.379 251.908,213.318 248.242,213.318 248.007 C 213.318 247.772,203.873 228.692,192.329 205.608 C 180.785 182.524,171.340 163.442,171.340 163.205 C 171.340 162.967,187.146 162.773,206.465 162.773 L 241.589 162.773 241.589 143.926 L 241.589 125.078 200.468 125.078 L 159.346 125.078 159.346 117.368 L 159.346 109.658 257.010 109.658 L 354.674 109.658 354.674 117.368 M179.004 264.078 C 179.029 264.431,161.509 264.720,140.070 264.720 C 118.632 264.720,101.091 264.529,101.091 264.294 C 101.091 264.060,109.860 246.325,120.577 224.884 L 140.064 185.899 159.510 224.667 C 170.206 245.990,178.978 263.724,179.004 264.078 M412.883 264.078 C 412.908 264.431,395.388 264.720,373.950 264.720 C 352.511 264.720,334.970 264.529,334.970 264.294 C 334.970 264.060,343.739 246.325,354.457 224.884 L 373.943 185.899 393.390 224.667 C 404.085 245.990,412.857 263.724,412.883 264.078 " stroke="none" fill-rule="evenodd" fill="black"></path></svg>