<svg width="136mm" height="120mm" version="1.1" viewBox="0 0 600 529.4117647058824" xmlns="http://www.w3.org/2000/svg"><path d="M238.163 54.829 L 238.163 71.963 170.055 71.963 L 101.947 71.963 101.947 90.810 L 101.947 109.658 111.371 109.658 L 120.795 109.658 120.795 116.931 L 120.795 124.205 79.459 124.427 L 38.123 124.650 38.123 143.497 L 38.123 162.345 73.462 162.568 C 92.898 162.691,108.801 162.982,108.801 163.214 C 108.801 163.447,99.356 182.524,87.812 205.608 C 76.268 228.692,66.823 247.772,66.823 248.007 C 66.823 248.242,73.858 251.987,82.457 256.329 C 93.624 261.967,97.537 264.312,96.148 264.534 L 94.204 264.844 94.435 283.415 L 94.665 301.987 152.912 302.207 L 211.158 302.427 165.116 348.475 L 119.074 394.524 132.360 407.789 L 145.647 421.055 201.328 365.379 L 257.010 309.702 312.692 365.379 L 368.373 421.055 381.660 407.789 L 394.946 394.524 348.904 348.475 L 302.862 302.427 361.108 302.207 L 419.355 301.987 419.585 283.415 L 419.816 264.844 417.872 264.534 C 416.483 264.312,420.396 261.967,431.563 256.329 C 440.162 251.987,447.197 248.242,447.197 248.007 C 447.197 247.772,437.752 228.692,426.208 205.608 C 414.664 182.524,405.219 163.447,405.219 163.214 C 405.219 162.982,421.122 162.691,440.558 162.568 L 475.897 162.345 475.897 143.497 L 475.897 124.650 434.561 124.427 L 393.225 124.205 393.225 116.931 L 393.225 109.658 402.649 109.658 L 412.073 109.658 412.073 90.810 L 412.073 71.963 343.965 71.963 L 275.857 71.963 275.857 54.829 L 275.857 37.695 257.010 37.695 L 238.163 37.695 238.163 54.829 M355.531 116.940 L 355.531 124.222 313.981 124.222 L 272.431 124.222 272.431 143.497 L 272.431 162.773 307.985 162.773 L 343.540 162.773 322.121 205.604 L 300.703 248.434 316.123 256.154 C 324.604 260.399,331.543 264.063,331.543 264.296 C 331.543 264.530,319.014 264.720,303.700 264.720 L 275.857 264.720 275.857 243.731 L 275.857 222.742 257.010 222.742 L 238.163 222.742 238.163 243.731 L 238.163 264.720 210.320 264.720 C 195.006 264.720,182.477 264.530,182.477 264.296 C 182.477 264.063,189.416 260.399,197.897 256.154 L 213.317 248.434 191.899 205.604 L 170.480 162.773 206.035 162.773 L 241.589 162.773 241.589 143.497 L 241.589 124.222 200.039 124.222 L 158.489 124.222 158.489 116.940 L 158.489 109.658 257.010 109.658 L 355.531 109.658 355.531 116.940 M179.004 264.078 C 179.029 264.431,161.509 264.720,140.070 264.720 C 114.543 264.720,101.091 264.423,101.091 263.860 C 101.091 263.387,109.813 245.558,120.473 224.241 L 139.856 185.483 159.407 224.459 C 170.159 245.896,178.978 263.724,179.004 264.078 M393.652 224.452 C 404.254 245.653,412.929 263.387,412.929 263.860 C 412.929 264.423,399.477 264.720,373.950 264.720 C 352.511 264.720,334.970 264.529,334.970 264.294 C 334.970 263.733,373.877 185.904,374.157 185.904 C 374.277 185.904,383.049 203.250,393.652 224.452 " stroke="none" fill-rule="evenodd" fill="black"></path></svg>