<svg width="136mm" height="120mm" version="1.1" viewBox="0 0 600 529.4117647058824" xmlns="http://www.w3.org/2000/svg"><path d="M238.163 54.829 L 238.163 71.963 170.055 71.963 L 101.947 71.963 101.947 90.810 L 101.947 109.658 111.371 109.658 L 120.795 109.658 120.795 117.368 L 120.795 125.078 79.245 125.078 L 37.695 125.078 37.695 143.926 L 37.695 162.773 73.319 162.773 C 92.913 162.773,108.815 163.079,108.658 163.452 C 108.501 163.826,98.818 183.093,87.141 206.269 L 65.910 248.406 81.573 256.296 C 90.675 260.881,96.607 264.324,95.736 264.516 C 94.364 264.818,94.237 266.437,94.237 283.631 L 94.237 302.415 152.704 302.415 L 211.171 302.415 165.122 348.469 L 119.074 394.524 132.360 407.789 L 145.647 421.055 201.328 365.379 L 257.010 309.702 312.692 365.379 L 368.373 421.055 381.660 407.789 L 394.946 394.524 348.898 348.469 L 302.849 302.415 361.316 302.415 L 419.783 302.415 419.783 283.631 C 419.783 266.437,419.656 264.818,418.284 264.516 C 417.413 264.324,423.358 260.875,432.475 256.282 L 448.166 248.378 426.692 206.011 C 414.882 182.709,405.219 163.448,405.219 163.208 C 405.219 162.969,421.218 162.773,440.772 162.773 L 476.325 162.773 476.325 143.926 L 476.325 125.078 434.775 125.078 L 393.225 125.078 393.225 117.368 L 393.225 109.658 402.649 109.658 L 412.073 109.658 412.073 90.810 L 412.073 71.963 343.965 71.963 L 275.857 71.963 275.857 54.829 L 275.857 37.695 257.010 37.695 L 238.163 37.695 238.163 54.829 M355.350 117.154 L 355.102 124.650 313.766 124.872 L 272.431 125.095 272.431 143.934 L 272.431 162.773 308.036 162.773 L 343.641 162.773 322.386 204.874 C 310.695 228.029,301.007 247.289,300.856 247.674 C 300.705 248.059,307.548 251.861,316.062 256.123 C 324.577 260.385,331.543 264.063,331.543 264.296 C 331.543 264.530,319.014 264.720,303.700 264.720 L 275.857 264.720 275.857 243.731 L 275.857 222.742 257.010 222.742 L 238.163 222.742 238.163 243.731 L 238.163 264.720 210.320 264.720 C 195.006 264.720,182.477 264.530,182.477 264.296 C 182.477 264.063,189.416 260.399,197.897 256.154 L 213.317 248.434 191.899 205.604 L 170.480 162.773 206.035 162.773 L 241.589 162.773 241.589 143.934 L 241.589 125.095 200.254 124.872 L 158.918 124.650 158.670 117.154 L 158.423 109.658 257.010 109.658 L 355.597 109.658 355.350 117.154 M179.004 264.078 C 179.029 264.431,161.509 264.720,140.070 264.720 C 114.543 264.720,101.091 264.423,101.091 263.860 C 101.091 263.387,109.813 245.558,120.473 224.241 L 139.856 185.483 159.407 224.459 C 170.159 245.896,178.978 263.724,179.004 264.078 M393.652 224.452 C 404.254 245.653,412.929 263.387,412.929 263.860 C 412.929 264.423,399.477 264.720,373.950 264.720 C 352.511 264.720,334.970 264.529,334.970 264.294 C 334.970 263.733,373.877 185.904,374.157 185.904 C 374.277 185.904,383.049 203.250,393.652 224.452 " stroke="none" fill-rule="evenodd" fill="black"></path></svg>