<svg width="136mm" height="120mm" version="1.1" viewBox="0 0 600 529.4117647058824" xmlns="http://www.w3.org/2000/svg"><path d="M167.061 180.331 L 77.543 269.852 90.810 283.139 L 104.077 296.427 180.543 219.964 L 257.010 143.501 333.477 219.964 L 409.943 296.427 423.210 283.139 L 436.477 269.852 346.959 180.331 C 297.724 131.095,257.247 90.810,257.010 90.810 C 256.773 90.810,216.296 131.095,167.061 180.331 M237.956 281.212 L 237.734 328.544 188.671 328.766 L 139.609 328.987 139.840 347.613 L 140.070 366.239 253.369 366.457 L 366.668 366.674 366.668 347.831 L 366.668 328.988 321.477 328.766 L 276.286 328.544 276.064 281.212 L 275.843 233.879 257.010 233.879 L 238.177 233.879 237.956 281.212 " stroke="none" fill-rule="evenodd" fill="black"></path></svg>