<svg width="136mm" height="120mm" version="1.1" viewBox="0 0 600 529.4117647058824" xmlns="http://www.w3.org/2000/svg"><path d="M167.061 180.331 L 77.543 269.852 90.810 283.139 L 104.077 296.427 180.543 219.964 L 257.010 143.501 333.477 219.964 L 409.943 296.427 423.210 283.139 L 436.477 269.852 346.959 180.331 C 297.724 131.095,257.247 90.810,257.010 90.810 C 256.773 90.810,216.296 131.095,167.061 180.331 M238.163 281.426 L 238.163 328.973 188.886 328.973 L 139.609 328.973 139.840 347.606 L 140.070 366.239 253.155 366.239 L 366.239 366.239 366.470 347.606 L 366.701 328.973 321.279 328.973 L 275.857 328.973 275.857 281.426 L 275.857 233.879 257.010 233.879 L 238.163 233.879 238.163 281.426 " stroke="none" fill-rule="evenodd" fill="black"></path></svg>