<svg width="136mm" height="120mm" version="1.1" viewBox="0 0 600 529.4117647058824" xmlns="http://www.w3.org/2000/svg"><path d="M103.013 123.585 L 47.111 179.491 60.397 192.757 L 73.683 206.023 116.086 163.626 L 158.489 121.230 200.896 163.630 L 243.303 206.030 256.794 192.539 L 270.285 179.048 214.600 123.363 L 158.915 67.678 103.013 123.585 M294.705 77.531 L 294.705 87.383 285.281 87.383 L 275.857 87.383 275.857 106.231 L 275.857 125.078 285.281 125.078 L 294.705 125.078 294.735 141.141 C 294.767 158.662,295.757 166.281,299.317 176.404 C 312.944 215.149,356.278 235.850,395.285 222.247 C 414.006 215.718,429.452 201.912,438.194 183.894 C 444.165 171.586,445.520 164.626,446.092 143.311 L 446.580 125.134 455.670 124.892 L 464.760 124.650 464.991 106.017 L 465.222 87.383 455.809 87.383 L 446.397 87.383 446.155 77.746 L 445.912 68.108 427.065 68.108 L 408.218 68.108 407.975 77.755 L 407.733 87.401 370.280 87.178 L 332.828 86.955 332.586 77.317 L 332.343 67.679 313.524 67.679 L 294.705 67.679 294.705 77.531 M407.789 141.631 C 407.789 154.688,407.494 159.050,406.392 162.285 C 404.253 168.562,401.346 173.241,396.829 177.676 C 389.161 185.206,381.199 188.479,370.584 188.465 C 359.144 188.449,351.881 185.486,343.984 177.613 C 334.706 168.362,332.479 160.674,332.428 137.715 L 332.400 125.078 370.094 125.078 L 407.789 125.078 407.789 141.631 M139.642 256.952 L 139.642 339.993 129.639 336.632 C 124.138 334.784,119.564 333.365,119.476 333.478 C 118.339 334.940,107.953 368.715,108.490 369.206 C 108.897 369.577,124.072 374.804,142.212 380.822 C 160.353 386.840,175.677 391.941,176.266 392.158 C 177.119 392.472,177.337 370.327,177.337 283.231 L 177.337 173.910 158.489 173.910 L 139.642 173.910 139.642 256.952 M83.314 241.454 C 74.244 245.993,66.823 250.003,66.823 250.365 C 66.823 251.361,100.173 317.836,100.673 317.836 C 101.801 317.836,133.639 301.470,133.599 300.912 C 133.573 300.561,125.959 285.182,116.679 266.737 L 99.806 233.200 83.314 241.454 M200.331 267.556 L 183.499 301.233 200.128 309.534 C 209.274 314.100,216.946 317.836,217.177 317.836 C 217.593 317.836,251.013 251.420,251.013 250.593 C 251.013 250.098,218.804 233.879,217.819 233.879 C 217.459 233.879,209.589 249.034,200.331 267.556 M294.705 243.303 L 294.705 252.727 285.281 252.727 L 275.857 252.727 275.857 272.002 L 275.857 291.278 285.281 291.278 L 294.705 291.278 294.735 307.341 C 294.767 324.862,295.757 332.481,299.317 342.604 C 314.725 386.414,366.783 405.754,407.680 382.861 C 420.297 375.798,431.623 363.636,438.194 350.093 C 444.165 337.786,445.520 330.826,446.092 309.511 L 446.580 291.334 455.670 291.092 L 464.760 290.850 464.990 271.788 L 465.221 252.727 455.810 252.727 L 446.399 252.727 446.156 243.517 L 445.912 234.307 427.065 234.307 L 408.218 234.307 407.974 243.517 L 407.731 252.727 370.065 252.727 L 332.400 252.727 332.400 243.303 L 332.400 233.879 313.552 233.879 L 294.705 233.879 294.705 243.303 M407.623 309.055 L 407.361 326.831 404.618 332.621 C 397.968 346.660,385.427 354.674,370.105 354.674 C 351.346 354.674,335.589 340.842,333.194 322.273 C 332.788 319.126,332.443 310.864,332.428 303.914 L 332.400 291.278 370.142 291.278 L 407.885 291.278 407.623 309.055 " stroke="none" fill-rule="evenodd" fill="black"></path></svg>