<svg width="136mm" height="120mm" version="1.1" viewBox="0 0 600 529.4117647058824" xmlns="http://www.w3.org/2000/svg"><path d="M103.013 123.585 L 47.111 179.491 60.397 192.757 L 73.683 206.023 115.875 163.837 C 139.081 140.635,158.450 121.651,158.918 121.651 C 159.386 121.651,178.663 140.543,201.756 163.633 L 243.745 205.615 257.011 192.328 L 270.278 179.041 214.596 123.359 L 158.915 67.678 103.013 123.585 M294.705 77.103 L 294.705 86.527 285.281 86.527 L 275.857 86.527 275.857 105.374 L 275.857 124.222 285.281 124.222 L 294.705 124.222 294.705 140.387 C 294.705 164.482,297.202 175.655,305.889 190.431 C 310.547 198.353,323.095 210.834,331.129 215.534 C 345.346 223.853,356.419 226.576,373.505 225.954 C 383.027 225.608,386.382 225.115,392.369 223.181 C 417.164 215.172,434.331 198.020,442.538 173.053 C 444.809 166.144,444.957 164.721,445.422 145.211 L 445.912 124.650 455.122 124.407 L 464.331 124.164 464.331 105.345 L 464.331 86.527 454.908 86.527 L 445.484 86.527 445.484 77.086 L 445.484 67.646 426.851 67.877 L 408.218 68.108 407.974 77.317 L 407.731 86.527 370.065 86.527 L 332.400 86.527 332.400 77.103 L 332.400 67.679 313.552 67.679 L 294.705 67.679 294.705 77.103 M407.636 142.475 L 407.361 160.729 404.176 167.169 C 400.230 175.146,393.775 181.495,385.736 185.303 C 380.264 187.895,379.404 188.046,370.076 188.046 C 360.563 188.046,359.990 187.939,354.227 185.103 C 343.680 179.911,335.739 169.846,333.364 158.662 C 332.336 153.824,332.011 125.753,332.971 124.793 C 333.285 124.479,350.275 124.222,370.726 124.222 L 407.911 124.222 407.636 142.475 M139.642 256.952 L 139.642 339.993 129.639 336.632 C 124.138 334.784,119.564 333.365,119.476 333.478 C 118.339 334.940,107.953 368.715,108.490 369.206 C 108.897 369.577,124.072 374.804,142.212 380.822 C 160.353 386.840,175.677 391.941,176.266 392.158 C 177.119 392.472,177.337 370.327,177.337 283.231 L 177.337 173.910 158.489 173.910 L 139.642 173.910 139.642 256.952 M83.803 241.503 C 75.002 246.027,67.559 249.975,67.263 250.277 C 66.722 250.828,99.859 317.836,100.673 317.836 C 102.038 317.836,133.645 301.403,133.645 300.693 C 133.645 299.771,100.371 232.937,100.018 233.150 C 99.901 233.221,92.605 236.980,83.803 241.503 M200.331 267.556 L 183.499 301.233 200.128 309.534 C 209.274 314.100,216.946 317.836,217.177 317.836 C 217.593 317.836,251.013 251.420,251.013 250.593 C 251.013 250.098,218.804 233.879,217.819 233.879 C 217.459 233.879,209.589 249.034,200.331 267.556 M294.705 243.303 L 294.705 252.727 285.281 252.727 L 275.857 252.727 275.857 271.574 L 275.857 290.421 285.281 290.421 L 294.705 290.421 294.705 306.586 C 294.705 317.227,295.151 325.312,296.011 330.243 C 298.506 344.548,304.940 357.500,314.889 368.246 C 325.261 379.449,338.786 387.325,353.484 390.721 C 364.993 393.381,381.776 392.802,392.369 389.381 C 417.164 381.371,434.331 364.220,442.538 339.253 C 444.809 332.343,444.957 330.920,445.422 311.410 L 445.912 290.850 455.122 290.606 L 464.331 290.363 464.331 271.545 L 464.331 252.727 454.908 252.727 L 445.484 252.727 445.484 243.286 L 445.484 233.846 426.851 234.077 L 408.218 234.307 407.974 243.517 L 407.731 252.727 370.065 252.727 L 332.400 252.727 332.400 243.303 L 332.400 233.879 313.552 233.879 L 294.705 233.879 294.705 243.303 M407.636 308.675 L 407.361 326.929 404.176 333.369 C 400.230 341.346,393.775 347.695,385.736 351.503 C 380.266 354.094,379.402 354.245,370.094 354.245 C 360.626 354.245,360.010 354.132,354.269 351.326 C 343.839 346.229,336.688 337.368,333.678 325.809 C 332.363 320.760,331.782 292.181,332.971 290.992 C 333.285 290.678,350.275 290.421,370.726 290.421 L 407.911 290.421 407.636 308.675 " stroke="none" fill-rule="evenodd" fill="black"></path></svg>