<svg width="136mm" height="120mm" version="1.1" viewBox="0 0 600 529.4117647058824" xmlns="http://www.w3.org/2000/svg"><path d="M103.013 123.585 L 47.111 179.491 60.397 192.757 L 73.683 206.023 115.875 163.837 C 139.081 140.635,158.450 121.651,158.918 121.651 C 159.386 121.651,178.663 140.543,201.756 163.633 L 243.745 205.615 257.011 192.328 L 270.278 179.041 214.596 123.359 L 158.915 67.678 103.013 123.585 M294.705 77.531 L 294.705 87.383 285.281 87.383 L 275.857 87.383 275.857 106.231 L 275.857 125.078 285.281 125.078 L 294.705 125.078 294.716 141.570 C 294.732 164.974,297.207 175.753,305.941 190.454 C 310.187 197.601,318.973 207.069,326.036 212.109 C 358.004 234.921,401.982 229.865,427.290 200.468 C 441.478 183.987,446.338 167.658,446.340 136.458 L 446.341 125.136 455.550 124.893 L 464.760 124.650 464.991 106.017 L 465.222 87.383 455.809 87.383 L 446.397 87.383 446.155 77.746 L 445.912 68.108 426.851 67.877 L 407.789 67.647 407.789 77.524 L 407.789 87.401 370.309 87.178 L 332.828 86.955 332.586 77.317 L 332.343 67.679 313.524 67.679 L 294.705 67.679 294.705 77.531 M407.650 142.855 L 407.361 160.631 404.650 166.354 C 395.143 186.421,371.975 194.328,352.219 184.249 C 346.774 181.472,339.402 173.563,336.524 167.413 C 333.301 160.527,332.438 154.376,332.417 138.143 L 332.400 125.078 370.169 125.078 L 407.939 125.078 407.650 142.855 M139.642 256.952 L 139.642 339.993 129.639 336.632 C 124.138 334.784,119.564 333.365,119.476 333.478 C 118.339 334.940,107.953 368.715,108.490 369.206 C 109.217 369.870,176.299 392.369,177.551 392.369 C 177.905 392.369,178.194 343.215,178.194 283.139 L 178.194 173.910 158.918 173.910 L 139.642 173.910 139.642 256.952 M82.886 242.068 C 74.051 246.521,66.823 250.358,66.823 250.593 C 66.823 251.438,100.248 317.836,100.673 317.836 C 102.030 317.836,133.645 301.405,133.645 300.700 C 133.645 299.003,100.648 233.880,99.811 233.925 C 99.337 233.950,91.720 237.614,82.886 242.068 M200.331 267.556 L 183.499 301.233 200.128 309.534 C 209.274 314.100,216.946 317.836,217.177 317.836 C 217.593 317.836,251.013 251.420,251.013 250.593 C 251.013 250.098,218.804 233.879,217.819 233.879 C 217.459 233.879,209.589 249.034,200.331 267.556 M294.705 243.303 L 294.705 252.727 285.281 252.727 L 275.857 252.727 275.857 272.002 L 275.857 291.278 285.281 291.278 L 294.705 291.278 294.716 307.769 C 294.725 320.600,295.089 326.012,296.356 332.151 C 302.412 361.500,325.123 384.445,354.650 391.045 C 362.090 392.708,375.899 392.960,383.503 391.572 C 401.338 388.317,417.944 378.358,429.241 364.143 C 442.041 348.038,446.338 332.587,446.340 302.658 L 446.341 291.336 455.550 291.093 L 464.760 290.850 464.760 272.002 L 464.760 253.155 455.579 252.912 L 446.398 252.669 446.155 243.488 L 445.912 234.307 426.851 234.077 L 407.789 233.846 407.789 243.286 L 407.789 252.727 370.094 252.727 L 332.400 252.727 332.400 243.303 L 332.400 233.879 313.552 233.879 L 294.705 233.879 294.705 243.303 M407.779 306.913 C 407.765 328.528,405.613 335.438,396.090 344.444 C 389.281 350.884,381.788 354.079,372.445 354.525 C 360.321 355.105,352.046 352.009,343.873 343.835 C 338.178 338.141,334.336 330.561,333.215 322.810 C 332.786 319.838,332.426 311.528,332.417 304.343 L 332.400 291.278 370.094 291.278 L 407.789 291.278 407.779 306.913 " stroke="none" fill-rule="evenodd" fill="black"></path></svg>