<svg width="136mm" height="120mm" version="1.1" viewBox="0 0 600 529.4117647058824" xmlns="http://www.w3.org/2000/svg"><path d="M245.445 38.635 C 223.120 40.955,201.914 51.141,185.252 67.546 C 154.099 98.219,146.255 146.235,165.987 185.476 C 183.162 219.631,218.775 241.584,257.010 241.584 C 291.131 241.584,323.942 223.800,342.269 195.372 C 360.063 167.771,363.688 135.289,352.451 104.131 C 343.427 79.112,322.364 56.935,297.703 46.489 C 285.444 41.296,279.963 39.868,267.414 38.595 C 257.580 37.597,255.391 37.601,245.445 38.635 M238.163 99.377 L 238.163 120.795 216.758 120.795 L 195.353 120.795 197.104 116.297 C 202.939 101.313,217.218 86.801,232.594 80.227 C 235.421 79.019,237.831 78.014,237.948 77.995 C 238.066 77.976,238.163 87.598,238.163 99.377 M283.139 80.974 C 296.681 86.702,311.243 101.940,316.896 116.297 L 318.667 120.795 297.262 120.795 L 275.857 120.795 275.857 99.398 L 275.857 78.002 277.785 78.763 C 278.845 79.182,281.255 80.176,283.139 80.974 M238.163 179.869 L 238.163 201.248 234.668 200.015 C 218.589 194.343,202.325 178.108,196.674 162.089 L 195.404 158.489 216.783 158.489 L 238.163 158.489 238.163 179.869 M317.346 162.089 C 311.695 178.108,295.431 194.343,279.352 200.015 L 275.857 201.248 275.857 179.869 L 275.857 158.489 297.237 158.489 L 318.616 158.489 317.346 162.089 M150.977 275.643 L 151.208 294.276 194.685 294.498 L 238.163 294.721 238.163 309.705 L 238.163 324.689 179.479 324.689 L 120.795 324.689 120.795 343.537 L 120.795 362.384 179.479 362.384 L 238.163 362.384 238.163 388.942 L 238.163 415.500 257.010 415.500 L 275.857 415.500 275.857 388.942 L 275.857 362.384 334.541 362.384 L 393.225 362.384 393.225 343.537 L 393.225 324.689 334.541 324.689 L 275.857 324.689 275.857 309.705 L 275.857 294.721 319.335 294.498 L 362.812 294.276 363.043 275.643 L 363.274 257.010 257.010 257.010 L 150.746 257.010 150.977 275.643 " stroke="none" fill-rule="evenodd" fill="black"></path></svg>