<svg width="136mm" height="120mm" version="1.1" viewBox="0 0 600 529.4117647058824" xmlns="http://www.w3.org/2000/svg"><path d="M245.445 38.635 C 206.663 42.666,173.208 69.748,160.359 107.516 C 142.359 160.420,171.502 218.542,224.966 236.366 C 278.195 254.113,335.920 225.117,353.734 171.686 C 370.722 120.734,344.807 65.190,294.705 45.164 C 285.575 41.515,277.702 39.617,267.290 38.555 C 258.087 37.616,255.146 37.627,245.445 38.635 M238.163 99.377 L 238.163 120.795 216.783 120.795 L 195.404 120.795 196.674 117.195 C 201.873 102.458,216.994 86.896,232.594 80.227 C 235.421 79.019,237.831 78.014,237.948 77.995 C 238.066 77.976,238.163 87.598,238.163 99.377 M283.139 80.974 C 296.659 86.693,311.710 102.436,317.020 116.413 L 318.685 120.795 297.271 120.795 L 275.857 120.795 275.857 99.398 L 275.857 78.002 277.785 78.763 C 278.845 79.182,281.255 80.176,283.139 80.974 M238.163 179.869 L 238.163 201.248 234.889 200.093 C 218.548 194.328,202.373 178.242,196.674 162.089 L 195.404 158.489 216.783 158.489 L 238.163 158.489 238.163 179.869 M317.346 162.089 C 311.647 178.242,295.472 194.328,279.131 200.093 L 275.857 201.248 275.857 179.869 L 275.857 158.489 297.237 158.489 L 318.616 158.489 317.346 162.089 M150.977 275.643 L 151.208 294.276 194.685 294.498 L 238.163 294.721 238.163 309.705 L 238.163 324.689 179.479 324.689 L 120.795 324.689 120.795 343.537 L 120.795 362.384 179.479 362.384 L 238.163 362.384 238.163 388.942 L 238.163 415.500 257.010 415.500 L 275.857 415.500 275.857 388.942 L 275.857 362.384 334.541 362.384 L 393.225 362.384 393.225 343.537 L 393.225 324.689 334.541 324.689 L 275.857 324.689 275.857 309.705 L 275.857 294.721 319.335 294.498 L 362.812 294.276 363.043 275.643 L 363.274 257.010 257.010 257.010 L 150.746 257.010 150.977 275.643 " stroke="none" fill-rule="evenodd" fill="black"></path></svg>