<svg width="136mm" height="120mm" version="1.1" viewBox="0 0 600 529.4117647058824" xmlns="http://www.w3.org/2000/svg"><path d="M242.018 38.900 C 232.256 40.538,225.542 42.434,217.527 45.814 C 162.657 68.955,139.243 133.774,166.643 186.679 C 191.784 235.222,251.382 255.257,300.580 231.704 C 312.083 226.198,319.717 220.828,328.546 212.033 C 386.384 154.419,357.188 56.609,277.142 39.827 C 267.953 37.901,250.685 37.445,242.018 38.900 M238.163 99.806 L 238.163 120.795 217.081 120.795 L 195.999 120.795 196.582 118.439 C 197.444 114.961,201.942 106.377,205.314 101.773 C 210.626 94.521,219.836 86.792,228.083 82.663 C 232.309 80.547,236.306 78.816,236.965 78.816 C 237.958 78.816,238.163 82.398,238.163 99.806 M286.265 82.820 C 292.900 86.136,295.613 88.160,302.052 94.600 C 308.492 101.039,310.517 103.752,313.832 110.387 C 316.034 114.794,317.836 118.938,317.836 119.597 C 317.836 120.590,314.254 120.795,296.847 120.795 L 275.857 120.795 275.857 99.806 C 275.857 82.398,276.062 78.816,277.055 78.816 C 277.714 78.816,281.859 80.618,286.265 82.820 M238.163 179.894 L 238.163 201.299 233.665 199.532 C 218.343 193.512,204.865 180.638,198.268 165.723 C 194.830 157.949,193.419 158.489,217.173 158.489 L 238.163 158.489 238.163 179.894 M317.836 159.666 C 317.836 162.878,310.825 175.503,305.644 181.620 C 299.556 188.808,289.472 195.950,280.355 199.532 L 275.857 201.299 275.857 179.894 L 275.857 158.489 296.847 158.489 C 314.069 158.489,317.836 158.701,317.836 159.666 M151.636 275.857 L 151.636 294.705 194.899 294.705 L 238.163 294.705 238.163 309.697 L 238.163 324.689 179.479 324.689 L 120.795 324.689 120.795 343.537 L 120.795 362.384 179.479 362.384 L 238.163 362.384 238.163 388.942 L 238.163 415.500 257.010 415.500 L 275.857 415.500 275.857 388.942 L 275.857 362.384 334.541 362.384 L 393.225 362.384 393.225 343.537 L 393.225 324.689 334.541 324.689 L 275.857 324.689 275.857 309.697 L 275.857 294.705 319.121 294.705 L 362.384 294.705 362.384 275.857 L 362.384 257.010 257.010 257.010 L 151.636 257.010 151.636 275.857 " stroke="none" fill-rule="evenodd" fill="black"></path></svg>