<svg width="136mm" height="120mm" version="1.1" viewBox="0 0 600 529.4117647058824" xmlns="http://www.w3.org/2000/svg"><path d="M292.989 140.932 L 238.591 195.336 238.354 182.910 L 238.117 170.483 228.716 170.483 L 219.315 170.483 219.315 151.208 L 219.315 131.932 200.484 131.932 L 181.653 131.932 181.423 150.993 L 181.192 170.055 143.711 170.278 L 106.231 170.501 106.231 151.200 L 106.231 131.899 87.169 132.130 L 68.108 132.360 67.877 151.422 L 67.647 170.483 58.223 170.483 L 48.798 170.483 49.029 189.117 L 49.260 207.750 58.470 207.993 L 67.679 208.236 67.680 238.406 C 67.680 254.999,68.074 272.727,68.556 277.800 C 71.791 311.923,94.483 337.828,128.077 345.751 C 135.667 347.541,150.863 347.595,158.932 345.861 C 188.691 339.465,211.540 316.416,217.698 286.581 C 219.101 279.784,219.294 274.611,219.304 243.517 L 219.315 208.178 228.739 208.178 L 238.163 208.178 238.163 204.120 L 238.163 200.062 250.589 212.466 L 263.015 224.869 305.417 182.473 L 347.820 140.077 390.227 182.477 L 432.633 224.877 445.912 211.599 L 459.190 198.320 403.289 142.423 L 347.387 86.527 292.989 140.932 M328.973 275.857 C 328.973 321.562,328.858 358.957,328.718 358.957 C 328.579 358.957,323.933 357.435,318.394 355.574 C 311.295 353.189,308.211 352.494,307.939 353.218 C 307.359 354.767,296.418 387.582,296.418 387.775 C 296.418 387.867,311.742 393.043,330.472 399.277 C 349.202 405.511,365.008 410.789,365.597 411.005 C 366.450 411.319,366.668 389.174,366.668 302.078 L 366.668 192.757 347.820 192.757 L 328.973 192.757 328.973 275.857 M181.603 240.090 C 181.594 257.642,181.234 274.433,180.805 277.405 C 178.707 291.912,167.460 304.612,153.343 308.414 C 144.223 310.869,131.682 308.962,123.702 303.905 C 118.452 300.578,112.362 293.465,109.388 287.186 L 106.659 281.426 106.410 244.802 L 106.161 208.178 143.891 208.178 L 181.620 208.178 181.603 240.090 M271.360 260.915 L 255.297 269.013 272.097 302.634 C 281.337 321.125,289.004 336.372,289.134 336.515 C 289.264 336.657,296.894 333.018,306.090 328.427 L 322.810 320.080 305.978 286.403 C 296.721 267.881,288.759 252.747,288.285 252.772 C 287.811 252.797,280.194 256.462,271.360 260.915 M389.348 286.181 C 380.146 304.581,372.788 319.905,372.997 320.235 C 373.591 321.172,405.959 337.088,406.374 336.647 C 406.577 336.431,414.267 321.197,423.464 302.793 L 440.184 269.332 423.553 261.029 C 414.405 256.463,406.732 252.727,406.501 252.727 C 406.269 252.727,398.551 267.781,389.348 286.181 " stroke="none" fill-rule="evenodd" fill="black"></path></svg>