<svg width="136mm" height="120mm" version="1.1" viewBox="0 0 600 529.4117647058824" xmlns="http://www.w3.org/2000/svg"><path d="M292.989 140.932 L 238.591 195.336 238.354 182.910 L 238.117 170.483 228.716 170.483 L 219.315 170.483 219.315 151.208 L 219.315 131.932 200.484 131.932 L 181.653 131.932 181.423 150.993 L 181.192 170.055 143.728 170.278 L 106.264 170.501 106.033 151.431 L 105.802 132.360 86.955 132.360 L 68.108 132.360 67.877 151.422 L 67.647 170.483 58.223 170.483 L 48.798 170.483 49.029 189.117 L 49.260 207.750 58.393 207.992 L 67.525 208.235 67.904 245.259 C 68.256 279.747,68.409 282.775,70.139 289.473 C 79.045 323.965,108.608 347.216,143.497 347.166 C 148.684 347.159,155.672 346.562,159.041 345.838 C 184.459 340.378,206.190 321.405,214.681 297.260 C 218.855 285.391,219.253 280.707,219.285 243.089 L 219.315 208.178 228.739 208.178 L 238.163 208.178 238.163 204.120 L 238.163 200.062 250.589 212.466 L 263.015 224.869 305.417 182.473 L 347.820 140.077 390.227 182.477 L 432.633 224.877 445.912 211.599 L 459.190 198.320 403.289 142.423 L 347.387 86.527 292.989 140.932 M328.973 275.857 C 328.973 321.562,328.858 358.957,328.718 358.957 C 328.579 358.957,323.933 357.435,318.394 355.574 C 311.295 353.189,308.211 352.494,307.939 353.218 C 307.359 354.767,296.418 387.582,296.418 387.775 C 296.418 387.867,311.742 393.043,330.472 399.277 C 349.202 405.511,365.008 410.789,365.597 411.005 C 366.450 411.319,366.668 389.174,366.668 302.078 L 366.668 192.757 347.820 192.757 L 328.973 192.757 328.973 275.857 M181.592 239.662 C 181.577 256.978,181.229 273.745,180.820 276.922 C 179.785 284.943,175.996 292.582,170.153 298.424 C 162.441 306.137,154.748 309.280,143.497 309.317 C 126.933 309.372,113.157 299.307,107.643 283.123 C 106.421 279.537,106.231 274.211,106.231 243.579 L 106.231 208.178 143.926 208.178 L 181.620 208.178 181.592 239.662 M271.360 260.915 L 255.297 269.013 272.097 302.634 C 281.337 321.125,289.063 336.431,289.267 336.647 C 289.681 337.088,322.049 321.172,322.643 320.235 C 323.289 319.217,289.628 252.724,288.492 252.772 C 287.904 252.797,280.194 256.462,271.360 260.915 M389.348 286.181 C 380.146 304.581,372.788 319.905,372.997 320.235 C 373.591 321.172,405.959 337.088,406.374 336.647 C 406.577 336.431,414.303 321.125,423.543 302.634 L 440.344 269.012 424.075 260.869 C 415.127 256.391,407.418 252.727,406.943 252.727 C 406.468 252.727,398.551 267.781,389.348 286.181 " stroke="none" fill-rule="evenodd" fill="black"></path></svg>