<svg width="136mm" height="120mm" version="1.1" viewBox="0 0 600 529.4117647058824" xmlns="http://www.w3.org/2000/svg"><path d="M292.776 141.141 L 238.163 195.754 238.163 182.690 L 238.163 169.627 228.739 169.627 L 219.315 169.627 219.315 150.779 L 219.315 131.932 200.468 131.932 L 181.620 131.932 181.620 150.779 L 181.620 169.627 143.942 169.627 L 106.264 169.627 106.033 150.993 L 105.802 132.360 87.169 132.129 L 68.536 131.898 68.536 150.762 L 68.536 169.627 59.112 169.627 L 49.689 169.627 49.689 188.445 L 49.689 207.263 58.898 207.507 L 68.108 207.750 68.556 247.158 L 69.005 286.566 71.428 293.848 C 78.343 314.636,91.463 330.039,110.086 339.230 C 123.835 346.016,136.610 348.354,151.636 346.834 C 169.042 345.074,183.488 338.184,196.269 325.546 C 205.166 316.749,210.064 309.426,214.234 298.687 C 218.766 287.016,219.315 280.922,219.315 242.334 L 219.315 207.321 228.739 207.321 L 238.163 207.321 238.163 203.692 L 238.163 200.062 250.589 212.466 L 263.015 224.869 305.417 182.473 L 347.820 140.077 390.227 182.477 L 432.633 224.877 445.912 211.599 L 459.190 198.320 403.289 142.424 L 347.389 86.528 292.776 141.141 M328.973 275.857 C 328.973 321.562,328.858 358.957,328.718 358.957 C 328.579 358.957,323.933 357.435,318.394 355.574 C 311.295 353.189,308.211 352.494,307.939 353.218 C 307.359 354.767,296.418 387.582,296.418 387.775 C 296.418 387.867,311.742 393.043,330.472 399.277 C 349.202 405.511,365.008 410.789,365.597 411.005 C 366.450 411.319,366.668 389.174,366.668 302.078 L 366.668 192.757 347.820 192.757 L 328.973 192.757 328.973 275.857 M181.446 240.733 C 181.615 262.845,181.378 275.399,180.724 278.822 C 178.516 290.391,170.228 301.071,159.581 306.065 C 154.606 308.398,152.597 308.835,145.508 309.124 C 136.523 309.490,131.273 308.313,124.542 304.421 C 119.189 301.326,112.467 293.687,109.402 287.216 L 106.659 281.426 106.411 244.365 L 106.162 207.303 143.677 207.527 L 181.192 207.750 181.446 240.733 M271.360 260.915 L 255.297 269.013 272.097 302.634 C 281.337 321.125,289.004 336.372,289.134 336.515 C 289.264 336.657,296.894 333.018,306.090 328.427 L 322.810 320.080 305.978 286.403 C 296.721 267.881,288.759 252.747,288.285 252.772 C 287.811 252.797,280.194 256.462,271.360 260.915 M389.372 286.134 C 380.183 304.507,372.665 319.733,372.665 319.969 C 372.665 320.393,404.800 336.683,405.637 336.683 C 406.137 336.683,439.487 270.208,439.487 269.212 C 439.487 268.501,408.332 252.727,406.929 252.727 C 406.462 252.727,398.562 267.760,389.372 286.134 " stroke="none" fill-rule="evenodd" fill="black"></path></svg>