<svg width="136mm" height="120mm" version="1.1" viewBox="0 0 600 529.4117647058824" xmlns="http://www.w3.org/2000/svg"><path d="M238.163 73.676 L 238.163 94.237 147.352 94.237 L 56.542 94.237 56.542 113.084 L 56.542 131.932 133.645 131.932 C 176.052 131.932,210.748 132.220,210.748 132.572 C 210.748 132.925,180.777 163.186,144.146 199.819 L 77.544 266.425 90.810 279.713 L 104.077 293.000 180.543 216.537 L 257.010 140.074 333.477 216.537 L 409.943 293.000 423.210 279.713 L 436.476 266.425 369.874 199.819 C 333.243 163.186,303.272 132.925,303.272 132.572 C 303.272 132.220,337.968 131.932,380.375 131.932 L 457.478 131.932 457.478 113.084 L 457.478 94.237 366.668 94.237 L 275.857 94.237 275.857 73.676 L 275.857 53.115 257.010 53.115 L 238.163 53.115 238.163 73.676 M238.163 253.155 C 238.163 276.430,237.832 294.705,237.411 294.705 C 233.300 294.705,221.353 286.516,214.632 279.093 C 206.625 270.247,200.532 255.482,200.483 244.802 L 200.468 241.589 181.620 241.589 L 162.773 241.589 162.773 246.381 C 162.773 252.446,165.636 266.610,168.284 273.645 C 173.745 288.153,179.366 296.828,190.568 308.035 C 203.226 320.698,214.763 327.593,231.523 332.509 L 238.163 334.456 238.163 367.268 L 238.163 400.079 257.010 400.079 L 275.857 400.079 275.857 367.268 L 275.857 334.456 282.497 332.509 C 299.257 327.593,310.794 320.698,323.452 308.035 C 334.654 296.828,340.275 288.153,345.736 273.645 C 348.384 266.610,351.247 252.446,351.247 246.381 L 351.247 241.589 332.400 241.589 L 313.552 241.589 313.537 244.802 C 313.469 259.481,303.599 277.750,290.566 287.317 C 286.229 290.500,278.397 294.705,276.804 294.705 C 276.126 294.705,275.857 282.911,275.857 253.155 L 275.857 211.605 257.010 211.605 L 238.163 211.605 238.163 253.155 " stroke="none" fill-rule="evenodd" fill="black"></path></svg>