<svg width="136mm" height="120mm" version="1.1" viewBox="0 0 600 529.4117647058824" xmlns="http://www.w3.org/2000/svg"><path d="M238.163 73.676 L 238.163 94.237 147.352 94.237 L 56.542 94.237 56.542 113.084 L 56.542 131.932 133.645 131.932 C 176.052 131.932,210.748 132.220,210.748 132.572 C 210.748 132.925,180.777 163.186,144.146 199.819 L 77.544 266.425 90.810 279.713 L 104.077 293.000 180.543 216.537 L 257.010 140.074 333.477 216.537 L 409.943 293.000 423.210 279.713 L 436.476 266.425 369.874 199.819 C 333.243 163.186,303.272 132.925,303.272 132.572 C 303.272 132.220,337.968 131.932,380.375 131.932 L 457.478 131.932 457.478 113.084 L 457.478 94.237 366.668 94.237 L 275.857 94.237 275.857 73.676 L 275.857 53.115 257.010 53.115 L 238.163 53.115 238.163 73.676 M238.163 253.155 C 238.163 282.888,237.894 294.705,237.217 294.705 C 236.697 294.705,233.516 293.269,230.149 291.513 C 220.914 286.699,211.121 276.583,206.547 267.132 C 202.957 259.717,200.510 250.705,200.483 244.802 L 200.468 241.589 181.620 241.589 L 162.773 241.589 162.773 246.207 C 162.773 256.301,167.073 272.924,172.438 283.568 C 177.317 293.248,181.703 299.166,190.568 308.031 C 202.994 320.458,214.281 327.309,230.211 332.094 L 238.163 334.483 238.163 367.281 L 238.163 400.079 257.010 400.079 L 275.857 400.079 275.857 367.223 L 275.857 334.367 281.640 332.818 C 297.783 328.494,310.394 321.071,323.034 308.454 C 332.613 298.892,336.472 293.639,341.806 282.902 C 347.150 272.144,351.247 256.027,351.247 245.761 L 351.247 241.589 332.400 241.589 L 313.552 241.589 313.537 244.802 C 313.510 250.787,311.020 259.868,307.387 267.235 C 302.711 276.719,292.980 286.765,283.871 291.513 C 280.504 293.269,277.323 294.705,276.803 294.705 C 276.126 294.705,275.857 282.888,275.857 253.155 L 275.857 211.605 257.010 211.605 L 238.163 211.605 238.163 253.155 " stroke="none" fill-rule="evenodd" fill="black"></path></svg>