<svg width="136mm" height="120mm" version="1.1" viewBox="0 0 600 529.4117647058824" xmlns="http://www.w3.org/2000/svg"><path d="M238.163 73.676 L 238.163 94.237 147.352 94.237 L 56.542 94.237 56.542 113.084 L 56.542 131.932 133.645 131.932 C 176.052 131.932,210.748 132.185,210.748 132.494 C 210.748 132.803,180.650 162.937,143.863 199.458 L 76.978 265.861 90.528 279.430 L 104.077 293.000 180.544 216.537 L 257.010 140.074 333.476 216.537 L 409.943 293.000 423.497 279.425 L 437.051 265.851 370.167 199.534 C 333.380 163.060,303.280 132.928,303.277 132.574 C 303.274 132.221,337.968 131.932,380.375 131.932 L 457.478 131.932 457.478 113.084 L 457.478 94.237 366.668 94.237 L 275.857 94.237 275.857 73.676 L 275.857 53.115 257.010 53.115 L 238.163 53.115 238.163 73.676 M238.163 253.155 C 238.163 276.430,237.832 294.705,237.411 294.705 C 233.300 294.705,221.353 286.516,214.632 279.093 C 206.625 270.247,200.532 255.482,200.483 244.802 L 200.468 241.589 181.620 241.589 L 162.773 241.589 162.773 246.189 C 162.773 252.548,164.873 263.931,167.427 271.422 C 177.507 300.978,200.283 322.973,230.256 332.098 L 238.163 334.505 238.163 367.292 L 238.163 400.079 257.010 400.079 L 275.857 400.079 275.857 367.292 L 275.857 334.505 283.764 332.098 C 321.415 320.636,348.428 287.443,350.974 249.514 L 351.505 241.589 332.529 241.589 L 313.552 241.589 313.537 244.802 C 313.488 255.482,307.395 270.247,299.388 279.093 C 292.667 286.516,280.720 294.705,276.609 294.705 C 276.188 294.705,275.857 276.430,275.857 253.155 L 275.857 211.605 257.010 211.605 L 238.163 211.605 238.163 253.155 " stroke="none" fill-rule="evenodd" fill="black"></path></svg>