<svg width="136mm" height="120mm" version="1.1" viewBox="0 0 600 529.4117647058824" xmlns="http://www.w3.org/2000/svg"><path d="M113.658 94.806 C 113.343 95.121,113.084 103.604,113.084 113.656 L 113.084 131.932 175.624 131.932 L 238.163 131.932 238.163 175.624 L 238.163 219.315 156.759 219.315 L 75.356 219.315 75.587 237.948 L 75.818 256.582 156.990 256.800 L 238.163 257.019 238.163 317.412 L 238.163 377.805 257.010 377.805 L 275.857 377.805 275.857 317.412 L 275.857 257.019 357.030 256.800 L 438.202 256.582 438.433 237.948 L 438.664 219.315 357.261 219.315 L 275.857 219.315 275.857 175.624 L 275.857 131.932 338.413 131.932 L 400.969 131.932 400.738 113.299 L 400.507 94.665 257.369 94.449 C 178.644 94.330,113.974 94.490,113.658 94.806 " stroke="none" fill-rule="evenodd" fill="black"></path></svg>