<svg width="136mm" height="120mm" version="1.1" viewBox="0 0 600 529.4117647058824" xmlns="http://www.w3.org/2000/svg"><path d="M113.084 113.084 L 113.084 131.932 175.624 131.932 L 238.163 131.932 238.163 175.624 L 238.163 219.315 156.776 219.315 L 75.390 219.315 75.390 238.163 L 75.390 257.010 156.776 257.010 L 238.163 257.010 238.163 317.407 L 238.163 377.805 257.010 377.805 L 275.857 377.805 275.857 317.407 L 275.857 257.010 357.244 257.010 L 438.630 257.010 438.630 238.163 L 438.630 219.315 357.244 219.315 L 275.857 219.315 275.857 175.624 L 275.857 131.932 338.397 131.932 L 400.936 131.932 400.936 113.084 L 400.936 94.237 257.010 94.237 L 113.084 94.237 113.084 113.084 " stroke="none" fill-rule="evenodd" fill="black"></path></svg>