<svg width="136mm" height="120mm" version="1.1" viewBox="0 0 600 529.4117647058824" xmlns="http://www.w3.org/2000/svg"><path d="M208.098 57.461 C 171.463 61.348,138.379 87.734,126.539 122.508 C 117.980 147.645,119.374 172.995,130.624 196.782 C 135.681 207.474,139.670 213.295,147.775 221.807 C 158.349 232.912,172.365 242.483,183.976 246.527 C 185.508 247.061,186.761 247.809,186.761 248.190 C 186.761 248.572,176.544 279.526,164.058 316.979 C 151.572 354.432,141.356 385.531,141.356 386.088 C 141.356 387.091,176.070 399.104,176.749 398.336 C 176.944 398.117,187.982 365.265,201.279 325.332 L 225.455 252.727 257.010 252.727 L 288.565 252.727 312.741 325.332 C 326.038 365.265,337.076 398.117,337.271 398.336 C 337.950 399.104,372.664 387.091,372.665 386.088 C 372.665 385.531,362.448 354.432,349.962 316.979 C 337.476 279.526,327.259 248.580,327.259 248.208 C 327.259 247.836,327.934 247.296,328.759 247.006 C 340.404 242.918,352.480 235.168,362.966 225.053 C 399.752 189.568,403.162 133.555,371.000 93.082 C 355.272 73.291,330.920 60.161,304.845 57.414 C 295.418 56.421,217.539 56.459,208.098 57.461 M238.163 154.716 L 238.163 215.195 222.528 214.839 C 208.374 214.517,206.227 214.264,199.856 212.160 C 182.849 206.544,167.110 190.710,161.836 173.910 C 158.486 163.238,158.187 148.670,161.093 137.769 C 164.980 123.189,178.039 107.780,192.536 100.666 C 202.556 95.750,209.164 94.548,227.240 94.354 L 238.163 94.237 238.163 154.716 M310.461 96.408 C 328.106 101.207,343.125 114.348,350.572 131.503 C 356.775 145.795,356.270 167.437,349.415 181.041 C 342.141 195.474,328.627 207.379,314.048 212.197 C 307.812 214.257,305.580 214.519,291.492 214.839 L 275.857 215.195 275.857 154.586 L 275.857 93.978 290.635 94.506 C 299.930 94.839,307.286 95.545,310.461 96.408 " stroke="none" fill-rule="evenodd" fill="black"></path></svg>