<svg width="136mm" height="120mm" version="1.1" viewBox="0 0 600 529.4117647058824" xmlns="http://www.w3.org/2000/svg"><path d="M124.885 51.900 L 124.650 66.105 117.368 68.448 C 78.531 80.945,52.899 119.812,57.324 159.495 C 59.023 174.725,64.712 189.867,73.166 201.659 C 77.897 208.256,88.863 218.899,95.338 223.177 C 98.064 224.978,99.991 226.706,99.621 227.018 C 99.252 227.330,96.425 229.350,93.341 231.507 C 81.021 240.124,68.650 255.861,63.077 270.006 C 55.476 289.299,55.005 310.887,61.751 330.805 C 70.171 355.667,91.607 376.457,117.368 384.746 L 124.650 387.089 124.885 401.294 L 125.120 415.499 143.946 415.500 L 162.773 415.500 162.773 401.072 L 162.773 386.644 167.271 385.633 C 180.017 382.768,195.776 373.149,206.600 361.626 C 236.584 329.707,238.542 283.027,211.380 247.734 C 206.901 241.915,198.301 234.027,191.954 229.918 L 187.011 226.717 193.525 222.081 C 212.095 208.866,224.163 190.366,228.683 168.186 C 237.385 125.486,212.686 82.684,171.362 68.850 L 163.201 66.118 162.966 51.907 L 162.732 37.695 143.926 37.695 L 125.120 37.695 124.885 51.900 M332.400 58.684 L 332.400 79.673 285.281 79.673 L 238.163 79.673 238.163 98.520 L 238.163 117.368 285.281 117.368 L 332.400 117.368 332.400 122.726 L 332.400 128.083 291.710 168.767 L 251.020 209.450 264.071 222.521 C 271.249 229.710,277.514 235.593,277.993 235.593 C 278.472 235.593,295.244 219.208,315.266 199.183 L 351.668 162.773 388.292 199.390 L 424.917 236.007 438.202 222.742 L 451.488 209.477 410.791 168.773 L 370.094 128.070 370.094 122.719 L 370.094 117.368 417.213 117.368 L 464.331 117.368 464.331 98.528 L 464.331 79.688 417.427 79.466 L 370.523 79.245 370.293 58.470 L 370.064 37.695 351.232 37.695 L 332.400 37.695 332.400 58.684 M125.078 151.208 C 125.078 175.945,124.789 196.181,124.436 196.176 C 122.311 196.150,113.553 189.962,108.801 185.131 C 99.270 175.441,94.833 164.483,94.866 150.717 C 94.896 138.187,99.369 126.870,107.824 117.933 C 112.500 112.990,121.820 106.256,124.007 106.239 C 124.851 106.233,125.078 115.793,125.078 151.208 M168.770 108.939 C 179.277 114.942,188.622 127.753,191.549 140.167 C 193.335 147.742,192.732 159.365,190.167 166.819 C 186.686 176.934,179.080 186.627,170.240 192.213 C 161.926 197.467,162.773 202.122,162.773 151.181 C 162.773 126.458,163.062 106.234,163.416 106.239 C 163.769 106.243,166.178 107.458,168.770 108.939 M332.400 243.731 L 332.400 264.720 285.281 264.720 L 238.163 264.720 238.163 283.568 L 238.163 302.415 285.281 302.415 L 332.400 302.415 332.400 307.773 L 332.400 313.131 291.710 353.814 L 251.020 394.497 264.071 407.568 C 271.249 414.758,277.514 420.640,277.993 420.640 C 278.472 420.640,295.244 404.255,315.266 384.230 L 351.668 347.820 388.292 384.437 L 424.917 421.054 438.202 407.789 L 451.488 394.524 410.791 353.821 L 370.094 313.117 370.094 307.766 L 370.094 302.415 417.213 302.415 L 464.331 302.415 464.331 283.575 L 464.331 264.735 417.427 264.513 L 370.523 264.292 370.293 243.517 L 370.064 222.742 351.232 222.742 L 332.400 222.742 332.400 243.731 M125.078 301.987 C 125.078 334.593,124.814 346.964,124.119 346.964 C 121.806 346.964,112.834 340.489,108.030 335.353 C 99.189 325.902,94.897 315.182,94.866 302.477 C 94.833 288.711,99.270 277.753,108.801 268.063 C 113.553 263.232,122.311 257.045,124.436 257.018 C 124.789 257.014,125.078 277.250,125.078 301.987 M170.240 260.981 C 183.362 269.273,191.492 283.329,192.471 299.417 C 193.323 313.418,188.494 326.292,178.622 336.334 C 174.214 340.819,165.464 346.930,163.416 346.955 C 163.062 346.960,162.773 326.736,162.773 302.014 C 162.773 251.072,161.926 255.728,170.240 260.981 " stroke="none" fill-rule="evenodd" fill="black"></path></svg>