<svg width="136mm" height="120mm" version="1.1" viewBox="0 0 600 529.4117647058824" xmlns="http://www.w3.org/2000/svg"><path d="M124.222 52.055 L 124.222 66.416 118.439 68.054 C 109.855 70.487,97.048 77.335,88.967 83.812 C 74.982 95.021,64.200 111.800,59.408 129.810 C 56.456 140.903,56.080 158.462,58.565 169.114 C 63.719 191.207,75.795 209.347,93.809 222.051 C 97.107 224.378,99.632 226.545,99.421 226.867 C 99.209 227.190,96.511 229.236,93.424 231.413 C 79.492 241.242,68.235 255.814,62.211 271.818 C 58.216 282.433,56.971 289.948,57.074 302.843 C 57.190 317.566,59.524 327.534,65.896 340.518 C 76.146 361.408,96.849 378.987,118.439 385.133 L 124.222 386.779 124.222 401.139 L 124.222 415.500 143.497 415.500 L 162.773 415.500 162.773 401.031 L 162.773 386.562 165.986 385.968 C 171.523 384.944,184.490 379.164,191.080 374.782 C 205.778 365.011,218.066 350.143,224.084 334.847 C 231.742 315.382,232.435 293.458,225.989 274.620 C 219.901 256.829,206.249 239.054,191.476 229.685 C 189.541 228.458,187.957 227.068,187.957 226.597 C 187.957 226.126,189.541 224.736,191.476 223.509 C 206.249 214.140,219.901 196.366,225.989 178.574 C 232.435 159.736,231.742 137.812,224.084 118.347 C 218.295 103.634,205.763 88.179,192.490 79.383 C 185.818 74.962,172.690 68.817,167.219 67.555 L 162.773 66.528 162.773 52.112 L 162.773 37.695 143.497 37.695 L 124.222 37.695 124.222 52.055 M332.400 58.684 L 332.400 79.673 285.281 79.673 L 238.163 79.673 238.163 98.520 L 238.163 117.368 285.281 117.368 L 332.400 117.368 332.400 122.719 L 332.400 128.070 291.703 168.773 L 251.006 209.477 264.509 222.960 L 278.013 236.443 314.840 199.608 L 351.668 162.773 388.292 199.390 L 424.917 236.007 438.198 222.746 L 451.479 209.485 410.787 168.760 L 370.094 128.035 370.094 122.701 L 370.094 117.368 417.641 117.368 L 465.188 117.368 465.188 98.528 L 465.188 79.688 417.855 79.466 L 370.523 79.245 370.293 58.470 L 370.064 37.695 351.232 37.695 L 332.400 37.695 332.400 58.684 M124.222 151.181 C 124.222 202.132,125.055 197.555,116.765 192.132 C 107.127 185.828,98.514 173.713,95.952 162.854 C 94.276 155.751,94.657 142.837,96.740 136.154 C 98.789 129.580,103.536 121.926,108.876 116.586 C 112.511 112.951,122.000 106.231,123.498 106.231 C 123.896 106.231,124.222 126.458,124.222 151.181 M168.770 108.939 C 180.595 115.695,190.102 129.868,192.090 143.702 C 194.923 163.427,186.426 181.753,169.280 192.896 C 166.497 194.705,163.895 196.184,163.497 196.184 C 163.099 196.184,162.773 175.945,162.773 151.208 C 162.773 126.470,163.062 106.234,163.416 106.239 C 163.769 106.243,166.178 107.458,168.770 108.939 M332.400 243.731 L 332.400 264.720 285.281 264.720 L 238.163 264.720 238.163 283.568 L 238.163 302.415 285.281 302.415 L 332.400 302.415 332.400 307.766 L 332.400 313.117 291.703 353.820 L 251.006 394.524 264.509 408.007 L 278.013 421.490 314.840 384.655 L 351.668 347.820 388.292 384.437 L 424.917 421.054 438.198 407.793 L 451.479 394.533 410.787 353.807 L 370.094 313.082 370.094 307.749 L 370.094 302.415 417.641 302.415 L 465.188 302.415 465.188 283.575 L 465.188 264.735 417.855 264.513 L 370.523 264.292 370.293 243.517 L 370.064 222.742 351.232 222.742 L 332.400 222.742 332.400 243.731 M123.884 346.730 C 123.247 347.366,117.020 343.720,113.021 340.370 C 100.630 329.988,95.039 318.504,94.922 303.190 C 94.846 293.274,96.071 287.656,100.042 279.713 C 103.633 272.529,113.132 262.601,119.510 259.364 L 123.793 257.190 124.015 301.783 C 124.137 326.310,124.078 346.536,123.884 346.730 M168.609 259.829 C 186.056 270.830,194.943 289.627,192.090 309.493 C 190.897 317.798,186.249 327.954,180.719 334.338 C 176.997 338.635,167.965 345.486,164.701 346.487 L 162.773 347.079 162.773 302.044 C 162.773 277.276,163.080 257.010,163.455 257.010 C 163.830 257.010,166.150 258.279,168.609 259.829 " stroke="none" fill-rule="evenodd" fill="black"></path></svg>