<svg width="136mm" height="120mm" version="1.1" viewBox="0 0 600 529.4117647058824" xmlns="http://www.w3.org/2000/svg"><path d="M124.885 51.961 L 124.650 66.228 117.368 68.519 C 95.381 75.436,76.163 91.867,65.726 112.669 C 62.211 119.675,58.351 133.470,57.345 142.617 C 55.296 161.256,60.315 181.871,70.908 198.326 C 75.724 205.807,86.054 216.550,93.380 221.697 C 96.443 223.849,99.272 225.884,99.667 226.221 C 100.062 226.558,98.134 228.320,95.383 230.137 C 87.753 235.176,76.631 246.309,71.565 253.980 C 60.384 270.907,55.280 291.241,57.361 310.566 C 61.106 345.356,84.386 374.134,117.368 384.746 L 124.650 387.089 124.885 401.294 L 125.120 415.499 143.946 415.500 L 162.773 415.500 162.773 400.936 C 162.773 387.643,162.904 386.370,164.272 386.355 C 166.842 386.326,179.871 381.415,184.932 378.568 C 201.738 369.114,215.271 354.583,222.861 337.842 C 224.250 334.779,226.422 328.543,227.688 323.984 C 229.747 316.565,229.988 314.254,229.978 301.987 C 229.964 285.385,228.055 277.033,221.042 262.897 C 215.117 250.957,203.661 237.774,193.186 230.843 C 190.359 228.972,187.853 227.190,187.617 226.883 C 187.382 226.576,189.695 224.665,192.757 222.637 C 203.654 215.422,215.028 202.417,221.042 190.297 C 228.055 176.162,229.964 167.809,229.978 151.208 C 229.988 138.941,229.747 136.629,227.688 129.211 C 220.231 102.352,202.472 81.945,177.216 71.212 C 172.806 69.338,167.753 67.541,165.986 67.218 L 162.773 66.632 162.773 52.163 L 162.773 37.695 143.946 37.695 L 125.120 37.695 124.885 51.961 M332.400 58.684 L 332.400 79.673 285.281 79.673 L 238.163 79.673 238.163 98.520 L 238.163 117.368 285.281 117.368 L 332.400 117.368 332.400 122.719 L 332.400 128.070 291.703 168.773 L 251.006 209.477 264.509 222.960 L 278.013 236.443 314.840 199.608 L 351.668 162.773 388.292 199.390 L 424.917 236.007 438.202 222.742 L 451.488 209.477 410.791 168.773 L 370.094 128.070 370.094 122.726 L 370.094 117.382 417.427 117.161 L 464.760 116.940 464.991 98.314 L 465.221 79.688 417.872 79.466 L 370.523 79.245 370.293 58.470 L 370.064 37.695 351.232 37.695 L 332.400 37.695 332.400 58.684 M125.078 151.208 C 125.078 175.945,124.873 196.184,124.621 196.184 C 122.312 196.184,114.083 190.513,109.229 185.577 C 99.099 175.275,95.094 165.409,95.094 150.755 C 95.094 137.586,98.936 127.652,107.703 118.156 C 112.545 112.910,121.632 106.231,123.926 106.231 C 124.877 106.231,125.078 114.104,125.078 151.208 M168.770 108.939 C 175.907 113.016,183.407 121.155,187.425 129.182 C 196.887 148.087,193.435 170.085,178.630 185.239 C 174.644 189.318,165.151 196.184,163.497 196.184 C 163.099 196.184,162.773 175.945,162.773 151.208 C 162.773 126.470,163.062 106.234,163.416 106.239 C 163.769 106.243,166.178 107.458,168.770 108.939 M332.400 243.731 L 332.400 264.720 285.281 264.720 L 238.163 264.720 238.163 283.568 L 238.163 302.415 285.281 302.415 L 332.400 302.415 332.400 307.766 L 332.400 313.117 291.703 353.820 L 251.006 394.524 264.509 408.007 L 278.013 421.490 314.840 384.655 L 351.668 347.820 388.292 384.437 L 424.917 421.054 438.202 407.789 L 451.488 394.524 410.791 353.821 L 370.094 313.117 370.094 307.773 L 370.094 302.430 417.427 302.208 L 464.760 301.987 464.991 283.361 L 465.221 264.735 417.872 264.513 L 370.523 264.292 370.293 243.517 L 370.064 222.742 351.232 222.742 L 332.400 222.742 332.400 243.731 M125.078 301.987 C 125.078 339.091,124.877 346.964,123.926 346.964 C 121.632 346.963,112.545 340.284,107.703 335.039 C 98.936 325.542,95.094 315.609,95.094 302.440 C 95.094 287.986,99.108 277.918,108.801 268.063 C 113.553 263.232,122.311 257.045,124.436 257.018 C 124.789 257.014,125.078 277.250,125.078 301.987 M169.280 260.286 C 175.592 264.375,182.072 270.946,185.708 276.945 C 197.284 296.046,194.207 320.753,178.272 336.651 C 173.033 341.877,165.842 346.964,163.691 346.964 C 163.050 346.964,162.773 333.412,162.773 301.987 C 162.773 277.250,163.099 257.010,163.497 257.010 C 163.895 257.010,166.497 258.484,169.280 260.286 " stroke="none" fill-rule="evenodd" fill="black"></path></svg>