<svg width="136mm" height="120mm" version="1.1" viewBox="0 0 600 529.4117647058824" xmlns="http://www.w3.org/2000/svg"><path d="M75.587 79.459 L 75.818 98.092 257.010 98.092 L 438.202 98.092 438.433 79.459 L 438.664 60.826 257.010 60.826 L 75.356 60.826 75.587 79.459 M94.237 230.452 L 94.237 249.300 257.010 249.300 L 419.783 249.300 419.783 230.452 L 419.783 211.605 257.010 211.605 L 94.237 211.605 94.237 230.452 M75.963 362.953 C 75.648 363.268,75.390 371.751,75.390 381.803 L 75.390 400.079 257.027 400.079 L 438.664 400.079 438.433 381.446 L 438.202 362.812 257.369 362.596 C 157.911 362.477,76.278 362.638,75.963 362.953 " stroke="none" fill-rule="evenodd" fill="black"></path></svg>