<svg width="136mm" height="120mm" version="1.1" viewBox="0 0 600 529.4117647058824" xmlns="http://www.w3.org/2000/svg"><path d="M96.761 176.572 C 65.635 238.822,40.287 289.861,40.431 289.992 C 40.575 290.122,48.114 293.937,57.184 298.468 L 73.674 306.706 96.160 261.725 L 118.646 216.744 165.982 264.074 L 213.318 311.404 226.597 298.125 L 239.875 284.847 188.115 233.092 L 136.354 181.336 161.606 130.839 C 175.494 103.065,186.739 80.234,186.595 80.103 C 186.450 79.972,178.912 76.158,169.843 71.627 L 153.354 63.389 96.761 176.572 M323.227 176.833 L 266.598 290.095 283.318 298.443 C 292.515 303.034,300.146 306.673,300.276 306.530 C 300.406 306.387,310.429 286.416,322.548 262.150 C 334.667 237.884,344.748 217.854,344.950 217.639 C 345.153 217.424,366.604 238.531,392.620 264.544 L 439.922 311.839 453.412 298.349 L 466.902 284.859 415.000 232.951 L 363.098 181.044 388.014 131.218 C 401.717 103.814,412.929 81.097,412.929 80.737 C 412.929 80.376,405.488 76.366,396.393 71.826 L 379.856 63.570 323.227 176.833 M113.469 336.917 C 113.238 337.519,113.153 346.098,113.281 355.981 L 113.513 373.950 257.010 373.950 L 400.507 373.950 400.507 355.102 L 400.507 336.255 257.198 336.038 C 141.465 335.863,113.808 336.032,113.469 336.917 " stroke="none" fill-rule="evenodd" fill="black"></path></svg>