<svg width="136mm" height="120mm" version="1.1" viewBox="0 0 600 529.4117647058824" xmlns="http://www.w3.org/2000/svg"><path d="M96.761 176.572 C 65.635 238.822,40.287 289.861,40.431 289.992 C 40.575 290.122,48.113 293.936,57.182 298.467 L 73.670 306.704 95.949 262.153 C 108.202 237.650,118.515 217.602,118.866 217.602 C 119.217 217.602,140.610 238.706,166.407 264.499 L 213.311 311.397 226.597 298.131 L 239.884 284.866 188.478 233.455 C 160.205 205.178,137.072 181.561,137.072 180.972 C 137.072 180.383,148.274 157.500,161.965 130.121 C 175.656 102.742,186.739 80.234,186.595 80.103 C 186.450 79.972,178.912 76.158,169.843 71.627 L 153.354 63.389 96.761 176.572 M323.617 176.053 C 292.637 238.014,267.290 289.093,267.290 289.561 C 267.290 290.372,299.767 307.087,300.271 306.535 C 300.404 306.389,310.429 286.416,322.548 262.150 C 334.667 237.884,344.748 217.854,344.950 217.639 C 345.153 217.424,366.604 238.531,392.620 264.544 L 439.922 311.839 453.412 298.349 L 466.902 284.859 415.000 232.951 L 363.098 181.044 388.014 131.218 C 401.717 103.814,412.929 81.007,412.929 80.537 C 412.929 79.898,381.389 63.396,380.168 63.396 C 380.044 63.396,354.596 114.091,323.617 176.053 M113.658 336.395 C 113.343 336.711,113.084 345.193,113.084 355.245 L 113.084 373.521 257.027 373.521 L 400.969 373.521 400.738 354.888 L 400.507 336.255 257.369 336.038 C 178.644 335.919,113.974 336.080,113.658 336.395 " stroke="none" fill-rule="evenodd" fill="black"></path></svg>