<svg width="136mm" height="120mm" version="1.1" viewBox="0 0 600 529.4117647058824" xmlns="http://www.w3.org/2000/svg"><path d="M96.402 176.434 C 65.319 238.606,40.069 289.643,40.290 289.851 C 40.512 290.059,48.113 293.936,57.182 298.467 L 73.670 306.704 95.949 262.153 C 108.202 237.650,118.515 217.602,118.866 217.602 C 119.217 217.602,140.612 238.707,166.411 264.503 L 213.318 311.404 226.597 298.125 L 239.875 284.847 188.115 233.092 L 136.354 181.336 161.606 130.839 C 175.494 103.065,186.739 80.234,186.595 80.103 C 186.242 79.784,153.428 63.396,153.141 63.396 C 153.017 63.396,127.484 114.263,96.402 176.434 M323.271 176.745 L 266.598 290.095 283.318 298.443 C 292.515 303.034,300.145 306.673,300.273 306.530 C 300.402 306.387,303.292 300.680,306.696 293.848 C 310.099 287.016,320.219 267.023,329.183 249.419 L 345.482 217.412 392.705 264.629 L 439.928 311.846 453.411 298.343 L 466.894 284.840 415.137 233.088 L 363.380 181.336 388.632 130.839 C 402.520 103.065,413.765 80.234,413.620 80.103 C 413.269 79.785,380.454 63.396,380.168 63.396 C 380.044 63.396,354.441 114.403,323.271 176.745 M113.282 354.888 L 113.513 373.950 257.010 373.950 L 400.507 373.950 400.738 354.888 L 400.968 335.826 257.010 335.826 L 113.052 335.826 113.282 354.888 " stroke="none" fill-rule="evenodd" fill="black"></path></svg>