<svg width="136mm" height="120mm" version="1.1" viewBox="0 0 600 529.4117647058824" xmlns="http://www.w3.org/2000/svg"><path d="M228.178 125.658 L 103.823 167.145 109.786 185.013 L 115.750 202.881 130.882 197.819 C 139.204 195.035,146.315 192.757,146.683 192.757 C 147.051 192.757,147.352 235.935,147.352 288.708 C 147.352 341.481,147.642 384.658,147.997 384.658 C 148.352 384.658,178.132 355.166,214.175 319.121 L 279.708 253.583 339.036 312.907 L 398.364 372.230 411.856 358.739 L 425.348 345.247 340.324 260.223 L 255.299 175.199 241.812 188.686 L 228.325 202.174 240.522 214.393 L 252.720 226.612 218.878 260.444 L 185.036 294.276 185.256 236.949 L 185.476 179.622 274.895 149.814 C 324.076 133.420,364.452 119.869,364.621 119.700 C 364.996 119.325,353.812 85.455,353.066 84.706 C 352.772 84.412,296.573 102.840,228.178 125.658 " stroke="none" fill-rule="evenodd" fill="black"></path></svg>