<svg width="136mm" height="120mm" version="1.1" viewBox="0 0 600 529.4117647058824" xmlns="http://www.w3.org/2000/svg"><path d="M167.061 123.789 L 77.543 213.309 90.807 226.594 L 104.071 239.879 121.857 222.109 L 139.642 204.338 139.642 221.250 L 139.642 238.163 253.155 238.163 L 366.668 238.163 366.668 219.315 L 366.668 200.468 255.083 200.468 L 143.499 200.468 200.254 143.713 L 257.009 86.958 333.476 163.421 L 409.943 239.885 423.210 226.597 L 436.477 213.309 346.959 123.789 C 297.724 74.552,257.247 34.268,257.010 34.268 C 256.773 34.268,216.296 74.552,167.061 123.789 M145.593 316.214 C 124.833 357.732,107.966 391.808,108.110 391.939 C 108.887 392.643,141.578 408.705,141.781 408.482 C 141.914 408.337,147.698 396.845,154.634 382.945 C 161.571 369.045,167.412 357.497,167.613 357.282 C 167.815 357.067,180.787 369.694,196.439 385.342 L 224.899 413.792 238.163 400.507 L 251.427 387.222 218.459 354.246 L 185.491 321.269 201.302 289.609 C 209.998 272.197,216.934 257.781,216.715 257.576 C 216.496 257.370,208.897 253.495,199.828 248.964 L 183.339 240.727 145.593 316.214 M297.018 315.777 C 276.427 356.961,259.580 391.041,259.580 391.509 C 259.580 392.215,291.193 408.646,292.552 408.646 C 292.791 408.646,298.802 397.018,305.911 382.807 L 318.836 356.968 347.257 385.380 L 375.678 413.791 389.161 400.289 L 402.643 386.786 369.732 353.883 L 336.820 320.979 352.601 289.427 L 368.381 257.875 351.418 249.385 L 334.455 240.896 297.018 315.777 " stroke="none" fill-rule="evenodd" fill="black"></path></svg>