<svg width="136mm" height="120mm" version="1.1" viewBox="0 0 600 529.4117647058824" xmlns="http://www.w3.org/2000/svg"><path d="M167.061 123.789 L 77.543 213.309 90.807 226.594 L 104.071 239.879 121.837 222.128 L 139.604 204.377 139.837 221.055 L 140.070 237.734 253.369 237.952 L 366.668 238.169 366.668 219.318 L 366.668 200.468 255.725 200.468 C 194.706 200.468,144.782 200.178,144.782 199.823 C 144.782 199.468,170.034 173.929,200.896 143.069 L 257.011 86.959 333.477 163.422 L 409.943 239.885 423.210 226.597 L 436.477 213.309 346.959 123.789 C 297.724 74.552,257.247 34.268,257.010 34.268 C 256.773 34.268,216.296 74.552,167.061 123.789 M145.593 316.214 C 124.833 357.732,107.966 391.808,108.110 391.939 C 108.887 392.643,141.578 408.705,141.781 408.482 C 141.914 408.337,147.698 396.845,154.634 382.945 C 161.571 369.045,167.412 357.497,167.613 357.282 C 167.815 357.067,180.787 369.694,196.439 385.342 L 224.899 413.792 238.163 400.507 L 251.427 387.222 218.459 354.246 L 185.491 321.269 201.302 289.609 C 209.998 272.197,216.934 257.781,216.715 257.576 C 216.496 257.370,208.897 253.495,199.828 248.964 L 183.339 240.727 145.593 316.214 M296.829 316.158 C 276.135 357.553,259.385 391.592,259.606 391.799 C 259.828 392.007,267.428 395.883,276.496 400.414 L 292.984 408.651 305.910 382.809 L 318.836 356.968 347.257 385.380 L 375.678 413.791 389.161 400.289 L 402.643 386.786 369.732 353.883 L 336.820 320.979 352.601 289.427 L 368.381 257.875 351.417 249.385 L 334.453 240.895 296.829 316.158 " stroke="none" fill-rule="evenodd" fill="black"></path></svg>