<svg width="136mm" height="120mm" version="1.1" viewBox="0 0 600 529.4117647058824" xmlns="http://www.w3.org/2000/svg"><path d="M124.793 57.113 C 124.479 57.427,124.222 70.144,124.222 85.373 L 124.222 113.061 96.165 113.287 L 68.108 113.513 67.877 132.146 L 67.646 150.779 95.801 150.779 L 123.957 150.779 124.469 164.272 C 124.856 174.488,125.425 179.222,126.811 183.762 C 136.229 214.602,176.618 238.061,230.881 244.206 C 236.064 244.793,247.822 245.273,257.010 245.273 C 282.824 245.273,303.595 242.272,323.871 235.614 C 350.447 226.888,371.887 212.354,381.417 196.604 C 387.126 187.170,388.983 179.820,389.557 164.387 L 390.063 150.779 418.219 150.779 L 446.374 150.779 446.143 132.146 L 445.912 113.513 417.867 113.287 L 389.822 113.061 389.596 85.016 L 389.370 56.971 370.309 56.740 L 351.247 56.509 351.247 84.797 L 351.247 113.084 257.010 113.084 L 162.773 113.084 162.773 84.813 L 162.773 56.542 144.068 56.542 C 133.781 56.542,125.107 56.799,124.793 57.113 M351.247 161.432 C 351.247 167.291,350.863 173.094,350.394 174.328 C 346.318 185.051,325.284 197.146,300.465 203.041 C 275.099 209.065,238.982 209.080,213.701 203.075 C 188.709 197.140,167.717 185.089,163.626 174.328 C 163.157 173.094,162.773 167.291,162.773 161.432 L 162.773 150.779 257.010 150.779 L 351.247 150.779 351.247 161.432 M126.746 316.214 C 105.986 357.732,89.118 391.808,89.263 391.939 C 90.040 392.643,122.731 408.705,122.934 408.482 C 123.066 408.337,128.850 396.845,135.787 382.945 C 142.724 369.045,148.564 357.497,148.766 357.282 C 148.967 357.067,161.939 369.694,177.592 385.342 L 206.051 413.792 219.315 400.507 L 232.580 387.222 199.611 354.246 L 166.643 321.269 182.455 289.609 C 191.151 272.197,198.087 257.781,197.868 257.576 C 197.649 257.370,190.049 253.495,180.980 248.964 L 164.491 240.727 126.746 316.214 M315.865 315.777 C 295.274 356.961,278.428 391.041,278.428 391.509 C 278.428 392.215,310.041 408.646,311.399 408.646 C 311.638 408.646,317.649 397.018,324.758 382.807 L 337.683 356.968 366.104 385.380 L 394.525 413.791 408.008 400.289 L 421.491 386.786 388.579 353.883 L 355.668 320.979 371.448 289.427 L 387.229 257.875 370.266 249.385 L 353.303 240.896 315.865 315.777 " stroke="none" fill-rule="evenodd" fill="black"></path></svg>