<svg width="136mm" height="120mm" version="1.1" viewBox="0 0 600 529.4117647058824" xmlns="http://www.w3.org/2000/svg"><path d="M125.078 84.813 L 125.078 113.084 96.807 113.084 L 68.536 113.084 68.536 131.920 L 68.536 150.756 96.593 150.982 L 124.650 151.208 125.184 165.771 C 125.478 173.782,126.196 181.877,126.780 183.762 C 137.236 217.495,183.753 241.813,243.752 244.911 C 302.842 247.963,357.551 230.083,378.183 200.977 C 386.723 188.928,388.161 184.176,388.836 165.771 L 389.370 151.208 417.427 150.982 L 445.484 150.756 445.484 131.920 L 445.484 113.084 417.213 113.084 L 388.942 113.084 388.942 84.813 L 388.942 56.542 370.094 56.542 L 351.247 56.542 351.247 84.813 L 351.247 113.084 257.010 113.084 L 162.773 113.084 162.773 84.813 L 162.773 56.542 143.926 56.542 L 125.078 56.542 125.078 84.813 M351.098 162.559 L 350.819 174.338 347.945 178.330 C 338.565 191.359,310.511 202.911,279.713 206.427 C 269.787 207.560,244.233 207.560,234.307 206.427 C 204.775 203.056,177.236 192.098,166.959 179.631 C 163.265 175.150,162.773 173.011,162.773 161.432 L 162.773 150.779 257.075 150.779 L 351.377 150.779 351.098 162.559 M126.746 316.214 C 105.986 357.732,89.118 391.808,89.263 391.939 C 90.040 392.643,122.731 408.705,122.934 408.482 C 123.066 408.337,128.850 396.845,135.787 382.945 C 142.724 369.045,148.564 357.497,148.766 357.282 C 148.967 357.067,161.939 369.694,177.592 385.342 L 206.051 413.792 219.315 400.507 L 232.580 387.222 199.611 354.246 L 166.643 321.269 182.455 289.609 C 191.151 272.197,198.087 257.781,197.868 257.576 C 197.649 257.370,190.049 253.495,180.980 248.964 L 164.491 240.727 126.746 316.214 M315.676 316.158 C 294.983 357.553,278.233 391.592,278.454 391.799 C 278.675 392.007,286.275 395.883,295.343 400.414 L 311.831 408.651 324.757 382.809 L 337.683 356.968 366.104 385.380 L 394.525 413.791 408.008 400.289 L 421.491 386.786 388.579 353.883 L 355.668 320.979 371.448 289.427 L 387.229 257.875 370.264 249.385 L 353.300 240.895 315.676 316.158 " stroke="none" fill-rule="evenodd" fill="black"></path></svg>