<svg width="136mm" height="120mm" version="1.1" viewBox="0 0 600 529.4117647058824" xmlns="http://www.w3.org/2000/svg"><path d="M125.078 84.802 L 125.078 113.061 96.593 113.287 L 68.108 113.513 67.877 132.146 L 67.646 150.779 96.279 150.779 L 124.912 150.779 125.263 165.986 C 125.572 179.379,125.852 181.799,127.610 186.282 C 136.167 208.091,157.517 224.886,190.444 235.708 C 210.401 242.268,231.317 245.273,257.010 245.273 C 275.382 245.273,287.157 244.201,303.015 241.085 C 340.353 233.747,371.642 215.239,382.726 193.934 C 387.986 183.824,388.942 179.204,388.942 163.878 L 388.942 150.779 417.658 150.779 L 446.374 150.779 446.143 132.146 L 445.912 113.513 417.427 113.287 L 388.942 113.061 388.942 84.802 L 388.942 56.542 370.094 56.542 L 351.247 56.542 351.247 84.813 L 351.247 113.084 257.010 113.084 L 162.773 113.084 162.773 84.813 L 162.773 56.542 143.926 56.542 L 125.078 56.542 125.078 84.802 M351.247 161.432 C 351.247 167.291,350.867 173.085,350.403 174.306 C 349.304 177.196,342.370 184.586,337.818 187.720 C 325.350 196.301,305.760 202.975,283.897 206.089 C 271.387 207.871,242.633 207.871,230.123 206.089 C 202.796 202.197,179.968 193.048,169.080 181.626 C 163.270 175.531,162.773 173.962,162.773 161.715 L 162.773 150.779 257.010 150.779 L 351.247 150.779 351.247 161.432 M126.746 316.214 C 105.986 357.732,89.118 391.808,89.263 391.939 C 90.040 392.643,122.731 408.705,122.934 408.482 C 123.066 408.337,128.850 396.845,135.787 382.945 C 142.724 369.045,148.564 357.497,148.766 357.282 C 148.967 357.067,161.939 369.694,177.592 385.342 L 206.051 413.792 219.315 400.507 L 232.580 387.222 199.611 354.246 L 166.643 321.269 182.455 289.609 C 191.151 272.197,198.087 257.781,197.868 257.576 C 197.649 257.370,190.049 253.495,180.980 248.964 L 164.491 240.727 126.746 316.214 M315.865 315.777 C 295.274 356.961,278.428 391.041,278.428 391.509 C 278.428 392.215,310.041 408.646,311.399 408.646 C 311.638 408.646,317.649 397.018,324.758 382.807 L 337.683 356.968 366.104 385.380 L 394.525 413.791 408.008 400.289 L 421.491 386.786 388.579 353.883 L 355.668 320.979 371.448 289.427 L 387.229 257.875 370.266 249.385 L 353.303 240.896 315.865 315.777 " stroke="none" fill-rule="evenodd" fill="black"></path></svg>