<svg width="136mm" height="120mm" version="1.1" viewBox="0 0 600 529.4117647058824" xmlns="http://www.w3.org/2000/svg"><path d="M279.284 105.587 L 279.284 173.479 187.834 264.932 L 96.384 356.385 109.875 369.877 L 123.366 383.368 201.325 305.413 L 279.284 227.457 279.284 287.213 L 279.284 346.969 255.301 334.972 L 231.318 322.975 223.175 339.244 C 218.696 348.192,215.032 355.902,215.032 356.377 C 215.032 357.226,315.294 407.789,316.976 407.789 C 317.547 407.789,317.836 370.982,317.836 298.354 L 317.836 188.919 333.893 172.845 L 349.950 156.771 336.489 143.310 L 323.027 129.848 320.432 132.335 L 317.836 134.822 317.836 86.259 L 317.836 37.695 298.560 37.695 L 279.284 37.695 279.284 105.587 " stroke="none" fill-rule="evenodd" fill="black"></path></svg>