<svg width="136mm" height="120mm" version="1.1" viewBox="0 0 600 529.4117647058824" xmlns="http://www.w3.org/2000/svg"><path d="M279.284 105.590 L 279.284 173.485 188.046 264.720 C 137.864 314.900,96.807 356.347,96.807 356.825 C 96.807 357.943,121.826 382.945,122.945 382.945 C 123.410 382.945,158.776 347.960,201.537 305.201 L 279.284 227.457 279.284 287.213 L 279.284 346.969 255.301 334.972 L 231.318 322.975 223.175 339.244 C 218.696 348.192,215.032 355.902,215.032 356.377 C 215.032 357.226,315.294 407.789,316.976 407.789 C 317.547 407.789,317.836 370.982,317.836 298.354 L 317.836 188.919 333.893 172.845 L 349.950 156.771 336.489 143.310 L 323.027 129.848 320.432 132.335 L 317.836 134.822 317.836 86.259 L 317.836 37.695 298.560 37.695 L 279.284 37.695 279.284 105.590 " stroke="none" fill-rule="evenodd" fill="black"></path></svg>