<svg width="136mm" height="120mm" version="1.1" viewBox="0 0 600 529.4117647058824" xmlns="http://www.w3.org/2000/svg"><path d="M279.284 105.570 L 279.284 173.479 187.834 264.932 L 96.384 356.385 109.875 369.877 L 123.366 383.368 201.325 305.413 L 279.284 227.457 279.284 287.213 L 279.284 346.969 255.296 334.969 L 231.307 322.969 222.986 339.637 C 218.409 348.805,214.844 356.474,215.062 356.680 C 215.640 357.225,316.892 407.789,317.404 407.789 C 317.642 407.789,317.836 358.543,317.836 298.354 L 317.836 188.919 333.893 172.845 L 349.950 156.771 336.489 143.310 L 323.027 129.848 320.439 132.329 L 317.850 134.809 317.629 86.466 L 317.407 38.123 298.346 37.893 L 279.284 37.662 279.284 105.570 " stroke="none" fill-rule="evenodd" fill="black"></path></svg>