<svg width="136mm" height="120mm" version="1.1" viewBox="0 0 600 529.4117647058824" xmlns="http://www.w3.org/2000/svg"><path d="M238.163 66.394 C 238.163 82.179,237.859 95.094,237.488 95.094 C 235.731 95.094,216.681 97.676,212.890 98.427 C 196.890 101.600,184.729 105.533,171.681 111.754 C 149.197 122.473,134.831 135.877,128.195 152.329 C 125.692 158.533,125.538 159.568,125.552 170.055 C 125.565 179.723,125.833 181.863,127.587 186.282 C 136.280 208.183,157.525 224.888,190.444 235.708 C 200.317 238.953,216.380 242.520,226.517 243.718 L 231.577 244.316 162.046 313.851 L 92.515 383.386 105.802 396.652 L 119.090 409.919 188.050 340.962 L 257.010 272.006 325.970 340.962 L 394.930 409.919 408.218 396.652 L 421.505 383.386 351.974 313.851 L 282.443 244.316 287.503 243.718 C 297.640 242.520,313.703 238.953,323.576 235.708 C 353.072 226.014,374.239 210.820,383.207 192.906 C 388.058 183.217,389.272 177.532,388.727 167.060 C 388.221 157.343,385.734 150.062,379.948 141.358 C 366.873 121.691,337.350 105.610,301.130 98.427 C 297.339 97.676,278.289 95.094,276.532 95.094 C 276.161 95.094,275.857 82.179,275.857 66.394 L 275.857 37.695 257.010 37.695 L 238.163 37.695 238.163 66.394 M238.163 170.113 C 238.163 205.247,238.075 207.412,236.663 207.021 C 235.839 206.792,232.851 206.351,230.024 206.040 C 211.561 204.012,188.429 196.133,176.165 187.695 C 171.270 184.328,165.643 178.414,163.962 174.871 C 159.753 166.003,168.049 155.504,186.332 146.557 C 199.573 140.077,217.221 135.189,233.879 133.387 C 235.528 133.209,237.167 133.001,237.520 132.926 C 237.873 132.850,238.163 149.584,238.163 170.113 M292.805 135.440 C 316.537 139.507,339.797 150.419,347.730 161.206 C 352.835 168.148,352.351 173.340,345.944 180.350 C 340.747 186.036,336.580 189.018,327.537 193.518 C 315.899 199.310,297.752 204.529,283.996 206.040 C 281.169 206.351,278.181 206.792,277.357 207.021 C 275.945 207.412,275.857 205.251,275.857 170.194 L 275.857 132.952 279.498 133.367 C 281.501 133.596,287.489 134.528,292.805 135.440 " stroke="none" fill-rule="evenodd" fill="black"></path></svg>