<svg width="136mm" height="120mm" version="1.1" viewBox="0 0 600 529.4117647058824" xmlns="http://www.w3.org/2000/svg"><path d="M238.163 66.394 C 238.163 83.923,237.846 95.094,237.350 95.094 C 236.903 95.094,232.003 95.688,226.461 96.415 C 165.293 104.433,125.018 133.570,125.091 169.750 C 125.161 204.881,161.742 233.095,219.315 242.424 C 225.205 243.378,230.409 244.159,230.879 244.159 C 231.349 244.159,200.409 275.485,162.124 313.773 L 92.515 383.386 105.802 396.652 L 119.090 409.919 188.050 340.962 L 257.010 272.006 325.970 340.962 L 394.930 409.919 408.218 396.652 L 421.505 383.386 351.896 313.773 C 313.611 275.485,282.671 244.159,283.141 244.159 C 283.611 244.159,288.815 243.378,294.705 242.424 C 352.399 233.075,388.858 204.955,388.929 169.750 C 389.005 132.138,346.218 102.768,280.783 95.516 L 275.857 94.970 275.857 66.333 L 275.857 37.695 257.010 37.695 L 238.163 37.695 238.163 66.394 M238.163 169.750 L 238.163 206.712 232.739 206.206 C 212.092 204.278,186.629 195.543,174.013 186.061 C 162.939 177.738,160.251 170.512,165.280 162.582 C 173.194 150.102,199.211 138.427,228.581 134.175 C 233.144 133.515,237.167 132.932,237.520 132.881 C 237.873 132.830,238.163 149.421,238.163 169.750 M287.258 134.554 C 315.026 138.443,340.840 150.243,348.856 162.710 C 352.197 167.908,351.888 172.830,347.868 178.428 C 338.853 190.980,308.433 203.670,281.281 206.206 L 275.857 206.712 275.857 169.772 L 275.857 132.831 278.213 133.224 C 279.509 133.440,283.579 134.039,287.258 134.554 " stroke="none" fill-rule="evenodd" fill="black"></path></svg>