<svg width="136mm" height="120mm" version="1.1" viewBox="0 0 600 529.4117647058824" xmlns="http://www.w3.org/2000/svg"><path d="M238.163 66.394 C 238.163 82.179,237.859 95.094,237.488 95.094 C 234.544 95.094,215.477 97.895,208.389 99.369 C 190.189 103.153,167.796 112.148,155.085 120.780 C 120.337 144.376,114.978 181.037,142.282 208.350 C 159.984 226.057,192.460 239.693,226.517 243.718 L 231.577 244.316 162.046 313.851 L 92.515 383.386 105.802 396.652 L 119.090 409.919 188.050 340.962 L 257.010 272.006 325.970 340.962 L 394.930 409.919 408.218 396.652 L 421.505 383.386 351.974 313.851 L 282.443 244.316 287.503 243.718 C 297.724 242.510,313.738 238.942,323.871 235.614 C 365.137 222.064,389.020 198.072,389.020 170.170 C 389.020 136.739,355.228 109.155,301.130 98.427 C 297.339 97.676,278.289 95.094,276.532 95.094 C 276.161 95.094,275.857 82.179,275.857 66.394 L 275.857 37.695 257.010 37.695 L 238.163 37.695 238.163 66.394 M238.163 170.113 C 238.163 205.247,238.075 207.412,236.663 207.021 C 235.839 206.792,232.851 206.351,230.024 206.040 C 200.329 202.778,168.699 187.671,163.626 174.328 C 160.177 165.256,168.243 155.388,186.332 146.550 C 199.590 140.073,217.235 135.188,233.879 133.387 C 235.528 133.209,237.167 133.001,237.520 132.926 C 237.873 132.850,238.163 149.584,238.163 170.113 M292.805 135.440 C 317.626 139.694,341.600 151.323,348.730 162.567 C 352.561 168.607,352.039 173.463,346.867 179.898 C 337.699 191.307,308.825 203.313,283.996 206.040 C 281.169 206.351,278.181 206.792,277.357 207.021 C 275.945 207.412,275.857 205.251,275.857 170.194 L 275.857 132.952 279.498 133.367 C 281.501 133.596,287.489 134.528,292.805 135.440 " stroke="none" fill-rule="evenodd" fill="black"></path></svg>