<svg width="136mm" height="120mm" version="1.1" viewBox="0 0 600 529.4117647058824" xmlns="http://www.w3.org/2000/svg"><path d="M142.641 227.881 C 103.768 305.626,71.963 369.429,71.963 369.665 C 71.963 369.901,154.463 370.094,255.297 370.094 L 438.632 370.094 394.083 281.000 L 349.535 191.906 332.828 200.246 C 323.640 204.833,316.122 208.881,316.122 209.241 C 316.122 209.601,329.808 237.266,346.535 270.717 C 363.262 304.169,376.948 331.732,376.948 331.969 C 376.948 332.206,322.012 332.400,254.868 332.400 L 132.787 332.400 190.186 217.605 L 247.584 102.811 231.316 94.669 C 222.369 90.191,214.660 86.527,214.184 86.527 C 213.708 86.527,181.514 150.136,142.641 227.881 " stroke="none" fill-rule="evenodd" fill="black"></path></svg>