<svg width="136mm" height="120mm" version="1.1" viewBox="0 0 600 529.4117647058824" xmlns="http://www.w3.org/2000/svg"><path d="M229.596 35.511 C 193.131 40.238,157.560 55.579,130.264 78.351 C 120.893 86.169,105.882 101.969,98.893 111.371 C 73.445 145.604,60.740 183.974,60.740 226.597 C 60.740 277.154,79.206 323.216,113.941 359.305 C 131.001 377.030,147.219 388.947,168.342 399.278 C 196.121 412.865,222.325 418.929,253.155 418.905 C 275.932 418.887,293.706 416.096,313.930 409.363 C 383.425 386.224,432.961 326.853,444.263 253.155 C 446.237 240.280,446.237 212.914,444.263 200.039 C 431.211 114.932,367.041 49.763,283.071 36.338 C 271.343 34.463,241.267 33.998,229.596 35.511 M270.740 72.840 C 288.084 74.937,302.173 78.885,317.407 85.919 C 335.671 94.351,348.208 103.094,362.433 117.319 C 384.899 139.785,398.488 165.020,405.362 197.041 C 407.063 204.961,407.294 208.495,407.294 226.597 C 407.294 244.700,407.063 248.233,405.362 256.153 C 400.132 280.514,390.954 300.899,376.625 319.977 C 370.023 328.767,355.325 343.466,346.535 350.067 C 324.392 366.698,299.574 376.695,271.148 380.435 C 260.124 381.885,235.000 380.975,224.077 378.730 C 192.913 372.324,166.193 358.107,144.300 336.282 C 114.454 306.528,98.554 268.406,98.554 226.597 C 98.554 184.999,114.467 146.640,143.875 117.350 C 168.694 92.629,201.257 76.703,234.736 72.913 C 244.031 71.860,262.327 71.823,270.740 72.840 M139.840 150.947 L 140.070 170.055 181.406 170.277 L 222.742 170.500 222.742 264.745 L 222.742 358.990 241.804 358.760 L 260.865 358.529 261.088 321.150 L 261.311 283.771 283.362 283.333 C 308.902 282.827,314.672 281.799,327.833 275.414 C 347.112 266.061,360.510 250.323,367.212 229.161 C 369.492 221.962,369.650 220.530,369.622 207.321 C 369.594 194.198,369.421 192.665,367.198 185.904 C 358.671 159.972,338.828 141.210,312.695 134.368 C 305.453 132.471,304.964 132.459,222.511 132.150 L 139.609 131.838 139.840 150.947 M305.842 171.693 C 314.731 174.440,324.019 182.165,328.152 190.250 C 337.119 207.791,331.410 228.887,314.837 239.447 C 306.549 244.729,303.989 245.208,281.640 245.659 L 261.293 246.069 261.293 208.276 L 261.293 170.483 281.640 170.493 C 296.572 170.499,303.013 170.819,305.842 171.693 " stroke="none" fill-rule="evenodd" fill="black"></path></svg>