<svg width="136mm" height="120mm" version="1.1" viewBox="0 0 600 529.4117647058824" xmlns="http://www.w3.org/2000/svg"><path d="M228.739 35.615 C 187.723 40.877,149.718 59.162,119.860 87.999 C 102.793 104.482,90.887 120.766,80.537 141.784 C 67.080 169.110,60.840 195.978,60.840 226.597 C 60.840 277.152,79.660 323.730,114.798 360.136 C 146.736 393.227,187.471 413.083,233.732 418.109 C 247.143 419.566,272.398 418.749,285.709 416.428 C 317.392 410.903,348.743 396.834,373.521 377.024 C 381.440 370.692,394.114 358.112,401.647 349.105 C 419.992 327.173,435.222 296.225,441.084 268.970 C 446.949 241.702,446.983 211.468,441.179 184.619 C 435.181 156.876,420.096 126.146,401.647 104.089 C 383.168 81.996,362.577 65.846,337.111 53.475 C 316.718 43.567,296.011 37.566,273.964 35.171 C 262.841 33.964,239.852 34.189,228.739 35.615 M284.056 74.875 C 342.893 87.269,388.786 131.205,403.451 189.176 C 409.230 212.022,409.230 241.173,403.451 264.018 C 388.459 323.284,340.253 368.264,280.141 379.076 C 269.323 381.022,247.503 381.715,236.785 380.453 C 182.550 374.066,137.265 342.117,114.031 293.848 C 102.416 269.716,97.757 247.316,98.797 220.600 C 99.553 201.204,102.544 186.820,109.397 169.628 C 130.538 116.589,176.715 80.941,234.772 72.839 C 237.815 72.415,247.822 72.209,257.010 72.382 C 270.778 72.641,275.534 73.080,284.056 74.875 M140.249 132.467 C 139.915 132.801,139.642 141.298,139.642 151.350 L 139.642 169.627 181.192 169.627 L 222.742 169.627 222.742 264.292 L 222.742 358.957 241.589 358.957 L 260.437 358.957 260.437 321.363 L 260.437 283.769 282.925 283.334 C 308.938 282.832,314.677 281.821,327.688 275.450 C 338.084 270.359,346.232 263.923,353.144 255.343 C 363.959 241.917,369.077 228.368,369.850 211.120 C 370.748 191.079,364.978 174.060,352.029 158.564 C 343.139 147.924,327.815 138.368,313.124 134.301 C 306.302 132.413,305.891 132.403,223.563 132.132 C 178.074 131.983,140.583 132.134,140.249 132.467 M300.685 170.540 C 317.701 173.301,331.007 187.710,332.167 204.632 C 333.399 222.611,323.012 238.076,305.842 243.825 C 301.807 245.176,298.238 245.405,280.998 245.423 L 260.865 245.445 260.642 208.606 C 260.519 188.345,260.603 171.286,260.829 170.697 C 261.353 169.331,292.474 169.208,300.685 170.540 " stroke="none" fill-rule="evenodd" fill="black"></path></svg>