<svg width="136mm" height="120mm" version="1.1" viewBox="0 0 600 529.4117647058824" xmlns="http://www.w3.org/2000/svg"><path d="M260.437 94.172 L 260.437 113.061 288.922 113.287 L 317.407 113.513 317.624 264.506 L 317.840 415.500 336.685 415.500 L 355.531 415.500 355.531 359.086 L 355.531 302.672 366.025 302.083 C 395.951 300.404,420.065 290.304,440.443 270.912 C 458.053 254.154,468.758 234.797,473.864 210.481 C 476.273 199.004,476.429 180.509,474.215 168.770 C 465.568 122.921,431.774 88.191,385.724 77.828 C 377.668 76.015,375.333 75.938,318.907 75.616 L 260.437 75.283 260.437 94.172 M37.695 120.795 L 37.695 139.642 50.974 139.642 L 64.252 139.642 64.252 234.307 L 64.252 328.973 50.957 328.973 L 37.661 328.973 37.892 347.606 L 38.123 366.239 141.784 366.239 L 245.445 366.239 245.675 347.606 L 245.906 328.973 230.897 328.973 L 215.888 328.973 215.888 234.307 L 215.888 139.642 230.881 139.642 L 245.873 139.642 245.873 120.795 L 245.873 101.947 141.784 101.947 L 37.695 101.947 37.695 120.795 M379.510 115.282 C 416.287 123.650,441.965 159.304,437.771 196.177 C 436.553 206.883,434.839 212.740,430.120 222.314 C 422.592 237.585,411.495 248.682,396.224 256.209 C 391.512 258.532,385.344 261.017,382.517 261.732 C 376.835 263.168,364.821 264.702,359.171 264.713 L 355.531 264.720 355.531 188.773 L 355.531 112.826 364.312 113.324 C 369.141 113.598,375.981 114.479,379.510 115.282 M177.337 234.316 L 177.337 328.991 139.856 328.768 L 102.376 328.544 102.158 234.093 L 101.940 139.642 139.638 139.642 L 177.337 139.642 177.337 234.316 " stroke="none" fill-rule="evenodd" fill="black"></path></svg>