<svg width="136mm" height="120mm" version="1.1" viewBox="0 0 600 529.4117647058824" xmlns="http://www.w3.org/2000/svg"><path d="M261.008 75.961 C 260.694 76.275,260.437 84.756,260.437 94.808 L 260.437 113.084 288.708 113.084 L 316.979 113.084 316.979 264.292 L 316.979 415.500 336.255 415.500 L 355.531 415.500 355.531 359.079 L 355.531 302.658 366.025 302.062 C 396.369 300.339,420.739 289.994,441.267 270.121 C 453.984 257.811,463.069 244.075,468.699 228.648 C 484.187 186.210,474.353 140.763,442.830 109.094 C 423.662 89.838,399.700 78.627,372.665 76.265 C 361.820 75.318,261.923 75.045,261.008 75.961 M37.695 120.795 L 37.695 139.642 50.974 139.642 L 64.252 139.642 64.252 234.307 L 64.252 328.973 50.957 328.973 L 37.661 328.973 37.892 347.606 L 38.123 366.239 141.784 366.239 L 245.445 366.239 245.675 347.606 L 245.906 328.973 230.897 328.973 L 215.888 328.973 215.888 234.307 L 215.888 139.642 230.881 139.642 L 245.873 139.642 245.873 120.795 L 245.873 101.947 141.784 101.947 L 37.695 101.947 37.695 120.795 M370.022 113.975 C 401.450 117.200,426.624 138.200,435.410 168.520 C 437.063 174.226,437.342 177.185,437.329 188.902 C 437.311 204.164,436.374 209.025,431.351 219.908 C 419.015 246.637,395.407 262.297,364.312 264.378 L 355.531 264.965 355.531 189.025 L 355.531 113.084 358.438 113.084 C 360.037 113.084,365.250 113.485,370.022 113.975 M177.337 234.316 L 177.337 328.991 139.856 328.768 L 102.376 328.544 102.158 234.093 L 101.940 139.642 139.638 139.642 L 177.337 139.642 177.337 234.316 " stroke="none" fill-rule="evenodd" fill="black"></path></svg>