<svg width="136mm" height="120mm" version="1.1" viewBox="0 0 600 529.4117647058824" xmlns="http://www.w3.org/2000/svg"><path d="M261.075 75.894 C 260.724 76.245,260.437 84.756,260.437 94.808 L 260.437 113.084 288.708 113.084 L 316.979 113.084 316.979 264.292 L 316.979 415.500 336.255 415.500 L 355.531 415.500 355.531 359.079 L 355.531 302.658 366.025 302.062 C 396.948 300.306,422.365 289.269,442.830 268.711 C 466.903 244.527,478.879 211.650,475.613 178.718 C 472.645 148.803,459.659 123.359,437.273 103.597 C 422.904 90.912,403.199 81.314,383.501 77.406 C 377.625 76.240,367.429 75.960,319.117 75.638 C 287.545 75.428,261.426 75.542,261.075 75.894 M37.695 120.795 L 37.695 139.642 50.974 139.642 L 64.252 139.642 64.252 234.307 L 64.252 328.973 50.974 328.973 L 37.695 328.973 37.695 347.824 L 37.695 366.674 141.570 366.457 L 245.445 366.239 245.675 347.606 L 245.906 328.973 230.897 328.973 L 215.888 328.973 215.888 234.307 L 215.888 139.642 230.881 139.642 L 245.873 139.642 245.873 120.795 L 245.873 101.947 141.784 101.947 L 37.695 101.947 37.695 120.795 M379.332 115.327 C 401.917 119.906,423.088 137.501,432.205 159.271 C 451.897 206.294,421.283 258.198,370.523 263.848 C 366.282 264.320,361.174 264.709,359.171 264.713 L 355.531 264.720 355.531 188.792 L 355.531 112.864 364.312 113.463 C 369.141 113.793,375.900 114.632,379.332 115.327 M177.337 234.307 L 177.337 328.973 139.642 328.973 L 101.947 328.973 101.947 234.307 L 101.947 139.642 139.642 139.642 L 177.337 139.642 177.337 234.307 " stroke="none" fill-rule="evenodd" fill="black"></path></svg>