<svg width="136mm" height="120mm" version="1.1" viewBox="0 0 600 529.4117647058824" xmlns="http://www.w3.org/2000/svg"><path d="M238.163 56.536 L 238.163 75.377 181.406 75.598 L 124.650 75.818 124.419 94.451 L 124.188 113.084 181.175 113.084 L 238.163 113.084 238.163 131.926 L 238.163 150.767 181.406 150.987 L 124.650 151.208 124.650 170.055 L 124.650 188.902 169.004 189.331 L 213.358 189.759 144.027 224.400 L 74.697 259.041 82.958 275.588 C 87.501 284.689,91.514 292.135,91.875 292.135 C 92.236 292.135,109.878 283.460,131.079 272.857 L 169.627 253.579 169.627 266.432 L 169.627 279.284 188.833 279.284 L 208.040 279.284 189.689 334.323 C 179.596 364.595,171.458 389.724,171.605 390.167 C 171.844 390.881,206.547 402.918,206.934 402.421 C 207.020 402.311,216.296 374.560,227.548 340.752 C 247.834 279.800,248.025 279.284,250.295 279.284 L 252.585 279.284 252.939 325.332 C 253.283 370.005,253.351 371.571,255.212 377.799 C 258.291 388.099,261.760 393.728,270.271 402.239 C 282.364 414.333,293.324 418.926,310.082 418.926 C 320.106 418.926,326.262 417.456,335.826 412.777 C 350.465 405.616,362.324 390.076,365.393 374.035 C 366.234 369.640,366.668 362.007,366.668 351.600 L 366.668 335.826 347.820 335.826 L 328.973 335.826 328.952 349.748 C 328.941 357.405,328.592 365.135,328.176 366.926 C 326.381 374.657,319.862 380.276,311.843 381.003 C 305.871 381.544,301.590 380.246,297.495 376.650 C 291.176 371.102,291.318 372.327,291.297 323.190 L 291.278 279.284 321.262 279.284 L 351.247 279.284 351.247 268.145 L 351.247 257.006 386.368 274.570 C 405.684 284.231,421.784 292.135,422.145 292.135 C 422.506 292.135,426.517 284.692,431.058 275.596 L 439.315 259.057 369.999 224.408 L 300.682 189.759 341.171 189.331 L 381.660 188.902 381.660 170.055 L 381.660 151.208 328.759 150.987 L 275.857 150.766 275.857 131.925 L 275.857 113.084 328.990 113.084 L 382.122 113.084 381.891 94.451 L 381.660 75.818 328.759 75.597 L 275.857 75.377 275.857 56.536 L 275.857 37.695 257.010 37.695 L 238.163 37.695 238.163 56.536 M288.708 225.740 L 319.977 241.496 257.010 241.496 L 194.043 241.496 225.312 225.740 C 242.510 217.075,256.774 209.985,257.010 209.985 C 257.246 209.985,271.510 217.075,288.708 225.740 " stroke="none" fill-rule="evenodd" fill="black"></path></svg>