<svg width="136mm" height="120mm" version="1.1" viewBox="0 0 600 529.4117647058824" xmlns="http://www.w3.org/2000/svg"><path d="M238.163 56.542 L 238.163 75.390 181.620 75.390 L 125.078 75.390 125.078 94.237 L 125.078 113.084 181.620 113.084 L 238.163 113.084 238.163 131.932 L 238.163 150.779 181.620 150.779 L 125.078 150.779 125.078 170.055 L 125.078 189.331 169.412 189.378 L 213.747 189.425 144.228 224.288 L 74.710 259.152 82.964 275.643 C 87.504 284.714,91.513 292.135,91.874 292.135 C 92.236 292.135,109.878 283.460,131.079 272.857 L 169.627 253.579 169.627 266.432 L 169.627 279.284 188.902 279.284 C 199.504 279.284,208.178 279.384,208.178 279.506 C 208.178 279.628,199.897 304.565,189.775 334.922 C 179.653 365.279,171.506 390.250,171.669 390.413 C 171.833 390.577,179.825 393.340,189.430 396.553 L 206.893 402.395 227.454 341.054 C 247.508 281.224,248.071 279.706,250.300 279.448 L 252.585 279.184 252.939 325.282 C 253.283 370.007,253.351 371.571,255.212 377.799 C 258.291 388.099,261.760 393.728,270.271 402.239 C 282.364 414.333,293.324 418.926,310.082 418.926 C 319.996 418.926,326.265 417.455,335.398 412.984 C 348.324 406.657,359.191 394.084,363.793 380.130 C 365.964 373.546,366.137 371.892,366.475 354.460 L 366.835 335.826 347.904 335.826 L 328.973 335.826 328.952 349.319 C 328.922 368.448,327.593 372.856,320.269 378.121 C 316.244 381.014,308.757 382.044,303.752 380.392 C 299.468 378.978,294.784 374.731,292.876 370.530 C 291.433 367.353,291.314 363.806,291.297 323.190 L 291.278 279.284 321.262 279.284 L 351.247 279.284 351.247 268.145 L 351.247 257.006 386.368 274.570 C 405.684 284.231,421.681 292.135,421.916 292.135 C 422.643 292.135,438.705 259.535,438.293 258.896 C 438.080 258.566,407.030 242.874,369.294 224.027 L 300.682 189.759 341.171 189.331 L 381.660 188.902 381.660 170.055 L 381.660 151.208 328.759 150.987 L 275.857 150.766 275.857 131.925 L 275.857 113.084 328.990 113.084 L 382.122 113.084 381.891 94.451 L 381.660 75.818 328.759 75.597 L 275.857 75.377 275.857 56.536 L 275.857 37.695 257.010 37.695 L 238.163 37.695 238.163 56.542 M288.708 225.740 L 319.977 241.496 257.010 241.496 L 194.043 241.496 225.312 225.740 C 242.510 217.075,256.774 209.985,257.010 209.985 C 257.246 209.985,271.510 217.075,288.708 225.740 " stroke="none" fill-rule="evenodd" fill="black"></path></svg>