<svg width="136mm" height="120mm" version="1.1" viewBox="0 0 600 529.4117647058824" xmlns="http://www.w3.org/2000/svg"><path d="M238.163 56.542 L 238.163 75.390 181.620 75.390 L 125.078 75.390 125.078 94.237 L 125.078 113.084 181.620 113.084 L 238.163 113.084 238.163 131.932 L 238.163 150.779 181.620 150.779 L 125.078 150.779 125.078 169.619 L 125.078 188.459 169.841 188.681 L 214.603 188.902 144.996 223.814 C 106.713 243.015,75.390 258.922,75.390 259.161 C 75.390 259.998,91.679 292.135,92.103 292.135 C 92.339 292.135,109.876 283.461,131.075 272.859 C 152.274 262.257,169.814 253.583,170.051 253.583 C 170.289 253.583,170.483 259.366,170.483 266.434 L 170.483 279.284 189.331 279.284 C 199.697 279.284,208.178 279.384,208.178 279.506 C 208.178 279.628,199.897 304.565,189.775 334.922 C 179.653 365.279,171.504 390.248,171.666 390.410 C 171.828 390.572,179.841 393.338,189.473 396.557 L 206.986 402.409 227.500 340.810 L 248.015 279.211 250.585 279.462 L 253.155 279.713 253.583 327.259 C 254.056 379.777,253.672 376.018,259.894 388.942 C 263.934 397.335,275.015 408.192,284.179 412.736 C 293.869 417.542,302.071 419.248,313.008 418.734 C 327.785 418.040,339.089 412.980,350.032 402.163 C 354.892 397.359,356.973 394.438,360.103 388.027 C 365.492 376.993,366.668 370.411,366.668 351.283 L 366.668 335.826 347.820 335.826 L 328.973 335.826 328.968 349.748 C 328.965 357.405,328.548 365.211,328.040 367.096 C 326.585 372.499,323.240 376.663,318.427 379.061 C 308.602 383.958,297.385 380.206,292.902 370.523 C 291.424 367.330,291.314 364.098,291.297 323.190 L 291.278 279.284 321.262 279.284 L 351.247 279.284 351.247 268.145 L 351.247 257.006 386.368 274.570 C 405.684 284.231,421.681 292.135,421.916 292.135 C 422.412 292.135,438.630 259.925,438.630 258.940 C 438.630 258.579,407.394 242.673,369.215 223.593 L 299.800 188.902 340.516 188.680 L 381.231 188.457 381.231 169.618 L 381.231 150.779 328.544 150.779 L 275.857 150.779 275.857 131.932 L 275.857 113.084 328.544 113.084 L 381.231 113.084 381.231 94.237 L 381.231 75.390 328.544 75.390 L 275.857 75.390 275.857 56.542 L 275.857 37.695 257.010 37.695 L 238.163 37.695 238.163 56.542 M288.708 225.740 L 319.977 241.496 257.010 241.496 L 194.043 241.496 225.312 225.740 C 242.510 217.075,256.774 209.985,257.010 209.985 C 257.246 209.985,271.510 217.075,288.708 225.740 " stroke="none" fill-rule="evenodd" fill="black"></path></svg>