<svg width="136mm" height="120mm" version="1.1" viewBox="0 0 600 529.4117647058824" xmlns="http://www.w3.org/2000/svg"><path d="M238.163 75.383 L 238.163 113.072 181.406 113.292 L 124.650 113.513 124.419 132.146 L 124.188 150.779 181.175 150.779 L 238.163 150.779 238.163 160.203 L 238.163 169.628 156.429 210.492 L 74.696 251.356 82.849 267.676 C 87.333 276.652,91.151 284.155,91.332 284.350 C 91.513 284.545,109.014 276.160,130.223 265.717 C 151.431 255.274,168.974 246.730,169.205 246.730 C 169.437 246.730,169.627 254.054,169.627 263.007 L 169.627 279.284 188.833 279.284 L 208.040 279.284 189.689 334.323 C 179.596 364.595,171.458 389.724,171.605 390.167 C 171.844 390.881,206.547 402.918,206.934 402.421 C 207.020 402.311,216.296 374.560,227.548 340.752 C 247.834 279.800,248.025 279.284,250.295 279.284 L 252.585 279.284 252.939 325.332 C 253.283 370.005,253.351 371.571,255.212 377.799 C 258.291 388.099,261.760 393.728,270.271 402.239 C 282.364 414.333,293.324 418.926,310.082 418.926 C 320.106 418.926,326.262 417.456,335.826 412.777 C 350.465 405.616,362.324 390.076,365.393 374.035 C 366.234 369.640,366.668 362.007,366.668 351.600 L 366.668 335.826 347.820 335.826 L 328.973 335.826 328.952 349.748 C 328.941 357.405,328.592 365.135,328.176 366.926 C 326.381 374.657,319.862 380.276,311.843 381.003 C 305.871 381.544,301.590 380.246,297.495 376.650 C 291.176 371.102,291.318 372.327,291.297 323.190 L 291.278 279.284 321.262 279.284 L 351.247 279.284 351.247 264.720 C 351.247 256.710,351.419 250.156,351.629 250.156 C 351.838 250.156,367.704 257.867,386.885 267.290 C 406.067 276.714,421.995 284.424,422.281 284.424 C 422.568 284.424,426.517 276.983,431.057 267.887 L 439.313 251.350 357.585 210.489 L 275.857 169.628 275.857 160.203 L 275.857 150.779 328.990 150.779 L 382.122 150.779 381.891 132.146 L 381.660 113.513 328.759 113.292 L 275.857 113.071 275.857 75.383 L 275.857 37.695 257.010 37.695 L 238.163 37.695 238.163 75.383 M296.418 222.314 L 334.541 241.496 257.010 241.496 L 179.479 241.496 217.602 222.314 C 238.570 211.763,256.303 203.131,257.010 203.131 C 257.717 203.131,275.450 211.763,296.418 222.314 " stroke="none" fill-rule="evenodd" fill="black"></path></svg>