<svg width="136mm" height="120mm" version="1.1" viewBox="0 0 600 529.4117647058824" xmlns="http://www.w3.org/2000/svg"><path d="M238.163 75.390 L 238.163 113.084 181.620 113.084 L 125.078 113.084 125.078 131.932 L 125.078 150.779 181.620 150.779 L 238.163 150.779 238.163 160.202 L 238.163 169.625 156.776 210.320 C 112.014 232.702,75.390 251.397,75.390 251.865 C 75.390 252.332,78.951 259.849,83.303 268.569 C 88.443 278.867,91.671 284.409,92.513 284.380 C 93.226 284.356,110.964 275.722,131.932 265.194 L 170.055 246.052 170.287 262.668 L 170.520 279.284 189.349 279.284 C 199.705 279.284,208.178 279.384,208.178 279.506 C 208.178 279.628,199.897 304.565,189.775 334.922 C 179.653 365.279,171.504 390.248,171.666 390.410 C 171.828 390.572,179.841 393.338,189.473 396.557 L 206.986 402.409 227.500 340.810 L 248.015 279.211 250.585 279.462 L 253.155 279.713 253.583 327.259 C 254.056 379.777,253.672 376.018,259.894 388.942 C 263.934 397.335,275.015 408.192,284.179 412.736 C 293.869 417.542,302.071 419.248,313.008 418.734 C 327.785 418.040,339.089 412.980,350.032 402.163 C 354.892 397.359,356.973 394.438,360.103 388.027 C 365.492 376.993,366.668 370.411,366.668 351.283 L 366.668 335.826 347.820 335.826 L 328.973 335.826 328.968 349.748 C 328.965 357.405,328.548 365.211,328.040 367.096 C 326.585 372.499,323.240 376.663,318.427 379.061 C 308.602 383.958,297.385 380.206,292.902 370.523 C 291.424 367.330,291.314 364.098,291.297 323.190 L 291.278 279.284 321.262 279.284 L 351.247 279.284 351.247 264.720 C 351.247 255.535,351.565 250.156,352.108 250.156 C 352.581 250.156,368.386 257.867,387.228 267.290 C 406.071 276.714,421.784 284.424,422.145 284.424 C 422.856 284.424,438.630 253.269,438.630 251.865 C 438.630 251.397,402.006 232.702,357.244 210.320 L 275.857 169.625 275.857 160.202 L 275.857 150.779 328.544 150.779 L 381.231 150.779 381.231 131.932 L 381.231 113.084 328.544 113.084 L 275.857 113.084 275.857 75.390 L 275.857 37.695 257.010 37.695 L 238.163 37.695 238.163 75.390 M297.275 222.314 L 335.398 241.496 257.438 241.496 L 179.479 241.496 217.602 222.314 C 238.570 211.763,256.496 203.131,257.438 203.131 C 258.381 203.131,276.307 211.763,297.275 222.314 " stroke="none" fill-rule="evenodd" fill="black"></path></svg>