<svg width="136mm" height="120mm" version="1.1" viewBox="0 0 600 529.4117647058824" xmlns="http://www.w3.org/2000/svg"><path d="M238.163 75.390 L 238.163 113.084 181.620 113.084 L 125.078 113.084 125.078 131.932 L 125.078 150.779 181.620 150.779 L 238.163 150.779 238.163 160.202 L 238.163 169.625 156.776 210.320 C 112.014 232.702,75.390 251.404,75.390 251.879 C 75.390 252.355,79.054 260.064,83.532 269.012 L 91.675 285.281 130.219 266.005 C 151.418 255.404,168.957 246.730,169.195 246.730 C 169.432 246.730,169.627 254.054,169.627 263.007 L 169.627 279.284 188.902 279.284 C 199.504 279.284,208.178 279.384,208.178 279.506 C 208.178 279.628,199.897 304.565,189.775 334.922 C 179.653 365.279,171.506 390.250,171.669 390.413 C 171.833 390.577,179.825 393.340,189.430 396.553 L 206.893 402.395 227.454 341.054 C 247.508 281.224,248.071 279.706,250.300 279.448 L 252.585 279.184 252.939 325.282 C 253.283 370.007,253.351 371.571,255.212 377.799 C 258.291 388.099,261.760 393.728,270.271 402.239 C 282.364 414.333,293.324 418.926,310.082 418.926 C 319.996 418.926,326.265 417.455,335.398 412.984 C 348.324 406.657,359.191 394.084,363.793 380.130 C 365.964 373.546,366.137 371.892,366.475 354.460 L 366.835 335.826 347.904 335.826 L 328.973 335.826 328.952 349.319 C 328.922 368.448,327.593 372.856,320.269 378.121 C 316.244 381.014,308.757 382.044,303.752 380.392 C 299.468 378.978,294.784 374.731,292.876 370.530 C 291.433 367.353,291.314 363.806,291.297 323.190 L 291.278 279.284 321.262 279.284 L 351.247 279.284 351.247 264.720 C 351.247 256.710,351.442 250.156,351.679 250.156 C 351.917 250.156,367.914 258.059,387.228 267.719 L 422.345 285.281 430.488 269.012 C 434.966 260.065,438.630 252.355,438.630 251.879 C 438.630 251.404,402.006 232.702,357.244 210.320 L 275.857 169.625 275.857 160.202 L 275.857 150.779 328.990 150.779 L 382.122 150.779 381.891 132.146 L 381.660 113.513 328.759 113.292 L 275.857 113.071 275.857 75.383 L 275.857 37.695 257.010 37.695 L 238.163 37.695 238.163 75.390 M296.418 222.314 L 334.541 241.496 257.010 241.496 L 179.479 241.496 217.602 222.314 C 238.570 211.763,256.303 203.131,257.010 203.131 C 257.717 203.131,275.450 211.763,296.418 222.314 " stroke="none" fill-rule="evenodd" fill="black"></path></svg>