<svg width="136mm" height="120mm" version="1.1" viewBox="0 0 600 529.4117647058824" xmlns="http://www.w3.org/2000/svg"><path d="M240.838 49.750 C 194.951 51.948,154.005 63.768,124.791 83.249 C 114.793 89.917,100.901 103.765,96.121 111.828 C 94.156 115.142,91.547 120.722,90.322 124.228 C 88.046 130.741,86.267 142.113,87.337 143.301 C 87.665 143.664,96.183 143.856,106.268 143.729 L 124.603 143.497 125.248 139.719 C 128.495 120.681,162.044 100.474,204.227 92.147 C 223.124 88.417,230.496 87.812,257.010 87.812 C 283.524 87.812,290.896 88.417,309.793 92.147 C 351.976 100.474,385.522 120.680,388.773 139.719 L 389.418 143.497 408.241 143.497 L 427.065 143.497 426.769 138.357 C 426.364 131.321,422.409 119.434,417.994 111.988 C 413.116 103.759,399.329 89.985,389.229 83.249 C 361.055 64.461,319.174 51.998,277.999 50.150 C 271.874 49.875,264.163 49.521,260.865 49.364 C 257.567 49.206,248.555 49.380,240.838 49.750 M321.262 149.494 L 321.262 170.483 292.991 170.483 L 264.720 170.483 264.720 189.331 L 264.720 208.178 292.991 208.178 L 321.262 208.178 321.262 227.025 L 321.262 245.873 292.991 245.873 L 264.720 245.873 264.720 264.720 L 264.720 283.568 292.991 283.568 L 321.262 283.568 321.262 302.415 L 321.262 321.262 292.991 321.262 L 264.720 321.262 264.720 340.110 L 264.720 358.957 292.991 358.957 L 321.262 358.957 321.262 376.091 L 321.262 393.225 340.110 393.225 L 358.957 393.225 358.957 376.091 L 358.957 358.957 387.228 358.957 L 415.500 358.957 415.500 340.110 L 415.500 321.262 387.228 321.262 L 358.957 321.262 358.957 302.415 L 358.957 283.568 387.228 283.568 L 415.500 283.568 415.500 264.720 L 415.500 245.873 387.228 245.873 L 358.957 245.873 358.957 227.025 L 358.957 208.178 387.228 208.178 L 415.500 208.178 415.500 189.331 L 415.500 170.483 387.228 170.483 L 358.957 170.483 358.957 149.494 L 358.957 128.505 340.110 128.505 L 321.262 128.505 321.262 149.494 M151.367 132.487 C 151.044 132.810,150.779 145.732,150.779 161.202 L 150.779 189.331 122.491 189.331 L 94.204 189.331 94.434 207.964 L 94.665 226.597 122.722 226.823 L 150.779 227.049 150.779 264.732 L 150.779 302.415 122.508 302.415 L 94.237 302.415 94.237 321.262 L 94.237 340.110 170.055 340.110 L 245.873 340.110 245.873 321.262 L 245.873 302.415 217.602 302.415 L 189.331 302.415 189.331 264.732 L 189.331 227.049 217.388 226.823 L 245.445 226.597 245.675 207.964 L 245.906 189.331 217.630 189.331 L 189.354 189.331 189.128 160.845 L 188.902 132.360 170.428 132.130 C 160.267 132.003,151.690 132.164,151.367 132.487 " stroke="none" fill-rule="evenodd" fill="black"></path></svg>