<svg width="136mm" height="120mm" version="1.1" viewBox="0 0 600 529.4117647058824" xmlns="http://www.w3.org/2000/svg"><path d="M241.589 49.357 C 169.109 53.526,112.318 79.547,93.423 117.245 C 90.140 123.795,87.383 134.087,87.383 139.796 L 87.383 143.959 105.952 143.728 L 124.521 143.497 125.516 139.080 C 130.389 117.432,169.158 96.789,218.469 89.585 C 242.113 86.131,271.907 86.131,295.551 89.585 C 335.174 95.374,368.175 109.688,382.290 127.208 C 385.940 131.739,387.138 134.355,389.453 142.855 C 389.675 143.669,394.161 143.926,408.191 143.926 L 426.637 143.926 426.637 139.779 C 426.637 134.086,423.877 123.788,420.597 117.245 C 416.387 108.846,411.193 102.066,403.095 94.401 C 379.296 71.873,339.092 56.226,291.706 51.049 C 279.500 49.715,251.684 48.776,241.589 49.357 M321.262 149.066 L 321.262 169.627 292.991 169.627 L 264.720 169.627 264.720 188.474 L 264.720 207.321 292.991 207.321 L 321.262 207.321 321.262 226.597 L 321.262 245.873 292.991 245.873 L 264.720 245.873 264.720 264.720 L 264.720 283.568 292.991 283.568 L 321.262 283.568 321.262 302.415 L 321.262 321.262 292.991 321.262 L 264.720 321.262 264.720 340.110 L 264.720 358.957 292.991 358.957 L 321.262 358.957 321.262 375.663 L 321.262 392.369 340.110 392.369 L 358.957 392.369 358.957 375.663 L 358.957 358.957 387.228 358.957 L 415.500 358.957 415.500 340.110 L 415.500 321.262 387.228 321.262 L 358.957 321.262 358.957 302.415 L 358.957 283.568 387.228 283.568 L 415.500 283.568 415.500 264.720 L 415.500 245.873 387.228 245.873 L 358.957 245.873 358.957 226.597 L 358.957 207.321 387.228 207.321 L 415.500 207.321 415.500 188.474 L 415.500 169.627 387.228 169.627 L 358.957 169.627 358.957 149.066 L 358.957 128.505 340.110 128.505 L 321.262 128.505 321.262 149.066 M151.636 160.175 L 151.636 188.451 123.151 188.677 L 94.665 188.902 94.665 207.750 L 94.665 226.597 123.160 226.823 L 151.654 227.049 151.431 264.518 L 151.208 301.987 122.706 302.212 L 94.204 302.438 94.434 321.060 L 94.665 339.682 170.269 339.900 L 245.873 340.119 245.873 321.267 L 245.873 302.415 217.602 302.415 L 189.331 302.415 189.331 264.732 L 189.331 227.049 217.388 226.823 L 245.445 226.597 245.445 207.750 L 245.445 188.902 217.399 188.676 L 189.354 188.451 189.128 160.405 L 188.902 132.360 170.269 132.129 L 151.636 131.898 151.636 160.175 " stroke="none" fill-rule="evenodd" fill="black"></path></svg>