<svg width="136mm" height="120mm" version="1.1" viewBox="0 0 600 529.4117647058824" xmlns="http://www.w3.org/2000/svg"><path d="M241.560 49.724 C 170.210 53.092,112.085 79.533,93.446 117.100 C 90.068 123.908,87.383 133.795,87.383 139.427 L 87.383 143.959 105.919 143.728 L 124.455 143.497 125.624 138.930 C 130.937 118.159,166.077 98.416,211.177 90.862 C 227.157 88.186,237.727 87.383,257.010 87.383 C 276.293 87.383,286.863 88.186,302.843 90.862 C 348.878 98.572,384.355 118.974,388.778 140.281 L 389.446 143.497 408.041 143.728 L 426.637 143.959 426.637 139.427 C 426.637 133.725,423.962 123.961,420.517 117.086 C 412.018 100.126,395.419 85.131,372.236 73.471 C 350.793 62.685,326.712 55.713,297.674 51.883 C 289.202 50.766,282.309 50.290,261.293 49.375 C 257.760 49.221,248.880 49.378,241.560 49.724 M321.262 149.494 L 321.262 170.483 292.991 170.483 L 264.720 170.483 264.720 189.331 L 264.720 208.178 292.991 208.178 L 321.262 208.178 321.262 227.025 L 321.262 245.873 292.991 245.873 L 264.720 245.873 264.720 264.720 L 264.720 283.568 292.991 283.568 L 321.262 283.568 321.262 302.415 L 321.262 321.262 292.991 321.262 L 264.720 321.262 264.720 340.110 L 264.720 358.957 292.991 358.957 L 321.262 358.957 321.262 376.091 L 321.262 393.225 340.110 393.225 L 358.957 393.225 358.957 376.091 L 358.957 358.957 387.228 358.957 L 415.500 358.957 415.500 340.110 L 415.500 321.262 387.228 321.262 L 358.957 321.262 358.957 302.415 L 358.957 283.568 387.228 283.568 L 415.500 283.568 415.500 264.720 L 415.500 245.873 387.228 245.873 L 358.957 245.873 358.957 227.025 L 358.957 208.178 387.228 208.178 L 415.500 208.178 415.500 189.331 L 415.500 170.483 387.228 170.483 L 358.957 170.483 358.957 149.494 L 358.957 128.505 340.110 128.505 L 321.262 128.505 321.262 149.494 M151.350 132.503 C 151.036 132.817,150.779 145.732,150.779 161.202 L 150.779 189.331 122.491 189.331 L 94.204 189.331 94.434 207.964 L 94.665 226.597 122.722 226.823 L 150.779 227.049 150.779 264.732 L 150.779 302.415 122.491 302.415 L 94.204 302.415 94.434 321.048 L 94.665 339.682 170.269 339.900 L 245.873 340.119 245.873 321.267 L 245.873 302.415 217.602 302.415 L 189.331 302.415 189.331 264.732 L 189.331 227.049 217.388 226.823 L 245.445 226.597 245.675 207.964 L 245.906 189.331 217.619 189.331 L 189.331 189.331 189.331 160.631 L 189.331 131.932 170.626 131.932 C 160.339 131.932,151.664 132.189,151.350 132.503 " stroke="none" fill-rule="evenodd" fill="black"></path></svg>