<svg width="136mm" height="120mm" version="1.1" viewBox="0 0 600 529.4117647058824" xmlns="http://www.w3.org/2000/svg"><path d="M182.477 100.246 C 131.956 109.160,92.541 147.670,81.653 198.754 C 79.453 209.079,79.450 236.385,81.649 246.730 C 92.866 299.508,133.629 338.112,186.761 346.273 C 197.481 347.920,316.792 347.876,327.688 346.221 C 360.383 341.255,389.746 323.751,409.492 297.454 C 420.613 282.644,428.414 265.347,432.371 246.730 C 434.570 236.385,434.567 209.079,432.367 198.754 C 421.420 147.396,381.761 108.892,330.841 100.187 C 321.744 98.632,316.760 98.525,256.282 98.590 C 197.188 98.653,190.679 98.799,182.477 100.246 M238.163 223.291 L 238.163 310.366 215.674 309.866 C 191.379 309.327,185.968 308.580,173.577 304.058 C 147.259 294.453,126.304 270.580,119.495 242.446 C 117.358 233.615,116.922 217.734,118.559 208.361 C 124.769 172.806,151.284 145.354,186.612 137.903 C 192.649 136.630,198.179 136.325,216.103 136.276 L 238.163 136.215 238.163 223.291 M327.125 137.905 C 367.717 146.193,396.652 181.501,396.652 222.742 C 396.652 261.970,370.375 296.217,332.253 306.676 C 323.512 309.074,311.831 310.077,292.349 310.103 L 275.857 310.125 275.857 223.170 L 275.857 136.215 297.355 136.215 C 315.382 136.215,320.187 136.488,327.125 137.905 " stroke="none" fill-rule="evenodd" fill="black"></path></svg>