<svg width="136mm" height="120mm" version="1.1" viewBox="0 0 600 529.4117647058824" xmlns="http://www.w3.org/2000/svg"><path d="M184.719 99.830 C 166.607 102.872,151.121 108.899,136.215 118.707 C 100.442 142.247,79.673 180.461,79.673 222.742 C 79.673 267.581,103.709 308.902,142.726 331.136 C 155.234 338.264,171.802 343.957,186.761 346.267 C 197.277 347.891,316.822 347.883,327.259 346.258 C 357.520 341.545,384.210 326.988,403.712 304.557 C 430.717 273.498,440.666 231.648,430.504 191.870 C 419.486 148.745,385.456 114.435,341.823 102.460 C 328.178 98.715,323.903 98.523,256.153 98.612 C 206.786 98.676,189.874 98.965,184.719 99.830 M238.163 223.170 L 238.163 310.125 222.528 310.118 C 188.463 310.102,173.891 306.791,156.197 295.046 C 139.930 284.249,127.218 267.371,121.417 248.871 C 106.095 200.002,136.351 148.503,186.612 137.903 C 192.649 136.630,198.179 136.325,216.103 136.276 L 238.163 136.215 238.163 223.170 M325.063 137.515 C 358.409 143.330,385.367 168.351,393.799 201.315 C 405.543 247.229,378.352 293.874,332.395 306.647 C 323.979 308.987,310.752 310.109,291.492 310.118 L 275.857 310.125 275.857 223.170 L 275.857 136.215 296.734 136.215 C 311.548 136.215,319.775 136.593,325.063 137.515 " stroke="none" fill-rule="evenodd" fill="black"></path></svg>