<svg width="136mm" height="120mm" version="1.1" viewBox="0 0 600 529.4117647058824" xmlns="http://www.w3.org/2000/svg"><path d="M184.191 99.780 C 163.770 103.331,144.288 111.738,128.319 123.891 C 119.377 130.696,107.636 143.251,101.168 152.924 C 91.373 167.573,85.874 180.451,82.033 197.741 C 79.543 208.949,79.333 234.714,81.640 246.104 C 90.776 291.220,122.021 326.673,165.239 340.965 C 183.893 347.133,184.760 347.203,247.913 347.607 C 307.276 347.987,323.432 347.415,336.683 344.466 C 393.841 331.745,434.337 281.268,434.337 222.742 C 434.337 188.964,421.409 158.196,397.079 134.074 C 380.253 117.391,360.027 106.478,334.970 100.562 C 329.139 99.185,322.161 99.027,259.580 98.854 C 206.030 98.705,189.180 98.912,184.191 99.780 M238.163 222.810 L 238.163 309.404 213.104 309.071 C 188.968 308.750,187.778 308.654,180.764 306.490 C 171.661 303.681,164.864 300.681,158.625 296.718 C 132.683 280.242,117.368 252.781,117.368 222.742 C 117.368 189.345,136.835 158.726,167.171 144.408 C 174.441 140.976,184.732 137.767,191.472 136.830 C 192.886 136.633,203.970 136.414,216.103 136.344 L 238.163 136.215 238.163 222.810 M331.971 138.737 C 347.085 142.920,360.624 150.913,371.478 162.059 C 387.055 178.056,395.265 196.519,396.395 218.097 C 398.073 250.139,382.889 279.256,355.395 296.718 C 349.156 300.681,342.359 303.681,333.256 306.490 C 326.242 308.654,325.052 308.750,300.916 309.071 L 275.857 309.404 275.857 222.732 L 275.857 136.059 300.488 136.449 C 322.544 136.799,325.834 137.038,331.971 138.737 " stroke="none" fill-rule="evenodd" fill="black"></path></svg>