<svg width="136mm" height="120mm" version="1.1" viewBox="0 0 600 529.4117647058824" xmlns="http://www.w3.org/2000/svg"><path d="M162.773 64.252 L 162.773 83.100 134.502 83.100 L 106.231 83.100 106.231 101.947 L 106.231 120.795 134.502 120.795 L 162.773 120.795 162.773 139.642 L 162.773 158.489 134.502 158.489 L 106.231 158.489 106.231 177.337 L 106.231 196.184 134.502 196.184 L 162.773 196.184 162.773 215.032 L 162.773 233.879 181.620 233.879 L 200.468 233.879 200.468 215.032 L 200.468 196.184 257.010 196.184 L 313.552 196.184 313.552 215.032 L 313.552 233.879 332.400 233.879 L 351.247 233.879 351.247 215.032 L 351.247 196.184 379.518 196.184 L 407.789 196.184 407.789 177.337 L 407.789 158.489 379.518 158.489 L 351.247 158.489 351.247 139.642 L 351.247 120.795 379.518 120.795 L 407.789 120.795 407.789 101.947 L 407.789 83.100 379.518 83.100 L 351.247 83.100 351.247 64.252 L 351.247 45.405 332.400 45.405 L 313.552 45.405 313.552 64.252 L 313.552 83.100 257.010 83.100 L 200.468 83.100 200.468 64.252 L 200.468 45.405 181.620 45.405 L 162.773 45.405 162.773 64.252 M313.552 139.642 L 313.552 158.489 257.010 158.489 L 200.468 158.489 200.468 139.642 L 200.468 120.795 257.010 120.795 L 313.552 120.795 313.552 139.642 M238.163 255.297 L 238.163 283.568 191.044 283.568 L 143.926 283.568 143.926 302.415 L 143.926 321.262 191.044 321.262 L 238.163 321.262 238.163 340.110 L 238.163 358.957 152.921 358.957 L 67.679 358.957 67.679 377.805 L 67.679 396.652 257.010 396.652 L 446.341 396.652 446.341 377.805 L 446.341 358.957 361.099 358.957 L 275.857 358.957 275.857 340.110 L 275.857 321.262 322.976 321.262 L 370.094 321.262 370.094 302.415 L 370.094 283.568 322.976 283.568 L 275.857 283.568 275.857 255.297 L 275.857 227.025 257.010 227.025 L 238.163 227.025 238.163 255.297 " stroke="none" fill-rule="evenodd" fill="black"></path></svg>