<svg width="136mm" height="120mm" version="1.1" viewBox="0 0 600 529.4117647058824" xmlns="http://www.w3.org/2000/svg"><path d="M238.163 75.390 L 238.163 86.527 191.044 86.527 L 143.926 86.527 143.926 105.367 L 143.926 124.207 190.830 124.428 L 237.734 124.650 237.976 134.288 L 238.219 143.926 183.362 143.926 L 128.505 143.926 128.505 162.773 L 128.505 181.620 183.334 181.620 L 238.163 181.620 238.163 226.597 L 238.163 271.574 191.044 271.574 L 143.926 271.574 143.926 290.421 L 143.926 309.269 253.155 309.269 L 362.384 309.269 362.384 290.421 L 362.384 271.574 319.121 271.574 L 275.857 271.574 275.857 264.365 L 275.857 257.155 307.341 256.813 C 337.258 256.489,339.123 256.375,344.822 254.523 C 354.190 251.480,361.321 247.082,368.454 239.949 C 379.991 228.411,385.089 216.175,385.081 200.039 C 385.077 191.951,384.721 189.531,382.574 182.965 C 377.842 168.497,367.415 156.314,354.245 149.868 C 342.517 144.126,340.904 143.926,306.491 143.926 L 275.801 143.926 276.044 134.288 L 276.286 124.650 319.335 124.428 L 362.384 124.206 362.384 105.366 L 362.384 86.527 319.121 86.527 L 275.857 86.527 275.857 75.390 L 275.857 64.252 257.010 64.252 L 238.163 64.252 238.163 75.390 M339.056 184.385 C 344.326 187.875,347.394 193.662,347.353 200.039 C 347.304 207.723,343.887 213.396,337.111 217.043 C 333.829 218.809,332.468 218.898,304.771 219.153 L 275.857 219.419 275.857 200.488 L 275.857 181.557 305.692 181.803 L 335.526 182.049 339.056 184.385 M162.775 196.610 L 149.512 209.895 168.345 228.742 L 187.178 247.590 200.460 234.309 L 213.741 221.028 194.890 202.177 L 176.039 183.326 162.775 196.610 M106.231 366.670 L 106.231 385.520 253.369 385.303 L 400.507 385.087 400.738 366.453 L 400.969 347.820 253.600 347.820 L 106.231 347.820 106.231 366.670 " stroke="none" fill-rule="evenodd" fill="black"></path></svg>