<svg width="136mm" height="120mm" version="1.1" viewBox="0 0 600 529.4117647058824" xmlns="http://www.w3.org/2000/svg"><path d="M238.163 75.818 L 238.163 87.383 191.044 87.383 L 143.926 87.383 143.926 106.231 L 143.926 125.078 191.044 125.078 L 238.163 125.078 238.163 134.502 L 238.163 143.926 183.334 143.926 L 128.505 143.926 128.505 162.773 L 128.505 181.620 183.334 181.620 L 238.163 181.620 238.163 227.025 L 238.163 272.431 191.044 272.431 L 143.926 272.431 143.926 291.281 L 143.926 310.132 253.369 309.914 L 362.812 309.697 363.043 291.064 L 363.274 272.431 319.566 272.431 L 275.857 272.431 275.857 264.720 L 275.857 257.010 304.593 257.010 C 337.670 257.010,342.337 256.429,353.689 250.902 C 361.877 246.914,371.451 238.460,376.653 230.624 C 384.093 219.414,387.226 202.215,384.331 188.474 C 380.447 170.039,365.767 153.248,347.801 146.692 L 341.395 144.354 308.626 144.093 L 275.857 143.832 275.857 134.463 L 275.857 125.094 319.335 124.872 L 362.812 124.650 363.043 106.017 L 363.274 87.383 319.566 87.383 L 275.857 87.383 275.857 75.818 L 275.857 64.252 257.010 64.252 L 238.163 64.252 238.163 75.818 M339.056 184.385 C 348.640 190.731,350.227 204.537,342.366 213.187 C 341.361 214.294,338.996 216.028,337.111 217.043 C 333.828 218.810,332.478 218.898,304.771 219.143 L 275.857 219.400 275.857 200.479 L 275.857 181.557 305.692 181.803 L 335.526 182.049 339.056 184.385 M162.122 196.407 L 149.069 209.480 168.138 228.535 L 187.206 247.590 200.468 234.308 L 213.729 221.026 194.898 202.180 C 184.541 191.814,175.866 183.334,175.620 183.334 C 175.375 183.334,169.301 189.217,162.122 196.407 M105.572 366.453 L 105.802 385.087 253.369 385.303 L 400.936 385.520 400.936 366.670 L 400.936 347.820 253.138 347.820 L 105.341 347.820 105.572 366.453 " stroke="none" fill-rule="evenodd" fill="black"></path></svg>