<svg width="136mm" height="120mm" version="1.1" viewBox="0 0 600 529.4117647058824" xmlns="http://www.w3.org/2000/svg"><path d="M238.163 75.818 L 238.163 87.383 191.044 87.383 L 143.926 87.383 143.926 106.231 L 143.926 125.078 191.044 125.078 L 238.163 125.078 238.163 134.502 L 238.163 143.926 183.334 143.926 L 128.505 143.926 128.505 162.773 L 128.505 181.620 183.334 181.620 L 238.163 181.620 238.163 227.025 L 238.163 272.431 191.044 272.431 L 143.926 272.431 143.926 291.281 L 143.926 310.132 253.369 309.914 L 362.812 309.697 363.043 291.064 L 363.274 272.431 319.566 272.431 L 275.857 272.431 275.857 264.720 L 275.857 257.010 304.593 257.010 C 337.707 257.010,342.303 256.436,353.817 250.857 C 359.712 248.001,362.494 245.926,368.423 239.961 C 379.370 228.951,384.167 218.643,385.223 203.866 C 386.854 181.041,374.281 159.577,353.137 149.086 C 343.545 144.327,340.150 143.952,306.484 143.938 L 275.857 143.926 275.857 134.510 L 275.857 125.094 319.335 124.872 L 362.812 124.650 363.043 106.017 L 363.274 87.383 319.566 87.383 L 275.857 87.383 275.857 75.818 L 275.857 64.252 257.010 64.252 L 238.163 64.252 238.163 75.818 M339.089 184.552 C 344.499 188.220,347.288 193.471,347.272 199.960 C 347.254 207.770,343.917 213.380,337.111 217.043 C 333.828 218.810,332.478 218.898,304.771 219.143 L 275.857 219.400 275.857 200.479 L 275.857 181.557 305.628 181.803 L 335.398 182.049 339.089 184.552 M162.775 196.610 L 149.512 209.895 168.345 228.742 L 187.178 247.590 200.460 234.309 L 213.741 221.028 194.890 202.177 L 176.039 183.326 162.775 196.610 M106.231 366.670 L 106.231 385.520 253.369 385.303 L 400.507 385.087 400.738 366.453 L 400.969 347.820 253.600 347.820 L 106.231 347.820 106.231 366.670 " stroke="none" fill-rule="evenodd" fill="black"></path></svg>