<svg width="136mm" height="120mm" version="1.1" viewBox="0 0 600 529.4117647058824" xmlns="http://www.w3.org/2000/svg"><path d="M237.092 57.020 L 221.029 65.118 239.878 102.808 C 250.245 123.538,258.917 140.499,259.148 140.499 C 259.379 140.499,267.053 136.763,276.200 132.196 L 292.831 123.894 274.062 86.363 C 263.739 65.721,254.812 48.852,254.224 48.877 C 253.636 48.903,245.927 52.567,237.092 57.020 M132.129 189.117 L 132.360 207.750 165.056 207.974 L 197.751 208.198 169.553 292.782 C 154.045 339.304,141.356 377.822,141.356 378.379 C 141.356 379.381,176.070 391.393,176.750 390.626 C 176.945 390.406,190.745 349.266,207.416 299.202 L 237.728 208.178 249.036 208.178 L 260.344 208.178 260.655 277.357 C 260.961 345.619,260.991 346.632,262.872 353.817 C 271.856 388.122,301.526 411.396,336.255 411.379 C 363.974 411.366,388.902 396.793,402.492 372.657 C 405.456 367.393,407.142 363.094,409.712 354.245 C 411.235 349.000,411.502 345.108,411.840 323.190 L 412.227 298.132 393.302 298.132 L 374.378 298.132 374.350 316.765 C 374.316 339.169,373.624 345.264,370.314 352.311 C 367.474 358.360,359.743 366.652,354.407 369.374 C 342.558 375.419,327.148 374.926,316.460 368.160 C 312.116 365.410,306.216 359.273,303.760 354.949 C 298.815 346.242,298.988 349.119,298.988 275.705 L 298.988 208.178 347.820 208.178 L 396.652 208.178 396.652 189.331 L 396.652 170.483 264.275 170.483 L 131.898 170.483 132.129 189.117 " stroke="none" fill-rule="evenodd" fill="black"></path></svg>