<svg width="136mm" height="120mm" version="1.1" viewBox="0 0 600 529.4117647058824" xmlns="http://www.w3.org/2000/svg"><path d="M237.092 57.020 L 221.029 65.118 239.878 102.808 C 250.245 123.538,258.923 140.499,259.162 140.499 C 260.527 140.499,292.135 124.066,292.135 123.357 C 292.135 121.393,255.202 48.836,254.224 48.877 C 253.636 48.903,245.927 52.567,237.092 57.020 M132.129 189.117 L 132.360 207.750 165.129 207.974 C 183.152 208.097,197.898 208.292,197.898 208.407 C 197.898 208.522,185.176 246.778,169.627 293.420 C 154.077 340.062,141.356 378.486,141.356 378.807 C 141.356 379.526,176.258 391.181,176.750 390.626 C 176.945 390.406,190.745 349.266,207.416 299.202 L 237.728 208.178 249.036 208.178 L 260.344 208.178 260.655 277.357 C 260.961 345.630,260.990 346.630,262.872 353.780 C 275.156 400.454,325.189 424.499,368.142 404.371 C 389.262 394.473,403.279 377.448,409.705 353.885 C 411.248 348.229,411.526 344.216,411.861 322.762 L 412.246 298.132 393.312 298.132 L 374.378 298.132 374.351 316.336 C 374.319 338.694,373.498 345.707,370.105 352.623 C 367.215 358.514,360.725 365.559,355.216 368.788 C 343.785 375.487,327.621 375.225,316.460 368.160 C 312.011 365.343,306.209 359.252,303.543 354.599 C 298.903 346.498,299.008 348.320,298.998 275.643 L 298.988 208.178 347.820 208.178 L 396.652 208.178 396.652 189.331 L 396.652 170.483 264.275 170.483 L 131.898 170.483 132.129 189.117 " stroke="none" fill-rule="evenodd" fill="black"></path></svg>