<svg width="136mm" height="120mm" version="1.1" viewBox="0 0 600 529.4117647058824" xmlns="http://www.w3.org/2000/svg"><path d="M237.946 56.631 L 221.024 65.120 239.888 102.809 C 250.264 123.539,258.943 140.499,259.175 140.499 C 260.812 140.499,292.125 123.990,292.088 123.146 C 292.062 122.560,283.677 105.444,273.455 85.111 L 254.868 48.141 237.946 56.631 M132.788 188.474 L 132.788 207.321 165.343 207.321 C 183.248 207.321,197.898 207.613,197.898 207.969 C 197.898 208.325,185.176 246.778,169.627 293.420 C 154.077 340.062,141.356 378.486,141.356 378.807 C 141.356 379.526,176.258 391.181,176.749 390.626 C 176.944 390.406,190.776 349.170,207.488 298.988 L 237.875 207.750 249.110 207.511 L 260.344 207.272 260.635 276.904 L 260.926 346.535 263.193 354.854 C 267.606 371.041,276.658 384.952,289.380 395.095 C 316.011 416.327,354.494 416.833,381.792 396.311 C 397.731 384.327,408.650 365.355,411.164 345.273 C 411.664 341.280,412.073 329.040,412.073 318.072 L 412.073 298.132 393.299 298.132 L 374.525 298.132 374.171 320.620 C 373.770 346.068,373.354 348.310,367.375 357.264 C 360.510 367.544,349.193 373.521,336.593 373.521 C 316.596 373.521,301.336 359.908,298.939 339.932 C 298.425 335.645,298.181 308.024,298.324 270.289 L 298.560 207.750 347.606 207.529 L 396.652 207.307 396.652 188.467 L 396.652 169.627 264.720 169.627 L 132.788 169.627 132.788 188.474 " stroke="none" fill-rule="evenodd" fill="black"></path></svg>