<svg width="136mm" height="120mm" version="1.1" viewBox="0 0 600 529.4117647058824" xmlns="http://www.w3.org/2000/svg"><path d="M94.808 94.808 C 94.494 95.122,94.237 103.604,94.237 113.656 L 94.237 131.932 165.771 131.932 C 205.115 131.932,237.306 132.124,237.306 132.358 C 237.306 132.592,227.573 152.254,215.678 176.050 L 194.050 219.315 144.127 219.315 L 94.204 219.315 94.434 237.948 L 94.665 256.582 134.716 256.804 C 156.744 256.927,174.767 257.217,174.767 257.450 C 174.767 257.682,163.393 280.617,149.493 308.415 L 124.219 358.957 99.804 358.957 L 75.390 358.957 75.390 377.805 L 75.390 396.652 254.868 396.652 L 434.347 396.652 434.347 377.805 L 434.347 358.957 366.669 358.957 L 298.990 358.957 324.473 307.984 L 349.955 257.010 382.727 257.010 L 415.500 257.010 415.500 238.163 L 415.500 219.315 392.369 219.315 C 379.647 219.315,369.238 219.121,369.238 218.885 C 369.238 218.648,383.116 190.699,400.079 156.776 C 417.042 122.853,430.920 94.905,430.920 94.668 C 430.920 94.013,95.463 94.153,94.808 94.808 M369.238 132.792 C 369.238 133.265,359.599 152.926,347.819 176.484 L 326.399 219.315 281.423 219.315 L 236.446 219.315 258.295 175.624 L 280.144 131.932 324.691 131.932 C 353.934 131.932,369.238 132.227,369.238 132.792 M282.071 307.984 L 256.588 358.957 211.822 358.957 C 187.201 358.957,167.056 358.763,167.056 358.526 C 167.056 358.289,178.430 335.351,192.331 307.552 L 217.605 257.010 262.579 257.010 L 307.553 257.010 282.071 307.984 " stroke="none" fill-rule="evenodd" fill="black"></path></svg>