<svg width="136mm" height="120mm" version="1.1" viewBox="0 0 600 529.4117647058824" xmlns="http://www.w3.org/2000/svg"><path d="M117.368 71.963 L 117.368 90.810 141.784 90.810 L 166.200 90.810 166.200 128.505 L 166.200 166.200 141.784 166.200 L 117.368 166.200 117.368 185.047 L 117.368 203.895 177.765 203.895 L 238.163 203.895 238.163 257.400 L 238.163 310.906 234.563 309.636 C 226.819 306.904,219.670 302.072,211.954 294.356 C 203.111 285.513,198.667 278.350,195.433 267.730 C 193.526 261.469,193.309 259.037,192.962 240.090 L 192.582 219.315 173.822 219.315 L 155.063 219.315 155.065 238.805 C 155.068 260.484,156.070 268.700,160.233 281.188 C 168.769 306.791,187.823 328.708,212.033 340.769 C 217.114 343.301,227.460 346.948,234.522 348.698 L 238.163 349.600 238.163 376.981 L 238.163 404.362 257.010 404.362 L 275.857 404.362 275.857 376.981 L 275.857 349.600 279.498 348.687 C 286.577 346.912,296.911 343.266,301.987 340.753 C 326.100 328.816,345.250 306.795,353.787 281.188 C 357.950 268.700,358.952 260.484,358.955 238.805 L 358.957 219.315 340.198 219.315 L 321.438 219.315 321.058 240.090 C 320.711 259.037,320.494 261.469,318.587 267.730 C 315.353 278.350,310.909 285.513,302.066 294.356 C 294.350 302.072,287.201 306.904,279.457 309.636 L 275.857 310.906 275.857 257.400 L 275.857 203.895 336.255 203.895 L 396.652 203.895 396.652 185.047 L 396.652 166.200 372.236 166.200 L 347.820 166.200 347.820 128.505 L 347.820 90.810 372.236 90.810 L 396.652 90.810 396.652 71.963 L 396.652 53.115 257.010 53.115 L 117.368 53.115 117.368 71.963 M310.125 128.505 L 310.125 166.200 257.010 166.200 L 203.895 166.200 203.895 128.505 L 203.895 90.810 257.010 90.810 L 310.125 90.810 310.125 128.505 " stroke="none" fill-rule="evenodd" fill="black"></path></svg>