<svg width="136mm" height="120mm" version="1.1" viewBox="0 0 600 529.4117647058824" xmlns="http://www.w3.org/2000/svg"><path d="M117.368 71.963 L 117.368 90.810 141.784 90.810 L 166.200 90.810 166.200 128.505 L 166.200 166.200 141.784 166.200 L 117.368 166.200 117.368 185.047 L 117.368 203.895 177.765 203.895 L 238.163 203.895 238.163 257.400 L 238.163 310.906 234.563 309.636 C 223.026 305.566,207.800 292.538,201.088 280.993 C 194.495 269.655,192.773 260.484,192.764 236.663 L 192.757 219.315 173.827 219.315 L 154.896 219.315 155.284 241.804 C 155.642 262.517,155.848 264.968,157.894 272.859 C 163.143 293.099,171.279 307.468,185.477 321.570 C 199.045 335.047,214.746 343.728,234.522 348.687 L 238.163 349.600 238.163 376.981 L 238.163 404.362 257.010 404.362 L 275.857 404.362 275.857 376.981 L 275.857 349.600 279.498 348.687 C 299.651 343.633,316.218 334.286,329.958 320.214 C 343.057 306.800,351.098 292.249,356.126 272.859 C 358.172 264.968,358.378 262.517,358.736 241.804 L 359.124 219.315 340.193 219.315 L 321.262 219.315 321.246 236.235 C 321.227 254.547,320.553 261.306,317.888 269.887 C 312.879 286.021,295.529 303.965,279.457 309.636 L 275.857 310.906 275.857 257.400 L 275.857 203.895 336.255 203.895 L 396.652 203.895 396.652 185.047 L 396.652 166.200 372.236 166.200 L 347.820 166.200 347.820 128.505 L 347.820 90.810 372.236 90.810 L 396.652 90.810 396.652 71.963 L 396.652 53.115 257.010 53.115 L 117.368 53.115 117.368 71.963 M310.125 128.505 L 310.125 166.200 257.010 166.200 L 203.895 166.200 203.895 128.505 L 203.895 90.810 257.010 90.810 L 310.125 90.810 310.125 128.505 " stroke="none" fill-rule="evenodd" fill="black"></path></svg>