<svg width="136mm" height="120mm" version="1.1" viewBox="0 0 600 529.4117647058824" xmlns="http://www.w3.org/2000/svg"><path d="M117.368 71.963 L 117.368 90.810 141.784 90.810 L 166.200 90.810 166.200 128.505 L 166.200 166.200 141.784 166.200 L 117.368 166.200 117.368 185.047 L 117.368 203.895 177.765 203.895 L 238.163 203.895 238.163 257.010 C 238.163 301.937,237.978 310.125,236.965 310.125 C 236.306 310.125,232.292 308.386,228.045 306.260 C 213.289 298.873,201.604 285.308,196.122 269.198 L 193.285 260.865 192.934 240.090 L 192.582 219.315 173.730 219.315 L 154.878 219.315 155.316 241.804 C 155.778 265.481,156.300 269.460,160.638 282.383 C 171.763 315.523,200.576 341.071,235.807 349.034 L 238.163 349.566 238.163 376.964 L 238.163 404.362 257.010 404.362 L 275.857 404.362 275.857 376.964 L 275.857 349.566 278.213 349.034 C 313.444 341.071,342.257 315.523,353.382 282.383 C 357.720 269.460,358.242 265.481,358.704 241.804 L 359.142 219.315 340.290 219.315 L 321.438 219.315 321.091 240.090 C 320.747 260.686,320.721 260.932,318.079 268.617 C 314.269 279.698,310.079 286.357,301.619 294.775 C 295.632 300.733,292.714 302.887,286.241 306.127 C 281.848 308.326,277.714 310.125,277.055 310.125 C 276.042 310.125,275.857 301.937,275.857 257.010 L 275.857 203.895 336.255 203.895 L 396.652 203.895 396.652 185.047 L 396.652 166.200 372.236 166.200 L 347.820 166.200 347.820 128.505 L 347.820 90.810 372.236 90.810 L 396.652 90.810 396.652 71.963 L 396.652 53.115 257.010 53.115 L 117.368 53.115 117.368 71.963 M310.125 128.505 L 310.125 166.200 257.010 166.200 L 203.895 166.200 203.895 128.505 L 203.895 90.810 257.010 90.810 L 310.125 90.810 310.125 128.505 " stroke="none" fill-rule="evenodd" fill="black"></path></svg>