<svg width="136mm" height="120mm" version="1.1" viewBox="0 0 600 529.4117647058824" xmlns="http://www.w3.org/2000/svg"><path d="M235.164 35.266 C 152.005 44.653,83.637 107.916,67.744 190.187 C 54.190 260.346,80.970 332.614,137.127 377.421 C 163.623 398.561,198.222 413.195,232.030 417.561 C 245.679 419.323,268.341 419.323,281.990 417.561 C 329.277 411.454,373.860 387.031,404.552 350.418 C 437.771 310.790,453.958 258.805,448.880 208.055 C 439.768 116.982,368.423 45.057,277.390 35.171 C 267.627 34.111,244.943 34.162,235.164 35.266 M277.623 73.324 C 342.168 81.698,395.630 131.456,408.631 195.256 C 415.203 227.502,411.478 261.070,398.119 289.993 C 389.642 308.345,380.065 322.226,366.566 335.725 C 344.345 357.947,317.552 372.286,286.138 378.770 C 277.475 380.558,273.958 380.803,257.010 380.803 C 240.062 380.803,236.545 380.558,227.882 378.770 C 177.485 368.368,136.703 336.048,115.865 289.993 C 110.700 278.577,108.602 272.323,105.849 260.133 C 101.052 238.894,101.046 214.328,105.832 193.135 C 108.602 180.870,110.693 174.633,115.865 163.201 C 131.835 127.906,159.342 100.758,195.466 84.639 C 206.094 79.897,222.273 75.217,233.022 73.777 C 237.027 73.241,241.268 72.665,242.446 72.499 C 248.419 71.655,268.363 72.122,277.623 73.324 M274.076 150.059 L 251.730 194.745 232.729 175.759 L 213.729 156.773 200.467 170.056 L 187.205 183.338 210.613 206.757 L 234.020 230.176 208.677 280.856 L 183.335 331.535 199.603 339.678 C 208.551 344.156,216.260 347.820,216.735 347.820 C 217.210 347.820,227.654 327.712,239.944 303.135 L 262.290 258.449 281.291 277.436 L 300.291 296.422 313.553 283.139 L 326.815 269.856 303.407 246.437 L 280.000 223.018 305.343 172.339 L 330.685 121.659 314.417 113.517 C 305.469 109.038,297.760 105.374,297.285 105.374 C 296.810 105.374,286.366 125.483,274.076 150.059 " stroke="none" fill-rule="evenodd" fill="black"></path></svg>