<svg width="136mm" height="120mm" version="1.1" viewBox="0 0 600 529.4117647058824" xmlns="http://www.w3.org/2000/svg"><path d="M235.593 35.170 C 181.786 41.763,134.623 68.811,102.771 111.343 C 74.535 149.047,60.850 197.165,65.118 243.731 C 68.331 278.791,81.768 313.806,102.771 341.851 C 133.764 383.236,181.202 411.024,232.030 417.565 C 245.665 419.320,268.355 419.320,281.990 417.565 C 354.722 408.204,416.885 356.778,439.820 286.995 C 452.888 247.234,452.881 206.023,439.801 166.125 C 430.578 137.996,414.913 112.562,393.654 91.206 C 364.537 61.956,329.981 43.953,289.136 36.754 C 277.458 34.696,246.852 33.790,235.593 35.170 M277.623 73.324 C 317.703 78.524,355.468 100.482,379.892 132.788 C 403.157 163.563,413.917 199.510,411.208 237.412 C 409.742 257.927,405.434 274.544,397.052 292.010 C 391.121 304.370,387.559 310.264,379.892 320.406 C 355.144 353.145,316.628 375.339,275.880 380.340 C 266.561 381.484,247.459 381.484,238.140 380.340 C 204.403 376.199,172.167 360.414,147.887 336.145 C 126.433 314.702,111.302 286.783,105.464 257.867 C 98.820 224.968,102.929 190.440,116.968 161.184 C 125.629 143.136,134.992 129.860,148.315 116.737 C 182.870 82.698,229.420 67.070,277.623 73.324 M274.076 150.059 L 251.730 194.745 232.729 175.759 L 213.729 156.773 200.467 170.056 L 187.205 183.338 210.613 206.757 L 234.020 230.176 208.677 280.856 L 183.335 331.535 199.603 339.678 C 208.551 344.156,216.260 347.820,216.735 347.820 C 217.210 347.820,227.654 327.712,239.944 303.135 L 262.290 258.449 281.291 277.436 L 300.291 296.422 313.553 283.139 L 326.815 269.856 303.407 246.437 L 280.000 223.018 305.263 172.498 L 330.525 121.979 313.894 113.677 C 304.747 109.110,297.074 105.374,296.842 105.374 C 296.611 105.374,286.366 125.483,274.076 150.059 " stroke="none" fill-rule="evenodd" fill="black"></path></svg>