<svg width="136mm" height="120mm" version="1.1" viewBox="0 0 600 529.4117647058824" xmlns="http://www.w3.org/2000/svg"><path d="M232.594 35.582 C 189.821 41.180,151.172 60.259,120.795 90.770 C 104.409 107.229,93.446 122.705,83.396 143.567 C 57.871 196.553,58.226 258.564,84.359 311.410 C 98.238 339.479,117.225 362.423,141.824 380.854 C 197.526 422.590,272.091 430.729,336.291 402.080 C 389.229 378.457,430.003 329.491,443.818 272.949 C 450.850 244.166,451.399 216.369,445.503 187.710 C 436.116 142.082,409.977 100.746,372.884 72.867 C 345.327 52.155,312.061 38.909,278.247 35.184 C 267.244 33.972,243.299 34.181,232.594 35.582 M283.443 74.000 C 316.611 80.216,343.976 94.605,367.151 118.015 C 403.594 154.830,418.987 207.048,408.501 258.295 C 397.046 314.283,353.639 360.586,298.435 375.707 C 275.162 382.082,248.866 382.956,225.351 378.136 C 196.619 372.246,168.887 357.142,147.467 335.715 C 123.718 311.958,108.218 280.804,103.571 247.485 C 102.132 237.167,102.132 216.027,103.571 205.709 C 110.478 156.186,140.806 112.993,185.047 89.668 C 201.743 80.867,218.477 75.566,238.163 72.844 C 246.476 71.694,275.031 72.423,283.443 74.000 M274.076 150.059 L 251.730 194.745 232.729 175.759 L 213.729 156.773 200.467 170.056 L 187.205 183.338 210.613 206.757 L 234.020 230.176 208.677 280.856 L 183.335 331.535 199.603 339.678 C 208.551 344.156,216.260 347.820,216.735 347.820 C 217.210 347.820,227.654 327.712,239.944 303.135 L 262.290 258.449 281.291 277.436 L 300.291 296.422 313.553 283.139 L 326.815 269.856 303.407 246.437 L 280.000 223.018 305.343 172.339 L 330.685 121.659 314.417 113.517 C 305.469 109.038,297.760 105.374,297.285 105.374 C 296.810 105.374,286.366 125.483,274.076 150.059 " stroke="none" fill-rule="evenodd" fill="black"></path></svg>