<svg width="136mm" height="120mm" version="1.1" viewBox="0 0 600 529.4117647058824" xmlns="http://www.w3.org/2000/svg"><path d="M120.795 94.206 L 120.795 113.023 219.958 113.273 L 319.121 113.522 324.751 115.433 C 340.882 120.905,354.353 135.615,357.701 151.415 C 363.081 176.805,349.598 200.258,324.261 209.581 C 320.288 211.042,315.285 211.191,255.297 211.628 L 190.616 212.100 182.477 214.339 C 166.448 218.749,153.186 226.496,142.038 237.961 C 126.669 253.766,118.632 272.459,117.639 294.705 C 116.910 311.042,119.651 323.430,127.308 338.404 C 140.202 363.620,166.163 381.425,194.651 384.591 C 200.104 385.196,235.748 385.515,298.098 385.515 L 393.225 385.515 393.225 366.692 L 393.225 347.868 294.491 347.602 C 186.096 347.309,193.063 347.645,181.733 342.159 C 174.389 338.603,163.807 327.621,159.947 319.549 C 153.414 305.891,153.558 290.216,160.345 276.225 C 164.282 268.110,173.937 258.440,181.964 254.574 C 192.783 249.362,193.237 249.331,257.969 249.315 C 320.786 249.299,324.656 249.082,336.916 244.890 C 343.756 242.551,352.477 238.273,358.739 234.184 C 365.562 229.729,377.517 217.564,382.457 210.050 C 394.608 191.569,399.402 167.145,395.034 145.990 C 387.110 107.622,357.202 80.308,318.692 76.272 C 313.817 75.761,272.516 75.413,215.674 75.404 L 120.795 75.390 120.795 94.206 " stroke="none" fill-rule="evenodd" fill="black"></path></svg>