<svg width="136mm" height="120mm" version="1.1" viewBox="0 0 600 529.4117647058824" xmlns="http://www.w3.org/2000/svg"><path d="M120.795 94.206 L 120.795 113.023 219.958 113.283 C 313.111 113.528,319.406 113.638,323.833 115.101 C 340.767 120.699,354.257 135.163,357.701 151.415 C 363.094 176.864,349.657 200.236,324.261 209.581 C 320.288 211.042,315.285 211.191,255.297 211.628 L 190.616 212.100 182.467 214.321 C 166.262 218.739,152.996 226.554,141.746 238.310 C 130.914 249.630,124.892 260.031,120.254 275.429 C 118.138 282.453,117.926 284.436,117.870 297.703 C 117.816 310.243,118.073 313.233,119.718 319.218 C 128.803 352.277,152.816 375.548,186.037 383.487 C 191.812 384.867,200.582 385.015,292.777 385.286 L 393.225 385.582 393.225 366.701 L 393.225 347.820 297.489 347.790 C 192.835 347.758,193.576 347.790,183.211 342.806 C 169.835 336.376,159.225 323.196,156.295 309.373 C 151.014 284.460,164.132 260.671,187.958 251.954 L 194.043 249.728 258.723 249.235 C 330.846 248.685,327.215 248.978,343.295 242.412 C 364.321 233.826,382.577 215.231,390.776 194.050 C 395.317 182.319,396.881 172.667,396.400 159.346 C 395.561 136.118,387.582 117.611,371.440 101.451 C 356.708 86.703,339.404 78.443,318.692 76.272 C 313.817 75.761,272.516 75.413,215.674 75.404 L 120.795 75.390 120.795 94.206 " stroke="none" fill-rule="evenodd" fill="black"></path></svg>