<svg width="136mm" height="120mm" version="1.1" viewBox="0 0 600 529.4117647058824" xmlns="http://www.w3.org/2000/svg"><path d="M120.795 94.186 L 120.795 113.036 219.958 113.275 L 319.121 113.513 325.527 115.851 C 340.905 121.463,351.503 132.393,356.902 148.209 C 359.143 154.774,359.150 169.878,356.916 176.480 C 350.935 194.150,337.245 206.691,319.977 210.316 C 315.042 211.352,303.575 211.578,255.195 211.590 C 190.049 211.607,188.002 211.744,173.812 217.074 C 161.528 221.688,153.217 227.158,143.069 237.306 C 129.417 250.958,121.751 265.474,118.568 283.699 C 116.795 293.850,117.375 309.191,119.922 319.512 C 123.109 332.427,130.888 346.789,140.454 357.421 C 149.906 367.926,166.650 378.138,180.764 382.006 C 193.038 385.369,200.629 385.584,298.560 385.330 L 392.797 385.087 393.028 366.484 L 393.259 347.882 294.507 347.621 C 201.540 347.376,195.480 347.269,191.044 345.795 C 170.321 338.906,156.945 322.494,155.321 301.962 C 153.815 282.941,164.301 263.975,181.192 255.166 C 191.893 249.585,188.214 249.863,258.723 249.305 C 322.034 248.803,323.549 248.752,330.258 246.897 C 348.386 241.882,361.485 234.188,373.182 221.683 C 387.586 206.285,395.440 187.516,396.400 166.200 C 397.519 141.363,388.930 119.116,371.400 101.442 C 359.221 89.163,346.118 81.862,328.116 77.327 C 323.150 76.075,311.639 75.892,221.671 75.630 L 120.795 75.336 120.795 94.186 " stroke="none" fill-rule="evenodd" fill="black"></path></svg>