<svg width="136mm" height="120mm" version="1.1" viewBox="0 0 600 529.4117647058824" xmlns="http://www.w3.org/2000/svg"><path d="M238.163 75.383 L 238.163 113.072 181.406 113.292 L 124.650 113.513 124.419 132.146 L 124.188 150.779 181.175 150.779 L 238.163 150.779 238.163 160.203 L 238.163 169.628 156.435 210.489 L 74.707 251.350 82.963 267.887 C 87.503 276.983,91.523 284.424,91.895 284.424 C 92.268 284.424,129.573 266.048,174.795 243.588 L 257.017 202.752 339.180 243.588 C 384.370 266.048,421.672 284.424,422.073 284.424 C 422.474 284.424,426.517 276.983,431.057 267.887 L 439.313 251.350 357.585 210.489 L 275.857 169.628 275.857 160.203 L 275.857 150.779 328.990 150.779 L 382.122 150.779 381.891 132.146 L 381.660 113.513 328.759 113.292 L 275.857 113.071 275.857 75.383 L 275.857 37.695 257.010 37.695 L 238.163 37.695 238.163 75.383 M170.202 261.004 C 169.885 261.320,169.627 269.803,169.627 279.855 L 169.627 298.132 257.027 298.132 L 344.427 298.132 344.196 279.498 L 343.965 260.865 257.371 260.647 C 209.744 260.527,170.518 260.688,170.202 261.004 M86.724 366.453 L 86.955 385.087 257.010 385.087 L 427.065 385.087 427.296 366.453 L 427.527 347.820 257.010 347.820 L 86.493 347.820 86.724 366.453 " stroke="none" fill-rule="evenodd" fill="black"></path></svg>