<svg width="136mm" height="120mm" version="1.1" viewBox="0 0 600 529.4117647058824" xmlns="http://www.w3.org/2000/svg"><path d="M238.163 75.390 L 238.163 113.084 181.620 113.084 L 125.078 113.084 125.078 131.932 L 125.078 150.779 181.620 150.779 L 238.163 150.779 238.163 160.202 L 238.163 169.625 156.776 210.320 C 112.014 232.702,75.390 251.404,75.390 251.879 C 75.390 252.355,79.053 260.064,83.531 269.010 L 91.673 285.277 174.342 243.945 L 257.010 202.614 339.678 243.945 L 422.347 285.277 430.489 269.010 C 434.967 260.064,438.630 252.355,438.630 251.879 C 438.630 251.404,402.006 232.702,357.244 210.320 L 275.857 169.625 275.857 160.202 L 275.857 150.779 328.990 150.779 L 382.122 150.779 381.891 132.146 L 381.660 113.513 328.759 113.292 L 275.857 113.071 275.857 75.383 L 275.857 37.695 257.010 37.695 L 238.163 37.695 238.163 75.390 M170.202 261.004 C 169.885 261.320,169.627 269.803,169.627 279.855 L 169.627 298.132 257.027 298.132 L 344.427 298.132 344.196 279.498 L 343.965 260.865 257.371 260.647 C 209.744 260.527,170.518 260.688,170.202 261.004 M86.724 366.453 L 86.955 385.087 257.010 385.087 L 427.065 385.087 427.296 366.453 L 427.527 347.820 257.010 347.820 L 86.493 347.820 86.724 366.453 " stroke="none" fill-rule="evenodd" fill="black"></path></svg>