<svg width="136mm" height="120mm" version="1.1" viewBox="0 0 600 529.4117647058824" xmlns="http://www.w3.org/2000/svg"><path d="M109.658 72.681 L 109.658 107.668 102.758 109.515 C 74.262 117.142,49.284 140.559,39.487 168.831 C 34.242 183.968,34.268 183.515,34.268 261.388 L 34.268 332.400 53.115 332.400 L 71.963 332.400 71.963 263.593 C 71.963 217.890,72.274 193.079,72.891 189.702 C 74.148 182.819,77.548 174.478,81.457 168.692 C 86.094 161.826,95.603 153.375,102.933 149.605 L 109.229 146.366 109.446 280.933 L 109.663 415.500 128.505 415.500 L 147.347 415.500 147.564 280.933 L 147.781 146.366 154.077 149.605 C 161.407 153.375,170.916 161.826,175.553 168.692 C 179.462 174.478,182.862 182.819,184.119 189.702 C 184.736 193.079,185.047 217.890,185.047 263.593 L 185.047 332.400 203.895 332.400 L 222.742 332.400 222.742 261.388 C 222.742 183.515,222.768 183.968,217.523 168.831 C 207.726 140.559,182.748 117.142,154.252 109.515 L 147.352 107.668 147.352 72.681 L 147.352 37.695 128.505 37.695 L 109.658 37.695 109.658 72.681 M241.589 120.795 L 241.589 139.642 257.014 139.642 L 272.438 139.642 272.220 234.093 L 272.002 328.544 256.779 328.778 L 241.556 329.012 241.787 347.626 L 242.018 366.239 345.893 366.457 L 449.767 366.674 449.767 347.824 L 449.767 328.973 436.489 328.973 L 423.210 328.973 423.210 234.307 L 423.210 139.642 436.489 139.642 L 449.767 139.642 449.767 120.795 L 449.767 101.947 345.678 101.947 L 241.589 101.947 241.589 120.795 M385.515 234.307 L 385.515 328.973 347.820 328.973 L 310.125 328.973 310.125 234.307 L 310.125 139.642 347.820 139.642 L 385.515 139.642 385.515 234.307 " stroke="none" fill-rule="evenodd" fill="black"></path></svg>