<svg width="136mm" height="120mm" version="1.1" viewBox="0 0 600 529.4117647058824" xmlns="http://www.w3.org/2000/svg"><path d="M109.658 72.611 L 109.658 107.528 102.666 109.487 C 72.928 117.820,47.562 142.468,38.609 171.729 C 34.351 185.643,34.268 187.382,34.268 262.262 L 34.268 332.400 53.115 332.400 L 71.963 332.400 71.963 263.390 C 71.963 186.029,71.822 188.049,78.120 174.860 C 82.816 165.026,92.469 155.234,102.590 150.038 L 109.658 146.409 109.658 280.954 L 109.658 415.500 128.502 415.500 L 147.347 415.500 147.564 281.015 L 147.781 146.531 154.206 149.708 C 159.004 152.082,162.488 154.735,167.964 160.186 C 176.357 168.540,180.659 175.873,183.358 186.426 C 184.971 192.734,185.047 196.166,185.047 262.716 L 185.047 332.400 203.922 332.400 L 222.796 332.400 222.546 258.509 L 222.295 184.619 220.007 176.304 C 211.087 143.881,185.806 118.114,154.427 109.463 L 147.365 107.516 147.359 72.605 L 147.352 37.695 128.505 37.695 L 109.658 37.695 109.658 72.611 M241.589 120.795 L 241.589 139.642 257.014 139.642 L 272.438 139.642 272.220 234.093 L 272.002 328.544 256.779 328.778 L 241.556 329.012 241.787 347.626 L 242.018 366.239 345.893 366.457 L 449.767 366.674 449.767 347.824 L 449.767 328.973 436.489 328.973 L 423.210 328.973 423.210 234.307 L 423.210 139.642 436.489 139.642 L 449.767 139.642 449.767 120.795 L 449.767 101.947 345.678 101.947 L 241.589 101.947 241.589 120.795 M385.305 234.093 L 385.087 328.544 347.606 328.768 L 310.125 328.991 310.125 234.316 L 310.125 139.642 347.824 139.642 L 385.523 139.642 385.305 234.093 " stroke="none" fill-rule="evenodd" fill="black"></path></svg>