<svg width="136mm" height="120mm" version="1.1" viewBox="0 0 600 529.4117647058824" xmlns="http://www.w3.org/2000/svg"><path d="M109.658 72.734 L 109.658 107.773 105.160 108.844 C 82.258 114.294,60.252 130.771,47.437 152.064 C 43.636 158.381,38.889 169.928,36.694 178.201 C 34.774 185.435,34.762 185.887,34.484 258.938 L 34.205 332.400 53.051 332.400 L 71.898 332.400 72.162 260.651 C 72.457 180.548,72.029 186.287,78.660 173.482 C 83.112 164.887,94.241 153.924,102.804 149.700 L 109.229 146.531 109.446 281.015 L 109.663 415.500 128.505 415.500 L 147.347 415.500 147.564 280.933 L 147.781 146.366 154.206 149.631 C 163.380 154.292,174.917 165.890,179.321 174.877 C 185.099 186.670,185.016 185.391,185.032 262.793 L 185.047 332.400 203.895 332.400 L 222.742 332.400 222.742 261.214 C 222.742 193.363,222.662 189.634,221.026 181.607 C 213.963 146.948,187.544 118.425,154.252 109.515 L 147.352 107.668 147.352 72.681 L 147.352 37.695 128.505 37.695 L 109.658 37.695 109.658 72.734 M241.589 120.795 L 241.589 139.642 257.014 139.642 L 272.438 139.642 272.220 234.093 L 272.002 328.544 256.779 328.778 L 241.556 329.012 241.787 347.626 L 242.018 366.239 345.678 366.239 L 449.339 366.239 449.570 347.606 L 449.801 328.973 436.505 328.973 L 423.210 328.973 423.210 234.307 L 423.210 139.642 436.489 139.642 L 449.767 139.642 449.767 120.795 L 449.767 101.947 345.678 101.947 L 241.589 101.947 241.589 120.795 M385.515 234.307 L 385.515 328.973 347.820 328.973 L 310.125 328.973 310.125 234.307 L 310.125 139.642 347.820 139.642 L 385.515 139.642 385.515 234.307 " stroke="none" fill-rule="evenodd" fill="black"></path></svg>