<svg width="136mm" height="120mm" version="1.1" viewBox="0 0 600 529.4117647058824" xmlns="http://www.w3.org/2000/svg"><path d="M206.037 59.967 L 194.465 83.100 167.053 83.100 L 139.642 83.100 139.642 101.947 L 139.642 120.795 157.634 120.795 L 175.625 120.795 132.359 207.323 L 89.093 293.852 105.760 302.172 C 114.926 306.748,122.595 310.314,122.801 310.095 C 123.008 309.876,135.799 284.446,151.228 253.583 C 175.023 205.983,179.424 197.711,180.235 199.062 C 192.277 219.109,206.510 233.824,224.077 244.389 C 230.911 248.499,241.990 253.203,250.988 255.814 C 266.348 260.272,269.155 260.430,333.470 260.433 L 393.225 260.437 393.225 241.626 L 393.225 222.816 331.329 222.535 C 269.816 222.256,269.393 222.243,263.065 220.310 C 234.149 211.480,213.916 190.828,206.798 162.877 C 203.514 149.983,203.736 148.502,211.182 133.634 L 217.613 120.795 250.590 120.795 L 283.568 120.795 283.568 101.947 L 283.568 83.100 260.004 83.100 L 236.440 83.100 243.777 68.444 C 247.813 60.383,250.995 53.680,250.850 53.548 C 250.704 53.416,243.165 49.601,234.097 45.071 L 217.610 36.834 206.037 59.967 M332.245 107.446 C 332.094 120.836,331.724 132.039,331.421 132.340 C 331.119 132.642,323.123 129.011,313.653 124.272 C 304.183 119.532,296.240 115.654,296.002 115.654 C 295.499 115.654,279.284 147.863,279.284 148.862 C 279.284 149.231,286.223 152.985,294.705 157.204 C 303.186 161.424,310.125 165.148,310.125 165.480 C 310.125 166.358,306.087 169.068,300.834 171.715 C 295.256 174.525,284.624 177.337,279.576 177.337 L 275.857 177.337 275.857 196.184 L 275.857 215.032 280.355 215.025 C 290.476 215.011,306.065 211.060,316.833 205.781 C 326.259 201.159,332.757 196.643,340.249 189.505 L 346.812 183.251 365.730 192.717 L 384.648 202.184 392.792 185.914 C 397.271 176.965,400.936 169.256,400.936 168.783 C 400.936 168.309,393.129 164.021,383.587 159.254 C 374.046 154.487,366.123 150.482,365.980 150.353 C 365.837 150.223,366.567 147.086,367.601 143.381 C 369.305 137.278,369.518 134.124,369.862 109.872 L 370.241 83.100 351.380 83.100 L 332.519 83.100 332.245 107.446 M166.200 302.419 L 166.200 321.270 255.082 321.052 L 343.965 320.834 344.196 302.201 L 344.427 283.568 255.313 283.568 L 166.200 283.568 166.200 302.419 M128.505 377.805 L 128.505 396.652 255.297 396.652 L 382.088 396.652 382.088 377.805 L 382.088 358.957 255.297 358.957 L 128.505 358.957 128.505 377.805 " stroke="none" fill-rule="evenodd" fill="black"></path></svg>