<svg width="136mm" height="120mm" version="1.1" viewBox="0 0 600 529.4117647058824" xmlns="http://www.w3.org/2000/svg"><path d="M206.037 59.967 L 194.465 83.100 167.053 83.100 L 139.642 83.100 139.642 101.947 L 139.642 120.795 157.634 120.795 L 175.625 120.795 132.359 207.323 L 89.093 293.852 105.760 302.172 C 114.926 306.748,122.595 310.314,122.801 310.095 C 123.008 309.876,135.799 284.446,151.228 253.583 C 175.212 205.604,179.417 197.707,180.235 199.109 C 186.014 209.016,192.653 217.637,200.829 225.852 C 217.618 242.719,235.052 252.353,259.152 258.081 C 266.599 259.851,269.019 259.924,330.044 260.212 L 393.225 260.509 393.225 241.663 L 393.225 222.816 331.757 222.542 C 271.076 222.270,270.201 222.242,263.435 220.343 C 248.750 216.221,234.563 207.533,224.735 196.644 C 214.066 184.823,206.113 167.453,205.049 153.645 L 204.530 146.917 211.071 133.856 L 217.613 120.795 250.590 120.795 L 283.568 120.795 283.568 101.947 L 283.568 83.100 260.004 83.100 L 236.440 83.100 243.777 68.444 C 247.813 60.383,250.995 53.680,250.850 53.548 C 250.704 53.416,243.165 49.601,234.097 45.071 L 217.610 36.834 206.037 59.967 M332.245 107.446 C 332.094 120.836,331.724 132.039,331.421 132.340 C 331.119 132.642,323.123 129.011,313.653 124.272 C 304.183 119.532,296.240 115.654,296.002 115.654 C 295.499 115.654,279.284 147.863,279.284 148.862 C 279.284 149.231,286.226 152.986,294.710 157.207 C 303.195 161.428,310.008 165.275,309.852 165.755 C 309.357 167.277,299.196 172.744,293.199 174.715 C 290.022 175.759,284.821 176.831,281.640 177.099 L 275.857 177.585 275.857 196.309 L 275.857 215.032 280.457 215.032 C 286.842 215.032,298.208 212.929,305.778 210.347 C 319.728 205.590,330.719 198.858,341.055 188.739 L 346.712 183.201 365.521 192.612 L 384.329 202.024 392.653 185.349 C 397.232 176.178,400.808 168.407,400.600 168.080 C 400.392 167.752,392.461 163.630,382.974 158.918 C 367.838 151.400,365.788 150.141,366.230 148.637 C 366.507 147.695,367.490 143.152,368.414 138.541 C 369.839 131.431,370.094 126.584,370.094 106.629 L 370.094 83.100 351.307 83.100 L 332.519 83.100 332.245 107.446 M166.200 302.415 L 166.200 321.262 254.868 321.262 L 343.537 321.262 343.537 302.415 L 343.537 283.568 254.868 283.568 L 166.200 283.568 166.200 302.415 M128.505 377.805 L 128.505 396.652 254.868 396.652 L 381.231 396.652 381.231 377.805 L 381.231 358.957 254.868 358.957 L 128.505 358.957 128.505 377.805 " stroke="none" fill-rule="evenodd" fill="black"></path></svg>