<svg width="136mm" height="120mm" version="1.1" viewBox="0 0 600 529.4117647058824" xmlns="http://www.w3.org/2000/svg"><path d="M205.608 59.969 L 194.068 83.100 166.855 83.100 L 139.642 83.100 139.642 101.947 L 139.642 120.795 157.204 120.795 C 166.864 120.795,174.767 120.988,174.767 121.225 C 174.767 121.461,155.481 160.226,131.909 207.368 C 108.337 254.510,89.221 293.349,89.430 293.678 C 90.024 294.615,122.392 310.530,122.807 310.090 C 123.010 309.874,135.765 284.509,151.152 253.723 L 179.127 197.750 185.247 207.017 C 201.065 230.966,223.981 247.976,250.988 255.814 C 266.348 260.272,269.155 260.430,333.470 260.433 L 393.225 260.437 393.225 241.626 L 393.225 222.816 331.329 222.535 C 269.880 222.257,269.386 222.241,263.007 220.314 C 248.234 215.853,234.530 207.413,224.831 196.802 C 214.256 185.232,206.115 167.472,205.049 153.645 L 204.530 146.917 211.071 133.856 L 217.613 120.795 250.590 120.795 L 283.568 120.795 283.568 101.947 L 283.568 83.100 260.004 83.100 L 236.440 83.100 243.777 68.444 C 247.813 60.383,250.995 53.680,250.850 53.548 C 250.488 53.220,217.679 36.838,217.384 36.838 C 217.254 36.838,211.955 47.247,205.608 59.969 M332.245 107.446 C 332.094 120.836,331.724 132.039,331.421 132.340 C 331.119 132.642,323.123 129.011,313.653 124.272 C 304.183 119.532,296.240 115.654,296.002 115.654 C 295.499 115.654,279.284 147.863,279.284 148.862 C 279.284 149.231,286.223 152.985,294.705 157.204 C 303.186 161.424,310.125 165.148,310.125 165.480 C 310.125 166.358,306.087 169.068,300.834 171.715 C 295.256 174.525,284.624 177.337,279.576 177.337 L 275.857 177.337 275.857 196.314 L 275.857 215.290 283.782 214.750 C 304.926 213.307,325.706 203.818,341.524 188.383 L 346.793 183.241 365.721 192.712 L 384.649 202.184 393.145 185.209 L 401.640 168.233 383.684 159.292 C 367.889 151.427,365.789 150.145,366.241 148.637 C 369.433 138.008,370.072 131.129,370.083 107.302 L 370.094 83.100 351.307 83.100 L 332.519 83.100 332.245 107.446 M166.200 302.419 L 166.200 321.270 255.082 321.052 L 343.965 320.834 344.196 302.201 L 344.427 283.568 255.313 283.568 L 166.200 283.568 166.200 302.419 M128.505 377.805 L 128.505 396.652 255.297 396.652 L 382.088 396.652 382.088 377.805 L 382.088 358.957 255.297 358.957 L 128.505 358.957 128.505 377.805 " stroke="none" fill-rule="evenodd" fill="black"></path></svg>