<svg width="136mm" height="120mm" version="1.1" viewBox="0 0 600 529.4117647058824" xmlns="http://www.w3.org/2000/svg"><path d="M355.531 81.386 L 355.531 101.947 313.981 101.947 L 272.431 101.947 272.431 120.795 L 272.431 139.642 313.981 139.642 L 355.531 139.642 355.531 160.417 L 355.531 181.192 322.023 281.715 C 303.594 337.003,288.848 382.541,289.254 382.911 C 289.660 383.281,297.628 386.116,306.959 389.211 C 318.658 393.090,324.045 394.521,324.311 393.817 C 324.524 393.256,335.811 359.450,349.395 318.693 L 374.093 244.590 399.170 319.821 C 415.142 367.737,424.603 394.922,425.228 394.693 C 425.767 394.496,433.533 391.916,442.486 388.961 C 451.438 386.006,459.048 383.332,459.396 383.019 C 459.744 382.706,444.998 337.362,426.627 282.254 L 393.225 182.057 393.225 160.850 L 393.225 139.642 434.775 139.642 L 476.325 139.642 476.325 120.795 L 476.325 101.947 434.775 101.947 L 393.225 101.947 393.225 81.386 L 393.225 60.826 374.378 60.826 L 355.531 60.826 355.531 81.386 M131.932 92.524 L 131.932 113.084 90.382 113.084 L 48.832 113.084 48.832 131.932 L 48.832 150.779 77.313 150.779 L 105.794 150.779 74.536 182.046 L 43.278 213.312 56.543 226.598 L 69.807 239.883 110.082 199.615 C 132.234 177.467,150.740 159.346,151.208 159.346 C 151.675 159.346,170.181 177.467,192.333 199.615 L 232.608 239.883 245.872 226.598 L 259.137 213.312 227.879 182.046 L 196.621 150.779 225.119 150.779 L 253.617 150.779 253.386 132.146 L 253.155 113.513 211.819 113.290 L 170.483 113.068 170.483 92.515 L 170.483 71.963 151.208 71.963 L 131.932 71.963 131.932 92.524 M131.932 231.767 C 131.932 279.866,132.615 276.348,124.818 268.406 C 118.157 261.621,115.155 255.558,114.084 246.730 L 113.513 242.018 94.339 241.787 L 75.165 241.556 75.768 247.677 C 78.309 273.467,93.401 296.388,115.654 308.254 C 119.188 310.139,124.292 312.364,126.995 313.198 L 131.911 314.715 132.136 346.046 L 132.360 377.376 151.208 377.376 L 170.055 377.376 170.281 346.107 L 170.506 314.837 177.228 312.460 C 204.091 302.960,223.738 277.191,226.539 247.784 L 227.133 241.556 208.017 241.787 L 188.902 242.018 188.677 245.016 C 187.987 254.178,183.466 262.936,175.816 269.928 L 170.912 274.410 170.689 231.870 L 170.467 189.331 151.200 189.331 L 131.932 189.331 131.932 231.767 " stroke="none" fill-rule="evenodd" fill="black"></path></svg>