<svg width="136mm" height="120mm" version="1.1" viewBox="0 0 600 529.4117647058824" xmlns="http://www.w3.org/2000/svg"><path d="M354.674 81.386 L 354.674 101.947 313.552 101.947 L 272.431 101.947 272.431 120.795 L 272.431 139.642 313.552 139.642 L 354.674 139.642 354.674 161.702 L 354.674 183.762 321.594 283.000 C 303.401 337.581,288.848 382.541,289.254 382.911 C 289.660 383.281,297.628 386.116,306.959 389.211 C 318.658 393.090,324.045 394.521,324.311 393.817 C 324.524 393.256,335.811 359.450,349.395 318.693 L 374.093 244.590 399.151 319.764 C 412.933 361.110,424.285 394.939,424.377 394.939 C 424.569 394.939,457.380 384.000,458.923 383.421 C 459.605 383.166,448.956 350.091,426.582 282.977 L 393.225 182.914 393.225 161.278 L 393.225 139.642 434.775 139.642 L 476.325 139.642 476.325 120.795 L 476.325 101.947 434.775 101.947 L 393.225 101.947 393.225 81.386 L 393.225 60.826 373.950 60.826 L 354.674 60.826 354.674 81.386 M131.932 92.515 L 131.932 113.068 90.596 113.290 L 49.260 113.513 49.029 132.146 L 48.798 150.779 77.296 150.779 L 105.794 150.779 74.532 182.049 L 43.271 213.319 56.760 226.808 L 70.249 240.298 110.943 199.611 L 151.636 158.925 192.122 199.404 L 232.608 239.883 245.872 226.598 L 259.137 213.312 227.879 182.046 L 196.621 150.779 225.119 150.779 L 253.617 150.779 253.386 132.146 L 253.155 113.513 211.819 113.290 L 170.483 113.068 170.483 92.515 L 170.483 71.963 151.208 71.963 L 131.932 71.963 131.932 92.515 M131.726 231.891 L 131.503 274.451 126.151 269.495 C 119.643 263.469,114.863 254.581,114.047 246.988 L 113.513 242.018 94.665 242.018 L 75.818 242.018 76.102 247.158 C 77.703 276.093,98.398 303.255,126.139 312.832 L 131.911 314.824 132.136 346.100 L 132.360 377.376 151.208 377.376 L 170.055 377.376 170.280 346.046 L 170.504 314.715 175.420 313.198 C 178.123 312.364,183.227 310.139,186.761 308.254 C 208.993 296.396,224.036 273.556,226.586 247.784 L 227.203 241.556 208.053 241.787 L 188.902 242.018 188.331 246.730 C 187.260 255.558,184.258 261.621,177.597 268.406 C 169.800 276.348,170.483 279.866,170.483 231.767 L 170.483 189.331 151.216 189.331 L 131.948 189.331 131.726 231.891 " stroke="none" fill-rule="evenodd" fill="black"></path></svg>