<svg width="136mm" height="120mm" version="1.1" viewBox="0 0 600 529.4117647058824" xmlns="http://www.w3.org/2000/svg"><path d="M355.531 81.386 L 355.531 101.947 313.981 101.947 L 272.431 101.947 272.431 120.795 L 272.431 139.642 313.981 139.642 L 355.531 139.642 355.531 160.396 L 355.531 181.149 322.025 281.696 C 303.598 336.997,288.852 382.545,289.257 382.914 C 289.662 383.282,297.628 386.116,306.959 389.211 C 318.658 393.090,324.045 394.521,324.311 393.817 C 324.524 393.256,335.811 359.450,349.395 318.693 L 374.093 244.590 399.151 319.764 C 412.933 361.110,424.285 394.939,424.377 394.939 C 424.569 394.939,457.380 384.000,458.923 383.421 C 459.605 383.166,448.956 350.091,426.582 282.977 L 393.225 182.914 393.225 161.278 L 393.225 139.642 434.775 139.642 L 476.325 139.642 476.325 120.795 L 476.325 101.947 434.775 101.947 L 393.225 101.947 393.225 81.386 L 393.225 60.826 374.378 60.826 L 355.531 60.826 355.531 81.386 M132.788 92.524 L 132.788 113.084 91.239 113.084 L 49.689 113.084 49.689 131.932 L 49.689 150.779 77.741 150.779 L 105.794 150.779 74.532 182.049 L 43.271 213.319 56.760 226.808 L 70.249 240.298 110.943 199.611 L 151.636 158.925 192.122 199.404 L 232.608 239.883 245.872 226.598 L 259.137 213.312 227.879 182.046 L 196.621 150.779 225.119 150.779 L 253.617 150.779 253.386 132.146 L 253.155 113.513 211.819 113.290 L 170.483 113.068 170.483 92.515 L 170.483 71.963 151.636 71.963 L 132.788 71.963 132.788 92.524 M132.788 231.292 C 132.788 255.825,132.462 274.144,132.024 274.144 C 130.665 274.144,122.511 266.319,119.868 262.477 C 116.621 257.758,114.772 252.737,114.066 246.730 L 113.513 242.018 94.463 241.787 L 75.412 241.557 75.912 246.927 C 78.733 277.233,97.260 301.941,124.982 312.368 L 132.360 315.143 132.585 346.474 L 132.810 377.805 151.646 377.805 L 170.483 377.805 170.483 346.263 L 170.483 314.722 175.409 313.190 C 202.636 304.724,223.679 277.811,226.538 247.800 L 227.129 241.589 208.318 241.589 L 189.507 241.589 188.501 247.372 C 186.732 257.551,181.038 266.745,172.926 272.522 L 170.499 274.249 170.277 231.576 L 170.055 188.902 151.422 188.671 L 132.788 188.441 132.788 231.292 " stroke="none" fill-rule="evenodd" fill="black"></path></svg>