<svg width="136mm" height="120mm" version="1.1" viewBox="0 0 600 529.4117647058824" xmlns="http://www.w3.org/2000/svg"><path d="M238.163 122.936 L 238.163 208.178 156.759 208.178 L 75.356 208.178 75.587 226.811 L 75.818 245.445 143.490 245.664 L 211.162 245.883 142.415 314.634 L 73.668 383.386 86.955 396.652 L 100.243 409.919 178.626 331.539 L 257.010 253.158 335.394 331.539 L 413.777 409.919 427.065 396.652 L 440.352 383.386 371.605 314.634 L 302.858 245.883 370.530 245.664 L 438.202 245.445 438.433 226.811 L 438.664 208.178 357.261 208.178 L 275.857 208.178 275.857 122.936 L 275.857 37.695 257.010 37.695 L 238.163 37.695 238.163 122.936 M113.103 94.647 L 99.863 107.908 102.833 111.002 C 104.466 112.704,121.535 129.551,140.763 148.440 L 175.724 182.784 188.956 169.573 L 202.188 156.362 164.708 118.874 C 144.093 98.256,127.028 81.386,126.785 81.386 C 126.542 81.386,120.385 87.354,113.103 94.647 M349.312 118.874 L 311.832 156.362 325.051 169.560 L 338.270 182.758 376.028 145.633 C 396.795 125.214,413.786 108.280,413.786 108.002 C 413.786 107.394,387.821 81.386,387.215 81.386 C 386.983 81.386,369.927 98.256,349.312 118.874 " stroke="none" fill-rule="evenodd" fill="black"></path></svg>