<svg width="136mm" height="120mm" version="1.1" viewBox="0 0 600 529.4117647058824" xmlns="http://www.w3.org/2000/svg"><path d="M336.683 96.379 C 336.683 138.608,336.418 155.063,335.738 155.063 C 335.217 155.063,332.037 153.640,328.670 151.901 C 319.935 147.390,309.025 136.301,304.808 127.648 C 299.418 116.589,298.924 113.510,298.383 87.598 L 297.895 64.252 279.057 64.252 L 260.219 64.252 260.681 88.883 C 261.057 108.946,261.455 114.942,262.829 121.223 C 268.733 148.218,285.452 170.910,309.405 184.438 C 313.304 186.640,321.033 189.895,326.579 191.671 L 336.662 194.899 336.673 201.099 L 336.683 207.298 308.198 207.524 L 279.713 207.750 279.713 226.597 L 279.713 245.445 308.198 245.670 L 336.683 245.896 336.683 252.150 L 336.683 258.404 329.890 260.367 C 304.922 267.581,284.365 283.938,272.414 306.099 C 263.167 323.244,261.275 332.632,260.681 364.312 L 260.219 388.942 279.057 388.942 L 297.895 388.942 298.383 365.597 C 298.924 339.685,299.418 336.606,304.808 325.546 C 309.025 316.893,319.935 305.804,328.670 301.293 C 332.037 299.554,335.217 298.132,335.738 298.132 C 336.418 298.132,336.683 314.586,336.683 356.816 L 336.683 415.500 355.531 415.500 L 374.378 415.500 374.378 356.816 C 374.378 324.539,374.667 298.136,375.020 298.142 C 375.374 298.148,377.873 299.274,380.575 300.644 C 391.625 306.249,401.018 315.892,406.273 327.030 C 411.052 337.156,411.399 339.531,411.841 365.168 L 412.250 388.942 431.009 388.942 L 449.767 388.942 449.765 368.167 C 449.764 356.741,449.337 343.922,448.818 339.682 C 444.098 301.171,415.747 269.093,378.019 259.576 L 374.378 258.657 374.378 252.277 L 374.378 245.896 402.435 245.670 L 430.492 245.445 430.492 226.597 L 430.492 207.750 402.435 207.524 L 374.378 207.298 374.378 200.917 L 374.378 194.537 378.019 193.618 C 407.187 186.261,432.023 164.460,442.829 136.730 C 448.498 122.183,449.046 118.334,449.526 89.739 L 449.953 64.252 431.102 64.252 L 412.250 64.252 411.871 88.026 C 411.522 109.827,411.329 112.297,409.542 117.796 C 404.370 133.716,394.732 145.265,380.641 152.425 C 377.786 153.876,375.210 155.063,374.914 155.063 C 374.619 155.063,374.378 128.655,374.378 96.379 L 374.378 37.695 355.531 37.695 L 336.683 37.695 336.683 96.379 M53.115 90.810 L 53.115 109.658 89.097 109.658 L 125.078 109.658 125.078 241.589 L 125.078 373.521 111.799 373.521 L 98.520 373.521 98.520 392.807 L 98.520 412.094 130.433 411.869 L 162.345 411.644 162.561 260.660 L 162.778 109.676 198.543 109.453 L 234.307 109.229 234.538 90.596 L 234.769 71.963 143.942 71.963 L 53.115 71.963 53.115 90.810 M68.108 147.298 C 55.886 151.441,51.001 153.468,51.069 154.370 C 51.121 155.065,57.791 175.515,65.891 199.815 L 80.618 243.997 98.478 238.037 L 116.337 232.076 101.223 186.716 C 92.910 161.768,85.913 141.386,85.675 141.423 C 85.437 141.460,77.531 144.104,68.108 147.298 M200.866 142.426 C 199.565 145.872,171.340 230.964,171.340 231.443 C 171.340 232.044,204.411 243.303,206.179 243.303 C 207.631 243.303,237.473 153.357,236.181 152.873 C 234.154 152.113,201.795 141.356,201.536 141.356 C 201.390 141.356,201.089 141.837,200.866 142.426 M65.592 299.679 C 57.326 324.470,50.849 345.010,51.197 345.322 C 51.904 345.955,85.895 357.332,86.137 357.016 C 86.222 356.906,93.052 336.500,101.316 311.670 L 116.342 266.525 98.481 260.564 L 80.620 254.603 65.592 299.679 M188.144 260.904 C 179.246 263.915,171.832 266.513,171.668 266.676 C 171.384 266.961,200.970 356.318,201.536 356.884 C 201.750 357.099,231.558 347.510,236.133 345.754 C 236.886 345.465,232.796 332.141,222.188 300.321 C 210.241 264.489,206.885 255.310,205.750 255.363 C 204.965 255.399,197.043 257.893,188.144 260.904 " stroke="none" fill-rule="evenodd" fill="black"></path></svg>