<svg width="136mm" height="120mm" version="1.1" viewBox="0 0 600 529.4117647058824" xmlns="http://www.w3.org/2000/svg"><path d="M336.683 96.472 L 336.683 155.248 334.327 154.662 C 326.191 152.636,311.156 139.372,305.550 129.275 C 299.855 119.018,298.988 113.465,298.988 87.246 L 298.988 64.252 279.713 64.252 L 260.437 64.252 260.437 82.951 C 260.437 114.542,262.488 126.677,270.674 143.497 C 277.819 158.179,289.300 171.316,302.938 180.412 C 311.375 186.039,318.437 189.314,328.862 192.435 L 336.749 194.796 336.502 201.273 L 336.255 207.750 307.753 207.975 L 279.251 208.201 279.482 226.823 L 279.713 245.445 308.198 245.670 L 336.683 245.896 336.683 252.277 L 336.683 258.657 333.042 259.595 C 305.151 266.780,282.835 284.707,270.674 309.697 C 262.488 326.518,260.437 338.652,260.437 370.243 L 260.437 388.942 279.713 388.942 L 298.988 388.942 298.988 365.948 C 298.988 339.729,299.855 334.177,305.550 323.919 C 309.931 316.028,320.831 305.366,328.670 301.304 C 332.037 299.559,335.217 298.132,335.738 298.132 C 336.418 298.132,336.683 314.586,336.683 356.816 L 336.683 415.500 355.531 415.500 L 374.378 415.500 374.378 356.816 C 374.378 317.005,374.663 298.132,375.263 298.132 C 376.961 298.132,384.293 302.268,389.398 306.106 C 398.621 313.038,405.220 322.241,409.177 333.685 C 411.505 340.417,411.553 340.967,411.898 364.740 L 412.248 388.942 431.008 388.942 L 449.767 388.942 449.767 366.351 C 449.767 341.257,448.932 333.990,444.537 320.838 C 434.520 290.862,409.133 267.484,378.019 259.582 L 374.378 258.657 374.378 252.265 L 374.378 245.873 402.649 245.873 L 430.920 245.873 430.920 227.025 L 430.920 208.178 402.649 208.178 L 374.378 208.178 374.378 201.358 L 374.378 194.537 378.019 193.612 C 409.133 185.711,434.520 162.332,444.537 132.356 C 448.932 119.204,449.767 111.937,449.767 86.843 L 449.767 64.252 431.008 64.252 L 412.248 64.252 411.898 88.454 C 411.553 112.233,411.506 112.776,409.175 119.510 C 407.871 123.279,405.992 127.713,405.001 129.362 C 401.215 135.658,394.656 143.136,389.557 146.969 C 384.317 150.908,376.980 155.063,375.263 155.063 C 374.663 155.063,374.378 136.189,374.378 96.379 L 374.378 37.695 355.531 37.695 L 336.683 37.695 336.683 96.472 M53.115 90.810 L 53.115 109.658 88.668 109.658 L 124.222 109.658 124.222 242.018 L 124.222 374.378 111.371 374.378 L 98.520 374.378 98.520 393.236 L 98.520 412.094 130.433 411.869 L 162.345 411.644 162.561 260.660 L 162.778 109.676 198.543 109.453 L 234.307 109.229 234.538 90.596 L 234.769 71.963 143.942 71.963 L 53.115 71.963 53.115 90.810 M68.381 147.206 C 59.108 150.349,51.261 153.186,50.944 153.510 C 50.457 154.007,79.231 242.110,80.261 243.273 C 80.934 244.034,115.654 232.033,115.654 231.040 C 115.654 229.495,86.168 141.347,85.676 141.423 C 85.437 141.460,77.655 144.062,68.381 147.206 M200.866 142.426 C 199.565 145.872,171.340 230.964,171.340 231.443 C 171.340 232.044,204.411 243.303,206.179 243.303 C 207.631 243.303,237.473 153.357,236.181 152.873 C 234.154 152.113,201.795 141.356,201.536 141.356 C 201.390 141.356,201.089 141.837,200.866 142.426 M80.225 255.152 C 78.522 258.196,50.537 344.712,51.091 345.216 C 51.498 345.586,59.465 348.421,68.797 351.516 C 80.447 355.380,85.878 356.823,86.131 356.122 C 86.333 355.561,93.229 335.177,101.454 310.825 L 116.410 266.547 98.478 260.563 C 88.615 257.271,80.401 254.836,80.225 255.152 M189.430 260.535 C 179.825 263.749,171.786 266.559,171.564 266.781 C 171.235 267.110,199.961 354.640,201.020 356.532 C 201.196 356.848,209.395 354.417,219.239 351.132 L 237.139 345.158 222.371 300.870 C 214.249 276.511,207.444 256.157,207.249 255.637 C 207.023 255.037,200.517 256.826,189.430 260.535 " stroke="none" fill-rule="evenodd" fill="black"></path></svg>