<svg width="136mm" height="120mm" version="1.1" viewBox="0 0 600 529.4117647058824" xmlns="http://www.w3.org/2000/svg"><path d="M335.826 96.436 L 335.826 155.178 333.899 154.596 C 325.552 152.077,310.986 139.066,305.550 129.275 C 299.855 119.018,298.988 113.465,298.988 87.246 L 298.988 64.252 279.713 64.252 L 260.437 64.252 260.437 82.951 C 260.437 114.542,262.488 126.677,270.674 143.497 C 282.185 167.151,302.377 184.256,328.330 192.338 L 335.826 194.673 335.826 201.425 L 335.826 208.178 307.539 208.178 L 279.251 208.178 279.482 226.811 L 279.713 245.445 307.805 245.670 L 335.898 245.896 335.648 252.407 L 335.398 258.919 328.544 260.906 C 303.315 268.224,282.189 286.035,270.674 309.697 C 262.488 326.518,260.437 338.652,260.437 370.243 L 260.437 388.942 279.713 388.942 L 298.988 388.942 298.988 365.948 C 298.988 339.791,299.866 334.123,305.472 324.100 C 310.927 314.345,321.929 304.107,331.786 299.610 C 333.569 298.797,335.208 298.132,335.427 298.132 C 335.647 298.132,335.826 324.539,335.826 356.816 L 335.826 415.500 355.102 415.500 L 374.378 415.500 374.378 356.758 L 374.378 298.016 376.305 298.598 C 379.533 299.572,386.559 303.851,391.084 307.597 C 396.848 312.370,402.050 318.812,405.578 325.546 C 410.806 335.524,411.333 338.862,411.831 365.168 L 412.281 388.942 431.109 388.942 L 449.937 388.942 449.529 363.455 C 449.065 334.501,448.518 330.788,442.536 315.946 C 432.055 289.945,410.785 270.182,384.016 261.572 L 374.378 258.472 374.378 252.184 L 374.378 245.896 402.435 245.670 L 430.492 245.445 430.723 226.811 L 430.954 208.178 402.666 208.178 L 374.378 208.178 374.378 201.358 L 374.378 194.537 378.019 193.612 C 405.912 186.529,430.438 165.788,441.509 139.921 C 448.318 124.015,449.767 114.479,449.767 85.608 L 449.767 64.252 431.024 64.252 L 412.281 64.252 411.831 88.026 C 411.333 114.341,410.807 117.667,405.567 127.670 C 399.302 139.630,386.336 151.561,376.305 154.595 L 374.378 155.178 374.378 96.436 L 374.378 37.695 355.102 37.695 L 335.826 37.695 335.826 96.436 M53.115 90.810 L 53.115 109.658 89.100 109.658 L 125.084 109.658 124.867 241.804 L 124.650 373.950 111.585 374.186 L 98.520 374.423 98.520 393.258 L 98.520 412.094 130.433 411.869 L 162.345 411.644 162.561 260.660 L 162.778 109.676 198.543 109.453 L 234.307 109.229 234.538 90.596 L 234.769 71.963 143.942 71.963 L 53.115 71.963 53.115 90.810 M68.108 147.298 C 55.886 151.441,51.001 153.468,51.069 154.370 C 51.121 155.065,57.791 175.515,65.891 199.815 L 80.618 243.997 98.478 238.037 L 116.337 232.076 101.223 186.716 C 92.910 161.768,85.913 141.386,85.675 141.423 C 85.437 141.460,77.531 144.104,68.108 147.298 M200.866 142.426 C 199.565 145.872,171.340 230.964,171.340 231.443 C 171.340 232.044,204.411 243.303,206.179 243.303 C 207.631 243.303,237.473 153.357,236.181 152.873 C 234.154 152.113,201.795 141.356,201.536 141.356 C 201.390 141.356,201.089 141.837,200.866 142.426 M65.592 299.679 C 57.326 324.470,50.849 345.010,51.197 345.322 C 51.904 345.955,85.895 357.332,86.137 357.016 C 86.222 356.906,93.052 336.500,101.316 311.670 L 116.342 266.525 98.481 260.564 L 80.620 254.603 65.592 299.679 M189.060 260.656 C 177.952 264.367,171.361 266.984,171.585 267.595 C 171.783 268.134,178.575 288.489,186.679 312.828 L 201.413 357.081 219.276 351.120 L 237.139 345.158 222.371 300.870 C 214.249 276.511,207.444 256.158,207.249 255.639 C 207.024 255.043,200.348 256.884,189.060 260.656 " stroke="none" fill-rule="evenodd" fill="black"></path></svg>