<svg width="136mm" height="120mm" version="1.1" viewBox="0 0 600 529.4117647058824" xmlns="http://www.w3.org/2000/svg"><path d="M109.611 97.450 L 109.564 157.204 91.954 122.080 C 82.268 102.761,74.177 86.778,73.974 86.562 C 73.560 86.122,41.192 102.038,40.598 102.975 C 40.307 103.432,76.415 176.804,77.534 178.030 C 77.667 178.176,84.752 174.802,93.279 170.534 C 101.806 166.265,108.980 162.773,109.220 162.773 C 109.461 162.773,109.658 172.792,109.658 185.038 L 109.658 207.303 73.890 207.526 L 38.123 207.750 38.123 226.597 L 38.123 245.445 70.035 245.669 C 87.587 245.793,101.947 246.181,101.947 246.532 C 101.947 246.882,91.191 279.433,78.044 318.867 L 54.141 390.564 72.003 396.525 L 89.865 402.486 108.872 345.383 C 119.326 313.976,128.091 287.913,128.349 287.465 C 128.607 287.017,137.519 312.736,148.152 344.617 L 167.485 402.584 184.619 396.952 C 194.043 393.855,202.038 391.059,202.386 390.740 C 202.734 390.421,192.229 357.794,179.041 318.236 C 165.853 278.678,155.063 246.218,155.063 246.103 C 155.063 245.988,169.423 245.793,186.975 245.669 L 218.887 245.445 218.887 226.597 L 218.887 207.750 183.120 207.526 L 147.352 207.303 147.352 185.038 C 147.352 172.792,147.549 162.773,147.790 162.773 C 148.030 162.773,155.204 166.265,163.731 170.534 C 172.258 174.802,179.343 178.176,179.476 178.030 C 180.103 177.343,216.745 103.586,216.745 103.011 C 216.745 102.301,185.589 86.527,184.187 86.527 C 183.720 86.527,175.338 102.429,165.559 121.866 L 147.781 157.204 147.561 97.450 L 147.341 37.695 128.499 37.695 L 109.658 37.695 109.611 97.450 M325.118 38.900 C 315.355 40.538,308.642 42.434,300.627 45.814 C 245.757 68.955,222.343 133.774,249.743 186.679 C 267.120 220.230,302.270 241.589,340.110 241.589 C 383.937 241.589,423.411 212.977,436.854 171.465 C 440.626 159.820,441.629 153.133,441.629 139.642 C 441.629 132.506,441.123 124.668,440.441 121.223 C 432.246 79.851,401.291 48.433,360.242 39.827 C 351.053 37.901,333.785 37.445,325.118 38.900 M321.262 99.806 L 321.262 120.795 300.180 120.795 L 279.098 120.795 279.682 118.439 C 280.544 114.961,285.041 106.377,288.414 101.773 C 293.726 94.521,302.935 86.792,311.183 82.663 C 315.409 80.547,319.406 78.816,320.065 78.816 C 321.058 78.816,321.262 82.398,321.262 99.806 M369.365 82.820 C 376.000 86.136,378.713 88.160,385.152 94.600 C 391.592 101.039,393.616 103.752,396.932 110.387 C 399.134 114.794,400.936 118.938,400.936 119.597 C 400.936 120.590,397.354 120.795,379.946 120.795 L 358.957 120.795 358.957 99.806 C 358.957 82.398,359.162 78.816,360.155 78.816 C 360.814 78.816,364.958 80.618,369.365 82.820 M321.262 179.894 L 321.262 201.299 316.765 199.540 C 301.427 193.538,287.987 180.689,281.350 165.683 C 277.933 157.956,276.529 158.489,300.273 158.489 L 321.262 158.489 321.262 179.894 M400.936 159.666 C 400.936 161.677,397.436 168.947,393.667 174.767 C 386.462 185.891,375.693 194.703,363.366 199.562 L 358.957 201.299 358.957 179.894 L 358.957 158.489 379.946 158.489 C 397.169 158.489,400.936 158.701,400.936 159.666 M234.736 275.857 L 234.736 294.705 277.999 294.705 L 321.262 294.705 321.262 309.697 L 321.262 324.689 262.579 324.689 L 203.895 324.689 203.895 343.537 L 203.895 362.384 262.579 362.384 L 321.262 362.384 321.262 388.942 L 321.262 415.500 340.110 415.500 L 358.957 415.500 358.957 388.942 L 358.957 362.384 417.641 362.384 L 476.325 362.384 476.325 343.537 L 476.325 324.689 417.641 324.689 L 358.957 324.689 358.957 309.697 L 358.957 294.705 402.221 294.705 L 445.484 294.705 445.484 275.857 L 445.484 257.010 340.110 257.010 L 234.736 257.010 234.736 275.857 " stroke="none" fill-rule="evenodd" fill="black"></path></svg>