<svg width="136mm" height="120mm" version="1.1" viewBox="0 0 600 529.4117647058824" xmlns="http://www.w3.org/2000/svg"><path d="M109.611 97.450 L 109.564 157.204 91.954 122.080 C 82.268 102.761,74.177 86.778,73.974 86.562 C 73.560 86.122,41.192 102.038,40.598 102.975 C 40.307 103.432,76.415 176.804,77.534 178.030 C 77.667 178.176,84.752 174.802,93.279 170.534 C 101.806 166.265,108.980 162.773,109.220 162.773 C 109.461 162.773,109.658 172.989,109.658 185.476 L 109.658 208.178 73.659 208.178 L 37.661 208.178 37.892 226.811 L 38.123 245.445 70.035 245.669 C 87.587 245.793,101.947 246.181,101.947 246.532 C 101.947 246.882,91.191 279.433,78.044 318.867 L 54.141 390.564 72.003 396.525 L 89.865 402.486 108.864 345.383 C 119.313 313.976,128.111 288.002,128.414 287.664 C 128.717 287.325,137.611 313.004,148.178 344.729 L 167.391 402.409 184.904 396.557 C 194.537 393.338,202.550 390.572,202.712 390.410 C 202.873 390.249,192.218 357.761,179.034 318.215 C 165.850 278.669,155.063 246.214,155.063 246.093 C 155.063 245.972,169.520 245.873,187.189 245.873 L 219.315 245.873 219.315 227.035 L 219.315 208.197 183.548 207.973 L 147.781 207.750 147.552 185.261 C 147.427 172.893,147.527 162.773,147.776 162.773 C 148.024 162.773,155.204 166.265,163.731 170.534 C 172.258 174.802,179.343 178.176,179.476 178.030 C 179.941 177.520,216.745 103.664,216.745 103.241 C 216.745 102.817,184.609 86.527,183.773 86.527 C 183.534 86.527,175.338 102.429,165.559 121.866 L 147.781 157.204 147.561 97.450 L 147.341 37.695 128.499 37.695 L 109.658 37.695 109.611 97.450 M328.544 38.635 C 296.413 41.974,266.358 62.149,250.640 90.930 C 234.802 119.928,234.163 155.823,248.960 185.228 C 266.285 219.656,301.751 241.584,340.110 241.584 C 397.869 241.584,444.622 192.793,441.792 135.471 C 440.755 114.454,434.213 95.735,422.294 79.676 C 404.843 56.163,379.318 41.498,350.859 38.634 C 340.551 37.597,338.534 37.597,328.544 38.635 M321.262 99.377 L 321.262 120.795 299.848 120.795 L 278.434 120.795 280.100 116.413 C 285.697 101.681,300.347 86.788,315.694 80.227 C 318.521 79.019,320.931 78.014,321.048 77.995 C 321.166 77.976,321.262 87.598,321.262 99.377 M375.337 86.176 C 385.647 93.013,395.628 105.205,399.996 116.297 L 401.767 120.795 380.362 120.795 L 358.957 120.795 358.957 99.437 L 358.957 78.080 364.312 80.248 C 367.257 81.440,372.218 84.108,375.337 86.176 M321.262 179.869 L 321.262 201.248 317.768 200.015 C 301.689 194.343,285.425 178.108,279.774 162.089 L 278.504 158.489 299.883 158.489 L 321.262 158.489 321.262 179.869 M400.446 162.089 C 394.794 178.108,378.531 194.343,362.452 200.015 L 358.957 201.248 358.957 179.869 L 358.957 158.489 380.337 158.489 L 401.716 158.489 400.446 162.089 M234.077 275.643 L 234.307 294.276 277.785 294.498 L 321.262 294.721 321.262 309.705 L 321.262 324.689 262.579 324.689 L 203.895 324.689 203.895 343.537 L 203.895 362.384 262.579 362.384 L 321.262 362.384 321.262 388.942 L 321.262 415.500 340.110 415.500 L 358.957 415.500 358.957 388.942 L 358.957 362.384 417.641 362.384 L 476.325 362.384 476.325 343.537 L 476.325 324.689 417.641 324.689 L 358.957 324.689 358.957 309.705 L 358.957 294.721 402.435 294.498 L 445.912 294.276 446.143 275.643 L 446.374 257.010 340.110 257.010 L 233.846 257.010 234.077 275.643 " stroke="none" fill-rule="evenodd" fill="black"></path></svg>