<svg width="136mm" height="120mm" version="1.1" viewBox="0 0 600 529.4117647058824" xmlns="http://www.w3.org/2000/svg"><path d="M128.490 108.587 L 128.474 168.342 110.835 133.645 C 101.133 114.562,92.901 98.633,92.542 98.246 C 91.936 97.594,59.112 113.432,59.112 114.378 C 59.112 114.888,95.972 188.724,96.514 189.300 C 96.720 189.518,104.002 186.146,112.697 181.807 L 128.505 173.916 128.505 196.616 L 128.505 219.315 92.524 219.315 L 56.542 219.315 56.542 238.163 L 56.542 257.010 88.668 257.010 C 106.338 257.010,120.795 257.315,120.795 257.688 C 120.795 258.060,110.158 290.154,97.157 329.008 C 84.156 367.861,73.458 400.186,73.383 400.841 C 73.269 401.843,87.182 407.006,107.222 413.398 C 108.417 413.780,111.659 404.794,127.778 356.420 C 138.303 324.832,147.112 298.988,147.352 298.988 C 147.593 298.988,156.406 324.844,166.935 356.445 C 179.133 393.052,186.437 413.771,187.063 413.542 C 187.603 413.344,195.370 410.764,204.323 407.808 C 213.275 404.853,220.885 402.179,221.233 401.866 C 221.582 401.553,211.077 368.931,197.888 329.373 C 184.700 289.815,173.910 257.351,173.910 257.230 C 173.910 257.109,188.367 257.010,206.036 257.010 L 238.163 257.010 238.163 238.163 L 238.163 219.315 202.181 219.315 L 166.200 219.315 166.200 196.608 L 166.200 173.901 181.611 181.616 C 190.088 185.859,197.412 189.331,197.887 189.331 C 198.735 189.331,235.593 116.482,235.593 114.806 C 235.593 114.096,203.985 97.664,202.620 97.664 C 202.381 97.664,194.110 113.759,184.239 133.431 L 166.293 169.198 166.246 109.015 L 166.200 48.832 147.352 48.832 L 128.505 48.832 128.490 108.587 M347.774 109.015 L 347.727 169.198 329.781 133.431 C 319.910 113.759,311.639 97.664,311.400 97.664 C 310.035 97.664,278.428 114.096,278.428 114.806 C 278.428 116.482,315.285 189.331,316.133 189.331 C 316.608 189.331,323.932 185.859,332.409 181.616 L 347.820 173.901 347.820 196.608 L 347.820 219.315 311.839 219.315 L 275.857 219.315 275.857 238.163 L 275.857 257.010 307.984 257.010 C 325.653 257.010,340.110 257.109,340.110 257.230 C 340.110 257.351,329.320 289.815,316.132 329.373 C 302.943 368.931,292.438 401.553,292.787 401.866 C 293.135 402.179,300.745 404.853,309.697 407.808 C 318.650 410.764,326.417 413.344,326.957 413.542 C 327.583 413.771,334.887 393.052,347.085 356.445 C 357.614 324.844,366.427 298.988,366.668 298.988 C 366.908 298.988,375.712 324.818,386.231 356.387 C 396.751 387.957,405.434 413.786,405.527 413.786 C 405.721 413.786,438.521 402.852,440.076 402.269 C 440.760 402.012,433.249 378.360,417.159 330.097 C 403.996 290.612,393.225 258.015,393.225 257.658 C 393.225 257.302,407.682 257.010,425.352 257.010 L 457.478 257.010 457.478 238.163 L 457.478 219.315 421.496 219.315 L 385.515 219.315 385.515 196.616 L 385.515 173.916 401.323 181.807 C 410.018 186.146,417.300 189.518,417.506 189.300 C 418.048 188.724,454.908 114.888,454.908 114.378 C 454.908 114.142,447.533 110.258,438.519 105.747 C 427.766 100.365,421.840 97.834,421.287 98.387 C 420.823 98.851,412.599 114.780,403.010 133.786 L 385.577 168.342 385.546 108.587 L 385.515 48.832 366.668 48.832 L 347.820 48.832 347.774 109.015 " stroke="none" fill-rule="evenodd" fill="black"></path></svg>