<svg width="136mm" height="120mm" version="1.1" viewBox="0 0 600 529.4117647058824" xmlns="http://www.w3.org/2000/svg"><path d="M128.458 108.587 L 128.412 168.342 110.801 133.217 C 101.116 113.898,93.025 97.915,92.822 97.700 C 92.407 97.259,60.039 113.175,59.445 114.112 C 59.130 114.608,95.340 188.054,96.514 189.300 C 96.720 189.518,104.002 186.146,112.697 181.807 L 128.505 173.916 128.505 196.616 L 128.505 219.315 92.507 219.315 L 56.509 219.315 56.740 237.948 L 56.971 256.582 88.883 256.806 C 106.434 256.930,120.795 257.318,120.795 257.669 C 120.795 258.019,110.024 290.612,96.861 330.097 C 80.771 378.360,73.260 402.012,73.944 402.269 C 75.487 402.847,108.299 413.786,108.491 413.786 C 108.583 413.786,117.220 388.053,127.684 356.601 C 138.148 325.150,146.957 299.140,147.260 298.803 C 147.562 298.465,156.433 324.102,166.972 355.773 C 177.512 387.445,186.206 413.448,186.291 413.558 C 186.537 413.873,220.526 402.498,221.233 401.864 C 221.582 401.552,211.077 368.931,197.888 329.373 C 184.700 289.815,173.910 257.351,173.910 257.230 C 173.910 257.109,188.367 257.010,206.036 257.010 L 238.163 257.010 238.163 238.163 L 238.163 219.315 202.181 219.315 L 166.200 219.315 166.200 196.613 C 166.200 184.126,166.397 173.910,166.637 173.910 C 166.878 173.910,174.006 177.380,182.477 181.620 C 190.949 185.861,198.076 189.331,198.315 189.331 C 198.880 189.331,235.593 115.935,235.593 114.806 C 235.593 114.096,203.985 97.664,202.620 97.664 C 202.381 97.664,194.110 113.759,184.239 133.431 L 166.293 169.198 166.246 109.015 L 166.200 48.832 147.352 48.832 L 128.505 48.832 128.458 108.587 M347.774 109.015 L 347.727 169.198 329.781 133.431 C 319.910 113.759,311.639 97.664,311.400 97.664 C 310.035 97.664,278.428 114.096,278.428 114.806 C 278.428 115.935,315.140 189.331,315.705 189.331 C 315.944 189.331,323.071 185.861,331.543 181.620 C 340.014 177.380,347.142 173.910,347.383 173.910 C 347.623 173.910,347.820 184.126,347.820 196.613 L 347.820 219.315 311.839 219.315 L 275.857 219.315 275.857 238.163 L 275.857 257.010 307.984 257.010 C 325.653 257.010,340.110 257.109,340.110 257.230 C 340.110 257.351,329.320 289.815,316.132 329.373 C 302.943 368.931,292.438 401.552,292.787 401.864 C 293.494 402.498,327.483 413.873,327.729 413.558 C 327.814 413.448,336.508 387.445,347.048 355.773 C 357.587 324.102,366.458 298.465,366.760 298.803 C 367.063 299.140,375.872 325.150,386.336 356.601 C 396.800 388.053,405.437 413.786,405.529 413.786 C 405.721 413.786,438.533 402.847,440.076 402.269 C 440.760 402.012,433.249 378.360,417.159 330.097 C 403.996 290.612,393.225 258.019,393.225 257.669 C 393.225 257.318,407.586 256.930,425.137 256.806 L 457.049 256.582 457.280 237.948 L 457.511 219.315 421.513 219.315 L 385.515 219.315 385.515 196.616 L 385.515 173.916 401.323 181.807 C 410.018 186.146,417.300 189.518,417.506 189.300 C 418.680 188.054,454.890 114.608,454.575 114.112 C 453.981 113.175,421.613 97.259,421.198 97.700 C 420.995 97.915,412.904 113.898,403.219 133.217 L 385.608 168.342 385.562 108.587 L 385.515 48.832 366.668 48.832 L 347.820 48.832 347.774 109.015 " stroke="none" fill-rule="evenodd" fill="black"></path></svg>