<svg width="136mm" height="120mm" version="1.1" viewBox="0 0 600 529.4117647058824" xmlns="http://www.w3.org/2000/svg"><path d="M239.519 204.439 C 212.357 285.782,190.285 352.487,190.470 352.672 C 191.020 353.222,223.889 364.097,225.002 364.097 C 225.595 364.098,233.830 340.685,244.588 308.412 L 263.150 252.727 273.359 252.727 C 278.974 252.727,283.568 252.825,283.568 252.946 C 283.568 253.067,272.773 285.544,259.580 325.118 C 246.387 364.691,235.593 397.332,235.593 397.654 C 235.593 398.474,270.521 409.985,271.138 409.368 C 271.415 409.090,283.320 373.829,297.594 331.009 L 323.547 253.155 341.252 252.923 C 350.990 252.796,358.957 252.991,358.957 253.357 C 358.957 253.723,348.163 286.401,334.970 325.974 C 321.777 365.548,310.982 397.996,310.982 398.082 C 310.982 398.562,346.097 409.798,346.461 409.434 C 346.702 409.193,358.250 375.157,372.123 333.798 C 385.996 292.439,397.563 258.383,397.828 258.118 C 398.556 257.390,403.062 259.465,408.778 263.159 C 422.304 271.902,432.193 285.401,436.184 300.570 C 438.423 309.079,438.587 324.221,436.535 332.980 C 433.714 345.023,425.785 357.340,414.686 366.922 C 405.806 374.589,388.905 381.232,378.278 381.231 L 374.378 381.231 374.378 400.079 L 374.378 418.926 379.423 418.926 C 385.709 418.926,396.519 416.911,405.584 414.050 C 435.546 404.592,460.033 380.696,470.371 350.826 C 475.449 336.155,477.268 320.451,475.544 306.178 C 470.199 261.941,438.634 227.162,395.032 217.471 C 387.206 215.732,384.063 215.623,331.295 215.262 C 280.032 214.911,275.824 214.774,276.244 213.458 C 276.494 212.674,279.531 203.552,282.991 193.186 L 289.284 174.338 363.957 174.120 L 438.630 173.901 438.630 155.058 L 438.630 136.215 370.523 136.215 C 333.064 136.215,302.415 135.920,302.415 135.559 C 302.415 135.198,305.436 125.849,309.128 114.784 L 315.841 94.665 390.515 94.446 L 465.188 94.228 465.188 75.385 L 465.188 56.542 377.046 56.542 L 288.904 56.542 239.519 204.439 M68.267 94.792 C 67.944 95.115,67.679 103.604,67.679 113.656 L 67.679 131.932 58.239 131.932 L 48.799 131.932 49.030 150.993 L 49.260 170.055 58.393 170.297 L 67.525 170.540 67.904 207.564 C 68.336 249.815,68.655 252.213,75.826 266.993 C 97.968 312.630,158.312 323.842,195.220 289.177 C 203.229 281.655,210.559 270.990,213.802 262.143 C 218.771 248.588,218.723 249.069,219.088 208.392 L 219.427 170.483 228.795 170.483 L 238.163 170.483 238.163 151.208 L 238.163 131.932 228.739 131.932 L 219.315 131.932 219.315 113.084 L 219.315 94.237 200.468 94.237 L 181.620 94.237 181.620 113.084 L 181.620 131.932 143.942 131.932 L 106.264 131.932 106.033 113.299 L 105.802 94.665 87.328 94.435 C 77.167 94.308,68.590 94.469,68.267 94.792 M181.592 201.967 C 181.577 219.283,181.229 236.050,180.820 239.227 C 178.993 253.394,168.219 266.135,154.562 270.278 C 148.886 272.000,137.597 271.941,132.377 270.162 C 122.086 266.655,114.435 259.891,109.751 250.156 L 106.659 243.731 106.419 207.107 L 106.178 170.483 143.899 170.483 L 181.620 170.483 181.592 201.967 " stroke="none" fill-rule="evenodd" fill="black"></path></svg>