<svg width="136mm" height="120mm" version="1.1" viewBox="0 0 600 529.4117647058824" xmlns="http://www.w3.org/2000/svg"><path d="M239.821 203.680 C 212.855 284.606,190.630 351.260,190.433 351.799 C 190.112 352.674,222.246 364.098,225.027 364.098 C 225.587 364.098,234.178 339.640,244.588 308.412 L 263.150 252.727 273.359 252.727 C 278.974 252.727,283.568 252.825,283.568 252.946 C 283.568 253.067,272.773 285.544,259.580 325.118 C 246.387 364.691,235.593 397.332,235.593 397.654 C 235.593 398.474,270.521 409.985,271.138 409.368 C 271.415 409.090,283.320 373.829,297.594 331.009 L 323.547 253.155 341.252 252.923 C 350.990 252.796,358.957 252.991,358.957 253.357 C 358.957 253.723,348.170 286.379,334.986 325.925 C 321.802 365.471,311.147 397.959,311.308 398.120 C 311.829 398.641,344.739 409.503,345.797 409.503 C 346.393 409.503,357.268 378.115,371.843 334.327 C 385.606 292.981,397.191 258.798,397.587 258.367 C 398.617 257.245,408.044 262.275,414.417 267.347 C 429.314 279.201,437.870 297.241,437.957 316.979 C 438.008 328.290,436.334 335.519,431.231 346.035 C 427.896 352.907,426.157 355.253,419.481 361.884 C 415.171 366.164,409.432 370.964,406.728 372.549 C 399.726 376.655,388.548 380.285,380.922 380.930 L 374.378 381.483 374.378 400.205 L 374.378 418.926 378.978 418.926 C 381.507 418.926,387.001 418.338,391.186 417.619 C 420.987 412.499,446.810 394.588,462.173 368.381 C 484.955 329.519,479.084 279.942,447.800 247.008 C 431.433 229.777,408.920 218.617,385.087 215.919 C 380.711 215.423,355.396 215.043,326.559 215.039 C 278.552 215.032,275.768 214.949,276.220 213.532 C 276.484 212.708,279.531 203.552,282.991 193.186 L 289.284 174.338 363.743 173.910 L 438.202 173.482 438.433 154.849 L 438.664 136.215 370.539 136.215 C 333.071 136.215,302.415 135.920,302.415 135.559 C 302.415 135.198,305.436 125.849,309.128 114.784 L 315.841 94.665 390.086 94.446 L 464.331 94.228 464.331 75.385 L 464.331 56.542 376.591 56.542 L 288.851 56.542 239.821 203.680 M68.536 113.084 L 68.536 131.932 59.112 131.932 L 49.689 131.932 49.689 150.750 L 49.689 169.569 58.898 169.812 L 68.108 170.055 68.556 209.463 L 69.005 248.871 71.441 256.153 C 79.841 281.272,96.861 298.265,121.651 306.284 C 127.737 308.253,130.904 308.707,140.927 309.047 C 151.150 309.394,154.050 309.184,160.568 307.628 C 188.217 301.027,209.234 280.604,216.984 252.807 C 218.681 246.719,218.818 243.841,219.112 207.964 L 219.426 169.627 228.794 169.627 L 238.163 169.627 238.163 150.779 L 238.163 131.932 228.739 131.932 L 219.315 131.932 219.315 113.084 L 219.315 94.237 200.468 94.237 L 181.620 94.237 181.620 113.084 L 181.620 131.932 143.926 131.932 L 106.231 131.932 106.231 113.084 L 106.231 94.237 87.383 94.237 L 68.536 94.237 68.536 113.084 M181.620 203.715 C 181.620 240.602,181.378 243.051,176.829 252.027 C 173.658 258.285,166.818 264.773,159.751 268.227 C 154.010 271.032,153.394 271.146,143.926 271.146 C 134.618 271.146,133.754 270.994,128.284 268.403 C 120.243 264.594,113.789 258.246,109.844 250.267 L 106.659 243.824 106.411 206.725 L 106.162 169.627 143.891 169.627 L 181.620 169.627 181.620 203.715 " stroke="none" fill-rule="evenodd" fill="black"></path></svg>