<svg width="136mm" height="120mm" version="1.1" viewBox="0 0 600 529.4117647058824" xmlns="http://www.w3.org/2000/svg"><path d="M239.823 203.676 C 212.856 284.605,190.630 351.259,190.433 351.797 C 190.211 352.405,196.842 355.034,207.954 358.742 L 225.832 364.709 244.488 308.718 L 263.145 252.727 273.356 252.727 C 278.973 252.727,283.568 252.825,283.568 252.946 C 283.568 253.067,272.773 285.544,259.580 325.118 C 246.387 364.691,235.593 397.332,235.593 397.654 C 235.593 398.474,270.521 409.985,271.138 409.368 C 271.415 409.090,283.320 373.829,297.594 331.009 L 323.547 253.155 341.252 252.923 C 350.990 252.796,358.957 252.991,358.957 253.357 C 358.957 253.723,348.170 286.379,334.986 325.925 C 321.802 365.471,311.147 397.959,311.308 398.120 C 311.829 398.641,344.739 409.503,345.797 409.503 C 346.393 409.503,357.268 378.115,371.843 334.327 C 385.606 292.981,397.218 258.771,397.648 258.306 C 398.732 257.133,406.675 261.415,413.900 267.068 C 424.865 275.648,433.789 289.580,436.463 302.294 C 438.342 311.223,438.171 325.432,436.087 333.579 C 433.225 344.770,428.297 353.080,418.949 362.482 C 411.833 369.638,409.694 371.230,402.635 374.618 C 394.099 378.714,384.829 381.232,378.278 381.231 L 374.378 381.231 374.378 400.079 L 374.378 418.926 379.423 418.926 C 390.369 418.926,407.584 414.349,419.783 408.195 C 475.587 380.042,493.236 309.086,457.068 258.295 C 441.906 237.004,418.873 222.176,393.028 217.069 C 387.062 215.890,377.245 215.608,330.865 215.280 C 279.941 214.920,275.821 214.783,276.243 213.462 C 276.494 212.676,279.531 203.552,282.991 193.186 L 289.284 174.338 363.743 173.910 L 438.202 173.482 438.433 154.849 L 438.664 136.215 370.539 136.215 C 333.071 136.215,302.415 135.920,302.415 135.559 C 302.415 135.198,305.436 125.849,309.128 114.784 L 315.841 94.665 390.531 94.446 L 465.221 94.228 464.991 75.599 L 464.760 56.971 376.807 56.752 L 288.853 56.534 239.823 203.676 M68.250 94.808 C 67.936 95.122,67.679 103.591,67.679 113.627 L 67.679 131.874 58.470 132.117 L 49.260 132.360 49.260 151.208 L 49.260 170.055 58.470 170.298 L 67.679 170.541 67.680 200.711 C 67.681 235.000,68.486 246.316,71.640 256.383 C 85.015 299.069,132.078 320.907,173.262 303.537 C 189.987 296.483,204.980 281.787,212.602 264.977 C 218.593 251.763,218.763 250.284,219.112 208.392 L 219.427 170.483 228.795 170.483 L 238.163 170.483 238.163 151.208 L 238.163 131.932 228.739 131.932 L 219.315 131.932 219.315 113.084 L 219.315 94.237 200.468 94.237 L 181.620 94.237 181.620 113.084 L 181.620 131.932 143.926 131.932 L 106.231 131.932 106.231 113.084 L 106.231 94.237 87.526 94.237 C 77.239 94.237,68.565 94.494,68.250 94.808 M181.603 202.395 C 181.594 219.947,181.234 236.739,180.805 239.710 C 178.741 253.984,168.243 266.125,154.308 270.354 C 149.005 271.964,138.448 271.890,132.770 270.204 C 122.991 267.300,114.083 259.401,109.370 249.454 L 106.659 243.731 106.402 207.107 L 106.146 170.483 143.883 170.483 L 181.620 170.483 181.603 202.395 " stroke="none" fill-rule="evenodd" fill="black"></path></svg>