<svg width="136mm" height="120mm" version="1.1" viewBox="0 0 600 529.4117647058824" xmlns="http://www.w3.org/2000/svg"><path d="M109.611 97.450 L 109.564 157.204 91.954 122.080 C 82.268 102.761,74.177 86.778,73.974 86.562 C 73.560 86.122,41.192 102.038,40.598 102.975 C 40.307 103.432,76.415 176.804,77.534 178.030 C 77.667 178.176,84.752 174.802,93.279 170.534 C 101.806 166.265,108.980 162.773,109.220 162.773 C 109.461 162.773,109.658 172.989,109.658 185.476 L 109.658 208.178 73.676 208.178 L 37.695 208.178 37.695 227.025 L 37.695 245.873 69.821 245.873 C 87.490 245.873,101.947 245.972,101.947 246.093 C 101.947 246.214,91.160 278.669,77.976 318.215 C 64.792 357.761,54.137 390.249,54.298 390.410 C 54.460 390.572,62.529 393.356,72.230 396.598 L 89.868 402.492 108.967 345.172 C 119.472 313.645,128.264 287.851,128.505 287.851 C 128.746 287.851,137.538 313.645,148.043 345.172 L 167.142 402.492 184.780 396.598 C 194.481 393.356,202.550 390.572,202.712 390.410 C 202.873 390.249,192.218 357.761,179.034 318.215 C 165.850 278.669,155.063 246.214,155.063 246.093 C 155.063 245.972,169.520 245.873,187.189 245.873 L 219.315 245.873 219.315 227.025 L 219.315 208.178 183.334 208.178 L 147.352 208.178 147.352 185.476 C 147.352 172.989,147.549 162.773,147.790 162.773 C 148.030 162.773,155.204 166.265,163.731 170.534 C 172.258 174.802,179.343 178.176,179.476 178.030 C 180.595 176.804,216.703 103.432,216.412 102.975 C 215.818 102.038,183.450 86.122,183.036 86.562 C 182.833 86.778,174.742 102.761,165.056 122.080 L 147.446 157.204 147.399 97.450 L 147.352 37.695 128.505 37.695 L 109.658 37.695 109.611 97.450 M328.116 38.665 C 315.428 39.958,299.848 45.206,288.280 52.085 C 252.193 73.542,232.816 114.768,239.486 155.896 C 247.461 205.073,290.336 241.584,340.110 241.584 C 366.088 241.584,391.922 231.183,411.095 213.004 C 417.424 207.004,426.211 194.992,430.722 186.174 C 445.760 156.780,445.872 122.989,431.029 93.635 C 419.957 71.739,400.008 53.640,377.451 45.028 C 367.172 41.103,361.216 39.680,350.514 38.595 C 340.631 37.592,338.575 37.599,328.116 38.665 M356.063 77.540 C 374.805 81.830,394.029 99.006,400.446 117.195 L 401.716 120.795 340.084 120.795 L 278.453 120.795 280.224 116.297 C 286.252 100.987,300.709 86.402,315.989 80.215 C 320.876 78.236,326.226 76.932,333.685 75.902 C 337.852 75.326,350.405 76.245,356.063 77.540 M400.561 161.763 C 395.676 175.609,382.694 190.248,369.308 197.005 C 359.413 202.001,352.789 203.466,340.110 203.466 C 327.065 203.466,320.395 201.923,310.125 196.529 C 297.168 189.723,284.420 175.258,279.774 162.089 L 278.504 158.489 340.110 158.489 L 401.716 158.489 400.561 161.763 M234.077 275.643 L 234.307 294.276 277.785 294.498 L 321.262 294.721 321.262 309.705 L 321.262 324.689 262.579 324.689 L 203.895 324.689 203.895 343.537 L 203.895 362.384 262.579 362.384 L 321.262 362.384 321.262 388.942 L 321.262 415.500 340.110 415.500 L 358.957 415.500 358.957 388.942 L 358.957 362.384 417.641 362.384 L 476.325 362.384 476.325 343.537 L 476.325 324.689 417.641 324.689 L 358.957 324.689 358.957 309.705 L 358.957 294.721 402.435 294.498 L 445.912 294.276 446.143 275.643 L 446.374 257.010 340.110 257.010 L 233.846 257.010 234.077 275.643 " stroke="none" fill-rule="evenodd" fill="black"></path></svg>