<svg width="136mm" height="120mm" version="1.1" viewBox="0 0 600 529.4117647058824" xmlns="http://www.w3.org/2000/svg"><path d="M221.029 35.935 C 211.667 37.996,207.714 39.460,199.010 44.091 C 162.226 63.658,145.966 106.454,160.283 146.019 C 163.835 155.835,170.397 166.115,178.502 174.557 C 189.513 186.026,201.929 193.276,218.037 197.641 C 226.589 199.958,226.626 199.961,257.010 199.961 C 287.394 199.961,287.431 199.958,295.983 197.641 C 312.014 193.296,324.600 185.929,335.645 174.424 C 351.721 157.680,359.717 136.730,358.733 113.941 C 358.194 101.483,355.824 92.073,350.425 80.958 C 341.642 62.873,329.456 50.881,310.802 41.964 C 296.656 35.202,293.993 34.820,259.152 34.561 C 231.639 34.356,227.525 34.504,221.029 35.935 M238.163 85.242 L 238.163 98.520 217.602 98.520 C 206.293 98.520,197.041 98.210,197.041 97.832 C 197.041 96.152,202.726 88.425,206.944 84.372 C 214.469 77.143,225.598 72.157,234.522 72.019 L 238.163 71.963 238.163 85.242 M287.387 73.275 C 294.463 75.118,301.674 79.182,307.076 84.372 C 311.294 88.425,316.979 96.152,316.979 97.832 C 316.979 98.210,307.727 98.520,296.418 98.520 L 275.857 98.520 275.857 85.242 L 275.857 71.963 279.104 71.963 C 280.890 71.963,284.617 72.553,287.387 73.275 M238.163 149.547 L 238.163 162.878 234.093 162.339 C 218.900 160.328,205.624 151.811,198.914 139.772 L 196.931 136.215 217.547 136.215 L 238.163 136.215 238.163 149.547 M315.106 139.772 C 308.396 151.811,295.120 160.328,279.927 162.339 L 275.857 162.878 275.857 149.547 L 275.857 136.215 296.473 136.215 L 317.089 136.215 315.106 139.772 M105.572 226.811 L 105.802 245.445 257.010 245.445 L 408.218 245.445 408.448 226.811 L 408.679 208.178 257.010 208.178 L 105.341 208.178 105.572 226.811 M230.334 253.624 C 198.354 256.472,170.064 278.667,159.696 309.044 C 155.849 320.315,154.745 328.172,155.330 340.110 C 157.092 376.087,180.021 404.991,215.632 416.126 L 223.170 418.484 257.010 418.484 L 290.850 418.484 298.388 416.126 C 308.928 412.831,317.451 408.602,325.272 402.788 C 364.953 373.291,370.369 315.567,336.799 279.926 C 329.210 271.869,321.597 266.209,312.267 261.688 C 302.341 256.877,294.010 254.625,282.283 253.580 C 271.507 252.621,241.318 252.646,230.334 253.624 M238.163 304.129 L 238.163 316.979 217.547 316.979 L 196.931 316.979 198.914 313.422 C 205.678 301.287,221.270 291.361,233.665 291.300 L 238.163 291.278 238.163 304.129 M289.817 292.999 C 299.676 296.044,310.122 304.481,315.106 313.422 L 317.089 316.979 296.473 316.979 L 275.857 316.979 275.857 304.129 L 275.857 291.278 280.051 291.278 C 282.357 291.278,286.752 292.053,289.817 292.999 M238.163 368.381 L 238.163 381.231 234.916 381.231 C 230.076 381.231,222.252 378.958,216.447 375.863 C 210.580 372.736,201.847 364.388,198.914 359.102 L 196.931 355.531 217.547 355.531 L 238.163 355.531 238.163 368.381 M315.077 359.058 C 312.143 364.355,303.382 372.767,297.573 375.863 C 291.768 378.958,283.944 381.231,279.104 381.231 L 275.857 381.231 275.857 368.381 L 275.857 355.531 296.444 355.531 L 317.030 355.531 315.077 359.058 " stroke="none" fill-rule="evenodd" fill="black"></path></svg>