<svg width="136mm" height="120mm" version="1.1" viewBox="0 0 600 529.4117647058824" xmlns="http://www.w3.org/2000/svg"><path d="M221.982 35.563 C 213.773 37.386,208.471 39.251,200.980 42.950 C 179.459 53.577,163.389 73.662,157.462 97.341 C 154.989 107.223,154.776 126.598,157.041 135.669 C 164.957 167.367,189.057 191.039,220.938 198.431 C 228.440 200.171,271.043 201.060,283.156 199.730 C 303.293 197.518,318.491 190.665,332.511 177.473 C 344.424 166.263,352.185 153.276,356.580 137.197 C 359.227 127.511,359.220 107.909,356.565 97.341 C 349.283 68.355,327.862 46.121,298.560 37.135 L 290.850 34.771 259.152 34.559 C 234.307 34.394,226.271 34.611,221.982 35.563 M238.163 85.242 L 238.163 98.520 217.602 98.520 C 206.293 98.520,197.041 98.300,197.041 98.031 C 197.041 96.363,202.460 88.824,206.564 84.784 C 214.192 77.273,225.389 72.161,234.522 72.019 L 238.163 71.963 238.163 85.242 M287.269 73.244 C 297.604 75.936,306.519 82.181,312.806 91.134 C 315.101 94.402,316.979 97.401,316.979 97.798 C 316.979 98.195,307.727 98.520,296.418 98.520 L 275.857 98.520 275.857 85.242 L 275.857 71.963 279.104 71.963 C 280.890 71.963,284.564 72.539,287.269 73.244 M238.163 149.368 L 238.163 162.521 233.665 162.129 C 220.024 160.940,205.507 151.601,198.914 139.772 L 196.931 136.215 217.547 136.215 L 238.163 136.215 238.163 149.368 M315.193 139.589 C 308.422 151.635,294.047 160.936,280.355 162.129 L 275.857 162.521 275.857 149.368 L 275.857 136.215 296.473 136.215 L 317.089 136.215 315.193 139.589 M106.231 226.597 L 106.231 245.873 257.010 245.873 L 407.789 245.873 407.789 226.597 L 407.789 207.321 257.010 207.321 L 106.231 207.321 106.231 226.597 M231.737 253.274 C 209.155 255.824,192.431 263.939,177.617 279.535 C 167.764 289.908,160.665 303.015,157.041 317.525 C 154.776 326.596,154.989 345.971,157.462 355.853 C 164.701 384.775,186.018 406.896,215.504 416.084 L 223.170 418.473 257.010 418.473 L 290.850 418.473 298.560 416.084 C 327.961 406.973,349.285 384.830,356.565 355.853 C 359.220 345.286,359.227 325.683,356.580 315.997 C 352.205 299.990,344.496 287.066,332.584 275.768 C 319.068 262.948,303.491 255.771,284.424 253.578 C 277.787 252.815,237.844 252.584,231.737 253.274 M238.163 303.700 L 238.163 316.979 217.547 316.979 L 196.931 316.979 198.914 313.422 C 205.265 302.027,218.616 293.034,231.737 291.313 C 234.564 290.942,237.167 290.590,237.520 290.530 C 237.873 290.470,238.163 296.397,238.163 303.700 M290.509 293.379 C 300.614 296.814,310.144 304.623,315.193 313.606 L 317.089 316.979 296.473 316.979 L 275.857 316.979 275.857 303.826 L 275.857 290.673 280.355 291.065 C 282.829 291.280,287.398 292.322,290.509 293.379 M238.163 367.953 L 238.163 381.231 234.916 381.231 C 225.972 381.231,214.160 375.890,206.564 368.410 C 202.460 364.370,197.041 356.832,197.041 355.164 C 197.041 354.894,206.293 354.674,217.602 354.674 L 238.163 354.674 238.163 367.953 M316.979 355.396 C 316.979 357.350,308.085 368.421,304.025 371.520 C 296.112 377.562,286.696 381.231,279.104 381.231 L 275.857 381.231 275.857 367.953 L 275.857 354.674 296.418 354.674 C 307.727 354.674,316.979 354.999,316.979 355.396 " stroke="none" fill-rule="evenodd" fill="black"></path></svg>