<svg width="136mm" height="120mm" version="1.1" viewBox="0 0 600 529.4117647058824" xmlns="http://www.w3.org/2000/svg"><path d="M222.427 35.569 C 213.585 37.370,208.578 39.181,199.611 43.824 C 178.158 54.931,163.366 73.974,157.125 98.520 C 154.719 107.984,154.883 127.205,157.451 136.741 C 161.770 152.778,169.407 165.964,180.491 176.527 C 191.803 187.305,202.922 193.529,218.357 197.722 C 226.517 199.939,226.892 199.961,257.010 199.961 C 287.128 199.961,287.503 199.939,295.663 197.722 C 326.553 189.330,348.258 167.598,356.569 136.741 C 359.137 127.205,359.301 107.984,356.895 98.520 C 350.493 73.342,335.606 54.542,313.124 43.244 C 296.995 35.139,295.037 34.824,259.152 34.581 C 235.435 34.420,226.952 34.649,222.427 35.569 M238.163 85.242 L 238.163 98.520 217.602 98.520 C 206.293 98.520,197.041 98.300,197.041 98.031 C 197.041 96.397,202.250 89.165,206.455 84.960 C 214.098 77.318,225.279 72.162,234.522 72.019 L 238.163 71.963 238.163 85.242 M285.378 72.818 C 292.685 74.173,301.664 79.059,307.413 84.808 C 311.741 89.136,316.979 96.376,316.979 98.031 C 316.979 98.300,307.727 98.520,296.418 98.520 L 275.857 98.520 275.857 85.242 L 275.857 71.963 278.311 71.963 C 279.660 71.963,282.840 72.348,285.378 72.818 M238.163 149.547 L 238.163 162.878 234.093 162.339 C 218.853 160.321,205.717 151.847,198.827 139.589 L 196.931 136.215 217.547 136.215 L 238.163 136.215 238.163 149.547 M315.193 139.589 C 308.303 151.847,295.167 160.321,279.927 162.339 L 275.857 162.878 275.857 149.547 L 275.857 136.215 296.473 136.215 L 317.089 136.215 315.193 139.589 M106.231 227.025 L 106.231 245.873 257.010 245.873 L 407.789 245.873 407.789 227.025 L 407.789 208.178 257.010 208.178 L 106.231 208.178 106.231 227.025 M230.334 253.624 C 200.189 256.309,173.042 276.273,161.661 304.129 C 156.626 316.452,155.563 321.944,155.525 335.826 C 155.499 345.317,155.877 349.765,157.125 354.674 C 164.824 384.952,185.550 406.718,215.650 416.132 L 223.170 418.484 257.010 418.484 L 290.850 418.484 298.370 416.132 C 329.633 406.354,350.839 383.214,357.332 351.792 C 362.850 325.090,353.553 295.748,333.529 276.668 C 318.647 262.487,302.965 255.423,282.283 253.580 C 271.507 252.621,241.318 252.646,230.334 253.624 M238.163 304.129 L 238.163 316.979 217.547 316.979 L 196.931 316.979 198.914 313.422 C 205.678 301.287,221.270 291.361,233.665 291.300 L 238.163 291.278 238.163 304.129 M289.689 292.971 C 299.648 296.069,310.080 304.509,315.193 313.606 L 317.089 316.979 296.473 316.979 L 275.857 316.979 275.857 304.129 L 275.857 291.278 280.051 291.278 C 282.357 291.278,286.694 292.040,289.689 292.971 M238.163 368.381 L 238.163 381.231 234.916 381.231 C 230.079 381.231,222.254 378.958,216.460 375.870 C 210.729 372.816,201.927 364.348,198.943 359.019 L 196.990 355.531 217.576 355.531 L 238.163 355.531 238.163 368.381 M315.077 359.019 C 312.093 364.348,303.291 372.816,297.560 375.870 C 291.766 378.958,283.941 381.231,279.104 381.231 L 275.857 381.231 275.857 368.381 L 275.857 355.531 296.444 355.531 L 317.030 355.531 315.077 359.019 " stroke="none" fill-rule="evenodd" fill="black"></path></svg>