<svg width="136mm" height="120mm" version="1.1" viewBox="0 0 600 529.4117647058824" xmlns="http://www.w3.org/2000/svg"><path d="M113.038 104.732 L 112.991 164.058 95.473 129.148 C 85.839 109.947,77.567 94.237,77.092 94.237 C 76.618 94.237,68.908 97.901,59.961 102.380 L 43.692 110.523 62.543 148.216 L 81.393 185.910 96.801 178.196 C 105.276 173.954,112.406 170.483,112.647 170.483 C 112.888 170.483,113.084 180.502,113.084 192.748 L 113.084 215.013 77.317 215.236 L 41.550 215.460 41.319 234.093 L 41.088 252.727 73.590 252.727 L 106.092 252.727 81.865 325.394 L 57.639 398.062 75.473 403.962 C 85.282 407.206,93.464 409.684,93.655 409.468 C 93.846 409.251,102.569 383.341,113.038 351.890 C 123.508 320.438,132.203 294.705,132.360 294.705 C 132.517 294.705,141.212 320.438,151.682 351.890 C 162.152 383.341,170.877 409.254,171.071 409.473 C 171.562 410.029,206.465 398.373,206.465 397.654 C 206.465 397.332,195.670 364.691,182.477 325.118 C 169.284 285.544,158.489 253.067,158.489 252.946 C 158.489 252.825,172.946 252.727,190.616 252.727 L 222.742 252.727 222.742 233.879 L 222.742 215.032 187.189 215.032 L 151.636 215.032 151.636 192.757 C 151.636 180.507,151.833 170.483,152.073 170.483 C 152.314 170.483,159.444 173.954,167.919 178.196 L 183.327 185.910 202.178 148.216 L 221.028 110.523 204.109 102.035 L 187.189 93.546 169.459 128.802 L 151.729 164.058 151.683 104.732 L 151.636 45.405 132.360 45.405 L 113.084 45.405 113.038 104.732 M253.298 57.113 C 252.984 57.427,252.727 65.909,252.727 75.961 L 252.727 94.237 307.767 94.237 L 362.807 94.237 345.173 111.871 L 327.539 129.506 294.849 113.156 C 276.869 104.164,261.966 96.807,261.731 96.807 C 261.306 96.807,245.016 128.942,245.016 129.779 C 245.016 130.018,257.064 136.232,271.788 143.590 C 286.513 150.947,298.736 157.131,298.950 157.333 C 299.165 157.534,286.832 170.212,271.545 185.505 L 243.749 213.310 253.963 223.550 L 264.176 233.789 258.665 234.048 L 253.155 234.307 253.155 253.155 L 253.155 272.002 292.399 272.431 L 331.644 272.859 322.298 282.068 L 312.952 291.278 296.262 291.278 L 279.572 291.278 279.878 296.204 C 280.301 303.020,281.796 313.334,282.928 317.251 L 283.873 320.521 248.817 355.585 L 213.761 390.649 227.025 403.934 L 240.290 417.219 270.539 387.017 L 300.789 356.816 303.515 360.242 C 320.532 381.637,343.844 396.039,370.951 401.906 C 379.666 403.793,381.386 403.854,426.208 403.894 L 472.470 403.934 472.701 385.361 L 472.931 366.789 427.724 366.447 C 384.475 366.121,382.201 366.024,375.235 364.216 C 357.022 359.487,340.682 348.052,330.478 332.892 L 328.129 329.401 375.881 281.640 L 423.632 233.879 349.961 233.879 L 276.289 233.879 305.627 204.541 L 334.964 175.204 365.476 190.452 C 382.258 198.839,396.094 205.584,396.224 205.440 C 396.354 205.297,400.167 197.760,404.697 188.692 L 412.934 172.205 387.949 159.706 L 362.963 147.208 408.290 101.875 L 453.617 56.542 353.743 56.542 C 298.812 56.542,253.612 56.799,253.298 57.113 M377.807 309.695 L 364.544 322.979 383.377 341.827 L 402.210 360.675 415.491 347.393 L 428.773 334.112 409.922 315.261 L 391.071 296.410 377.807 309.695 " stroke="none" fill-rule="evenodd" fill="black"></path></svg>