<svg width="136mm" height="120mm" version="1.1" viewBox="0 0 600 529.4117647058824" xmlns="http://www.w3.org/2000/svg"><path d="M113.038 104.732 L 112.991 164.058 95.261 128.802 L 77.531 93.546 60.612 102.035 L 43.692 110.523 62.543 148.216 L 81.393 185.910 96.801 178.196 C 105.276 173.954,112.406 170.483,112.647 170.483 C 112.888 170.483,113.084 180.507,113.084 192.757 L 113.084 215.032 77.531 215.032 L 41.978 215.032 41.978 233.879 L 41.978 252.727 74.105 252.727 C 91.774 252.727,106.231 252.825,106.231 252.946 C 106.231 253.067,95.436 285.544,82.243 325.118 C 69.050 364.691,58.256 397.332,58.256 397.654 C 58.256 398.373,93.158 410.029,93.650 409.473 C 93.844 409.254,102.569 383.341,113.038 351.890 C 123.508 320.438,132.203 294.705,132.360 294.705 C 132.517 294.705,141.212 320.438,151.682 351.890 C 162.152 383.341,170.877 409.254,171.071 409.473 C 171.562 410.029,206.465 398.373,206.465 397.654 C 206.465 397.332,195.670 364.691,182.477 325.118 C 169.284 285.544,158.489 253.067,158.489 252.946 C 158.489 252.825,172.946 252.727,190.616 252.727 L 222.742 252.727 222.742 233.879 L 222.742 215.032 187.189 215.032 L 151.636 215.032 151.636 192.757 C 151.636 180.507,151.833 170.483,152.073 170.483 C 152.314 170.483,159.444 173.954,167.919 178.196 L 183.327 185.910 202.178 148.216 L 221.028 110.523 204.109 102.035 L 187.189 93.546 169.459 128.802 L 151.729 164.058 151.683 104.732 L 151.636 45.405 132.360 45.405 L 113.084 45.405 113.038 104.732 M253.298 57.113 C 252.984 57.427,252.727 65.909,252.727 75.961 L 252.727 94.237 307.767 94.237 L 362.807 94.237 345.173 111.871 L 327.539 129.506 294.849 113.156 C 276.869 104.164,261.966 96.807,261.731 96.807 C 261.306 96.807,245.016 128.942,245.016 129.779 C 245.016 130.018,257.064 136.232,271.788 143.590 C 286.513 150.947,298.736 157.131,298.950 157.333 C 299.165 157.534,286.832 170.212,271.545 185.505 L 243.749 213.310 253.963 223.550 L 264.176 233.789 258.665 234.048 L 253.155 234.307 253.155 253.155 L 253.155 272.002 292.399 272.431 L 331.644 272.859 322.298 282.068 L 312.952 291.278 296.108 291.278 L 279.264 291.278 279.669 294.491 C 279.892 296.258,280.299 300.402,280.574 303.700 C 280.850 306.998,281.649 312.188,282.351 315.232 L 283.627 320.767 248.694 355.708 L 213.761 390.649 227.025 403.934 L 240.290 417.219 270.556 387.017 L 300.822 356.816 303.108 359.814 C 314.876 375.248,335.124 390.252,352.846 396.671 C 371.773 403.527,379.827 404.312,431.563 404.340 L 472.042 404.362 472.042 385.576 L 472.042 366.789 427.279 366.447 C 384.483 366.120,382.198 366.022,375.272 364.215 C 356.825 359.404,340.632 348.108,330.331 332.868 L 328.042 329.481 375.837 281.680 L 423.632 233.879 349.961 233.879 L 276.289 233.879 305.627 204.541 L 334.964 175.204 365.383 190.406 L 395.801 205.608 404.121 188.943 C 408.696 179.777,412.261 172.110,412.042 171.904 C 411.823 171.699,400.691 166.058,387.304 159.369 L 362.963 147.208 408.290 101.875 L 453.617 56.542 353.743 56.542 C 298.812 56.542,253.612 56.799,253.298 57.113 M377.807 309.695 L 364.544 322.979 383.377 341.827 L 402.210 360.675 415.491 347.393 L 428.773 334.112 409.922 315.261 L 391.071 296.410 377.807 309.695 " stroke="none" fill-rule="evenodd" fill="black"></path></svg>