<svg width="136mm" height="120mm" version="1.1" viewBox="0 0 600 529.4117647058824" xmlns="http://www.w3.org/2000/svg"><path d="M238.163 84.813 L 238.163 131.932 213.536 131.932 L 188.909 131.932 150.347 93.377 L 111.785 54.822 98.521 68.107 L 85.257 81.391 110.517 106.662 L 135.776 131.932 94.446 131.932 L 53.115 131.932 53.115 151.208 L 53.115 170.483 132.146 170.499 L 211.177 170.516 144.300 237.272 L 77.424 304.028 90.754 317.358 L 104.084 330.688 180.547 254.228 L 257.010 177.769 333.477 254.232 L 409.943 330.695 423.210 317.407 L 436.476 304.120 369.667 237.306 L 302.857 170.493 378.240 170.274 L 453.623 170.055 453.623 151.208 L 453.623 132.360 415.942 132.137 L 378.262 131.913 403.512 106.652 L 428.763 81.391 415.499 68.107 L 402.235 54.822 363.673 93.377 L 325.111 131.932 300.484 131.932 L 275.857 131.932 275.857 84.813 L 275.857 37.695 257.010 37.695 L 238.163 37.695 238.163 84.813 M181.620 279.284 L 181.620 298.132 209.892 298.132 L 238.163 298.132 238.163 349.105 L 238.163 400.079 257.010 400.079 L 275.857 400.079 275.857 349.105 L 275.857 298.132 304.129 298.132 L 332.400 298.132 332.400 279.284 L 332.400 260.437 257.010 260.437 L 181.620 260.437 181.620 279.284 " stroke="none" fill-rule="evenodd" fill="black"></path></svg>