<svg width="136mm" height="120mm" version="1.1" viewBox="0 0 600 529.4117647058824" xmlns="http://www.w3.org/2000/svg"><path d="M238.163 84.813 L 238.163 131.932 213.536 131.932 L 188.909 131.932 150.347 93.377 L 111.785 54.822 98.521 68.107 L 85.257 81.391 110.517 106.662 L 135.776 131.932 94.446 131.932 L 53.115 131.932 53.115 150.779 L 53.115 169.627 131.932 169.627 C 175.281 169.627,210.748 169.915,210.748 170.267 C 210.748 170.619,180.777 200.880,144.146 237.514 L 77.544 304.120 90.810 317.407 L 104.077 330.695 180.543 254.232 L 257.010 177.769 333.477 254.232 L 409.943 330.695 423.210 317.407 L 436.476 304.120 369.874 237.514 C 333.243 200.880,303.272 170.619,303.272 170.267 C 303.272 169.915,337.004 169.627,378.233 169.627 L 453.194 169.627 453.194 150.779 L 453.194 131.932 415.719 131.932 L 378.244 131.932 403.503 106.662 L 428.763 81.391 415.499 68.107 L 402.235 54.822 363.673 93.377 L 325.111 131.932 300.484 131.932 L 275.857 131.932 275.857 84.813 L 275.857 37.695 257.010 37.695 L 238.163 37.695 238.163 84.813 M181.620 279.284 L 181.620 298.132 209.892 298.132 L 238.163 298.132 238.163 349.105 L 238.163 400.079 257.010 400.079 L 275.857 400.079 275.857 349.105 L 275.857 298.132 304.129 298.132 L 332.400 298.132 332.400 279.284 L 332.400 260.437 257.010 260.437 L 181.620 260.437 181.620 279.284 " stroke="none" fill-rule="evenodd" fill="black"></path></svg>