<svg width="136mm" height="120mm" version="1.1" viewBox="0 0 600 529.4117647058824" xmlns="http://www.w3.org/2000/svg"><path d="M239.019 43.251 C 199.758 51.085,169.354 83.006,163.587 122.446 C 162.045 132.994,162.961 149.154,165.703 159.754 C 166.918 164.455,169.827 172.220,172.167 177.010 C 184.635 202.537,206.355 220.140,234.673 227.668 C 241.882 229.584,244.585 229.848,257.010 229.848 C 269.435 229.848,272.138 229.584,279.347 227.668 C 307.718 220.126,329.362 202.585,341.853 177.010 C 352.086 156.059,354.104 130.264,347.219 108.393 C 336.623 74.728,308.894 49.744,274.991 43.313 C 266.453 41.693,246.993 41.659,239.019 43.251 M270.619 80.988 C 284.727 84.314,300.125 96.344,306.925 109.355 C 308.685 112.722,310.125 115.902,310.125 116.422 C 310.125 117.102,295.178 117.368,257.010 117.368 C 218.842 117.368,203.895 117.102,203.895 116.422 C 203.895 115.902,205.322 112.722,207.067 109.355 C 213.650 96.650,229.244 84.360,243.008 81.028 C 249.713 79.405,263.816 79.384,270.619 80.988 M310.125 155.600 C 310.125 157.259,304.407 167.321,301.087 171.504 C 291.243 183.903,272.881 192.757,257.010 192.757 C 241.139 192.757,222.777 183.903,212.933 171.504 C 209.613 167.321,203.895 157.259,203.895 155.600 C 203.895 155.305,227.797 155.063,257.010 155.063 C 286.223 155.063,310.125 155.305,310.125 155.600 M90.810 257.010 L 90.810 275.857 220.811 275.857 L 350.812 275.857 311.479 315.197 L 272.147 354.536 240.666 338.792 C 217.164 327.037,208.974 323.309,208.349 324.082 C 207.148 325.568,191.747 356.523,192.064 356.814 C 192.572 357.278,319.548 420.640,319.971 420.640 C 320.468 420.640,336.683 388.426,336.683 387.439 C 336.683 387.074,330.257 383.570,322.404 379.652 L 308.125 372.528 375.303 305.345 L 442.481 238.163 266.646 238.163 L 90.810 238.163 90.810 257.010 " stroke="none" fill-rule="evenodd" fill="black"></path></svg>