<svg width="136mm" height="120mm" version="1.1" viewBox="0 0 600 529.4117647058824" xmlns="http://www.w3.org/2000/svg"><path d="M237.673 43.685 C 218.755 47.779,203.562 56.122,189.798 69.976 C 178.062 81.789,170.448 95.241,165.577 112.771 C 163.437 120.471,163.229 122.519,163.238 135.787 C 163.246 147.849,163.565 151.602,165.093 157.633 C 174.273 193.865,201.964 220.679,238.244 228.465 C 248.040 230.567,265.980 230.567,275.776 228.465 C 312.056 220.679,339.747 193.865,348.927 157.633 C 350.455 151.602,350.774 147.849,350.782 135.787 C 350.791 122.519,350.583 120.471,348.443 112.771 C 343.504 94.994,335.883 81.651,323.729 69.497 C 311.680 57.448,296.111 48.554,279.828 44.419 C 269.420 41.776,248.202 41.406,237.673 43.685 M270.717 81.007 C 273.780 81.727,279.177 83.731,282.711 85.461 C 291.300 89.667,302.370 100.585,306.937 109.355 C 308.691 112.722,310.125 115.902,310.125 116.422 C 310.125 117.102,295.178 117.368,257.010 117.368 C 218.842 117.368,203.895 117.102,203.895 116.422 C 203.895 115.902,205.329 112.722,207.083 109.355 C 211.650 100.585,222.718 89.669,231.319 85.452 C 234.859 83.716,240.064 81.738,242.885 81.056 C 249.741 79.399,263.767 79.374,270.717 81.007 M309.672 156.990 C 308.379 161.372,302.012 170.791,296.859 175.944 C 290.149 182.655,283.607 186.734,274.564 189.849 C 268.633 191.891,266.346 192.213,257.438 192.256 C 245.303 192.315,237.852 190.434,228.548 184.960 C 218.739 179.189,206.839 165.436,204.348 156.990 L 203.779 155.063 257.010 155.063 L 310.241 155.063 309.672 156.990 M90.810 257.010 L 90.810 275.857 220.811 275.857 L 350.812 275.857 311.479 315.197 L 272.147 354.536 240.497 338.707 C 223.090 330.001,208.740 322.996,208.609 323.141 C 207.904 323.919,191.842 356.610,192.064 356.814 C 192.572 357.278,319.548 420.640,319.971 420.640 C 320.468 420.640,336.683 388.426,336.683 387.439 C 336.683 387.074,330.257 383.570,322.404 379.652 L 308.125 372.528 375.303 305.345 L 442.481 238.163 266.646 238.163 L 90.810 238.163 90.810 257.010 " stroke="none" fill-rule="evenodd" fill="black"></path></svg>