<svg width="136mm" height="120mm" version="1.1" viewBox="0 0 600 529.4117647058824" xmlns="http://www.w3.org/2000/svg"><path d="M237.673 43.733 C 199.841 51.685,171.247 81.118,164.022 119.547 C 162.071 129.926,162.630 148.345,165.192 158.061 C 175.249 196.202,204.345 222.946,242.519 229.137 C 281.208 235.412,320.781 215.999,339.626 181.501 C 347.164 167.702,350.478 155.539,351.031 139.642 C 351.499 126.170,350.113 116.368,346.101 104.790 C 337.125 78.886,315.943 57.260,290.079 47.594 C 274.918 41.929,253.698 40.365,237.673 43.733 M270.717 81.007 C 273.780 81.727,279.177 83.735,282.711 85.470 C 291.373 89.722,302.467 100.648,306.964 109.355 C 308.703 112.722,310.125 115.902,310.125 116.422 C 310.125 117.102,295.178 117.368,257.010 117.368 C 218.842 117.368,203.895 117.102,203.895 116.422 C 203.895 115.902,205.317 112.722,207.056 109.355 C 211.553 100.648,222.644 89.725,231.319 85.460 C 234.859 83.720,240.064 81.738,242.885 81.056 C 249.741 79.399,263.767 79.374,270.717 81.007 M310.125 155.954 C 310.125 156.443,309.302 158.467,308.295 160.451 C 301.117 174.593,287.961 185.817,273.287 190.320 C 268.168 191.890,264.859 192.291,257.010 192.291 C 249.161 192.291,245.852 191.890,240.733 190.320 C 226.059 185.817,212.903 174.593,205.725 160.451 C 204.718 158.467,203.895 156.443,203.895 155.954 C 203.895 155.346,220.814 155.063,257.010 155.063 C 293.206 155.063,310.125 155.346,310.125 155.954 M90.810 257.010 L 90.810 275.857 220.811 275.857 L 350.812 275.857 311.505 315.171 L 272.198 354.485 241.304 339.159 C 224.313 330.729,209.911 323.833,209.299 323.833 C 208.315 323.833,191.399 356.205,192.064 356.814 C 192.572 357.278,319.548 420.640,319.971 420.640 C 320.468 420.640,336.683 388.426,336.683 387.439 C 336.683 387.074,330.257 383.570,322.404 379.652 L 308.125 372.528 375.303 305.345 L 442.481 238.163 266.646 238.163 L 90.810 238.163 90.810 257.010 " stroke="none" fill-rule="evenodd" fill="black"></path></svg>