<svg width="136mm" height="120mm" version="1.1" viewBox="0 0 600 529.4117647058824" xmlns="http://www.w3.org/2000/svg"><path d="M106.231 67.668 L 106.231 86.503 134.288 86.729 L 162.345 86.955 162.563 166.413 L 162.782 245.871 233.024 210.747 L 303.266 175.624 294.926 158.918 C 290.340 149.730,286.291 142.212,285.930 142.212 C 285.570 142.212,266.387 151.657,243.303 163.201 C 220.219 174.745,201.137 184.191,200.900 184.191 C 200.662 184.191,200.468 162.216,200.468 135.359 L 200.468 86.527 234.506 86.527 L 268.545 86.527 259.785 95.316 L 251.026 104.106 319.126 172.202 L 387.227 240.299 400.718 226.808 L 414.209 213.317 350.818 149.922 L 287.427 86.527 347.608 86.527 L 407.789 86.527 407.789 67.679 L 407.789 48.832 257.010 48.832 L 106.231 48.832 106.231 67.668 M238.163 243.731 L 238.163 264.720 175.607 264.720 L 113.051 264.720 113.282 283.354 L 113.513 301.987 175.838 302.207 L 238.163 302.426 238.163 334.547 L 238.163 366.668 166.183 366.668 L 94.204 366.668 94.434 385.301 L 94.665 403.934 257.010 403.934 L 419.355 403.934 419.586 385.301 L 419.816 366.668 347.837 366.668 L 275.857 366.668 275.857 334.547 L 275.857 302.426 338.182 302.207 L 400.507 301.987 400.738 283.354 L 400.969 264.720 338.413 264.720 L 275.857 264.720 275.857 243.731 L 275.857 222.742 257.010 222.742 L 238.163 222.742 238.163 243.731 " stroke="none" fill-rule="evenodd" fill="black"></path></svg>