<svg width="136mm" height="120mm" version="1.1" viewBox="0 0 600 529.4117647058824" xmlns="http://www.w3.org/2000/svg"><path d="M105.759 49.923 C 105.527 50.525,105.443 59.104,105.570 68.986 L 105.802 86.955 134.288 87.181 L 162.773 87.406 162.773 166.641 L 162.773 245.875 233.020 210.750 L 303.266 175.624 294.926 158.918 C 290.340 149.730,286.291 142.212,285.930 142.212 C 285.570 142.212,266.387 151.657,243.303 163.201 C 220.219 174.745,201.137 184.191,200.900 184.191 C 200.662 184.191,200.468 162.409,200.468 135.787 L 200.468 87.383 234.077 87.383 L 267.687 87.383 259.356 95.745 L 251.026 104.106 319.127 172.203 L 387.227 240.299 400.718 226.808 L 414.209 213.317 351.252 150.356 L 288.296 87.395 348.257 87.175 L 408.218 86.955 408.218 68.108 L 408.218 49.260 257.198 49.044 C 135.214 48.869,106.098 49.038,105.759 49.923 M238.163 243.731 L 238.163 264.720 175.624 264.720 L 113.084 264.720 113.084 283.568 L 113.084 302.415 175.624 302.415 L 238.163 302.415 238.163 334.541 L 238.163 366.668 166.200 366.668 L 94.237 366.668 94.237 385.515 L 94.237 404.362 257.010 404.362 L 419.783 404.362 419.783 385.515 L 419.783 366.668 347.820 366.668 L 275.857 366.668 275.857 334.541 L 275.857 302.415 338.397 302.415 L 400.936 302.415 400.936 283.568 L 400.936 264.720 338.397 264.720 L 275.857 264.720 275.857 243.731 L 275.857 222.742 257.010 222.742 L 238.163 222.742 238.163 243.731 " stroke="none" fill-rule="evenodd" fill="black"></path></svg>