<svg width="136mm" height="120mm" version="1.1" viewBox="0 0 600 529.4117647058824" xmlns="http://www.w3.org/2000/svg"><path d="M170.563 71.373 C 170.180 72.404,165.482 86.448,160.121 102.583 L 150.375 131.917 103.673 132.139 L 56.971 132.360 56.740 150.993 L 56.509 169.627 96.790 169.627 C 128.522 169.627,137.072 169.855,137.072 170.701 C 137.072 171.292,121.073 219.769,101.519 278.427 C 81.965 337.086,65.966 385.530,65.966 386.082 C 65.966 387.368,100.159 398.804,101.059 397.819 C 101.430 397.413,109.544 373.564,119.091 344.822 C 128.639 316.079,136.566 292.427,136.707 292.260 C 136.849 292.093,198.961 312.621,274.733 337.879 C 350.505 363.136,412.762 383.802,413.080 383.802 C 413.796 383.802,425.446 348.897,424.894 348.408 C 424.674 348.214,362.812 327.522,287.423 302.425 C 212.033 277.329,150.018 256.492,149.612 256.121 C 149.206 255.750,155.310 236.137,163.176 212.537 L 177.480 169.627 222.813 169.627 L 268.147 169.627 268.147 150.779 L 268.147 131.932 229.076 131.932 C 198.179 131.932,190.086 131.708,190.398 130.861 C 195.150 117.940,206.460 81.913,205.918 81.420 C 205.512 81.050,197.547 78.216,188.219 75.122 C 171.410 69.548,171.251 69.514,170.563 71.373 M284.593 189.847 C 263.297 232.442,245.873 267.485,245.873 267.720 C 245.873 267.955,293.485 268.147,351.677 268.147 L 457.481 268.147 431.775 216.742 L 406.070 165.337 389.581 173.575 C 380.513 178.106,372.974 181.920,372.829 182.052 C 372.684 182.183,377.792 192.739,384.180 205.509 C 390.569 218.279,395.795 229.115,395.795 229.589 C 395.795 230.158,380.585 230.452,351.247 230.452 C 326.745 230.452,306.699 230.258,306.699 230.021 C 306.699 229.784,317.879 207.233,331.543 179.907 C 345.207 152.581,356.387 129.929,356.387 129.569 C 356.387 129.208,348.945 125.198,339.850 120.657 L 323.313 112.402 284.593 189.847 " stroke="none" fill-rule="evenodd" fill="black"></path></svg>