<svg width="136mm" height="120mm" version="1.1" viewBox="0 0 600 529.4117647058824" xmlns="http://www.w3.org/2000/svg"><path d="M170.563 71.373 C 170.180 72.404,165.481 86.452,160.119 102.590 L 150.370 131.932 103.440 131.932 L 56.509 131.932 56.740 150.993 L 56.971 170.055 97.021 170.278 C 119.049 170.400,137.072 170.787,137.072 171.138 C 137.072 171.489,121.073 219.769,101.519 278.427 C 81.965 337.086,65.966 385.530,65.966 386.082 C 65.966 387.368,100.159 398.804,101.059 397.819 C 101.430 397.413,109.544 373.564,119.091 344.822 C 128.639 316.079,136.566 292.427,136.707 292.260 C 136.849 292.093,198.961 312.621,274.733 337.879 C 350.505 363.136,412.762 383.802,413.080 383.802 C 413.796 383.802,425.446 348.897,424.894 348.408 C 424.674 348.214,362.812 327.522,287.423 302.425 C 212.033 277.329,150.018 256.492,149.612 256.121 C 149.206 255.750,155.213 236.426,162.962 213.179 L 177.051 170.912 222.599 170.690 L 268.147 170.468 268.147 151.200 L 268.147 131.932 229.076 131.932 C 198.179 131.932,190.086 131.708,190.398 130.861 C 195.150 117.940,206.460 81.913,205.918 81.420 C 205.512 81.050,197.547 78.216,188.219 75.122 C 171.410 69.548,171.251 69.514,170.563 71.373 M284.593 189.847 C 263.297 232.442,245.873 267.485,245.873 267.720 C 245.873 267.955,293.485 268.147,351.677 268.147 L 457.481 268.147 431.778 216.748 L 406.076 165.349 389.370 173.689 C 380.182 178.275,372.665 182.325,372.665 182.687 C 372.665 183.050,377.869 193.749,384.230 206.465 C 390.591 219.180,395.795 229.779,395.795 230.018 C 395.795 230.257,375.749 230.452,351.247 230.452 C 326.745 230.452,306.699 230.258,306.699 230.021 C 306.699 229.784,317.879 207.233,331.543 179.907 C 345.207 152.581,356.387 129.929,356.387 129.569 C 356.387 129.208,348.945 125.198,339.850 120.657 L 323.313 112.402 284.593 189.847 " stroke="none" fill-rule="evenodd" fill="black"></path></svg>