<svg width="136mm" height="120mm" version="1.1" viewBox="0 0 600 529.4117647058824" xmlns="http://www.w3.org/2000/svg"><path d="M122.723 142.637 L 73.680 240.727 90.645 249.217 L 107.609 257.707 129.402 214.095 L 151.194 170.483 243.511 170.483 L 335.828 170.483 298.039 246.087 C 277.254 287.669,260.141 321.809,260.009 321.954 C 259.876 322.098,239.753 312.207,215.290 299.974 L 170.811 277.731 162.463 294.454 C 157.871 303.651,154.232 311.283,154.375 311.414 C 155.059 312.039,357.326 412.929,357.895 412.929 C 358.255 412.929,362.265 405.487,366.806 396.391 L 375.062 379.852 334.394 359.523 C 312.026 348.342,293.849 338.902,294.001 338.546 C 294.152 338.189,317.311 291.974,345.464 235.845 C 373.618 179.716,396.652 133.373,396.652 132.862 C 396.652 132.198,364.330 131.932,283.566 131.932 L 170.479 131.932 188.093 96.713 C 197.780 77.343,205.588 61.387,205.443 61.256 C 205.091 60.937,172.276 44.548,171.989 44.548 C 171.866 44.548,149.696 88.688,122.723 142.637 " stroke="none" fill-rule="evenodd" fill="black"></path></svg>