<svg width="136mm" height="120mm" version="1.1" viewBox="0 0 600 529.4117647058824" xmlns="http://www.w3.org/2000/svg"><path d="M123.367 142.208 C 96.508 195.924,74.533 240.167,74.533 240.527 C 74.533 240.887,81.976 244.897,91.074 249.439 L 107.614 257.696 129.404 214.090 L 151.194 170.483 243.511 170.483 L 335.828 170.483 298.039 246.087 C 277.254 287.669,260.141 321.809,260.009 321.954 C 259.876 322.098,240.066 312.364,215.986 300.322 C 191.905 288.280,171.818 278.428,171.348 278.428 C 170.533 278.428,153.816 310.902,154.370 311.409 C 155.056 312.037,357.323 412.929,357.896 412.929 C 358.604 412.929,374.378 381.770,374.378 380.371 C 374.378 379.904,356.259 370.460,334.113 359.386 C 311.967 348.311,293.848 339.057,293.848 338.822 C 293.848 338.586,316.979 292.133,345.250 235.593 C 373.521 179.052,396.652 132.598,396.652 132.362 C 396.652 132.125,345.763 131.932,283.566 131.932 L 170.479 131.932 188.093 96.713 C 197.780 77.343,205.588 61.387,205.443 61.256 C 205.298 61.125,197.760 57.311,188.690 52.780 L 172.201 44.542 123.367 142.208 " stroke="none" fill-rule="evenodd" fill="black"></path></svg>