<svg width="136mm" height="120mm" version="1.1" viewBox="0 0 600 529.4117647058824" xmlns="http://www.w3.org/2000/svg"><path d="M139.642 96.362 L 139.642 125.078 124.650 125.078 C 116.404 125.078,109.658 124.777,109.658 124.409 C 109.658 124.041,111.971 116.824,114.798 108.373 C 117.625 99.921,119.938 92.926,119.938 92.828 C 119.938 92.279,84.811 81.103,84.395 81.519 C 84.118 81.796,75.480 107.252,65.199 138.088 L 46.505 194.155 64.005 199.965 C 73.630 203.160,81.768 205.518,82.088 205.203 C 82.409 204.889,85.788 195.310,89.596 183.917 L 96.521 163.201 118.082 162.972 L 139.642 162.744 139.642 174.543 L 139.642 186.342 110.095 274.972 C 93.845 323.719,80.834 363.859,81.182 364.171 C 81.530 364.484,89.140 367.158,98.092 370.114 C 107.045 373.069,114.811 375.648,115.350 375.846 C 115.974 376.075,124.027 353.116,137.481 312.752 C 149.114 277.853,158.761 249.300,158.918 249.300 C 159.075 249.300,168.701 277.791,180.308 312.614 L 201.413 375.929 219.274 369.968 L 237.136 364.007 207.665 275.602 L 178.194 187.198 178.194 174.986 L 178.194 162.773 213.747 162.773 L 249.300 162.773 249.300 143.926 L 249.300 125.078 213.758 125.078 L 178.217 125.078 177.991 96.593 L 177.765 68.108 158.704 67.877 L 139.642 67.647 139.642 96.362 M358.957 96.379 L 358.957 125.078 342.394 125.078 C 333.285 125.078,325.612 124.858,325.343 124.590 C 325.075 124.321,327.131 117.298,329.912 108.982 C 332.694 100.666,334.970 93.590,334.970 93.257 C 334.970 92.523,300.077 80.850,299.576 81.416 C 299.143 81.905,262.150 192.955,262.150 193.765 C 262.150 194.481,297.055 206.131,297.544 205.578 C 297.738 205.359,301.066 195.638,304.939 183.976 L 311.981 162.773 335.469 162.773 L 358.957 162.773 358.957 174.124 L 358.957 185.476 329.305 274.433 C 312.996 323.360,299.985 363.694,300.391 364.064 C 301.161 364.765,335.167 376.214,335.437 375.863 C 335.522 375.753,344.945 347.520,356.377 313.124 C 367.809 278.727,377.409 250.309,377.712 249.971 C 378.014 249.633,387.466 277.005,398.716 310.797 C 409.966 344.588,419.482 373.080,419.864 374.111 C 420.551 375.969,420.711 375.936,437.518 370.362 C 446.847 367.268,454.812 364.434,455.218 364.064 C 455.625 363.694,442.614 323.360,426.305 274.433 L 396.652 185.476 396.652 174.134 L 396.652 162.793 430.706 162.569 L 464.760 162.345 464.991 143.711 L 465.222 125.078 430.937 125.078 L 396.652 125.078 396.652 96.379 L 396.652 67.679 377.805 67.679 L 358.957 67.679 358.957 96.379 " stroke="none" fill-rule="evenodd" fill="black"></path></svg>