<svg width="136mm" height="120mm" version="1.1" viewBox="0 0 600 529.4117647058824" xmlns="http://www.w3.org/2000/svg"><path d="M139.642 96.379 L 139.642 125.078 124.650 125.078 C 116.404 125.078,109.658 124.777,109.658 124.409 C 109.658 124.041,111.966 116.839,114.787 108.406 C 117.608 99.972,119.824 93.002,119.713 92.915 C 118.242 91.777,84.478 81.397,83.989 81.933 C 83.618 82.339,75.113 107.345,65.090 137.500 C 55.067 167.656,46.724 192.720,46.550 193.197 C 46.181 194.211,81.224 206.051,82.088 205.203 C 82.409 204.889,85.788 195.310,89.596 183.917 L 96.521 163.201 118.082 162.972 L 139.642 162.744 139.642 174.543 L 139.642 186.342 110.095 274.972 C 93.845 323.719,80.834 363.858,81.182 364.170 C 81.889 364.803,115.879 376.179,116.122 375.863 C 116.207 375.753,125.630 347.520,137.062 313.124 C 148.494 278.727,158.094 250.309,158.396 249.971 C 158.699 249.633,168.150 277.005,179.400 310.797 C 190.650 344.588,200.167 373.080,200.548 374.111 C 201.235 375.966,201.430 375.923,219.189 369.996 L 237.136 364.007 207.236 274.317 L 177.337 184.628 177.337 173.701 L 177.337 162.773 213.318 162.773 L 249.300 162.773 249.300 143.935 L 249.300 125.097 213.532 124.873 L 177.765 124.650 177.540 96.165 L 177.314 67.679 158.478 67.679 L 139.642 67.679 139.642 96.379 M358.957 96.379 L 358.957 125.078 342.394 125.078 C 333.285 125.078,325.612 124.858,325.343 124.590 C 325.075 124.321,327.131 117.298,329.912 108.982 C 332.694 100.666,334.970 93.590,334.970 93.257 C 334.970 92.523,300.077 80.850,299.576 81.416 C 299.143 81.905,262.150 192.955,262.150 193.765 C 262.150 194.481,297.055 206.131,297.544 205.578 C 297.738 205.359,301.066 195.638,304.939 183.976 L 311.981 162.773 335.469 162.773 L 358.957 162.773 358.957 174.557 L 358.957 186.342 329.411 274.972 C 313.160 323.719,300.149 363.858,300.497 364.170 C 301.204 364.803,335.194 376.179,335.437 375.863 C 335.522 375.753,344.945 347.520,356.377 313.124 C 367.809 278.727,377.409 250.309,377.712 249.971 C 378.014 249.633,387.466 277.005,398.716 310.797 C 409.966 344.588,419.482 373.080,419.864 374.111 C 420.550 375.966,420.743 375.924,438.419 370.025 L 456.280 364.064 426.466 274.822 L 396.652 185.579 396.652 174.186 L 396.652 162.793 430.706 162.569 L 464.760 162.345 464.991 143.721 L 465.221 125.098 431.151 124.874 L 397.080 124.650 396.855 96.165 L 396.629 67.679 377.793 67.679 L 358.957 67.679 358.957 96.379 " stroke="none" fill-rule="evenodd" fill="black"></path></svg>