<svg width="136mm" height="120mm" version="1.1" viewBox="0 0 600 529.4117647058824" xmlns="http://www.w3.org/2000/svg"><path d="M238.163 165.771 L 238.163 293.848 235.752 293.848 C 232.407 293.848,215.172 291.532,206.901 289.971 C 169.114 282.838,138.639 266.959,128.021 248.871 L 125.507 244.588 125.273 175.409 L 125.039 106.231 105.783 106.231 L 86.527 106.231 86.549 170.269 C 86.561 205.490,86.936 238.058,87.382 242.642 C 88.378 252.881,92.158 263.504,97.853 272.072 C 103.189 280.097,116.243 292.575,126.080 299.053 C 151.705 315.926,192.074 328.387,230.238 331.204 L 238.163 331.789 238.163 373.644 L 238.163 415.500 257.010 415.500 L 275.857 415.500 275.857 373.644 L 275.857 331.789 283.782 331.204 C 321.946 328.387,362.315 315.926,387.940 299.053 C 397.777 292.575,410.831 280.097,416.167 272.072 C 421.862 263.504,425.642 252.881,426.638 242.642 C 427.084 238.058,427.459 205.490,427.471 170.269 L 427.493 106.231 408.237 106.231 L 388.981 106.231 388.747 175.409 L 388.513 244.588 385.999 248.871 C 375.381 266.959,344.906 282.838,307.119 289.971 C 298.848 291.532,281.613 293.848,278.268 293.848 L 275.857 293.848 275.857 165.771 L 275.857 37.695 257.010 37.695 L 238.163 37.695 238.163 165.771 " stroke="none" fill-rule="evenodd" fill="black"></path></svg>