<svg width="136mm" height="120mm" version="1.1" viewBox="0 0 600 529.4117647058824" xmlns="http://www.w3.org/2000/svg"><path d="M238.163 165.771 L 238.163 293.848 235.752 293.848 C 232.407 293.848,215.172 291.532,206.901 289.971 C 184.022 285.652,159.605 276.532,145.841 267.165 C 139.062 262.551,129.587 252.525,127.238 247.479 L 125.095 242.874 125.087 174.553 L 125.078 106.231 105.761 106.231 L 86.444 106.231 86.734 176.694 C 87.023 246.799,87.034 247.190,88.941 253.445 C 92.270 264.362,96.735 271.963,105.506 281.641 C 129.080 307.654,174.674 326.101,227.240 330.893 L 238.163 331.889 238.163 373.694 L 238.163 415.500 257.010 415.500 L 275.857 415.500 275.857 373.694 L 275.857 331.889 286.780 330.893 C 339.346 326.101,384.940 307.654,408.514 281.641 C 417.285 271.963,421.750 264.362,425.079 253.445 C 426.986 247.190,426.997 246.799,427.286 176.694 L 427.576 106.231 408.259 106.231 L 388.942 106.231 388.933 174.553 L 388.925 242.874 386.755 247.535 C 385.341 250.574,382.266 254.482,377.921 258.763 C 360.936 275.500,330.436 287.285,290.468 292.557 C 285.084 293.267,279.594 293.848,278.268 293.848 L 275.857 293.848 275.857 165.771 L 275.857 37.695 257.010 37.695 L 238.163 37.695 238.163 165.771 " stroke="none" fill-rule="evenodd" fill="black"></path></svg>