<svg width="136mm" height="120mm" version="1.1" viewBox="0 0 600 529.4117647058824" xmlns="http://www.w3.org/2000/svg"><path d="M238.163 165.771 L 238.163 293.848 236.209 293.848 C 232.933 293.848,214.166 291.373,206.893 289.982 C 168.763 282.689,136.918 265.933,127.417 248.162 L 125.507 244.588 125.078 175.195 L 124.650 105.802 106.017 105.572 L 87.383 105.341 87.383 175.470 C 87.383 242.303,87.462 245.907,89.062 252.160 C 93.668 270.173,106.298 285.972,126.981 299.595 C 152.089 316.133,191.354 328.132,230.238 331.149 L 238.163 331.764 238.163 373.632 L 238.163 415.500 257.010 415.500 L 275.857 415.500 275.857 373.632 L 275.857 331.764 283.782 331.173 C 296.349 330.236,313.818 327.420,326.963 324.212 C 381.485 310.908,417.511 284.048,425.332 250.869 C 426.411 246.293,426.613 234.485,426.624 175.393 L 426.637 105.341 408.003 105.572 L 389.370 105.802 388.942 175.195 L 388.513 244.588 386.603 248.162 C 377.086 265.962,345.321 282.677,307.127 289.982 C 299.854 291.373,281.087 293.848,277.811 293.848 L 275.857 293.848 275.857 165.771 L 275.857 37.695 257.010 37.695 L 238.163 37.695 238.163 165.771 " stroke="none" fill-rule="evenodd" fill="black"></path></svg>