<svg width="136mm" height="120mm" version="1.1" viewBox="0 0 600 529.4117647058824" xmlns="http://www.w3.org/2000/svg"><path d="M252.727 101.947 L 252.727 120.795 289.107 120.795 L 325.487 120.795 284.395 243.427 C 261.794 310.875,243.303 366.492,243.303 367.022 C 243.303 367.903,278.221 380.068,278.799 379.387 C 278.938 379.224,290.764 343.912,305.080 300.916 L 331.107 222.742 356.528 222.742 L 381.949 222.742 355.531 301.987 L 329.112 381.231 402.290 381.231 C 442.538 381.231,475.469 380.942,475.469 380.589 C 475.469 379.995,445.440 289.384,445.095 288.936 C 444.815 288.573,410.805 300.046,410.013 300.771 C 409.564 301.182,412.166 310.030,416.225 321.890 C 420.066 333.115,423.210 342.578,423.210 342.918 C 423.210 343.258,413.957 343.537,402.649 343.537 C 391.341 343.537,382.088 343.245,382.088 342.889 C 382.088 342.533,393.846 306.971,408.218 263.864 C 422.589 220.756,434.347 185.387,434.347 185.267 C 434.347 185.146,413.945 185.047,389.010 185.047 L 343.674 185.047 354.387 152.921 L 365.100 120.795 407.434 120.795 L 449.767 120.795 449.767 101.947 L 449.767 83.100 351.247 83.100 L 252.727 83.100 252.727 101.947 M60.540 94.808 C 60.226 95.122,59.969 103.604,59.969 113.656 L 59.969 131.932 92.455 131.932 L 124.940 131.932 112.943 167.913 L 100.945 203.895 80.457 203.895 L 59.969 203.895 59.969 222.742 L 59.969 241.589 74.105 241.589 C 81.879 241.589,88.211 241.879,88.176 242.232 C 88.140 242.585,83.032 257.910,76.824 276.286 L 65.538 309.697 57.168 309.942 L 48.799 310.188 49.029 328.790 L 49.260 347.392 139.856 347.610 L 230.452 347.828 230.452 328.977 L 230.452 310.125 200.468 310.125 C 176.927 310.125,170.483 309.893,170.483 309.046 C 170.483 308.453,175.431 293.128,181.478 274.992 L 192.473 242.018 207.608 241.784 L 222.742 241.550 222.742 222.722 L 222.742 203.895 214.175 203.895 C 209.463 203.895,205.608 203.602,205.608 203.244 C 205.608 202.887,213.704 178.314,223.599 148.637 C 233.494 118.961,241.589 94.581,241.589 94.459 C 241.589 93.941,61.059 94.289,60.540 94.808 M177.195 167.913 L 165.198 203.895 153.277 203.895 C 146.720 203.895,141.356 203.611,141.356 203.263 C 141.356 202.916,146.653 186.725,153.127 167.282 L 164.899 131.932 177.046 131.932 L 189.193 131.932 177.195 167.913 M152.428 242.232 C 152.393 242.585,147.285 257.910,141.077 276.286 L 129.790 309.697 118.010 309.935 C 108.825 310.121,106.231 309.930,106.231 309.066 C 106.231 308.227,125.911 248.323,128.047 242.660 C 128.344 241.874,131.642 241.589,140.472 241.589 C 147.083 241.589,152.464 241.879,152.428 242.232 " stroke="none" fill-rule="evenodd" fill="black"></path></svg>