<svg width="136mm" height="120mm" version="1.1" viewBox="0 0 600 529.4117647058824" xmlns="http://www.w3.org/2000/svg"><path d="M253.583 101.947 L 253.583 120.795 289.136 120.795 C 308.690 120.795,324.689 121.085,324.689 121.441 C 324.689 121.796,306.377 177.019,283.996 244.160 C 261.615 311.300,243.303 366.627,243.303 367.108 C 243.303 367.933,278.258 380.025,278.799 379.387 C 278.938 379.224,290.764 343.912,305.080 300.916 L 331.107 222.742 356.528 222.742 L 381.949 222.742 355.531 301.987 L 329.112 381.231 402.382 381.231 C 460.637 381.231,475.571 381.012,475.258 380.161 C 475.041 379.572,468.205 359.043,460.067 334.541 C 451.929 310.040,445.015 289.710,444.704 289.363 C 443.933 288.504,409.503 300.020,409.503 301.137 C 409.503 301.626,412.587 311.261,416.356 322.548 C 420.126 333.834,423.210 343.174,423.210 343.302 C 423.210 343.431,413.796 343.537,402.290 343.537 L 381.371 343.537 407.789 264.292 L 434.208 185.047 388.941 185.047 L 343.674 185.047 354.387 152.921 L 365.100 120.795 407.434 120.795 L 449.767 120.795 449.767 101.947 L 449.767 83.100 351.675 83.100 L 253.583 83.100 253.583 101.947 M60.826 113.084 L 60.826 131.932 93.380 131.932 C 111.285 131.932,125.935 132.216,125.935 132.563 C 125.935 132.910,120.638 149.102,114.163 168.544 L 102.391 203.895 81.608 203.895 L 60.826 203.895 60.826 222.742 L 60.826 241.589 75.321 241.589 L 89.816 241.589 77.818 277.571 L 65.821 313.552 57.755 313.552 L 49.689 313.552 49.689 332.400 L 49.689 351.247 140.070 351.247 L 230.452 351.247 230.452 332.400 L 230.452 313.552 199.553 313.552 C 170.514 313.552,168.683 313.462,169.134 312.053 C 169.398 311.228,174.757 295.133,181.043 276.286 L 192.473 242.018 207.608 241.784 L 222.742 241.550 222.742 222.722 L 222.742 203.895 214.175 203.895 C 209.463 203.895,205.608 203.602,205.608 203.244 C 205.608 202.887,213.704 178.314,223.599 148.637 C 233.494 118.961,241.589 94.581,241.589 94.459 C 241.589 94.337,200.918 94.237,151.208 94.237 L 60.826 94.237 60.826 113.084 M188.967 133.431 C 188.703 134.256,183.344 150.351,177.058 169.198 L 165.628 203.466 153.981 203.704 L 142.334 203.942 154.340 167.937 L 166.345 131.932 177.896 131.932 C 188.508 131.932,189.407 132.054,188.967 133.431 M152.428 242.660 C 152.392 243.249,147.092 259.345,140.648 278.428 L 128.933 313.124 117.582 313.363 C 111.339 313.494,106.231 313.307,106.231 312.946 C 106.231 312.585,111.528 296.382,118.003 276.940 L 129.775 241.589 141.134 241.589 C 149.684 241.589,152.477 241.854,152.428 242.660 " stroke="none" fill-rule="evenodd" fill="black"></path></svg>