<svg width="136mm" height="120mm" version="1.1" viewBox="0 0 600 529.4117647058824" xmlns="http://www.w3.org/2000/svg"><path d="M253.583 101.947 L 253.583 120.795 289.136 120.795 C 308.690 120.795,324.689 121.085,324.689 121.441 C 324.689 121.796,306.377 177.019,283.996 244.160 C 261.615 311.300,243.303 366.627,243.303 367.108 C 243.303 367.933,278.258 380.025,278.799 379.387 C 278.938 379.224,290.764 343.912,305.080 300.916 L 331.107 222.742 356.528 222.742 L 381.949 222.742 355.531 301.987 L 329.112 381.231 402.382 381.231 C 460.637 381.231,475.571 381.012,475.258 380.161 C 475.041 379.572,468.205 359.043,460.067 334.541 C 451.929 310.040,445.015 289.710,444.704 289.363 C 443.933 288.504,409.503 300.020,409.503 301.137 C 409.503 301.626,412.587 311.261,416.356 322.548 C 420.126 333.834,423.210 343.174,423.210 343.302 C 423.210 343.431,413.796 343.537,402.290 343.537 L 381.371 343.537 407.789 264.292 L 434.208 185.047 388.941 185.047 L 343.674 185.047 354.387 152.921 L 365.100 120.795 407.434 120.795 L 449.767 120.795 449.767 101.947 L 449.767 83.100 351.675 83.100 L 253.583 83.100 253.583 101.947 M60.826 113.084 L 60.826 131.932 93.010 131.932 C 123.273 131.932,125.165 132.021,124.714 133.431 C 124.450 134.256,119.091 150.351,112.804 169.198 L 101.374 203.466 81.100 203.696 L 60.826 203.926 60.826 222.758 L 60.826 241.589 74.533 241.589 C 82.072 241.589,88.240 241.882,88.240 242.240 C 88.240 242.598,83.293 257.730,77.246 275.866 L 66.253 308.840 57.971 309.086 L 49.689 309.331 49.689 328.575 L 49.689 347.820 140.070 347.820 L 230.452 347.820 230.452 328.544 L 230.452 309.269 200.468 309.269 C 183.976 309.269,170.483 308.976,170.483 308.618 C 170.483 308.260,175.431 293.128,181.478 274.992 L 192.473 242.018 207.608 241.784 L 222.742 241.550 222.742 222.722 L 222.742 203.895 214.175 203.895 C 209.463 203.895,205.608 203.602,205.608 203.244 C 205.608 202.887,213.704 178.314,223.599 148.637 C 233.494 118.961,241.589 94.581,241.589 94.459 C 241.589 94.337,200.918 94.237,151.208 94.237 L 60.826 94.237 60.826 113.084 M188.967 133.431 C 188.703 134.256,183.344 150.351,177.058 169.198 L 165.628 203.466 153.492 203.704 C 146.817 203.835,141.356 203.637,141.356 203.264 C 141.356 202.312,164.186 133.968,164.878 132.848 C 165.236 132.268,169.849 131.932,177.445 131.932 C 188.486 131.932,189.408 132.052,188.967 133.431 M152.493 242.240 C 152.493 242.598,147.545 257.730,141.498 275.866 L 130.503 308.840 118.367 309.078 C 111.692 309.209,106.231 309.010,106.231 308.637 C 106.231 308.091,126.585 246.537,128.047 242.660 C 128.344 241.874,131.642 241.589,140.472 241.589 C 147.083 241.589,152.493 241.882,152.493 242.240 " stroke="none" fill-rule="evenodd" fill="black"></path></svg>