<svg width="136mm" height="120mm" version="1.1" viewBox="0 0 600 529.4117647058824" xmlns="http://www.w3.org/2000/svg"><path d="M109.658 101.947 L 109.658 128.505 81.386 128.505 L 53.115 128.505 53.115 147.352 L 53.115 166.200 81.386 166.200 L 109.658 166.200 109.658 187.403 L 109.658 208.606 83.860 285.999 C 69.672 328.564,58.395 363.694,58.802 364.064 C 59.208 364.434,67.173 367.268,76.502 370.362 C 93.309 375.936,93.469 375.969,94.157 374.111 C 94.538 373.080,102.324 349.780,111.458 322.333 C 120.592 294.887,128.263 272.431,128.505 272.431 C 128.747 272.431,136.418 294.887,145.552 322.333 C 154.686 349.780,162.472 373.080,162.853 374.111 C 163.540 375.966,163.735 375.923,181.494 369.996 L 199.441 364.007 173.397 285.883 L 147.352 207.760 147.352 186.980 L 147.352 166.200 175.624 166.200 L 203.895 166.200 203.895 147.352 L 203.895 128.505 175.624 128.505 L 147.352 128.505 147.352 101.947 L 147.352 75.390 128.505 75.390 L 109.658 75.390 109.658 101.947 M208.178 94.237 L 208.178 113.084 228.739 113.084 L 249.300 113.084 249.300 145.211 L 249.300 177.337 228.739 177.337 L 208.178 177.337 208.178 196.184 L 208.178 215.032 260.865 215.032 L 313.552 215.032 313.552 260.026 L 313.552 305.020 309.911 303.176 C 296.608 296.437,284.137 280.239,281.094 265.749 C 280.570 263.252,280.141 253.518,280.141 244.117 L 280.141 227.025 260.865 227.025 L 241.589 227.025 241.604 240.519 C 241.630 263.520,243.399 274.647,249.375 289.374 C 259.390 314.055,281.484 334.419,307.328 342.790 L 313.526 344.797 313.753 368.797 L 313.981 392.797 332.614 393.028 L 351.247 393.259 351.247 369.839 L 351.247 346.420 357.849 344.864 C 388.676 337.596,413.917 315.254,424.821 285.582 C 429.296 273.403,430.161 267.626,430.669 246.515 L 431.138 227.025 412.309 227.025 L 393.479 227.025 392.962 244.802 C 392.604 257.127,392.019 264.137,391.054 267.661 C 387.930 279.076,380.851 289.855,371.566 297.335 C 366.698 301.257,357.823 306.091,353.495 307.177 L 351.247 307.741 351.247 261.386 L 351.247 215.032 406.076 215.032 L 460.905 215.032 460.905 196.184 L 460.905 177.337 440.344 177.337 L 419.783 177.337 419.783 145.211 L 419.783 113.084 440.344 113.084 L 460.905 113.084 460.905 94.237 L 460.905 75.390 334.541 75.390 L 208.178 75.390 208.178 94.237 M381.231 145.211 L 381.231 177.337 334.113 177.337 L 286.995 177.337 286.995 145.211 L 286.995 113.084 334.113 113.084 L 381.231 113.084 381.231 145.211 " stroke="none" fill-rule="evenodd" fill="black"></path></svg>