<svg width="136mm" height="120mm" version="1.1" viewBox="0 0 600 529.4117647058824" xmlns="http://www.w3.org/2000/svg"><path d="M109.658 101.947 L 109.658 128.505 81.386 128.505 L 53.115 128.505 53.115 147.352 L 53.115 166.200 81.386 166.200 L 109.658 166.200 109.658 187.532 L 109.658 208.863 83.650 286.447 L 57.643 364.031 75.553 370.009 C 93.276 375.923,93.470 375.966,94.157 374.111 C 94.538 373.080,102.324 349.780,111.458 322.333 C 120.592 294.887,128.263 272.431,128.505 272.431 C 128.747 272.431,136.418 294.887,145.552 322.333 C 154.686 349.780,162.472 373.080,162.853 374.111 C 163.540 375.966,163.733 375.924,181.419 370.021 L 199.290 364.057 173.321 286.417 L 147.352 208.777 147.352 187.489 L 147.352 166.200 175.624 166.200 L 203.895 166.200 203.895 147.352 L 203.895 128.505 175.624 128.505 L 147.352 128.505 147.352 101.947 L 147.352 75.390 128.505 75.390 L 109.658 75.390 109.658 101.947 M208.178 94.237 L 208.178 113.084 228.739 113.084 L 249.300 113.084 249.300 145.211 L 249.300 177.337 228.739 177.337 L 208.178 177.337 208.178 196.184 L 208.178 215.032 260.865 215.032 L 313.552 215.032 313.552 260.026 L 313.552 305.020 309.911 303.176 C 296.608 296.437,284.137 280.239,281.094 265.749 C 280.570 263.252,280.141 253.518,280.141 244.117 L 280.141 227.025 260.865 227.025 L 241.589 227.025 241.596 240.947 C 241.608 263.537,243.388 274.619,249.375 289.374 C 259.393 314.062,281.552 334.466,307.328 342.734 L 313.526 344.722 313.753 368.760 L 313.981 392.797 332.614 393.028 L 351.247 393.259 351.247 369.819 L 351.247 346.379 356.173 345.294 C 389.186 338.022,416.143 313.627,426.115 282.001 C 429.877 270.070,430.920 261.736,430.920 243.619 L 430.920 227.025 412.186 227.025 L 393.452 227.025 393.016 245.230 C 392.619 261.845,392.385 264.040,390.342 270.356 C 386.620 281.863,378.917 292.236,368.657 299.558 C 363.884 302.963,354.390 307.555,352.121 307.555 C 351.538 307.555,351.247 292.164,351.247 261.293 L 351.247 215.032 406.076 215.032 L 460.905 215.032 460.905 196.184 L 460.905 177.337 440.344 177.337 L 419.783 177.337 419.783 145.211 L 419.783 113.084 440.344 113.084 L 460.905 113.084 460.905 94.237 L 460.905 75.390 334.541 75.390 L 208.178 75.390 208.178 94.237 M381.231 145.211 L 381.231 177.337 334.113 177.337 L 286.995 177.337 286.995 145.211 L 286.995 113.084 334.113 113.084 L 381.231 113.084 381.231 145.211 " stroke="none" fill-rule="evenodd" fill="black"></path></svg>