<svg width="136mm" height="120mm" version="1.1" viewBox="0 0 600 529.4117647058824" xmlns="http://www.w3.org/2000/svg"><path d="M237.958 72.150 L 237.734 106.605 228.739 107.625 C 195.613 111.380,165.334 124.096,148.637 141.264 C 139.240 150.927,134.632 159.493,132.819 170.666 C 132.338 173.628,131.942 189.063,131.938 204.965 L 131.932 233.879 151.208 233.879 L 170.483 233.879 170.483 204.280 C 170.483 171.208,170.289 172.393,176.672 166.509 C 187.583 156.451,211.748 147.164,232.263 145.142 L 238.163 144.561 238.163 214.064 L 238.163 283.568 191.044 283.568 L 143.926 283.568 143.926 302.415 L 143.926 321.262 257.010 321.262 L 370.094 321.262 370.094 302.415 L 370.094 283.568 322.976 283.568 L 275.857 283.568 275.857 214.064 L 275.857 144.561 281.757 145.142 C 302.215 147.158,326.439 156.482,337.391 166.556 C 343.724 172.381,343.537 171.232,343.537 204.280 L 343.537 233.879 362.812 233.879 L 382.088 233.879 382.082 204.965 C 382.075 175.083,381.560 168.576,378.572 160.588 C 368.786 134.434,330.616 112.764,285.281 107.625 L 276.286 106.605 276.062 72.150 L 275.838 37.695 257.010 37.695 L 238.182 37.695 237.958 72.150 M74.440 151.437 L 57.642 157.092 76.336 213.158 C 86.617 243.995,95.256 269.451,95.532 269.728 C 96.141 270.337,131.075 258.834,131.075 258.024 C 131.075 257.710,122.692 232.295,112.447 201.546 C 98.582 159.937,93.489 145.657,92.529 145.710 C 91.819 145.750,83.679 148.326,74.440 151.437 M401.573 201.546 C 391.328 232.295,382.945 257.710,382.945 258.024 C 382.945 258.834,417.879 270.337,418.488 269.728 C 418.764 269.451,427.403 243.995,437.684 213.159 L 456.378 157.092 439.129 151.366 C 429.642 148.216,421.502 145.639,421.041 145.639 C 420.579 145.639,411.819 170.797,401.573 201.546 M86.527 377.805 L 86.527 396.652 257.010 396.652 L 427.493 396.652 427.493 377.805 L 427.493 358.957 257.010 358.957 L 86.527 358.957 86.527 377.805 " stroke="none" fill-rule="evenodd" fill="black"></path></svg>