<svg width="136mm" height="120mm" version="1.1" viewBox="0 0 600 529.4117647058824" xmlns="http://www.w3.org/2000/svg"><path d="M277.573 89.950 L 247.588 149.915 264.555 158.407 L 281.523 166.899 297.743 134.423 L 313.963 101.947 336.509 101.947 L 359.056 101.947 358.669 186.546 C 358.319 263.052,357.882 279.788,356.189 281.481 C 355.209 282.461,346.181 275.780,341.509 270.618 C 338.990 267.835,335.724 263.152,334.251 260.213 C 329.083 249.898,328.973 248.715,328.973 203.715 L 328.973 162.773 310.083 162.773 L 291.194 162.773 291.504 207.964 C 291.806 251.795,291.873 253.361,293.750 260.008 C 296.219 268.750,302.175 281.389,307.014 288.152 C 315.386 299.852,330.318 312.013,342.838 317.328 L 348.565 319.758 346.405 325.865 C 343.262 334.752,335.727 350.222,331.480 356.507 C 323.921 367.692,313.796 375.860,305.580 377.402 L 302.415 377.995 302.415 396.847 L 302.415 415.699 308.198 415.099 C 339.114 411.891,367.168 382.356,382.330 337.054 C 384.391 330.897,386.325 325.458,386.628 324.967 C 386.932 324.476,389.297 323.825,391.883 323.521 C 398.971 322.688,409.896 318.996,418.308 314.591 C 439.558 303.463,454.422 284.959,461.904 260.319 C 463.764 254.192,463.827 252.707,464.123 208.392 L 464.427 162.773 445.532 162.773 L 426.637 162.773 426.626 204.109 C 426.615 249.351,426.571 249.830,421.447 260.239 C 416.840 269.597,404.231 281.210,396.601 283.122 L 394.409 283.671 395.194 278.694 C 395.625 275.956,396.152 235.068,396.364 187.831 L 396.749 101.947 432.682 101.947 L 468.615 101.947 468.615 83.100 L 468.615 64.252 400.936 64.252 C 363.712 64.252,333.256 64.053,333.256 63.809 C 333.256 63.564,335.186 59.519,337.544 54.820 L 341.832 46.275 325.559 38.130 C 316.609 33.650,308.897 29.985,308.422 29.985 C 307.947 29.985,294.064 56.969,277.573 89.950 M56.542 113.084 L 56.542 131.932 92.524 131.932 L 128.505 131.932 128.505 169.617 L 128.505 207.303 92.738 207.526 L 56.971 207.750 56.971 226.597 L 56.971 245.445 92.738 245.668 L 128.505 245.892 128.505 311.848 L 128.505 377.805 147.352 377.805 L 166.200 377.805 166.200 311.839 L 166.200 245.873 202.181 245.873 L 238.163 245.873 238.163 226.597 L 238.163 207.321 202.181 207.321 L 166.200 207.321 166.200 169.627 L 166.200 131.932 202.181 131.932 L 238.163 131.932 238.163 113.084 L 238.163 94.237 147.352 94.237 L 56.542 94.237 56.542 113.084 " stroke="none" fill-rule="evenodd" fill="black"></path></svg>