<svg width="136mm" height="120mm" version="1.1" viewBox="0 0 600 529.4117647058824" xmlns="http://www.w3.org/2000/svg"><path d="M277.608 89.879 C 255.297 134.497,247.923 149.986,248.693 150.609 C 249.625 151.362,280.654 167.056,281.212 167.056 C 281.339 167.057,288.761 152.407,297.703 134.502 L 313.963 101.947 336.509 101.947 L 359.056 101.947 358.669 186.546 C 358.319 263.052,357.882 279.788,356.189 281.481 C 355.257 282.413,346.352 275.937,341.962 271.135 C 337.060 265.771,333.859 260.557,331.292 253.756 C 329.510 249.034,329.439 247.440,329.167 205.822 L 328.885 162.773 310.033 162.773 L 291.181 162.773 291.504 207.964 C 291.809 250.665,291.925 253.485,293.604 259.152 C 299.038 277.491,305.869 288.876,318.795 301.130 C 326.319 308.264,332.668 312.596,341.823 316.844 L 348.576 319.977 345.327 328.544 C 334.569 356.913,320.035 374.632,305.199 377.464 L 302.415 377.995 302.415 396.866 L 302.415 415.736 307.964 415.168 C 332.418 412.662,354.469 394.719,370.860 363.989 C 375.603 355.097,381.679 340.415,384.532 330.956 C 386.504 324.415,386.531 324.391,393.225 323.370 C 399.818 322.364,410.472 318.677,418.077 314.768 C 443.317 301.797,461.116 275.769,464.313 247.158 C 464.786 242.917,465.177 222.196,465.181 201.110 L 465.188 162.773 445.912 162.773 L 426.637 162.773 426.637 204.143 C 426.637 249.563,426.559 250.401,421.389 260.657 C 417.986 267.408,407.504 277.977,400.772 281.444 C 398.091 282.825,395.667 283.725,395.386 283.444 C 395.105 283.163,395.275 278.008,395.763 271.989 C 396.292 265.476,396.652 228.832,396.652 181.496 L 396.652 101.947 432.634 101.947 L 468.615 101.947 468.615 83.100 L 468.615 64.252 400.936 64.252 C 363.712 64.252,333.256 64.053,333.256 63.809 C 333.256 63.564,335.186 59.519,337.544 54.820 L 341.832 46.275 325.559 38.130 C 316.609 33.650,308.897 29.985,308.422 29.985 C 307.947 29.985,294.080 56.937,277.608 89.879 M56.542 113.084 L 56.542 131.932 92.524 131.932 L 128.505 131.932 128.505 170.055 L 128.505 208.178 92.507 208.178 L 56.509 208.178 56.740 226.811 L 56.971 245.445 92.738 245.668 L 128.505 245.892 128.505 311.848 L 128.505 377.805 147.352 377.805 L 166.200 377.805 166.200 311.839 L 166.200 245.873 202.181 245.873 L 238.163 245.873 238.163 227.025 L 238.163 208.178 202.181 208.178 L 166.200 208.178 166.200 170.055 L 166.200 131.932 202.181 131.932 L 238.163 131.932 238.163 113.084 L 238.163 94.237 147.352 94.237 L 56.542 94.237 56.542 113.084 " stroke="none" fill-rule="evenodd" fill="black"></path></svg>