<svg width="136mm" height="120mm" version="1.1" viewBox="0 0 600 529.4117647058824" xmlns="http://www.w3.org/2000/svg"><path d="M277.608 89.879 C 255.297 134.497,247.923 149.986,248.693 150.609 C 249.625 151.362,280.654 167.056,281.212 167.056 C 281.339 167.057,288.761 152.407,297.703 134.502 L 313.963 101.947 336.513 101.947 L 359.063 101.947 358.676 186.118 C 358.321 263.065,357.860 279.810,356.046 281.625 C 355.114 282.556,346.079 275.667,341.268 270.358 C 335.797 264.319,331.211 255.332,329.894 248.071 C 329.322 244.916,328.973 227.779,328.973 202.881 L 328.973 162.773 310.125 162.773 L 291.278 162.773 291.278 205.216 C 291.278 240.672,291.502 248.746,292.640 254.262 C 298.299 281.695,314.936 303.394,339.771 315.736 L 348.475 320.061 345.271 328.586 C 339.488 343.972,333.020 355.487,325.007 364.662 C 319.412 371.067,313.894 374.853,307.342 376.783 L 302.417 378.233 302.416 396.985 L 302.415 415.736 308.030 415.161 C 316.069 414.337,325.771 411.022,333.685 406.395 C 342.445 401.272,355.779 387.991,362.972 377.223 C 369.980 366.732,377.665 350.762,382.325 337.009 C 384.419 330.827,386.368 325.388,386.656 324.922 C 386.944 324.456,389.297 323.825,391.883 323.521 C 397.947 322.809,409.378 319.196,415.928 315.922 C 434.632 306.572,450.093 290.180,457.757 271.574 C 464.347 255.575,465.186 247.373,465.187 198.969 L 465.188 162.773 445.912 162.773 L 426.637 162.773 426.624 203.680 C 426.610 248.847,426.407 251.014,421.290 260.785 C 417.509 268.003,407.181 278.226,400.152 281.707 C 397.130 283.204,394.576 284.331,394.477 284.212 C 394.378 284.093,394.680 281.876,395.148 279.284 C 395.657 276.465,396.150 239.903,396.374 188.260 L 396.749 101.947 432.682 101.947 L 468.615 101.947 468.615 83.100 L 468.615 64.252 400.936 64.252 C 363.712 64.252,333.256 64.053,333.256 63.809 C 333.256 63.564,335.186 59.519,337.544 54.820 L 341.832 46.275 325.559 38.130 C 316.609 33.650,308.897 29.985,308.422 29.985 C 307.947 29.985,294.080 56.937,277.608 89.879 M56.542 113.084 L 56.542 131.932 92.524 131.932 L 128.505 131.932 128.505 170.055 L 128.505 208.178 92.507 208.178 L 56.509 208.178 56.740 226.811 L 56.971 245.445 92.738 245.668 L 128.505 245.892 128.505 311.848 L 128.505 377.805 147.352 377.805 L 166.200 377.805 166.200 311.839 L 166.200 245.873 202.181 245.873 L 238.163 245.873 238.163 227.035 L 238.163 208.197 202.395 207.973 L 166.628 207.750 166.405 169.841 L 166.182 131.932 202.172 131.932 L 238.163 131.932 238.163 113.084 L 238.163 94.237 147.352 94.237 L 56.542 94.237 56.542 113.084 " stroke="none" fill-rule="evenodd" fill="black"></path></svg>