<svg width="136mm" height="120mm" version="1.1" viewBox="0 0 600 529.4117647058824" xmlns="http://www.w3.org/2000/svg"><path d="M245.597 38.630 C 226.889 40.606,206.783 50.036,192.090 63.726 C 180.343 74.671,170.198 91.689,165.728 107.944 C 162.679 119.034,161.906 137.399,164.018 148.600 C 167.799 168.652,176.359 184.826,190.770 199.144 C 208.691 216.948,231.494 226.295,257.010 226.295 C 282.526 226.295,305.329 216.948,323.250 199.144 C 337.833 184.654,346.584 167.957,350.054 147.998 C 351.916 137.289,351.338 119.648,348.808 109.990 C 338.469 70.521,306.832 42.872,267.110 38.591 C 257.878 37.596,255.344 37.601,245.597 38.630 M272.728 77.692 C 296.800 84.804,313.522 107.039,313.522 131.932 C 313.522 147.443,308.039 160.625,296.941 171.797 C 285.098 183.717,273.709 188.474,257.010 188.474 C 240.311 188.474,228.922 183.717,217.079 171.797 C 208.973 163.637,203.857 154.395,201.652 143.926 C 199.907 135.640,200.487 122.557,202.943 114.798 C 209.072 95.437,228.259 78.979,247.885 76.247 C 254.672 75.302,267.083 76.024,272.728 77.692 M128.505 253.155 C 128.505 282.133,128.179 305.842,127.781 305.842 C 125.979 305.842,115.869 298.433,111.646 294.017 C 106.277 288.403,100.657 277.778,99.372 270.814 C 98.904 268.276,98.520 257.386,98.520 246.613 L 98.520 227.025 79.245 227.025 L 59.969 227.025 59.976 242.232 C 59.989 269.291,62.094 282.776,68.513 296.933 C 78.838 319.705,100.678 338.090,124.864 344.371 L 128.505 345.316 128.505 378.694 L 128.505 412.073 147.352 412.073 L 166.200 412.073 166.200 378.818 L 166.200 345.564 172.683 343.575 C 198.500 335.653,219.738 315.742,228.672 291.082 C 233.385 278.073,234.736 267.409,234.736 243.212 L 234.736 227.025 215.523 227.025 L 196.310 227.025 196.013 249.514 C 195.738 270.251,195.566 272.402,193.804 277.142 C 191.246 284.025,184.960 293.068,179.583 297.606 C 175.485 301.063,168.049 305.842,166.767 305.842 C 166.455 305.842,166.200 282.133,166.200 253.155 L 166.200 200.468 147.352 200.468 L 128.505 200.468 128.505 253.155 M347.820 253.155 C 347.820 282.133,347.565 305.842,347.253 305.842 C 345.971 305.842,338.535 301.063,334.437 297.606 C 329.060 293.068,322.774 284.025,320.216 277.142 C 318.454 272.402,318.282 270.251,318.007 249.514 L 317.710 227.025 298.381 227.025 L 279.053 227.025 279.569 249.086 C 280.125 272.840,280.602 276.896,284.081 287.423 C 293.055 314.582,314.096 335.217,341.337 343.575 L 347.820 345.564 347.820 378.818 L 347.820 412.073 366.668 412.073 L 385.515 412.073 385.515 378.776 L 385.515 345.479 393.868 342.815 C 420.694 334.257,442.243 311.766,450.187 284.034 C 452.838 274.778,454.019 261.825,454.037 241.804 L 454.051 227.025 434.775 227.025 L 415.500 227.025 415.487 246.944 C 415.477 261.664,415.137 268.292,414.182 272.342 C 411.420 284.063,403.217 295.336,392.334 302.370 C 389.380 304.280,386.637 305.842,386.239 305.842 C 385.841 305.842,385.515 282.133,385.515 253.155 L 385.515 200.468 366.668 200.468 L 347.820 200.468 347.820 253.155 " stroke="none" fill-rule="evenodd" fill="black"></path></svg>