<svg width="136mm" height="120mm" version="1.1" viewBox="0 0 600 529.4117647058824" xmlns="http://www.w3.org/2000/svg"><path d="M238.039 62.104 C 187.039 70.690,147.066 114.915,144.145 165.986 L 143.692 173.910 121.106 173.910 L 98.520 173.910 98.520 192.760 L 98.520 211.609 258.938 211.393 L 419.355 211.177 419.586 192.543 L 419.816 173.910 395.072 173.910 L 370.328 173.910 369.875 165.986 C 369.307 156.057,367.375 146.763,363.619 135.885 C 350.493 97.876,315.540 68.589,275.568 62.106 C 266.110 60.572,247.146 60.571,238.039 62.104 M276.286 100.682 C 282.676 102.433,294.085 107.711,299.565 111.450 C 317.742 123.853,330.258 145.273,332.077 167.094 L 332.646 173.910 257.010 173.910 L 181.374 173.910 181.943 167.094 C 183.762 145.273,196.278 123.853,214.455 111.450 C 222.687 105.832,235.699 100.637,245.445 99.076 C 250.788 98.221,271.178 99.282,276.286 100.682 M109.658 245.873 L 109.658 264.720 135.573 264.770 L 161.488 264.819 150.137 270.538 C 143.893 273.683,138.785 276.554,138.785 276.917 C 138.785 277.281,147.075 294.154,157.206 314.413 L 175.627 351.247 142.642 351.247 L 109.658 351.247 109.658 370.094 L 109.658 388.942 260.865 388.942 L 412.073 388.942 412.073 370.094 L 412.073 351.247 378.231 351.247 L 344.390 351.247 363.667 312.699 C 374.270 291.498,382.945 273.761,382.945 273.285 C 382.945 272.808,379.645 270.782,375.613 268.783 L 368.280 265.149 389.962 264.720 L 411.644 264.292 411.875 245.659 L 412.106 227.025 260.882 227.025 L 109.658 227.025 109.658 245.873 M221.672 270.768 L 209.893 276.725 228.311 313.554 C 238.441 333.810,246.730 350.577,246.730 350.815 C 246.730 351.052,231.213 351.225,212.247 351.198 L 177.765 351.149 193.400 343.284 C 201.999 338.959,209.035 335.124,209.035 334.762 C 209.035 334.401,201.325 318.688,191.901 299.845 C 182.477 281.002,174.767 265.391,174.767 265.153 C 174.767 264.915,187.971 264.740,204.109 264.765 L 233.451 264.810 221.672 270.768 M323.621 307.984 L 301.995 351.247 275.861 351.198 L 249.728 351.149 265.363 343.284 C 273.962 338.959,280.998 335.124,280.998 334.762 C 280.998 334.401,273.287 318.688,263.864 299.845 C 254.440 281.002,246.730 265.391,246.730 265.153 C 246.730 264.915,268.896 264.720,295.989 264.720 L 345.248 264.720 323.621 307.984 " stroke="none" fill-rule="evenodd" fill="black"></path></svg>