<svg width="136mm" height="120mm" version="1.1" viewBox="0 0 600 529.4117647058824" xmlns="http://www.w3.org/2000/svg"><path d="M237.389 62.207 C 223.300 64.567,206.262 71.455,193.443 79.971 C 182.992 86.914,169.992 99.911,163.071 110.339 C 151.703 127.466,143.940 151.074,143.929 168.556 L 143.926 173.910 121.223 173.910 L 98.520 173.910 98.520 192.757 L 98.520 211.605 259.152 211.605 L 419.783 211.605 419.783 192.757 L 419.783 173.910 394.939 173.910 L 370.094 173.910 370.091 168.556 C 370.081 152.615,363.740 131.611,353.992 115.226 C 343.647 97.838,326.198 81.780,307.316 72.271 C 298.955 68.060,285.387 63.696,275.857 62.152 C 265.861 60.531,247.225 60.558,237.389 62.207 M276.286 100.682 C 282.676 102.433,294.085 107.711,299.565 111.450 C 309.388 118.152,319.169 129.393,324.468 140.070 C 329.082 149.366,332.400 161.973,332.400 170.212 L 332.400 173.910 257.010 173.910 L 181.620 173.910 181.632 169.841 C 181.664 158.238,187.714 140.996,195.640 129.924 C 199.979 123.863,208.443 115.552,214.455 111.450 C 222.687 105.832,235.699 100.637,245.445 99.076 C 250.788 98.221,271.178 99.282,276.286 100.682 M109.658 245.873 L 109.658 264.720 135.573 264.765 L 161.488 264.810 149.709 270.768 L 137.930 276.725 156.349 313.554 C 166.479 333.810,174.767 350.577,174.767 350.815 C 174.767 351.052,160.117 351.247,142.212 351.247 L 109.658 351.247 109.658 370.094 L 109.658 388.942 260.865 388.942 L 412.073 388.942 412.073 370.094 L 412.073 351.247 378.231 351.247 L 344.390 351.247 363.667 312.699 C 374.270 291.498,382.945 273.768,382.945 273.300 C 382.945 272.832,379.572 270.730,375.449 268.628 L 367.953 264.807 390.013 264.764 L 412.073 264.720 412.073 245.873 L 412.073 227.025 260.865 227.025 L 109.658 227.025 109.658 245.873 M221.672 270.768 L 209.893 276.725 228.311 313.554 C 238.441 333.810,246.730 350.577,246.730 350.815 C 246.730 351.052,231.213 351.225,212.247 351.198 L 177.765 351.149 193.400 343.284 C 201.999 338.959,209.035 335.124,209.035 334.762 C 209.035 334.401,201.325 318.688,191.901 299.845 C 182.477 281.002,174.767 265.391,174.767 265.153 C 174.767 264.915,187.971 264.740,204.109 264.765 L 233.451 264.810 221.672 270.768 M323.621 307.984 L 301.995 351.247 275.861 351.198 L 249.728 351.149 265.363 343.284 C 273.962 338.959,280.998 335.124,280.998 334.762 C 280.998 334.401,273.287 318.688,263.864 299.845 C 254.440 281.002,246.730 265.391,246.730 265.153 C 246.730 264.915,268.896 264.720,295.989 264.720 L 345.248 264.720 323.621 307.984 " stroke="none" fill-rule="evenodd" fill="black"></path></svg>