<svg width="136mm" height="120mm" version="1.1" viewBox="0 0 600 529.4117647058824" xmlns="http://www.w3.org/2000/svg"><path d="M75.587 79.459 L 75.818 98.092 156.990 98.311 L 238.163 98.529 238.163 200.112 L 238.163 301.695 232.380 301.127 C 182.555 296.230,141.494 278.925,128.505 257.347 L 125.507 252.366 125.270 192.149 L 125.034 131.932 106.209 131.932 L 87.383 131.932 87.383 192.620 C 87.383 249.791,87.479 253.684,89.038 259.780 C 92.236 272.284,99.090 283.244,110.623 294.298 C 135.570 318.209,179.625 334.457,231.523 338.888 L 238.163 339.455 238.163 377.477 L 238.163 415.500 257.010 415.500 L 275.857 415.500 275.857 377.466 L 275.857 339.432 282.925 338.854 C 305.260 337.028,333.606 331.120,351.637 324.533 C 391.765 309.875,418.121 286.606,424.982 259.780 C 426.541 253.684,426.637 249.791,426.637 192.620 L 426.637 131.932 407.811 131.932 L 388.986 131.932 388.750 192.149 L 388.513 252.366 385.515 257.347 C 373.188 277.824,335.283 294.633,288.733 300.266 C 282.858 300.977,277.557 301.558,276.954 301.558 C 276.069 301.558,275.857 281.947,275.857 200.044 L 275.857 98.529 357.030 98.311 L 438.202 98.092 438.433 79.459 L 438.664 60.826 257.010 60.826 L 75.356 60.826 75.587 79.459 " stroke="none" fill-rule="evenodd" fill="black"></path></svg>