<svg width="136mm" height="120mm" version="1.1" viewBox="0 0 600 529.4117647058824" xmlns="http://www.w3.org/2000/svg"><path d="M75.587 79.459 L 75.818 98.092 156.990 98.311 L 238.163 98.529 238.163 200.044 C 238.163 280.948,237.944 301.558,237.086 301.558 C 234.240 301.558,213.819 298.870,207.750 297.696 C 183.558 293.016,160.475 284.459,146.384 274.947 C 139.306 270.169,130.165 261.042,127.560 256.153 L 125.507 252.298 125.078 192.329 L 124.650 132.360 105.802 132.360 L 86.955 132.360 86.726 188.046 C 86.596 219.601,86.853 246.954,87.319 251.169 C 89.074 267.056,95.124 278.658,108.709 292.191 C 120.748 304.183,131.991 311.658,149.727 319.463 C 171.340 328.974,198.933 335.744,227.240 338.480 L 238.163 339.536 238.163 377.518 L 238.163 415.500 257.010 415.500 L 275.857 415.500 275.857 377.518 L 275.857 339.536 286.780 338.480 C 315.087 335.744,342.680 328.974,364.293 319.463 C 382.029 311.658,393.272 304.183,405.311 292.191 C 418.821 278.733,424.959 266.939,426.712 251.069 C 427.164 246.979,427.422 219.086,427.294 188.046 L 427.065 132.360 408.218 132.360 L 389.370 132.360 388.942 192.363 L 388.513 252.366 385.515 257.347 C 374.916 274.953,344.940 290.216,306.270 297.696 C 300.201 298.870,279.780 301.558,276.934 301.558 C 276.076 301.558,275.857 280.948,275.857 200.044 L 275.857 98.529 357.030 98.311 L 438.202 98.092 438.433 79.459 L 438.664 60.826 257.010 60.826 L 75.356 60.826 75.587 79.459 " stroke="none" fill-rule="evenodd" fill="black"></path></svg>