<svg width="136mm" height="120mm" version="1.1" viewBox="0 0 600 529.4117647058824" xmlns="http://www.w3.org/2000/svg"><path d="M75.587 79.459 L 75.818 98.092 156.990 98.311 L 238.163 98.529 238.163 200.044 C 238.163 280.948,237.944 301.558,237.086 301.558 C 234.240 301.558,213.819 298.870,207.750 297.696 C 183.624 293.029,162.406 285.216,147.212 275.404 C 139.449 270.391,130.496 261.377,127.648 255.706 L 125.507 251.441 125.275 191.670 L 125.044 131.899 106.000 132.130 L 86.955 132.360 86.724 186.332 C 86.597 216.017,86.850 244.206,87.286 248.974 C 89.276 270.728,101.437 289.401,123.906 305.202 C 148.099 322.215,186.323 334.525,227.240 338.480 L 238.163 339.536 238.163 377.518 L 238.163 415.500 257.010 415.500 L 275.857 415.500 275.857 377.518 L 275.857 339.536 286.780 338.480 C 352.139 332.162,403.290 306.677,420.588 271.815 C 422.004 268.960,424.041 263.594,425.114 259.890 C 427.062 253.165,427.065 253.066,427.065 192.757 L 427.065 132.360 408.020 132.130 L 388.976 131.899 388.745 191.670 L 388.513 251.441 386.372 255.706 C 378.728 270.926,352.720 286.346,321.262 294.310 C 308.110 297.639,284.143 301.558,276.934 301.558 C 276.076 301.558,275.857 280.948,275.857 200.044 L 275.857 98.529 357.030 98.311 L 438.202 98.092 438.433 79.459 L 438.664 60.826 257.010 60.826 L 75.356 60.826 75.587 79.459 " stroke="none" fill-rule="evenodd" fill="black"></path></svg>