<svg width="136mm" height="120mm" version="1.1" viewBox="0 0 600 529.4117647058824" xmlns="http://www.w3.org/2000/svg"><path d="M242.018 46.716 C 230.393 48.653,222.212 51.405,212.481 56.652 C 182.959 72.571,164.464 101.879,163.026 135.020 C 162.102 156.343,166.813 174.186,177.854 191.174 C 183.122 199.279,197.398 213.546,205.527 218.830 C 236.557 239.000,277.463 239.000,308.493 218.830 C 311.982 216.562,318.716 210.828,323.456 206.088 C 335.960 193.583,342.486 182.851,347.354 166.785 C 350.618 156.013,351.513 148.267,350.987 135.359 C 350.426 121.615,348.029 111.771,342.295 99.666 C 337.292 89.105,333.235 83.138,325.638 75.165 C 303.719 52.161,272.694 41.606,242.018 46.716 M268.826 84.447 C 299.308 90.668,318.774 120.967,312.268 152.064 C 308.082 172.069,291.338 189.306,271.052 194.495 C 257.698 197.910,242.701 196.110,230.195 189.590 C 221.026 184.810,211.231 174.743,206.592 165.332 C 192.360 136.463,203.850 102.593,232.594 88.686 C 243.550 83.386,256.309 81.893,268.826 84.447 M94.237 260.435 L 94.237 279.284 141.715 279.284 L 189.193 279.284 170.841 334.323 C 160.748 364.595,152.611 389.724,152.758 390.167 C 152.905 390.609,160.837 393.578,170.384 396.764 L 187.743 402.558 188.855 399.819 C 189.467 398.313,198.785 370.576,209.563 338.182 L 229.158 279.284 250.794 279.284 L 272.431 279.284 272.431 324.981 C 272.431 367.851,272.536 371.091,274.142 377.367 C 276.573 386.873,280.947 394.182,289.061 402.296 C 300.732 413.967,312.534 418.926,328.639 418.926 C 339.250 418.926,344.129 417.812,353.759 413.190 C 368.998 405.877,380.855 390.941,384.231 374.806 C 385.077 370.760,385.490 363.446,385.500 352.318 L 385.515 335.826 366.668 335.826 L 347.820 335.826 347.800 349.748 C 347.777 365.129,347.227 368.765,344.260 373.148 C 337.724 382.802,322.696 383.995,315.198 375.455 C 310.010 369.546,310.125 370.739,310.125 323.003 L 310.125 279.284 368.826 279.284 L 427.527 279.284 427.296 260.651 L 427.065 242.018 260.651 241.801 L 94.237 241.585 94.237 260.435 " stroke="none" fill-rule="evenodd" fill="black"></path></svg>