<svg width="136mm" height="120mm" version="1.1" viewBox="0 0 600 529.4117647058824" xmlns="http://www.w3.org/2000/svg"><path d="M222.742 57.080 C 200.472 58.982,179.547 67.787,163.465 82.025 C 141.941 101.080,130.190 125.567,128.770 154.319 C 126.814 193.952,148.991 231.641,184.866 249.647 C 198.600 256.540,214.793 260.437,229.708 260.437 L 238.163 260.437 238.163 300.273 L 238.163 340.110 162.328 340.110 L 86.493 340.110 86.724 358.743 L 86.955 377.376 258.938 377.593 L 430.920 377.809 430.920 358.959 L 430.920 340.110 353.389 340.110 L 275.857 340.110 275.857 300.273 L 275.857 260.437 284.312 260.437 C 341.307 260.437,388.062 211.282,385.250 154.319 C 383.825 125.463,372.217 101.358,350.348 81.845 C 337.644 70.509,321.555 62.616,302.843 58.539 C 298.136 57.514,289.296 57.181,261.722 56.992 C 242.403 56.860,224.862 56.899,222.742 57.080 M300.678 96.734 C 319.649 102.359,335.327 116.291,342.937 134.288 L 345.201 139.642 257.010 139.642 L 168.819 139.642 171.083 134.288 C 179.938 113.347,200.053 97.765,221.679 95.094 C 224.855 94.702,242.489 94.483,260.865 94.608 C 292.497 94.824,294.617 94.937,300.678 96.734 M344.393 179.024 C 344.393 181.821,337.398 194.194,332.828 199.481 C 324.104 209.573,314.992 215.798,302.843 219.963 L 295.990 222.314 257.010 222.314 L 218.030 222.314 211.177 219.963 C 202.879 217.118,196.004 213.314,189.980 208.235 C 181.129 200.771,173.158 189.831,170.122 180.978 L 168.874 177.337 256.634 177.337 C 343.368 177.337,344.393 177.357,344.393 179.024 " stroke="none" fill-rule="evenodd" fill="black"></path></svg>