<svg width="136mm" height="120mm" version="1.1" viewBox="0 0 600 529.4117647058824" xmlns="http://www.w3.org/2000/svg"><path d="M217.173 57.508 C 196.216 60.126,174.192 71.092,158.623 86.661 C 118.819 126.465,118.754 190.885,158.479 230.452 C 177.933 249.830,203.416 260.437,230.514 260.437 L 238.163 260.437 238.163 300.273 L 238.163 340.110 162.773 340.110 L 87.383 340.110 87.383 358.957 L 87.383 377.805 259.152 377.805 L 430.920 377.805 430.920 358.957 L 430.920 340.110 353.389 340.110 L 275.857 340.110 275.857 300.273 L 275.857 260.437 283.506 260.437 C 326.719 260.437,365.936 232.516,379.770 191.901 C 394.824 147.703,378.370 99.464,339.437 73.655 C 326.092 64.808,311.551 59.399,295.990 57.492 C 286.914 56.380,226.107 56.392,217.173 57.508 M300.563 96.683 C 319.200 102.273,333.557 114.597,341.848 132.124 C 343.247 135.081,344.392 137.982,344.393 138.571 C 344.393 139.421,326.346 139.642,257.010 139.642 C 187.674 139.642,169.627 139.421,169.627 138.571 C 169.628 137.982,170.763 135.101,172.151 132.168 C 181.717 111.947,199.548 98.528,221.457 95.062 C 223.813 94.689,241.161 94.477,260.008 94.591 C 292.517 94.787,294.599 94.894,300.563 96.683 M344.393 178.535 C 344.393 179.194,342.646 183.223,340.511 187.488 C 331.809 204.871,315.419 217.416,296.234 221.379 C 286.590 223.371,227.427 223.371,217.782 221.378 C 198.734 217.444,182.181 204.812,173.593 187.656 C 171.411 183.298,169.627 179.194,169.627 178.535 C 169.627 177.517,182.730 177.337,257.010 177.337 C 331.290 177.337,344.393 177.517,344.393 178.535 " stroke="none" fill-rule="evenodd" fill="black"></path></svg>