<svg width="136mm" height="120mm" version="1.1" viewBox="0 0 600 529.4117647058824" xmlns="http://www.w3.org/2000/svg"><path d="M219.593 57.454 C 195.026 59.833,170.614 72.636,153.450 92.143 C 136.839 111.021,127.599 137.318,128.783 162.345 C 130.041 188.947,140.126 212.042,158.513 230.429 C 177.621 249.537,203.481 260.437,229.708 260.437 L 238.163 260.437 238.163 300.273 L 238.163 340.110 162.328 340.110 L 86.493 340.110 86.724 358.743 L 86.955 377.376 258.938 377.593 L 430.920 377.809 430.920 358.959 L 430.920 340.110 353.389 340.110 L 275.857 340.110 275.857 300.273 L 275.857 260.437 284.312 260.437 C 326.465 260.437,365.700 232.385,379.561 192.337 C 390.150 161.739,385.983 129.038,367.986 101.519 C 362.970 93.849,347.738 79.029,339.253 73.564 C 325.019 64.396,309.684 59.001,293.338 57.411 C 283.361 56.441,229.731 56.472,219.593 57.454 M300.702 96.737 C 311.827 100.028,319.884 104.884,328.538 113.513 C 334.852 119.808,337.016 122.687,340.332 129.199 C 342.566 133.586,344.393 137.731,344.393 138.409 C 344.393 139.474,332.482 139.642,257.010 139.642 C 182.730 139.642,169.627 139.462,169.627 138.444 C 169.627 137.785,171.428 133.641,173.630 129.235 C 181.023 114.441,196.154 101.810,212.033 97.176 C 220.618 94.671,226.143 94.381,260.865 94.613 C 292.515 94.824,294.615 94.936,300.702 96.737 M344.393 178.515 C 344.393 180.769,339.925 189.791,336.268 194.921 C 327.981 206.545,316.003 215.481,302.558 220.071 L 295.990 222.314 257.438 222.314 C 219.411 222.314,218.799 222.286,212.462 220.307 C 198.688 216.007,186.350 206.975,177.713 194.870 C 173.883 189.503,169.627 180.938,169.627 178.598 C 169.627 177.496,180.660 177.337,257.010 177.337 C 330.600 177.337,344.393 177.523,344.393 178.515 " stroke="none" fill-rule="evenodd" fill="black"></path></svg>