<svg width="136mm" height="120mm" version="1.1" viewBox="0 0 600 529.4117647058824" xmlns="http://www.w3.org/2000/svg"><path d="M113.084 113.084 L 113.084 131.932 175.624 131.932 L 238.163 131.932 238.163 158.489 L 238.163 185.047 175.624 185.047 L 113.084 185.047 113.084 203.895 L 113.084 222.742 169.839 222.742 L 226.593 222.742 165.123 284.217 L 103.653 345.691 116.940 358.957 L 130.227 372.224 193.618 308.836 L 257.010 245.449 320.402 308.836 L 383.793 372.224 397.080 358.957 L 410.367 345.691 348.897 284.217 L 287.427 222.742 344.181 222.742 L 400.936 222.742 400.936 203.895 L 400.936 185.047 338.397 185.047 L 275.857 185.047 275.857 158.489 L 275.857 131.932 338.397 131.932 L 400.936 131.932 400.936 113.084 L 400.936 94.237 257.010 94.237 L 113.084 94.237 113.084 113.084 " stroke="none" fill-rule="evenodd" fill="black"></path></svg>