<svg width="136mm" height="120mm" version="1.1" viewBox="0 0 600 529.4117647058824" xmlns="http://www.w3.org/2000/svg"><path d="M113.658 94.806 C 113.343 95.121,113.084 103.604,113.084 113.656 L 113.084 131.932 175.624 131.932 L 238.163 131.932 238.163 158.489 L 238.163 185.047 175.624 185.047 L 113.084 185.047 113.084 203.895 L 113.084 222.742 169.839 222.742 L 226.593 222.742 165.347 283.992 L 104.102 345.242 117.368 358.529 L 130.634 371.816 193.822 308.632 L 257.010 245.449 320.198 308.632 L 383.386 371.816 396.652 358.529 L 409.918 345.242 348.673 283.992 L 287.427 222.742 344.181 222.742 L 400.936 222.742 400.936 203.895 L 400.936 185.047 338.397 185.047 L 275.857 185.047 275.857 158.489 L 275.857 131.932 338.413 131.932 L 400.969 131.932 400.738 113.299 L 400.507 94.665 257.369 94.449 C 178.644 94.330,113.974 94.490,113.658 94.806 " stroke="none" fill-rule="evenodd" fill="black"></path></svg>