<svg width="136mm" height="120mm" version="1.1" viewBox="0 0 600 529.4117647058824" xmlns="http://www.w3.org/2000/svg"><path d="M238.163 84.809 L 238.163 131.924 147.567 132.142 L 56.971 132.360 56.740 150.993 L 56.509 169.627 257.010 169.627 L 457.511 169.627 457.280 150.993 L 457.049 132.360 366.453 132.142 L 275.857 131.924 275.857 84.809 L 275.857 37.695 257.010 37.695 L 238.163 37.695 238.163 84.809 M130.729 301.395 L 89.259 384.331 105.980 392.679 C 115.178 397.270,122.809 400.910,122.940 400.767 C 123.401 400.262,205.608 235.590,205.608 235.170 C 205.608 234.747,173.469 218.459,172.634 218.459 C 172.395 218.459,153.537 255.780,130.729 301.395 M324.475 226.647 C 315.640 231.101,308.412 234.936,308.412 235.170 C 308.412 235.590,390.619 400.262,391.080 400.767 C 391.211 400.910,398.842 397.270,408.040 392.679 L 424.761 384.331 383.291 301.395 C 360.483 255.780,341.533 218.479,341.180 218.504 C 340.827 218.529,333.310 222.194,324.475 226.647 " stroke="none" fill-rule="evenodd" fill="black"></path></svg>