<svg width="136mm" height="120mm" version="1.1" viewBox="0 0 600 529.4117647058824" xmlns="http://www.w3.org/2000/svg"><path d="M238.163 84.813 L 238.163 131.932 147.336 131.932 L 56.509 131.932 56.740 150.993 L 56.971 170.055 257.010 170.055 L 457.049 170.055 457.280 150.993 L 457.511 131.932 366.684 131.932 L 275.857 131.932 275.857 84.813 L 275.857 37.695 257.010 37.695 L 238.163 37.695 238.163 84.813 M130.383 301.226 C 107.624 346.748,89.120 384.099,89.264 384.229 C 90.041 384.934,122.731 400.994,122.935 400.772 C 123.399 400.264,205.608 235.593,205.608 235.170 C 205.608 234.677,173.397 218.459,172.417 218.459 C 172.058 218.459,153.143 255.704,130.383 301.226 M324.475 226.647 C 315.640 231.101,308.412 234.936,308.412 235.170 C 308.412 235.593,390.621 400.265,391.085 400.772 C 391.289 400.994,423.979 384.934,424.756 384.229 C 425.323 383.716,342.201 218.461,341.397 218.504 C 340.925 218.529,333.310 222.194,324.475 226.647 " stroke="none" fill-rule="evenodd" fill="black"></path></svg>