<svg width="136mm" height="120mm" version="1.1" viewBox="0 0 600 529.4117647058824" xmlns="http://www.w3.org/2000/svg"><path d="M238.163 84.813 L 238.163 131.932 147.336 131.932 L 56.509 131.932 56.740 150.993 L 56.971 170.055 257.010 170.055 L 457.049 170.055 457.280 150.993 L 457.511 131.932 366.684 131.932 L 275.857 131.932 275.857 84.813 L 275.857 37.695 257.010 37.695 L 238.163 37.695 238.163 84.813 M130.408 301.176 C 107.662 346.670,89.223 384.162,89.431 384.490 C 90.025 385.426,122.392 401.340,122.807 400.900 C 123.578 400.082,205.692 235.392,205.442 235.166 C 205.090 234.847,172.276 218.459,171.989 218.459 C 171.865 218.459,153.154 255.681,130.408 301.176 M325.118 226.739 C 316.165 231.243,308.722 235.035,308.578 235.166 C 308.338 235.383,390.421 400.056,391.166 400.853 C 391.572 401.287,424.923 384.901,424.923 384.268 C 424.923 383.373,342.251 218.459,341.825 218.504 C 341.589 218.529,334.070 222.235,325.118 226.739 " stroke="none" fill-rule="evenodd" fill="black"></path></svg>