<svg width="136mm" height="120mm" version="1.1" viewBox="0 0 600 529.4117647058824" xmlns="http://www.w3.org/2000/svg"><path d="M109.658 72.734 L 109.658 107.773 105.160 108.844 C 82.258 114.294,60.252 130.771,47.437 152.064 C 43.636 158.381,38.889 169.928,36.694 178.201 C 34.774 185.435,34.762 185.887,34.484 258.938 L 34.205 332.400 53.051 332.400 L 71.898 332.400 72.162 260.651 C 72.457 180.548,72.029 186.287,78.660 173.482 C 83.112 164.887,94.241 153.924,102.804 149.700 L 109.229 146.531 109.446 281.015 L 109.663 415.500 128.505 415.500 L 147.347 415.500 147.564 280.933 L 147.781 146.366 154.206 149.631 C 163.380 154.292,174.917 165.890,179.321 174.877 C 185.099 186.670,185.016 185.391,185.032 262.793 L 185.047 332.400 203.895 332.400 L 222.742 332.400 222.742 261.214 C 222.742 193.363,222.662 189.634,221.026 181.607 C 213.963 146.948,187.544 118.425,154.252 109.515 L 147.352 107.668 147.352 72.681 L 147.352 37.695 128.505 37.695 L 109.658 37.695 109.658 72.734 M234.450 57.113 C 234.136 57.427,233.879 65.909,233.879 75.961 L 233.879 94.237 264.292 94.237 C 281.019 94.237,294.705 94.529,294.705 94.885 C 294.705 95.241,282.947 130.802,268.575 173.910 C 254.204 217.018,242.446 252.362,242.446 252.453 C 242.446 252.544,274.155 252.770,312.910 252.955 C 391.087 253.329,389.015 253.185,401.299 259.093 C 418.714 267.469,432.770 284.737,436.463 302.294 C 438.342 311.223,438.171 325.432,436.087 333.579 C 433.225 344.770,428.297 353.080,418.949 362.482 C 411.833 369.638,409.694 371.230,402.635 374.618 C 394.099 378.714,384.829 381.231,378.278 381.231 L 374.378 381.231 374.378 400.079 L 374.378 418.926 379.423 418.926 C 390.369 418.926,407.584 414.349,419.783 408.195 C 475.587 380.042,493.236 309.086,457.068 258.295 C 442.251 237.488,418.349 221.867,394.645 217.500 C 391.508 216.922,388.942 216.224,388.942 215.949 C 388.942 215.674,400.700 180.180,415.071 137.072 C 429.442 93.964,441.201 58.210,441.201 57.618 C 441.201 56.761,420.281 56.542,338.111 56.542 C 281.412 56.542,234.764 56.799,234.450 57.113 M388.942 94.873 C 388.942 95.222,379.981 122.401,369.028 155.270 L 349.114 215.032 321.910 215.032 C 306.947 215.032,294.705 214.932,294.705 214.811 C 294.705 214.571,333.842 97.077,334.511 95.308 C 334.823 94.482,341.106 94.237,361.929 94.237 C 376.786 94.237,388.942 94.523,388.942 94.873 " stroke="none" fill-rule="evenodd" fill="black"></path></svg>