<svg width="136mm" height="120mm" version="1.1" viewBox="0 0 600 529.4117647058824" xmlns="http://www.w3.org/2000/svg"><path d="M109.658 72.681 L 109.658 107.668 102.758 109.515 C 74.262 117.142,49.284 140.559,39.487 168.831 C 34.242 183.968,34.268 183.515,34.268 261.388 L 34.268 332.400 53.115 332.400 L 71.963 332.400 71.963 263.593 C 71.963 217.890,72.274 193.079,72.891 189.702 C 74.148 182.819,77.548 174.478,81.457 168.692 C 86.094 161.826,95.603 153.375,102.933 149.605 L 109.229 146.366 109.446 280.933 L 109.663 415.500 128.505 415.500 L 147.347 415.500 147.564 280.933 L 147.781 146.366 154.077 149.605 C 161.407 153.375,170.916 161.826,175.553 168.692 C 179.462 174.478,182.862 182.819,184.119 189.702 C 184.736 193.079,185.047 217.890,185.047 263.593 L 185.047 332.400 203.895 332.400 L 222.742 332.400 222.742 261.388 C 222.742 183.515,222.768 183.968,217.523 168.831 C 207.726 140.559,182.748 117.142,154.252 109.515 L 147.352 107.668 147.352 72.681 L 147.352 37.695 128.505 37.695 L 109.658 37.695 109.658 72.681 M234.450 57.113 C 234.136 57.427,233.879 65.909,233.879 75.961 L 233.879 94.237 264.292 94.237 C 281.019 94.237,294.705 94.529,294.705 94.885 C 294.705 95.241,282.947 130.802,268.575 173.910 C 254.204 217.018,242.446 252.362,242.446 252.454 C 242.446 252.545,274.347 252.759,313.338 252.929 C 382.618 253.232,384.379 253.281,390.787 255.068 C 413.024 261.272,430.437 278.725,436.184 300.570 C 438.423 309.079,438.587 324.221,436.535 332.980 C 433.714 345.023,425.785 357.340,414.686 366.922 C 405.806 374.589,388.905 381.231,378.278 381.231 L 374.378 381.231 374.378 400.079 L 374.378 418.926 379.423 418.926 C 385.709 418.926,396.519 416.911,405.584 414.050 C 435.546 404.592,460.033 380.696,470.371 350.826 C 480.875 320.476,476.894 288.401,459.257 261.295 C 444.880 239.201,419.645 222.078,394.725 217.509 C 391.544 216.926,388.942 216.224,388.942 215.949 C 388.942 215.675,400.861 179.696,415.430 135.996 L 441.918 56.542 338.470 56.542 C 281.573 56.542,234.764 56.799,234.450 57.113 M388.942 95.308 C 388.942 95.897,380.043 123.076,369.166 155.705 L 349.391 215.032 322.048 215.032 C 307.009 215.032,294.705 214.932,294.705 214.811 C 294.705 214.571,333.842 97.077,334.511 95.308 C 335.101 93.747,388.942 93.747,388.942 95.308 " stroke="none" fill-rule="evenodd" fill="black"></path></svg>