<svg width="136mm" height="120mm" version="1.1" viewBox="0 0 600 529.4117647058824" xmlns="http://www.w3.org/2000/svg"><path d="M109.658 72.611 L 109.658 107.528 102.666 109.487 C 72.928 117.820,47.562 142.468,38.609 171.729 C 34.351 185.643,34.268 187.382,34.268 262.262 L 34.268 332.400 53.115 332.400 L 71.963 332.400 71.963 263.390 C 71.963 186.029,71.822 188.049,78.120 174.860 C 82.816 165.026,92.469 155.234,102.590 150.038 L 109.658 146.409 109.658 280.954 L 109.658 415.500 128.502 415.500 L 147.347 415.500 147.564 281.015 L 147.781 146.531 154.206 149.708 C 159.004 152.082,162.488 154.735,167.964 160.186 C 176.357 168.540,180.659 175.873,183.358 186.426 C 184.971 192.734,185.047 196.166,185.047 262.716 L 185.047 332.400 203.922 332.400 L 222.796 332.400 222.546 258.509 L 222.295 184.619 220.007 176.304 C 211.087 143.881,185.806 118.114,154.427 109.463 L 147.365 107.516 147.359 72.605 L 147.352 37.695 128.505 37.695 L 109.658 37.695 109.658 72.611 M234.736 75.390 L 234.736 94.237 264.720 94.237 C 281.212 94.237,294.705 94.529,294.705 94.885 C 294.705 95.241,282.947 130.802,268.575 173.910 C 254.204 217.018,242.446 252.386,242.446 252.507 C 242.446 252.628,272.237 252.727,308.649 252.727 C 350.023 252.727,377.559 253.066,382.070 253.632 C 399.006 255.755,414.847 264.854,425.032 278.308 C 433.743 289.816,437.892 302.229,437.957 316.979 C 438.008 328.290,436.334 335.519,431.231 346.035 C 427.896 352.907,426.157 355.253,419.481 361.884 C 415.171 366.164,409.432 370.964,406.728 372.549 C 399.726 376.655,388.548 380.285,380.922 380.930 L 374.378 381.483 374.378 400.205 L 374.378 418.926 378.978 418.926 C 381.507 418.926,387.001 418.338,391.186 417.619 C 420.987 412.499,446.810 394.588,462.173 368.381 C 484.955 329.519,479.084 279.942,447.800 247.008 C 439.409 238.174,429.864 231.215,418.608 225.724 C 409.767 221.412,395.370 216.752,390.869 216.747 C 389.809 216.746,388.942 216.454,388.942 216.097 C 388.942 215.741,400.861 179.696,415.430 135.996 L 441.918 56.542 338.327 56.542 L 234.736 56.542 234.736 75.390 M388.942 94.873 C 388.942 95.222,379.981 122.401,369.028 155.270 L 349.114 215.032 321.910 215.032 C 306.947 215.032,294.705 214.932,294.705 214.811 C 294.705 214.571,333.842 97.077,334.511 95.308 C 334.823 94.482,341.106 94.237,361.929 94.237 C 376.786 94.237,388.942 94.523,388.942 94.873 " stroke="none" fill-rule="evenodd" fill="black"></path></svg>