<svg width="136mm" height="120mm" version="1.1" viewBox="0 0 600 529.4117647058824" xmlns="http://www.w3.org/2000/svg"><path d="M94.237 228.311 L 94.237 381.231 113.513 381.231 L 132.788 381.231 132.788 247.158 L 132.788 113.084 257.010 113.084 L 381.231 113.084 381.231 247.158 L 381.231 381.231 400.507 381.231 L 419.783 381.231 419.783 228.311 L 419.783 75.390 257.010 75.390 L 94.237 75.390 94.237 228.311 M246.301 159.432 C 222.257 161.937,198.463 175.073,183.218 194.257 C 174.813 204.834,168.840 216.949,165.209 230.784 C 162.630 240.611,162.065 258.987,164.022 269.395 C 169.697 299.581,188.448 324.438,215.460 337.583 C 271.864 365.031,338.184 331.680,349.888 269.980 C 350.636 266.041,351.247 258.391,351.247 252.981 C 351.247 220.981,335.518 191.834,308.840 174.400 C 295.629 165.766,282.198 161.005,266.513 159.395 C 256.803 158.399,256.200 158.400,246.301 159.432 M271.941 198.453 C 289.343 202.854,305.712 218.448,311.099 235.755 C 313.311 242.861,314.063 255.084,312.753 262.621 C 310.545 275.321,304.843 285.570,294.824 294.846 C 283.897 304.962,271.963 309.513,256.620 309.414 C 251.752 309.382,245.782 308.775,242.874 308.015 C 226.139 303.644,210.847 290.138,204.525 274.144 C 190.916 239.714,212.684 202.209,249.300 197.000 C 255.286 196.148,265.395 196.797,271.941 198.453 " stroke="none" fill-rule="evenodd" fill="black"></path></svg>