<svg width="136mm" height="120mm" version="1.1" viewBox="0 0 600 529.4117647058824" xmlns="http://www.w3.org/2000/svg"><path d="M94.810 75.959 C 94.495 76.274,94.237 145.089,94.237 228.882 L 94.237 381.231 113.513 381.231 L 132.788 381.231 132.788 247.158 L 132.788 113.084 257.010 113.084 L 381.231 113.084 381.231 247.158 L 381.231 381.231 400.510 381.231 L 419.788 381.231 419.571 228.525 L 419.355 75.818 257.369 75.602 C 168.277 75.483,95.126 75.643,94.810 75.959 M246.301 159.432 C 205.455 163.688,171.226 195.910,164.092 236.822 C 158.853 266.864,168.507 297.569,189.991 319.194 C 227.283 356.731,286.737 356.731,324.029 319.194 C 341.724 301.383,351.222 278.297,351.241 253.053 C 351.268 215.620,329.661 182.444,295.133 166.909 C 286.006 162.802,277.213 160.493,266.513 159.395 C 256.803 158.399,256.200 158.400,246.301 159.432 M272.002 198.462 C 291.295 203.321,308.135 221.105,312.198 240.911 C 316.227 260.554,310.925 278.515,296.941 292.591 C 285.270 304.339,273.156 309.455,257.010 309.455 C 240.867 309.455,229.274 304.625,217.508 292.998 C 211.546 287.107,209.449 284.313,206.569 278.428 C 196.668 258.189,198.956 235.210,212.559 218.250 C 227.172 200.031,249.164 192.711,272.002 198.462 " stroke="none" fill-rule="evenodd" fill="black"></path></svg>