<svg width="136mm" height="120mm" version="1.1" viewBox="0 0 600 529.4117647058824" xmlns="http://www.w3.org/2000/svg"><path d="M276.696 67.253 L 234.271 109.658 179.675 109.658 L 125.078 109.658 125.078 128.505 L 125.078 147.352 160.841 147.352 L 196.604 147.352 163.633 180.332 L 130.661 213.312 143.921 226.593 L 157.181 239.874 167.259 229.822 L 177.337 219.770 177.337 249.527 C 177.337 268.850,177.638 279.284,178.196 279.284 C 178.669 279.284,205.977 265.822,238.882 249.368 L 298.709 219.453 322.189 242.944 L 345.669 266.436 358.949 253.156 L 372.229 239.876 330.686 198.326 L 289.143 156.776 275.881 170.039 L 262.618 183.301 266.400 187.155 C 268.480 189.274,270.013 191.166,269.807 191.359 C 269.601 191.553,257.385 197.730,242.660 205.087 L 215.888 218.464 215.888 199.820 L 215.888 181.176 232.816 164.264 L 249.744 147.352 319.343 147.352 L 388.942 147.352 388.942 128.505 L 388.942 109.658 338.187 109.658 L 287.432 109.658 316.772 80.308 L 346.113 50.959 333.035 37.901 C 325.842 30.720,319.769 24.845,319.539 24.847 C 319.309 24.848,300.030 43.931,276.696 67.253 M166.198 56.972 L 152.939 70.252 171.769 89.097 L 190.599 107.942 204.102 94.459 L 217.605 80.975 198.977 62.334 C 188.732 52.081,180.149 43.692,179.904 43.692 C 179.659 43.692,173.491 49.668,166.198 56.972 M125.078 283.568 L 125.078 302.415 96.362 302.415 L 67.646 302.415 67.877 321.048 L 68.108 339.682 96.593 339.907 L 125.078 340.133 125.078 343.932 C 125.078 349.995,128.947 360.764,133.653 367.799 C 148.994 390.737,181.938 407.238,224.884 413.496 C 239.317 415.600,274.703 415.600,289.136 413.496 C 346.133 405.190,385.502 378.286,388.671 345.476 L 389.187 340.133 417.550 339.907 L 445.912 339.682 446.143 321.048 L 446.374 302.415 417.658 302.415 L 388.942 302.415 388.942 283.568 L 388.942 264.720 370.094 264.720 L 351.247 264.720 351.247 283.568 L 351.247 302.415 257.010 302.415 L 162.773 302.415 162.773 283.568 L 162.773 264.720 143.926 264.720 L 125.078 264.720 125.078 283.568 M351.247 341.656 C 351.247 344.449,346.304 351.067,341.234 355.060 C 302.988 385.188,211.032 385.188,172.786 355.060 C 167.716 351.067,162.773 344.449,162.773 341.656 C 162.773 340.175,166.753 340.110,257.010 340.110 C 347.267 340.110,351.247 340.175,351.247 341.656 " stroke="none" fill-rule="evenodd" fill="black"></path></svg>