<svg width="136mm" height="120mm" version="1.1" viewBox="0 0 600 529.4117647058824" xmlns="http://www.w3.org/2000/svg"><path d="M276.696 67.253 L 234.271 109.658 179.246 109.658 L 124.222 109.658 124.222 128.505 L 124.222 147.352 160.417 147.358 L 196.613 147.363 163.349 180.050 L 130.085 212.736 143.633 226.305 L 157.182 239.873 167.259 229.822 L 177.337 219.770 177.337 249.527 C 177.337 268.850,177.638 279.284,178.196 279.284 C 178.669 279.284,205.977 265.822,238.882 249.368 L 298.709 219.453 322.189 242.944 L 345.669 266.436 358.949 253.156 L 372.229 239.876 330.686 198.326 L 289.143 156.776 275.881 170.039 L 262.618 183.301 266.400 187.155 C 268.480 189.274,270.013 191.166,269.807 191.359 C 269.601 191.553,257.385 197.730,242.660 205.087 L 215.888 218.464 215.888 199.820 L 215.888 181.176 232.816 164.264 L 249.744 147.352 319.771 147.352 L 389.798 147.352 389.798 128.505 L 389.798 109.658 338.615 109.658 L 287.432 109.658 316.772 80.308 L 346.113 50.959 333.035 37.901 C 325.842 30.720,319.769 24.845,319.539 24.847 C 319.309 24.848,300.030 43.931,276.696 67.253 M166.198 56.972 L 152.939 70.252 171.769 89.097 L 190.599 107.942 204.102 94.459 L 217.605 80.975 198.977 62.334 C 188.732 52.081,180.149 43.692,179.904 43.692 C 179.659 43.692,173.491 49.668,166.198 56.972 M124.222 283.568 L 124.222 302.415 95.934 302.415 L 67.646 302.415 67.877 321.048 L 68.108 339.682 96.593 339.907 L 125.078 340.133 125.078 343.639 C 125.078 354.533,131.046 366.640,141.765 377.489 C 160.094 396.043,187.965 408.116,224.884 413.496 C 239.317 415.600,274.703 415.600,289.136 413.496 C 326.055 408.116,353.926 396.043,372.255 377.489 C 382.974 366.640,388.942 354.533,388.942 343.639 L 388.942 340.133 417.427 339.907 L 445.912 339.682 446.143 321.048 L 446.374 302.415 418.086 302.415 L 389.798 302.415 389.798 283.568 L 389.798 264.720 370.523 264.720 L 351.247 264.720 351.247 283.568 L 351.247 302.415 257.010 302.415 L 162.773 302.415 162.773 283.568 L 162.773 264.720 143.497 264.720 L 124.222 264.720 124.222 283.568 M351.247 341.656 C 351.247 344.449,346.304 351.067,341.234 355.060 C 316.138 374.829,264.794 382.950,219.744 374.277 C 194.356 369.389,171.504 357.856,164.909 346.603 C 160.711 339.439,151.190 340.110,257.010 340.110 C 347.267 340.110,351.247 340.175,351.247 341.656 " stroke="none" fill-rule="evenodd" fill="black"></path></svg>