<svg width="136mm" height="120mm" version="1.1" viewBox="0 0 600 529.4117647058824" xmlns="http://www.w3.org/2000/svg"><path d="M276.714 67.251 L 234.314 109.658 179.696 109.658 L 125.078 109.658 125.078 128.505 L 125.078 147.352 160.841 147.352 L 196.604 147.352 163.633 180.332 L 130.661 213.312 143.921 226.593 L 157.181 239.874 167.259 229.822 L 177.337 219.770 177.337 249.527 C 177.337 268.850,177.638 279.284,178.196 279.284 C 178.669 279.284,205.977 265.822,238.882 249.368 L 298.709 219.453 322.189 242.944 L 345.669 266.436 358.949 253.156 L 372.229 239.876 330.686 198.326 L 289.143 156.776 275.881 170.039 L 262.618 183.301 266.400 187.155 C 268.480 189.274,270.013 191.166,269.807 191.359 C 269.601 191.553,257.385 197.730,242.660 205.087 L 215.888 218.464 215.888 199.820 L 215.888 181.176 232.816 164.264 L 249.744 147.352 319.343 147.352 L 388.942 147.352 388.942 128.505 L 388.942 109.658 338.187 109.658 L 287.432 109.658 316.341 80.739 C 332.241 64.834,345.250 51.433,345.250 50.958 C 345.250 50.114,320.367 24.844,319.535 24.844 C 319.304 24.844,300.034 43.927,276.714 67.251 M166.198 56.972 L 152.939 70.252 171.769 89.097 L 190.599 107.942 204.102 94.459 L 217.605 80.975 198.977 62.334 C 188.732 52.081,180.149 43.692,179.904 43.692 C 179.659 43.692,173.491 49.668,166.198 56.972 M124.881 283.354 L 124.650 301.987 96.593 302.213 L 68.536 302.439 68.536 321.274 L 68.536 340.110 96.683 340.110 L 124.830 340.110 125.337 345.539 C 126.828 361.498,138.716 378.249,157.019 390.179 C 200.347 418.422,278.557 423.698,333.523 402.087 C 344.315 397.844,349.637 395.084,358.647 389.057 C 375.946 377.486,387.252 360.938,388.724 345.036 L 389.180 340.110 417.332 340.110 L 445.484 340.110 445.484 321.274 L 445.484 302.439 417.427 302.213 L 389.370 301.987 389.139 283.354 L 388.908 264.720 370.078 264.720 L 351.247 264.720 351.247 283.568 L 351.247 302.415 257.010 302.415 L 162.773 302.415 162.773 283.568 L 162.773 264.720 143.942 264.720 L 125.112 264.720 124.881 283.354 M351.247 341.656 C 351.247 344.451,346.303 351.068,341.234 355.056 C 328.327 365.212,307.210 372.733,281.854 376.204 C 271.380 377.639,242.660 377.641,232.166 376.208 C 207.045 372.777,185.600 365.138,172.786 355.056 C 167.717 351.068,162.773 344.451,162.773 341.656 C 162.773 340.175,166.753 340.110,257.010 340.110 C 347.267 340.110,351.247 340.175,351.247 341.656 " stroke="none" fill-rule="evenodd" fill="black"></path></svg>