<svg width="136mm" height="120mm" version="1.1" viewBox="0 0 600 529.4117647058824" xmlns="http://www.w3.org/2000/svg"><path d="M139.642 64.252 L 139.642 83.100 188.902 83.100 L 238.163 83.100 238.163 87.779 L 238.163 92.458 234.522 93.382 C 212.662 98.933,190.612 114.280,178.760 132.192 C 173.693 139.851,168.062 152.431,165.562 161.679 C 163.520 169.234,163.298 171.524,163.298 185.047 C 163.298 198.643,163.514 200.837,165.609 208.606 C 168.383 218.890,175.590 233.935,181.409 241.589 C 183.737 244.652,188.902 250.242,192.886 254.012 L 200.130 260.866 195.547 264.580 C 184.857 273.241,174.119 288.601,168.648 303.058 L 165.972 310.125 147.239 310.125 L 128.505 310.125 128.505 328.973 L 128.505 347.820 145.639 347.820 L 162.773 347.820 162.773 381.660 L 162.773 415.500 181.620 415.500 L 200.468 415.500 200.468 381.660 L 200.468 347.820 257.010 347.820 L 313.552 347.820 313.552 381.660 L 313.552 415.500 332.400 415.500 L 351.247 415.500 351.247 381.660 L 351.247 347.820 368.381 347.820 L 385.515 347.820 385.515 328.973 L 385.515 310.125 366.738 310.125 L 347.962 310.125 346.500 306.056 C 344.117 299.421,339.638 290.084,336.439 285.083 C 332.257 278.545,323.779 268.879,318.416 264.533 L 313.890 260.866 321.134 254.012 C 325.118 250.242,330.283 244.652,332.611 241.589 C 338.430 233.935,345.637 218.890,348.411 208.606 C 350.506 200.837,350.722 198.643,350.722 185.047 C 350.722 171.524,350.500 169.234,348.458 161.679 C 345.958 152.431,340.327 139.851,335.260 132.192 C 323.408 114.280,301.358 98.933,279.498 93.382 L 275.857 92.458 275.857 87.779 L 275.857 83.100 322.976 83.100 L 370.094 83.100 370.094 64.252 L 370.094 45.405 254.868 45.405 L 139.642 45.405 139.642 64.252 M238.163 149.066 L 238.163 166.200 221.029 166.200 C 208.543 166.200,203.895 165.929,203.895 165.200 C 203.895 163.279,210.107 152.883,213.958 148.361 C 219.552 141.792,233.350 132.002,237.092 131.947 C 237.913 131.935,238.163 135.921,238.163 149.066 M282.606 134.515 C 289.586 138.235,296.682 144.059,301.110 149.700 C 304.998 154.655,310.125 163.497,310.125 165.249 C 310.125 165.914,304.975 166.200,292.991 166.200 L 275.857 166.200 275.857 149.066 C 275.857 137.082,276.143 131.932,276.808 131.932 C 277.331 131.932,279.940 133.094,282.606 134.515 M238.163 221.029 C 238.163 232.954,237.875 238.163,237.217 238.163 C 234.138 238.163,223.404 231.152,217.517 225.296 C 211.543 219.355,203.938 207.994,203.906 204.965 C 203.897 204.144,207.886 203.895,221.029 203.895 L 238.163 203.895 238.163 221.029 M310.125 204.785 C 310.125 208.361,300.688 221.947,294.165 227.760 C 289.674 231.763,278.993 238.163,276.803 238.163 C 276.145 238.163,275.857 232.954,275.857 221.029 L 275.857 203.895 292.991 203.895 C 304.281 203.895,310.125 204.198,310.125 204.785 M272.002 281.562 C 281.470 283.947,292.881 291.147,299.618 298.988 C 302.830 302.727,306.699 308.409,306.699 309.388 C 306.699 309.794,284.339 310.125,257.010 310.125 C 229.681 310.125,207.321 309.794,207.321 309.388 C 207.321 308.541,210.607 303.582,213.996 299.312 C 219.484 292.399,231.959 284.247,240.754 281.825 C 250.499 279.143,262.009 279.046,272.002 281.562 " stroke="none" fill-rule="evenodd" fill="black"></path></svg>