<svg width="136mm" height="120mm" version="1.1" viewBox="0 0 600 529.4117647058824" xmlns="http://www.w3.org/2000/svg"><path d="M139.642 64.252 L 139.642 83.100 188.902 83.100 L 238.163 83.100 238.163 87.779 L 238.163 92.458 234.522 93.376 C 223.748 96.094,212.222 101.385,202.541 108.059 C 195.223 113.104,184.128 124.349,179.091 131.827 C 173.721 139.800,168.148 152.107,165.574 161.679 C 163.546 169.218,163.321 171.553,163.321 185.047 C 163.321 198.541,163.546 200.877,165.574 208.416 C 170.205 225.637,179.151 240.771,192.051 253.206 L 199.776 260.653 193.970 265.893 C 183.104 275.701,174.782 287.744,169.031 301.987 L 166.264 308.840 147.599 309.269 L 128.933 309.697 128.703 328.759 L 128.472 347.820 145.623 347.820 L 162.773 347.820 162.773 381.660 L 162.773 415.500 181.620 415.500 L 200.468 415.500 200.468 381.660 L 200.468 347.820 257.010 347.820 L 313.552 347.820 313.552 381.660 L 313.552 415.500 332.400 415.500 L 351.247 415.500 351.247 381.660 L 351.247 347.820 368.397 347.820 L 385.548 347.820 385.317 328.759 L 385.087 309.697 366.421 309.269 L 347.756 308.840 344.989 301.987 C 339.238 287.744,330.916 275.701,320.050 265.893 L 314.244 260.653 321.969 253.206 C 334.869 240.771,343.815 225.637,348.446 208.416 C 350.474 200.877,350.699 198.541,350.699 185.047 C 350.699 171.553,350.474 169.218,348.446 161.679 C 341.204 134.749,323.311 112.793,298.560 100.462 C 291.897 97.143,286.983 95.321,279.498 93.395 L 275.857 92.458 275.857 87.779 L 275.857 83.100 322.976 83.100 L 370.094 83.100 370.094 64.252 L 370.094 45.405 254.868 45.405 L 139.642 45.405 139.642 64.252 M238.163 149.066 L 238.163 166.200 220.971 166.200 L 203.779 166.200 204.362 164.272 C 206.419 157.473,214.484 146.593,221.678 140.912 C 226.175 137.361,235.706 131.932,237.443 131.932 C 237.839 131.932,238.163 139.642,238.163 149.066 M283.643 135.088 C 294.856 141.094,306.649 154.324,309.658 164.272 L 310.241 166.200 293.049 166.200 L 275.857 166.200 275.857 149.008 L 275.857 131.816 277.785 132.399 C 278.845 132.720,281.481 133.930,283.643 135.088 M238.163 221.086 L 238.163 238.278 236.235 237.695 C 224.320 234.091,207.966 217.737,204.362 205.822 L 203.779 203.895 220.971 203.895 L 238.163 203.895 238.163 221.086 M309.658 205.822 C 308.619 209.257,304.953 215.497,301.062 220.455 C 295.488 227.557,284.572 235.642,277.785 237.695 L 275.857 238.278 275.857 221.086 L 275.857 203.895 293.049 203.895 L 310.241 203.895 309.658 205.822 M271.375 281.350 C 285.182 285.064,299.837 296.147,305.742 307.341 L 306.759 309.269 256.956 309.269 L 207.152 309.269 208.954 306.214 C 215.896 294.449,230.898 283.746,244.160 281.099 C 246.751 280.581,249.642 279.980,250.585 279.763 C 253.545 279.081,266.664 280.083,271.375 281.350 " stroke="none" fill-rule="evenodd" fill="black"></path></svg>