<svg width="136mm" height="120mm" version="1.1" viewBox="0 0 600 529.4117647058824" xmlns="http://www.w3.org/2000/svg"><path d="M139.642 64.252 L 139.642 83.100 188.902 83.100 L 238.163 83.100 238.163 87.779 L 238.163 92.458 234.522 93.376 C 217.534 97.661,201.436 107.014,189.302 119.649 C 171.597 138.083,162.786 159.816,162.786 185.047 C 162.786 195.738,163.782 202.620,166.753 212.462 C 171.480 228.121,178.360 239.317,190.986 251.892 L 200.039 260.909 194.899 265.223 C 183.942 274.419,174.140 288.546,168.648 303.058 L 165.972 310.125 147.239 310.125 L 128.505 310.125 128.505 328.973 L 128.505 347.820 145.639 347.820 L 162.773 347.820 162.773 381.660 L 162.773 415.500 181.620 415.500 L 200.468 415.500 200.468 381.660 L 200.468 347.820 257.010 347.820 L 313.552 347.820 313.552 381.660 L 313.552 415.500 332.400 415.500 L 351.247 415.500 351.247 381.660 L 351.247 347.820 368.381 347.820 L 385.515 347.820 385.515 328.973 L 385.515 310.125 366.781 310.125 L 348.048 310.125 345.372 303.058 C 339.880 288.546,330.078 274.419,319.121 265.223 L 313.981 260.909 323.034 251.892 C 332.680 242.284,336.475 237.103,341.876 226.166 C 348.134 213.493,351.234 199.871,351.234 185.047 C 351.234 170.223,348.134 156.601,341.876 143.928 C 336.915 133.883,332.845 128.110,324.851 119.786 C 312.660 107.092,296.449 97.652,279.498 93.376 L 275.857 92.458 275.857 87.779 L 275.857 83.100 322.976 83.100 L 370.094 83.100 370.094 64.252 L 370.094 45.405 254.868 45.405 L 139.642 45.405 139.642 64.252 M238.163 149.066 L 238.163 166.200 221.029 166.200 C 207.886 166.200,203.897 165.950,203.906 165.129 C 203.937 162.214,211.539 150.688,217.095 145.132 C 222.650 139.576,234.177 131.974,237.092 131.943 C 237.913 131.934,238.163 135.924,238.163 149.066 M284.424 135.505 C 292.846 140.160,301.897 149.211,306.552 157.633 C 308.505 161.167,310.108 164.540,310.114 165.129 C 310.123 165.950,306.134 166.200,292.991 166.200 L 275.857 166.200 275.857 149.066 C 275.857 135.924,276.107 131.934,276.928 131.943 C 277.517 131.949,280.891 133.552,284.424 135.505 M238.163 221.029 C 238.163 232.954,237.875 238.163,237.217 238.163 C 234.188 238.163,223.388 231.125,217.512 225.321 C 211.517 219.401,203.939 208.063,203.906 204.965 C 203.897 204.144,207.886 203.895,221.029 203.895 L 238.163 203.895 238.163 221.029 M310.114 204.965 C 310.081 208.063,302.503 219.401,296.508 225.321 C 290.632 231.125,279.832 238.163,276.803 238.163 C 276.145 238.163,275.857 232.954,275.857 221.029 L 275.857 203.895 292.991 203.895 C 306.134 203.895,310.123 204.144,310.114 204.965 M271.934 281.551 C 284.736 284.789,298.010 294.598,304.914 305.924 C 305.892 307.528,306.694 309.129,306.695 309.483 C 306.697 309.836,284.339 310.125,257.010 310.125 C 221.564 310.125,207.321 309.856,207.321 309.187 C 207.321 306.734,215.907 296.474,221.885 291.782 C 236.031 280.680,253.983 277.010,271.934 281.551 " stroke="none" fill-rule="evenodd" fill="black"></path></svg>