<svg width="136mm" height="120mm" version="1.1" viewBox="0 0 600 529.4117647058824" xmlns="http://www.w3.org/2000/svg"><path d="M238.163 128.505 L 238.163 181.620 185.030 181.620 L 131.898 181.620 132.129 200.254 L 132.360 218.887 185.261 219.108 L 238.163 219.328 238.163 270.295 L 238.163 321.262 166.200 321.262 L 94.237 321.262 94.237 340.110 L 94.237 358.957 241.587 358.957 L 388.936 358.957 401.364 383.802 C 408.199 397.466,413.987 408.646,414.226 408.646 C 415.589 408.646,447.197 392.214,447.197 391.505 C 447.197 390.717,388.359 272.493,387.527 271.610 C 387.111 271.168,354.744 287.086,354.148 288.024 C 353.939 288.355,357.443 295.969,361.935 304.944 L 370.103 321.262 322.980 321.262 L 275.857 321.262 275.857 270.295 L 275.857 219.328 328.759 219.108 L 381.660 218.887 381.891 200.254 L 382.122 181.620 328.990 181.620 L 275.857 181.620 275.857 128.505 L 275.857 75.390 257.010 75.390 L 238.163 75.390 238.163 128.505 " stroke="none" fill-rule="evenodd" fill="black"></path></svg>