<svg width="136mm" height="120mm" version="1.1" viewBox="0 0 600 529.4117647058824" xmlns="http://www.w3.org/2000/svg"><path d="M238.163 128.505 L 238.163 181.620 185.030 181.620 L 131.898 181.620 132.129 200.254 L 132.360 218.887 185.261 219.108 L 238.163 219.328 238.163 270.295 L 238.163 321.262 166.183 321.262 L 94.204 321.262 94.434 339.896 L 94.665 358.529 241.802 358.746 L 388.939 358.962 401.363 383.801 L 413.788 408.639 430.493 400.300 C 439.680 395.713,447.197 391.666,447.197 391.305 C 447.197 390.649,388.222 272.348,387.527 271.610 C 387.111 271.168,354.744 287.086,354.148 288.024 C 353.939 288.355,357.443 295.969,361.935 304.944 L 370.103 321.262 322.980 321.262 L 275.857 321.262 275.857 270.295 L 275.857 219.328 328.759 219.108 L 381.660 218.887 381.891 200.254 L 382.122 181.620 328.990 181.620 L 275.857 181.620 275.857 128.505 L 275.857 75.390 257.010 75.390 L 238.163 75.390 238.163 128.505 " stroke="none" fill-rule="evenodd" fill="black"></path></svg>