<svg width="136mm" height="120mm" version="1.1" viewBox="0 0 600 529.4117647058824" xmlns="http://www.w3.org/2000/svg"><path d="M120.795 81.386 L 120.795 101.947 79.245 101.947 L 37.695 101.947 37.695 120.795 L 37.695 139.642 79.245 139.642 L 120.795 139.642 120.795 161.278 L 120.795 182.914 87.438 282.977 C 65.064 350.091,54.415 383.166,55.097 383.421 C 56.640 384.000,89.451 394.939,89.643 394.939 C 89.735 394.939,101.087 361.110,114.869 319.764 L 139.927 244.590 164.625 318.693 C 178.209 359.450,189.496 393.256,189.709 393.817 C 189.975 394.521,195.362 393.090,207.061 389.211 C 216.392 386.116,224.360 383.281,224.766 382.911 C 225.172 382.541,210.619 337.581,192.426 283.000 L 159.346 183.762 159.346 161.702 L 159.346 139.642 200.468 139.642 L 241.589 139.642 241.589 120.795 L 241.589 101.947 200.468 101.947 L 159.346 101.947 159.346 81.386 L 159.346 60.826 140.070 60.826 L 120.795 60.826 120.795 81.386 M348.643 84.407 C 316.952 89.349,289.621 113.180,279.870 144.374 C 270.409 174.641,278.634 208.118,301.130 230.909 L 307.267 237.126 302.583 240.857 C 292.345 249.012,281.776 263.031,276.405 275.578 C 269.981 290.589,268.147 301.535,268.147 324.881 L 268.147 340.110 258.723 340.110 L 249.300 340.110 249.300 358.957 L 249.300 377.805 362.812 377.805 L 476.325 377.805 476.325 358.957 L 476.325 340.110 466.901 340.110 L 457.478 340.110 457.478 326.493 C 457.478 300.379,455.026 287.687,446.785 271.132 C 441.195 259.901,433.148 249.499,424.413 242.210 L 418.141 236.975 423.059 232.177 C 435.702 219.844,443.602 205.696,447.749 187.962 C 450.216 177.408,449.830 159.819,446.885 148.637 C 435.368 104.909,393.347 77.435,348.643 84.407 M377.866 123.298 C 392.016 127.709,405.145 140.835,409.576 155.001 C 411.598 161.468,412.035 175.067,410.439 181.882 C 406.929 196.864,393.634 211.217,378.320 216.556 C 370.165 219.400,356.276 219.527,347.758 216.836 C 333.768 212.416,320.379 199.044,316.109 185.227 C 310.551 167.243,315.146 148.388,328.290 135.244 C 334.858 128.676,343.818 123.729,352.368 121.951 C 359.359 120.498,370.828 121.103,377.866 123.298 M375.552 258.287 C 390.949 261.549,406.242 273.669,413.395 288.280 C 418.252 298.201,418.926 302.349,418.926 322.299 L 418.926 340.110 362.258 340.110 L 305.590 340.110 306.103 321.905 C 306.673 301.690,307.525 297.034,312.336 287.851 C 320.110 273.014,334.523 261.582,349.534 258.347 C 356.876 256.764,368.241 256.738,375.552 258.287 " stroke="none" fill-rule="evenodd" fill="black"></path></svg>