<svg width="136mm" height="120mm" version="1.1" viewBox="0 0 600 529.4117647058824" xmlns="http://www.w3.org/2000/svg"><path d="M120.795 81.386 L 120.795 101.947 79.245 101.947 L 37.695 101.947 37.695 120.795 L 37.695 139.642 79.245 139.642 L 120.795 139.642 120.795 160.850 L 120.795 182.057 87.393 282.254 C 69.022 337.362,54.276 382.706,54.624 383.019 C 54.972 383.332,62.582 386.006,71.534 388.961 C 80.487 391.916,88.253 394.496,88.792 394.693 C 89.417 394.922,98.708 368.209,114.386 321.105 C 127.924 280.434,139.275 246.853,139.612 246.481 C 139.949 246.109,151.332 279.070,164.907 319.729 C 178.482 360.388,189.727 393.912,189.896 394.227 C 190.226 394.843,223.533 384.034,224.766 382.911 C 225.172 382.541,210.426 337.003,191.997 281.715 L 158.489 181.192 158.489 160.417 L 158.489 139.642 200.039 139.642 L 241.589 139.642 241.589 120.795 L 241.589 101.947 200.039 101.947 L 158.489 101.947 158.489 81.386 L 158.489 60.826 139.642 60.826 L 120.795 60.826 120.795 81.386 M349.071 84.340 C 332.731 86.880,316.102 94.988,303.346 106.634 C 293.558 115.570,284.179 130.651,279.877 144.374 C 270.391 174.627,278.596 208.043,301.088 230.754 L 307.366 237.094 301.551 241.844 C 291.107 250.376,281.275 263.752,276.079 276.496 C 269.780 291.948,268.147 301.906,268.147 324.881 L 268.147 340.110 258.723 340.110 L 249.300 340.110 249.300 358.957 L 249.300 377.805 362.812 377.805 L 476.325 377.805 476.325 358.957 L 476.325 340.110 467.001 340.110 L 457.677 340.110 457.233 320.192 C 456.731 297.709,455.889 292.496,450.539 278.769 C 445.087 264.776,434.163 249.716,423.042 240.857 L 418.358 237.126 424.495 230.909 C 456.956 198.023,458.190 146.389,427.340 111.862 C 418.115 101.538,403.717 92.151,389.900 87.453 C 378.192 83.472,362.400 82.268,349.071 84.340 M371.738 121.733 C 389.018 124.610,404.875 138.943,410.033 156.348 C 412.270 163.895,412.125 176.867,409.715 184.654 C 405.260 199.051,392.095 212.336,377.805 216.854 C 369.758 219.398,355.486 219.363,347.820 216.779 C 340.278 214.238,335.492 211.337,329.486 205.668 C 318.740 195.524,314.095 184.790,314.074 170.055 C 314.057 157.485,316.513 150.130,324.100 140.038 C 334.935 125.624,353.125 118.635,371.738 121.733 M375.663 258.293 C 390.916 261.482,405.457 272.905,413.289 287.851 C 418.100 297.034,418.952 301.690,419.522 321.905 L 420.035 340.110 362.811 340.110 L 305.588 340.110 306.106 322.333 C 306.443 310.761,307.092 302.644,307.965 299.077 C 312.613 280.099,330.633 262.445,349.534 258.352 C 356.875 256.762,368.216 256.737,375.663 258.293 " stroke="none" fill-rule="evenodd" fill="black"></path></svg>