<svg width="136mm" height="120mm" version="1.1" viewBox="0 0 600 529.4117647058824" xmlns="http://www.w3.org/2000/svg"><path d="M120.795 81.386 L 120.795 101.947 79.245 101.947 L 37.695 101.947 37.695 120.795 L 37.695 139.642 79.245 139.642 L 120.795 139.642 120.795 161.278 L 120.795 182.914 87.438 282.977 C 65.064 350.091,54.415 383.166,55.097 383.421 C 56.640 384.000,89.451 394.939,89.643 394.939 C 89.735 394.939,101.087 361.110,114.869 319.763 L 139.928 244.588 164.932 319.549 C 186.988 385.670,190.128 394.480,191.561 394.252 C 194.913 393.718,224.459 383.632,224.937 382.858 C 225.211 382.415,210.373 336.849,191.963 281.600 L 158.490 181.149 158.489 160.396 L 158.489 139.642 200.039 139.642 L 241.589 139.642 241.589 120.795 L 241.589 101.947 200.039 101.947 L 158.489 101.947 158.489 81.386 L 158.489 60.826 139.642 60.826 L 120.795 60.826 120.795 81.386 M347.597 84.398 C 335.650 86.661,324.321 91.308,313.630 98.329 C 307.469 102.374,295.132 114.711,291.086 120.872 C 273.083 148.287,271.049 180.811,285.540 209.561 C 289.420 217.258,297.794 228.418,303.311 233.244 L 307.553 236.955 303.226 240.256 C 292.497 248.437,281.079 263.844,275.375 277.837 C 270.077 290.830,268.922 297.846,268.398 320.192 L 267.931 340.110 258.616 340.110 L 249.300 340.110 249.300 358.957 L 249.300 377.805 362.812 377.805 L 476.325 377.805 476.325 358.957 L 476.325 340.110 466.901 340.110 L 457.478 340.110 457.478 325.941 C 457.478 301.178,455.078 288.188,447.628 272.624 C 441.616 260.066,432.808 248.631,423.261 240.991 L 418.297 237.019 424.283 231.034 C 435.334 219.982,443.448 205.412,447.358 189.594 C 450.146 178.316,449.961 160.348,446.939 148.889 C 444.395 139.245,439.556 128.466,434.292 120.715 C 429.470 113.613,419.058 103.179,412.178 98.554 C 404.467 93.371,392.339 87.871,383.802 85.687 C 374.230 83.238,356.966 82.624,347.597 84.398 M377.866 123.291 C 400.919 130.504,415.822 155.666,410.873 179.020 C 406.965 197.465,393.870 211.817,376.150 217.077 C 369.964 218.914,355.702 218.921,349.475 217.091 C 332.214 212.018,318.460 197.360,314.814 180.153 C 308.179 148.840,332.820 119.595,364.526 121.151 C 368.853 121.364,374.707 122.303,377.866 123.291 M376.462 258.709 C 392.723 262.868,405.889 273.398,413.286 288.161 C 418.325 298.218,419.181 303.138,419.273 322.548 L 419.355 339.682 362.493 339.902 L 305.632 340.122 306.045 321.911 C 306.423 305.253,306.649 303.116,308.690 296.847 C 315.512 275.895,331.083 262.211,353.389 257.566 C 358.318 256.539,370.299 257.132,376.462 258.709 " stroke="none" fill-rule="evenodd" fill="black"></path></svg>