<svg width="136mm" height="120mm" version="1.1" viewBox="0 0 600 529.4117647058824" xmlns="http://www.w3.org/2000/svg"><path d="M228.739 35.615 C 187.723 40.877,149.718 59.162,119.860 87.999 C 102.793 104.482,90.887 120.766,80.537 141.784 C 67.080 169.110,60.840 195.978,60.840 226.597 C 60.840 277.152,79.660 323.730,114.798 360.136 C 146.736 393.227,187.471 413.083,233.732 418.109 C 247.143 419.566,272.398 418.749,285.709 416.428 C 317.392 410.903,348.743 396.834,373.521 377.024 C 381.440 370.692,394.114 358.112,401.647 349.105 C 419.992 327.173,435.222 296.225,441.084 268.970 C 446.949 241.702,446.983 211.468,441.179 184.619 C 435.181 156.876,420.096 126.146,401.647 104.089 C 383.168 81.996,362.577 65.846,337.111 53.475 C 316.718 43.567,296.011 37.566,273.964 35.171 C 262.841 33.964,239.852 34.189,228.739 35.615 M238.163 140.070 L 238.163 207.321 168.754 207.321 L 99.345 207.321 99.747 205.394 C 99.969 204.334,100.769 200.189,101.526 196.184 C 107.994 161.952,127.718 129.231,155.601 106.479 C 173.936 91.518,200.098 79.134,221.885 75.103 C 225.890 74.361,229.938 73.589,230.881 73.387 C 231.823 73.184,233.847 72.974,235.378 72.919 L 238.163 72.820 238.163 140.070 M286.717 75.466 C 309.888 80.486,333.805 92.227,352.104 107.564 C 381.652 132.331,399.575 164.166,406.457 204.109 L 407.010 207.321 341.434 207.321 L 275.857 207.321 275.857 140.499 C 275.857 81.331,276.006 73.676,277.157 73.676 C 277.872 73.676,282.174 74.481,286.717 75.466 M238.163 313.242 L 238.163 380.611 233.237 380.033 C 217.720 378.213,199.601 372.691,184.619 365.216 C 153.380 349.629,129.032 325.012,114.031 293.848 C 106.660 278.535,103.370 268.000,99.917 248.657 L 99.420 245.873 168.791 245.873 L 238.163 245.873 238.163 313.242 M406.457 249.086 C 402.351 272.914,394.697 293.041,382.917 310.982 C 363.806 340.089,336.199 361.661,303.621 372.945 C 295.699 375.689,280.282 379.518,277.157 379.518 C 276.006 379.518,275.857 371.864,275.857 312.695 L 275.857 245.873 341.434 245.873 L 407.010 245.873 406.457 249.086 " stroke="none" fill-rule="evenodd" fill="black"></path></svg>