<svg width="136mm" height="120mm" version="1.1" viewBox="0 0 600 529.4117647058824" xmlns="http://www.w3.org/2000/svg"><path d="M229.596 35.511 C 193.131 40.238,157.560 55.579,130.264 78.351 C 120.893 86.169,105.882 101.969,98.893 111.371 C 73.445 145.604,60.740 183.974,60.740 226.597 C 60.740 277.154,79.206 323.216,113.941 359.305 C 131.001 377.030,147.219 388.947,168.342 399.278 C 196.121 412.865,222.325 418.929,253.155 418.905 C 275.932 418.887,293.706 416.096,313.930 409.363 C 383.425 386.224,432.961 326.853,444.263 253.155 C 446.237 240.280,446.237 212.914,444.263 200.039 C 431.211 114.932,367.041 49.763,283.071 36.338 C 271.343 34.463,241.267 33.998,229.596 35.511 M238.163 140.499 L 238.163 208.178 168.731 208.178 L 99.300 208.178 99.817 204.965 C 105.439 170.077,119.991 141.137,143.875 117.350 C 156.861 104.415,168.527 96.104,186.012 87.329 C 200.603 80.007,222.853 73.525,235.378 72.948 L 238.163 72.820 238.163 140.499 M286.566 75.413 C 307.528 80.036,328.961 89.942,346.535 103.131 C 355.319 109.723,370.019 124.421,376.625 133.217 C 387.084 147.143,396.688 165.701,401.235 180.769 C 403.385 187.893,406.933 204.110,406.933 206.813 C 406.933 208.050,400.778 208.178,341.395 208.178 L 275.857 208.178 275.857 140.927 C 275.857 77.443,275.941 73.677,277.357 73.695 C 278.181 73.705,282.325 74.478,286.566 75.413 M238.163 313.124 L 238.163 380.375 235.623 380.375 C 234.226 380.375,229.138 379.610,224.317 378.675 C 193.695 372.739,166.326 358.239,144.300 336.282 C 120.060 312.117,105.767 283.920,99.885 248.657 L 99.420 245.873 168.791 245.873 L 238.163 245.873 238.163 313.124 M406.933 246.809 C 406.933 249.151,403.216 265.861,401.235 272.426 C 398.422 281.749,391.810 296.396,386.181 305.777 C 373.269 327.293,353.805 346.762,332.400 359.572 C 318.694 367.775,300.173 375.053,285.103 378.158 C 281.471 378.906,277.905 379.518,277.179 379.518 C 275.999 379.518,275.857 372.334,275.857 312.695 L 275.857 245.873 341.395 245.873 C 388.230 245.873,406.933 246.140,406.933 246.809 " stroke="none" fill-rule="evenodd" fill="black"></path></svg>