<svg width="136mm" height="120mm" version="1.1" viewBox="0 0 600 529.4117647058824" xmlns="http://www.w3.org/2000/svg"><path d="M229.596 35.565 C 196.481 39.657,165.057 52.298,137.827 72.482 C 127.438 80.182,107.929 99.397,100.498 109.248 C 87.067 127.053,77.114 146.008,70.358 166.649 C 63.528 187.514,60.840 204.446,60.840 226.597 C 60.840 248.635,63.531 265.687,70.247 286.210 C 80.055 316.179,94.694 339.905,117.282 362.444 C 134.310 379.435,147.578 389.041,167.995 399.161 C 186.790 408.478,207.040 414.608,229.167 417.677 C 242.120 419.474,272.117 419.033,283.996 416.872 C 318.292 410.630,347.815 397.453,373.521 376.911 C 385.762 367.130,400.435 351.650,410.028 338.397 C 451.365 281.287,457.268 202.141,424.878 139.293 C 398.065 87.268,350.792 50.968,293.226 38.200 C 276.219 34.428,248.192 33.267,229.596 35.565 M238.163 140.504 L 238.163 208.188 168.984 207.969 L 99.806 207.750 100.079 204.751 C 101.586 188.205,110.357 163.828,121.274 145.848 C 133.123 126.330,152.344 106.983,171.585 95.206 C 187.044 85.744,206.587 77.933,221.885 75.103 C 225.890 74.361,229.938 73.589,230.881 73.387 C 231.823 73.184,233.847 72.974,235.378 72.919 L 238.163 72.820 238.163 140.504 M286.335 75.367 C 348.926 89.208,396.276 140.103,406.505 204.537 L 407.083 208.178 341.470 208.178 L 275.857 208.178 275.857 140.927 C 275.857 77.443,275.941 73.677,277.357 73.695 C 278.181 73.705,282.222 74.458,286.335 75.367 M238.163 313.124 L 238.163 380.375 235.623 380.375 C 231.385 380.375,216.071 377.137,206.938 374.310 C 152.331 357.408,109.644 308.510,100.693 252.608 L 99.615 245.873 168.889 245.873 L 238.163 245.873 238.163 313.124 M406.457 249.086 C 403.472 266.408,399.087 280.293,392.108 294.521 C 373.411 332.634,340.202 361.313,299.845 374.198 C 292.069 376.681,279.981 379.518,277.179 379.518 C 275.999 379.518,275.857 372.334,275.857 312.695 L 275.857 245.873 341.434 245.873 L 407.010 245.873 406.457 249.086 " stroke="none" fill-rule="evenodd" fill="black"></path></svg>