<svg width="136mm" height="120mm" version="1.1" viewBox="0 0 600 529.4117647058824" xmlns="http://www.w3.org/2000/svg"><path d="M319.549 54.741 C 295.271 59.977,274.511 75.501,263.092 96.958 C 247.437 126.375,250.864 161.865,271.890 188.053 C 280.961 199.352,291.899 207.414,305.714 212.986 C 319.147 218.404,323.370 218.892,356.387 218.844 C 385.503 218.803,386.066 218.769,394.184 216.566 C 427.623 207.494,450.760 182.158,456.216 148.637 C 457.821 138.774,457.805 132.320,456.151 122.835 C 450.276 89.147,427.927 64.948,393.654 55.168 C 389.323 53.932,383.654 53.659,357.672 53.436 C 330.339 53.201,326.003 53.349,319.549 54.741 M336.683 104.089 L 336.683 117.368 316.122 117.368 C 301.965 117.368,295.562 117.080,295.562 116.442 C 295.562 114.561,301.845 106.132,306.098 102.308 C 313.375 95.765,324.603 90.997,333.042 90.867 L 336.683 90.810 336.683 104.089 M386.441 92.381 C 389.542 93.190,394.304 95.192,397.022 96.829 C 402.702 100.250,411.262 108.994,413.800 113.969 L 415.534 117.368 394.956 117.368 L 374.378 117.368 374.378 104.089 L 374.378 90.810 377.591 90.860 C 379.357 90.887,383.340 91.571,386.441 92.381 M120.923 144.860 C 115.664 145.766,104.833 149.347,99.806 151.843 C 83.526 159.923,68.134 175.498,60.792 191.320 C 54.381 205.135,51.597 224.262,53.877 238.832 C 58.547 268.678,79.103 293.925,107.319 304.468 C 118.119 308.503,124.182 309.327,147.017 309.862 C 185.208 310.756,200.150 308.018,218.081 296.842 C 236.352 285.455,248.715 268.099,255.000 245.016 C 256.135 240.846,256.516 236.221,256.516 226.597 C 256.516 210.214,254.221 200.961,246.675 186.911 C 236.104 167.229,219.353 153.886,196.184 146.690 C 188.923 144.435,188.814 144.428,157.204 144.249 C 139.771 144.151,123.444 144.426,120.923 144.860 M336.683 167.863 C 336.683 175.011,336.324 180.884,335.870 181.165 C 334.153 182.226,323.126 179.715,317.155 176.902 C 310.197 173.625,302.296 166.693,298.146 160.225 C 296.725 158.010,295.562 155.942,295.562 155.630 C 295.562 155.318,304.814 155.063,316.122 155.063 L 336.683 155.063 336.683 167.863 M413.598 158.585 C 410.777 163.671,402.089 172.270,396.637 175.372 C 391.670 178.199,385.178 180.271,378.447 181.177 L 374.378 181.725 374.378 168.394 L 374.378 155.063 394.964 155.063 L 415.551 155.063 413.598 158.585 M136.023 194.685 L 135.787 207.750 115.440 207.979 C 104.250 208.106,95.094 207.994,95.094 207.731 C 95.094 205.668,99.732 199.083,104.435 194.471 C 112.561 186.501,122.602 181.876,132.168 181.697 L 136.260 181.620 136.023 194.685 M185.588 182.811 C 195.976 185.577,207.398 194.173,212.693 203.208 C 213.979 205.403,215.032 207.419,215.032 207.688 C 215.032 207.958,205.779 208.178,194.471 208.178 L 173.910 208.178 173.910 194.899 L 173.910 181.620 177.551 181.631 C 179.554 181.636,183.170 182.167,185.588 182.811 M327.688 234.777 C 291.346 238.463,261.064 266.744,254.459 303.164 C 253.245 309.863,253.239 323.597,254.448 331.168 C 259.887 365.232,288.036 393.126,323.140 399.239 C 326.900 399.894,338.711 400.100,359.056 399.867 C 393.722 399.470,394.951 399.272,410.788 391.533 C 435.037 379.681,451.397 357.619,456.151 330.359 C 457.805 320.874,457.821 314.420,456.216 304.557 C 450.632 270.253,425.351 243.484,391.512 236.046 C 383.867 234.365,340.287 233.499,327.688 234.777 M136.215 258.723 L 136.215 271.574 132.022 271.574 C 119.487 271.574,102.738 260.926,96.721 249.130 L 95.059 245.873 115.637 245.873 L 136.215 245.873 136.215 258.723 M213.224 249.086 C 205.424 261.953,192.795 270.238,179.264 271.363 L 173.910 271.808 173.910 258.841 L 173.910 245.873 194.541 245.873 L 215.171 245.873 213.224 249.086 M336.683 285.281 L 336.683 298.132 316.122 298.132 C 304.814 298.132,295.562 297.876,295.562 297.564 C 295.562 295.885,301.512 288.142,305.983 284.003 C 313.782 276.782,323.364 272.567,332.185 272.477 L 336.683 272.431 336.683 285.281 M388.942 274.438 C 392.005 275.522,396.245 277.503,398.365 278.841 C 403.170 281.872,411.010 289.999,413.598 294.634 L 415.551 298.132 394.964 298.132 L 374.378 298.132 374.378 285.281 L 374.378 272.431 378.876 272.449 C 381.349 272.459,385.879 273.354,388.942 274.438 M336.683 349.105 L 336.683 362.384 332.861 362.384 C 323.803 362.384,310.559 356.055,303.428 348.318 C 299.757 344.336,295.562 338.140,295.562 336.700 C 295.562 336.131,302.719 335.826,316.122 335.826 L 336.683 335.826 336.683 349.105 M413.800 339.225 C 411.281 344.163,402.717 352.936,397.135 356.297 C 391.788 359.517,382.589 362.384,377.609 362.384 L 374.378 362.384 374.378 349.105 L 374.378 335.826 394.956 335.826 L 415.534 335.826 413.800 339.225 " stroke="none" fill-rule="evenodd" fill="black"></path></svg>