<svg width="136mm" height="120mm" version="1.1" viewBox="0 0 600 529.4117647058824" xmlns="http://www.w3.org/2000/svg"><path d="M107.300 230.241 C 80.325 311.168,58.256 377.834,58.256 378.386 C 58.256 379.384,92.973 391.389,93.650 390.626 C 93.845 390.406,114.198 329.605,138.881 255.511 L 183.758 120.795 233.643 120.795 L 283.527 120.795 283.763 222.528 L 284.000 324.261 286.287 332.545 C 294.020 360.550,311.481 382.069,336.255 394.125 C 355.884 403.677,375.596 406.271,396.622 402.068 C 434.200 394.557,463.338 364.973,470.884 326.670 C 472.132 320.331,472.379 313.835,472.420 286.138 L 472.470 253.155 453.408 252.924 L 434.347 252.694 434.347 285.128 C 434.347 314.623,434.194 318.161,432.655 324.179 C 427.745 343.373,411.796 359.348,392.294 364.602 C 383.952 366.849,370.493 366.663,362.384 364.189 C 352.126 361.059,346.402 357.569,338.372 349.549 C 330.786 341.972,326.489 335.139,323.277 325.546 C 321.779 321.074,321.687 314.786,321.461 201.967 L 321.222 83.100 238.783 83.100 L 156.344 83.100 107.300 230.241 M196.391 158.711 L 183.339 171.783 211.605 200.039 L 239.870 228.295 253.155 215.032 L 266.439 201.768 238.384 173.704 C 222.954 158.268,210.130 145.639,209.886 145.639 C 209.642 145.639,203.569 151.521,196.391 158.711 M196.180 264.296 L 182.917 277.580 211.396 306.058 L 239.874 334.536 253.364 321.047 L 266.854 307.557 238.592 279.285 C 223.048 263.735,210.130 251.013,209.886 251.013 C 209.642 251.013,203.474 256.991,196.180 264.296 " stroke="none" fill-rule="evenodd" fill="black"></path></svg>