<svg width="136mm" height="120mm" version="1.1" viewBox="0 0 600 529.4117647058824" xmlns="http://www.w3.org/2000/svg"><path d="M153.846 83.888 L 124.795 112.948 97.528 99.309 C 82.530 91.808,69.874 85.670,69.402 85.670 C 68.692 85.670,52.259 117.275,52.259 118.641 C 52.259 118.880,61.993 123.938,73.890 129.882 C 85.788 135.826,95.697 140.854,95.912 141.055 C 96.126 141.256,86.106 151.621,73.646 164.089 L 50.990 186.756 64.253 200.040 L 77.516 213.324 104.724 186.125 L 131.933 158.927 170.958 178.434 C 192.423 189.163,210.252 197.771,210.580 197.563 C 211.515 196.970,227.430 164.602,226.990 164.188 C 226.774 163.985,211.851 156.451,193.828 147.445 C 175.806 138.439,161.060 130.780,161.060 130.425 C 161.060 130.069,172.046 118.798,185.473 105.376 L 209.887 80.974 196.835 67.901 C 189.656 60.711,183.583 54.829,183.339 54.829 C 183.096 54.829,169.823 67.906,153.846 83.888 M340.967 113.677 C 316.259 114.989,292.215 123.814,272.370 138.854 C 224.495 175.135,209.454 240.156,236.494 293.937 C 250.185 321.167,274.107 342.973,302.255 353.883 C 326.344 363.219,352.701 364.956,377.376 358.833 C 430.178 345.731,468.138 300.724,471.927 246.730 C 474.403 211.437,462.168 177.553,437.776 152.154 C 412.280 125.605,377.398 111.742,340.967 113.677 M328.973 186.332 L 328.973 219.315 295.990 219.315 C 273.063 219.315,263.007 219.035,263.007 218.395 C 263.007 216.489,267.407 204.471,269.976 199.360 C 278.077 183.246,290.679 170.216,306.331 161.773 C 312.496 158.448,325.474 153.387,327.902 153.361 C 328.740 153.352,328.973 160.511,328.973 186.332 M375.968 155.907 C 402.606 165.301,422.567 186.048,430.889 212.990 C 431.848 216.097,432.634 218.791,432.634 218.977 C 432.634 219.163,417.791 219.315,399.651 219.315 L 366.668 219.315 366.668 186.332 C 366.668 160.508,366.900 153.353,367.738 153.366 C 368.327 153.375,372.031 154.519,375.968 155.907 M117.368 279.284 C 117.368 322.633,117.168 358.101,116.924 358.101 C 116.680 358.101,112.591 356.149,107.839 353.764 C 103.086 351.379,99.088 349.548,98.955 349.695 C 98.249 350.473,82.183 383.167,82.407 383.371 C 82.552 383.504,98.960 391.752,118.867 401.700 L 155.063 419.787 155.063 310.127 L 155.063 200.468 136.215 200.468 L 117.368 200.468 117.368 279.284 M178.039 260.330 C 168.766 263.451,160.919 266.270,160.602 266.594 C 160.157 267.048,188.464 353.996,189.883 356.533 C 190.226 357.147,223.528 346.344,224.766 345.216 C 225.431 344.610,196.715 256.470,195.435 255.189 C 195.140 254.895,187.312 257.208,178.039 260.330 M53.701 300.228 L 38.721 345.159 56.673 351.150 C 69.017 355.270,74.746 356.823,75.011 356.122 C 76.305 352.693,104.517 267.630,104.517 267.157 C 104.517 266.555,71.446 255.297,69.679 255.297 C 69.122 255.297,62.053 275.177,53.701 300.228 M328.973 289.565 C 328.973 326.909,329.977 323.526,319.913 320.099 C 293.319 311.042,272.265 289.098,264.373 262.209 C 263.621 259.650,263.007 257.433,263.007 257.283 C 263.007 257.133,277.849 257.010,295.990 257.010 L 328.973 257.010 328.973 289.565 M431.358 261.079 C 427.429 275.347,420.482 287.319,409.674 298.448 C 398.782 309.663,386.620 316.958,371.164 321.548 L 366.668 322.884 366.668 289.947 L 366.668 257.010 399.573 257.010 L 432.478 257.010 431.358 261.079 " stroke="none" fill-rule="evenodd" fill="black"></path></svg>