<svg width="136mm" height="120mm" version="1.1" viewBox="0 0 600 529.4117647058824" xmlns="http://www.w3.org/2000/svg"><path d="M153.846 83.888 L 124.795 112.948 97.528 99.309 C 82.530 91.808,69.964 85.670,69.602 85.670 C 69.240 85.670,65.191 93.187,60.605 102.374 L 52.266 119.078 73.894 129.884 C 85.789 135.827,95.697 140.854,95.912 141.055 C 96.126 141.256,86.106 151.621,73.646 164.089 L 50.990 186.756 64.253 200.040 L 77.516 213.324 104.724 186.125 L 131.933 158.927 170.958 178.434 C 192.423 189.163,210.252 197.771,210.580 197.563 C 211.515 196.970,227.430 164.602,226.990 164.188 C 226.774 163.985,211.851 156.451,193.828 147.445 C 175.806 138.439,161.060 130.780,161.060 130.425 C 161.060 130.069,172.046 118.798,185.473 105.376 L 209.887 80.974 196.835 67.901 C 189.656 60.711,183.583 54.829,183.339 54.829 C 183.096 54.829,169.823 67.906,153.846 83.888 M333.685 114.005 C 278.748 120.563,234.530 162.290,224.813 216.745 C 222.884 227.556,222.830 247.934,224.703 258.295 C 227.592 274.271,233.974 291.218,241.804 303.700 C 261.421 334.975,293.385 355.767,330.196 361.199 C 341.331 362.842,361.387 362.397,371.808 360.276 C 416.005 351.278,452.167 319.097,466.189 276.286 C 470.669 262.608,472.312 250.108,471.764 233.879 C 471.243 218.464,470.058 211.592,465.610 198.196 C 455.418 167.502,431.279 139.951,402.280 125.915 C 381.948 116.073,355.226 111.434,333.685 114.005 M328.973 186.332 L 328.973 219.315 295.990 219.315 C 277.161 219.315,263.007 218.986,263.007 218.549 C 263.007 216.316,267.066 205.169,270.059 199.183 C 280.291 178.721,299.237 162.368,320.814 155.376 C 324.123 154.303,327.313 153.409,327.902 153.388 C 328.741 153.358,328.973 160.497,328.973 186.332 M375.084 155.545 C 388.052 159.876,402.326 169.075,411.353 178.919 C 420.502 188.896,429.885 206.086,431.415 215.674 L 431.996 219.315 399.332 219.315 L 366.668 219.315 366.668 186.332 C 366.668 163.406,366.948 153.349,367.587 153.349 C 368.093 153.349,371.467 154.338,375.084 155.545 M117.368 279.284 C 117.368 322.633,117.168 358.101,116.924 358.101 C 116.680 358.101,112.632 356.170,107.929 353.810 L 99.379 349.519 91.056 366.191 C 86.478 375.361,82.912 383.032,83.130 383.238 C 83.709 383.783,154.117 418.926,154.630 418.926 C 154.868 418.926,155.063 369.773,155.063 309.697 L 155.063 200.468 136.215 200.468 L 117.368 200.468 117.368 279.284 M69.088 255.151 C 67.386 258.196,39.400 344.712,39.954 345.216 C 41.192 346.344,74.494 357.147,74.838 356.533 C 76.540 353.488,104.525 266.972,103.971 266.468 C 102.733 265.340,69.432 254.537,69.088 255.151 M178.039 260.330 C 168.766 263.451,160.919 266.270,160.602 266.594 C 160.157 267.048,188.464 353.996,189.883 356.533 C 190.226 357.147,223.528 346.344,224.766 345.216 C 225.431 344.610,196.715 256.470,195.435 255.189 C 195.140 254.895,187.312 257.208,178.039 260.330 M328.973 289.565 C 328.973 326.915,329.916 323.613,320.195 320.285 C 300.551 313.561,283.081 299.419,272.795 281.917 C 269.473 276.263,264.861 265.139,263.359 259.153 L 262.821 257.010 295.897 257.010 L 328.973 257.010 328.973 289.565 M431.221 261.508 C 422.738 290.412,400.070 313.080,371.165 321.563 L 366.668 322.884 366.668 289.947 L 366.668 257.010 399.604 257.010 L 432.541 257.010 431.221 261.508 " stroke="none" fill-rule="evenodd" fill="black"></path></svg>