<svg width="136mm" height="120mm" version="1.1" viewBox="0 0 600 529.4117647058824" xmlns="http://www.w3.org/2000/svg"><path d="M153.846 83.888 L 124.795 112.948 97.528 99.309 C 82.530 91.808,69.874 85.670,69.402 85.670 C 68.692 85.670,52.259 117.275,52.259 118.641 C 52.259 118.880,61.993 123.938,73.890 129.882 C 85.788 135.826,95.697 140.854,95.912 141.055 C 96.126 141.256,86.106 151.621,73.646 164.089 L 50.990 186.756 64.253 200.040 L 77.516 213.324 104.722 186.127 L 131.929 158.931 171.296 178.600 C 192.948 189.418,210.832 198.089,211.038 197.869 C 211.244 197.649,215.120 190.050,219.650 180.981 L 227.887 164.493 194.473 147.782 C 176.096 138.591,161.060 130.780,161.060 130.425 C 161.060 130.069,172.046 118.798,185.473 105.376 L 209.887 80.974 196.835 67.901 C 189.656 60.711,183.583 54.829,183.339 54.829 C 183.096 54.829,169.823 67.906,153.846 83.888 M340.967 113.670 C 299.687 115.920,261.842 138.790,240.574 174.338 C 235.478 182.857,233.273 187.753,229.645 198.605 C 218.848 230.906,221.551 265.345,237.227 295.209 C 242.611 305.465,246.506 311.243,253.462 319.288 C 260.490 327.418,270.480 336.149,279.662 342.188 C 326.090 372.721,388.091 368.270,429.786 331.409 C 468.656 297.047,482.269 243.119,464.344 194.505 C 453.581 165.315,431.766 141.001,403.660 126.869 C 384.228 117.099,362.396 112.503,340.967 113.670 M328.973 186.332 L 328.973 219.315 295.990 219.315 C 273.063 219.315,263.007 219.035,263.007 218.395 C 263.007 216.489,267.407 204.471,269.976 199.360 C 278.077 183.246,290.679 170.216,306.331 161.773 C 312.496 158.448,325.474 153.387,327.902 153.361 C 328.740 153.352,328.973 160.511,328.973 186.332 M376.520 156.132 C 402.092 164.599,423.879 188.085,431.358 215.246 L 432.478 219.315 399.573 219.315 L 366.668 219.315 366.668 186.316 L 366.668 153.317 369.024 153.873 C 370.319 154.179,373.693 155.196,376.520 156.132 M117.368 279.284 C 117.368 322.633,117.168 358.101,116.924 358.101 C 116.680 358.101,112.635 356.171,107.935 353.813 L 99.390 349.525 91.245 365.798 C 86.765 374.748,83.100 382.460,83.100 382.934 C 83.100 383.409,99.292 391.895,119.081 401.792 L 155.063 419.787 155.063 310.127 L 155.063 200.468 136.215 200.468 L 117.368 200.468 117.368 279.284 M69.088 255.151 C 67.386 258.196,39.400 344.712,39.954 345.216 C 41.192 346.344,74.494 357.147,74.838 356.533 C 76.540 353.488,104.525 266.972,103.971 266.468 C 102.733 265.340,69.432 254.537,69.088 255.151 M178.039 260.330 C 168.766 263.451,160.919 266.270,160.602 266.594 C 160.157 267.048,188.464 353.996,189.883 356.533 C 190.226 357.147,223.528 346.344,224.766 345.216 C 225.431 344.610,196.715 256.470,195.435 255.189 C 195.140 254.895,187.312 257.208,178.039 260.330 M328.973 289.565 C 328.973 326.914,329.918 323.603,320.195 320.298 C 297.802 312.687,277.894 294.705,268.604 273.699 C 266.806 269.632,263.007 258.535,263.007 257.348 C 263.007 257.162,277.849 257.010,295.990 257.010 L 328.973 257.010 328.973 289.565 M430.740 262.793 C 426.593 276.676,418.628 289.724,408.083 299.910 C 397.250 310.373,386.001 317.059,372.450 321.090 L 366.668 322.809 366.668 289.910 L 366.668 257.010 399.567 257.010 L 432.467 257.010 430.740 262.793 " stroke="none" fill-rule="evenodd" fill="black"></path></svg>