<svg width="136mm" height="120mm" version="1.1" viewBox="0 0 600 529.4117647058824" xmlns="http://www.w3.org/2000/svg"><path d="M245.261 49.716 C 222.821 52.538,203.139 61.899,186.898 77.473 C 167.013 96.542,156.580 119.381,155.370 146.496 C 153.208 194.913,184.867 237.543,232.166 249.904 C 242.265 252.544,260.833 253.492,271.598 251.918 C 323.441 244.337,360.988 198.867,358.650 146.496 C 357.009 109.729,335.564 76.572,302.734 60.042 C 285.497 51.363,263.535 47.417,245.261 49.716 M238.163 110.943 L 238.163 131.932 217.173 131.932 C 200.953 131.932,196.184 131.689,196.185 130.861 C 196.186 129.040,201.058 119.379,204.599 114.177 C 208.384 108.615,215.139 101.973,221.293 97.762 C 225.616 94.803,235.262 90.060,237.092 89.993 C 237.920 89.962,238.163 94.701,238.163 110.943 M284.319 93.037 C 293.704 97.237,303.619 105.722,309.973 114.990 C 313.009 119.419,317.834 129.158,317.835 130.861 C 317.836 131.689,313.067 131.932,296.847 131.932 L 275.857 131.932 275.857 110.885 L 275.857 89.838 277.785 90.407 C 278.845 90.720,281.785 91.903,284.319 93.037 M238.163 191.006 L 238.163 212.386 234.889 211.231 C 225.024 207.750,214.512 200.338,207.661 192.032 C 203.096 186.498,196.184 173.888,196.184 171.094 C 196.184 169.749,197.929 169.627,217.173 169.627 L 238.163 169.627 238.163 191.006 M317.836 171.094 C 317.836 173.888,310.924 186.498,306.359 192.032 C 299.508 200.338,288.996 207.750,279.131 211.231 L 275.857 212.386 275.857 191.006 L 275.857 169.627 296.847 169.627 C 316.091 169.627,317.836 169.749,317.836 171.094 M147.352 262.566 L 147.352 279.259 121.009 279.486 L 94.665 279.713 94.434 298.346 L 94.204 316.979 120.660 316.979 L 147.117 316.979 147.581 327.045 C 148.295 342.553,151.632 350.363,162.232 361.341 C 181.385 381.176,215.616 392.369,257.126 392.369 C 298.655 392.369,332.557 381.268,351.745 361.388 C 362.392 350.357,365.724 342.570,366.439 327.045 L 366.903 316.979 393.360 316.979 L 419.816 316.979 419.586 298.346 L 419.355 279.713 393.011 279.486 L 366.668 279.259 366.668 262.566 L 366.668 245.873 347.820 245.873 L 328.973 245.873 328.973 262.579 L 328.973 279.284 257.010 279.284 L 185.047 279.284 185.047 262.579 L 185.047 245.873 166.200 245.873 L 147.352 245.873 147.352 262.566 M328.970 323.190 C 328.966 330.454,327.693 333.110,322.000 337.733 C 314.264 344.015,301.619 349.106,285.755 352.324 C 277.538 353.991,273.679 354.242,256.582 354.219 C 238.558 354.194,235.997 354.000,226.560 351.942 C 206.412 347.547,190.451 339.401,186.256 331.371 C 185.549 330.018,185.047 326.553,185.047 323.018 L 185.047 316.979 257.010 316.979 L 328.973 316.979 328.970 323.190 " stroke="none" fill-rule="evenodd" fill="black"></path></svg>