<svg width="136mm" height="120mm" version="1.1" viewBox="0 0 600 529.4117647058824" xmlns="http://www.w3.org/2000/svg"><path d="M248.015 49.773 C 223.268 51.742,200.813 62.669,182.889 81.465 C 165.588 99.608,156.443 121.486,155.351 147.352 C 153.336 195.063,184.830 237.143,232.166 249.985 C 239.608 252.004,241.733 252.193,257.010 252.193 C 272.287 252.193,274.412 252.004,281.854 249.985 C 329.190 237.143,360.684 195.063,358.669 147.352 C 357.577 121.486,348.432 99.608,331.131 81.465 C 309.012 58.271,280.040 47.224,248.015 49.773 M238.163 110.943 L 238.163 131.932 216.770 131.932 L 195.377 131.932 197.656 126.577 C 202.435 115.349,209.999 105.888,219.796 98.885 C 225.007 95.161,235.088 89.955,237.092 89.954 C 237.919 89.954,238.163 94.722,238.163 110.943 M283.515 92.564 C 298.433 99.622,309.980 111.577,316.364 126.577 L 318.643 131.932 297.250 131.932 L 275.857 131.932 275.857 110.943 C 275.857 94.722,276.101 89.954,276.928 89.954 C 277.517 89.955,280.481 91.129,283.515 92.564 M238.163 191.530 L 238.163 212.577 236.235 211.997 C 227.058 209.236,214.683 200.537,207.452 191.765 C 203.145 186.540,196.184 174.126,196.184 171.669 C 196.184 170.691,199.868 170.483,217.173 170.483 L 238.163 170.483 238.163 191.530 M317.836 171.669 C 317.836 174.126,310.875 186.540,306.568 191.765 C 299.337 200.537,286.962 209.236,277.785 211.997 L 275.857 212.577 275.857 191.530 L 275.857 170.483 296.847 170.483 C 314.152 170.483,317.836 170.691,317.836 171.669 M147.352 262.566 L 147.352 279.259 121.009 279.486 L 94.665 279.713 94.434 298.346 L 94.204 316.979 120.652 316.979 L 147.100 316.979 147.577 327.045 C 148.347 343.327,152.550 352.292,164.831 363.855 C 179.241 377.423,202.660 387.129,230.510 391.076 C 243.647 392.938,270.373 392.938,283.510 391.076 C 311.360 387.129,334.779 377.423,349.189 363.855 C 361.470 352.292,365.673 343.327,366.443 327.045 L 366.920 316.979 393.368 316.979 L 419.816 316.979 419.586 298.346 L 419.355 279.713 393.011 279.486 L 366.668 279.259 366.668 262.566 L 366.668 245.873 347.820 245.873 L 328.973 245.873 328.973 262.579 L 328.973 279.284 257.010 279.284 L 185.047 279.284 185.047 262.579 L 185.047 245.873 166.200 245.873 L 147.352 245.873 147.352 262.566 M328.973 322.575 C 328.973 325.653,328.445 329.435,327.799 330.980 C 324.427 339.051,306.426 348.251,285.281 352.710 C 274.757 354.929,239.263 354.929,228.739 352.710 C 207.594 348.251,189.593 339.051,186.221 330.980 C 185.575 329.435,185.047 325.653,185.047 322.575 L 185.047 316.979 257.010 316.979 L 328.973 316.979 328.973 322.575 " stroke="none" fill-rule="evenodd" fill="black"></path></svg>