<svg width="136mm" height="120mm" version="1.1" viewBox="0 0 600 529.4117647058824" xmlns="http://www.w3.org/2000/svg"><path d="M248.015 49.773 C 210.716 52.741,176.812 77.590,162.680 112.314 C 149.903 143.712,153.395 179.129,172.047 207.321 C 187.265 230.322,212.253 246.690,239.346 251.403 C 255.314 254.181,274.593 252.683,289.993 247.469 C 310.698 240.458,329.923 225.597,341.967 207.293 C 375.502 156.331,357.686 88.365,303.513 60.598 C 286.160 51.703,268.077 48.176,248.015 49.773 M238.163 110.943 L 238.163 131.932 216.734 131.932 L 195.305 131.932 196.676 128.719 C 197.430 126.952,198.393 124.630,198.815 123.559 C 201.691 116.273,211.330 104.937,219.796 98.885 C 225.007 95.161,235.088 89.955,237.092 89.954 C 237.919 89.954,238.163 94.722,238.163 110.943 M283.515 92.564 C 290.794 96.008,298.389 101.508,303.846 107.289 C 308.230 111.932,313.720 119.796,315.205 123.559 C 315.627 124.630,316.590 126.952,317.344 128.719 L 318.715 131.932 297.286 131.932 L 275.857 131.932 275.857 110.943 C 275.857 94.722,276.101 89.954,276.928 89.954 C 277.517 89.955,280.481 91.129,283.515 92.564 M238.163 191.530 L 238.163 212.577 236.235 212.030 C 227.522 209.558,214.275 200.226,207.284 191.636 C 203.089 186.482,196.184 174.061,196.184 171.669 C 196.184 170.691,199.868 170.483,217.173 170.483 L 238.163 170.483 238.163 191.530 M317.836 171.669 C 317.836 174.061,310.931 186.482,306.736 191.636 C 299.710 200.269,286.958 209.237,277.785 211.997 L 275.857 212.577 275.857 191.530 L 275.857 170.483 296.847 170.483 C 314.152 170.483,317.836 170.691,317.836 171.669 M147.352 262.579 L 147.352 279.284 120.795 279.284 L 94.237 279.284 94.237 298.132 L 94.237 316.979 120.687 316.979 L 147.137 316.979 147.545 326.617 C 148.020 337.863,149.612 343.883,154.022 351.115 C 166.403 371.421,194.164 385.924,230.510 391.076 C 243.647 392.938,270.373 392.938,283.510 391.076 C 312.547 386.960,337.342 376.383,351.004 362.284 C 362.473 350.447,365.634 343.221,366.416 327.045 L 366.903 316.979 393.343 316.979 L 419.783 316.979 419.783 298.132 L 419.783 279.284 393.225 279.284 L 366.668 279.284 366.668 262.579 L 366.668 245.873 347.820 245.873 L 328.973 245.873 328.973 262.579 L 328.973 279.284 257.010 279.284 L 185.047 279.284 185.047 262.579 L 185.047 245.873 166.200 245.873 L 147.352 245.873 147.352 262.579 M328.973 323.018 C 328.973 326.590,328.470 330.029,327.743 331.436 C 323.548 339.549,305.999 348.341,285.281 352.710 C 274.757 354.929,239.263 354.929,228.739 352.710 C 208.021 348.341,190.472 339.549,186.277 331.436 C 185.550 330.029,185.047 326.590,185.047 323.018 L 185.047 316.979 257.010 316.979 L 328.973 316.979 328.973 323.018 " stroke="none" fill-rule="evenodd" fill="black"></path></svg>