<svg width="136mm" height="120mm" version="1.1" viewBox="0 0 600 529.4117647058824" xmlns="http://www.w3.org/2000/svg"><path d="M227.253 178.408 C 227.499 310.551,227.609 319.512,229.061 325.546 C 238.710 365.662,266.064 396.422,303.413 409.156 C 343.633 422.868,387.050 413.468,417.759 384.399 C 439.168 364.134,450.842 339.320,453.194 309.081 C 453.644 303.295,454.021 287.476,454.032 273.930 L 454.051 249.300 434.838 249.300 L 415.624 249.300 415.303 282.497 L 414.982 315.694 412.660 323.239 C 404.080 351.121,382.846 370.268,353.829 376.288 C 320.295 383.245,284.437 363.921,270.618 331.446 C 265.098 318.475,264.744 314.564,264.732 266.431 L 264.720 223.166 338.823 186.117 L 412.925 149.069 404.585 132.362 C 399.997 123.173,395.949 115.654,395.589 115.654 C 395.229 115.654,365.636 130.305,329.827 148.210 L 264.720 180.766 264.720 109.230 L 264.720 37.695 245.856 37.695 L 226.991 37.695 227.253 178.408 M122.080 119.081 L 73.254 167.913 86.744 181.403 L 100.235 194.893 149.491 145.642 L 198.747 96.392 185.696 83.320 C 178.519 76.131,172.254 70.249,171.776 70.249 C 171.297 70.249,148.934 92.224,122.080 119.081 M122.715 213.539 L 73.669 262.592 86.956 275.858 L 100.243 289.125 149.283 240.086 L 198.322 191.047 185.042 177.767 L 171.762 164.487 122.715 213.539 M122.715 307.776 L 73.669 356.829 86.956 370.095 L 100.243 383.362 149.283 334.323 L 198.322 285.284 185.042 272.004 L 171.762 258.724 122.715 307.776 " stroke="none" fill-rule="evenodd" fill="black"></path></svg>