<svg width="136mm" height="120mm" version="1.1" viewBox="0 0 600 529.4117647058824" xmlns="http://www.w3.org/2000/svg"><path d="M227.029 174.981 C 227.033 325.835,226.824 319.390,232.262 336.471 C 243.095 370.492,270.207 398.102,303.838 409.361 C 316.937 413.747,325.210 415.011,340.538 414.972 C 351.387 414.944,356.121 414.536,363.241 413.017 C 403.020 404.529,434.792 375.994,447.605 337.249 C 452.603 322.136,453.194 316.165,453.194 280.847 L 453.194 249.300 434.347 249.300 L 415.500 249.300 415.493 279.070 C 415.489 295.663,415.090 311.285,414.590 314.363 C 410.697 338.362,394.796 359.473,372.665 370.030 C 361.083 375.555,353.680 377.181,340.110 377.181 C 326.018 377.181,318.828 375.511,306.270 369.321 C 287.310 359.975,273.592 343.419,267.158 322.119 C 265.262 315.843,265.211 314.621,264.934 269.432 L 264.651 223.170 338.788 186.120 L 412.925 149.069 404.585 132.362 C 399.997 123.173,395.949 115.654,395.589 115.654 C 395.229 115.654,365.636 130.305,329.827 148.210 L 264.720 180.766 264.720 109.230 L 264.720 37.695 245.873 37.695 L 227.025 37.695 227.029 174.981 M122.940 119.078 L 74.118 167.906 87.383 181.192 L 100.649 194.479 149.698 145.435 L 198.747 96.392 185.696 83.320 C 178.519 76.131,172.447 70.249,172.204 70.249 C 171.961 70.249,149.793 92.222,122.940 119.078 M122.716 213.539 L 73.669 262.592 86.955 275.857 L 100.241 289.123 149.494 239.876 L 198.747 190.629 185.696 177.557 C 178.519 170.368,172.447 164.486,172.204 164.486 C 171.961 164.486,149.692 186.560,122.716 213.539 M122.715 307.776 L 73.669 356.829 86.956 370.095 L 100.243 383.362 149.283 334.323 L 198.322 285.284 185.042 272.004 L 171.762 258.724 122.715 307.776 " stroke="none" fill-rule="evenodd" fill="black"></path></svg>