<svg width="136mm" height="120mm" version="1.1" viewBox="0 0 600 529.4117647058824" xmlns="http://www.w3.org/2000/svg"><path d="M227.029 174.981 C 227.033 326.903,226.795 319.948,232.582 337.249 C 246.453 378.717,281.327 407.998,324.261 414.225 C 350.044 417.965,378.481 412.038,399.592 398.522 C 422.801 383.665,439.329 362.498,447.716 336.895 C 452.614 321.944,453.187 316.068,453.191 280.783 L 453.194 249.300 434.347 249.300 L 415.500 249.300 415.500 278.744 C 415.500 312.244,414.813 318.517,409.828 330.574 C 400.568 352.970,382.388 368.810,358.382 375.397 C 348.849 378.014,331.371 378.014,321.838 375.397 C 293.039 367.494,272.172 345.693,266.335 317.409 C 264.907 310.494,264.742 305.229,264.732 266.431 L 264.720 223.166 338.823 186.117 L 412.925 149.069 404.585 132.362 C 399.997 123.173,395.949 115.654,395.589 115.654 C 395.229 115.654,365.636 130.305,329.827 148.210 L 264.720 180.766 264.720 109.230 L 264.720 37.695 245.873 37.695 L 227.025 37.695 227.029 174.981 M122.940 119.078 L 74.118 167.906 87.383 181.192 L 100.649 194.479 149.698 145.435 L 198.747 96.392 185.696 83.320 C 178.519 76.131,172.447 70.249,172.204 70.249 C 171.961 70.249,149.793 92.222,122.940 119.078 M122.716 213.539 L 73.669 262.592 86.955 275.857 L 100.241 289.123 149.494 239.876 L 198.747 190.629 185.696 177.557 C 178.519 170.368,172.447 164.486,172.204 164.486 C 171.961 164.486,149.692 186.560,122.716 213.539 M122.715 307.776 L 73.669 356.829 86.956 370.095 L 100.243 383.362 149.283 334.323 L 198.322 285.284 185.042 272.004 L 171.762 258.724 122.715 307.776 " stroke="none" fill-rule="evenodd" fill="black"></path></svg>