<svg width="136mm" height="120mm" version="1.1" viewBox="0 0 600 529.4117647058824" xmlns="http://www.w3.org/2000/svg"><path d="M237.958 72.150 L 237.734 106.605 228.739 107.643 C 195.843 111.437,167.493 123.082,150.101 139.942 C 139.610 150.112,134.554 159.466,132.824 171.902 C 132.333 175.430,131.932 190.819,131.932 206.098 L 131.932 233.879 151.208 233.879 L 170.483 233.879 170.483 203.961 L 170.483 174.043 173.306 170.343 C 181.165 160.039,201.163 150.562,223.534 146.542 C 228.918 145.574,234.411 144.782,235.742 144.782 L 238.163 144.782 238.163 214.175 L 238.163 283.568 191.044 283.568 L 143.926 283.568 143.926 302.415 L 143.926 321.262 257.010 321.262 L 370.094 321.262 370.094 302.415 L 370.094 283.568 322.976 283.568 L 275.857 283.568 275.857 214.175 L 275.857 144.782 278.278 144.782 C 279.609 144.782,284.961 145.550,290.171 146.488 C 312.806 150.564,332.840 160.019,340.714 170.343 L 343.537 174.043 343.537 203.961 L 343.537 233.879 362.884 233.879 L 382.232 233.879 381.892 201.967 C 381.568 171.556,381.460 169.773,379.596 164.058 C 376.763 155.371,373.172 149.578,365.900 141.966 C 348.793 124.061,319.502 111.590,285.281 107.643 L 276.286 106.605 276.062 72.150 L 275.838 37.695 257.010 37.695 L 238.182 37.695 237.958 72.150 M86.527 377.805 L 86.527 396.652 257.010 396.652 L 427.493 396.652 427.493 377.805 L 427.493 358.957 257.010 358.957 L 86.527 358.957 86.527 377.805 " stroke="none" fill-rule="evenodd" fill="black"></path></svg>