<svg width="136mm" height="120mm" version="1.1" viewBox="0 0 600 529.4117647058824" xmlns="http://www.w3.org/2000/svg"><path d="M238.163 71.946 L 238.163 106.198 236.235 106.580 C 235.175 106.791,230.838 107.396,226.597 107.925 C 215.650 109.291,200.806 112.726,190.794 116.211 C 161.679 126.345,141.633 143.154,134.962 163.024 L 132.788 169.500 132.788 201.690 L 132.788 233.879 151.636 233.879 L 170.483 233.879 170.483 204.280 C 170.483 170.787,170.201 172.350,177.423 165.857 C 187.459 156.834,204.765 149.843,226.597 145.993 C 230.367 145.328,234.511 144.784,235.807 144.783 L 238.163 144.782 238.163 214.175 L 238.163 283.568 191.044 283.568 L 143.926 283.568 143.926 302.415 L 143.926 321.262 257.010 321.262 L 370.094 321.262 370.094 302.415 L 370.094 283.568 322.976 283.568 L 275.857 283.568 275.857 214.175 L 275.857 144.782 278.213 144.783 C 279.509 144.784,283.653 145.328,287.423 145.993 C 309.255 149.843,326.561 156.834,336.597 165.857 C 343.819 172.350,343.537 170.787,343.537 204.280 L 343.537 233.879 362.384 233.879 L 381.231 233.879 381.231 201.690 L 381.231 169.500 379.058 163.024 C 372.387 143.154,352.341 126.345,323.226 116.211 C 313.214 112.726,298.370 109.291,287.423 107.925 C 283.182 107.396,278.845 106.791,277.785 106.580 L 275.857 106.198 275.857 71.946 L 275.857 37.695 257.010 37.695 L 238.163 37.695 238.163 71.946 M87.383 377.805 L 87.383 396.652 257.010 396.652 L 426.637 396.652 426.637 377.805 L 426.637 358.957 257.010 358.957 L 87.383 358.957 87.383 377.805 " stroke="none" fill-rule="evenodd" fill="black"></path></svg>