<svg width="136mm" height="120mm" version="1.1" viewBox="0 0 600 529.4117647058824" xmlns="http://www.w3.org/2000/svg"><path d="M87.383 113.084 L 87.383 131.932 152.921 131.932 C 188.967 131.932,218.459 132.125,218.459 132.361 C 218.458 132.598,193.014 183.678,161.916 245.874 L 105.373 358.957 90.381 358.957 L 75.390 358.957 75.390 377.805 L 75.390 396.652 254.868 396.652 L 434.347 396.652 434.347 377.805 L 434.347 358.957 370.737 358.829 C 335.751 358.758,308.283 358.561,309.697 358.391 C 325.915 356.434,337.902 353.397,350.231 348.119 C 378.976 335.815,401.739 314.587,415.821 286.953 C 426.162 266.660,430.338 249.334,430.368 226.597 C 430.390 210.270,428.838 200.221,424.073 185.819 C 407.338 135.243,364.908 101.081,311.410 95.111 C 306.657 94.581,262.219 94.248,195.542 94.244 L 87.383 94.237 87.383 113.084 M308.982 132.848 C 339.435 136.243,366.747 154.631,381.592 181.733 C 394.203 204.757,396.302 233.913,387.157 259.039 C 377.005 286.934,353.319 308.963,324.498 317.315 C 318.416 319.077,304.551 321.262,299.450 321.262 C 298.303 321.262,298.132 323.713,298.132 340.110 L 298.132 358.957 223.170 358.957 C 181.942 358.957,148.209 358.764,148.209 358.528 C 148.209 358.291,173.653 307.211,204.752 245.015 L 261.295 131.932 281.032 131.932 C 291.887 131.932,304.465 132.344,308.982 132.848 " stroke="none" fill-rule="evenodd" fill="black"></path></svg>