<svg width="136mm" height="120mm" version="1.1" viewBox="0 0 600 529.4117647058824" xmlns="http://www.w3.org/2000/svg"><path d="M87.098 94.808 C 86.784 95.122,86.527 103.604,86.527 113.656 L 86.527 131.932 152.493 131.932 C 188.774 131.932,218.459 132.125,218.459 132.361 C 218.458 132.598,193.014 183.678,161.916 245.874 L 105.373 358.957 90.381 358.957 L 75.390 358.957 75.390 377.805 L 75.390 396.652 254.868 396.652 L 434.347 396.652 434.347 377.805 L 434.347 358.957 369.880 358.843 C 330.508 358.774,308.081 358.455,312.267 358.025 C 356.610 353.468,396.472 325.808,416.602 285.625 C 435.241 248.420,435.241 204.774,416.602 167.569 C 400.974 136.374,373.959 112.837,340.967 101.671 C 329.456 97.776,321.055 96.092,308.093 95.084 C 296.428 94.177,87.990 93.916,87.098 94.808 M316.979 134.096 C 336.724 138.417,351.052 146.188,365.011 160.147 C 383.610 178.746,392.478 200.199,392.478 226.597 C 392.478 251.900,383.901 273.554,366.770 291.503 C 350.973 308.055,332.245 317.383,309.119 320.220 L 298.132 321.568 298.132 340.263 L 298.132 358.957 223.170 358.957 C 181.942 358.957,148.209 358.764,148.209 358.528 C 148.209 358.291,173.680 307.157,204.812 244.896 L 261.414 131.693 285.984 132.192 C 304.016 132.557,312.263 133.064,316.979 134.096 " stroke="none" fill-rule="evenodd" fill="black"></path></svg>