<svg width="136mm" height="120mm" version="1.1" viewBox="0 0 600 529.4117647058824" xmlns="http://www.w3.org/2000/svg"><path d="M87.098 94.808 C 86.784 95.122,86.527 103.604,86.527 113.656 L 86.527 131.932 152.493 131.932 C 188.774 131.932,218.459 132.125,218.459 132.361 C 218.458 132.598,193.014 183.678,161.916 245.874 L 105.373 358.957 90.381 358.957 L 75.390 358.957 75.390 377.805 L 75.390 396.652 254.868 396.652 L 434.347 396.652 434.347 377.805 L 434.347 358.957 369.880 358.843 C 330.508 358.774,308.081 358.455,312.267 358.025 C 362.571 352.856,406.092 318.535,423.162 270.574 C 442.304 216.787,424.322 156.205,379.056 121.988 C 357.518 105.707,335.025 97.179,308.093 95.084 C 296.428 94.177,87.990 93.916,87.098 94.808 M306.379 132.772 C 334.115 135.274,358.023 148.621,374.568 170.838 C 394.650 197.806,398.458 235.387,384.229 266.184 C 373.020 290.445,350.299 309.920,324.583 317.308 C 318.427 319.077,304.536 321.262,299.450 321.262 C 298.303 321.262,298.132 323.713,298.132 340.110 L 298.132 358.957 223.170 358.957 C 181.942 358.957,148.209 358.764,148.209 358.528 C 148.209 358.291,173.653 307.211,204.752 245.015 L 261.295 131.932 279.499 131.961 C 289.511 131.977,301.607 132.342,306.379 132.772 " stroke="none" fill-rule="evenodd" fill="black"></path></svg>