<svg width="136mm" height="120mm" version="1.1" viewBox="0 0 600 529.4117647058824" xmlns="http://www.w3.org/2000/svg"><path d="M238.163 122.504 L 238.163 207.313 156.990 207.531 L 75.818 207.750 75.818 226.597 L 75.818 245.445 143.490 245.664 L 211.162 245.883 142.415 314.634 L 73.668 383.386 86.955 396.652 L 100.242 409.919 169.202 340.962 L 238.163 272.006 238.163 343.753 L 238.163 415.500 257.010 415.500 L 275.857 415.500 275.857 343.753 L 275.857 272.006 344.818 340.962 L 413.778 409.919 427.065 396.652 L 440.352 383.386 371.605 314.634 L 302.858 245.883 370.530 245.664 L 438.202 245.445 438.202 226.597 L 438.202 207.750 357.030 207.531 L 275.857 207.313 275.857 122.504 L 275.857 37.695 257.010 37.695 L 238.163 37.695 238.163 122.504 M113.291 94.458 L 100.240 107.530 138.153 145.435 L 176.066 183.341 189.331 170.055 L 202.596 156.769 164.911 119.078 C 144.185 98.348,127.028 81.386,126.785 81.386 C 126.542 81.386,120.470 87.269,113.291 94.458 M349.109 119.078 L 311.424 156.769 324.689 170.055 L 337.954 183.341 375.867 145.435 L 413.780 107.530 400.729 94.458 C 393.550 87.269,387.478 81.386,387.235 81.386 C 386.992 81.386,369.835 98.348,349.109 119.078 " stroke="none" fill-rule="evenodd" fill="black"></path></svg>