<svg width="136mm" height="120mm" version="1.1" viewBox="0 0 600 529.4117647058824" xmlns="http://www.w3.org/2000/svg"><path d="M75.587 98.306 L 75.818 116.940 129.148 117.160 C 158.479 117.282,182.477 117.669,182.477 118.020 C 182.477 118.372,163.009 177.062,139.214 248.443 C 115.419 319.824,95.950 378.489,95.950 378.809 C 95.950 379.527,130.854 391.180,131.344 390.626 C 131.538 390.406,152.118 328.930,177.076 254.012 L 222.455 117.796 241.410 117.566 L 260.365 117.335 260.666 219.513 C 260.993 330.796,260.744 324.935,265.771 339.682 C 280.049 381.563,321.614 408.351,364.772 403.486 C 387.019 400.978,404.617 392.674,420.929 376.987 C 432.099 366.244,439.647 354.254,444.661 339.288 C 449.030 326.247,449.757 318.343,449.762 283.782 L 449.767 252.727 430.920 252.727 L 412.073 252.727 412.066 280.783 C 412.057 320.782,410.898 328.040,402.522 340.563 C 394.933 351.910,384.029 360.153,371.379 364.107 C 363.532 366.559,349.140 366.794,340.967 364.602 C 325.054 360.334,311.877 349.463,304.214 334.282 C 298.813 323.582,299.015 328.103,299.001 217.821 L 298.988 117.378 368.595 117.159 L 438.202 116.940 438.433 98.306 L 438.664 79.673 257.010 79.673 L 75.356 79.673 75.587 98.306 " stroke="none" fill-rule="evenodd" fill="black"></path></svg>