<svg width="136mm" height="120mm" version="1.1" viewBox="0 0 600 529.4117647058824" xmlns="http://www.w3.org/2000/svg"><path d="M75.390 98.520 L 75.390 117.368 128.933 117.368 C 160.192 117.368,182.477 117.690,182.477 118.141 C 182.477 118.566,163.009 177.114,139.214 248.248 C 115.419 319.382,95.950 377.990,95.950 378.487 C 95.950 379.418,130.712 391.340,131.344 390.626 C 131.538 390.406,152.118 328.930,177.076 254.012 L 222.455 117.796 241.410 117.566 L 260.365 117.335 260.666 219.513 C 260.943 313.909,261.083 322.180,262.493 328.116 C 269.215 356.414,284.306 377.386,307.984 391.333 C 324.224 400.900,345.822 405.559,364.572 403.540 C 407.263 398.944,441.085 367.311,448.421 325.118 C 449.478 319.044,449.763 310.544,449.765 285.067 L 449.767 252.727 430.989 252.727 L 412.211 252.727 411.860 286.352 C 411.542 316.847,411.351 320.502,409.805 325.614 C 407.144 334.412,402.220 342.398,395.012 349.606 C 383.579 361.039,371.927 365.942,355.959 366.038 C 341.797 366.124,331.159 362.637,320.499 354.414 C 310.933 347.036,301.870 332.661,299.904 321.748 C 299.289 318.331,298.988 283.985,298.988 217.016 L 298.988 117.368 368.809 117.368 L 438.630 117.368 438.630 98.520 L 438.630 79.673 257.010 79.673 L 75.390 79.673 75.390 98.520 " stroke="none" fill-rule="evenodd" fill="black"></path></svg>