<svg width="136mm" height="120mm" version="1.1" viewBox="0 0 600 529.4117647058824" xmlns="http://www.w3.org/2000/svg"><path d="M75.587 98.306 L 75.818 116.940 129.148 117.160 C 158.479 117.282,182.477 117.669,182.477 118.020 C 182.477 118.372,163.009 177.062,139.214 248.443 C 115.419 319.824,95.950 378.489,95.950 378.809 C 95.950 379.527,130.854 391.180,131.344 390.626 C 131.538 390.406,152.118 328.930,177.076 254.012 L 222.455 117.796 241.446 117.566 L 260.437 117.335 260.459 213.516 C 260.471 267.333,260.838 313.366,261.291 318.026 C 262.845 333.995,267.662 347.981,276.029 360.818 C 309.287 411.839,380.587 418.907,422.581 375.345 C 434.200 363.292,441.490 350.828,445.881 335.507 C 449.155 324.084,449.753 315.979,449.760 282.925 L 449.767 252.727 430.920 252.727 L 412.073 252.727 412.043 282.925 C 412.011 314.989,411.425 321.606,407.815 330.669 C 403.093 342.525,392.915 353.688,381.350 359.694 C 372.547 364.266,365.448 366.015,355.531 366.053 C 329.343 366.155,307.774 349.554,300.120 323.404 C 298.730 318.656,298.594 310.601,298.337 217.821 L 298.059 117.378 368.130 117.159 L 438.202 116.940 438.433 98.306 L 438.664 79.673 257.010 79.673 L 75.356 79.673 75.587 98.306 " stroke="none" fill-rule="evenodd" fill="black"></path></svg>