<svg width="136mm" height="120mm" version="1.1" viewBox="0 0 600 529.4117647058824" xmlns="http://www.w3.org/2000/svg"><path d="M206.664 160.214 L 156.747 259.557 173.726 268.055 L 190.705 276.553 223.639 210.668 C 241.753 174.431,256.770 144.782,257.010 144.782 C 257.250 144.782,272.267 174.431,290.381 210.668 L 323.315 276.553 340.272 268.066 L 357.228 259.580 307.333 160.226 C 279.891 105.581,257.246 60.872,257.010 60.872 C 256.774 60.871,234.119 105.576,206.664 160.214 M94.237 92.507 L 94.237 117.368 69.821 117.368 L 45.405 117.368 45.405 136.215 L 45.405 155.063 69.821 155.063 L 94.237 155.063 94.237 172.972 L 94.237 190.882 66.479 273.694 C 48.428 327.545,39.065 356.635,39.707 356.875 C 49.274 360.459,74.175 368.208,74.602 367.734 C 74.917 367.383,83.769 341.266,94.273 309.697 L 113.370 252.298 132.620 310.125 C 143.208 341.930,151.984 368.087,152.122 368.250 C 152.673 368.901,187.617 356.786,187.617 355.944 C 187.617 355.448,175.281 318.071,160.203 272.886 L 132.788 190.730 132.788 172.896 L 132.788 155.063 155.063 155.063 L 177.337 155.063 177.337 136.215 L 177.337 117.368 155.076 117.368 L 132.815 117.368 132.587 92.738 L 132.360 68.108 113.299 67.877 L 94.237 67.647 94.237 92.507 M385.515 92.524 L 385.515 117.368 362.812 117.368 L 340.110 117.368 340.110 136.215 L 340.110 155.063 362.812 155.063 L 385.515 155.063 385.515 172.416 L 385.515 189.769 357.726 273.126 C 339.066 329.100,330.271 356.608,330.954 356.864 C 332.509 357.447,365.309 368.381,365.503 368.381 C 365.596 368.381,374.279 342.551,384.799 310.982 C 395.318 279.413,404.122 253.583,404.362 253.583 C 404.603 253.583,413.416 279.439,423.945 311.040 C 436.143 347.647,443.447 368.366,444.073 368.137 C 444.613 367.939,452.380 365.359,461.333 362.403 C 470.285 359.448,477.895 356.774,478.243 356.461 C 478.591 356.148,466.351 318.322,451.043 272.402 L 423.210 188.912 423.210 172.001 L 423.210 155.089 447.840 154.862 L 472.470 154.634 472.701 136.001 L 472.932 117.368 448.071 117.368 L 423.210 117.368 423.210 92.524 L 423.210 67.679 404.362 67.679 L 385.515 67.679 385.515 92.524 M238.163 266.434 L 238.163 313.552 221.029 313.552 L 203.895 313.552 203.895 332.400 L 203.895 351.247 254.868 351.247 L 305.842 351.247 305.842 332.400 L 305.842 313.552 290.850 313.552 L 275.857 313.552 275.857 266.434 L 275.857 219.315 257.010 219.315 L 238.163 219.315 238.163 266.434 " stroke="none" fill-rule="evenodd" fill="black"></path></svg>