<svg width="136mm" height="120mm" version="1.1" viewBox="0 0 600 529.4117647058824" xmlns="http://www.w3.org/2000/svg"><path d="M206.916 160.157 C 179.603 214.790,157.437 259.659,157.659 259.867 C 157.880 260.075,165.406 263.914,174.383 268.399 L 190.705 276.553 223.639 210.668 C 241.753 174.431,256.770 144.782,257.010 144.782 C 257.250 144.782,272.267 174.431,290.381 210.668 L 323.315 276.553 339.637 268.399 C 348.614 263.914,356.140 260.075,356.361 259.867 C 356.818 259.438,257.680 60.826,257.010 60.826 C 256.771 60.826,234.229 105.525,206.916 160.157 M94.824 68.234 C 94.501 68.557,94.237 79.744,94.237 93.095 L 94.237 117.368 69.821 117.368 L 45.405 117.368 45.405 136.215 L 45.405 155.063 69.821 155.063 L 94.237 155.063 94.237 172.844 L 94.237 190.626 66.823 272.859 C 51.745 318.087,39.408 355.486,39.408 355.967 C 39.408 357.074,73.845 368.577,74.610 367.726 C 74.921 367.379,83.769 341.266,94.273 309.697 L 113.370 252.298 132.620 310.125 C 143.208 341.930,151.984 368.087,152.122 368.250 C 152.662 368.889,187.617 356.795,187.617 355.969 C 187.617 355.487,175.281 318.087,160.203 272.859 L 132.788 190.626 132.788 172.858 L 132.788 155.091 155.277 154.863 L 177.765 154.634 177.996 136.001 L 178.227 117.368 155.521 117.368 L 132.815 117.368 132.587 92.738 L 132.360 68.108 113.886 67.877 C 103.725 67.750,95.147 67.911,94.824 68.234 M385.515 92.524 L 385.515 117.368 362.812 117.368 L 340.110 117.368 340.110 136.215 L 340.110 155.063 362.812 155.063 L 385.515 155.063 385.515 171.987 L 385.515 188.912 357.682 272.402 C 342.373 318.322,330.133 356.148,330.481 356.461 C 330.830 356.774,338.439 359.448,347.392 362.403 C 356.344 365.359,364.111 367.939,364.652 368.137 C 365.278 368.366,372.582 347.647,384.779 311.040 C 395.309 279.439,404.122 253.583,404.362 253.583 C 404.603 253.583,413.407 279.413,423.926 310.982 C 434.445 342.551,443.128 368.381,443.222 368.381 C 443.415 368.381,476.215 357.447,477.771 356.864 C 478.453 356.608,469.659 329.100,450.999 273.126 L 423.210 189.769 423.210 172.416 L 423.210 155.063 447.626 155.063 L 472.042 155.063 472.042 136.215 L 472.042 117.368 447.626 117.368 L 423.210 117.368 423.210 92.524 L 423.210 67.679 404.362 67.679 L 385.515 67.679 385.515 92.524 M238.163 266.434 L 238.163 313.552 221.029 313.552 L 203.895 313.552 203.895 332.400 L 203.895 351.247 254.868 351.247 L 305.842 351.247 305.842 332.400 L 305.842 313.552 290.850 313.552 L 275.857 313.552 275.857 266.434 L 275.857 219.315 257.010 219.315 L 238.163 219.315 238.163 266.434 " stroke="none" fill-rule="evenodd" fill="black"></path></svg>