<svg width="136mm" height="120mm" version="1.1" viewBox="0 0 600 529.4117647058824" xmlns="http://www.w3.org/2000/svg"><path d="M242.018 38.209 C 205.838 41.026,176.192 49.904,155.070 64.248 C 141.684 73.338,131.098 86.406,127.248 98.595 C 125.317 104.708,125.078 106.915,125.078 118.686 L 125.078 131.909 96.593 132.134 L 68.108 132.360 68.108 151.208 L 68.108 170.055 96.593 170.281 L 125.078 170.506 125.078 198.783 L 125.078 227.059 143.711 226.828 L 162.345 226.597 162.571 198.540 L 162.796 170.483 257.010 170.483 L 351.224 170.483 351.449 198.540 L 351.675 226.597 370.309 226.828 L 388.942 227.059 388.942 198.783 L 388.942 170.506 417.427 170.281 L 445.912 170.055 445.912 151.208 L 445.912 132.360 417.512 132.135 L 389.111 131.909 388.731 117.142 C 388.287 99.894,387.120 95.491,380.285 85.272 C 364.863 62.214,330.790 45.391,288.280 39.844 C 278.204 38.529,250.485 37.550,242.018 38.209 M272.431 76.268 C 286.803 77.355,292.549 78.279,304.805 81.475 C 325.414 86.850,342.699 96.514,348.740 106.040 C 351.175 109.880,351.247 110.307,351.247 120.962 L 351.247 131.932 257.010 131.932 L 162.773 131.932 162.773 120.962 C 162.773 110.307,162.845 109.880,165.280 106.040 C 174.530 91.455,206.021 78.916,239.925 76.319 C 253.136 75.307,259.584 75.297,272.431 76.268 M234.307 227.561 C 208.390 230.210,186.113 236.347,167.253 246.034 C 147.144 256.362,134.762 268.740,127.801 285.471 C 125.734 290.439,125.539 292.010,125.238 306.056 L 124.912 321.262 96.279 321.262 L 67.646 321.262 67.877 339.896 L 68.108 358.529 96.593 358.755 L 125.078 358.980 125.078 387.240 L 125.078 415.500 143.926 415.500 L 162.773 415.500 162.773 387.228 L 162.773 358.957 257.010 358.957 L 351.247 358.957 351.247 387.228 L 351.247 415.500 370.094 415.500 L 388.942 415.500 388.942 387.240 L 388.942 358.980 417.427 358.755 L 445.912 358.529 446.143 339.896 L 446.374 321.262 417.658 321.262 L 388.942 321.262 388.942 308.321 C 388.942 299.324,388.531 293.795,387.594 290.178 C 380.912 264.393,352.952 243.344,311.767 233.093 C 293.548 228.559,286.084 227.733,260.865 227.461 C 248.143 227.323,236.192 227.369,234.307 227.561 M279.104 265.608 C 306.373 268.517,330.923 277.436,343.154 288.878 C 350.651 295.891,351.247 297.481,351.247 310.469 L 351.247 321.262 257.010 321.262 L 162.773 321.262 162.773 310.469 C 162.773 297.476,163.368 295.893,170.885 288.861 C 179.772 280.547,197.939 272.336,215.888 268.521 C 232.472 264.996,261.031 263.680,279.104 265.608 " stroke="none" fill-rule="evenodd" fill="black"></path></svg>