<svg width="136mm" height="120mm" version="1.1" viewBox="0 0 600 529.4117647058824" xmlns="http://www.w3.org/2000/svg"><path d="M241.161 38.267 C 181.671 43.200,140.482 64.379,127.913 96.498 C 125.806 101.884,125.584 103.613,125.261 117.154 L 124.909 131.932 96.722 131.932 L 68.536 131.932 68.536 150.767 L 68.536 169.603 96.593 169.829 L 124.650 170.055 124.876 198.557 L 125.101 227.059 143.723 226.828 L 162.345 226.597 162.570 198.112 L 162.796 169.627 257.010 169.627 L 351.224 169.627 351.450 198.112 L 351.675 226.597 370.297 226.828 L 388.919 227.059 389.144 198.557 L 389.370 170.055 417.427 169.829 L 445.484 169.603 445.484 150.767 L 445.484 131.932 417.298 131.932 L 389.111 131.932 388.759 117.154 C 388.436 103.613,388.214 101.884,386.107 96.498 C 373.846 65.166,332.444 43.332,276.286 38.582 C 266.704 37.772,249.046 37.613,241.161 38.267 M285.181 77.511 C 315.056 81.861,340.704 93.368,348.730 106.025 C 351.177 109.883,351.247 110.298,351.247 120.962 L 351.247 131.932 257.010 131.932 L 162.773 131.932 162.773 120.962 C 162.773 110.298,162.843 109.883,165.290 106.025 C 173.616 92.896,202.185 80.566,232.166 77.162 C 236.642 76.654,241.654 76.081,243.303 75.888 C 249.270 75.191,276.492 76.246,285.181 77.511 M230.452 227.943 C 179.961 234.146,143.752 253.114,129.989 280.569 C 126.370 287.790,125.737 291.173,125.184 306.270 L 124.650 320.834 96.593 321.060 L 68.536 321.286 68.536 340.122 L 68.536 358.957 96.807 358.957 L 125.078 358.957 125.078 387.228 L 125.078 415.500 143.926 415.500 L 162.773 415.500 162.773 387.228 L 162.773 358.957 257.010 358.957 L 351.247 358.957 351.247 387.228 L 351.247 415.500 370.094 415.500 L 388.942 415.500 388.942 387.228 L 388.942 358.957 417.213 358.957 L 445.484 358.957 445.484 340.122 L 445.484 321.286 417.427 321.060 L 389.370 320.834 388.872 306.270 C 388.355 291.115,387.683 287.825,383.364 279.284 C 373.162 259.109,347.913 242.407,314.651 233.831 C 294.842 228.723,286.185 227.699,260.437 227.414 C 247.479 227.271,233.986 227.509,230.452 227.943 M282.453 266.038 C 313.205 270.046,338.421 280.808,348.206 294.100 C 350.778 297.593,350.823 297.834,351.098 309.456 L 351.377 321.262 257.010 321.262 L 162.643 321.262 162.922 309.483 L 163.201 297.703 166.075 293.712 C 175.120 281.148,201.098 270.060,230.881 266.050 C 242.951 264.425,270.030 264.419,282.453 266.038 " stroke="none" fill-rule="evenodd" fill="black"></path></svg>