<svg width="136mm" height="120mm" version="1.1" viewBox="0 0 600 529.4117647058824" xmlns="http://www.w3.org/2000/svg"><path d="M237.384 38.622 C 211.405 40.613,189.078 46.355,169.546 56.067 C 156.849 62.381,150.681 66.748,141.765 75.736 C 128.860 88.747,125.403 97.382,124.504 118.856 L 123.957 131.909 96.032 132.134 L 68.108 132.360 68.108 151.208 L 68.108 170.055 96.153 170.281 L 124.198 170.507 124.424 198.552 L 124.650 226.597 143.497 226.597 L 162.345 226.597 162.571 198.540 L 162.796 170.483 257.010 170.483 L 351.224 170.483 351.449 198.540 L 351.675 226.597 370.523 226.597 L 389.370 226.597 389.596 198.552 L 389.822 170.507 417.867 170.281 L 445.912 170.055 445.912 151.208 L 445.912 132.360 417.988 132.134 L 390.063 131.909 389.516 118.856 C 388.896 104.043,387.621 98.213,383.103 89.525 C 379.179 81.981,367.168 69.598,357.997 63.641 C 327.903 44.094,284.219 35.033,237.384 38.622 M272.431 76.268 C 286.803 77.355,292.549 78.279,304.805 81.475 C 325.414 86.850,342.699 96.514,348.740 106.040 C 351.175 109.880,351.247 110.307,351.247 120.962 L 351.247 131.932 257.010 131.932 L 162.773 131.932 162.773 120.962 C 162.773 110.298,162.843 109.883,165.290 106.025 C 168.258 101.345,175.558 95.390,183.334 91.307 C 206.761 79.005,238.275 73.685,272.431 76.268 M234.307 227.561 C 194.219 231.659,161.385 244.553,142.292 263.697 C 134.547 271.463,130.331 278.074,127.229 287.316 C 125.307 293.041,124.894 296.078,124.463 307.654 L 123.957 321.262 95.801 321.262 L 67.646 321.262 67.877 339.896 L 68.108 358.529 96.165 358.755 L 124.222 358.981 124.222 387.240 L 124.222 415.500 143.497 415.500 L 162.773 415.500 162.773 387.228 L 162.773 358.957 257.010 358.957 L 351.247 358.957 351.247 387.228 L 351.247 415.500 370.523 415.500 L 389.798 415.500 389.798 387.240 L 389.798 358.981 417.855 358.755 L 445.912 358.529 446.143 339.896 L 446.374 321.262 418.219 321.262 L 390.063 321.262 389.557 307.654 C 389.126 296.078,388.713 293.041,386.791 287.316 C 383.689 278.074,379.473 271.463,371.728 263.697 C 354.957 246.881,326.713 234.530,292.563 229.078 C 284.323 227.762,242.894 226.684,234.307 227.561 M279.104 265.608 C 310.236 268.929,336.984 279.781,347.600 293.396 L 350.819 297.524 351.098 309.393 L 351.377 321.262 257.075 321.262 L 162.773 321.262 162.773 310.610 C 162.773 304.750,163.172 298.907,163.660 297.623 C 167.766 286.825,191.195 273.769,215.888 268.521 C 232.472 264.996,261.031 263.680,279.104 265.608 " stroke="none" fill-rule="evenodd" fill="black"></path></svg>