<svg width="136mm" height="120mm" version="1.1" viewBox="0 0 600 529.4117647058824" xmlns="http://www.w3.org/2000/svg"><path d="M117.368 142.889 C 117.368 197.376,117.264 196.257,123.516 209.025 C 130.004 222.275,146.043 236.377,164.995 245.496 C 183.679 254.485,205.416 260.426,228.919 262.965 C 233.495 263.459,237.446 263.864,237.700 263.864 C 237.955 263.864,238.163 279.284,238.163 298.132 L 238.163 332.400 168.342 332.400 L 98.520 332.400 98.520 351.247 L 98.520 370.094 257.010 370.094 L 415.500 370.094 415.500 351.247 L 415.500 332.400 345.678 332.400 L 275.857 332.400 275.857 298.132 C 275.857 279.284,276.065 263.864,276.320 263.864 C 276.574 263.864,280.525 263.459,285.101 262.965 C 315.427 259.689,343.152 250.595,363.910 237.117 C 367.547 234.756,374.217 229.105,378.733 224.560 C 385.451 217.798,387.591 214.974,390.504 209.025 C 396.756 196.257,396.652 197.376,396.652 142.889 L 396.652 94.237 377.805 94.237 L 358.957 94.237 358.957 140.961 C 358.957 186.043,358.897 187.804,357.239 191.054 C 350.822 203.631,328.800 216.012,302.415 221.875 C 274.833 228.005,239.187 228.005,211.605 221.875 C 185.220 216.012,163.198 203.631,156.781 191.054 C 155.123 187.804,155.063 186.043,155.063 140.961 L 155.063 94.237 136.215 94.237 L 117.368 94.237 117.368 142.889 " stroke="none" fill-rule="evenodd" fill="black"></path></svg>