<svg width="136mm" height="120mm" version="1.1" viewBox="0 0 600 529.4117647058824" xmlns="http://www.w3.org/2000/svg"><path d="M117.368 143.159 C 117.368 196.806,117.396 197.154,122.601 207.644 C 126.151 214.800,130.045 219.833,137.544 226.955 C 157.287 245.709,190.557 258.820,228.919 262.965 C 233.495 263.459,237.446 263.864,237.700 263.864 C 237.955 263.864,238.163 279.284,238.163 298.132 L 238.163 332.400 168.342 332.400 L 98.520 332.400 98.520 351.247 L 98.520 370.094 257.010 370.094 L 415.500 370.094 415.500 351.247 L 415.500 332.400 345.678 332.400 L 275.857 332.400 275.857 298.132 C 275.857 279.284,276.065 263.864,276.320 263.864 C 276.574 263.864,280.525 263.459,285.101 262.965 C 323.463 258.820,356.733 245.709,376.476 226.955 C 384.015 219.795,387.869 214.801,391.492 207.498 C 396.531 197.342,396.626 196.150,396.639 142.855 L 396.652 94.237 377.805 94.237 L 358.957 94.237 358.957 141.154 C 358.957 187.162,358.922 188.137,357.158 191.485 C 350.743 203.659,328.284 216.126,302.415 221.875 C 274.833 228.005,239.187 228.005,211.605 221.875 C 185.736 216.126,163.277 203.659,156.862 191.485 C 155.098 188.137,155.063 187.162,155.063 141.154 L 155.063 94.237 136.215 94.237 L 117.368 94.237 117.368 143.159 " stroke="none" fill-rule="evenodd" fill="black"></path></svg>