<svg width="136mm" height="120mm" version="1.1" viewBox="0 0 600 529.4117647058824" xmlns="http://www.w3.org/2000/svg"><path d="M117.368 142.504 C 117.368 187.737,117.474 191.185,119.057 197.376 C 123.325 214.060,136.335 229.295,156.249 240.925 C 173.099 250.766,197.907 258.661,221.548 261.705 C 227.623 262.487,233.847 263.311,235.378 263.534 L 238.163 263.941 238.163 298.170 L 238.163 332.400 168.342 332.400 L 98.520 332.400 98.520 351.247 L 98.520 370.094 257.010 370.094 L 415.500 370.094 415.500 351.247 L 415.500 332.400 345.678 332.400 L 275.857 332.400 275.857 298.170 L 275.857 263.941 278.642 263.534 C 280.173 263.311,286.438 262.488,292.563 261.707 C 313.733 259.006,339.240 251.194,354.674 242.684 C 364.605 237.208,372.435 231.303,379.258 224.143 C 386.686 216.349,391.456 208.846,394.312 200.468 C 396.174 195.005,396.215 193.946,396.463 144.568 L 396.717 94.237 377.837 94.237 L 358.957 94.237 358.957 140.961 C 358.957 186.043,358.897 187.804,357.239 191.054 C 350.713 203.847,329.352 215.724,301.928 221.810 C 275.271 227.725,238.806 227.753,212.435 221.879 C 185.220 215.817,163.384 203.875,156.860 191.485 C 155.098 188.138,155.063 187.148,155.063 141.154 L 155.063 94.237 136.215 94.237 L 117.368 94.237 117.368 142.504 " stroke="none" fill-rule="evenodd" fill="black"></path></svg>