<svg width="136mm" height="120mm" version="1.1" viewBox="0 0 600 529.4117647058824" xmlns="http://www.w3.org/2000/svg"><path d="M242.446 46.292 C 214.861 49.671,189.430 61.940,169.704 81.386 C 156.874 94.034,147.583 107.951,141.417 123.757 C 135.169 139.772,132.690 152.925,132.690 170.055 C 132.690 195.306,139.279 217.459,152.963 238.222 C 171.090 265.726,199.092 284.917,231.095 291.770 L 238.163 293.283 238.163 344.968 L 238.163 396.652 257.010 396.652 L 275.857 396.652 275.857 344.968 L 275.857 293.283 282.925 291.770 C 333.842 280.867,372.478 239.566,380.356 187.617 C 380.891 184.083,381.330 176.180,381.330 170.055 C 381.330 163.930,380.891 156.026,380.356 152.493 C 374.214 111.991,350.297 78.368,314.229 59.532 C 303.787 54.079,290.427 49.441,279.713 47.549 C 270.246 45.877,251.102 45.231,242.446 46.292 M238.163 118.225 L 238.163 150.779 205.257 150.779 L 172.352 150.779 173.472 146.710 C 179.821 123.654,196.612 103.262,218.459 92.077 C 222.445 90.036,234.774 85.708,236.663 85.687 C 238.065 85.671,238.163 87.785,238.163 118.225 M289.241 89.447 C 313.869 99.225,333.508 121.143,340.548 146.710 L 341.668 150.779 308.763 150.779 L 275.857 150.779 275.857 118.129 L 275.857 85.479 279.070 86.082 C 280.837 86.413,285.414 87.928,289.241 89.447 M238.163 221.885 C 238.163 240.462,237.834 254.440,237.396 254.440 C 236.975 254.440,233.987 253.624,230.757 252.628 C 213.143 247.192,195.833 234.311,185.649 219.061 C 178.755 208.738,177.346 205.647,172.585 190.402 C 172.321 189.558,179.234 189.331,205.207 189.331 L 238.163 189.331 238.163 221.885 M340.484 193.528 C 338.186 201.269,336.632 205.129,333.559 210.740 C 322.545 230.849,304.125 246.190,283.263 252.628 C 280.033 253.624,277.045 254.440,276.624 254.440 C 276.186 254.440,275.857 240.462,275.857 221.885 L 275.857 189.331 308.794 189.331 L 341.731 189.331 340.484 193.528 " stroke="none" fill-rule="evenodd" fill="black"></path></svg>