<svg width="136mm" height="120mm" version="1.1" viewBox="0 0 600 529.4117647058824" xmlns="http://www.w3.org/2000/svg"><path d="M243.303 45.930 C 236.432 46.776,222.884 49.988,215.991 52.406 C 174.548 66.942,144.670 100.995,134.939 144.782 C 133.033 153.362,132.255 177.535,133.583 186.911 C 140.862 238.278,179.283 280.173,229.381 291.373 L 238.163 293.336 238.163 344.994 L 238.163 396.652 257.010 396.652 L 275.857 396.652 275.857 344.994 L 275.857 293.336 284.639 291.367 C 331.783 280.798,368.481 243.486,379.098 195.328 C 381.242 185.599,381.776 161.802,380.087 151.161 C 375.734 123.723,363.925 100.734,344.009 80.926 C 331.863 68.845,314.099 57.756,298.132 52.286 C 285.353 47.909,275.245 46.187,260.437 45.867 C 252.662 45.698,244.952 45.727,243.303 45.930 M238.163 118.225 L 238.163 150.779 205.180 150.779 C 187.039 150.779,172.197 150.636,172.197 150.460 C 172.197 148.739,177.182 135.648,179.826 130.427 C 187.597 115.084,199.990 102.418,215.997 93.463 C 221.654 90.298,233.472 85.771,236.235 85.712 L 238.163 85.670 238.163 118.225 M285.444 87.918 C 298.434 92.581,308.811 99.196,318.534 109.013 C 326.017 116.569,329.784 121.720,334.194 130.427 C 336.838 135.648,341.823 148.739,341.823 150.460 C 341.823 150.636,326.981 150.779,308.840 150.779 L 275.857 150.779 275.857 118.225 C 275.857 80.711,274.788 84.093,285.444 87.918 M238.163 221.457 C 238.163 248.266,237.950 254.440,237.028 254.440 C 234.515 254.440,222.978 249.967,216.223 246.373 C 194.484 234.808,178.105 213.899,172.715 190.830 L 172.164 188.474 205.163 188.474 L 238.163 188.474 238.163 221.457 M341.823 188.858 C 341.823 190.527,336.824 204.489,334.752 208.606 C 326.489 225.026,312.466 239.136,296.418 247.179 C 290.038 250.377,279.167 254.440,276.992 254.440 C 276.070 254.440,275.857 248.266,275.857 221.457 L 275.857 188.474 308.840 188.474 C 326.981 188.474,341.823 188.647,341.823 188.858 " stroke="none" fill-rule="evenodd" fill="black"></path></svg>