<svg width="136mm" height="120mm" version="1.1" viewBox="0 0 600 529.4117647058824" xmlns="http://www.w3.org/2000/svg"><path d="M242.446 46.292 C 221.615 48.844,201.267 56.790,183.975 69.126 C 175.060 75.486,162.032 88.506,155.695 97.389 C 145.976 111.014,137.302 131.054,134.547 146.247 C 130.271 169.827,132.605 193.848,141.338 216.161 C 155.961 253.520,189.823 282.434,229.405 291.361 L 238.163 293.336 238.163 344.994 L 238.163 396.652 257.010 396.652 L 275.857 396.652 275.857 344.968 L 275.857 293.283 282.925 291.770 C 336.758 280.243,376.710 234.745,381.157 179.903 C 381.899 170.755,381.351 156.853,379.920 148.519 C 378.927 142.731,374.388 127.554,371.771 121.266 C 363.620 101.689,347.634 81.721,330.026 69.126 C 315.483 58.723,296.225 50.464,279.713 47.549 C 270.246 45.877,251.102 45.231,242.446 46.292 M238.163 118.225 L 238.163 150.779 205.180 150.779 C 187.039 150.779,172.197 150.636,172.197 150.460 C 172.197 150.285,173.160 147.191,174.337 143.586 C 182.792 117.682,202.979 96.897,228.212 88.113 C 239.321 84.246,238.163 80.741,238.163 118.225 M285.130 87.865 C 310.266 96.256,331.200 117.598,339.632 143.427 C 340.837 147.120,341.823 150.285,341.823 150.460 C 341.823 150.636,326.981 150.779,308.840 150.779 L 275.857 150.779 275.857 118.225 C 275.857 89.181,276.003 85.670,277.206 85.670 C 277.947 85.670,281.513 86.658,285.130 87.865 M238.163 221.885 C 238.163 240.462,237.834 254.440,237.396 254.440 C 235.429 254.440,224.466 250.579,219.314 248.072 C 209.767 243.426,203.860 239.098,195.328 230.498 C 184.494 219.578,177.017 206.911,173.432 193.400 L 172.352 189.331 205.257 189.331 L 238.163 189.331 238.163 221.885 M340.588 193.400 C 337.003 206.911,329.526 219.578,318.692 230.498 C 310.160 239.098,304.253 243.426,294.706 248.072 C 289.554 250.579,278.591 254.440,276.624 254.440 C 276.186 254.440,275.857 240.462,275.857 221.885 L 275.857 189.331 308.763 189.331 L 341.668 189.331 340.588 193.400 " stroke="none" fill-rule="evenodd" fill="black"></path></svg>