<svg width="136mm" height="120mm" version="1.1" viewBox="0 0 600 529.4117647058824" xmlns="http://www.w3.org/2000/svg"><path d="M238.163 84.808 L 238.163 131.921 171.983 132.141 L 105.802 132.360 105.802 151.208 L 105.802 170.055 158.326 170.483 L 210.849 170.912 142.213 239.394 L 73.576 307.876 86.905 321.205 L 100.233 334.534 134.149 300.698 C 166.171 268.751,167.922 267.149,165.517 272.002 C 154.126 294.991,151.994 323.028,159.767 347.633 C 171.249 383.980,202.118 411.107,239.392 417.608 C 266.627 422.357,296.011 415.333,317.945 398.829 C 357.407 369.138,370.091 316.419,348.459 272.002 C 346.080 267.117,347.640 268.543,379.868 300.694 L 413.780 334.527 427.066 321.261 L 440.352 307.996 371.607 239.247 L 302.862 170.498 351.685 170.276 L 400.507 170.055 400.738 150.993 L 400.968 131.932 338.413 131.932 L 275.857 131.932 275.857 84.813 L 275.857 37.695 257.010 37.695 L 238.163 37.695 238.163 84.808 M282.716 203.542 C 307.361 228.267,307.853 228.826,302.668 226.252 C 287.856 218.899,274.196 215.759,257.010 215.759 C 239.745 215.759,226.279 218.834,211.594 226.130 C 206.072 228.873,206.198 228.729,231.304 203.542 C 245.201 189.601,256.768 178.194,257.010 178.194 C 257.252 178.194,268.819 189.601,282.716 203.542 M272.039 254.932 C 290.660 258.819,308.703 274.157,316.359 292.607 C 319.906 301.156,320.837 306.446,320.797 317.836 C 320.767 326.498,320.383 329.772,318.790 334.970 C 314.835 347.877,306.820 359.740,296.745 367.600 C 289.788 373.027,285.140 375.581,277.142 378.369 C 270.782 380.587,269.333 380.759,257.010 380.759 C 244.687 380.759,243.238 380.587,236.878 378.369 C 216.642 371.313,201.613 355.659,195.210 334.970 C 193.584 329.719,193.218 326.588,193.203 317.836 C 193.185 306.458,194.122 301.155,197.669 292.563 C 204.519 275.971,220.560 261.299,237.607 256.033 C 247.741 252.903,260.384 252.499,272.039 254.932 " stroke="none" fill-rule="evenodd" fill="black"></path></svg>