<svg width="136mm" height="120mm" version="1.1" viewBox="0 0 600 529.4117647058824" xmlns="http://www.w3.org/2000/svg"><path d="M238.163 84.813 L 238.163 131.932 172.197 131.932 L 106.231 131.932 106.231 151.208 L 106.231 170.483 158.702 170.483 L 211.173 170.483 142.420 239.240 L 73.668 307.996 86.954 321.261 L 100.240 334.527 134.154 300.694 C 164.754 270.167,167.839 267.322,165.730 271.566 C 156.802 289.529,153.122 313.413,156.296 332.791 C 163.394 376.127,196.747 410.171,239.392 417.608 C 249.070 419.295,264.950 419.295,274.628 417.608 C 305.212 412.274,332.514 392.423,346.778 365.149 C 362.174 335.707,362.930 304.023,348.969 273.287 L 346.050 266.862 379.915 300.694 L 413.780 334.527 427.066 321.261 L 440.352 307.996 371.607 239.247 L 302.862 170.498 351.685 170.276 L 400.507 170.055 400.507 151.208 L 400.507 132.360 338.182 132.140 L 275.857 131.921 275.857 84.808 L 275.857 37.695 257.010 37.695 L 238.163 37.695 238.163 84.813 M282.716 203.542 C 307.361 228.267,307.853 228.826,302.668 226.252 C 287.856 218.899,274.196 215.759,257.010 215.759 C 239.824 215.759,226.164 218.899,211.352 226.252 C 206.167 228.826,206.659 228.267,231.304 203.542 C 245.201 189.601,256.768 178.194,257.010 178.194 C 257.252 178.194,268.819 189.601,282.716 203.542 M272.039 254.932 C 290.934 258.876,308.697 274.127,316.369 292.991 C 320.044 302.030,320.712 305.690,320.748 316.979 C 320.798 333.255,317.422 343.500,307.851 356.112 C 303.040 362.451,294.609 369.895,287.851 373.769 C 285.731 374.985,280.912 377.055,277.142 378.369 C 270.782 380.587,269.333 380.759,257.010 380.759 C 244.687 380.759,243.238 380.587,236.878 378.369 C 228.443 375.428,223.980 372.909,216.575 366.910 C 206.295 358.583,198.201 346.106,194.744 333.256 C 192.700 325.661,192.737 308.406,194.813 300.766 C 199.614 283.098,212.214 267.922,229.204 259.343 C 241.007 253.383,256.819 251.754,272.039 254.932 " stroke="none" fill-rule="evenodd" fill="black"></path></svg>