<svg width="136mm" height="120mm" version="1.1" viewBox="0 0 600 529.4117647058824" xmlns="http://www.w3.org/2000/svg"><path d="M283.667 37.783 C 274.062 41.002,266.069 43.771,265.904 43.935 C 265.740 44.100,269.647 56.346,274.586 71.148 C 279.526 85.951,283.568 98.165,283.568 98.291 C 283.568 98.417,272.581 98.520,259.152 98.520 L 234.736 98.520 234.736 117.368 L 234.736 136.215 278.428 136.215 C 302.458 136.215,322.119 136.506,322.119 136.861 C 322.119 137.216,302.651 195.909,278.856 267.290 C 255.061 338.671,235.593 397.333,235.593 397.649 C 235.593 398.246,268.676 409.503,270.432 409.503 C 270.998 409.503,291.160 350.317,316.979 272.859 L 362.527 136.215 372.568 136.215 C 381.534 136.215,383.064 136.442,386.864 138.336 C 395.318 142.548,404.556 153.628,411.935 168.405 C 425.838 196.242,432.907 238.704,430.109 277.571 C 426.354 329.752,409.249 371.004,386.372 383.056 C 382.611 385.037,381.906 385.093,357.458 385.359 L 332.400 385.631 332.400 404.500 L 332.400 423.370 360.028 423.011 C 385.966 422.674,388.024 422.532,393.654 420.691 C 406.143 416.606,415.567 410.409,425.560 399.709 C 446.495 377.291,460.901 340.345,466.638 294.356 C 468.395 280.267,468.624 243.560,467.038 230.024 C 461.633 183.873,448.417 148.003,427.947 123.923 C 414.871 108.542,396.050 98.520,380.238 98.520 C 377.486 98.520,375.235 98.417,375.235 98.289 C 375.235 98.162,378.897 87.086,383.373 73.676 C 387.850 60.266,391.512 48.833,391.512 48.270 C 391.512 47.257,356.804 35.235,356.118 36.011 C 355.924 36.230,351.150 50.288,345.510 67.251 L 335.255 98.092 329.403 98.092 L 323.550 98.092 312.586 65.212 C 306.555 47.128,301.511 32.241,301.376 32.131 C 301.241 32.020,293.272 34.563,283.667 37.783 M53.115 158.489 L 53.115 177.337 68.108 177.337 L 83.100 177.337 83.100 233.879 L 83.100 290.421 68.108 290.421 L 53.115 290.421 53.115 309.697 L 53.115 328.973 147.352 328.973 L 241.589 328.973 241.589 309.697 L 241.589 290.421 228.739 290.421 L 215.888 290.421 215.888 233.879 L 215.888 177.337 228.739 177.337 L 241.589 177.337 241.589 158.489 L 241.589 139.642 147.352 139.642 L 53.115 139.642 53.115 158.489 M177.337 233.879 L 177.337 290.421 149.066 290.421 L 120.795 290.421 120.795 233.879 L 120.795 177.337 149.066 177.337 L 177.337 177.337 177.337 233.879 " stroke="none" fill-rule="evenodd" fill="black"></path></svg>