<svg width="136mm" height="120mm" version="1.1" viewBox="0 0 600 529.4117647058824" xmlns="http://www.w3.org/2000/svg"><path d="M132.580 97.450 L 132.360 157.204 114.582 121.866 C 104.803 102.429,96.415 86.527,95.940 86.527 C 95.465 86.527,87.756 90.191,78.808 94.670 L 62.539 102.812 81.389 140.503 C 91.756 161.233,100.434 178.194,100.673 178.194 C 100.913 178.194,108.040 174.724,116.511 170.483 C 124.983 166.243,132.111 162.773,132.351 162.773 C 132.592 162.773,132.788 172.796,132.788 185.047 L 132.788 207.321 96.807 207.321 L 60.826 207.321 60.826 226.597 L 60.826 245.873 90.382 245.873 C 106.638 245.873,119.938 246.067,119.938 246.303 C 119.938 246.540,104.496 277.617,85.622 315.362 C 66.748 353.108,51.424 384.098,51.568 384.228 C 52.345 384.933,85.036 400.994,85.240 400.772 C 85.373 400.626,96.029 379.497,108.921 353.817 L 132.360 307.127 132.581 361.313 L 132.801 415.500 151.642 415.500 L 170.483 415.500 170.530 361.742 L 170.577 307.984 193.755 354.245 C 206.504 379.689,217.100 400.684,217.303 400.900 C 217.718 401.340,250.086 385.425,250.680 384.488 C 250.889 384.159,235.628 353.030,216.768 315.312 C 197.908 277.594,182.477 246.540,182.477 246.303 C 182.477 246.067,195.777 245.873,212.033 245.873 L 241.589 245.873 241.589 226.597 L 241.589 207.321 206.036 207.321 L 170.483 207.321 170.483 185.047 C 170.483 172.796,170.680 162.773,170.921 162.773 C 171.161 162.773,178.292 166.244,186.766 170.486 L 202.175 178.199 221.028 140.500 L 239.881 102.801 223.214 94.480 C 214.047 89.904,206.378 86.339,206.172 86.557 C 205.966 86.776,197.873 102.761,188.187 122.080 L 170.577 157.204 170.530 97.450 L 170.483 37.695 151.642 37.695 L 132.800 37.695 132.580 97.450 M339.896 52.737 C 331.061 57.191,323.833 61.221,323.833 61.693 C 323.833 62.487,344.983 105.314,345.810 106.195 C 346.224 106.636,378.592 90.719,379.186 89.782 C 379.677 89.008,357.446 44.534,356.598 44.594 C 356.247 44.619,348.730 48.283,339.896 52.737 M279.717 105.366 C 275.238 114.313,271.574 121.935,271.574 122.302 C 271.574 122.669,279.702 127.010,289.636 131.948 C 299.570 136.887,307.875 141.207,308.092 141.548 C 308.309 141.890,295.266 148.776,279.107 156.850 C 262.949 164.924,249.549 171.698,249.330 171.904 C 249.112 172.110,252.677 179.779,257.254 188.948 L 265.576 205.617 282.710 197.041 C 292.134 192.325,299.845 188.661,299.845 188.900 C 299.845 189.139,284.810 219.403,266.434 256.153 C 248.057 292.903,233.022 323.266,233.022 323.626 C 233.022 323.987,240.539 328.034,249.726 332.620 L 266.430 340.959 275.429 322.975 L 284.429 304.991 311.332 318.434 L 338.234 331.877 323.274 361.788 C 315.046 378.239,308.432 391.806,308.577 391.938 C 308.722 392.069,316.260 395.883,325.328 400.414 L 341.816 408.651 356.815 378.663 L 371.813 348.676 413.883 369.714 C 437.021 381.285,456.060 390.634,456.191 390.490 C 456.895 389.712,472.957 357.021,472.735 356.818 C 472.589 356.685,453.773 347.239,430.920 335.826 C 408.068 324.414,389.252 314.969,389.107 314.837 C 388.963 314.705,400.818 290.654,415.451 261.390 C 430.084 232.127,442.057 207.990,442.057 207.752 C 442.057 207.515,417.573 207.321,387.649 207.321 L 333.241 207.321 337.585 198.665 C 339.974 193.903,341.809 189.899,341.662 189.767 C 341.515 189.634,336.672 187.166,330.900 184.281 C 325.128 181.397,320.406 178.849,320.406 178.620 C 320.406 178.390,327.344 174.730,335.824 170.485 L 351.241 162.767 394.173 184.236 C 417.786 196.044,437.212 205.587,437.343 205.443 C 438.048 204.665,454.110 171.974,453.887 171.771 C 453.742 171.638,440.130 164.788,423.638 156.547 L 393.654 141.565 412.287 132.260 C 422.535 127.142,430.920 122.658,430.920 122.295 C 430.920 121.931,427.256 114.313,422.777 105.365 L 414.634 89.097 383.802 104.517 C 366.844 112.999,352.387 119.938,351.675 119.938 C 350.963 119.938,336.507 112.999,319.549 104.517 C 302.592 96.036,288.524 89.097,288.288 89.097 C 288.053 89.097,284.195 96.418,279.717 105.366 M368.381 271.574 C 361.310 285.709,355.138 297.275,354.666 297.275 C 353.960 297.275,302.567 271.911,301.728 271.148 C 301.585 271.019,304.277 265.279,307.711 258.393 L 313.953 245.873 347.595 245.873 L 381.237 245.873 368.381 271.574 " stroke="none" fill-rule="evenodd" fill="black"></path></svg>