<svg width="136mm" height="120mm" version="1.1" viewBox="0 0 600 529.4117647058824" xmlns="http://www.w3.org/2000/svg"><path d="M131.885 97.021 L 131.838 156.348 114.321 121.437 C 104.686 102.236,96.415 86.527,95.940 86.527 C 95.465 86.527,87.756 90.191,78.808 94.670 L 62.539 102.812 81.389 140.503 C 91.756 161.233,100.434 178.194,100.673 178.194 C 100.913 178.194,108.044 174.722,116.520 170.479 L 131.932 162.764 131.932 185.471 L 131.932 208.178 95.934 208.178 L 59.936 208.178 60.166 226.811 L 60.397 245.445 90.168 245.670 C 106.541 245.794,119.938 246.084,119.938 246.314 C 119.938 246.545,104.507 277.594,85.647 315.312 C 66.787 353.030,51.526 384.159,51.735 384.488 C 52.329 385.425,84.697 401.340,85.112 400.900 C 85.315 400.684,95.912 379.689,108.660 354.245 L 131.838 307.984 131.885 361.742 L 131.932 415.500 151.208 415.500 L 170.483 415.500 170.530 361.742 L 170.577 307.984 193.755 354.245 C 206.504 379.689,217.100 400.684,217.303 400.900 C 217.718 401.340,250.086 385.425,250.680 384.488 C 250.889 384.159,235.628 353.030,216.768 315.312 C 197.908 277.594,182.477 246.540,182.477 246.303 C 182.477 246.067,195.777 245.873,212.033 245.873 L 241.589 245.873 241.589 227.025 L 241.589 208.178 206.036 208.178 L 170.483 208.178 170.483 185.471 L 170.483 162.764 185.895 170.479 C 194.371 174.722,201.502 178.194,201.742 178.194 C 201.981 178.194,210.659 161.233,221.027 140.503 L 239.876 102.812 223.607 94.670 C 214.659 90.191,206.950 86.527,206.475 86.527 C 206.001 86.527,197.729 102.236,188.094 121.437 L 170.577 156.348 170.530 97.021 L 170.483 37.695 151.208 37.695 L 131.932 37.695 131.885 97.021 M340.538 52.829 C 331.586 57.333,324.083 61.185,323.865 61.389 C 323.311 61.909,345.502 106.231,346.316 106.231 C 347.309 106.231,379.518 90.014,379.518 89.515 C 379.518 88.928,357.292 44.537,357.027 44.594 C 356.911 44.619,349.491 48.325,340.538 52.829 M279.717 105.366 C 275.238 114.313,271.574 121.935,271.574 122.302 C 271.574 122.669,279.702 127.010,289.636 131.948 C 299.570 136.887,307.875 141.207,308.092 141.549 C 308.309 141.890,294.976 148.928,278.463 157.187 L 248.438 172.204 256.675 188.692 C 261.206 197.760,265.020 205.299,265.152 205.444 C 265.284 205.590,273.144 201.829,282.619 197.087 C 292.093 192.345,299.845 188.661,299.845 188.900 C 299.845 189.139,284.810 219.403,266.434 256.153 C 248.057 292.903,233.022 323.266,233.022 323.626 C 233.022 323.987,240.539 328.034,249.726 332.620 L 266.430 340.959 275.429 322.975 L 284.429 304.991 311.332 318.434 L 338.234 331.877 323.274 361.788 C 315.046 378.239,308.432 391.806,308.577 391.938 C 308.936 392.263,341.746 408.646,342.039 408.646 C 342.167 408.646,348.991 395.189,357.204 378.742 L 372.136 348.838 413.947 369.746 C 436.943 381.246,455.950 390.655,456.185 390.655 C 456.681 390.655,472.898 358.444,472.898 357.460 C 472.898 357.098,454.045 347.381,431.002 335.867 L 389.105 314.933 415.581 261.987 C 430.143 232.866,442.057 208.846,442.057 208.609 C 442.057 208.372,417.577 208.178,387.657 208.178 C 357.737 208.178,333.256 207.978,333.256 207.734 C 333.256 207.490,335.208 203.402,337.593 198.649 C 339.978 193.896,341.809 189.899,341.662 189.767 C 341.515 189.634,336.672 187.166,330.900 184.281 C 325.128 181.397,320.406 178.849,320.406 178.620 C 320.406 178.390,327.344 174.730,335.824 170.485 L 351.241 162.767 394.123 184.211 C 417.708 196.005,437.274 205.484,437.603 205.275 C 438.540 204.681,454.456 172.313,454.015 171.899 C 453.799 171.696,440.132 164.789,423.644 156.550 L 393.666 141.571 412.723 132.035 L 431.781 122.499 423.544 106.012 C 419.014 96.944,415.200 89.407,415.069 89.262 C 414.937 89.117,400.911 95.960,383.900 104.468 C 366.888 112.977,352.387 119.938,351.675 119.938 C 350.963 119.938,336.507 112.999,319.549 104.517 C 302.592 96.036,288.524 89.097,288.288 89.097 C 288.053 89.097,284.195 96.418,279.717 105.366 M368.381 271.574 C 361.310 285.709,355.138 297.275,354.666 297.275 C 353.960 297.275,302.567 271.911,301.728 271.148 C 301.585 271.019,304.277 265.279,307.711 258.393 L 313.953 245.873 347.595 245.873 L 381.237 245.873 368.381 271.574 " stroke="none" fill-rule="evenodd" fill="black"></path></svg>