<svg width="136mm" height="120mm" version="1.1" viewBox="0 0 600 529.4117647058824" xmlns="http://www.w3.org/2000/svg"><path d="M75.390 228.311 L 75.390 400.079 94.235 400.079 L 113.080 400.079 113.296 247.372 L 113.513 94.665 257.010 94.665 L 400.507 94.665 400.724 247.372 L 400.940 400.079 419.785 400.079 L 438.630 400.079 438.630 228.311 L 438.630 56.542 257.010 56.542 L 75.390 56.542 75.390 228.311 M248.001 125.162 C 213.206 127.709,181.575 146.494,162.311 176.052 C 154.541 187.973,150.503 197.228,147.011 211.116 L 145.058 218.887 132.926 219.125 L 120.795 219.362 120.795 238.186 L 120.795 257.010 133.107 257.010 L 145.420 257.010 145.975 260.479 C 147.058 267.252,151.886 280.695,156.420 289.565 C 171.998 320.035,199.695 341.198,233.949 348.805 C 246.735 351.644,267.285 351.644,280.071 348.805 C 314.325 341.198,342.022 320.035,357.600 289.565 C 362.134 280.695,366.962 267.252,368.045 260.479 L 368.600 257.010 380.913 257.010 L 393.225 257.010 393.225 238.186 L 393.225 219.362 381.097 219.125 L 368.969 218.887 366.615 209.892 C 362.783 195.247,359.059 187.008,350.468 174.165 C 338.237 155.879,318.382 140.130,297.275 131.973 C 289.614 129.012,275.959 125.959,268.147 125.461 C 264.142 125.205,259.901 124.892,258.723 124.765 C 257.545 124.637,252.720 124.816,248.001 125.162 M238.163 191.901 L 238.163 219.315 211.108 219.315 L 184.054 219.315 184.640 216.531 C 185.528 212.311,191.254 200.463,195.144 194.797 C 199.477 188.487,208.710 179.469,215.530 174.887 C 220.750 171.380,230.361 166.950,237.948 164.554 C 238.066 164.517,238.163 176.823,238.163 191.901 M295.827 173.152 C 302.984 177.404,313.244 186.963,318.389 194.173 C 322.457 199.874,328.433 212.031,329.380 216.531 L 329.966 219.315 302.912 219.315 L 275.857 219.315 275.857 191.910 L 275.857 164.504 282.876 167.066 C 286.736 168.475,292.564 171.213,295.827 173.152 M238.163 283.996 C 238.163 298.838,237.981 310.982,237.759 310.982 C 237.537 310.982,234.210 309.834,230.365 308.431 C 211.155 301.420,194.201 284.736,186.809 265.569 C 185.369 261.834,184.191 258.381,184.191 257.894 C 184.191 257.305,193.195 257.010,211.177 257.010 L 238.163 257.010 238.163 283.996 M329.829 257.894 C 329.829 258.381,328.651 261.834,327.211 265.569 C 319.795 284.799,302.928 301.397,283.655 308.431 C 279.810 309.834,276.483 310.982,276.261 310.982 C 276.039 310.982,275.857 298.838,275.857 283.996 L 275.857 257.010 302.843 257.010 C 320.825 257.010,329.829 257.305,329.829 257.894 " stroke="none" fill-rule="evenodd" fill="black"></path></svg>