<svg width="136mm" height="120mm" version="1.1" viewBox="0 0 600 529.4117647058824" xmlns="http://www.w3.org/2000/svg"><path d="M75.963 57.111 C 75.648 57.427,75.390 134.723,75.390 228.882 L 75.390 400.079 94.665 400.079 L 113.941 400.079 113.941 247.158 L 113.941 94.237 257.010 94.237 L 400.079 94.237 400.079 247.158 L 400.079 400.079 419.357 400.079 L 438.635 400.079 438.418 228.525 L 438.202 56.971 257.369 56.754 C 157.911 56.635,76.278 56.796,75.963 57.111 M238.163 126.349 C 229.326 127.854,225.278 128.974,216.295 132.397 C 181.907 145.499,155.555 175.453,147.180 210.959 L 145.211 219.309 133.003 219.312 L 120.795 219.315 120.795 238.163 L 120.795 257.010 133.107 257.010 L 145.420 257.010 145.998 260.651 C 146.883 266.222,152.026 280.964,155.535 287.988 C 168.319 313.583,190.890 334.089,217.087 343.910 C 271.608 364.351,332.339 340.333,358.485 287.988 C 361.994 280.964,367.137 266.222,368.022 260.651 L 368.600 257.010 380.913 257.010 L 393.225 257.010 393.225 238.163 L 393.225 219.315 380.975 219.315 L 368.724 219.315 367.639 213.961 C 362.995 191.051,349.481 168.281,331.115 152.419 C 315.550 138.977,295.661 129.613,275.857 126.404 C 266.125 124.827,247.258 124.799,238.163 126.349 M238.163 192.329 L 238.163 219.315 211.177 219.315 C 196.334 219.315,184.191 218.990,184.191 218.593 C 184.191 217.100,187.477 208.396,189.748 203.875 C 197.300 188.843,211.731 175.342,227.454 168.599 C 234.045 165.772,234.853 165.492,236.663 165.411 C 238.061 165.348,238.163 167.174,238.163 192.329 M288.647 169.670 C 304.483 177.239,316.762 189.033,324.259 203.875 C 326.534 208.380,329.829 217.086,329.829 218.593 C 329.829 218.990,317.686 219.315,302.843 219.315 L 275.857 219.315 275.857 192.222 L 275.857 165.129 278.642 165.674 C 280.173 165.974,284.675 167.772,288.647 169.670 M238.163 284.054 L 238.163 311.098 236.235 310.519 C 214.014 303.851,195.902 287.506,187.124 266.198 C 185.528 262.322,184.215 258.670,184.206 258.081 C 184.194 257.247,190.150 257.010,211.177 257.010 L 238.163 257.010 238.163 284.054 M329.814 258.081 C 329.805 258.670,328.492 262.322,326.896 266.198 C 318.118 287.506,300.006 303.851,277.785 310.519 L 275.857 311.098 275.857 284.054 L 275.857 257.010 302.843 257.010 C 323.870 257.010,329.826 257.247,329.814 258.081 " stroke="none" fill-rule="evenodd" fill="black"></path></svg>