<svg width="136mm" height="120mm" version="1.1" viewBox="0 0 600 529.4117647058824" xmlns="http://www.w3.org/2000/svg"><path d="M75.390 228.311 L 75.390 400.079 94.237 400.079 L 113.084 400.079 113.084 247.158 L 113.084 94.237 257.010 94.237 L 400.936 94.237 400.936 247.158 L 400.936 400.079 419.783 400.079 L 438.630 400.079 438.630 228.311 L 438.630 56.542 257.010 56.542 L 75.390 56.542 75.390 228.311 M238.163 126.297 C 211.883 130.984,188.377 144.171,171.615 163.630 C 159.237 177.998,151.652 192.605,146.922 211.177 L 144.958 218.887 132.876 219.125 L 120.795 219.362 120.795 238.186 L 120.795 257.010 133.045 257.010 L 145.296 257.010 146.395 262.364 C 146.999 265.309,148.263 270.032,149.202 272.859 C 168.212 330.060,227.793 362.612,285.796 347.489 C 318.198 339.041,346.571 315.091,360.004 284.853 C 363.826 276.248,366.203 269.229,367.619 262.364 L 368.724 257.010 380.975 257.010 L 393.225 257.010 393.225 238.163 L 393.225 219.315 380.803 219.315 L 368.381 219.315 368.381 217.285 C 368.381 210.123,358.792 186.338,351.515 175.448 C 335.299 151.182,309.613 133.617,280.998 127.225 C 272.303 125.283,246.932 124.733,238.163 126.297 M238.163 192.329 L 238.163 219.315 211.069 219.315 L 183.976 219.315 184.505 216.671 C 185.359 212.399,191.559 199.877,195.642 194.177 C 203.423 183.314,214.753 174.114,226.710 168.950 C 234.142 165.740,234.836 165.493,236.663 165.411 C 238.061 165.348,238.163 167.174,238.163 192.329 M286.459 168.501 C 298.876 173.948,310.554 183.348,318.355 194.177 C 322.446 199.854,328.655 212.369,329.515 216.671 L 330.044 219.315 302.951 219.315 L 275.857 219.315 275.857 192.222 L 275.857 165.129 278.535 165.664 C 280.007 165.959,283.573 167.236,286.459 168.501 M238.163 283.996 C 238.163 298.838,237.981 310.982,237.759 310.982 C 237.537 310.982,234.210 309.834,230.365 308.431 C 211.181 301.430,194.980 285.576,187.010 266.005 C 185.475 262.236,184.213 258.670,184.205 258.081 C 184.194 257.247,190.151 257.010,211.177 257.010 L 238.163 257.010 238.163 283.996 M329.815 258.081 C 329.807 258.670,328.545 262.236,327.010 266.005 C 319.040 285.576,302.839 301.430,283.655 308.431 C 279.810 309.834,276.483 310.982,276.261 310.982 C 276.039 310.982,275.857 298.838,275.857 283.996 L 275.857 257.010 302.843 257.010 C 323.869 257.010,329.826 257.247,329.815 258.081 " stroke="none" fill-rule="evenodd" fill="black"></path></svg>