<svg width="136mm" height="120mm" version="1.1" viewBox="0 0 600 529.4117647058824" xmlns="http://www.w3.org/2000/svg"><path d="M120.748 97.450 L 120.701 157.204 103.091 122.080 C 93.405 102.761,85.315 86.778,85.111 86.562 C 84.697 86.122,52.329 102.038,51.735 102.975 C 51.444 103.432,87.552 176.804,88.671 178.030 C 88.804 178.176,95.889 174.802,104.416 170.534 C 112.943 166.265,120.117 162.773,120.357 162.773 C 120.598 162.773,120.795 172.989,120.795 185.476 L 120.795 208.178 84.797 208.178 L 48.798 208.178 49.029 226.811 L 49.260 245.445 79.026 245.670 L 108.792 245.895 74.528 314.418 C 55.683 352.105,40.265 383.325,40.265 383.795 C 40.265 384.504,71.874 400.936,73.238 400.936 C 73.477 400.936,84.254 379.829,97.187 354.031 L 120.701 307.127 120.748 361.313 L 120.795 415.500 139.636 415.500 L 158.477 415.500 158.697 361.313 L 158.918 307.127 182.357 353.817 C 195.249 379.497,205.905 400.626,206.038 400.772 C 206.249 401.002,238.960 384.914,239.745 384.194 C 239.908 384.044,224.366 352.860,205.207 314.897 L 170.373 245.873 200.412 245.873 L 230.452 245.873 230.452 227.035 L 230.452 208.197 194.685 207.973 L 158.918 207.750 158.689 185.261 C 158.564 172.893,158.664 162.773,158.913 162.773 C 159.161 162.773,166.295 166.243,174.767 170.483 C 183.238 174.724,190.365 178.194,190.605 178.194 C 190.844 178.194,199.522 161.233,209.889 140.503 L 228.739 102.812 212.470 94.670 C 203.522 90.191,195.813 86.527,195.338 86.527 C 194.863 86.527,186.399 102.622,176.529 122.294 L 158.583 158.061 158.536 97.878 L 158.489 37.695 139.642 37.695 L 120.795 37.695 120.748 97.450 M335.826 94.763 C 296.942 96.855,263.267 109.567,245.111 129.009 C 236.604 138.118,231.488 148.848,231.054 158.489 L 230.881 162.345 249.424 162.575 L 267.968 162.806 268.823 160.353 C 271.370 153.047,283.286 144.964,300.040 139.178 C 320.375 132.154,355.217 130.438,379.980 135.240 C 401.913 139.494,421.192 149.440,425.748 158.852 L 427.646 162.773 445.938 162.773 C 455.999 162.773,464.401 162.484,464.610 162.130 C 465.392 160.806,463.401 150.428,461.426 145.540 C 451.317 120.512,416.871 101.112,373.521 96.032 C 365.062 95.041,343.899 94.328,335.826 94.763 M330.258 164.028 C 315.106 166.976,301.244 172.992,289.596 181.674 C 271.569 195.111,259.391 212.625,253.297 233.879 L 251.209 241.161 242.758 241.589 L 234.307 242.018 234.077 260.621 L 233.846 279.224 242.591 279.468 L 251.336 279.713 252.780 285.281 C 257.772 304.520,268.646 322.026,283.480 334.704 C 323.074 368.544,380.520 366.385,417.228 329.677 C 428.736 318.169,437.546 303.253,442.001 287.735 L 444.304 279.713 454.746 279.472 L 465.188 279.231 465.188 260.410 L 465.188 241.589 454.575 241.589 L 443.961 241.589 443.361 238.377 C 442.297 232.678,437.866 220.925,434.267 214.250 C 421.341 190.279,398.801 172.682,371.935 165.588 C 365.081 163.778,361.327 163.359,349.962 163.133 C 340.837 162.953,334.250 163.252,330.258 164.028 M328.973 222.314 L 328.973 241.589 309.639 241.589 L 290.306 241.589 290.885 239.662 C 293.534 230.851,303.607 217.936,313.130 211.140 C 317.807 207.803,326.433 203.233,328.330 203.087 C 328.684 203.060,328.973 211.712,328.973 222.314 M375.592 206.992 C 387.656 213.051,398.644 224.972,403.484 237.250 L 405.194 241.589 385.931 241.589 L 366.668 241.589 366.668 222.335 L 366.668 203.080 369.005 203.969 C 370.291 204.458,373.255 205.818,375.592 206.992 M328.973 298.560 C 328.973 312.757,328.707 317.836,327.966 317.836 C 327.412 317.836,324.231 316.483,320.898 314.831 C 314.153 311.486,306.856 305.603,301.124 298.888 C 297.546 294.697,290.421 282.272,290.421 280.224 C 290.421 279.570,296.278 279.284,309.697 279.284 L 328.973 279.284 328.973 298.560 M404.755 281.212 C 400.664 294.823,382.257 313.228,368.595 317.367 L 366.668 317.951 366.668 298.618 L 366.668 279.284 386.001 279.284 L 405.335 279.284 404.755 281.212 " stroke="none" fill-rule="evenodd" fill="black"></path></svg>