<svg width="136mm" height="120mm" version="1.1" viewBox="0 0 600 529.4117647058824" xmlns="http://www.w3.org/2000/svg"><path d="M117.368 83.100 L 117.368 101.947 141.784 101.947 L 166.200 101.947 166.200 139.642 L 166.200 177.337 141.784 177.337 L 117.368 177.337 117.368 196.184 L 117.368 215.032 257.010 215.032 L 396.652 215.032 396.652 196.184 L 396.652 177.337 372.236 177.337 L 347.820 177.337 347.820 139.642 L 347.820 101.947 372.236 101.947 L 396.652 101.947 396.652 83.100 L 396.652 64.252 257.010 64.252 L 117.368 64.252 117.368 83.100 M310.125 139.642 L 310.125 177.337 257.010 177.337 L 203.895 177.337 203.895 139.642 L 203.895 101.947 257.010 101.947 L 310.125 101.947 310.125 139.642 M117.368 257.010 L 117.368 275.857 141.784 275.857 L 166.200 275.857 166.200 313.552 L 166.200 351.247 141.784 351.247 L 117.368 351.247 117.368 370.094 L 117.368 388.942 257.010 388.942 L 396.652 388.942 396.652 370.094 L 396.652 351.247 372.236 351.247 L 347.820 351.247 347.820 313.552 L 347.820 275.857 372.236 275.857 L 396.652 275.857 396.652 257.010 L 396.652 238.163 257.010 238.163 L 117.368 238.163 117.368 257.010 M310.125 313.552 L 310.125 351.247 257.010 351.247 L 203.895 351.247 203.895 313.552 L 203.895 275.857 257.010 275.857 L 310.125 275.857 310.125 313.552 " stroke="none" fill-rule="evenodd" fill="black"></path></svg>