<svg width="136mm" height="120mm" version="1.1" viewBox="0 0 600 529.4117647058824" xmlns="http://www.w3.org/2000/svg"><path d="M75.587 79.459 L 75.818 98.092 156.990 98.311 L 238.163 98.529 238.163 155.067 L 238.163 211.605 166.200 211.605 L 94.237 211.605 94.237 230.452 L 94.237 249.300 166.200 249.300 L 238.163 249.300 238.163 305.838 L 238.163 362.375 156.990 362.594 L 75.818 362.812 75.587 381.446 L 75.356 400.079 257.010 400.079 L 438.664 400.079 438.433 381.446 L 438.202 362.812 357.030 362.594 L 275.857 362.375 275.857 305.838 L 275.857 249.300 347.820 249.300 L 419.783 249.300 419.783 230.452 L 419.783 211.605 347.820 211.605 L 275.857 211.605 275.857 155.067 L 275.857 98.529 357.030 98.311 L 438.202 98.092 438.433 79.459 L 438.664 60.826 257.010 60.826 L 75.356 60.826 75.587 79.459 " stroke="none" fill-rule="evenodd" fill="black"></path></svg>