<svg width="136mm" height="120mm" version="1.1" viewBox="0 0 600 529.4117647058824" xmlns="http://www.w3.org/2000/svg"><path d="M106.231 79.673 L 106.231 98.520 220.813 98.520 L 335.395 98.520 301.778 132.137 L 268.162 165.754 244.206 153.801 C 231.031 147.227,220.084 142.026,219.879 142.244 C 219.675 142.462,215.800 150.060,211.270 159.129 L 203.032 175.618 259.672 203.940 C 290.823 219.518,316.418 232.144,316.549 232.000 C 316.881 231.634,333.256 198.827,333.256 198.529 C 333.256 198.395,326.697 195.024,318.680 191.038 L 304.105 183.791 365.583 122.308 L 427.060 60.826 266.646 60.826 L 106.231 60.826 106.231 79.673 M90.810 257.010 L 90.810 275.857 220.811 275.857 L 350.812 275.857 311.479 315.197 L 272.147 354.536 240.497 338.707 C 223.090 330.001,208.740 322.996,208.609 323.141 C 207.904 323.919,191.842 356.610,192.064 356.814 C 192.572 357.278,319.548 420.640,319.971 420.640 C 320.468 420.640,336.683 388.426,336.683 387.439 C 336.683 387.074,330.257 383.570,322.404 379.652 L 308.125 372.528 375.303 305.345 L 442.481 238.163 266.646 238.163 L 90.810 238.163 90.810 257.010 " stroke="none" fill-rule="evenodd" fill="black"></path></svg>