<svg width="136mm" height="120mm" version="1.1" viewBox="0 0 600 529.4117647058824" xmlns="http://www.w3.org/2000/svg"><path d="M131.885 97.021 L 131.838 156.348 114.321 121.437 C 104.686 102.236,96.415 86.527,95.940 86.527 C 95.465 86.527,87.756 90.191,78.808 94.670 L 62.539 102.812 81.389 140.503 C 91.756 161.233,100.434 178.194,100.673 178.194 C 100.913 178.194,108.044 174.722,116.520 170.479 L 131.932 162.764 131.932 185.471 L 131.932 208.178 96.379 208.178 L 60.826 208.178 60.826 227.025 L 60.826 245.873 90.382 245.873 C 106.638 245.873,119.938 246.067,119.938 246.303 C 119.938 246.540,104.496 277.617,85.622 315.362 C 66.748 353.108,51.424 384.098,51.568 384.228 C 52.345 384.933,85.036 400.994,85.240 400.772 C 85.373 400.626,95.912 379.689,108.660 354.245 L 131.838 307.984 131.885 361.742 L 131.932 415.500 151.208 415.500 L 170.483 415.500 170.530 361.742 L 170.577 307.984 193.755 354.245 C 206.504 379.689,217.100 400.684,217.303 400.900 C 217.718 401.340,250.086 385.425,250.680 384.488 C 250.889 384.159,235.628 353.030,216.768 315.312 C 197.908 277.594,182.477 246.540,182.477 246.303 C 182.477 246.067,195.777 245.873,212.033 245.873 L 241.589 245.873 241.589 227.025 L 241.589 208.178 206.036 208.178 L 170.483 208.178 170.483 185.471 L 170.483 162.764 185.895 170.479 C 194.371 174.722,201.502 178.194,201.742 178.194 C 201.981 178.194,210.659 161.233,221.027 140.503 L 239.876 102.812 223.607 94.670 C 214.659 90.191,206.950 86.527,206.475 86.527 C 206.001 86.527,197.729 102.236,188.094 121.437 L 170.577 156.348 170.530 97.021 L 170.483 37.695 151.208 37.695 L 131.932 37.695 131.885 97.021 M340.538 52.829 C 331.586 57.333,324.083 61.185,323.865 61.389 C 323.311 61.909,345.502 106.231,346.316 106.231 C 347.309 106.231,379.518 90.014,379.518 89.515 C 379.518 88.928,357.292 44.537,357.027 44.594 C 356.911 44.619,349.491 48.325,340.538 52.829 M279.717 105.366 C 275.238 114.313,271.574 121.935,271.574 122.302 C 271.574 122.669,279.702 127.010,289.636 131.948 C 299.570 136.887,307.875 141.207,308.092 141.549 C 308.309 141.890,294.976 148.928,278.463 157.187 L 248.438 172.204 256.675 188.692 C 261.206 197.760,265.020 205.298,265.151 205.443 C 265.282 205.587,284.707 196.045,308.318 184.238 L 351.247 162.770 394.176 184.238 C 417.787 196.045,437.212 205.587,437.343 205.443 C 438.048 204.665,454.110 171.974,453.887 171.771 C 453.742 171.638,440.132 164.789,423.644 156.550 L 393.666 141.571 412.723 132.035 L 431.781 122.499 423.544 106.012 C 419.014 96.944,415.200 89.407,415.069 89.262 C 414.937 89.117,400.911 95.960,383.900 104.468 C 366.888 112.977,352.387 119.938,351.675 119.938 C 350.963 119.938,336.507 112.999,319.549 104.517 C 302.592 96.036,288.524 89.097,288.288 89.097 C 288.053 89.097,284.195 96.418,279.717 105.366 M338.825 182.185 C 310.879 186.617,286.296 204.498,273.725 229.535 C 270.968 235.026,269.455 239.020,267.052 247.158 C 265.395 252.767,265.258 255.785,264.940 293.848 C 264.567 338.408,264.880 343.030,269.147 355.906 C 282.530 396.297,324.017 421.404,365.438 414.181 C 389.698 409.950,410.168 396.702,423.629 376.520 C 431.765 364.322,436.188 351.695,437.835 335.965 C 439.348 321.512,438.408 258.459,436.559 250.388 C 429.039 217.567,405.174 192.705,372.889 184.058 C 367.940 182.733,363.063 182.213,353.817 182.027 C 346.985 181.889,340.238 181.960,338.825 182.185 M332.400 251.013 L 332.400 279.284 317.407 279.284 L 302.415 279.284 302.415 271.303 C 302.415 260.672,303.651 254.427,307.242 246.907 C 310.939 239.164,319.008 230.385,326.500 225.955 C 329.488 224.188,332.037 222.742,332.166 222.742 C 332.294 222.742,332.400 235.464,332.400 251.013 M380.540 228.785 C 383.694 231.150,388.086 235.481,390.301 238.408 C 397.718 248.212,400.054 255.682,400.069 269.646 L 400.079 279.284 385.087 279.284 L 370.094 279.284 370.094 251.058 L 370.094 222.831 372.450 223.657 C 373.746 224.112,377.387 226.419,380.540 228.785 M332.400 345.250 C 332.400 360.799,332.110 373.518,331.757 373.513 C 329.708 373.488,320.959 367.376,316.551 362.892 C 306.856 353.030,302.458 341.332,302.430 325.332 L 302.415 316.979 317.407 316.979 L 332.400 316.979 332.400 345.250 M400.079 326.651 C 400.079 342.037,396.549 351.770,387.373 361.684 C 382.741 366.688,373.453 373.521,371.282 373.521 C 370.294 373.521,370.094 368.776,370.094 345.250 L 370.094 316.979 385.087 316.979 L 400.079 316.979 400.079 326.651 " stroke="none" fill-rule="evenodd" fill="black"></path></svg>