<svg width="136mm" height="120mm" version="1.1" viewBox="0 0 600 529.4117647058824" xmlns="http://www.w3.org/2000/svg"><path d="M131.885 97.021 L 131.838 156.348 114.321 121.437 C 104.686 102.236,96.415 86.527,95.940 86.527 C 95.465 86.527,87.756 90.191,78.808 94.670 L 62.539 102.812 81.389 140.503 C 91.756 161.233,100.434 178.194,100.673 178.194 C 100.913 178.194,108.044 174.722,116.520 170.479 L 131.932 162.764 131.932 185.471 L 131.932 208.178 95.934 208.178 L 59.936 208.178 60.166 226.811 L 60.397 245.445 90.168 245.670 C 106.541 245.794,119.938 246.084,119.938 246.314 C 119.938 246.545,104.507 277.594,85.647 315.312 C 66.787 353.030,51.526 384.159,51.735 384.488 C 52.329 385.425,84.697 401.340,85.112 400.900 C 85.315 400.684,95.912 379.689,108.660 354.245 L 131.838 307.984 131.885 361.742 L 131.932 415.500 151.208 415.500 L 170.483 415.500 170.530 361.742 L 170.577 307.984 193.755 354.245 C 206.504 379.689,217.100 400.684,217.303 400.900 C 217.718 401.340,250.086 385.425,250.680 384.488 C 250.889 384.159,235.628 353.030,216.768 315.312 C 197.908 277.594,182.477 246.540,182.477 246.303 C 182.477 246.067,195.777 245.873,212.033 245.873 L 241.589 245.873 241.589 227.025 L 241.589 208.178 206.036 208.178 L 170.483 208.178 170.483 185.471 L 170.483 162.764 185.895 170.479 C 194.371 174.722,201.502 178.194,201.742 178.194 C 201.981 178.194,210.659 161.233,221.027 140.503 L 239.876 102.812 223.607 94.670 C 214.659 90.191,206.950 86.527,206.475 86.527 C 206.001 86.527,197.729 102.236,188.094 121.437 L 170.577 156.348 170.530 97.021 L 170.483 37.695 151.208 37.695 L 131.932 37.695 131.885 97.021 M340.538 52.829 C 331.586 57.333,324.083 61.185,323.865 61.389 C 323.311 61.909,345.502 106.231,346.316 106.231 C 347.309 106.231,379.518 90.014,379.518 89.515 C 379.518 88.928,357.292 44.537,357.027 44.594 C 356.911 44.619,349.491 48.325,340.538 52.829 M279.717 105.366 C 275.238 114.313,271.574 121.935,271.574 122.302 C 271.574 122.669,279.702 127.010,289.636 131.948 C 299.570 136.887,307.875 141.207,308.092 141.549 C 308.309 141.890,294.976 148.928,278.463 157.187 L 248.438 172.204 256.675 188.692 C 261.206 197.760,265.020 205.298,265.151 205.443 C 265.282 205.587,284.707 196.045,308.318 184.238 L 351.247 162.770 394.126 184.212 C 417.709 196.006,437.274 205.484,437.603 205.275 C 438.540 204.681,454.456 172.313,454.015 171.899 C 453.799 171.696,440.132 164.789,423.644 156.550 L 393.666 141.571 412.723 132.035 L 431.781 122.499 423.544 106.012 C 419.014 96.944,415.200 89.407,415.069 89.262 C 414.937 89.117,400.911 95.960,383.900 104.468 C 366.888 112.977,352.387 119.938,351.675 119.938 C 350.963 119.938,336.507 112.999,319.549 104.517 C 302.592 96.036,288.524 89.097,288.288 89.097 C 288.053 89.097,284.195 96.418,279.717 105.366 M338.825 182.235 C 328.243 183.707,313.956 189.158,304.016 195.517 C 286.061 207.003,272.372 226.461,266.782 248.443 C 265.282 254.345,265.149 258.389,265.149 298.132 C 265.149 345.298,265.166 345.501,270.479 359.814 C 283.164 393.993,319.197 417.383,355.859 415.238 C 377.723 413.958,397.513 405.111,412.877 389.747 C 426.578 376.046,434.492 360.254,437.426 340.761 C 438.511 333.550,438.689 325.126,438.418 293.848 L 438.087 255.725 435.788 247.158 C 429.253 222.807,414.190 203.554,392.286 191.557 C 380.219 184.947,365.887 181.548,350.938 181.749 C 345.689 181.819,340.238 182.038,338.825 182.235 M332.400 251.013 L 332.400 279.284 317.407 279.284 L 302.415 279.284 302.430 271.360 C 302.448 261.562,304.179 253.061,307.555 246.186 C 310.932 239.308,319.658 229.983,326.487 225.955 C 329.482 224.188,332.037 222.742,332.166 222.742 C 332.294 222.742,332.400 235.464,332.400 251.013 M378.117 227.058 C 385.565 232.040,390.464 237.275,394.507 244.574 C 398.563 251.898,399.888 257.228,400.576 268.981 L 401.178 279.284 385.636 279.284 L 370.094 279.284 370.094 251.013 C 370.094 234.460,370.420 222.742,370.879 222.742 C 371.311 222.742,374.568 224.684,378.117 227.058 M332.400 345.250 C 332.400 360.799,332.110 373.518,331.757 373.513 C 329.711 373.488,321.177 367.476,316.617 362.848 C 306.783 352.867,302.459 341.433,302.430 325.332 L 302.415 316.979 317.407 316.979 L 332.400 316.979 332.400 345.250 M400.584 327.133 C 400.258 332.718,399.490 339.175,398.877 341.483 C 397.079 348.262,392.776 355.848,387.470 361.596 C 382.627 366.842,373.540 373.521,371.247 373.521 C 370.305 373.521,370.094 368.360,370.094 345.250 L 370.094 316.979 385.636 316.979 L 401.178 316.979 400.584 327.133 " stroke="none" fill-rule="evenodd" fill="black"></path></svg>