<svg width="136mm" height="120mm" version="1.1" viewBox="0 0 600 529.4117647058824" xmlns="http://www.w3.org/2000/svg"><path d="M132.580 97.450 L 132.360 157.204 114.582 121.866 C 104.803 102.429,96.415 86.527,95.940 86.527 C 95.465 86.527,87.756 90.191,78.808 94.670 L 62.539 102.812 81.389 140.503 C 91.756 161.233,100.434 178.194,100.673 178.194 C 100.913 178.194,108.040 174.724,116.511 170.483 C 124.983 166.243,132.111 162.773,132.351 162.773 C 132.592 162.773,132.788 172.796,132.788 185.047 L 132.788 207.321 96.807 207.321 L 60.826 207.321 60.826 226.597 L 60.826 245.873 90.382 245.873 C 106.638 245.873,119.938 246.067,119.938 246.303 C 119.938 246.540,104.496 277.617,85.622 315.362 C 66.748 353.108,51.424 384.098,51.568 384.228 C 52.345 384.933,85.036 400.994,85.240 400.772 C 85.373 400.626,96.029 379.497,108.921 353.817 L 132.360 307.127 132.581 361.313 L 132.801 415.500 151.642 415.500 L 170.483 415.500 170.530 361.742 L 170.577 307.984 193.755 354.245 C 206.504 379.689,217.100 400.684,217.303 400.900 C 217.718 401.340,250.086 385.425,250.680 384.488 C 250.889 384.159,235.628 353.030,216.768 315.312 C 197.908 277.594,182.477 246.540,182.477 246.303 C 182.477 246.067,195.777 245.873,212.033 245.873 L 241.589 245.873 241.589 226.597 L 241.589 207.321 206.036 207.321 L 170.483 207.321 170.483 185.047 C 170.483 172.796,170.680 162.773,170.921 162.773 C 171.161 162.773,178.292 166.244,186.766 170.486 L 202.175 178.199 221.028 140.500 L 239.881 102.801 223.214 94.480 C 214.047 89.904,206.378 86.339,206.172 86.557 C 205.966 86.776,197.873 102.761,188.187 122.080 L 170.577 157.204 170.530 97.450 L 170.483 37.695 151.642 37.695 L 132.800 37.695 132.580 97.450 M339.896 52.737 C 331.061 57.191,323.833 61.221,323.833 61.693 C 323.833 62.487,344.983 105.314,345.810 106.195 C 346.224 106.636,378.592 90.719,379.186 89.782 C 379.677 89.008,357.446 44.534,356.598 44.594 C 356.247 44.619,348.730 48.283,339.896 52.737 M279.717 105.366 C 275.238 114.313,271.574 121.935,271.574 122.302 C 271.574 122.669,279.702 127.010,289.636 131.948 C 299.570 136.887,307.875 141.207,308.092 141.548 C 308.309 141.890,295.266 148.776,279.107 156.850 C 262.949 164.924,249.549 171.698,249.330 171.904 C 249.112 172.110,252.677 179.779,257.253 188.946 L 265.574 205.613 308.410 184.191 L 351.247 162.770 394.176 184.238 C 417.787 196.045,437.212 205.587,437.343 205.443 C 438.048 204.665,454.110 171.974,453.887 171.771 C 453.742 171.638,440.130 164.788,423.638 156.547 L 393.654 141.565 412.287 132.260 C 422.535 127.142,430.920 122.658,430.920 122.295 C 430.920 121.931,427.256 114.313,422.777 105.365 L 414.634 89.097 383.802 104.517 C 366.844 112.999,352.387 119.938,351.675 119.938 C 350.963 119.938,336.507 112.999,319.549 104.517 C 302.592 96.036,288.524 89.097,288.288 89.097 C 288.053 89.097,284.195 96.418,279.717 105.366 M333.256 183.248 C 307.061 189.024,285.487 205.961,273.673 230.024 C 265.396 246.884,265.296 247.624,264.938 294.918 C 264.592 340.715,264.951 345.108,270.181 359.033 C 274.572 370.723,280.304 379.571,289.565 388.956 C 298.070 397.575,303.303 401.430,313.201 406.369 C 346.138 422.804,386.430 416.160,412.612 389.977 C 427.047 375.543,435.569 357.474,437.748 336.683 C 438.853 326.133,438.853 270.130,437.748 259.580 C 435.578 238.873,427.324 221.581,412.569 206.825 C 401.424 195.681,390.597 189.305,374.721 184.539 C 364.308 181.412,344.392 180.792,333.256 183.248 M332.400 251.013 L 332.400 279.284 317.294 279.284 L 302.188 279.284 302.622 268.361 C 302.970 259.587,303.473 256.313,305.177 251.717 C 309.178 240.925,316.815 231.760,326.781 225.791 C 329.580 224.114,331.990 222.742,332.135 222.742 C 332.281 222.742,332.400 235.464,332.400 251.013 M382.715 230.351 C 393.445 238.833,399.587 252.186,400.593 269.218 L 401.187 279.284 385.641 279.284 L 370.094 279.284 370.094 250.999 L 370.094 222.713 374.214 224.801 C 376.480 225.949,380.306 228.447,382.715 230.351 M332.400 345.250 C 332.400 360.799,332.110 373.518,331.757 373.513 C 331.404 373.509,328.994 372.294,326.403 370.813 C 316.046 364.896,306.558 352.010,303.732 340.022 C 303.022 337.007,302.435 330.590,302.428 325.760 L 302.415 316.979 317.407 316.979 L 332.400 316.979 332.400 345.250 M400.294 326.806 C 399.923 343.169,396.194 352.567,385.969 362.906 C 381.093 367.837,372.837 373.521,370.551 373.521 C 370.300 373.521,370.094 360.790,370.094 345.230 L 370.094 316.939 385.301 317.173 L 400.507 317.407 400.294 326.806 " stroke="none" fill-rule="evenodd" fill="black"></path></svg>