<svg width="136mm" height="120mm" version="1.1" viewBox="0 0 600 529.4117647058824" xmlns="http://www.w3.org/2000/svg"><path d="M138.360 104.512 C 119.746 141.736,104.517 172.384,104.517 172.619 C 104.517 173.424,137.257 189.432,137.807 188.896 C 138.109 188.601,144.718 175.760,152.493 160.360 L 166.628 132.360 285.495 132.143 L 404.362 131.926 404.362 113.081 L 404.362 94.237 295.133 94.237 C 235.057 94.237,185.904 94.041,185.904 93.802 C 185.904 93.562,190.360 84.461,195.806 73.576 C 201.252 62.692,205.589 53.679,205.444 53.547 C 205.299 53.415,197.760 49.601,188.691 45.070 L 172.202 36.832 138.360 104.512 M158.489 177.337 L 158.489 196.184 186.761 196.184 L 215.033 196.184 164.486 297.275 C 136.686 352.875,114.232 398.365,114.589 398.365 C 114.947 398.365,144.147 388.728,179.479 376.948 C 214.810 365.168,244.012 355.531,244.371 355.531 C 244.730 355.531,240.974 363.623,236.025 373.513 C 231.075 383.404,227.026 391.693,227.025 391.932 C 227.025 392.172,267.697 392.369,317.407 392.369 C 367.117 392.369,407.789 392.174,407.789 391.937 C 407.789 391.699,398.921 373.771,388.082 352.097 L 368.375 312.690 351.886 320.928 C 342.818 325.458,335.220 329.332,335.003 329.536 C 334.785 329.740,337.386 335.479,340.782 342.290 L 346.956 354.674 317.402 354.674 L 287.849 354.674 319.548 291.280 C 336.982 256.414,351.247 227.693,351.247 227.456 C 351.247 227.219,326.767 227.025,296.847 227.025 C 266.926 227.025,242.446 226.836,242.446 226.603 C 242.446 226.371,245.814 219.432,249.931 211.183 L 257.416 196.184 319.324 196.184 L 381.231 196.184 381.231 177.337 L 381.231 158.489 269.861 158.489 L 158.489 158.489 158.489 177.337 M272.661 300.248 C 262.894 319.788,254.650 335.498,254.341 335.159 C 254.032 334.819,252.299 330.003,250.490 324.457 C 248.682 318.911,246.806 314.517,246.323 314.693 C 236.517 318.265,189.962 333.317,189.659 333.013 C 189.427 332.782,196.870 317.321,206.199 298.656 L 223.160 264.720 256.789 264.720 L 290.419 264.720 272.661 300.248 " stroke="none" fill-rule="evenodd" fill="black"></path></svg>