<svg width="136mm" height="120mm" version="1.1" viewBox="0 0 600 529.4117647058824" xmlns="http://www.w3.org/2000/svg"><path d="M138.360 104.512 C 119.746 141.736,104.517 172.384,104.517 172.619 C 104.517 173.424,137.257 189.432,137.807 188.896 C 138.109 188.601,144.718 175.760,152.493 160.360 L 166.628 132.360 285.495 132.143 L 404.362 131.926 404.362 113.081 L 404.362 94.237 295.133 94.237 C 235.057 94.237,185.904 93.991,185.904 93.690 C 185.904 93.389,190.405 84.332,195.906 73.564 C 201.406 62.796,205.744 53.833,205.543 53.647 C 205.343 53.460,197.760 49.601,188.691 45.070 L 172.202 36.832 138.360 104.512 M158.489 177.334 L 158.489 196.184 186.761 196.184 L 215.033 196.184 164.430 297.389 C 136.598 353.051,114.334 398.404,114.954 398.172 C 118.177 396.969,244.086 355.530,244.517 355.531 C 244.796 355.531,240.974 363.623,236.025 373.513 C 231.075 383.404,227.026 391.885,227.025 392.361 C 227.025 392.937,257.181 393.225,317.407 393.225 C 377.346 393.225,407.789 392.936,407.789 392.365 C 407.789 391.892,398.921 373.771,388.082 352.097 L 368.375 312.690 351.886 320.928 C 342.818 325.458,335.220 329.332,335.003 329.536 C 334.785 329.740,337.387 335.483,340.785 342.298 C 344.183 349.113,346.964 354.878,346.964 355.110 C 346.964 355.341,333.663 355.531,317.407 355.531 C 301.151 355.531,287.851 355.337,287.851 355.100 C 287.851 354.863,302.115 326.143,319.549 291.278 C 336.983 256.413,351.247 227.693,351.247 227.456 C 351.247 227.219,326.767 227.025,296.847 227.025 C 266.926 227.025,242.446 226.836,242.446 226.603 C 242.446 226.371,245.814 219.432,249.931 211.183 L 257.416 196.184 319.769 196.184 L 382.122 196.184 381.891 177.551 L 381.660 158.918 270.075 158.700 L 158.489 158.483 158.489 177.334 M272.661 300.248 C 262.894 319.788,254.650 335.498,254.341 335.159 C 254.032 334.819,252.299 330.003,250.490 324.457 C 248.682 318.911,246.806 314.517,246.323 314.693 C 236.517 318.265,189.962 333.317,189.659 333.013 C 189.427 332.782,196.870 317.321,206.199 298.656 L 223.160 264.720 256.789 264.720 L 290.419 264.720 272.661 300.248 " stroke="none" fill-rule="evenodd" fill="black"></path></svg>