<svg width="136mm" height="120mm" version="1.1" viewBox="0 0 600 529.4117647058824" xmlns="http://www.w3.org/2000/svg"><path d="M138.334 104.564 C 119.709 141.811,104.642 172.554,104.851 172.883 C 105.444 173.820,137.812 189.735,138.226 189.295 C 138.429 189.079,145.000 176.084,152.829 160.417 L 167.062 131.932 285.712 131.932 L 404.362 131.932 404.362 113.084 L 404.362 94.237 295.130 94.237 L 185.897 94.237 195.752 74.540 C 201.173 63.707,205.608 54.546,205.608 54.183 C 205.608 53.820,198.090 49.770,188.902 45.183 L 172.196 36.843 138.334 104.564 M159.064 159.057 C 158.748 159.373,158.489 167.856,158.489 177.908 L 158.489 196.184 186.761 196.184 L 215.033 196.184 164.486 297.275 C 136.686 352.875,114.232 398.365,114.589 398.365 C 114.947 398.365,144.147 388.728,179.479 376.948 C 214.810 365.168,244.012 355.531,244.371 355.531 C 244.730 355.531,240.974 363.623,236.025 373.513 C 231.075 383.404,227.025 391.885,227.025 392.361 C 227.025 392.937,257.181 393.225,317.407 393.225 C 377.346 393.225,407.789 392.936,407.789 392.365 C 407.789 391.892,398.921 373.771,388.082 352.097 L 368.375 312.690 351.886 320.928 C 342.818 325.458,335.220 329.332,335.003 329.536 C 334.785 329.740,337.387 335.483,340.785 342.298 C 344.183 349.113,346.964 354.878,346.964 355.110 C 346.964 355.341,333.663 355.531,317.407 355.531 C 301.151 355.531,287.851 355.337,287.851 355.100 C 287.851 354.863,302.115 326.143,319.549 291.278 C 336.983 256.413,351.247 227.693,351.247 227.456 C 351.247 227.219,326.767 227.025,296.847 227.025 C 266.926 227.025,242.446 226.836,242.446 226.603 C 242.446 226.371,245.814 219.432,249.931 211.183 L 257.416 196.184 319.769 196.184 L 382.122 196.184 381.891 177.551 L 381.660 158.918 270.649 158.700 C 209.593 158.581,159.380 158.742,159.064 159.057 M272.661 300.248 C 262.894 319.788,254.650 335.498,254.341 335.159 C 254.032 334.819,252.299 330.003,250.490 324.457 C 248.682 318.911,246.806 314.517,246.323 314.693 C 236.517 318.265,189.962 333.317,189.659 333.013 C 189.427 332.782,196.870 317.321,206.199 298.656 L 223.160 264.720 256.789 264.720 L 290.419 264.720 272.661 300.248 " stroke="none" fill-rule="evenodd" fill="black"></path></svg>