<svg width="136mm" height="120mm" version="1.1" viewBox="0 0 600 529.4117647058824" xmlns="http://www.w3.org/2000/svg"><path d="M370.094 142.430 L 370.094 247.165 319.121 272.647 L 268.147 298.130 268.147 205.607 L 268.147 113.084 249.300 113.084 L 230.452 113.084 230.452 215.029 L 230.452 316.973 205.608 329.401 C 191.944 336.236,180.764 342.024,180.764 342.263 C 180.764 343.625,197.196 375.235,197.904 375.235 C 198.373 375.235,237.309 355.958,284.426 332.399 L 370.094 289.563 370.094 352.531 L 370.094 415.500 389.370 415.500 L 408.646 415.500 408.646 342.883 L 408.646 270.267 435.204 257.010 C 449.810 249.719,461.761 243.648,461.761 243.519 C 461.761 243.226,445.379 210.416,445.052 210.055 C 444.920 209.910,436.675 213.863,426.729 218.841 L 408.646 227.890 408.646 132.792 L 408.646 37.695 389.370 37.695 L 370.094 37.695 370.094 142.430 M111.578 141.577 L 43.683 209.476 56.968 222.739 L 70.252 236.003 87.813 218.457 L 105.374 200.912 105.374 300.495 L 105.374 400.079 124.650 400.079 L 143.926 400.079 143.926 281.216 L 143.926 162.353 174.977 131.293 L 206.029 100.233 192.751 86.955 L 179.473 73.678 111.578 141.577 " stroke="none" fill-rule="evenodd" fill="black"></path></svg>