<svg width="136mm" height="120mm" version="1.1" viewBox="0 0 600 529.4117647058824" xmlns="http://www.w3.org/2000/svg"><path d="M177.337 144.573 L 177.337 198.335 113.084 230.452 C 77.746 248.117,48.832 262.864,48.832 263.225 C 48.832 263.586,52.496 271.201,56.974 280.149 L 65.117 296.417 120.796 268.575 C 151.419 253.262,176.669 240.733,176.906 240.733 C 177.143 240.733,177.337 259.430,177.337 282.283 C 177.337 305.135,177.141 323.833,176.902 323.833 C 176.663 323.833,166.043 318.617,153.301 312.243 C 140.559 305.868,129.863 300.824,129.533 301.034 C 128.596 301.629,112.679 333.996,113.120 334.411 C 114.522 335.732,214.943 385.318,215.364 384.897 C 215.652 384.609,215.888 347.621,215.888 302.703 L 215.888 221.032 253.583 202.181 C 274.315 191.813,291.278 182.948,291.278 182.481 C 291.278 181.077,275.503 149.923,274.792 149.923 C 274.430 149.923,261.029 156.477,245.011 164.489 L 215.888 179.055 215.888 134.933 L 215.888 90.810 196.613 90.810 L 177.337 90.810 177.337 144.573 M310.125 232.166 L 310.125 373.521 328.973 373.521 L 347.820 373.521 347.820 313.341 L 347.820 253.162 388.306 293.641 L 428.792 334.120 442.058 320.834 L 455.323 307.547 401.572 253.791 L 347.820 200.034 347.820 145.422 L 347.820 90.810 328.973 90.810 L 310.125 90.810 310.125 232.166 " stroke="none" fill-rule="evenodd" fill="black"></path></svg>