<svg width="136mm" height="120mm" version="1.1" viewBox="0 0 600 529.4117647058824" xmlns="http://www.w3.org/2000/svg"><path d="M177.337 144.611 L 177.337 198.412 113.411 230.049 C 78.251 247.449,49.313 262.131,49.104 262.676 C 48.895 263.220,52.413 271.035,56.921 280.041 L 65.117 296.417 120.796 268.575 C 151.419 253.262,176.669 240.733,176.906 240.733 C 177.143 240.733,177.337 259.430,177.337 282.283 C 177.337 305.135,177.141 323.833,176.902 323.833 C 176.663 323.833,166.043 318.617,153.301 312.243 C 140.559 305.868,129.863 300.824,129.533 301.034 C 128.596 301.629,112.679 333.996,113.120 334.411 C 113.695 334.953,214.948 385.515,215.457 385.515 C 215.694 385.515,215.888 348.505,215.888 303.271 L 215.888 221.026 253.926 202.013 L 291.963 183.000 283.706 166.461 C 279.165 157.365,275.154 149.923,274.792 149.923 C 274.430 149.923,261.029 156.477,245.011 164.489 L 215.888 179.055 215.888 134.933 L 215.888 90.810 196.613 90.810 L 177.337 90.810 177.337 144.611 M310.125 232.594 L 310.125 374.378 328.973 374.378 L 347.820 374.378 347.820 313.770 L 347.820 253.162 388.306 293.641 L 428.792 334.120 442.058 320.834 L 455.323 307.547 401.572 253.791 L 347.820 200.034 347.820 145.422 L 347.820 90.810 328.973 90.810 L 310.125 90.810 310.125 232.594 " stroke="none" fill-rule="evenodd" fill="black"></path></svg>