<svg width="136mm" height="120mm" version="1.1" viewBox="0 0 600 529.4117647058824" xmlns="http://www.w3.org/2000/svg"><path d="M125.078 198.282 L 125.078 302.327 127.225 309.122 C 136.633 338.905,173.879 360.994,227.454 368.563 C 237.842 370.030,276.328 369.996,286.995 368.510 C 339.597 361.179,377.470 338.643,386.795 309.122 L 388.942 302.327 388.942 198.282 L 388.942 94.237 370.094 94.237 L 351.247 94.237 351.247 128.505 L 351.247 162.773 257.010 162.773 L 162.773 162.773 162.773 128.505 L 162.773 94.237 143.926 94.237 L 125.078 94.237 125.078 198.282 M351.247 249.010 L 351.247 297.553 349.111 301.197 C 342.552 312.390,319.643 324.060,294.705 328.912 C 264.014 334.884,228.053 333.071,201.461 324.210 C 183.924 318.366,169.736 309.434,164.909 301.197 L 162.773 297.553 162.773 249.010 L 162.773 200.468 257.010 200.468 L 351.247 200.468 351.247 249.010 " stroke="none" fill-rule="evenodd" fill="black"></path></svg>