<svg width="136mm" height="120mm" version="1.1" viewBox="0 0 600 529.4117647058824" xmlns="http://www.w3.org/2000/svg"><path d="M124.590 95.369 C 124.351 95.991,124.278 142.735,124.426 199.244 C 124.728 313.953,124.279 305.604,130.827 318.065 C 134.507 325.069,144.118 335.625,152.320 341.672 C 166.741 352.305,188.623 361.298,210.760 365.691 C 227.681 369.048,234.728 369.652,257.010 369.652 C 279.292 369.652,286.339 369.048,303.260 365.691 C 347.584 356.895,380.015 334.264,387.798 306.699 C 389.284 301.437,389.370 295.446,389.370 197.898 L 389.370 94.665 370.309 94.435 L 351.247 94.204 351.247 128.489 L 351.247 162.773 257.010 162.773 L 162.773 162.773 162.773 128.505 L 162.773 94.237 143.899 94.237 C 129.049 94.237,124.932 94.478,124.590 95.369 M351.247 249.203 L 351.247 297.938 348.463 302.080 C 336.681 319.608,298.100 332.398,257.010 332.398 C 215.920 332.398,177.339 319.608,165.557 302.080 L 162.773 297.938 162.773 249.203 L 162.773 200.468 257.010 200.468 L 351.247 200.468 351.247 249.203 " stroke="none" fill-rule="evenodd" fill="black"></path></svg>