<svg width="136mm" height="120mm" version="1.1" viewBox="0 0 600 529.4117647058824" xmlns="http://www.w3.org/2000/svg"><path d="M125.276 199.825 L 125.507 305.414 127.520 310.790 C 131.901 322.488,143.256 335.861,155.919 344.237 C 173.765 356.041,199.618 364.669,228.739 368.541 C 239.317 369.947,274.703 369.947,285.281 368.541 C 314.311 364.682,340.304 356.082,357.518 344.641 C 370.810 335.806,382.045 322.684,386.500 310.790 L 388.513 305.414 388.744 199.825 L 388.975 94.237 370.111 94.237 L 351.247 94.237 351.247 128.505 L 351.247 162.773 257.010 162.773 L 162.773 162.773 162.773 128.505 L 162.773 94.237 143.909 94.237 L 125.045 94.237 125.276 199.825 M351.247 249.010 L 351.247 297.553 349.111 301.197 C 342.444 312.573,321.265 323.307,295.184 328.527 C 269.914 333.585,244.007 333.584,218.887 328.524 C 192.026 323.114,171.801 312.753,164.577 300.702 C 162.808 297.751,162.779 296.935,162.776 249.086 L 162.773 200.468 257.010 200.468 L 351.247 200.468 351.247 249.010 " stroke="none" fill-rule="evenodd" fill="black"></path></svg>