<svg width="136mm" height="120mm" version="1.1" viewBox="0 0 600 529.4117647058824" xmlns="http://www.w3.org/2000/svg"><path d="M227.025 144.805 C 160.900 151.576,110.291 177.027,93.343 212.033 C 87.959 223.154,87.410 226.926,87.396 252.941 L 87.383 275.857 106.190 275.857 L 124.997 275.857 125.252 253.797 C 125.501 232.225,125.554 231.643,127.648 227.468 C 136.310 210.202,168.620 193.205,206.465 186.007 C 225.523 182.382,238.832 181.401,262.579 181.870 C 294.870 182.508,316.543 186.182,340.538 195.084 C 362.481 203.225,380.650 216.062,386.372 227.468 C 388.466 231.643,388.519 232.225,388.768 253.797 L 389.023 275.857 407.830 275.857 L 426.637 275.857 426.622 253.369 C 426.605 227.539,425.938 222.873,420.736 212.143 C 404.788 179.255,361.358 155.593,300.038 146.384 C 290.534 144.957,283.105 144.564,261.293 144.338 C 246.451 144.185,231.031 144.394,227.025 144.805 " stroke="none" fill-rule="evenodd" fill="black"></path></svg>