<svg width="136mm" height="120mm" version="1.1" viewBox="0 0 600 529.4117647058824" xmlns="http://www.w3.org/2000/svg"><path d="M232.166 144.459 C 169.303 149.973,118.904 172.152,98.063 203.472 C 88.550 217.770,86.268 228.691,86.697 257.867 L 86.955 275.429 105.802 275.429 L 124.650 275.429 125.078 253.583 C 125.493 232.411,125.573 231.606,127.648 227.482 C 134.720 213.432,158.087 198.962,187.189 190.612 C 196.651 187.897,212.453 184.758,224.455 183.210 C 236.521 181.653,277.499 181.653,289.565 183.210 C 322.257 187.428,349.755 196.450,368.556 209.128 C 375.693 213.940,383.716 222.206,386.372 227.482 C 388.447 231.606,388.527 232.411,388.942 253.583 L 389.370 275.429 408.218 275.429 L 427.065 275.429 427.323 257.867 C 427.465 248.207,427.173 236.740,426.673 232.384 C 421.727 189.248,372.650 156.606,296.847 146.033 C 287.007 144.661,242.276 143.573,232.166 144.459 " stroke="none" fill-rule="evenodd" fill="black"></path></svg>