<svg width="136mm" height="120mm" version="1.1" viewBox="0 0 600 529.4117647058824" xmlns="http://www.w3.org/2000/svg"><path d="M232.166 144.451 C 163.614 150.395,110.706 176.097,93.301 211.908 C 87.877 223.068,87.050 228.538,86.999 253.583 L 86.955 275.429 106.017 275.660 L 125.078 275.890 125.078 254.593 L 125.078 233.296 127.805 227.805 C 138.176 206.918,176.009 189.461,224.455 183.210 C 236.521 181.653,277.499 181.653,289.565 183.210 C 316.104 186.634,336.719 192.409,355.102 201.568 C 371.340 209.659,381.430 218.168,386.215 227.805 L 388.942 233.296 388.942 254.593 L 388.942 275.890 408.003 275.660 L 427.065 275.429 427.021 253.583 C 426.970 228.538,426.143 223.068,420.719 211.908 C 406.815 183.300,368.972 160.185,319.158 149.872 C 298.670 145.630,288.501 144.658,261.722 144.382 C 247.586 144.236,234.286 144.267,232.166 144.451 " stroke="none" fill-rule="evenodd" fill="black"></path></svg>