<svg width="136mm" height="120mm" version="1.1" viewBox="0 0 600 529.4117647058824" xmlns="http://www.w3.org/2000/svg"><path d="M98.313 90.596 L 98.092 143.497 88.337 114.369 C 82.972 98.349,78.466 85.105,78.324 84.938 C 78.087 84.658,43.642 95.863,42.960 96.442 C 42.681 96.679,68.444 174.811,69.028 175.498 C 69.225 175.731,91.349 168.656,97.465 166.405 C 98.328 166.087,98.504 170.307,98.322 186.877 L 98.092 207.750 69.590 207.975 L 41.088 208.201 41.319 226.823 L 41.550 245.445 66.267 245.672 C 89.324 245.884,90.944 245.999,90.398 247.385 C 87.685 254.279,42.873 389.483,43.088 390.129 C 43.334 390.868,78.030 402.936,78.427 402.421 C 78.512 402.311,83.038 388.920,88.484 372.665 L 98.385 343.108 98.453 379.304 L 98.520 415.500 117.368 415.500 L 136.215 415.500 136.283 379.732 L 136.351 343.965 146.179 373.226 L 156.008 402.486 173.870 396.525 L 191.731 390.564 167.829 318.867 C 154.682 279.433,143.926 246.878,143.926 246.521 C 143.926 246.165,153.178 245.873,164.486 245.873 L 185.047 245.873 185.047 227.025 L 185.047 208.178 160.631 208.178 L 136.215 208.178 136.215 188.046 C 136.215 176.973,136.520 167.913,136.893 167.913 C 137.267 167.913,142.744 169.648,149.066 171.768 C 155.388 173.889,160.833 175.624,161.167 175.624 C 161.756 175.624,187.617 98.966,187.617 97.220 C 187.617 96.398,152.660 84.308,152.122 84.944 C 151.984 85.108,148.378 95.651,144.111 108.373 L 136.351 131.503 136.283 84.599 L 136.215 37.695 117.374 37.695 L 98.534 37.695 98.313 90.596 M322.512 95.308 C 312.283 126.053,303.866 151.544,303.807 151.955 C 303.725 152.527,322.471 159.249,337.672 164.098 C 338.855 164.475,340.600 160.018,348.238 137.104 L 357.387 109.658 365.882 109.658 L 374.378 109.658 374.378 188.974 C 374.378 252.042,374.159 268.218,373.307 267.940 C 371.472 267.340,365.892 259.336,364.535 255.358 C 363.452 252.184,363.241 244.940,363.241 211.024 L 363.241 170.483 343.965 170.483 L 324.689 170.483 324.689 208.415 C 324.689 248.673,325.211 256.592,328.558 267.143 C 331.718 277.105,336.097 283.835,345.678 293.450 C 352.828 300.624,355.521 302.691,361.956 305.939 C 366.196 308.080,370.585 310.068,371.709 310.357 C 373.702 310.869,373.737 311.037,373.143 317.143 C 370.446 344.833,357.945 372.939,346.482 377.084 L 343.537 378.149 343.537 396.824 L 343.537 415.500 345.464 415.485 C 352.254 415.432,363.814 411.273,371.292 406.191 C 376.037 402.968,384.829 393.641,388.992 387.417 C 400.263 370.566,409.283 342.684,410.919 319.640 C 411.224 315.348,411.897 311.505,412.415 311.102 C 412.934 310.698,415.270 309.731,417.607 308.952 C 425.203 306.422,433.612 300.754,441.201 293.051 C 448.823 285.313,452.810 279.424,456.339 270.687 C 460.644 260.027,460.874 257.079,460.890 212.247 L 460.905 170.483 442.096 170.483 L 423.287 170.483 423.034 211.819 C 422.787 252.229,422.740 253.246,420.912 257.203 C 418.933 261.485,413.987 268.147,412.786 268.147 C 412.394 268.147,412.073 232.487,412.073 188.902 L 412.073 109.658 438.630 109.658 L 465.188 109.658 465.188 90.810 L 465.188 71.963 417.641 71.963 C 391.490 71.963,370.094 71.848,370.094 71.708 C 370.094 71.569,371.617 66.923,373.477 61.384 C 375.863 54.285,376.557 51.201,375.833 50.929 C 374.285 50.349,341.470 39.408,341.277 39.408 C 341.185 39.408,332.740 64.563,322.512 95.308 M196.382 124.864 L 196.613 143.497 215.246 143.728 L 233.879 143.959 233.879 176.069 L 233.879 208.178 215.015 208.178 L 196.151 208.178 196.382 226.811 L 196.613 245.445 215.240 245.675 L 233.868 245.906 234.087 306.073 L 234.307 366.239 253.155 366.239 L 272.002 366.239 272.222 306.056 L 272.442 245.873 287.429 245.873 L 302.415 245.873 302.415 227.025 L 302.415 208.178 287.423 208.178 L 272.431 208.178 272.431 176.052 L 272.431 143.926 287.423 143.926 L 302.415 143.926 302.415 125.078 L 302.415 106.231 249.283 106.231 L 196.151 106.231 196.382 124.864 " stroke="none" fill-rule="evenodd" fill="black"></path></svg>