<svg width="136mm" height="120mm" version="1.1" viewBox="0 0 600 529.4117647058824" xmlns="http://www.w3.org/2000/svg"><path d="M215.032 62.115 C 160.973 69.506,112.434 104.725,88.699 153.778 C 61.459 210.074,67.574 275.652,104.738 325.774 C 110.967 334.175,124.875 348.686,133.217 355.487 C 156.221 374.243,184.074 386.420,215.032 391.258 C 224.101 392.675,232.919 392.797,325.974 392.797 L 427.065 392.797 427.296 374.215 L 427.526 355.633 326.633 355.301 C 219.400 354.948,221.897 355.040,205.774 350.862 C 170.052 341.605,138.863 316.057,122.843 282.930 C 118.048 273.014,113.602 259.549,111.692 249.152 C 109.681 238.214,109.681 214.980,111.692 204.042 C 120.579 155.682,156.057 116.538,203.052 103.242 C 218.087 98.987,214.892 99.111,323.833 98.588 L 427.065 98.092 427.296 79.459 L 427.527 60.826 325.349 60.914 C 246.712 60.982,221.295 61.259,215.032 62.115 M280.569 114.045 C 260.464 115.680,240.017 123.536,222.696 136.281 C 214.752 142.125,202.536 155.073,196.892 163.630 C 187.991 177.124,183.680 187.614,179.552 205.822 L 179.018 208.178 167.040 208.178 L 155.063 208.178 155.063 227.002 L 155.063 245.826 167.144 246.064 L 179.226 246.301 181.180 254.012 C 186.646 275.578,196.463 292.447,212.632 308.059 C 247.729 341.943,299.181 349.431,343.001 327.031 C 364.090 316.252,382.810 297.172,392.790 276.286 C 396.435 268.658,401.085 255.279,402.236 249.108 L 402.831 245.919 414.948 245.682 L 427.065 245.445 427.296 226.835 L 427.527 208.225 415.354 207.988 L 403.182 207.750 402.023 203.038 C 398.446 188.499,392.892 175.309,385.999 164.985 C 362.130 129.235,323.470 110.555,280.569 114.045 M272.042 207.099 C 271.721 207.935,265.608 208.178,244.931 208.178 L 218.234 208.178 218.706 205.273 C 219.834 198.319,227.986 183.788,235.359 175.588 C 242.897 167.204,256.721 158.271,267.156 155.042 L 272.002 153.542 272.229 179.781 C 272.354 194.212,272.270 206.505,272.042 207.099 M330.125 162.033 C 345.025 170.884,359.772 190.121,363.695 205.822 L 364.283 208.178 337.204 208.178 L 310.125 208.178 310.125 180.773 L 310.125 153.367 317.144 155.929 C 321.004 157.338,326.846 160.084,330.125 162.033 M272.431 272.859 C 272.431 287.701,272.298 299.845,272.136 299.845 C 270.971 299.845,261.498 296.142,257.169 293.995 C 246.839 288.869,238.083 281.633,231.134 272.477 C 226.566 266.457,219.711 253.220,218.800 248.657 L 218.244 245.873 245.337 245.873 L 272.431 245.873 272.431 272.859 M363.631 247.800 C 356.392 271.771,336.172 292.022,312.481 299.029 L 310.125 299.725 310.125 272.799 L 310.125 245.873 337.169 245.873 L 364.213 245.873 363.631 247.800 " stroke="none" fill-rule="evenodd" fill="black"></path></svg>