<svg width="136mm" height="120mm" version="1.1" viewBox="0 0 600 529.4117647058824" xmlns="http://www.w3.org/2000/svg"><path d="M219.315 61.416 C 211.749 62.212,197.330 65.378,188.411 68.202 C 125.708 88.048,80.834 142.240,73.216 207.316 C 65.577 272.571,97.250 336.287,153.983 369.792 C 167.616 377.844,181.751 383.600,198.009 387.721 C 216.258 392.346,215.982 392.336,325.332 392.353 L 426.637 392.369 426.637 373.547 L 426.637 354.726 322.762 354.456 L 218.887 354.186 209.892 351.936 C 184.496 345.583,165.309 334.864,147.320 316.979 C 128.851 298.616,116.896 275.776,111.669 248.871 C 109.385 237.111,109.580 214.946,112.078 202.384 C 117.184 176.711,129.108 154.323,147.320 136.215 C 165.358 118.281,184.491 107.591,209.892 101.253 L 218.887 99.009 322.762 98.738 L 426.637 98.468 426.637 79.647 L 426.637 60.826 324.475 60.963 C 268.286 61.038,220.964 61.242,219.315 61.416 M278.428 113.967 C 253.334 117.017,230.821 127.613,213.007 144.757 C 196.846 160.310,186.551 177.903,181.189 199.125 L 179.226 206.893 167.144 207.131 L 155.063 207.368 155.063 226.597 L 155.063 245.826 167.144 246.064 L 179.226 246.301 181.189 254.070 C 192.117 297.322,226.665 329.598,271.146 338.108 C 282.421 340.265,301.854 340.050,313.324 337.641 C 356.743 328.521,390.277 296.286,400.988 253.369 L 402.859 245.873 414.748 245.873 L 426.637 245.873 426.637 226.597 L 426.637 207.321 414.748 207.321 L 402.859 207.321 400.988 199.825 C 390.305 157.021,356.423 124.391,313.598 115.664 C 303.651 113.637,287.541 112.860,278.428 113.967 M272.431 180.335 L 272.431 207.321 245.337 207.321 L 218.244 207.321 218.783 204.630 C 219.688 200.104,226.536 186.635,230.776 181.040 C 237.638 171.987,246.493 164.623,256.837 159.366 C 261.542 156.975,270.069 153.579,271.788 153.412 C 272.141 153.377,272.431 165.493,272.431 180.335 M319.407 156.621 C 336.549 163.218,353.346 179.864,360.555 197.399 C 361.926 200.736,363.311 204.334,363.631 205.394 L 364.213 207.321 337.169 207.321 L 310.125 207.321 310.125 180.395 L 310.125 153.469 312.481 154.166 C 313.777 154.549,316.893 155.654,319.407 156.621 M272.431 272.859 C 272.431 287.701,272.298 299.845,272.136 299.845 C 270.668 299.845,260.852 295.830,255.450 293.019 C 247.125 288.688,238.822 281.922,232.536 274.348 C 227.690 268.508,219.809 253.773,218.796 248.657 L 218.244 245.873 245.337 245.873 L 272.431 245.873 272.431 272.859 M363.077 249.086 C 357.435 269.639,338.044 289.921,316.874 297.413 L 310.125 299.801 310.125 272.837 L 310.125 245.873 337.042 245.873 L 363.959 245.873 363.077 249.086 " stroke="none" fill-rule="evenodd" fill="black"></path></svg>