<svg width="136mm" height="120mm" version="1.1" viewBox="0 0 600 529.4117647058824" xmlns="http://www.w3.org/2000/svg"><path d="M215.032 62.122 C 168.693 68.499,126.305 95.131,99.833 134.502 C 93.367 144.117,83.902 163.555,80.225 174.767 C 63.391 226.102,72.814 283.158,105.265 326.377 C 111.574 334.779,125.496 349.206,133.616 355.754 C 154.124 372.295,179.232 384.103,205.152 389.397 C 222.320 392.903,236.956 393.313,335.398 393.046 L 427.065 392.797 427.296 374.215 L 427.526 355.633 326.633 355.301 C 219.400 354.948,221.897 355.040,205.774 350.862 C 191.685 347.211,175.619 339.656,163.349 330.910 C 154.184 324.378,140.493 310.600,133.921 301.295 C 102.930 257.418,101.964 199.728,131.479 155.513 C 149.020 129.237,175.193 110.484,205.180 102.709 C 208.949 101.732,213.961 100.515,216.317 100.007 C 219.175 99.389,254.942 98.917,323.833 98.587 L 427.065 98.092 427.296 79.459 L 427.527 60.826 325.349 60.914 C 246.345 60.982,221.324 61.256,215.032 62.122 M280.569 114.045 C 253.891 116.215,228.336 128.606,209.016 148.739 C 193.782 164.615,185.066 181.501,179.552 205.822 L 179.018 208.178 167.040 208.178 L 155.063 208.178 155.063 227.002 L 155.063 245.826 167.144 246.064 L 179.226 246.301 181.196 254.012 C 186.679 275.479,196.658 292.636,212.632 308.059 C 242.974 337.353,286.778 347.337,326.543 334.022 C 364.155 321.427,391.952 290.980,401.330 252.107 L 402.822 245.919 414.944 245.682 L 427.065 245.445 427.296 226.811 L 427.527 208.178 415.244 208.178 L 402.962 208.178 401.411 201.539 C 393.555 167.928,371.699 140.399,340.538 124.865 C 323.158 116.201,301.687 112.327,280.569 114.045 M272.042 207.099 C 271.721 207.935,265.608 208.178,244.931 208.178 L 218.234 208.178 218.706 205.273 C 219.834 198.319,227.986 183.788,235.359 175.588 C 242.897 167.204,256.721 158.271,267.156 155.042 L 272.002 153.542 272.229 179.781 C 272.354 194.212,272.270 206.505,272.042 207.099 M323.196 158.370 C 332.305 162.342,344.757 172.482,351.241 181.209 C 356.859 188.769,361.015 197.155,363.654 206.251 L 364.213 208.178 337.169 208.178 L 310.125 208.178 310.125 180.810 L 310.125 153.442 314.623 155.017 C 317.097 155.884,320.955 157.393,323.196 158.370 M272.431 272.859 C 272.431 287.701,272.298 299.845,272.136 299.845 C 270.971 299.845,261.498 296.142,257.169 293.995 C 246.839 288.869,238.083 281.633,231.134 272.477 C 226.566 266.457,219.711 253.220,218.800 248.657 L 218.244 245.873 245.337 245.873 L 272.431 245.873 272.431 272.859 M363.261 248.229 C 356.331 271.009,338.720 289.682,316.874 297.413 L 310.125 299.801 310.125 272.837 L 310.125 245.873 337.052 245.873 L 363.978 245.873 363.261 248.229 " stroke="none" fill-rule="evenodd" fill="black"></path></svg>