<svg width="136mm" height="120mm" version="1.1" viewBox="0 0 600 529.4117647058824" xmlns="http://www.w3.org/2000/svg"><path d="M98.454 90.596 L 98.387 143.497 88.633 114.472 C 83.268 98.508,78.742 85.310,78.576 85.144 C 78.202 84.770,44.365 95.948,43.486 96.736 C 42.991 97.179,67.992 174.273,69.029 175.498 C 69.225 175.731,91.351 168.655,97.465 166.405 C 98.328 166.087,98.504 170.307,98.322 186.877 L 98.092 207.750 70.035 207.976 L 41.978 208.202 41.978 227.037 L 41.978 245.873 66.394 245.873 C 79.823 245.873,90.810 245.972,90.810 246.093 C 90.810 246.214,80.023 278.669,66.839 318.215 C 53.655 357.761,43.000 390.249,43.161 390.410 C 43.323 390.572,51.337 393.338,60.970 396.557 L 78.486 402.411 88.289 373.188 L 98.092 343.965 98.316 379.732 L 98.539 415.500 117.377 415.500 L 136.215 415.500 136.283 379.732 L 136.351 343.965 146.179 373.226 L 156.008 402.486 173.870 396.525 L 191.731 390.564 167.829 318.867 C 154.682 279.433,143.926 246.878,143.926 246.521 C 143.926 246.165,153.178 245.873,164.486 245.873 L 185.047 245.873 185.047 227.025 L 185.047 208.178 160.631 208.178 L 136.215 208.178 136.215 188.046 C 136.215 176.973,136.520 167.913,136.893 167.913 C 137.267 167.913,142.744 169.648,149.066 171.768 C 155.388 173.889,160.833 175.624,161.167 175.624 C 161.756 175.624,187.617 98.966,187.617 97.220 C 187.617 96.398,152.660 84.308,152.122 84.944 C 151.984 85.108,148.378 95.651,144.111 108.373 L 136.351 131.503 136.283 84.599 L 136.215 37.695 117.368 37.695 L 98.520 37.695 98.454 90.596 M241.589 153.333 C 241.589 210.718,241.273 250.156,240.812 250.156 C 239.714 250.156,232.302 241.767,230.752 238.771 C 227.137 231.780,227.044 230.316,227.035 180.121 L 227.025 131.932 208.178 131.932 L 189.331 131.932 189.346 181.835 C 189.362 236.298,189.435 237.289,194.383 249.645 C 201.795 268.155,217.435 283.354,235.980 290.068 L 241.161 291.944 241.382 344.298 L 241.603 396.652 260.865 396.652 L 280.128 396.652 280.348 344.362 L 280.569 292.072 287.439 289.302 C 296.969 285.460,305.445 279.578,312.837 271.676 C 319.853 264.177,323.646 258.319,327.297 249.348 C 332.248 237.182,332.400 235.159,332.400 181.228 L 332.400 131.932 313.591 131.932 L 294.783 131.932 294.530 181.406 L 294.276 230.881 291.594 236.542 C 290.086 239.725,287.085 244.038,284.740 246.394 L 280.569 250.585 280.141 153.778 L 279.713 56.971 260.651 56.740 L 241.589 56.509 241.589 153.333 M388.942 153.943 L 388.942 251.377 384.614 247.126 C 382.214 244.768,379.065 240.402,377.546 237.325 L 374.806 231.776 374.566 181.838 L 374.325 131.899 355.290 132.130 L 336.255 132.360 336.003 175.195 C 335.718 223.623,336.293 233.416,340.119 245.290 C 346.691 265.686,363.163 282.765,383.288 290.052 L 388.513 291.944 388.734 344.298 L 388.955 396.652 408.218 396.652 L 427.480 396.652 427.701 344.362 L 427.922 292.072 434.775 289.291 C 443.567 285.722,450.468 281.252,457.336 274.676 C 466.800 265.616,472.373 256.658,476.857 243.303 L 479.301 236.021 479.569 183.976 L 479.838 131.932 460.986 131.932 L 442.135 131.932 441.882 181.406 L 441.629 230.881 438.946 236.542 C 437.438 239.725,434.438 244.038,432.093 246.394 L 427.922 250.585 427.493 153.778 L 427.065 56.971 408.003 56.740 L 388.942 56.509 388.942 153.943 " stroke="none" fill-rule="evenodd" fill="black"></path></svg>