<svg width="136mm" height="120mm" version="1.1" viewBox="0 0 600 529.4117647058824" xmlns="http://www.w3.org/2000/svg"><path d="M98.313 90.596 L 98.092 143.497 88.337 114.369 C 82.972 98.349,78.466 85.105,78.324 84.938 C 78.087 84.658,43.642 95.863,42.960 96.442 C 42.681 96.679,68.444 174.811,69.028 175.498 C 69.225 175.731,91.349 168.656,97.465 166.405 C 98.328 166.087,98.504 170.307,98.322 186.877 L 98.092 207.750 69.590 207.975 L 41.088 208.201 41.319 226.823 L 41.550 245.445 66.267 245.672 C 89.324 245.884,90.944 245.999,90.398 247.385 C 87.685 254.279,42.873 389.483,43.088 390.129 C 43.334 390.868,78.030 402.936,78.427 402.421 C 78.512 402.311,83.038 388.920,88.484 372.665 L 98.385 343.108 98.453 379.304 L 98.520 415.500 117.368 415.500 L 136.215 415.500 136.283 379.732 L 136.351 343.965 146.179 373.226 L 156.008 402.486 173.870 396.525 L 191.731 390.564 167.829 318.867 C 154.682 279.433,143.926 246.878,143.926 246.521 C 143.926 246.165,153.178 245.873,164.486 245.873 L 185.047 245.873 185.047 227.025 L 185.047 208.178 160.631 208.178 L 136.215 208.178 136.215 188.046 C 136.215 176.973,136.520 167.913,136.893 167.913 C 137.267 167.913,142.744 169.648,149.066 171.768 C 155.388 173.889,160.833 175.624,161.167 175.624 C 161.756 175.624,187.617 98.966,187.617 97.220 C 187.617 96.398,152.660 84.308,152.122 84.944 C 151.984 85.108,148.378 95.651,144.111 108.373 L 136.351 131.503 136.283 84.599 L 136.215 37.695 117.374 37.695 L 98.534 37.695 98.313 90.596 M241.589 153.333 C 241.589 207.077,241.260 250.156,240.850 250.156 C 239.227 250.156,231.909 241.243,229.750 236.636 L 227.454 231.737 227.213 181.818 L 226.973 131.899 207.937 132.130 L 188.902 132.360 188.650 175.195 C 188.496 201.465,188.758 221.832,189.328 227.861 C 190.360 238.772,193.642 250.001,198.053 257.710 C 206.461 272.405,220.664 284.523,235.980 290.068 L 241.161 291.944 241.382 344.298 L 241.603 396.652 260.865 396.652 L 280.128 396.652 280.348 344.362 L 280.569 292.072 287.439 289.302 C 297.080 285.415,305.404 279.598,313.374 271.179 C 318.831 265.414,321.094 262.164,324.553 255.126 C 332.207 239.552,331.841 242.967,332.177 183.976 L 332.474 131.932 313.589 131.932 L 294.705 131.932 294.705 179.299 C 294.705 232.065,294.636 232.819,289.050 241.234 C 287.367 243.770,284.770 246.872,283.279 248.126 L 280.569 250.406 280.141 153.688 L 279.713 56.971 260.651 56.740 L 241.589 56.509 241.589 153.333 M389.529 57.097 C 389.206 57.420,388.942 100.991,388.942 153.920 C 388.942 208.143,388.615 250.156,388.194 250.156 C 387.123 250.156,381.115 243.452,378.771 239.640 C 374.539 232.761,374.399 230.840,374.388 179.693 L 374.378 131.932 355.531 131.932 L 336.683 131.932 336.698 181.835 C 336.714 236.298,336.788 237.289,341.736 249.645 C 349.147 268.155,364.788 283.354,383.332 290.068 L 388.513 291.944 388.734 344.298 L 388.955 396.652 408.218 396.652 L 427.480 396.652 427.701 344.362 L 427.922 292.072 435.110 289.174 C 446.681 284.509,458.839 275.044,466.523 264.720 C 469.994 260.057,475.236 249.193,477.348 242.288 C 479.227 236.143,479.269 235.009,479.545 183.976 L 479.826 131.932 460.942 131.932 L 442.057 131.932 442.057 179.299 C 442.057 230.764,441.916 232.558,437.257 240.090 C 434.832 244.009,429.289 250.156,428.180 250.156 C 427.806 250.156,427.403 206.690,427.283 153.563 L 427.065 56.971 408.591 56.740 C 398.430 56.613,389.852 56.774,389.529 57.097 " stroke="none" fill-rule="evenodd" fill="black"></path></svg>