<svg width="136mm" height="120mm" version="1.1" viewBox="0 0 600 529.4117647058824" xmlns="http://www.w3.org/2000/svg"><path d="M98.454 90.596 L 98.387 143.497 88.633 114.472 C 83.268 98.508,78.742 85.310,78.576 85.144 C 78.202 84.770,44.365 95.948,43.486 96.736 C 42.991 97.179,67.992 174.273,69.029 175.498 C 69.225 175.730,91.322 168.665,97.450 166.410 C 98.288 166.102,98.520 170.508,98.520 186.669 L 98.520 207.321 70.249 207.321 L 41.978 207.321 41.978 226.597 L 41.978 245.873 66.394 245.873 C 79.823 245.873,90.810 245.972,90.810 246.093 C 90.810 246.214,80.023 278.669,66.839 318.215 C 53.655 357.761,43.000 390.249,43.161 390.410 C 43.323 390.572,51.337 393.338,60.970 396.557 L 78.486 402.411 88.289 373.188 L 98.092 343.965 98.316 379.732 L 98.539 415.500 117.377 415.500 L 136.215 415.500 136.283 379.732 L 136.351 343.965 146.179 373.226 L 156.008 402.486 173.870 396.525 L 191.731 390.564 167.829 318.867 C 154.682 279.433,143.926 246.878,143.926 246.521 C 143.926 246.165,153.178 245.873,164.486 245.873 L 185.047 245.873 185.047 226.597 L 185.047 207.321 160.631 207.321 L 136.215 207.321 136.215 187.617 C 136.215 176.780,136.520 167.913,136.893 167.913 C 137.267 167.913,142.744 169.648,149.066 171.768 C 155.388 173.889,160.833 175.624,161.167 175.624 C 161.756 175.624,187.617 98.966,187.617 97.220 C 187.617 96.398,152.660 84.308,152.122 84.944 C 151.984 85.108,148.378 95.651,144.111 108.373 L 136.351 131.503 136.283 84.599 L 136.215 37.695 117.368 37.695 L 98.520 37.695 98.454 90.596 M241.589 153.349 C 241.589 207.085,241.260 250.156,240.850 250.156 C 239.227 250.156,231.909 241.243,229.750 236.636 L 227.454 231.737 227.213 181.835 L 226.973 131.932 208.115 131.932 L 189.257 131.932 189.520 184.405 C 189.783 236.777,189.787 236.889,191.785 242.874 C 199.813 266.921,216.079 283.317,240.090 291.566 C 241.496 292.049,241.589 295.338,241.589 344.367 L 241.589 396.652 260.437 396.652 L 279.284 396.652 279.284 344.541 L 279.284 292.429 286.352 289.742 C 304.183 282.961,319.905 267.595,327.048 249.967 C 332.043 237.642,331.848 240.142,332.179 183.976 L 332.485 131.932 313.595 131.932 L 294.705 131.932 294.705 179.934 C 294.705 226.188,294.640 228.128,292.934 233.193 C 290.856 239.362,287.517 244.484,282.975 248.472 L 279.713 251.337 279.495 153.940 L 279.277 56.542 260.433 56.542 L 241.589 56.542 241.589 153.349 M388.942 153.960 L 388.942 251.377 384.614 247.126 C 382.214 244.769,379.065 240.402,377.546 237.326 L 374.806 231.777 374.378 182.068 L 373.950 132.360 355.285 132.129 L 336.621 131.898 336.872 184.388 L 337.123 236.878 339.135 242.874 C 346.788 265.682,362.594 282.559,383.332 290.068 L 388.513 291.944 388.734 344.298 L 388.955 396.652 407.796 396.652 L 426.637 396.652 426.637 344.541 L 426.637 292.429 433.704 289.742 C 456.910 280.917,474.409 259.453,478.852 234.364 C 479.411 231.208,479.752 210.826,479.752 180.606 L 479.752 131.932 460.937 131.932 L 442.123 131.932 441.876 181.452 L 441.629 230.973 438.429 237.445 C 436.388 241.574,433.752 245.279,431.147 247.679 L 427.065 251.441 426.847 153.992 L 426.629 56.542 407.786 56.542 L 388.942 56.542 388.942 153.960 " stroke="none" fill-rule="evenodd" fill="black"></path></svg>