<svg width="136mm" height="120mm" version="1.1" viewBox="0 0 600 529.4117647058824" xmlns="http://www.w3.org/2000/svg"><path d="M218.887 185.047 L 80.970 322.967 94.234 336.252 L 107.499 349.538 129.139 327.910 L 150.779 306.283 150.779 353.181 C 150.779 383.939,151.075 400.079,151.638 400.079 C 152.110 400.079,189.566 381.543,234.874 358.888 L 317.252 317.697 333.179 333.400 C 341.938 342.037,357.783 357.682,368.390 368.168 L 387.674 387.232 400.939 373.947 L 414.203 360.661 353.599 300.056 L 292.994 239.452 279.507 252.938 L 266.021 266.425 277.498 277.926 L 288.976 289.428 239.153 314.342 L 189.331 339.256 189.331 303.345 L 189.331 267.434 286.577 170.769 L 383.823 74.105 370.314 60.616 L 356.805 47.127 218.887 185.047 M135.653 60.610 L 119.242 68.863 147.434 125.242 C 162.940 156.250,176.015 181.620,176.490 181.620 C 176.965 181.620,184.675 177.956,193.622 173.478 L 209.890 165.335 181.618 108.797 C 166.069 77.701,153.058 52.281,152.705 52.308 C 152.353 52.334,144.679 56.071,135.653 60.610 " stroke="none" fill-rule="evenodd" fill="black"></path></svg>