<svg width="136mm" height="120mm" version="1.1" viewBox="0 0 600 529.4117647058824" xmlns="http://www.w3.org/2000/svg"><path d="M219.094 184.840 L 81.377 322.559 94.663 335.824 L 107.948 349.088 129.364 327.686 L 150.779 306.283 150.779 353.181 C 150.779 383.939,151.075 400.079,151.638 400.079 C 152.110 400.079,189.568 381.542,234.877 358.887 L 317.258 317.694 352.036 352.464 L 386.814 387.235 400.296 373.732 L 413.779 360.230 353.386 299.842 L 292.993 239.453 279.507 252.939 L 266.021 266.425 277.498 277.926 L 288.976 289.428 239.153 314.342 L 189.331 339.256 189.331 303.489 L 189.331 267.722 286.350 170.700 L 383.368 73.678 370.090 60.400 L 356.811 47.121 219.094 184.840 M135.653 60.610 L 119.242 68.863 147.434 125.242 C 162.940 156.250,176.015 181.620,176.490 181.620 C 176.965 181.620,184.675 177.956,193.622 173.478 L 209.890 165.335 181.618 108.797 C 166.069 77.701,153.058 52.281,152.705 52.308 C 152.353 52.334,144.679 56.071,135.653 60.610 " stroke="none" fill-rule="evenodd" fill="black"></path></svg>