<svg width="136mm" height="120mm" version="1.1" viewBox="0 0 600 529.4117647058824" xmlns="http://www.w3.org/2000/svg"><path d="M56.542 101.947 L 56.542 120.795 96.379 120.795 C 118.289 120.795,136.215 120.893,136.215 121.012 C 136.215 121.132,117.718 176.718,95.111 244.537 C 72.503 312.356,54.095 367.912,54.203 367.995 C 55.434 368.940,89.360 379.544,89.793 379.119 C 90.117 378.802,101.215 346.090,114.454 306.425 L 138.527 234.307 149.623 234.513 C 167.843 234.851,179.845 239.158,191.489 249.535 C 212.076 267.885,217.584 299.657,204.293 323.404 C 194.311 341.240,176.854 352.810,157.287 354.559 L 151.208 355.102 150.975 373.071 C 150.848 382.953,150.901 391.451,151.095 391.955 C 151.608 393.293,166.395 391.933,174.990 389.757 C 240.414 373.199,270.233 296.846,233.178 240.764 C 216.632 215.722,190.346 199.900,160.774 197.182 C 156.189 196.760,152.217 196.195,151.948 195.925 C 151.678 195.655,157.023 178.737,163.826 158.329 L 176.194 121.223 214.889 121.000 L 253.583 120.777 253.583 101.939 L 253.583 83.100 155.063 83.100 L 56.542 83.100 56.542 101.947 M264.720 101.947 L 264.720 120.795 304.487 120.795 L 344.253 120.795 303.202 243.942 C 280.623 311.673,262.150 367.291,262.150 367.537 C 262.150 368.078,297.288 379.810,297.645 379.387 C 297.784 379.224,308.795 346.361,322.115 306.360 L 346.333 233.630 357.666 234.199 C 371.215 234.879,376.708 236.158,386.372 240.885 C 396.523 245.850,407.646 256.897,412.712 267.045 C 417.733 277.101,419.226 284.692,418.713 297.557 C 418.028 314.732,413.545 324.942,401.348 337.111 C 390.506 347.928,378.933 353.549,365.627 354.461 L 358.957 354.919 358.957 373.878 L 358.957 392.838 366.882 392.251 C 389.635 390.566,409.648 381.569,426.445 365.473 C 448.639 344.204,459.571 315.241,456.625 285.508 C 453.294 251.890,433.440 222.645,403.649 207.473 C 390.898 200.980,381.557 198.286,367.721 197.110 C 363.354 196.739,359.602 196.258,359.385 196.041 C 359.167 195.823,364.605 178.804,371.468 158.220 L 383.947 120.795 422.426 120.795 L 460.905 120.795 460.905 101.947 L 460.905 83.100 362.812 83.100 L 264.720 83.100 264.720 101.947 " stroke="none" fill-rule="evenodd" fill="black"></path></svg>