<svg width="136mm" height="120mm" version="1.1" viewBox="0 0 600 529.4117647058824" xmlns="http://www.w3.org/2000/svg"><path d="M56.542 101.947 L 56.542 120.795 96.379 120.795 C 118.289 120.795,136.215 120.893,136.215 121.012 C 136.215 121.132,117.718 176.718,95.111 244.537 C 72.503 312.356,54.095 367.912,54.203 367.995 C 55.434 368.940,89.360 379.544,89.793 379.119 C 90.117 378.802,101.213 346.090,114.450 306.425 L 138.518 234.307 148.718 234.388 C 160.111 234.477,166.739 235.612,174.338 238.774 C 190.560 245.523,203.088 259.164,208.791 276.286 C 210.807 282.336,211.077 284.494,211.094 294.705 C 211.111 305.176,210.887 306.919,208.726 313.124 C 204.667 324.776,198.542 333.764,189.569 341.232 C 180.522 348.762,165.725 354.630,155.705 354.661 L 151.636 354.674 151.636 373.521 L 151.636 392.369 156.562 392.362 C 172.280 392.341,193.114 385.188,208.044 374.686 C 215.554 369.403,227.320 357.381,232.275 349.928 C 258.276 310.816,254.267 260.884,222.422 227.205 C 205.431 209.235,183.688 198.921,157.847 196.574 C 154.431 196.264,151.636 195.757,151.636 195.447 C 151.636 195.138,157.162 178.310,163.916 158.054 L 176.197 121.223 214.890 121.000 L 253.583 120.777 253.583 101.939 L 253.583 83.100 155.063 83.100 L 56.542 83.100 56.542 101.947 M264.720 101.947 L 264.720 120.795 304.129 120.795 C 335.084 120.795,343.537 121.024,343.537 121.866 C 343.537 122.455,325.185 177.993,302.754 245.284 C 280.324 312.575,262.108 367.747,262.275 367.889 C 262.957 368.468,297.402 379.673,297.640 379.393 C 297.781 379.226,308.795 346.362,322.115 306.361 L 346.332 233.632 357.571 234.138 C 363.752 234.416,371.122 235.247,373.950 235.983 C 393.076 240.968,410.014 256.812,416.279 275.580 C 425.442 303.029,412.784 334.473,387.214 347.775 C 379.608 351.733,369.328 354.674,363.104 354.674 L 358.957 354.674 358.957 373.646 L 358.957 392.618 367.310 392.119 C 388.509 390.852,409.686 381.415,425.854 366.030 C 435.775 356.589,440.988 349.593,446.767 337.968 C 461.086 309.162,460.539 276.645,445.256 248.251 C 429.426 218.841,401.996 200.573,368.155 196.903 C 362.231 196.260,359.007 195.562,359.223 194.970 C 359.409 194.460,365.048 177.562,371.753 157.419 L 383.944 120.795 422.424 120.795 L 460.905 120.795 460.905 101.947 L 460.905 83.100 362.812 83.100 L 264.720 83.100 264.720 101.947 " stroke="none" fill-rule="evenodd" fill="black"></path></svg>