<svg width="136mm" height="120mm" version="1.1" viewBox="0 0 600 529.4117647058824" xmlns="http://www.w3.org/2000/svg"><path d="M56.542 101.947 L 56.542 120.795 96.379 120.795 C 118.289 120.795,136.215 120.893,136.215 121.012 C 136.215 121.132,117.718 176.718,95.111 244.537 C 72.503 312.356,54.095 367.912,54.203 367.995 C 55.586 369.057,89.529 379.564,89.766 379.004 C 89.946 378.580,100.953 345.850,114.225 306.270 L 138.357 234.307 149.274 234.501 C 155.408 234.610,162.726 235.282,165.979 236.035 C 182.853 239.941,198.446 252.935,206.055 269.432 C 210.127 278.261,211.177 283.555,211.155 295.133 C 211.139 303.402,210.748 306.671,209.158 311.839 C 201.936 335.316,181.163 352.425,157.287 354.559 L 151.208 355.102 150.975 373.071 C 150.848 382.953,150.901 391.451,151.095 391.955 C 151.654 393.412,167.086 391.822,176.368 389.351 C 196.481 383.998,214.688 372.130,227.615 355.946 C 258.592 317.167,256.192 262.579,221.934 226.713 C 206.412 210.463,184.353 199.405,163.630 197.486 C 160.567 197.202,156.461 196.776,154.506 196.538 L 150.951 196.105 163.495 158.450 L 176.040 120.795 214.811 120.795 L 253.583 120.795 253.583 101.947 L 253.583 83.100 155.063 83.100 L 56.542 83.100 56.542 101.947 M264.720 101.947 L 264.720 120.795 304.487 120.795 L 344.253 120.795 303.202 243.942 C 280.623 311.673,262.150 367.291,262.150 367.537 C 262.150 368.078,297.288 379.810,297.645 379.387 C 297.784 379.224,308.795 346.361,322.115 306.358 L 346.334 233.627 357.323 234.183 C 371.704 234.911,375.752 235.816,385.515 240.488 C 392.489 243.826,394.772 245.501,401.466 252.196 C 408.154 258.884,409.840 261.180,413.180 268.147 C 417.913 278.021,419.154 283.787,419.082 295.562 C 418.978 312.486,413.530 325.158,401.022 337.569 C 395.203 343.343,392.123 345.633,386.372 348.463 C 378.234 352.467,370.191 354.642,363.455 354.661 L 358.957 354.674 358.957 373.790 L 358.957 392.906 364.312 392.583 C 401.255 390.353,433.476 368.187,448.680 334.541 C 470.335 286.617,449.731 229.960,402.157 206.615 C 390.529 200.909,380.973 198.227,368.512 197.173 C 363.709 196.767,359.601 196.257,359.384 196.040 C 359.167 195.823,364.605 178.804,371.468 158.220 L 383.947 120.795 422.426 120.795 L 460.905 120.795 460.905 101.947 L 460.905 83.100 362.812 83.100 L 264.720 83.100 264.720 101.947 " stroke="none" fill-rule="evenodd" fill="black"></path></svg>