<svg width="136mm" height="120mm" version="1.1" viewBox="0 0 600 529.4117647058824" xmlns="http://www.w3.org/2000/svg"><path d="M75.963 68.248 C 75.648 68.564,75.390 77.046,75.390 87.098 L 75.390 105.374 257.027 105.374 L 438.664 105.374 438.433 86.741 L 438.202 68.108 257.369 67.891 C 157.911 67.773,76.278 67.933,75.963 68.248 M125.078 160.203 L 125.078 188.474 96.807 188.474 L 68.536 188.474 68.536 207.750 L 68.536 227.025 96.782 227.025 L 125.027 227.025 125.267 279.070 L 125.507 331.115 127.755 337.262 C 139.242 368.678,181.233 390.940,238.163 395.797 C 263.634 397.970,290.707 395.582,315.694 388.958 C 352.417 379.223,378.003 360.336,386.511 336.683 L 388.513 331.115 388.753 279.070 L 388.993 227.025 417.238 227.025 L 445.484 227.025 445.484 207.750 L 445.484 188.474 417.213 188.474 L 388.942 188.474 388.942 160.203 L 388.942 131.932 370.094 131.932 L 351.247 131.932 351.247 160.203 L 351.247 188.474 257.010 188.474 L 162.773 188.474 162.773 160.203 L 162.773 131.932 143.926 131.932 L 125.078 131.932 125.078 160.203 M351.247 275.690 L 351.247 324.354 348.730 328.322 C 340.651 341.062,315.607 352.209,284.424 356.943 C 272.562 358.744,243.279 358.970,232.166 357.346 C 199.123 352.519,173.614 341.448,165.290 328.322 L 162.773 324.354 162.773 275.690 L 162.773 227.025 257.010 227.025 L 351.247 227.025 351.247 275.690 " stroke="none" fill-rule="evenodd" fill="black"></path></svg>