<svg width="136mm" height="120mm" version="1.1" viewBox="0 0 600 529.4117647058824" xmlns="http://www.w3.org/2000/svg"><path d="M75.587 86.741 L 75.818 105.802 257.010 105.802 L 438.202 105.802 438.433 86.741 L 438.663 67.679 257.010 67.679 L 75.357 67.679 75.587 86.741 M124.793 132.503 C 124.479 132.817,124.222 145.732,124.222 161.202 L 124.222 189.331 95.934 189.331 L 67.646 189.331 67.877 207.964 L 68.108 226.597 96.104 226.823 L 124.101 227.049 124.445 277.797 C 124.827 334.078,124.623 331.935,130.770 344.380 C 134.720 352.376,146.286 364.378,156.348 370.923 C 214.773 408.926,324.026 404.067,369.629 361.438 C 376.579 354.942,381.445 348.576,384.408 342.103 C 389.296 331.427,389.204 332.572,389.575 277.797 L 389.919 227.049 417.916 226.823 L 445.912 226.597 446.143 207.964 L 446.374 189.331 418.098 189.331 L 389.822 189.331 389.596 160.845 L 389.370 132.360 370.309 132.130 L 351.247 131.899 351.247 160.615 L 351.247 189.331 257.010 189.331 L 162.773 189.331 162.773 160.631 L 162.773 131.932 144.068 131.932 C 133.781 131.932,125.107 132.189,124.793 132.503 M351.247 275.690 L 351.247 324.354 348.730 328.322 C 337.867 345.452,297.443 358.951,257.010 358.951 C 216.577 358.951,176.153 345.452,165.290 328.322 L 162.773 324.354 162.773 275.690 L 162.773 227.025 257.010 227.025 L 351.247 227.025 351.247 275.690 " stroke="none" fill-rule="evenodd" fill="black"></path></svg>