<svg width="136mm" height="120mm" version="1.1" viewBox="0 0 600 529.4117647058824" xmlns="http://www.w3.org/2000/svg"><path d="M75.774 68.770 C 75.543 69.373,75.458 77.951,75.586 87.834 L 75.818 105.802 257.010 105.802 L 438.202 105.802 438.202 86.955 L 438.202 68.108 257.198 67.891 C 110.902 67.717,76.113 67.885,75.774 68.770 M124.876 160.417 L 124.650 188.902 96.148 189.128 L 67.646 189.354 67.877 207.975 L 68.108 226.597 96.593 226.823 L 125.078 227.049 125.078 277.966 L 125.078 328.884 127.248 335.752 C 129.994 344.446,135.985 353.489,144.017 361.066 C 194.285 408.487,319.735 408.487,370.003 361.066 C 377.208 354.270,383.630 345.042,386.461 337.418 L 388.484 331.971 388.744 279.510 L 389.004 227.049 417.458 226.823 L 445.912 226.597 446.143 207.975 L 446.374 189.354 417.872 189.128 L 389.370 188.902 389.144 160.417 L 388.919 131.932 370.083 131.932 L 351.247 131.932 351.247 160.631 L 351.247 189.331 257.010 189.331 L 162.773 189.331 162.773 160.631 L 162.773 131.932 143.937 131.932 L 125.101 131.932 124.876 160.417 M351.247 275.690 L 351.247 324.354 348.730 328.322 C 337.867 345.452,297.443 358.951,257.010 358.951 C 216.577 358.951,176.153 345.452,165.290 328.322 L 162.773 324.354 162.773 275.690 L 162.773 227.025 257.010 227.025 L 351.247 227.025 351.247 275.690 " stroke="none" fill-rule="evenodd" fill="black"></path></svg>