<svg width="136mm" height="120mm" version="1.1" viewBox="0 0 600 529.4117647058824" xmlns="http://www.w3.org/2000/svg"><path d="M283.667 37.783 C 274.062 41.002,266.069 43.771,265.904 43.935 C 265.740 44.100,269.647 56.346,274.586 71.148 C 279.526 85.951,283.568 98.165,283.568 98.291 C 283.568 98.417,272.581 98.520,259.152 98.520 L 234.736 98.520 234.736 117.368 L 234.736 136.215 278.428 136.215 C 302.458 136.215,322.119 136.506,322.119 136.861 C 322.119 137.216,302.651 195.909,278.856 267.290 C 255.061 338.671,235.593 397.333,235.593 397.649 C 235.593 398.246,268.676 409.503,270.432 409.503 C 270.998 409.503,291.160 350.317,316.979 272.859 L 362.527 136.215 372.568 136.215 C 381.534 136.215,383.064 136.442,386.864 138.336 C 395.318 142.548,404.556 153.628,411.935 168.405 C 425.838 196.242,432.907 238.704,430.109 277.571 C 426.354 329.752,409.249 371.004,386.372 383.056 C 382.611 385.037,381.906 385.093,357.458 385.359 L 332.400 385.631 332.400 404.500 L 332.400 423.370 360.028 423.011 C 385.966 422.674,388.024 422.532,393.654 420.691 C 406.143 416.606,415.567 410.409,425.560 399.709 C 446.495 377.291,460.901 340.345,466.638 294.356 C 468.395 280.267,468.624 243.560,467.038 230.024 C 461.633 183.873,448.417 148.003,427.947 123.923 C 414.871 108.542,396.050 98.520,380.238 98.520 C 377.486 98.520,375.235 98.417,375.235 98.289 C 375.235 98.162,378.897 87.086,383.373 73.676 C 387.850 60.266,391.512 48.833,391.512 48.270 C 391.512 47.257,356.804 35.235,356.118 36.011 C 355.924 36.230,351.150 50.288,345.510 67.251 L 335.255 98.092 329.403 98.092 L 323.550 98.092 312.586 65.212 C 306.555 47.128,301.511 32.241,301.376 32.131 C 301.241 32.020,293.272 34.563,283.667 37.783 M106.231 75.390 L 106.231 113.084 77.960 113.084 L 49.689 113.084 49.689 131.920 L 49.689 150.756 77.746 150.982 L 105.802 151.208 106.028 179.264 L 106.254 207.321 83.540 207.321 L 60.826 207.321 60.826 226.597 L 60.826 245.873 83.540 245.873 L 106.254 245.873 106.028 273.930 L 105.802 301.987 71.749 302.211 L 37.695 302.435 37.695 321.272 L 37.695 340.110 71.963 340.110 L 106.231 340.110 106.231 377.805 L 106.231 415.500 125.078 415.500 L 143.926 415.500 143.926 377.805 L 143.926 340.110 177.765 340.110 L 211.605 340.110 211.605 321.262 L 211.605 302.415 177.765 302.415 L 143.926 302.415 143.926 274.158 L 143.926 245.901 166.414 245.673 L 188.902 245.445 188.902 226.597 L 188.902 207.750 166.414 207.521 L 143.926 207.293 143.926 179.036 L 143.926 150.779 172.197 150.779 L 200.468 150.779 200.468 131.932 L 200.468 113.084 172.197 113.084 L 143.926 113.084 143.926 75.390 L 143.926 37.695 125.078 37.695 L 106.231 37.695 106.231 75.390 " stroke="none" fill-rule="evenodd" fill="black"></path></svg>