<svg width="136mm" height="120mm" version="1.1" viewBox="0 0 600 529.4117647058824" xmlns="http://www.w3.org/2000/svg"><path d="M283.667 37.783 C 274.062 41.002,266.069 43.771,265.904 43.935 C 265.740 44.100,269.647 56.346,274.586 71.148 C 279.526 85.951,283.568 98.165,283.568 98.291 C 283.568 98.417,272.380 98.520,258.707 98.520 L 233.846 98.520 234.077 117.154 L 234.307 135.787 278.213 136.009 C 302.362 136.131,322.119 136.518,322.119 136.869 C 322.119 137.220,302.651 195.909,278.856 267.290 C 255.061 338.671,235.593 397.333,235.593 397.649 C 235.593 398.246,268.676 409.503,270.432 409.503 C 270.998 409.503,291.160 350.317,316.979 272.859 L 362.527 136.215 372.522 136.234 C 384.025 136.256,386.821 137.155,393.585 143.010 C 411.510 158.523,424.031 189.905,429.329 232.594 C 430.692 243.577,430.680 278.014,429.310 289.136 C 425.415 320.740,417.488 345.885,405.654 364.179 C 400.511 372.128,392.322 380.301,386.800 382.996 C 382.603 385.044,382.010 385.092,357.458 385.359 L 332.400 385.631 332.400 404.492 L 332.400 423.353 360.028 423.013 C 386.050 422.693,388.006 422.559,393.654 420.702 C 406.230 416.568,415.221 410.675,425.352 399.926 C 453.684 369.864,469.962 314.146,468.355 252.727 C 466.832 194.540,450.386 146.185,422.753 118.653 C 410.301 106.246,396.919 99.654,382.302 98.727 C 378.415 98.481,375.235 98.229,375.235 98.169 C 375.235 98.108,378.897 87.086,383.373 73.676 C 387.850 60.266,391.512 48.837,391.512 48.277 C 391.512 46.979,357.327 35.539,356.404 36.528 C 356.025 36.934,351.091 50.952,345.440 67.679 L 335.166 98.092 329.358 98.092 L 323.550 98.092 312.586 65.212 C 306.555 47.128,301.511 32.241,301.376 32.131 C 301.241 32.020,293.272 34.563,283.667 37.783 M105.374 75.390 L 105.374 113.084 77.103 113.084 L 48.832 113.084 48.832 131.932 L 48.832 150.779 77.103 150.779 L 105.374 150.779 105.374 179.479 L 105.374 208.178 82.655 208.178 L 59.936 208.178 60.166 226.811 L 60.397 245.445 82.886 245.673 L 105.374 245.901 105.374 274.158 L 105.374 302.415 71.534 302.415 L 37.695 302.415 37.695 321.262 L 37.695 340.110 71.534 340.110 L 105.374 340.110 105.374 377.805 L 105.374 415.500 124.650 415.500 L 143.926 415.500 143.926 377.805 L 143.926 340.110 177.765 340.110 L 211.605 340.110 211.605 321.262 L 211.605 302.415 177.765 302.415 L 143.926 302.415 143.926 274.158 L 143.926 245.901 166.414 245.673 L 188.902 245.445 189.133 226.811 L 189.364 208.178 166.645 208.178 L 143.926 208.178 143.926 179.479 L 143.926 150.779 172.197 150.779 L 200.468 150.779 200.468 131.932 L 200.468 113.084 172.197 113.084 L 143.926 113.084 143.926 75.390 L 143.926 37.695 124.650 37.695 L 105.374 37.695 105.374 75.390 " stroke="none" fill-rule="evenodd" fill="black"></path></svg>