<svg width="136mm" height="120mm" version="1.1" viewBox="0 0 600 529.4117647058824" xmlns="http://www.w3.org/2000/svg"><path d="M283.667 37.783 C 274.062 41.002,266.069 43.771,265.904 43.935 C 265.740 44.100,269.647 56.346,274.586 71.148 C 279.526 85.951,283.568 98.165,283.568 98.291 C 283.568 98.417,272.380 98.520,258.707 98.520 L 233.846 98.520 234.077 117.154 L 234.307 135.787 278.213 136.009 C 302.362 136.131,322.119 136.518,322.119 136.869 C 322.119 137.220,302.651 195.909,278.856 267.290 C 255.061 338.671,235.593 397.333,235.593 397.649 C 235.593 398.246,268.676 409.503,270.432 409.503 C 270.998 409.503,291.160 350.317,316.979 272.859 L 362.527 136.215 372.608 136.215 C 381.783 136.215,383.067 136.414,386.887 138.422 C 402.349 146.552,417.126 172.580,424.434 204.557 C 435.203 251.681,431.263 308.775,414.595 347.135 C 407.438 363.607,395.997 378.347,386.800 382.945 C 382.568 385.061,382.213 385.090,357.458 385.359 L 332.400 385.631 332.400 404.492 L 332.400 423.353 360.028 423.013 C 386.054 422.693,388.005 422.559,393.654 420.702 C 406.153 416.591,415.668 410.338,425.422 399.824 C 446.399 377.212,460.529 341.291,466.606 295.133 C 468.649 279.613,468.664 242.223,466.634 226.242 C 457.909 157.556,429.558 109.855,391.705 100.174 C 388.150 99.264,382.989 98.520,380.238 98.520 C 377.486 98.520,375.235 98.417,375.235 98.289 C 375.235 98.162,378.897 87.086,383.373 73.676 C 387.850 60.266,391.512 48.833,391.512 48.270 C 391.512 47.257,356.804 35.235,356.118 36.011 C 355.924 36.230,351.150 50.288,345.510 67.251 L 335.255 98.092 329.403 98.092 L 323.550 98.092 312.586 65.212 C 306.555 47.128,301.511 32.241,301.376 32.131 C 301.241 32.020,293.272 34.563,283.667 37.783 M106.231 75.378 L 106.231 113.061 77.746 113.287 L 49.260 113.513 49.029 132.146 L 48.798 150.779 77.526 150.779 L 106.254 150.779 106.028 179.264 L 105.802 207.750 83.314 207.978 L 60.826 208.207 60.826 227.040 L 60.826 245.873 83.528 245.873 L 106.231 245.873 106.231 274.144 L 106.231 302.415 71.963 302.415 L 37.695 302.415 37.695 321.262 L 37.695 340.110 71.963 340.110 L 106.231 340.110 106.231 377.805 L 106.231 415.500 125.078 415.500 L 143.926 415.500 143.926 377.805 L 143.926 340.110 177.765 340.110 L 211.605 340.110 211.605 321.262 L 211.605 302.415 177.765 302.415 L 143.926 302.415 143.926 274.158 L 143.926 245.901 166.414 245.673 L 188.902 245.445 189.133 226.811 L 189.364 208.178 166.645 208.178 L 143.926 208.178 143.926 179.479 L 143.926 150.779 172.197 150.779 L 200.468 150.779 200.468 131.932 L 200.468 113.084 172.197 113.084 L 143.926 113.084 143.926 75.390 L 143.926 37.695 125.078 37.695 L 106.231 37.695 106.231 75.378 " stroke="none" fill-rule="evenodd" fill="black"></path></svg>