<svg width="136mm" height="120mm" version="1.1" viewBox="0 0 600 529.4117647058824" xmlns="http://www.w3.org/2000/svg"><path d="M174.551 134.074 L 131.933 219.315 258.724 219.315 C 328.459 219.315,385.515 219.121,385.515 218.884 C 385.515 218.647,373.179 193.783,358.101 163.630 L 330.686 108.806 313.981 117.146 C 304.792 121.733,297.275 125.782,297.275 126.144 C 297.275 126.506,303.250 138.748,310.554 153.349 C 317.857 167.950,323.833 180.284,323.833 180.758 C 323.833 181.329,301.828 181.620,258.723 181.620 C 222.913 181.620,193.614 181.427,193.614 181.190 C 193.614 180.953,206.529 154.931,222.314 123.365 C 238.098 91.798,251.013 65.779,251.013 65.544 C 251.013 65.051,218.803 48.832,217.823 48.832 C 217.463 48.832,197.991 87.191,174.551 134.074 M242.831 231.646 C 223.672 235.310,208.911 242.936,195.818 255.934 C 188.180 263.518,183.301 270.448,178.687 280.268 C 171.994 294.511,170.923 299.663,170.962 317.407 C 170.993 331.733,171.162 333.376,173.349 340.538 C 178.165 356.311,185.911 369.219,196.769 379.564 C 204.651 387.075,210.816 391.308,220.436 395.814 C 252.343 410.758,290.278 404.802,316.038 380.803 C 327.220 370.386,336.019 356.017,340.695 340.538 C 342.852 333.399,343.027 331.686,343.050 317.407 C 343.076 301.369,342.781 299.478,338.340 287.218 C 328.772 260.803,306.182 240.463,278.437 233.281 C 268.311 230.660,251.924 229.907,242.831 231.646 M267.719 269.438 C 276.880 271.365,283.891 275.312,291.287 282.705 C 302.346 293.760,306.382 304.274,305.594 319.977 C 305.074 330.330,302.561 337.715,296.821 345.759 C 287.358 359.021,273.481 366.130,257.010 366.154 C 240.471 366.179,226.746 359.138,217.165 345.711 C 211.381 337.606,208.887 330.279,208.406 319.977 C 207.668 304.176,211.709 293.643,222.705 282.711 C 235.167 270.320,250.465 265.809,267.719 269.438 " stroke="none" fill-rule="evenodd" fill="black"></path></svg>