<svg width="136mm" height="120mm" version="1.1" viewBox="0 0 600 529.4117647058824" xmlns="http://www.w3.org/2000/svg"><path d="M174.979 133.218 C 151.774 179.630,132.788 217.989,132.788 218.460 C 132.788 219.025,175.594 219.315,259.152 219.315 C 328.652 219.315,385.515 219.121,385.515 218.884 C 385.515 218.035,330.674 108.801,330.248 108.801 C 328.881 108.801,297.275 125.234,297.275 125.945 C 297.275 126.416,303.250 138.748,310.554 153.349 C 317.857 167.950,323.833 180.284,323.833 180.758 C 323.833 181.329,301.828 181.620,258.723 181.620 C 222.913 181.620,193.614 181.427,193.614 181.190 C 193.614 180.953,206.529 154.931,222.314 123.365 C 238.098 91.798,251.013 65.779,251.013 65.544 C 251.013 65.051,218.803 48.832,217.823 48.832 C 217.463 48.832,198.184 86.806,174.979 133.218 M241.876 231.721 C 224.586 234.858,208.821 243.035,196.299 255.359 C 188.530 263.006,183.389 270.277,178.597 280.393 C 172.129 294.045,171.013 299.488,171.003 317.407 C 170.996 331.784,171.154 333.350,173.343 340.538 C 181.082 365.948,197.280 384.968,220.405 395.799 C 254.021 411.544,294.117 404.032,319.587 377.219 C 329.731 366.540,336.186 355.298,340.647 340.538 C 342.784 333.468,342.983 331.584,343.043 317.836 C 343.100 304.706,342.862 301.939,341.126 295.562 C 330.512 256.571,296.039 230.156,256.255 230.530 C 251.723 230.572,245.252 231.108,241.876 231.721 M268.102 269.474 C 277.200 271.619,284.134 275.563,291.360 282.705 C 301.277 292.506,305.842 303.445,305.842 317.407 C 305.842 325.846,304.179 332.571,300.246 340.031 C 296.243 347.625,291.640 352.804,284.666 357.559 C 267.728 369.106,246.292 369.106,229.354 357.559 C 208.997 343.680,202.416 317.639,213.469 294.705 C 217.077 287.218,227.063 277.304,234.822 273.504 C 245.432 268.309,257.143 266.891,268.102 269.474 " stroke="none" fill-rule="evenodd" fill="black"></path></svg>