<svg width="136mm" height="120mm" version="1.1" viewBox="0 0 600 529.4117647058824" xmlns="http://www.w3.org/2000/svg"><path d="M174.551 134.074 L 131.933 219.315 258.724 219.315 C 328.459 219.315,385.515 219.121,385.515 218.884 C 385.515 218.647,373.179 193.783,358.101 163.630 L 330.686 108.806 313.981 117.146 C 304.792 121.733,297.275 125.782,297.275 126.144 C 297.275 126.506,303.250 138.748,310.554 153.349 C 317.857 167.950,323.833 180.284,323.833 180.758 C 323.833 181.329,301.828 181.620,258.723 181.620 C 222.913 181.620,193.614 181.427,193.614 181.190 C 193.614 180.953,206.529 154.931,222.314 123.365 C 238.098 91.798,251.013 65.779,251.013 65.544 C 251.013 65.051,218.803 48.832,217.823 48.832 C 217.463 48.832,197.991 87.191,174.551 134.074 M242.151 231.762 C 206.459 238.518,178.907 265.340,171.774 300.273 C 168.924 314.233,170.276 332.142,175.258 346.438 C 190.042 388.855,236.569 412.943,280.319 400.830 C 293.824 397.091,306.495 389.813,317.109 379.700 C 337.618 360.160,347.276 331.144,342.693 302.844 C 337.321 269.671,311.682 241.884,278.529 233.304 C 267.979 230.574,252.006 229.897,242.151 231.762 M267.719 269.438 C 276.831 271.355,283.883 275.321,291.315 282.711 C 302.314 293.647,306.355 304.183,305.609 319.977 C 305.116 330.420,302.739 337.465,296.996 345.513 C 287.274 359.138,273.665 366.167,257.010 366.167 C 240.355 366.167,226.746 359.138,217.024 345.513 C 211.281 337.465,208.904 330.420,208.411 319.977 C 207.665 304.183,211.706 293.647,222.705 282.711 C 235.167 270.320,250.465 265.809,267.719 269.438 " stroke="none" fill-rule="evenodd" fill="black"></path></svg>