<svg width="136mm" height="120mm" version="1.1" viewBox="0 0 600 529.4117647058824" xmlns="http://www.w3.org/2000/svg"><path d="M113.282 79.459 L 113.513 98.092 194.257 98.311 C 238.666 98.431,275.001 98.719,275.001 98.951 C 275.001 99.183,264.113 121.153,250.805 147.773 L 226.610 196.172 170.062 196.392 L 113.513 196.613 113.282 215.246 L 113.051 233.879 194.026 233.879 C 238.562 233.879,275.001 234.073,275.001 234.309 C 275.001 234.546,257.288 270.163,235.639 313.458 C 213.991 356.754,196.514 392.413,196.802 392.701 C 197.289 393.188,445.484 393.491,445.484 393.005 C 445.484 392.771,400.356 257.296,399.701 255.561 C 399.435 254.858,394.046 256.289,382.349 260.168 C 373.017 263.263,365.050 266.097,364.644 266.468 C 364.117 266.947,387.490 339.436,393.015 354.460 C 393.328 355.311,379.493 355.531,325.638 355.531 C 280.931 355.531,257.867 355.238,257.867 354.672 C 257.867 354.200,275.601 318.347,297.276 274.999 L 336.685 196.184 302.843 196.184 L 269.002 196.184 302.843 128.505 L 336.685 60.826 224.868 60.826 L 113.051 60.826 113.282 79.459 " stroke="none" fill-rule="evenodd" fill="black"></path></svg>