<svg width="136mm" height="120mm" version="1.1" viewBox="0 0 600 529.4117647058824" xmlns="http://www.w3.org/2000/svg"><path d="M113.282 79.459 L 113.513 98.092 194.257 98.311 C 238.666 98.431,275.001 98.719,275.001 98.951 C 275.001 99.183,264.111 121.156,250.802 147.779 L 226.604 196.184 169.844 196.184 L 113.084 196.184 113.084 215.032 L 113.084 233.879 194.043 233.879 C 238.570 233.879,275.001 234.073,275.001 234.309 C 275.001 234.546,257.288 270.163,235.639 313.458 C 213.991 356.754,196.514 392.413,196.802 392.701 C 197.561 393.460,445.484 393.348,445.484 392.589 C 445.484 392.239,435.191 361.066,422.611 323.317 L 399.739 254.681 382.228 260.533 C 372.597 263.752,364.538 266.565,364.318 266.784 C 364.030 267.072,389.541 345.013,393.015 354.460 C 393.328 355.311,379.493 355.531,325.638 355.531 C 280.931 355.531,257.867 355.238,257.867 354.672 C 257.867 354.200,275.601 318.347,297.276 274.999 L 336.685 196.184 302.843 196.184 L 269.002 196.184 302.843 128.505 L 336.685 60.826 224.868 60.826 L 113.051 60.826 113.282 79.459 " stroke="none" fill-rule="evenodd" fill="black"></path></svg>