<svg width="136mm" height="120mm" version="1.1" viewBox="0 0 600 529.4117647058824" xmlns="http://www.w3.org/2000/svg"><path d="M113.282 79.459 L 113.513 98.092 194.257 98.311 C 238.666 98.431,275.001 98.719,275.001 98.951 C 275.001 99.183,264.113 121.153,250.805 147.773 L 226.610 196.172 170.062 196.392 L 113.513 196.613 113.282 215.246 L 113.051 233.879 194.026 233.879 C 247.555 233.879,275.001 234.170,275.001 234.738 C 275.001 235.210,257.460 270.676,236.021 313.552 C 214.582 356.428,197.041 391.702,197.041 391.938 C 197.041 392.175,252.909 392.369,321.192 392.369 L 445.344 392.369 422.594 324.047 C 410.081 286.470,399.701 255.562,399.527 255.362 C 398.990 254.747,364.792 265.951,364.428 266.862 C 364.239 267.333,370.611 287.284,378.587 311.196 L 393.089 354.674 325.478 354.674 C 288.292 354.674,257.867 354.480,257.867 354.244 C 257.867 354.007,275.601 318.347,297.276 274.999 L 336.685 196.184 302.844 196.184 C 284.232 196.184,269.004 195.991,269.004 195.754 C 269.004 195.517,284.039 165.255,302.415 128.505 C 320.791 91.755,335.826 61.493,335.826 61.256 C 335.826 61.019,285.702 60.826,224.439 60.826 L 113.051 60.826 113.282 79.459 " stroke="none" fill-rule="evenodd" fill="black"></path></svg>