<svg width="136mm" height="120mm" version="1.1" viewBox="0 0 600 529.4117647058824" xmlns="http://www.w3.org/2000/svg"><path d="M238.163 75.383 L 238.163 113.072 181.406 113.292 L 124.650 113.513 124.419 132.146 L 124.188 150.779 181.175 150.779 L 238.163 150.779 238.163 160.203 L 238.163 169.628 156.435 210.489 L 74.707 251.350 82.963 267.887 C 87.503 276.983,91.523 284.424,91.895 284.424 C 92.268 284.424,129.602 266.033,174.860 243.556 L 257.148 202.687 299.700 224.066 L 342.252 245.445 258.081 245.663 L 173.910 245.881 173.910 264.724 L 173.910 283.568 215.244 283.568 L 256.577 283.568 192.329 347.820 L 128.081 412.073 260.225 412.073 C 365.846 412.073,392.369 411.856,392.369 410.995 C 392.369 409.756,354.948 297.264,354.331 296.647 C 353.985 296.301,319.683 307.313,318.817 308.047 C 318.651 308.189,323.373 322.882,329.312 340.699 C 335.251 358.516,340.110 373.382,340.110 373.736 C 340.110 374.089,313.124 374.378,280.141 374.378 C 247.158 374.378,220.172 374.088,220.172 373.733 C 220.172 372.941,345.458 247.586,346.250 247.586 C 346.562 247.586,363.675 255.875,384.280 266.005 C 404.884 276.136,421.981 284.424,422.272 284.424 C 422.563 284.424,426.517 276.983,431.057 267.887 L 439.313 251.350 357.585 210.489 L 275.857 169.628 275.857 160.203 L 275.857 150.779 328.990 150.779 L 382.122 150.779 381.891 132.146 L 381.660 113.513 328.759 113.292 L 275.857 113.071 275.857 75.383 L 275.857 37.695 257.010 37.695 L 238.163 37.695 238.163 75.383 " stroke="none" fill-rule="evenodd" fill="black"></path></svg>