<svg width="136mm" height="120mm" version="1.1" viewBox="0 0 600 529.4117647058824" xmlns="http://www.w3.org/2000/svg"><path d="M238.163 65.960 L 238.163 94.226 175.838 94.446 L 113.513 94.665 113.282 113.299 L 113.051 131.932 257.010 131.932 L 400.969 131.932 400.738 113.299 L 400.507 94.665 338.182 94.446 L 275.857 94.226 275.857 65.960 L 275.857 37.695 257.010 37.695 L 238.163 37.695 238.163 65.960 M237.801 163.416 C 237.504 170.366,237.038 179.040,236.766 182.691 L 236.271 189.331 174.661 189.331 L 113.051 189.331 113.282 207.964 L 113.513 226.597 172.411 226.817 C 204.805 226.938,231.309 227.349,231.309 227.731 C 231.309 229.341,229.311 239.349,226.918 249.728 C 221.662 272.525,211.305 302.415,208.662 302.415 C 207.358 302.415,147.910 282.613,147.143 281.923 C 146.792 281.608,149.003 273.876,152.057 264.742 C 155.111 255.607,157.475 248.000,157.311 247.836 C 157.147 247.672,149.128 244.903,139.491 241.682 L 121.968 235.826 116.568 252.201 C 113.598 261.207,110.906 268.864,110.586 269.216 C 110.266 269.569,104.834 268.123,98.515 266.004 C 92.196 263.884,86.619 262.150,86.121 262.150 C 84.994 262.150,73.465 296.574,74.331 297.352 C 74.678 297.663,79.973 299.556,86.098 301.558 C 92.224 303.561,97.522 305.457,97.872 305.772 C 98.223 306.087,95.428 315.571,91.661 326.848 C 87.895 338.125,84.813 347.752,84.813 348.242 C 84.813 349.358,119.244 360.874,120.015 360.016 C 120.326 359.669,123.568 350.326,127.220 339.253 C 130.872 328.180,134.116 318.835,134.431 318.485 C 134.849 318.020,179.659 332.336,190.030 336.248 C 191.818 336.922,186.613 343.657,176.462 353.803 C 164.089 366.170,152.933 372.414,141.584 373.325 L 136.215 373.756 136.215 392.788 L 136.215 411.821 140.713 411.481 C 158.618 410.126,174.823 403.842,190.103 392.328 C 198.991 385.632,213.384 370.521,220.172 360.761 C 223.235 356.358,226.385 351.934,227.173 350.930 L 228.606 349.105 302.991 373.861 C 343.903 387.476,377.817 398.778,378.355 398.975 C 378.963 399.199,381.590 392.572,385.299 381.457 L 391.266 363.580 318.569 339.353 C 278.586 326.029,245.873 315.023,245.873 314.897 C 245.873 314.771,247.770 309.695,250.089 303.616 C 257.669 283.743,264.034 260.460,268.155 237.525 L 270.040 227.036 335.274 226.817 L 400.507 226.597 400.738 207.969 L 400.969 189.342 337.771 189.122 C 275.146 188.904,274.574 188.887,274.760 187.189 C 274.863 186.247,275.213 177.669,275.538 168.127 L 276.129 150.779 257.235 150.779 L 238.341 150.779 237.801 163.416 " stroke="none" fill-rule="evenodd" fill="black"></path></svg>