<svg width="136mm" height="120mm" version="1.1" viewBox="0 0 600 529.4117647058824" xmlns="http://www.w3.org/2000/svg"><path d="M238.163 65.966 L 238.163 94.237 175.624 94.237 L 113.084 94.237 113.084 113.084 L 113.084 131.932 257.010 131.932 L 400.936 131.932 400.936 113.084 L 400.936 94.237 338.397 94.237 L 275.857 94.237 275.857 65.966 L 275.857 37.695 257.010 37.695 L 238.163 37.695 238.163 65.966 M237.801 163.416 C 237.504 170.366,237.038 179.040,236.766 182.691 L 236.271 189.331 174.661 189.331 L 113.051 189.331 113.282 207.964 L 113.513 226.597 172.411 226.817 C 205.718 226.942,231.309 227.366,231.309 227.793 C 231.309 229.480,228.437 243.523,226.044 253.537 C 221.516 272.486,210.921 302.415,208.741 302.415 C 207.384 302.415,147.939 282.640,147.143 281.923 C 146.792 281.608,149.003 273.876,152.057 264.742 C 155.111 255.607,157.475 248.000,157.311 247.836 C 157.147 247.672,149.128 244.903,139.491 241.682 L 121.968 235.826 116.568 252.201 C 113.598 261.207,110.906 268.864,110.586 269.216 C 110.266 269.569,104.834 268.123,98.515 266.004 C 92.196 263.884,86.619 262.150,86.121 262.150 C 84.994 262.150,73.465 296.574,74.331 297.352 C 74.678 297.663,79.973 299.556,86.098 301.558 C 92.224 303.561,97.528 305.463,97.886 305.786 C 98.245 306.109,95.269 315.884,91.274 327.509 C 84.726 346.563,84.156 348.720,85.483 349.402 C 89.537 351.486,119.322 360.764,119.906 360.124 C 120.277 359.718,123.568 350.326,127.220 339.253 C 130.872 328.180,134.116 318.835,134.429 318.486 C 134.966 317.890,189.040 335.398,190.387 336.605 C 191.308 337.431,180.135 350.979,173.816 356.696 C 162.978 366.504,151.266 372.548,141.590 373.324 L 136.215 373.756 136.215 392.755 L 136.215 411.754 141.570 411.415 C 152.555 410.720,167.204 406.319,177.337 400.669 C 191.579 392.727,209.480 376.036,220.172 360.728 C 223.235 356.343,226.385 351.934,227.173 350.930 L 228.606 349.105 302.931 373.856 C 343.810 387.469,377.819 398.649,378.506 398.701 C 379.393 398.767,381.463 393.700,385.620 381.289 C 388.845 371.661,391.394 363.715,391.284 363.630 C 391.174 363.545,358.411 352.596,318.478 339.299 C 278.545 326.002,245.873 315.021,245.873 314.896 C 245.873 314.770,247.770 309.695,250.089 303.616 C 257.634 283.835,263.963 260.723,268.187 237.525 L 270.096 227.036 335.302 226.817 L 400.507 226.597 400.738 207.969 L 400.969 189.342 337.771 189.122 C 275.146 188.904,274.574 188.887,274.760 187.189 C 274.863 186.247,275.213 177.669,275.538 168.127 L 276.129 150.779 257.235 150.779 L 238.341 150.779 237.801 163.416 " stroke="none" fill-rule="evenodd" fill="black"></path></svg>