<svg width="136mm" height="120mm" version="1.1" viewBox="0 0 600 529.4117647058824" xmlns="http://www.w3.org/2000/svg"><path d="M238.163 65.960 L 238.163 94.226 175.838 94.446 L 113.513 94.665 113.282 113.299 L 113.051 131.932 257.010 131.932 L 400.969 131.932 400.738 113.299 L 400.507 94.665 338.182 94.446 L 275.857 94.226 275.857 65.960 L 275.857 37.695 257.010 37.695 L 238.163 37.695 238.163 65.960 M237.818 166.842 C 237.495 175.677,237.012 184.156,236.745 185.684 L 236.261 188.463 174.887 188.683 L 113.513 188.902 113.513 207.750 L 113.513 226.597 172.527 226.817 L 231.540 227.037 230.984 231.095 C 228.515 249.109,212.195 302.415,209.150 302.415 C 208.329 302.415,147.228 282.016,146.817 281.604 C 146.653 281.441,149.018 273.833,152.071 264.699 C 155.125 255.565,157.337 247.828,156.986 247.506 C 156.635 247.184,148.637 244.387,139.214 241.290 L 122.080 235.659 116.727 251.689 C 113.783 260.505,111.201 268.180,110.989 268.745 C 110.718 269.464,107.206 268.631,99.243 265.960 C 92.995 263.865,87.283 262.150,86.549 262.150 C 85.576 262.150,83.660 266.828,79.458 279.468 C 76.292 288.993,73.985 297.041,74.331 297.352 C 74.678 297.663,79.973 299.556,86.098 301.558 C 92.224 303.561,97.522 305.457,97.872 305.772 C 98.223 306.087,95.428 315.571,91.661 326.848 C 87.895 338.125,84.813 347.752,84.813 348.242 C 84.813 349.358,119.244 360.874,120.015 360.016 C 120.326 359.669,123.568 350.326,127.220 339.253 C 130.872 328.180,134.116 318.835,134.429 318.486 C 134.963 317.893,189.033 335.394,190.376 336.594 C 191.082 337.225,183.444 347.103,177.494 353.253 C 165.914 365.224,150.345 373.521,139.462 373.521 L 136.215 373.521 136.215 392.369 L 136.215 411.216 140.770 411.216 C 150.159 411.216,163.446 407.681,173.953 402.387 C 191.762 393.415,210.844 375.432,224.223 355.012 L 228.211 348.926 303.595 374.057 C 345.057 387.880,379.112 399.057,379.273 398.896 C 379.435 398.734,382.219 390.666,385.460 380.967 L 391.354 363.331 318.828 339.181 C 278.938 325.899,246.203 314.954,246.083 314.859 C 245.964 314.765,247.764 309.709,250.085 303.625 C 257.618 283.878,263.859 261.071,268.174 237.525 L 270.096 227.036 335.302 226.817 L 400.507 226.597 400.507 207.750 L 400.507 188.902 337.236 188.683 C 283.402 188.496,274.034 188.284,274.425 187.263 C 274.679 186.603,275.162 178.124,275.498 168.421 L 276.111 150.779 257.259 150.779 L 238.406 150.779 237.818 166.842 " stroke="none" fill-rule="evenodd" fill="black"></path></svg>