<svg width="136mm" height="120mm" version="1.1" viewBox="0 0 600 529.4117647058824" xmlns="http://www.w3.org/2000/svg"><path d="M130.426 141.577 L 62.531 209.476 75.815 222.739 L 89.100 236.003 107.089 218.029 L 125.078 200.055 125.078 300.067 L 125.078 400.079 143.926 400.079 L 162.773 400.079 162.773 281.216 L 162.773 162.353 193.824 131.293 L 224.876 100.233 211.598 86.955 L 198.321 73.678 130.426 141.577 M302.416 86.954 L 289.151 100.240 320.199 131.297 L 351.247 162.353 351.247 281.216 L 351.247 400.079 370.094 400.079 L 388.942 400.079 388.942 300.067 L 388.942 200.055 406.935 218.032 L 424.927 236.010 438.203 222.734 L 451.480 209.458 383.581 141.563 L 315.682 73.668 302.416 86.954 " stroke="none" fill-rule="evenodd" fill="black"></path></svg>