<svg width="136mm" height="120mm" version="1.1" viewBox="0 0 600 529.4117647058824" xmlns="http://www.w3.org/2000/svg"><path d="M121.497 120.688 C 112.224 123.809,104.377 126.628,104.059 126.952 C 103.616 127.404,150.753 270.866,152.188 273.433 C 152.531 274.047,185.833 263.244,187.071 262.116 C 187.735 261.511,140.178 116.833,138.892 115.547 C 138.598 115.253,130.770 117.566,121.497 120.688 M215.734 120.648 C 206.461 123.791,198.614 126.628,198.296 126.952 C 197.853 127.404,244.990 270.866,246.425 273.432 C 246.601 273.748,254.798 271.318,264.641 268.033 L 282.537 262.061 257.997 188.429 C 244.500 147.932,233.263 114.828,233.026 114.865 C 232.788 114.903,225.007 117.505,215.734 120.648 M346.911 233.607 C 325.160 298.863,307.695 352.556,308.101 352.927 C 308.508 353.297,316.475 356.131,325.807 359.226 C 337.505 363.106,342.893 364.536,343.159 363.833 C 343.371 363.272,361.238 309.728,382.864 244.847 L 422.182 126.882 404.321 120.921 L 386.460 114.960 346.911 233.607 " stroke="none" fill-rule="evenodd" fill="black"></path></svg>