<svg width="136mm" height="120mm" version="1.1" viewBox="0 0 600 529.4117647058824" xmlns="http://www.w3.org/2000/svg"><path d="M120.665 120.945 L 102.973 126.878 127.422 200.297 C 140.869 240.677,151.941 273.806,152.025 273.916 C 152.295 274.267,186.301 262.818,187.071 262.116 C 187.735 261.511,140.178 116.833,138.892 115.547 C 138.598 115.253,130.396 117.682,120.665 120.945 M215.734 120.648 C 206.461 123.791,198.614 126.628,198.296 126.952 C 197.853 127.404,244.990 270.866,246.425 273.432 C 246.601 273.748,254.798 271.318,264.641 268.033 L 282.537 262.061 257.997 188.429 C 244.500 147.932,233.263 114.828,233.026 114.865 C 232.788 114.903,225.007 117.505,215.734 120.648 M347.008 233.318 C 325.309 298.415,307.555 351.936,307.555 352.254 C 307.555 352.970,342.460 364.621,342.949 364.068 C 343.143 363.849,361.050 310.392,382.742 245.276 L 422.182 126.882 404.321 120.921 L 386.460 114.960 347.008 233.318 " stroke="none" fill-rule="evenodd" fill="black"></path></svg>