<svg width="136mm" height="120mm" version="1.1" viewBox="0 0 600 529.4117647058824" xmlns="http://www.w3.org/2000/svg"><path d="M238.163 83.100 L 238.163 120.795 171.768 120.795 L 105.374 120.795 105.374 139.642 L 105.374 158.489 158.273 158.489 L 211.173 158.489 142.210 227.503 L 73.248 296.517 86.860 309.840 L 100.472 323.163 178.741 244.897 L 257.010 166.632 335.184 244.758 L 413.358 322.884 427.065 309.704 L 440.772 296.524 371.810 227.507 L 302.847 158.489 351.892 158.489 L 400.936 158.489 400.936 139.642 L 400.936 120.795 338.397 120.795 L 275.857 120.795 275.857 83.100 L 275.857 45.405 257.010 45.405 L 238.163 45.405 238.163 83.100 M247.586 216.005 C 208.184 219.156,172.971 247.040,160.280 285.140 C 155.643 299.063,155.070 305.265,155.066 341.609 L 155.063 374.378 134.057 374.378 L 113.051 374.378 113.282 393.011 L 113.513 411.644 257.010 411.644 L 400.507 411.644 400.738 393.011 L 400.969 374.378 379.963 374.378 L 358.957 374.378 358.951 341.609 C 358.944 308.239,358.571 302.823,355.467 291.021 C 348.192 263.357,329.359 240.047,303.627 226.856 C 286.017 217.829,268.119 214.363,247.586 216.005 M272.039 254.932 C 290.209 258.725,308.110 273.660,316.003 291.611 C 320.539 301.928,320.667 303.154,321.037 339.896 L 321.383 374.378 257.010 374.378 L 192.637 374.378 192.983 339.896 C 193.353 303.176,193.476 301.991,198.002 291.611 C 203.084 279.955,214.428 267.509,225.707 261.213 C 239.339 253.603,255.306 251.439,272.039 254.932 " stroke="none" fill-rule="evenodd" fill="black"></path></svg>