<svg width="136mm" height="120mm" version="1.1" viewBox="0 0 600 529.4117647058824" xmlns="http://www.w3.org/2000/svg"><path d="M238.163 83.100 L 238.163 120.795 172.197 120.795 L 106.231 120.795 106.231 139.642 L 106.231 158.489 158.702 158.489 L 211.173 158.489 142.424 227.242 L 73.675 295.995 87.166 309.486 L 100.657 322.978 178.834 244.805 L 257.010 166.632 335.186 244.805 L 413.363 322.978 426.854 309.486 L 440.345 295.995 371.596 227.242 L 302.847 158.489 351.892 158.489 L 400.936 158.489 400.936 139.642 L 400.936 120.795 338.397 120.795 L 275.857 120.795 275.857 83.100 L 275.857 45.405 257.010 45.405 L 238.163 45.405 238.163 83.100 M248.015 215.972 C 229.404 217.454,211.432 224.284,196.216 235.661 C 177.568 249.602,164.318 269.095,158.506 291.139 C 155.497 302.551,155.065 308.888,155.064 341.609 L 155.063 374.378 134.057 374.378 L 113.051 374.378 113.282 393.011 L 113.513 411.644 257.010 411.644 L 400.507 411.644 400.738 393.011 L 400.969 374.378 379.963 374.378 L 358.957 374.378 358.957 341.552 C 358.957 322.986,358.575 306.519,358.078 303.643 C 353.877 279.349,345.565 262.400,330.002 246.393 C 308.565 224.344,279.294 213.483,248.015 215.972 M272.039 254.932 C 290.523 258.790,308.334 273.833,316.090 292.135 C 320.606 302.791,320.654 303.255,321.037 339.896 L 321.398 374.378 257.010 374.378 L 192.622 374.378 192.985 339.896 C 193.386 301.780,193.486 300.973,199.261 289.289 C 205.717 276.225,215.861 266.080,229.204 259.343 C 241.007 253.383,256.819 251.754,272.039 254.932 " stroke="none" fill-rule="evenodd" fill="black"></path></svg>