<svg width="136mm" height="120mm" version="1.1" viewBox="0 0 600 529.4117647058824" xmlns="http://www.w3.org/2000/svg"><path d="M238.163 83.100 L 238.163 120.795 172.197 120.795 L 106.231 120.795 106.231 139.642 L 106.231 158.489 158.702 158.489 L 211.173 158.489 142.424 227.242 L 73.675 295.995 87.166 309.486 L 100.657 322.978 178.834 244.805 L 257.010 166.632 335.186 244.805 L 413.363 322.978 426.854 309.486 L 440.345 295.995 371.596 227.242 L 302.847 158.489 351.908 158.489 L 400.969 158.489 400.738 139.856 L 400.507 121.223 338.182 121.003 L 275.857 120.784 275.857 83.094 L 275.857 45.405 257.010 45.405 L 238.163 45.405 238.163 83.100 M245.101 215.931 C 203.612 221.121,168.716 251.468,158.457 291.278 C 155.531 302.636,155.097 309.098,155.080 341.594 L 155.063 373.491 134.288 373.720 L 113.513 373.950 113.513 392.797 L 113.513 411.644 257.010 411.644 L 400.507 411.644 400.507 392.797 L 400.507 373.950 379.798 373.720 L 359.089 373.491 358.741 337.739 C 358.398 302.521,358.359 301.859,356.158 293.420 C 347.056 258.528,322.605 231.838,289.392 220.541 C 276.746 216.240,258.125 214.302,245.101 215.931 M272.199 254.886 C 289.645 258.921,305.726 271.728,313.900 288.099 C 320.667 301.650,320.697 301.870,321.054 339.896 L 321.370 373.521 257.010 373.521 L 192.650 373.521 192.966 339.896 C 193.321 302.004,193.351 301.788,199.992 288.247 C 209.273 269.321,228.117 256.190,250.156 253.291 C 254.775 252.683,266.270 253.515,272.199 254.886 " stroke="none" fill-rule="evenodd" fill="black"></path></svg>