<svg width="136mm" height="120mm" version="1.1" viewBox="0 0 600 529.4117647058824" xmlns="http://www.w3.org/2000/svg"><path d="M238.163 65.961 L 238.163 94.226 171.983 94.446 L 105.802 94.665 105.572 113.299 L 105.341 131.932 171.752 131.932 L 238.163 131.932 238.163 151.208 L 238.163 170.483 171.752 170.483 L 105.341 170.483 105.572 189.117 L 105.802 207.750 158.481 207.971 L 211.159 208.191 142.414 276.941 L 73.668 345.691 86.955 358.957 L 100.243 372.224 178.626 293.844 L 257.010 215.464 335.394 293.844 L 413.777 372.224 427.065 358.957 L 440.352 345.691 371.606 276.941 L 302.861 208.191 355.539 207.971 L 408.218 207.750 408.448 189.117 L 408.679 170.483 342.268 170.483 L 275.857 170.483 275.857 151.208 L 275.857 131.932 342.268 131.932 L 408.679 131.932 408.448 113.299 L 408.218 94.665 342.037 94.446 L 275.857 94.226 275.857 65.961 L 275.857 37.695 257.010 37.695 L 238.163 37.695 238.163 65.961 M234.517 264.511 L 221.034 278.013 250.806 307.777 C 267.181 324.146,280.967 337.540,281.441 337.540 C 282.560 337.540,307.555 312.515,307.555 311.395 C 307.555 310.927,294.155 297.149,277.778 280.776 L 248.000 251.008 234.517 264.511 M234.086 340.331 L 221.034 353.403 251.237 383.597 L 281.440 413.792 294.892 400.296 L 308.343 386.800 278.040 357.030 C 261.373 340.656,247.602 327.259,247.437 327.259 C 247.272 327.259,241.264 333.142,234.086 340.331 " stroke="none" fill-rule="evenodd" fill="black"></path></svg>