<svg width="136mm" height="120mm" version="1.1" viewBox="0 0 600 529.4117647058824" xmlns="http://www.w3.org/2000/svg"><path d="M238.163 65.966 L 238.163 94.237 172.197 94.237 L 106.231 94.237 106.231 113.084 L 106.231 131.932 172.197 131.932 L 238.163 131.932 238.163 150.779 L 238.163 169.627 172.197 169.627 L 106.231 169.627 106.231 188.474 L 106.231 207.321 158.489 207.321 C 187.232 207.321,210.748 207.610,210.748 207.962 C 210.748 208.314,179.905 239.447,142.208 277.147 L 73.668 345.691 86.955 358.957 L 100.243 372.224 178.626 293.844 L 257.010 215.464 335.394 293.844 L 413.777 372.224 427.065 358.957 L 440.352 345.691 371.812 277.147 C 334.115 239.447,303.272 208.314,303.272 207.962 C 303.272 207.610,326.788 207.321,355.531 207.321 L 407.789 207.321 407.789 188.474 L 407.789 169.627 341.823 169.627 L 275.857 169.627 275.857 150.779 L 275.857 131.932 341.823 131.932 L 407.789 131.932 407.789 113.084 L 407.789 94.237 341.823 94.237 L 275.857 94.237 275.857 65.966 L 275.857 37.695 257.010 37.695 L 238.163 37.695 238.163 65.966 M234.517 264.511 L 221.034 278.013 250.806 307.777 C 267.181 324.146,280.967 337.540,281.441 337.540 C 282.560 337.540,307.555 312.515,307.555 311.395 C 307.555 310.927,294.155 297.149,277.778 280.776 L 248.000 251.008 234.517 264.511 M234.086 340.331 L 221.034 353.403 251.237 383.598 L 281.441 413.792 294.705 400.507 L 307.969 387.223 277.996 357.241 C 261.511 340.751,247.824 327.259,247.581 327.259 C 247.337 327.259,241.264 333.142,234.086 340.331 " stroke="none" fill-rule="evenodd" fill="black"></path></svg>