<svg width="136mm" height="120mm" version="1.1" viewBox="0 0 600 529.4117647058824" xmlns="http://www.w3.org/2000/svg"><path d="M103.663 218.455 L 47.121 331.536 63.388 339.678 C 72.336 344.156,80.045 347.820,80.520 347.820 C 80.995 347.820,91.440 327.711,103.731 303.132 L 126.078 258.444 173.550 305.910 L 221.021 353.375 234.308 340.110 L 247.594 326.844 195.688 274.933 L 143.783 223.022 169.126 172.341 L 194.470 121.659 178.202 113.517 C 169.254 109.038,161.544 105.374,161.069 105.374 C 160.593 105.374,134.760 156.260,103.663 218.455 M315.452 218.461 L 258.668 331.506 274.964 339.663 C 283.927 344.150,291.650 347.820,292.125 347.820 C 292.600 347.820,303.044 327.711,315.335 303.132 L 337.683 258.444 385.158 305.913 L 432.633 353.382 446.029 339.987 L 459.424 326.591 407.372 274.875 L 355.319 223.159 380.697 172.409 L 406.075 121.659 389.806 113.517 C 380.859 109.038,373.245 105.384,372.887 105.395 C 372.529 105.407,346.683 156.286,315.452 218.461 " stroke="none" fill-rule="evenodd" fill="black"></path></svg>