<svg width="136mm" height="120mm" version="1.1" viewBox="0 0 600 529.4117647058824" xmlns="http://www.w3.org/2000/svg"><path d="M104.302 218.031 C 73.322 279.992,47.975 330.878,47.975 331.111 C 47.975 331.604,80.191 347.820,81.170 347.820 C 81.532 347.820,91.846 327.772,104.090 303.269 L 126.353 258.718 173.690 306.050 L 221.028 353.382 234.307 340.104 L 247.586 326.825 195.825 275.070 L 144.065 223.315 169.268 172.914 C 183.130 145.194,194.471 122.322,194.471 122.087 C 194.471 121.593,162.261 105.374,161.281 105.374 C 160.922 105.374,135.281 156.070,104.302 218.031 M315.267 218.455 L 258.726 331.536 274.993 339.678 C 283.940 344.156,291.650 347.820,292.125 347.820 C 292.600 347.820,303.044 327.711,315.335 303.132 L 337.683 258.444 385.154 305.910 L 432.626 353.375 445.912 340.110 L 459.199 326.844 407.293 274.933 L 355.388 223.022 380.731 172.341 L 406.075 121.659 389.806 113.517 C 380.859 109.038,373.149 105.374,372.674 105.374 C 372.198 105.374,346.365 156.260,315.267 218.455 " stroke="none" fill-rule="evenodd" fill="black"></path></svg>