<svg width="136mm" height="120mm" version="1.1" viewBox="0 0 600 529.4117647058824" xmlns="http://www.w3.org/2000/svg"><path d="M104.302 218.031 C 73.322 279.992,47.975 330.878,47.975 331.111 C 47.975 331.532,80.117 347.820,80.948 347.820 C 81.187 347.820,91.440 327.711,103.731 303.132 L 126.078 258.444 173.550 305.910 L 221.021 353.375 234.304 340.113 L 247.587 326.851 195.690 274.927 L 143.792 223.004 169.131 172.332 L 194.470 121.659 178.202 113.517 C 169.254 109.038,161.640 105.374,161.281 105.374 C 160.922 105.374,135.281 156.070,104.302 218.031 M315.907 218.031 C 284.927 279.992,259.580 330.878,259.580 331.111 C 259.580 331.532,291.722 347.820,292.553 347.820 C 292.792 347.820,303.044 327.711,315.335 303.132 L 337.683 258.444 385.154 305.910 L 432.626 353.375 445.912 340.110 L 459.199 326.844 407.293 274.933 L 355.388 223.022 380.731 172.341 L 406.075 121.659 389.806 113.517 C 380.859 109.038,373.245 105.374,372.886 105.374 C 372.527 105.374,346.886 156.070,315.907 218.031 " stroke="none" fill-rule="evenodd" fill="black"></path></svg>