<svg width="136mm" height="120mm" version="1.1" viewBox="0 0 600 529.4117647058824" xmlns="http://www.w3.org/2000/svg"><path d="M124.862 127.221 C 103.306 170.335,85.670 205.994,85.670 206.462 C 85.670 207.168,117.283 223.599,118.642 223.599 C 118.881 223.599,126.628 208.501,135.856 190.049 L 152.636 156.498 188.767 192.622 L 224.898 228.746 238.163 215.460 L 251.428 202.174 210.883 161.623 L 170.339 121.072 184.118 93.524 C 191.697 78.373,197.898 65.783,197.898 65.547 C 197.898 65.052,165.691 48.832,164.707 48.832 C 164.348 48.832,146.417 84.107,124.862 127.221 M298.772 127.221 C 277.216 170.335,259.580 205.994,259.580 206.462 C 259.580 207.168,291.194 223.599,292.552 223.599 C 292.791 223.599,300.538 208.501,309.766 190.049 L 326.546 156.498 362.677 192.622 L 398.808 228.746 412.073 215.460 L 425.338 202.174 384.794 161.623 L 344.249 121.072 358.029 93.524 C 365.607 78.373,371.808 65.783,371.808 65.547 C 371.808 65.052,339.601 48.832,338.617 48.832 C 338.258 48.832,320.327 84.107,298.772 127.221 M239.220 228.308 C 204.201 234.656,174.311 259.193,161.990 291.706 C 156.098 307.254,155.684 310.337,155.285 341.609 L 154.922 370.094 134.003 370.094 L 113.084 370.094 113.084 388.942 L 113.084 407.789 257.010 407.789 L 400.936 407.789 400.936 388.942 L 400.936 370.094 380.017 370.094 L 359.098 370.094 358.735 341.609 C 358.406 315.826,358.194 312.433,356.500 305.842 C 352.510 290.323,347.373 279.404,338.497 267.576 C 322.879 246.766,300.143 232.794,274.671 228.352 C 265.501 226.753,247.922 226.731,239.220 228.308 M276.952 267.527 C 293.696 272.972,307.657 285.458,315.326 301.848 C 320.420 312.733,320.630 314.256,321.036 343.323 L 321.409 370.094 257.010 370.094 L 192.611 370.094 192.984 343.323 C 193.390 314.256,193.600 312.733,198.694 301.848 C 207.364 283.320,223.032 270.590,242.874 265.952 C 251.172 264.012,268.626 264.819,276.952 267.527 " stroke="none" fill-rule="evenodd" fill="black"></path></svg>