<svg width="136mm" height="120mm" version="1.1" viewBox="0 0 600 529.4117647058824" xmlns="http://www.w3.org/2000/svg"><path d="M170.563 71.373 C 170.180 72.404,165.481 86.452,160.119 102.590 L 150.370 131.932 103.440 131.932 L 56.509 131.932 56.740 150.993 L 56.971 170.055 97.021 170.278 C 119.049 170.400,137.072 170.825,137.072 171.221 C 137.072 171.618,120.874 220.247,101.076 279.286 C 81.279 338.324,65.184 386.711,65.309 386.811 C 66.729 387.946,100.561 398.364,101.059 397.819 C 101.430 397.413,109.544 373.564,119.091 344.822 C 128.639 316.079,136.524 292.468,136.615 292.352 C 136.706 292.235,198.879 312.764,274.777 337.971 C 350.675 363.178,412.972 383.802,413.216 383.802 C 413.842 383.802,425.378 348.837,424.894 348.408 C 424.674 348.214,362.812 327.522,287.423 302.425 C 212.033 277.329,150.018 256.492,149.612 256.121 C 149.206 255.750,155.213 236.426,162.962 213.179 L 177.051 170.912 222.599 170.690 L 268.147 170.468 268.147 151.200 L 268.147 131.932 229.076 131.932 C 198.179 131.932,190.086 131.708,190.398 130.861 C 195.150 117.940,206.460 81.913,205.918 81.420 C 205.512 81.050,197.547 78.216,188.219 75.122 C 171.410 69.548,171.251 69.514,170.563 71.373 M272.431 106.231 L 272.431 125.078 332.401 125.078 L 392.372 125.078 373.027 163.762 L 353.681 202.446 344.099 192.891 L 334.518 183.337 321.258 196.618 L 307.998 209.898 345.679 247.587 L 383.360 285.275 396.925 271.785 L 410.489 258.295 396.206 244.538 L 381.922 230.780 417.558 159.512 C 437.158 120.315,453.194 88.051,453.194 87.814 C 453.194 87.577,412.522 87.383,362.812 87.383 L 272.431 87.383 272.431 106.231 " stroke="none" fill-rule="evenodd" fill="black"></path></svg>