<svg width="136mm" height="120mm" version="1.1" viewBox="0 0 600 529.4117647058824" xmlns="http://www.w3.org/2000/svg"><path d="M233.668 91.105 L 215.985 126.363 215.937 108.587 L 215.888 90.810 126.792 90.810 L 37.695 90.810 37.695 109.658 L 37.695 128.505 73.676 128.505 C 93.466 128.505,109.658 128.603,109.658 128.723 C 109.658 128.843,92.895 179.224,72.408 240.682 C 51.921 302.140,35.292 352.557,35.455 352.720 C 35.618 352.883,43.610 355.645,53.215 358.859 L 70.678 364.702 93.021 297.791 L 115.364 230.881 122.693 230.635 C 131.766 230.330,140.334 232.043,147.489 235.592 C 166.123 244.835,177.337 262.531,177.337 282.691 C 177.337 292.335,175.948 298.537,171.961 306.699 C 163.730 323.546,146.962 334.649,127.648 336.039 L 124.650 336.255 124.419 355.018 L 124.187 373.782 132.557 373.234 C 145.070 372.414,155.430 369.347,167.658 362.842 C 196.718 347.383,215.095 316.874,215.148 284.001 C 215.166 272.891,214.100 265.574,211.056 255.923 C 200.255 221.674,169.984 197.047,133.859 193.118 C 130.914 192.798,128.511 192.297,128.518 192.004 C 128.525 191.712,133.300 177.401,139.129 160.203 L 149.726 128.933 182.387 128.709 L 215.047 128.485 201.332 155.904 C 193.789 170.985,187.617 183.619,187.617 183.981 C 187.617 184.343,195.134 188.392,204.321 192.978 L 221.026 201.317 231.739 179.903 L 242.453 158.489 247.590 158.489 L 252.727 158.489 252.727 202.181 L 252.727 245.873 237.734 245.873 L 222.742 245.873 222.742 264.720 L 222.742 283.568 237.734 283.568 L 252.727 283.568 252.727 336.255 L 252.727 388.942 272.002 388.942 L 291.278 388.942 291.278 336.255 L 291.278 283.568 310.125 283.568 L 328.973 283.568 328.973 336.255 L 328.973 388.942 347.820 388.942 L 366.668 388.942 366.668 336.255 L 366.668 283.568 385.515 283.568 L 404.362 283.568 404.362 336.255 L 404.362 388.942 423.210 388.942 L 442.057 388.942 442.057 336.255 L 442.057 283.568 459.191 283.568 L 476.325 283.568 476.325 264.738 L 476.325 245.909 459.405 245.677 L 442.486 245.445 442.264 201.967 L 442.041 158.489 459.183 158.489 L 476.325 158.489 476.325 139.642 L 476.325 120.795 368.806 120.795 L 261.288 120.795 273.285 96.812 L 285.283 72.828 268.317 64.337 L 251.351 55.847 233.668 91.105 M328.766 201.967 L 328.544 245.445 309.911 245.675 L 291.278 245.906 291.278 202.198 L 291.278 158.489 310.133 158.489 L 328.989 158.489 328.766 201.967 M404.362 202.181 L 404.362 245.873 385.515 245.873 L 366.668 245.873 366.668 202.181 L 366.668 158.489 385.515 158.489 L 404.362 158.489 404.362 202.181 " stroke="none" fill-rule="evenodd" fill="black"></path></svg>