<svg width="136mm" height="120mm" version="1.1" viewBox="0 0 600 529.4117647058824" xmlns="http://www.w3.org/2000/svg"><path d="M233.668 91.105 L 215.985 126.363 215.937 108.587 L 215.888 90.810 126.792 90.810 L 37.695 90.810 37.695 109.658 L 37.695 128.505 73.676 128.505 C 93.466 128.505,109.658 128.603,109.658 128.723 C 109.658 128.843,92.895 179.224,72.408 240.682 C 51.921 302.140,35.290 352.555,35.452 352.716 C 35.613 352.877,43.681 355.661,53.380 358.903 L 71.016 364.796 93.444 297.511 L 115.873 230.226 125.830 230.708 C 131.306 230.974,137.630 231.781,139.882 232.502 C 146.246 234.539,155.087 239.497,159.965 243.764 C 165.540 248.641,172.249 258.592,174.753 265.699 C 177.403 273.221,178.084 287.849,176.143 295.578 C 171.353 314.657,156.412 329.730,137.535 334.528 C 134.726 335.242,130.775 335.826,128.753 335.826 L 125.078 335.826 125.078 354.803 L 125.078 373.780 133.003 373.226 C 153.096 371.824,171.308 363.655,186.621 349.177 C 201.084 335.501,210.179 319.028,213.857 299.845 C 215.518 291.180,215.444 274.362,213.706 265.903 C 205.803 227.432,175.456 198.784,137.072 193.560 C 132.596 192.951,128.844 192.399,128.735 192.335 C 128.626 192.270,133.285 177.979,139.088 160.576 L 149.639 128.933 182.343 128.709 L 215.047 128.485 201.308 155.952 C 193.752 171.059,187.740 183.689,187.950 184.019 C 188.544 184.956,220.912 200.873,221.326 200.432 C 221.528 200.216,226.374 190.673,232.094 179.224 L 242.493 158.409 247.824 158.663 L 253.155 158.918 253.155 202.181 L 253.155 245.445 237.932 245.679 L 222.709 245.913 222.940 264.526 L 223.170 283.139 238.377 283.373 L 253.583 283.607 253.583 336.275 L 253.583 388.942 272.431 388.942 L 291.278 388.942 291.278 336.255 L 291.278 283.568 310.125 283.568 L 328.973 283.568 328.973 336.255 L 328.973 388.942 347.820 388.942 L 366.668 388.942 366.668 336.255 L 366.668 283.568 385.515 283.568 L 404.362 283.568 404.362 336.255 L 404.362 388.942 423.210 388.942 L 442.057 388.942 442.057 336.273 L 442.057 283.604 458.977 283.372 L 475.897 283.139 476.128 264.506 L 476.359 245.873 459.208 245.873 L 442.057 245.873 442.057 202.181 L 442.057 158.489 459.191 158.489 L 476.325 158.489 476.325 139.642 L 476.325 120.795 368.806 120.795 L 261.288 120.795 273.285 96.812 L 285.283 72.828 268.317 64.337 L 251.351 55.847 233.668 91.105 M328.766 201.967 L 328.544 245.445 309.911 245.675 L 291.278 245.906 291.278 202.198 L 291.278 158.489 310.133 158.489 L 328.989 158.489 328.766 201.967 M404.156 201.967 L 403.934 245.445 385.301 245.675 L 366.668 245.906 366.668 202.198 L 366.668 158.489 385.523 158.489 L 404.378 158.489 404.156 201.967 " stroke="none" fill-rule="evenodd" fill="black"></path></svg>