<svg width="136mm" height="120mm" version="1.1" viewBox="0 0 600 529.4117647058824" xmlns="http://www.w3.org/2000/svg"><path d="M233.668 91.105 L 215.985 126.363 215.937 108.587 L 215.888 90.810 126.792 90.810 L 37.695 90.810 37.695 109.658 L 37.695 128.505 73.676 128.505 C 93.466 128.505,109.658 128.603,109.658 128.723 C 109.658 128.843,92.895 179.224,72.408 240.682 C 51.921 302.140,35.290 352.555,35.452 352.716 C 35.613 352.877,43.681 355.661,53.380 358.903 L 71.016 364.796 93.444 297.511 L 115.873 230.226 125.830 230.649 C 133.590 230.979,137.201 231.567,142.193 233.314 C 157.119 238.539,169.428 250.861,174.904 266.063 C 177.433 273.083,178.031 287.752,176.121 295.893 C 171.099 317.300,149.200 335.743,128.719 335.814 L 125.078 335.826 125.078 354.803 L 125.078 373.780 133.003 373.226 C 145.172 372.377,155.619 369.246,167.658 362.842 C 219.921 335.039,231.460 264.201,190.722 221.245 C 176.976 206.751,159.743 197.497,140.126 194.076 C 135.967 193.351,131.625 192.758,130.477 192.757 C 128.877 192.757,128.502 192.407,128.869 191.258 C 129.133 190.434,133.914 176.073,139.494 159.346 L 149.640 128.933 182.343 128.709 L 215.047 128.485 201.308 155.952 C 193.752 171.059,187.740 183.689,187.950 184.019 C 188.544 184.956,220.912 200.873,221.326 200.432 C 221.528 200.216,226.365 190.691,232.074 179.264 L 242.453 158.489 247.590 158.489 L 252.727 158.489 252.727 202.181 L 252.727 245.873 237.734 245.873 L 222.742 245.873 222.742 264.720 L 222.742 283.568 237.734 283.568 L 252.727 283.568 252.727 336.255 L 252.727 388.942 272.002 388.942 L 291.278 388.942 291.278 336.255 L 291.278 283.568 310.125 283.568 L 328.973 283.568 328.973 336.255 L 328.973 388.942 347.820 388.942 L 366.668 388.942 366.668 336.255 L 366.668 283.568 385.515 283.568 L 404.362 283.568 404.362 336.255 L 404.362 388.942 423.210 388.942 L 442.057 388.942 442.057 336.255 L 442.057 283.568 459.191 283.568 L 476.325 283.568 476.325 264.720 L 476.325 245.873 459.191 245.873 L 442.057 245.873 442.057 202.181 L 442.057 158.489 459.191 158.489 L 476.325 158.489 476.325 139.642 L 476.325 120.795 368.806 120.795 L 261.288 120.795 273.285 96.812 L 285.283 72.828 268.317 64.337 L 251.351 55.847 233.668 91.105 M328.766 201.967 L 328.544 245.445 309.911 245.675 L 291.278 245.906 291.278 202.198 L 291.278 158.489 310.133 158.489 L 328.989 158.489 328.766 201.967 M404.362 202.181 L 404.362 245.873 385.515 245.873 L 366.668 245.873 366.668 202.181 L 366.668 158.489 385.515 158.489 L 404.362 158.489 404.362 202.181 " stroke="none" fill-rule="evenodd" fill="black"></path></svg>