<svg width="136mm" height="120mm" version="1.1" viewBox="0 0 600 529.4117647058824" xmlns="http://www.w3.org/2000/svg"><path d="M317.566 57.097 C 317.243 57.420,316.979 101.569,316.979 155.205 C 316.979 208.842,316.653 252.727,316.255 252.727 C 314.366 252.727,304.909 245.620,300.631 240.986 C 294.947 234.828,292.111 230.193,289.450 222.709 C 287.515 217.269,287.476 216.438,287.169 174.553 L 286.856 131.932 268.022 131.932 L 249.189 131.932 249.519 176.266 C 249.884 225.276,249.918 225.608,256.011 240.541 C 266.023 265.077,288.697 285.217,313.277 291.406 L 316.979 292.338 316.979 344.495 L 316.979 396.652 336.255 396.652 L 355.531 396.652 355.531 344.534 L 355.531 292.416 360.885 290.959 C 369.439 288.633,382.779 281.574,390.706 275.180 C 407.358 261.746,418.901 241.657,422.313 220.172 C 422.831 216.910,423.200 197.479,423.203 173.268 L 423.210 131.932 404.413 131.932 L 385.617 131.932 385.324 174.553 C 385.040 215.795,384.969 217.356,383.144 222.804 C 380.904 229.486,376.103 237.143,370.876 242.371 C 367.245 246.002,357.753 252.726,356.258 252.726 C 355.862 252.726,355.440 208.681,355.320 154.849 L 355.102 56.971 336.628 56.740 C 326.467 56.613,317.889 56.774,317.566 57.097 M132.334 76.444 C 132.107 77.042,132.019 144.996,132.140 227.454 L 132.360 377.376 151.208 377.376 L 170.055 377.376 170.055 226.597 L 170.055 75.818 151.401 75.587 C 136.943 75.408,132.655 75.601,132.334 76.444 " stroke="none" fill-rule="evenodd" fill="black"></path></svg>