<svg width="136mm" height="120mm" version="1.1" viewBox="0 0 600 529.4117647058824" xmlns="http://www.w3.org/2000/svg"><path d="M317.550 57.113 C 317.236 57.427,316.979 101.569,316.979 155.205 C 316.979 208.842,316.653 252.727,316.255 252.727 C 315.857 252.727,313.255 251.254,310.472 249.454 C 300.606 243.073,291.539 230.868,288.595 220.008 C 287.922 217.524,287.476 202.516,287.231 174.124 L 286.867 131.932 268.028 131.932 L 249.189 131.932 249.519 176.266 C 249.884 225.276,249.918 225.608,256.011 240.541 C 266.023 265.077,288.697 285.217,313.277 291.406 L 316.979 292.338 316.979 344.495 L 316.979 396.652 336.255 396.652 L 355.531 396.652 355.531 344.534 L 355.531 292.416 360.885 290.929 C 385.361 284.132,407.296 264.274,416.802 240.304 C 422.790 225.207,422.628 226.867,422.984 177.123 L 423.307 131.932 404.411 131.932 L 385.515 131.932 385.509 171.554 C 385.505 194.658,385.134 213.448,384.618 216.624 C 382.861 227.456,375.864 238.987,366.668 246.209 C 362.405 249.557,357.218 252.727,356.001 252.727 C 355.742 252.727,355.531 208.585,355.531 154.634 L 355.531 56.542 336.826 56.542 C 326.538 56.542,317.864 56.799,317.550 57.113 M132.334 76.444 C 132.107 77.042,132.019 144.996,132.140 227.454 L 132.360 377.376 151.208 377.376 L 170.055 377.376 170.055 226.597 L 170.055 75.818 151.401 75.587 C 136.943 75.408,132.655 75.601,132.334 76.444 " stroke="none" fill-rule="evenodd" fill="black"></path></svg>