<svg width="136mm" height="120mm" version="1.1" viewBox="0 0 600 529.4117647058824" xmlns="http://www.w3.org/2000/svg"><path d="M317.836 154.634 C 317.836 208.585,317.601 252.727,317.313 252.727 C 317.026 252.727,314.543 251.529,311.797 250.065 C 304.687 246.275,296.260 237.242,292.553 229.435 C 287.278 218.328,287.026 215.693,287.009 171.554 L 286.995 131.932 268.086 131.932 L 249.177 131.932 249.501 176.266 L 249.825 220.600 252.132 229.167 C 259.950 258.201,281.536 281.101,309.754 290.298 L 317.407 292.792 317.628 344.722 L 317.849 396.652 336.690 396.652 L 355.531 396.652 355.531 344.521 L 355.531 292.389 361.197 290.855 C 374.051 287.376,390.793 276.987,399.947 266.808 C 412.050 253.352,419.927 236.794,422.283 219.860 C 422.841 215.846,423.210 197.032,423.210 172.563 L 423.210 131.932 404.407 131.932 L 385.603 131.932 385.345 174.553 L 385.087 217.173 382.778 223.497 C 380.014 231.065,376.125 237.130,370.451 242.722 C 366.801 246.320,357.586 252.727,356.061 252.727 C 355.769 252.727,355.531 208.585,355.531 154.634 L 355.531 56.542 336.683 56.542 L 317.836 56.542 317.836 154.634 M132.788 226.597 L 132.788 377.805 151.636 377.805 L 170.483 377.805 170.483 226.597 L 170.483 75.390 151.636 75.390 L 132.788 75.390 132.788 226.597 " stroke="none" fill-rule="evenodd" fill="black"></path></svg>