<svg width="136mm" height="120mm" version="1.1" viewBox="0 0 600 529.4117647058824" xmlns="http://www.w3.org/2000/svg"><path d="M197.152 52.109 C 196.747 52.898,180.891 100.191,161.916 157.204 C 142.942 214.218,127.226 261.199,126.993 261.606 C 126.760 262.013,113.026 248.808,96.474 232.261 L 66.379 202.175 53.115 215.460 L 39.851 228.746 76.677 265.579 L 113.503 302.413 98.817 346.489 L 84.131 390.566 101.969 396.519 L 119.807 402.472 124.895 387.783 C 127.694 379.703,133.019 363.935,136.728 352.742 L 143.473 332.391 159.547 348.449 L 175.621 364.506 188.044 352.105 C 194.877 345.284,200.468 339.904,200.468 340.148 C 200.468 340.392,198.160 347.492,195.339 355.925 C 192.518 364.359,190.344 371.393,190.508 371.558 C 190.673 371.722,198.688 374.490,208.321 377.709 L 225.835 383.562 245.047 325.881 C 255.614 294.157,264.508 268.478,264.811 268.816 C 265.115 269.155,273.913 295.131,284.363 326.540 L 303.363 383.647 317.025 379.074 L 330.686 374.502 344.348 379.074 L 358.009 383.647 377.009 326.540 C 387.459 295.131,396.258 269.155,396.561 268.816 C 396.864 268.478,405.758 294.156,416.324 325.879 L 435.536 383.557 453.361 377.609 C 463.164 374.337,471.185 371.380,471.185 371.038 C 471.185 370.695,459.041 334.057,444.199 289.619 C 429.357 245.181,417.213 208.192,417.213 207.422 C 417.213 206.651,425.109 182.340,434.759 153.397 C 444.410 124.454,452.174 100.641,452.012 100.479 C 451.850 100.318,443.838 97.552,434.208 94.334 L 416.698 88.482 373.909 216.866 C 350.376 287.477,330.925 345.250,330.685 345.250 C 330.446 345.250,319.939 314.309,307.337 276.493 L 284.424 207.736 302.331 154.031 L 320.238 100.325 302.375 94.364 L 284.513 88.403 243.230 212.329 C 220.524 280.488,201.791 336.431,201.601 336.646 C 201.411 336.862,191.247 327.030,179.015 314.798 L 156.775 292.558 194.899 178.193 C 215.868 115.292,232.903 63.467,232.756 63.026 C 232.609 62.585,224.704 59.625,215.189 56.449 C 199.728 51.289,197.810 50.827,197.152 52.109 M94.087 75.547 L 76.374 81.487 93.479 132.159 C 102.886 160.029,110.691 182.939,110.823 183.071 C 111.007 183.256,140.386 173.685,145.371 171.816 C 146.057 171.559,140.929 155.026,129.629 121.056 C 120.411 93.348,112.628 70.437,112.334 70.142 C 112.040 69.848,103.829 72.280,94.087 75.547 " stroke="none" fill-rule="evenodd" fill="black"></path></svg>