<svg width="136mm" height="120mm" version="1.1" viewBox="0 0 600 529.4117647058824" xmlns="http://www.w3.org/2000/svg"><path d="M230.825 42.005 C 210.988 43.638,192.139 52.688,178.358 67.196 C 170.936 75.009,167.956 79.353,163.201 89.290 C 157.134 101.971,155.521 109.423,155.543 124.650 C 155.560 135.282,155.900 138.758,157.515 144.782 C 165.454 174.388,187.742 196.972,216.885 204.940 C 223.743 206.815,225.340 206.893,257.010 206.893 C 288.784 206.893,290.258 206.821,297.218 204.919 C 320.954 198.433,339.546 182.964,350.446 160.631 C 356.638 147.944,358.506 139.470,358.470 124.222 C 358.436 109.556,356.766 101.926,350.841 89.372 C 346.214 79.568,343.118 75.044,335.662 67.196 C 321.416 52.198,303.481 43.792,281.854 41.976 C 270.651 41.035,242.412 41.051,230.825 42.005 M238.163 92.524 L 238.163 105.374 217.547 105.374 L 196.931 105.374 198.866 101.931 C 205.560 90.022,221.814 79.762,234.093 79.695 L 238.163 79.673 238.163 92.524 M287.910 81.040 C 298.727 84.217,310.336 93.062,315.106 101.759 L 317.089 105.374 296.473 105.374 L 275.857 105.374 275.857 92.524 L 275.857 79.673 279.557 79.673 C 281.592 79.673,285.351 80.288,287.910 81.040 M238.163 156.776 L 238.163 169.627 234.463 169.627 C 222.309 169.627,205.195 158.994,198.914 147.540 L 196.931 143.926 217.547 143.926 L 238.163 143.926 238.163 156.776 M315.106 147.540 C 308.825 158.994,291.711 169.627,279.557 169.627 L 275.857 169.627 275.857 156.776 L 275.857 143.926 296.473 143.926 L 317.089 143.926 315.106 147.540 M106.231 238.163 L 106.231 257.010 128.506 257.010 L 150.781 257.010 118.202 322.163 C 100.284 357.998,85.794 387.586,86.003 387.915 C 86.597 388.851,118.965 404.767,119.379 404.327 C 119.582 404.111,127.148 389.126,136.192 371.027 L 152.636 338.119 188.546 374.021 L 224.456 409.924 237.945 396.434 L 251.435 382.945 211.027 342.466 L 170.620 301.987 181.896 279.498 L 193.171 257.010 258.931 257.010 L 324.692 257.010 292.136 322.117 C 274.230 357.926,259.580 387.519,259.580 387.879 C 259.580 388.239,267.024 392.250,276.122 396.792 L 292.665 405.050 309.311 371.723 C 318.466 353.394,326.152 338.397,326.390 338.397 C 326.628 338.397,342.921 354.490,362.595 374.160 L 398.366 409.924 411.855 396.434 L 425.345 382.945 384.797 342.390 L 344.249 301.835 355.461 279.423 L 366.674 257.010 387.232 257.010 L 407.789 257.010 407.789 238.163 L 407.789 219.315 257.010 219.315 L 106.231 219.315 106.231 238.163 " stroke="none" fill-rule="evenodd" fill="black"></path></svg>