<svg width="136mm" height="120mm" version="1.1" viewBox="0 0 600 529.4117647058824" xmlns="http://www.w3.org/2000/svg"><path d="M223.366 42.836 C 197.092 47.457,172.939 66.594,162.104 91.375 C 156.999 103.051,155.563 110.357,155.563 124.650 C 155.563 140.119,157.205 147.476,163.595 160.631 C 174.446 182.974,193.084 198.409,217.173 205.003 C 232.793 209.279,281.227 209.279,296.847 205.003 C 327.149 196.709,348.269 174.944,356.947 143.069 C 359.302 134.418,359.081 114.108,356.527 104.654 C 348.460 74.780,327.948 53.877,297.282 44.277 C 292.147 42.669,289.167 42.515,259.580 42.324 C 241.911 42.210,225.614 42.440,223.366 42.836 M238.163 92.952 L 238.163 106.231 217.602 106.231 C 206.229 106.231,197.041 105.892,197.041 105.472 C 197.041 103.681,204.374 93.951,208.334 90.486 C 215.529 84.192,225.814 79.906,234.093 79.750 L 238.163 79.673 238.163 92.952 M287.423 80.836 C 298.070 83.675,307.377 90.333,313.488 99.485 C 315.408 102.360,316.979 105.054,316.979 105.472 C 316.979 105.892,307.791 106.231,296.418 106.231 L 275.857 106.231 275.857 92.952 L 275.857 79.673 279.498 79.683 C 281.501 79.689,285.067 80.207,287.423 80.836 M238.163 156.776 L 238.163 169.627 234.522 169.616 C 229.677 169.603,222.770 167.701,216.858 164.751 C 211.320 161.989,201.842 152.903,198.914 147.550 L 196.931 143.926 217.547 143.926 L 238.163 143.926 238.163 156.776 M315.106 147.556 C 312.241 152.803,302.665 161.955,297.115 164.751 C 291.277 167.693,284.360 169.603,279.498 169.616 L 275.857 169.627 275.857 156.776 L 275.857 143.926 296.473 143.926 L 317.089 143.926 315.106 147.556 M106.231 238.163 L 106.231 257.010 128.506 257.010 L 150.781 257.010 118.226 322.117 C 100.320 357.926,85.670 387.519,85.670 387.879 C 85.670 388.239,93.187 392.287,102.375 396.873 L 119.080 405.213 135.858 371.666 L 152.636 338.119 188.546 374.021 L 224.456 409.924 237.945 396.434 L 251.435 382.945 211.027 342.466 L 170.620 301.987 181.896 279.498 L 193.171 257.010 258.931 257.010 L 324.692 257.010 292.136 322.117 C 274.230 357.926,259.580 387.519,259.580 387.879 C 259.580 388.239,267.024 392.250,276.122 396.792 L 292.665 405.050 309.311 371.723 C 318.466 353.394,326.152 338.397,326.390 338.397 C 326.628 338.397,342.921 354.490,362.595 374.160 L 398.366 409.924 411.855 396.434 L 425.345 382.945 384.797 342.390 L 344.249 301.835 355.461 279.423 L 366.674 257.010 387.232 257.010 L 407.789 257.010 407.789 238.163 L 407.789 219.315 257.010 219.315 L 106.231 219.315 106.231 238.163 " stroke="none" fill-rule="evenodd" fill="black"></path></svg>