<svg width="136mm" height="120mm" version="1.1" viewBox="0 0 600 529.4117647058824" xmlns="http://www.w3.org/2000/svg"><path d="M222.871 42.909 C 217.605 43.820,206.772 47.404,201.753 49.896 C 173.359 63.989,155.085 93.261,155.085 124.650 C 155.085 162.120,181.154 195.754,217.473 205.143 C 233.494 209.285,281.514 209.201,296.847 205.003 C 311.501 200.992,323.559 194.009,334.165 183.393 C 342.901 174.649,348.235 166.807,352.561 156.348 C 365.636 124.738,358.081 88.503,333.525 65.042 C 323.198 55.176,312.486 49.040,297.275 44.275 C 292.148 42.670,289.158 42.515,259.580 42.324 C 241.911 42.209,225.391 42.473,222.871 42.909 M238.163 92.952 L 238.163 106.231 217.602 106.231 C 206.229 106.231,197.041 105.892,197.041 105.472 C 197.041 103.681,204.374 93.951,208.334 90.486 C 215.529 84.192,225.814 79.906,234.093 79.750 L 238.163 79.673 238.163 92.952 M287.423 80.836 C 298.070 83.675,307.377 90.333,313.488 99.485 C 315.408 102.360,316.979 105.054,316.979 105.472 C 316.979 105.892,307.791 106.231,296.418 106.231 L 275.857 106.231 275.857 92.952 L 275.857 79.673 279.498 79.683 C 281.501 79.689,285.067 80.207,287.423 80.836 M238.163 156.776 L 238.163 169.627 234.522 169.616 C 229.677 169.603,222.770 167.701,216.858 164.751 C 211.320 161.989,201.842 152.903,198.914 147.550 L 196.931 143.926 217.547 143.926 L 238.163 143.926 238.163 156.776 M315.106 147.550 C 312.178 152.903,302.700 161.989,297.162 164.751 C 291.250 167.701,284.343 169.603,279.498 169.616 L 275.857 169.627 275.857 156.776 L 275.857 143.926 296.473 143.926 L 317.089 143.926 315.106 147.550 M105.572 237.948 L 105.802 256.582 128.285 256.810 L 150.767 257.038 118.219 322.131 C 100.317 357.932,85.670 387.519,85.670 387.879 C 85.670 388.239,93.187 392.287,102.375 396.873 L 119.080 405.213 135.858 371.666 L 152.636 338.119 188.546 374.021 L 224.456 409.924 237.945 396.434 L 251.435 382.945 211.027 342.466 L 170.620 301.987 181.896 279.498 L 193.171 257.010 258.931 257.010 L 324.692 257.010 292.136 322.117 C 274.230 357.926,259.580 387.519,259.580 387.879 C 259.580 388.239,267.024 392.250,276.122 396.792 L 292.665 405.050 309.311 371.723 C 318.466 353.394,326.152 338.397,326.390 338.397 C 326.628 338.397,342.921 354.490,362.595 374.160 L 398.366 409.924 411.855 396.434 L 425.345 382.945 384.938 342.466 L 344.530 301.987 355.798 279.513 L 367.066 257.040 387.642 256.811 L 408.218 256.582 408.448 237.948 L 408.679 219.315 257.010 219.315 L 105.341 219.315 105.572 237.948 " stroke="none" fill-rule="evenodd" fill="black"></path></svg>