<svg width="136mm" height="120mm" version="1.1" viewBox="0 0 600 529.4117647058824" xmlns="http://www.w3.org/2000/svg"><path d="M209.975 49.742 C 168.822 53.607,134.750 82.653,124.116 122.936 C 116.590 151.446,122.948 182.729,141.134 206.670 C 157.937 228.791,182.580 242.268,211.177 244.978 C 223.395 246.136,290.625 246.136,302.843 244.978 C 331.440 242.268,356.083 228.791,372.886 206.670 C 398.283 173.237,399.739 127.811,376.532 92.933 C 364.888 75.434,346.193 61.176,325.950 54.357 C 312.183 49.719,309.716 49.522,262.150 49.243 C 237.884 49.102,214.405 49.326,209.975 49.742 M238.163 147.912 L 238.163 208.441 224.241 207.925 C 200.522 207.046,190.348 203.146,176.838 189.759 C 170.472 183.451,168.410 180.725,165.495 174.767 C 160.701 164.965,159.284 158.984,159.203 148.209 C 159.114 136.446,160.356 130.672,165.091 120.822 C 168.434 113.867,170.104 111.603,176.804 104.946 C 190.650 91.188,200.529 87.507,223.813 87.431 L 238.163 87.383 238.163 147.912 M310.460 89.073 C 321.043 91.779,328.295 96.082,337.216 104.946 C 343.916 111.603,345.586 113.867,348.929 120.822 C 353.664 130.672,354.906 136.446,354.817 148.209 C 354.736 158.984,353.319 164.965,348.525 174.767 C 345.610 180.725,343.548 183.451,337.182 189.759 C 323.672 203.146,313.498 207.046,289.779 207.925 L 275.857 208.441 275.857 147.912 L 275.857 87.383 289.856 87.383 C 300.984 87.383,305.209 87.730,310.460 89.073 M121.223 311.839 C 101.669 350.945,85.670 383.325,85.670 383.795 C 85.670 384.504,117.279 400.936,118.642 400.936 C 118.881 400.936,126.628 385.838,135.856 367.385 L 152.636 333.835 188.767 369.959 L 224.898 406.082 238.163 392.797 L 251.428 379.511 210.883 338.959 L 170.338 298.408 180.263 278.573 C 185.721 267.663,190.187 258.441,190.187 258.078 C 190.187 257.715,182.670 253.665,173.481 249.078 L 156.775 240.738 121.223 311.839 M294.785 312.535 L 258.885 384.331 275.516 392.633 C 284.662 397.200,292.335 400.936,292.567 400.936 C 292.798 400.936,300.538 385.838,309.766 367.385 L 326.546 333.835 362.677 369.959 L 398.808 406.082 412.073 392.797 L 425.338 379.511 384.793 338.959 L 344.248 298.408 354.173 278.573 C 359.631 267.663,364.098 258.441,364.098 258.078 C 364.098 257.715,356.580 253.665,347.392 249.078 L 330.686 240.738 294.785 312.535 " stroke="none" fill-rule="evenodd" fill="black"></path></svg>