<svg width="136mm" height="120mm" version="1.1" viewBox="0 0 600 529.4117647058824" xmlns="http://www.w3.org/2000/svg"><path d="M90.810 226.597 L 90.810 415.500 109.658 415.500 L 128.505 415.500 128.505 365.383 C 128.505 337.818,128.794 315.266,129.147 315.266 C 129.499 315.266,135.114 317.040,141.622 319.210 C 148.131 321.379,153.639 322.972,153.861 322.750 C 154.921 321.690,176.384 255.723,175.830 255.226 C 175.122 254.592,141.131 243.215,140.888 243.531 C 140.803 243.641,138.012 251.827,134.687 261.722 L 128.640 279.713 128.573 226.608 L 128.505 173.504 140.930 185.906 L 153.354 198.309 175.489 176.186 L 197.624 154.064 226.884 168.699 L 256.144 183.334 264.288 167.065 C 268.766 158.117,272.431 150.408,272.431 149.934 C 272.431 149.460,261.961 143.834,249.164 137.433 L 225.898 125.793 242.516 109.160 L 259.133 92.526 245.872 79.244 L 232.611 65.962 211.535 87.024 L 190.460 108.087 168.056 96.879 C 155.734 90.714,145.355 85.670,144.992 85.670 C 144.629 85.670,140.793 92.706,136.468 101.305 L 128.603 116.940 128.554 77.317 L 128.505 37.695 109.658 37.695 L 90.810 37.695 90.810 226.597 M314.841 93.376 L 270.302 137.921 283.567 151.207 L 296.832 164.492 327.895 133.438 L 358.959 102.383 403.299 146.717 L 447.639 191.051 461.122 177.549 L 474.604 164.046 416.992 106.439 L 359.380 48.831 314.841 93.376 M37.695 226.597 L 37.695 358.957 56.542 358.957 L 75.390 358.957 75.390 226.597 L 75.390 94.237 56.542 94.237 L 37.695 94.237 37.695 226.597 M145.648 128.081 C 154.595 132.560,161.916 136.322,161.916 136.442 C 161.916 136.562,154.399 144.170,145.211 153.349 L 128.505 170.038 128.505 144.988 C 128.505 131.211,128.702 119.938,128.942 119.938 C 129.182 119.938,136.700 123.602,145.648 128.081 M275.857 236.449 L 275.857 302.415 294.705 302.415 L 313.552 302.415 313.552 274.144 L 313.552 245.873 317.407 245.873 L 321.262 245.873 321.262 292.991 L 321.262 340.110 340.110 340.110 L 358.957 340.110 358.957 292.991 L 358.957 245.873 362.812 245.873 L 366.668 245.873 366.668 292.991 L 366.668 340.110 385.515 340.110 L 404.362 340.110 404.362 292.991 L 404.362 245.873 408.986 245.873 C 413.251 245.873,413.826 246.120,416.417 249.071 C 420.290 253.482,425.425 264.796,427.456 273.393 C 432.627 295.279,431.213 323.404,424.035 341.475 C 420.991 349.138,419.602 351.488,415.601 355.745 C 412.686 358.846,412.380 358.957,406.759 358.957 L 400.936 358.957 400.936 377.805 L 400.936 396.652 408.003 396.639 C 422.438 396.614,432.716 392.376,442.486 382.422 C 458.851 365.747,468.615 335.981,468.615 302.766 C 468.615 258.600,453.120 223.504,428.409 211.703 L 421.925 208.606 367.953 208.178 L 313.981 207.750 313.750 189.117 L 313.519 170.483 294.688 170.483 L 275.857 170.483 275.857 236.449 M177.337 268.159 L 177.337 346.988 172.205 344.398 L 167.073 341.807 158.926 358.084 C 154.445 367.036,150.779 374.749,150.779 375.224 C 150.779 376.074,213.351 407.789,215.027 407.789 C 215.597 407.789,215.911 383.790,215.956 336.897 L 216.024 266.005 225.497 294.276 C 230.707 309.826,235.084 322.681,235.222 322.845 C 235.760 323.481,270.717 311.391,270.717 310.570 C 270.717 309.291,249.188 244.702,248.511 243.949 C 248.195 243.598,241.027 245.622,232.582 248.447 C 224.137 251.272,216.926 253.583,216.558 253.583 C 216.190 253.583,215.888 239.126,215.888 221.457 L 215.888 189.331 196.613 189.331 L 177.337 189.331 177.337 268.159 " stroke="none" fill-rule="evenodd" fill="black"></path></svg>