<svg width="136mm" height="120mm" version="1.1" viewBox="0 0 600 529.4117647058824" xmlns="http://www.w3.org/2000/svg"><path d="M90.810 226.597 L 90.810 415.500 109.658 415.500 L 128.505 415.500 128.505 365.383 C 128.505 324.998,128.720 315.266,129.612 315.266 C 130.220 315.266,135.878 316.996,142.185 319.112 C 148.492 321.227,153.791 322.820,153.959 322.652 C 154.954 321.657,176.351 255.693,175.830 255.226 C 175.122 254.592,141.131 243.215,140.888 243.531 C 140.803 243.641,138.012 251.827,134.687 261.722 L 128.640 279.713 128.573 226.608 L 128.505 173.504 140.930 185.906 L 153.354 198.309 175.623 176.052 L 197.892 153.795 226.982 168.320 C 242.981 176.308,256.239 182.665,256.445 182.447 C 257.272 181.564,272.431 150.735,272.431 149.935 C 272.431 149.460,261.961 143.834,249.164 137.433 L 225.898 125.793 242.516 109.160 L 259.133 92.526 245.872 79.244 L 232.611 65.962 211.535 87.024 L 190.460 108.087 168.056 96.879 C 155.734 90.714,145.355 85.670,144.992 85.670 C 144.629 85.670,140.793 92.706,136.468 101.305 L 128.603 116.940 128.554 77.317 L 128.505 37.695 109.658 37.695 L 90.810 37.695 90.810 226.597 M314.841 93.376 L 270.302 137.921 283.567 151.207 L 296.832 164.492 327.895 133.438 L 358.959 102.383 403.299 146.717 L 447.639 191.051 460.697 177.973 C 467.879 170.780,473.755 164.513,473.755 164.046 C 473.755 163.579,448.021 137.464,416.568 106.014 L 359.380 48.831 314.841 93.376 M37.695 226.597 L 37.695 358.957 56.542 358.957 L 75.390 358.957 75.390 226.597 L 75.390 94.237 56.542 94.237 L 37.695 94.237 37.695 226.597 M161.916 136.213 C 161.916 136.459,154.399 144.170,145.211 153.349 L 128.505 170.038 128.505 144.563 L 128.505 119.087 145.211 127.427 C 154.399 132.014,161.916 135.968,161.916 136.213 M275.857 236.021 L 275.857 302.415 294.705 302.415 L 313.552 302.415 313.552 274.144 L 313.552 245.873 317.407 245.873 L 321.262 245.873 321.262 292.991 L 321.262 340.110 340.110 340.110 L 358.957 340.110 358.957 292.991 L 358.957 245.873 362.812 245.873 L 366.668 245.873 366.668 292.991 L 366.668 340.110 385.515 340.110 L 404.362 340.110 404.362 292.991 L 404.362 245.873 408.986 245.873 C 413.244 245.873,413.828 246.123,416.390 249.041 C 423.074 256.654,428.529 273.579,430.219 291.948 C 432.462 316.322,426.233 344.011,415.946 355.398 C 412.767 358.917,412.662 358.957,406.833 358.957 L 400.936 358.957 400.936 377.805 L 400.936 396.652 407.672 396.652 C 416.980 396.652,422.598 395.451,429.795 391.921 C 446.059 383.945,458.529 364.152,464.636 336.617 C 469.973 312.554,469.695 287.632,463.825 263.979 C 455.928 232.160,438.325 211.292,416.785 208.213 C 413.359 207.723,389.940 207.348,362.170 207.338 L 313.552 207.321 313.552 188.474 L 313.552 169.627 294.705 169.627 L 275.857 169.627 275.857 236.021 M177.924 189.029 C 177.601 189.352,177.337 225.025,177.337 268.302 L 177.337 346.988 172.365 344.478 L 167.392 341.968 159.040 358.698 C 154.446 367.900,150.805 375.535,150.948 375.665 C 151.460 376.131,215.032 407.789,215.456 407.789 C 215.694 407.789,215.919 375.888,215.956 336.897 L 216.024 266.005 225.497 294.276 C 230.707 309.826,235.084 322.681,235.222 322.845 C 235.760 323.481,270.717 311.391,270.717 310.570 C 270.717 309.291,249.188 244.702,248.511 243.949 C 248.195 243.598,241.027 245.622,232.582 248.447 C 224.137 251.272,216.930 253.583,216.568 253.583 C 216.206 253.583,215.808 239.030,215.685 221.243 L 215.460 188.902 196.986 188.672 C 186.825 188.545,178.247 188.706,177.924 189.029 " stroke="none" fill-rule="evenodd" fill="black"></path></svg>