<svg width="136mm" height="120mm" version="1.1" viewBox="0 0 600 529.4117647058824" xmlns="http://www.w3.org/2000/svg"><path d="M96.591 153.779 C 65.612 215.740,40.265 266.626,40.265 266.859 C 40.265 267.351,72.481 283.568,73.460 283.568 C 73.822 283.568,84.136 263.520,96.380 239.017 L 118.642 194.466 165.980 241.798 L 213.318 289.130 226.808 275.640 L 240.298 262.149 188.474 210.320 L 136.650 158.491 161.705 108.371 C 175.486 80.805,186.761 58.062,186.761 57.830 C 186.761 57.339,154.545 41.122,153.571 41.122 C 153.212 41.122,127.571 91.817,96.591 153.779 M322.978 154.202 L 266.436 267.283 282.704 275.425 C 291.651 279.904,299.360 283.568,299.835 283.568 C 300.310 283.568,310.755 263.458,323.046 238.880 L 345.393 194.191 392.865 241.657 L 440.336 289.123 453.623 275.857 L 466.909 262.592 415.004 210.681 L 363.098 158.770 388.361 108.248 L 413.625 57.726 396.994 49.424 C 387.847 44.858,380.174 41.122,379.941 41.122 C 379.709 41.122,354.076 92.008,322.978 154.202 M113.658 298.700 C 113.343 299.016,113.084 307.498,113.084 317.550 L 113.084 335.826 257.027 335.826 L 400.969 335.826 400.738 317.193 L 400.507 298.560 257.369 298.343 C 178.644 298.224,113.974 298.385,113.658 298.700 M75.587 393.011 L 75.818 411.644 257.010 411.644 L 438.202 411.644 438.433 393.011 L 438.664 374.378 257.010 374.378 L 75.356 374.378 75.587 393.011 " stroke="none" fill-rule="evenodd" fill="black"></path></svg>