<svg width="136mm" height="120mm" version="1.1" viewBox="0 0 600 529.4117647058824" xmlns="http://www.w3.org/2000/svg"><path d="M96.402 154.160 C 65.319 216.331,40.069 267.369,40.290 267.577 C 40.512 267.785,48.114 271.662,57.184 276.194 L 73.674 284.432 96.160 239.451 L 118.646 194.470 165.982 241.800 L 213.318 289.130 226.811 275.606 L 240.304 262.081 188.425 210.380 L 136.546 158.680 161.606 108.682 C 175.389 81.183,186.688 58.397,186.714 58.046 C 186.760 57.418,154.845 41.122,153.569 41.122 C 153.210 41.122,127.484 91.989,96.402 154.160 M322.978 154.202 L 266.436 267.283 283.399 275.773 L 300.362 284.262 322.876 239.225 L 345.390 194.188 392.863 241.655 L 440.336 289.123 453.623 275.857 L 466.909 262.592 415.004 210.681 L 363.098 158.770 388.429 108.113 L 413.761 57.456 396.939 49.289 C 387.687 44.797,379.983 41.122,379.818 41.122 C 379.654 41.122,354.076 92.008,322.978 154.202 M113.084 316.979 L 113.084 335.826 257.010 335.826 L 400.936 335.826 400.936 316.979 L 400.936 298.132 257.010 298.132 L 113.084 298.132 113.084 316.979 M75.587 393.011 L 75.818 411.644 257.010 411.644 L 438.202 411.644 438.433 393.011 L 438.664 374.378 257.010 374.378 L 75.356 374.378 75.587 393.011 " stroke="none" fill-rule="evenodd" fill="black"></path></svg>