<svg width="136mm" height="120mm" version="1.1" viewBox="0 0 600 529.4117647058824" xmlns="http://www.w3.org/2000/svg"><path d="M209.975 49.742 C 168.822 53.607,134.750 82.653,124.116 122.936 C 116.590 151.446,122.948 182.729,141.134 206.670 C 157.937 228.791,182.580 242.268,211.177 244.978 C 223.395 246.136,290.625 246.136,302.843 244.978 C 331.440 242.268,356.083 228.791,372.886 206.670 C 398.283 173.237,399.739 127.811,376.532 92.933 C 364.888 75.434,346.193 61.176,325.950 54.357 C 312.183 49.719,309.716 49.522,262.150 49.243 C 237.884 49.102,214.405 49.326,209.975 49.742 M275.857 147.781 L 275.857 208.178 257.010 208.178 L 238.163 208.178 238.163 147.781 L 238.163 87.383 257.010 87.383 L 275.857 87.383 275.857 147.781 M200.468 147.410 L 200.468 204.867 198.540 204.287 C 192.190 202.379,184.123 196.978,176.838 189.759 C 170.472 183.451,168.410 180.725,165.495 174.767 C 160.701 164.965,159.284 158.984,159.203 148.209 C 159.114 136.446,160.356 130.672,165.091 120.822 C 168.424 113.888,170.125 111.578,176.804 104.910 C 183.013 98.713,186.091 96.375,191.786 93.532 C 195.728 91.564,199.294 89.954,199.710 89.954 C 200.142 89.954,200.468 114.693,200.468 147.410 M323.404 94.094 C 327.635 96.272,331.702 99.467,337.216 104.946 C 343.916 111.603,345.586 113.867,348.929 120.822 C 353.664 130.672,354.906 136.446,354.817 148.209 C 354.736 158.984,353.319 164.965,348.525 174.767 C 342.599 186.881,326.986 200.829,315.480 204.287 L 313.552 204.867 313.552 147.352 L 313.552 89.838 315.480 90.422 C 316.540 90.743,320.106 92.396,323.404 94.094 M121.223 311.839 C 101.669 350.945,85.670 383.325,85.670 383.795 C 85.670 384.504,117.279 400.936,118.642 400.936 C 118.881 400.936,126.628 385.838,135.856 367.385 L 152.636 333.835 188.767 369.959 L 224.898 406.082 238.163 392.797 L 251.428 379.511 210.883 338.959 L 170.338 298.408 180.263 278.573 C 185.721 267.663,190.187 258.441,190.187 258.078 C 190.187 257.715,182.670 253.665,173.481 249.078 L 156.775 240.738 121.223 311.839 M294.785 312.535 L 258.885 384.331 275.516 392.633 C 284.662 397.200,292.335 400.936,292.567 400.936 C 292.798 400.936,300.538 385.838,309.766 367.385 L 326.546 333.835 362.677 369.959 L 398.808 406.082 412.073 392.797 L 425.338 379.511 384.793 338.959 L 344.248 298.408 354.173 278.573 C 359.631 267.663,364.098 258.441,364.098 258.078 C 364.098 257.715,356.580 253.665,347.392 249.078 L 330.686 240.738 294.785 312.535 " stroke="none" fill-rule="evenodd" fill="black"></path></svg>