<svg width="136mm" height="120mm" version="1.1" viewBox="0 0 600 529.4117647058824" xmlns="http://www.w3.org/2000/svg"><path d="M210.045 49.778 C 170.058 53.335,136.053 81.660,124.787 120.795 C 118.200 143.675,120.552 168.235,131.474 190.616 C 136.857 201.646,140.664 206.983,149.724 216.203 C 166.450 233.224,186.574 242.647,211.177 244.978 C 223.395 246.136,290.625 246.136,302.843 244.978 C 327.446 242.647,347.570 233.224,364.296 216.203 C 373.356 206.983,377.163 201.646,382.546 190.616 C 395.530 164.009,396.340 135.665,384.883 108.801 C 375.496 86.790,359.575 70.052,337.968 59.480 C 326.546 53.892,315.541 50.869,302.415 49.713 C 290.859 48.697,221.658 48.745,210.045 49.778 M275.857 147.781 L 275.857 208.178 257.010 208.178 L 238.163 208.178 238.163 147.781 L 238.163 87.383 257.010 87.383 L 275.857 87.383 275.857 147.781 M200.468 147.410 L 200.468 204.867 198.540 204.287 C 187.852 201.075,171.905 187.187,165.973 175.927 C 156.986 158.866,156.971 136.050,165.934 118.824 C 170.727 109.614,182.349 98.243,191.786 93.532 C 195.728 91.564,199.294 89.954,199.710 89.954 C 200.142 89.954,200.468 114.693,200.468 147.410 M323.404 94.094 C 331.705 98.367,343.689 110.375,348.086 118.824 C 357.049 136.050,357.034 158.866,348.047 175.927 C 342.115 187.187,326.168 201.075,315.480 204.287 L 313.552 204.867 313.552 147.352 L 313.552 89.838 315.480 90.422 C 316.540 90.743,320.106 92.396,323.404 94.094 M121.391 312.355 C 101.745 351.652,85.670 383.995,85.670 384.227 C 85.670 384.647,117.813 400.936,118.642 400.936 C 118.881 400.936,126.628 385.838,135.856 367.385 L 152.636 333.835 188.767 369.959 L 224.898 406.082 238.163 392.797 L 251.428 379.511 210.883 338.959 L 170.338 298.408 180.263 278.573 C 185.721 267.663,190.187 258.441,190.187 258.078 C 190.187 257.715,182.746 253.703,173.650 249.162 L 157.113 240.906 121.391 312.355 M294.785 312.535 L 258.885 384.331 275.516 392.633 C 284.662 397.200,292.335 400.936,292.567 400.936 C 292.798 400.936,300.538 385.838,309.766 367.385 L 326.546 333.835 362.677 369.959 L 398.808 406.082 412.073 392.797 L 425.338 379.511 384.793 338.959 L 344.248 298.408 354.173 278.573 C 359.631 267.663,364.098 258.441,364.098 258.078 C 364.098 257.715,356.580 253.665,347.392 249.078 L 330.686 240.738 294.785 312.535 " stroke="none" fill-rule="evenodd" fill="black"></path></svg>