<svg width="136mm" height="120mm" version="1.1" viewBox="0 0 600 529.4117647058824" xmlns="http://www.w3.org/2000/svg"><path d="M354.245 38.666 C 319.775 41.973,287.269 62.956,268.822 93.809 C 260.631 107.508,254.797 126.290,253.853 141.998 L 253.325 150.779 272.175 150.779 L 291.024 150.779 291.540 144.140 C 294.762 102.720,333.399 71.302,375.008 76.270 C 385.556 77.530,392.707 79.727,401.698 84.472 C 424.457 96.482,439.617 119.213,441.779 144.568 L 442.309 150.779 461.030 150.779 L 479.752 150.779 479.749 145.853 C 479.740 133.561,474.709 114.099,468.143 100.953 C 450.493 65.619,416.542 42.304,377.323 38.585 C 366.919 37.598,365.318 37.604,354.245 38.666 M120.795 75.390 L 120.795 101.947 83.100 101.947 L 45.405 101.947 45.405 120.795 L 45.405 139.642 83.100 139.642 L 120.795 139.642 120.795 160.850 L 120.795 182.057 87.393 282.254 C 69.022 337.362,54.276 382.706,54.624 383.019 C 54.972 383.332,62.582 386.006,71.534 388.961 C 80.487 391.916,88.253 394.496,88.792 394.693 C 89.417 394.922,98.708 368.209,114.386 321.105 C 127.924 280.434,139.275 246.853,139.612 246.481 C 139.949 246.109,151.332 279.070,164.907 319.729 C 178.482 360.388,189.727 393.912,189.896 394.227 C 190.226 394.843,223.533 384.034,224.766 382.911 C 225.172 382.541,210.426 337.003,191.997 281.715 L 158.489 181.192 158.489 160.417 L 158.489 139.642 196.613 139.642 L 234.736 139.642 234.736 120.795 L 234.736 101.947 196.613 101.947 L 158.489 101.947 158.489 75.390 L 158.489 48.832 139.642 48.832 L 120.795 48.832 120.795 75.390 M310.125 166.200 L 310.125 196.184 291.278 196.184 L 272.431 196.184 272.431 215.032 L 272.431 233.879 291.278 233.879 L 310.125 233.879 310.125 316.979 L 310.125 400.079 328.973 400.079 L 347.820 400.079 347.820 316.979 L 347.820 233.879 366.668 233.879 L 385.515 233.879 385.515 316.979 L 385.515 400.079 404.362 400.079 L 423.210 400.079 423.210 316.979 L 423.210 233.879 442.057 233.879 L 460.905 233.879 460.905 215.032 L 460.905 196.184 442.057 196.184 L 423.210 196.184 423.210 166.200 L 423.210 136.215 404.362 136.215 L 385.515 136.215 385.515 166.200 L 385.515 196.184 366.668 196.184 L 347.820 196.184 347.820 166.200 L 347.820 136.215 328.973 136.215 L 310.125 136.215 310.125 166.200 " stroke="none" fill-rule="evenodd" fill="black"></path></svg>