<svg width="136mm" height="120mm" version="1.1" viewBox="0 0 600 529.4117647058824" xmlns="http://www.w3.org/2000/svg"><path d="M353.817 38.622 C 318.952 42.463,287.193 63.083,268.822 93.809 C 260.631 107.508,254.797 126.290,253.853 141.998 L 253.325 150.779 272.175 150.779 L 291.024 150.779 291.540 144.140 C 293.148 123.462,304.355 103.370,321.262 90.851 C 351.873 68.185,393.483 71.259,420.113 98.153 C 432.413 110.574,439.911 126.750,441.677 144.675 L 442.279 150.779 461.142 150.779 L 480.006 150.779 479.511 143.283 C 476.541 98.252,446.317 58.995,403.077 44.007 C 389.157 39.183,368.865 36.964,353.817 38.622 M120.795 75.373 L 120.795 101.947 83.100 101.947 L 45.405 101.947 45.405 120.795 L 45.405 139.642 83.100 139.642 L 120.795 139.642 120.795 161.278 L 120.795 182.914 87.438 282.977 C 65.064 350.091,54.415 383.166,55.097 383.421 C 56.640 384.000,89.451 394.939,89.643 394.939 C 89.735 394.939,101.087 361.110,114.869 319.764 L 139.927 244.590 164.625 318.693 C 178.209 359.450,189.496 393.256,189.709 393.817 C 189.975 394.521,195.362 393.090,207.061 389.211 C 216.392 386.116,224.360 383.281,224.766 382.911 C 225.172 382.541,210.619 337.581,192.426 283.000 L 159.346 183.762 159.346 161.702 L 159.346 139.642 197.041 139.642 L 234.736 139.642 234.736 120.795 L 234.736 101.947 197.053 101.947 L 159.371 101.947 159.144 75.604 L 158.918 49.260 139.856 49.030 L 120.795 48.799 120.795 75.373 M310.125 166.200 L 310.125 196.184 291.278 196.184 L 272.431 196.184 272.431 215.032 L 272.431 233.879 291.278 233.879 L 310.125 233.879 310.125 316.979 L 310.125 400.079 328.973 400.079 L 347.820 400.079 347.820 316.979 L 347.820 233.879 366.668 233.879 L 385.515 233.879 385.515 316.979 L 385.515 400.079 404.362 400.079 L 423.210 400.079 423.210 316.979 L 423.210 233.879 442.057 233.879 L 460.905 233.879 460.905 215.032 L 460.905 196.184 442.057 196.184 L 423.210 196.184 423.210 166.200 L 423.210 136.215 404.362 136.215 L 385.515 136.215 385.515 166.200 L 385.515 196.184 366.668 196.184 L 347.820 196.184 347.820 166.200 L 347.820 136.215 328.973 136.215 L 310.125 136.215 310.125 166.200 " stroke="none" fill-rule="evenodd" fill="black"></path></svg>