<svg width="136mm" height="120mm" version="1.1" viewBox="0 0 600 529.4117647058824" xmlns="http://www.w3.org/2000/svg"><path d="M352.960 38.577 C 315.763 42.964,282.213 66.731,265.033 100.865 C 258.508 113.830,253.583 132.952,253.583 145.323 L 253.583 150.779 272.303 150.779 L 291.024 150.779 291.524 143.711 C 293.389 117.363,312.243 91.818,337.518 81.395 C 347.545 77.261,355.552 75.804,367.524 75.936 C 380.550 76.080,388.462 77.944,399.853 83.551 C 415.334 91.172,426.983 103.008,434.401 118.653 C 438.869 128.078,440.863 135.127,441.732 144.568 L 442.303 150.779 461.028 150.779 L 479.752 150.779 479.747 146.710 C 479.733 135.072,475.122 115.941,469.379 103.685 C 448.387 58.889,401.773 32.820,352.960 38.577 M121.366 49.403 C 121.052 49.717,120.795 61.668,120.795 75.961 L 120.795 101.947 83.100 101.947 L 45.405 101.947 45.405 120.795 L 45.405 139.642 83.100 139.642 L 120.795 139.642 120.795 161.278 L 120.795 182.914 87.438 282.977 C 65.064 350.091,54.415 383.166,55.097 383.421 C 56.640 384.000,89.451 394.939,89.643 394.939 C 89.735 394.939,101.087 361.110,114.869 319.763 L 139.928 244.588 164.932 319.549 C 186.988 385.670,190.128 394.480,191.561 394.252 C 194.913 393.718,224.459 383.632,224.937 382.858 C 225.211 382.415,210.373 336.849,191.963 281.600 L 158.489 181.149 158.489 160.396 L 158.489 139.642 196.613 139.642 L 234.736 139.642 234.736 120.795 L 234.736 101.947 196.613 101.947 L 158.489 101.947 158.489 75.390 L 158.489 48.832 140.213 48.832 C 130.161 48.832,121.680 49.089,121.366 49.403 M310.125 166.200 L 310.125 196.184 291.278 196.184 L 272.431 196.184 272.431 215.015 L 272.431 233.846 291.064 234.077 L 309.697 234.307 309.915 317.193 L 310.134 400.079 328.977 400.079 L 347.820 400.079 347.820 316.979 L 347.820 233.879 366.668 233.879 L 385.515 233.879 385.515 316.979 L 385.515 400.079 404.362 400.079 L 423.210 400.079 423.210 316.979 L 423.210 233.879 442.057 233.879 L 460.905 233.879 460.905 215.032 L 460.905 196.184 442.057 196.184 L 423.210 196.184 423.210 166.200 L 423.210 136.215 404.362 136.215 L 385.515 136.215 385.515 166.200 L 385.515 196.184 366.668 196.184 L 347.820 196.184 347.820 166.200 L 347.820 136.215 328.973 136.215 L 310.125 136.215 310.125 166.200 " stroke="none" fill-rule="evenodd" fill="black"></path></svg>