<svg width="136mm" height="120mm" version="1.1" viewBox="0 0 600 529.4117647058824" xmlns="http://www.w3.org/2000/svg"><path d="M143.926 164.180 C 143.926 246.111,143.978 248.859,145.632 254.348 C 149.328 266.605,158.251 277.674,171.768 286.769 C 187.290 297.213,209.339 304.808,233.451 308.016 C 245.610 309.634,273.481 309.880,284.853 308.470 C 331.046 302.742,364.418 283.845,374.979 257.435 L 377.376 251.441 377.610 165.557 L 377.845 79.673 358.977 79.673 L 340.110 79.673 340.110 107.944 L 340.110 136.215 260.865 136.215 L 181.620 136.215 181.620 107.944 L 181.620 79.673 162.773 79.673 L 143.926 79.673 143.926 164.180 M340.110 208.649 C 340.110 246.730,340.253 245.594,334.829 250.709 C 325.053 259.928,303.640 268.145,282.711 270.709 C 271.853 272.040,246.048 271.804,236.021 270.283 C 210.228 266.370,188.065 256.004,182.578 245.287 C 181.919 243.998,181.620 232.594,181.620 208.663 L 181.620 173.910 260.865 173.910 L 340.110 173.910 340.110 208.649 M86.724 358.743 L 86.955 377.376 257.010 377.376 L 427.065 377.376 427.296 358.743 L 427.527 340.110 257.010 340.110 L 86.493 340.110 86.724 358.743 " stroke="none" fill-rule="evenodd" fill="black"></path></svg>