<svg width="136mm" height="120mm" version="1.1" viewBox="0 0 600 529.4117647058824" xmlns="http://www.w3.org/2000/svg"><path d="M144.124 165.557 L 144.354 251.441 146.272 256.524 C 155.160 280.079,183.084 298.512,221.029 305.871 C 244.355 310.394,277.375 310.394,300.702 305.871 C 341.262 298.005,370.513 277.128,376.488 251.781 C 377.592 247.096,377.781 234.212,377.792 162.987 L 377.805 79.673 358.957 79.673 L 340.110 79.673 340.110 107.944 L 340.110 136.215 260.865 136.215 L 181.620 136.215 181.620 107.944 L 181.620 79.673 162.757 79.673 L 143.894 79.673 144.124 165.557 M340.110 208.906 L 340.110 243.902 337.537 247.455 C 330.846 256.691,312.090 265.342,289.789 269.478 C 279.772 271.336,252.830 272.079,241.964 270.798 C 218.757 268.061,198.816 261.105,188.626 252.191 C 181.267 245.753,181.620 247.947,181.620 208.649 L 181.620 173.910 260.865 173.910 L 340.110 173.910 340.110 208.906 M87.383 358.957 L 87.383 377.805 257.010 377.805 L 426.637 377.805 426.637 358.957 L 426.637 340.110 257.010 340.110 L 87.383 340.110 87.383 358.957 " stroke="none" fill-rule="evenodd" fill="black"></path></svg>