<svg width="136mm" height="120mm" version="1.1" viewBox="0 0 600 529.4117647058824" xmlns="http://www.w3.org/2000/svg"><path d="M143.926 163.847 C 143.926 244.288,143.999 248.275,145.571 253.773 C 147.953 262.104,151.226 267.560,158.452 275.246 C 174.398 292.208,200.563 303.641,233.451 308.016 C 245.610 309.634,273.481 309.880,284.853 308.470 C 334.414 302.325,369.722 280.481,376.488 251.781 C 377.592 247.096,377.781 234.212,377.792 162.987 L 377.805 79.673 358.957 79.673 L 340.110 79.673 340.110 107.944 L 340.110 136.215 260.865 136.215 L 181.620 136.215 181.620 107.944 L 181.620 79.673 162.773 79.673 L 143.926 79.673 143.926 163.847 M340.110 208.906 L 340.110 243.902 337.541 247.448 C 328.592 259.803,301.034 269.952,272.480 271.409 C 242.912 272.919,219.627 269.102,200.055 259.538 C 192.634 255.912,184.907 249.743,182.883 245.829 C 181.832 243.796,181.620 237.577,181.620 208.649 L 181.620 173.910 260.865 173.910 L 340.110 173.910 340.110 208.906 M86.724 358.743 L 86.955 377.376 257.010 377.376 L 427.065 377.376 427.296 358.743 L 427.527 340.110 257.010 340.110 L 86.493 340.110 86.724 358.743 " stroke="none" fill-rule="evenodd" fill="black"></path></svg>