<svg width="136mm" height="120mm" version="1.1" viewBox="0 0 600 529.4117647058824" xmlns="http://www.w3.org/2000/svg"><path d="M94.237 228.294 L 94.237 381.231 257.010 381.231 L 419.783 381.231 419.783 228.294 L 419.783 75.357 400.721 75.587 L 381.660 75.818 381.443 209.677 L 381.226 343.537 257.010 343.537 L 132.794 343.537 132.577 209.677 L 132.360 75.818 113.299 75.587 L 94.237 75.357 94.237 228.294 M271.994 105.378 L 248.002 129.370 226.182 122.084 C 214.180 118.077,203.902 114.798,203.342 114.798 C 202.468 114.798,191.044 147.052,191.044 149.519 C 191.044 150.004,196.152 152.080,202.395 154.133 C 208.639 156.186,214.688 158.218,215.839 158.648 C 217.829 159.391,217.071 160.290,200.424 176.952 L 182.917 194.475 196.403 207.962 L 209.889 221.448 234.203 197.145 L 258.517 172.842 280.948 180.319 C 293.285 184.431,303.558 187.616,303.777 187.397 C 304.370 186.805,315.266 153.995,315.266 152.803 C 315.266 152.239,309.244 149.771,301.885 147.319 L 288.505 142.859 305.945 125.403 L 323.386 107.947 310.127 94.667 C 302.834 87.363,296.669 81.386,296.427 81.386 C 296.184 81.386,285.190 92.183,271.994 105.378 M271.994 226.173 L 248.002 250.165 226.182 242.879 C 214.180 238.871,203.902 235.593,203.342 235.593 C 202.468 235.593,191.044 267.847,191.044 270.314 C 191.044 270.798,196.152 272.875,202.395 274.928 C 208.639 276.981,214.688 279.012,215.839 279.442 C 217.829 280.185,217.071 281.085,200.424 297.747 L 182.917 315.270 196.403 328.756 L 209.889 342.243 234.203 317.940 L 258.517 293.637 280.948 301.114 C 293.285 305.226,303.558 308.411,303.777 308.192 C 304.370 307.599,315.266 274.789,315.266 273.597 C 315.266 273.034,309.244 270.566,301.885 268.113 L 288.505 263.654 305.945 246.198 L 323.386 228.741 310.127 215.461 C 302.834 208.157,296.669 202.181,296.427 202.181 C 296.184 202.181,285.190 212.978,271.994 226.173 " stroke="none" fill-rule="evenodd" fill="black"></path></svg>