<svg width="136mm" height="120mm" version="1.1" viewBox="0 0 600 529.4117647058824" xmlns="http://www.w3.org/2000/svg"><path d="M214.818 57.021 C 205.983 61.474,198.754 65.312,198.754 65.548 C 198.754 65.785,203.959 76.382,210.320 89.097 C 216.681 101.812,221.885 112.411,221.885 112.650 C 221.885 112.889,188.924 113.084,148.637 113.084 L 75.390 113.084 75.390 131.932 L 75.390 150.779 257.010 150.779 L 438.630 150.779 438.630 131.932 L 438.630 113.084 351.674 113.084 L 264.717 113.084 248.661 80.958 C 239.830 63.289,232.217 48.852,231.743 48.877 C 231.269 48.903,223.652 52.567,214.818 57.021 M113.282 207.946 L 113.513 226.597 164.272 226.818 L 215.032 227.039 215.032 321.269 L 215.032 415.500 234.307 415.500 L 253.583 415.500 253.583 377.805 L 253.583 340.110 291.594 340.110 C 332.630 340.110,337.799 339.698,350.313 335.430 C 382.744 324.370,404.121 290.433,400.063 256.449 C 396.778 228.937,381.094 207.272,356.124 195.756 C 342.210 189.338,352.643 189.837,226.366 189.551 L 113.051 189.294 113.282 207.946 M336.024 228.274 C 347.380 231.720,357.690 242.030,361.136 253.386 C 362.734 258.654,362.710 270.011,361.088 275.357 C 356.988 288.873,344.937 299.242,330.686 301.514 C 327.495 302.023,309.849 302.405,289.350 302.409 L 253.583 302.415 253.583 264.720 L 253.583 227.025 292.777 227.035 C 324.358 227.042,332.758 227.283,336.024 228.274 " stroke="none" fill-rule="evenodd" fill="black"></path></svg>