<svg width="136mm" height="120mm" version="1.1" viewBox="0 0 600 529.4117647058824" xmlns="http://www.w3.org/2000/svg"><path d="M214.818 57.021 C 205.983 61.474,198.754 65.312,198.754 65.548 C 198.754 65.785,203.959 76.382,210.320 89.097 C 216.681 101.812,221.885 112.409,221.885 112.645 C 221.885 112.881,189.020 113.173,148.852 113.294 L 75.818 113.513 75.587 132.146 L 75.356 150.779 257.010 150.779 L 438.664 150.779 438.433 132.146 L 438.202 113.513 351.458 113.294 L 264.713 113.076 248.659 80.954 C 239.829 63.287,232.217 48.852,231.743 48.877 C 231.269 48.903,223.652 52.567,214.818 57.021 M113.282 207.946 L 113.513 226.597 164.272 226.818 L 215.032 227.039 215.032 321.269 L 215.032 415.500 234.307 415.500 L 253.583 415.500 253.583 377.805 L 253.583 340.110 291.594 340.110 C 321.537 340.110,331.169 339.837,336.975 338.825 C 362.295 334.409,382.493 319.099,393.234 296.179 C 410.680 258.949,394.863 214.512,357.804 196.645 C 342.396 189.216,353.962 189.840,226.366 189.551 L 113.051 189.294 113.282 207.946 M336.238 228.437 C 348.167 232.502,356.913 241.258,360.987 253.215 C 362.940 258.947,362.830 270.010,360.759 276.028 C 356.071 289.655,344.718 299.277,330.686 301.514 C 327.495 302.023,309.849 302.405,289.350 302.409 L 253.583 302.415 253.583 264.720 L 253.583 227.025 292.839 227.025 C 327.052 227.025,332.627 227.207,336.238 228.437 " stroke="none" fill-rule="evenodd" fill="black"></path></svg>