<svg width="136mm" height="120mm" version="1.1" viewBox="0 0 600 529.4117647058824" xmlns="http://www.w3.org/2000/svg"><path d="M214.817 57.021 L 198.753 65.119 210.748 89.097 L 222.743 113.075 149.281 113.294 L 75.818 113.513 75.587 132.146 L 75.356 150.779 257.010 150.779 L 438.664 150.779 438.433 132.146 L 438.202 113.513 351.458 113.294 L 264.713 113.076 248.659 80.954 C 239.829 63.287,232.217 48.852,231.743 48.877 C 231.269 48.903,223.652 52.567,214.817 57.021 M113.480 189.537 C 113.242 190.154,113.153 198.746,113.281 208.629 L 113.513 226.597 164.701 226.818 L 215.888 227.039 215.888 321.269 L 215.888 415.500 234.736 415.500 L 253.583 415.500 253.583 377.805 L 253.583 340.110 290.788 340.110 C 312.572 340.110,330.770 339.729,334.694 339.190 C 372.529 333.994,400.111 302.525,400.142 264.520 C 400.152 251.531,398.028 242.330,392.377 230.881 C 382.605 211.081,365.610 197.227,343.717 191.213 L 335.398 188.928 224.654 188.671 C 133.902 188.460,113.833 188.616,113.480 189.537 M341.041 230.215 C 355.361 237.222,362.973 250.362,362.219 266.772 C 361.915 273.390,361.436 275.456,359.057 280.403 C 355.781 287.217,349.328 294.050,342.885 297.528 C 334.637 301.982,330.286 302.384,290.207 302.400 L 253.583 302.415 253.583 264.689 L 253.583 226.963 294.491 227.208 L 335.398 227.454 341.041 230.215 " stroke="none" fill-rule="evenodd" fill="black"></path></svg>