<svg width="136mm" height="120mm" version="1.1" viewBox="0 0 600 529.4117647058824" xmlns="http://www.w3.org/2000/svg"><path d="M105.945 57.113 C 105.631 57.427,105.374 65.903,105.374 75.948 L 105.374 94.212 131.718 94.439 L 158.061 94.665 146.496 100.545 C 140.135 103.779,134.813 106.531,134.669 106.660 C 134.526 106.789,142.023 122.130,151.330 140.751 L 168.251 174.606 185.216 166.115 L 202.182 157.624 186.330 125.931 L 170.479 94.237 202.393 94.282 L 234.307 94.327 222.314 100.376 C 215.717 103.703,210.201 106.532,210.057 106.663 C 209.497 107.167,243.355 173.910,244.170 173.910 C 244.645 173.910,252.354 170.246,261.302 165.767 L 277.571 157.624 261.720 125.931 L 245.868 94.237 297.273 94.237 C 325.545 94.237,348.677 94.431,348.677 94.668 C 348.677 94.906,338.075 116.302,325.116 142.215 L 301.555 189.331 203.448 189.331 L 105.341 189.331 105.572 207.964 L 105.802 226.597 260.651 226.814 L 415.500 227.030 415.500 208.180 L 415.500 189.331 379.946 189.331 C 360.392 189.331,344.393 189.136,344.393 188.899 C 344.393 188.661,353.067 171.122,363.669 149.923 C 374.271 128.723,382.945 111.083,382.945 110.721 C 382.945 110.360,375.909 106.525,367.310 102.200 L 351.675 94.335 383.587 94.286 L 415.500 94.237 415.500 75.390 L 415.500 56.542 261.008 56.542 C 176.038 56.542,106.259 56.799,105.945 57.113 M67.877 264.506 L 68.108 283.139 96.067 283.365 L 124.026 283.591 124.420 309.923 C 124.806 335.652,124.867 336.416,127.116 343.292 C 132.792 360.650,147.575 375.278,170.582 386.301 C 196.274 398.610,222.059 403.843,257.010 403.843 C 291.892 403.843,317.751 398.606,343.299 386.368 C 366.363 375.319,381.236 360.627,386.904 343.292 C 389.153 336.416,389.214 335.652,389.600 309.923 L 389.994 283.591 417.953 283.365 L 445.912 283.139 446.143 264.506 L 446.374 245.873 257.010 245.873 L 67.646 245.873 67.877 264.506 M351.247 307.837 L 351.247 332.106 348.608 336.090 C 340.163 348.840,314.599 360.278,285.281 364.423 C 257.158 368.400,225.258 366.110,202.181 358.459 C 184.410 352.567,170.871 344.332,165.416 336.097 L 162.773 332.106 162.773 307.837 L 162.773 283.568 257.010 283.568 L 351.247 283.568 351.247 307.837 " stroke="none" fill-rule="evenodd" fill="black"></path></svg>