<svg width="136mm" height="120mm" version="1.1" viewBox="0 0 600 529.4117647058824" xmlns="http://www.w3.org/2000/svg"><path d="M106.231 75.377 L 106.231 94.212 132.146 94.439 L 158.061 94.665 146.496 100.545 C 140.135 103.779,134.813 106.531,134.669 106.660 C 134.526 106.789,142.023 122.130,151.330 140.751 L 168.251 174.606 185.216 166.115 L 202.182 157.624 186.330 125.931 L 170.479 94.237 202.393 94.282 L 234.307 94.327 222.314 100.376 C 215.717 103.703,210.201 106.532,210.057 106.663 C 209.497 107.167,243.355 173.910,244.170 173.910 C 244.645 173.910,252.354 170.246,261.302 165.767 L 277.571 157.624 262.150 126.792 C 253.669 109.834,246.730 95.572,246.730 95.098 C 246.730 94.531,264.109 94.237,297.703 94.237 C 325.739 94.237,348.677 94.431,348.677 94.668 C 348.677 94.906,338.075 116.302,325.116 142.215 L 301.555 189.331 203.893 189.331 L 106.231 189.331 106.231 208.178 L 106.231 227.025 260.865 227.025 L 415.500 227.025 415.500 208.178 L 415.500 189.331 379.946 189.331 C 360.392 189.331,344.393 189.136,344.393 188.899 C 344.393 188.661,353.067 171.122,363.669 149.923 C 374.271 128.723,382.945 111.083,382.945 110.721 C 382.945 110.360,375.909 106.525,367.310 102.200 L 351.675 94.335 383.587 94.286 L 415.500 94.237 415.500 75.390 L 415.500 56.542 260.865 56.542 L 106.231 56.542 106.231 75.377 M67.877 264.506 L 68.108 283.139 96.540 283.365 L 124.972 283.591 125.251 311.636 L 125.530 339.682 127.819 345.418 C 138.262 371.596,169.601 391.743,212.785 400.039 C 228.574 403.073,237.535 403.843,257.010 403.843 C 276.485 403.843,285.446 403.073,301.235 400.039 C 344.419 391.743,375.758 371.596,386.201 345.418 L 388.490 339.682 388.769 311.636 L 389.048 283.591 417.480 283.365 L 445.912 283.139 446.143 264.506 L 446.374 245.873 257.010 245.873 L 67.646 245.873 67.877 264.506 M351.247 307.154 C 351.247 334.159,351.213 334.324,344.382 340.977 C 333.240 351.830,311.319 360.529,284.853 364.601 C 271.855 366.601,242.165 366.601,229.167 364.601 C 202.701 360.529,180.780 351.830,169.638 340.977 C 162.807 334.324,162.773 334.159,162.773 307.154 L 162.773 283.568 257.010 283.568 L 351.247 283.568 351.247 307.154 " stroke="none" fill-rule="evenodd" fill="black"></path></svg>