<svg width="136mm" height="120mm" version="1.1" viewBox="0 0 600 529.4117647058824" xmlns="http://www.w3.org/2000/svg"><path d="M276.714 55.106 C 276.714 55.259,253.005 126.229,224.027 212.817 C 195.049 299.405,171.340 370.567,171.340 370.955 C 171.340 371.343,179.361 374.337,189.164 377.609 L 206.989 383.557 226.201 325.879 C 236.767 294.156,245.661 268.478,245.964 268.816 C 246.267 269.155,255.064 295.126,265.512 326.529 L 284.508 383.625 299.030 378.803 L 313.552 373.981 328.112 378.816 C 336.120 381.475,342.815 383.395,342.989 383.084 C 343.163 382.772,351.871 356.783,362.340 325.332 C 372.809 293.880,381.503 268.147,381.660 268.147 C 381.817 268.147,390.511 293.880,400.980 325.332 C 411.449 356.783,420.158 382.775,420.335 383.090 C 420.511 383.405,428.709 380.975,438.553 377.690 L 456.450 371.717 429.059 289.547 L 401.667 207.376 425.306 136.974 C 438.308 98.253,448.842 66.489,448.714 66.386 C 447.300 65.251,413.460 54.829,412.961 55.375 C 412.589 55.781,390.172 122.505,363.145 203.650 C 336.118 284.794,313.758 350.910,313.457 350.574 C 313.156 350.237,302.259 317.963,289.242 278.853 L 265.575 207.744 289.119 137.124 C 302.068 98.283,312.574 66.436,312.465 66.352 C 312.022 66.012,277.950 54.829,277.356 54.829 C 277.003 54.829,276.714 54.954,276.714 55.106 M90.810 104.089 L 90.810 143.926 65.949 143.926 L 41.088 143.926 41.319 162.559 L 41.550 181.192 66.180 181.419 L 90.810 181.647 90.810 245.455 L 90.810 309.264 62.325 323.497 C 46.658 331.325,33.721 337.838,33.575 337.971 C 33.352 338.174,49.415 370.865,50.119 371.642 C 50.452 372.010,185.904 304.225,185.904 303.691 C 185.904 302.321,169.471 270.717,168.758 270.717 C 168.286 270.717,159.035 275.152,148.202 280.573 L 128.505 290.428 128.505 236.024 L 128.505 181.620 152.921 181.620 L 177.337 181.620 177.337 162.773 L 177.337 143.926 152.921 143.926 L 128.505 143.926 128.505 104.089 L 128.505 64.252 109.658 64.252 L 90.810 64.252 90.810 104.089 " stroke="none" fill-rule="evenodd" fill="black"></path></svg>