<svg width="136mm" height="120mm" version="1.1" viewBox="0 0 600 529.4117647058824" xmlns="http://www.w3.org/2000/svg"><path d="M224.401 212.247 C 195.550 298.828,171.783 370.106,171.586 370.644 C 171.363 371.252,177.995 373.881,189.108 377.590 L 206.989 383.557 226.201 325.879 C 236.767 294.156,245.661 268.478,245.964 268.816 C 246.267 269.155,255.064 295.126,265.512 326.529 L 284.508 383.625 299.030 378.803 L 313.552 373.981 328.112 378.816 C 336.120 381.475,342.815 383.395,342.989 383.084 C 343.163 382.772,351.871 356.783,362.340 325.332 C 372.809 293.880,381.503 268.147,381.660 268.147 C 381.817 268.147,390.511 293.880,400.980 325.332 C 411.449 356.783,420.159 382.775,420.335 383.090 C 420.679 383.705,453.980 372.902,455.218 371.774 C 455.625 371.404,443.707 334.350,428.734 289.431 L 401.511 207.761 424.782 137.929 C 437.582 99.521,448.054 67.649,448.054 67.102 C 448.054 65.823,413.857 54.395,412.961 55.375 C 412.589 55.781,390.172 122.505,363.145 203.650 C 336.118 284.794,313.758 350.910,313.457 350.574 C 313.156 350.237,302.259 317.963,289.242 278.853 L 265.575 207.744 289.119 137.124 C 302.068 98.283,312.574 66.436,312.465 66.352 C 312.056 66.038,277.974 54.829,277.428 54.829 C 277.114 54.829,253.252 125.667,224.401 212.247 M90.810 104.089 L 90.810 143.926 66.394 143.926 L 41.978 143.926 41.978 162.773 L 41.978 181.620 66.394 181.620 L 90.810 181.620 90.810 245.442 L 90.810 309.264 62.325 323.497 C 46.658 331.325,33.721 337.838,33.575 337.971 C 33.352 338.174,49.415 370.865,50.119 371.642 C 50.452 372.010,185.904 304.225,185.904 303.691 C 185.904 302.321,169.471 270.717,168.758 270.717 C 168.286 270.717,159.035 275.152,148.202 280.573 L 128.505 290.428 128.505 236.038 L 128.505 181.647 153.135 181.419 L 177.765 181.192 177.996 162.559 L 178.227 143.926 153.366 143.926 L 128.505 143.926 128.505 104.089 L 128.505 64.252 109.658 64.252 L 90.810 64.252 90.810 104.089 " stroke="none" fill-rule="evenodd" fill="black"></path></svg>