<svg width="136mm" height="120mm" version="1.1" viewBox="0 0 600 529.4117647058824" xmlns="http://www.w3.org/2000/svg"><path d="M169.627 60.582 C 160.438 63.672,152.784 66.316,152.618 66.458 C 152.352 66.683,189.051 177.708,189.883 179.196 C 190.226 179.809,223.527 169.008,224.764 167.881 C 225.690 167.039,188.369 54.804,187.194 54.896 C 186.720 54.934,178.815 57.492,169.627 60.582 M307.341 133.003 L 281.283 211.177 193.757 211.395 L 106.231 211.613 106.231 230.456 L 106.231 249.300 128.506 249.300 L 150.781 249.300 118.226 314.407 C 100.320 350.216,85.670 379.808,85.670 380.169 C 85.670 380.529,93.187 384.576,102.375 389.163 L 119.080 397.503 135.858 363.956 L 152.636 330.409 188.767 366.532 L 224.898 402.656 237.955 389.578 C 245.137 382.385,251.013 376.117,251.013 375.649 C 251.013 375.182,232.926 356.716,210.820 334.613 L 170.627 294.426 181.899 271.863 L 193.171 249.300 258.931 249.300 L 324.692 249.300 292.136 314.407 C 274.230 350.216,259.580 379.808,259.580 380.169 C 259.580 380.529,267.097 384.576,276.285 389.163 L 292.990 397.503 309.768 363.956 L 326.546 330.409 362.452 366.308 L 398.359 402.206 411.645 388.942 L 424.930 375.677 384.593 335.333 L 344.256 294.989 355.668 272.144 L 367.081 249.300 391.290 249.300 L 415.500 249.300 415.500 230.452 L 415.500 211.605 368.381 211.605 C 342.466 211.605,321.262 211.313,321.262 210.957 C 321.262 210.600,332.050 177.952,345.234 138.406 C 358.418 98.860,369.116 66.436,369.007 66.352 C 368.599 66.038,334.516 54.829,333.970 54.829 C 333.656 54.829,321.673 90.007,307.341 133.003 " stroke="none" fill-rule="evenodd" fill="black"></path></svg>