<svg width="136mm" height="120mm" version="1.1" viewBox="0 0 600 529.4117647058824" xmlns="http://www.w3.org/2000/svg"><path d="M169.627 60.582 C 160.438 63.672,152.784 66.316,152.618 66.458 C 152.316 66.714,189.269 178.283,189.889 178.992 C 190.284 179.442,223.727 168.763,224.764 167.855 C 225.694 167.042,188.363 54.805,187.194 54.896 C 186.720 54.934,178.815 57.492,169.627 60.582 M307.341 133.003 L 281.283 211.177 193.329 211.395 L 105.374 211.613 105.374 230.456 L 105.374 249.300 128.078 249.300 L 150.781 249.300 118.226 314.407 C 100.320 350.216,85.670 379.808,85.670 380.169 C 85.670 380.529,93.187 384.576,102.375 389.163 L 119.080 397.503 135.858 363.956 L 152.636 330.409 188.498 366.263 L 224.360 402.117 237.472 389.344 C 244.684 382.319,250.694 376.157,250.828 375.651 C 250.961 375.145,232.950 356.703,210.804 334.669 L 170.536 294.607 181.854 271.953 L 193.171 249.300 258.931 249.300 L 324.692 249.300 292.136 314.407 C 274.230 350.216,259.580 379.808,259.580 380.169 C 259.580 380.529,267.097 384.576,276.285 389.163 L 292.990 397.503 309.768 363.956 L 326.546 330.409 362.456 366.311 L 398.366 402.213 411.711 388.868 L 425.056 375.523 384.635 335.299 L 344.213 295.074 355.647 272.187 L 367.081 249.300 391.290 249.300 L 415.500 249.300 415.500 230.452 L 415.500 211.605 368.289 211.605 C 330.882 211.605,321.161 211.383,321.473 210.534 C 324.274 202.919,369.333 66.645,369.113 66.458 C 368.676 66.087,334.653 54.829,333.970 54.829 C 333.656 54.829,321.673 90.007,307.341 133.003 " stroke="none" fill-rule="evenodd" fill="black"></path></svg>