<svg width="136mm" height="120mm" version="1.1" viewBox="0 0 600 529.4117647058824" xmlns="http://www.w3.org/2000/svg"><path d="M155.063 68.103 L 155.063 87.383 220.172 87.383 L 285.281 87.383 285.280 89.311 C 285.278 92.547,281.278 107.944,278.436 115.654 C 274.474 126.406,266.480 141.088,260.142 149.257 C 259.082 150.623,255.369 149.524,210.276 134.487 C 183.480 125.552,161.301 118.527,160.988 118.876 C 160.354 119.583,148.978 153.574,149.294 153.817 C 149.404 153.902,167.131 159.839,188.688 167.011 C 210.245 174.182,227.882 180.166,227.882 180.309 C 227.882 180.743,216.657 187.236,210.986 190.082 C 195.578 197.817,171.489 203.829,155.705 203.879 L 150.779 203.895 150.779 222.742 L 150.779 241.589 156.562 241.582 C 178.035 241.556,207.341 234.142,228.977 223.261 C 241.509 216.958,251.319 210.519,262.522 201.241 L 270.827 194.363 323.301 211.857 L 375.775 229.351 381.592 211.830 C 384.792 202.194,387.080 194.008,386.676 193.640 C 386.273 193.273,365.993 186.338,341.609 178.229 C 317.225 170.121,297.275 163.264,297.275 162.991 C 297.275 162.718,298.995 159.560,301.098 155.973 C 309.208 142.140,315.935 125.643,319.935 109.780 C 323.222 96.745,324.666 84.004,324.901 65.966 L 325.118 49.260 240.090 49.042 L 155.063 48.824 155.063 68.103 M238.163 260.865 C 238.163 290.598,237.894 302.415,237.217 302.415 C 236.697 302.415,233.516 300.981,230.149 299.229 C 221.211 294.577,211.436 284.495,206.657 274.998 C 203.013 267.758,200.511 258.645,200.483 252.512 L 200.468 249.300 181.494 249.300 L 162.519 249.300 163.006 256.814 C 164.109 273.829,171.200 292.356,182.101 306.699 C 186.788 312.865,197.955 323.456,203.895 327.367 C 212.516 333.044,224.789 338.493,234.522 340.965 L 238.163 341.889 238.163 374.839 L 238.163 407.789 257.010 407.789 L 275.857 407.789 275.857 374.839 L 275.857 341.889 279.498 340.965 C 289.231 338.493,301.504 333.044,310.125 327.367 C 316.065 323.456,327.232 312.865,331.919 306.699 C 342.820 292.356,349.911 273.829,351.014 256.814 L 351.501 249.300 332.649 249.300 L 313.798 249.300 313.250 255.195 C 312.030 268.331,306.662 279.294,296.418 289.576 C 290.597 295.418,279.908 302.415,276.803 302.415 C 276.126 302.415,275.857 290.598,275.857 260.865 L 275.857 219.315 257.010 219.315 L 238.163 219.315 238.163 260.865 " stroke="none" fill-rule="evenodd" fill="black"></path></svg>