<svg width="136mm" height="120mm" version="1.1" viewBox="0 0 600 529.4117647058824" xmlns="http://www.w3.org/2000/svg"><path d="M155.063 67.679 L 155.063 86.527 220.029 86.527 C 255.761 86.527,285.203 86.735,285.457 86.989 C 286.332 87.863,283.456 100.683,280.159 110.604 C 276.305 122.203,270.684 133.774,264.074 143.711 C 261.488 147.599,259.319 150.779,259.254 150.779 C 259.188 150.779,237.180 143.458,210.346 134.510 C 183.512 125.563,161.301 118.527,160.988 118.876 C 160.354 119.583,148.978 153.574,149.294 153.817 C 149.404 153.902,167.186 159.857,188.809 167.051 L 228.123 180.130 223.505 183.081 C 212.840 189.894,199.484 195.726,186.627 199.184 C 178.257 201.435,161.975 203.895,155.447 203.895 L 151.636 203.895 151.636 222.873 L 151.636 241.851 161.274 241.292 C 198.943 239.111,233.586 225.337,263.021 200.839 L 270.807 194.358 322.378 211.548 C 350.743 221.003,374.399 228.739,374.949 228.739 C 376.233 228.739,387.665 194.544,386.682 193.644 C 386.276 193.272,365.814 186.278,341.212 178.101 L 296.480 163.234 297.923 161.076 C 302.117 154.804,308.706 141.759,312.576 132.068 C 321.128 110.654,324.689 90.830,324.689 64.637 L 324.689 48.832 239.876 48.832 L 155.063 48.832 155.063 67.679 M238.163 260.923 L 238.163 302.531 236.235 301.948 C 232.804 300.910,226.562 297.245,221.622 293.367 C 210.128 284.346,202.116 269.683,200.771 255.208 L 200.222 249.300 181.369 249.300 L 162.516 249.300 163.049 256.806 C 164.119 271.871,170.329 289.572,179.050 302.415 C 183.841 309.470,193.397 319.459,200.406 324.739 C 209.556 331.632,223.162 338.105,234.522 340.971 L 238.163 341.889 238.163 374.839 L 238.163 407.789 257.010 407.789 L 275.857 407.789 275.857 374.839 L 275.857 341.889 279.498 340.971 C 290.858 338.105,304.464 331.632,313.614 324.739 C 320.623 319.459,330.179 309.470,334.970 302.415 C 343.691 289.572,349.901 271.871,350.971 256.806 L 351.504 249.300 332.528 249.300 L 313.552 249.300 313.552 252.343 C 313.552 261.653,308.083 275.907,301.163 284.632 C 295.444 291.842,284.571 299.895,277.785 301.948 L 275.857 302.531 275.857 260.923 L 275.857 219.315 257.010 219.315 L 238.163 219.315 238.163 260.923 " stroke="none" fill-rule="evenodd" fill="black"></path></svg>