<svg width="136mm" height="120mm" version="1.1" viewBox="0 0 600 529.4117647058824" xmlns="http://www.w3.org/2000/svg"><path d="M155.063 68.108 L 155.063 87.383 220.172 87.383 L 285.281 87.383 285.280 89.311 C 285.278 92.547,281.278 107.944,278.436 115.654 C 274.474 126.406,266.480 141.088,260.142 149.257 C 259.082 150.623,255.369 149.524,210.276 134.487 C 183.480 125.552,161.301 118.527,160.988 118.876 C 160.354 119.583,148.978 153.574,149.294 153.817 C 149.404 153.902,167.131 159.839,188.688 167.011 C 210.245 174.182,227.882 180.166,227.882 180.309 C 227.882 180.743,216.657 187.236,210.986 190.082 C 195.578 197.817,171.489 203.829,155.705 203.879 L 150.779 203.895 150.779 222.742 L 150.779 241.589 156.382 241.589 C 170.925 241.589,191.014 237.882,208.048 232.053 C 227.653 225.346,245.812 215.080,262.462 201.291 L 270.827 194.363 323.301 211.857 L 375.775 229.351 381.592 211.830 C 384.792 202.194,387.080 194.007,386.676 193.638 C 386.273 193.270,365.851 186.290,341.294 178.128 L 296.645 163.289 300.098 157.677 C 308.016 144.806,315.345 127.181,319.558 110.885 C 323.336 96.268,324.689 84.302,324.689 65.508 L 324.689 48.832 239.876 48.832 L 155.063 48.832 155.063 68.108 M238.163 260.865 C 238.163 293.540,237.934 302.413,237.092 302.404 C 234.914 302.381,223.874 295.560,219.141 291.313 C 213.361 286.126,206.510 276.218,203.897 269.264 C 202.869 266.529,201.599 260.919,201.075 256.796 L 200.122 249.300 181.320 249.300 L 162.519 249.300 163.026 256.796 C 165.685 296.153,195.287 331.001,234.522 340.965 L 238.163 341.889 238.163 374.839 L 238.163 407.789 257.010 407.789 L 275.857 407.789 275.857 374.839 L 275.857 341.889 279.498 340.965 C 301.354 335.414,321.210 321.733,334.385 303.145 C 343.360 290.483,349.963 272.058,350.994 256.796 L 351.501 249.300 332.700 249.300 L 313.898 249.300 312.945 256.796 C 312.421 260.919,311.151 266.529,310.123 269.264 C 307.510 276.218,300.659 286.126,294.879 291.313 C 290.146 295.560,279.106 302.381,276.928 302.404 C 276.086 302.413,275.857 293.540,275.857 260.865 L 275.857 219.315 257.010 219.315 L 238.163 219.315 238.163 260.865 " stroke="none" fill-rule="evenodd" fill="black"></path></svg>