<svg width="136mm" height="120mm" version="1.1" viewBox="0 0 600 529.4117647058824" xmlns="http://www.w3.org/2000/svg"><path d="M294.747 154.122 L 232.683 278.260 164.319 244.076 C 126.718 225.274,95.763 209.892,95.528 209.892 C 95.034 209.891,78.816 242.103,78.816 243.084 C 78.816 243.445,109.620 259.138,147.270 277.958 L 215.723 312.176 192.246 359.123 C 179.334 384.944,168.770 406.365,168.770 406.725 C 168.770 407.086,176.288 411.135,185.477 415.722 L 202.185 424.063 225.911 376.601 L 249.637 329.140 337.803 373.225 C 386.295 397.471,426.076 417.191,426.207 417.047 C 426.527 416.694,442.914 383.880,442.914 383.593 C 442.914 383.468,403.244 363.534,354.758 339.295 L 266.601 295.224 328.628 171.172 C 362.743 102.944,390.655 46.929,390.655 46.696 C 390.655 46.203,358.443 29.985,357.464 29.985 C 357.105 29.985,328.882 85.846,294.747 154.122 M188.260 75.868 L 172.198 83.965 196.615 132.793 C 210.044 159.648,221.420 181.620,221.895 181.620 C 222.370 181.620,230.081 177.956,239.030 173.476 L 255.300 165.333 230.668 116.529 C 217.121 89.687,205.651 67.735,205.180 67.748 C 204.708 67.760,197.095 71.414,188.260 75.868 " stroke="none" fill-rule="evenodd" fill="black"></path></svg>