<svg width="136mm" height="120mm" version="1.1" viewBox="0 0 600 529.4117647058824" xmlns="http://www.w3.org/2000/svg"><path d="M294.747 154.122 L 232.683 278.260 164.222 244.027 C 126.569 225.199,95.654 209.913,95.524 210.057 C 95.203 210.411,78.816 243.225,78.816 243.513 C 78.816 243.638,109.620 259.138,147.270 277.958 L 215.723 312.176 192.246 359.123 C 179.334 384.944,168.770 406.365,168.770 406.725 C 168.770 407.086,176.288 411.135,185.477 415.722 L 202.185 424.063 225.911 376.601 L 249.637 329.140 337.803 373.225 C 386.295 397.471,426.076 417.191,426.207 417.047 C 426.527 416.694,442.914 383.880,442.914 383.593 C 442.914 383.468,403.244 363.534,354.758 339.295 L 266.601 295.224 328.628 171.172 C 362.743 102.944,390.655 46.826,390.655 46.466 C 390.655 45.689,359.425 29.985,357.878 29.985 C 357.291 29.985,328.882 85.846,294.747 154.122 M188.260 75.868 L 172.198 83.965 196.615 132.793 C 210.044 159.648,221.420 181.620,221.896 181.620 C 222.699 181.620,253.527 166.462,254.412 165.632 C 255.067 165.017,206.125 67.675,205.186 67.725 C 204.711 67.750,197.095 71.414,188.260 75.868 " stroke="none" fill-rule="evenodd" fill="black"></path></svg>