<svg width="136mm" height="120mm" version="1.1" viewBox="0 0 600 529.4117647058824" xmlns="http://www.w3.org/2000/svg"><path d="M146.070 104.512 C 127.457 141.736,112.228 172.384,112.228 172.619 C 112.228 173.041,144.366 189.331,145.199 189.331 C 145.438 189.331,151.226 178.151,158.061 164.486 L 170.489 139.642 212.118 139.642 L 253.748 139.642 253.334 206.679 C 252.997 261.330,252.668 275.615,251.556 283.996 C 250.806 289.650,250.184 294.351,250.174 294.442 C 250.105 295.080,241.004 290.393,236.332 287.313 C 225.099 279.908,215.770 267.629,211.033 254.012 C 208.666 247.209,208.646 246.967,208.346 221.671 L 208.044 196.184 189.264 196.184 L 170.483 196.184 170.483 220.570 C 170.483 247.347,171.400 255.153,176.072 268.147 C 185.210 293.566,204.704 315.050,228.901 326.369 C 232.817 328.201,237.081 329.963,238.377 330.286 C 241.249 331.000,241.279 331.766,238.709 338.591 C 229.267 363.665,213.331 382.475,199.380 385.012 L 196.151 385.599 196.382 404.190 L 196.613 422.781 201.325 422.522 C 231.601 420.853,259.569 392.368,275.993 346.475 L 279.694 336.134 288.578 334.631 C 318.988 329.486,344.810 311.695,360.204 285.281 C 371.369 266.124,374.687 249.479,374.206 215.032 L 373.950 196.613 355.421 196.382 L 336.892 196.151 336.441 219.941 C 335.926 247.077,335.387 250.350,329.403 262.688 C 322.710 276.486,309.787 288.266,295.076 293.978 C 291.474 295.377,288.434 296.402,288.323 296.256 C 288.211 296.110,288.661 291.749,289.323 286.566 C 290.228 279.478,290.640 260.100,290.983 208.392 L 291.440 139.642 351.756 139.642 L 412.073 139.642 412.073 120.795 L 412.073 101.947 300.699 101.947 L 189.325 101.947 201.371 77.866 C 207.997 64.622,213.299 53.678,213.154 53.547 C 213.009 53.415,205.470 49.601,196.401 45.070 L 179.912 36.832 146.070 104.512 " stroke="none" fill-rule="evenodd" fill="black"></path></svg>