<svg width="136mm" height="120mm" version="1.1" viewBox="0 0 600 529.4117647058824" xmlns="http://www.w3.org/2000/svg"><path d="M145.851 104.090 C 127.358 141.079,112.228 171.726,112.228 172.194 C 112.228 172.900,143.841 189.331,145.199 189.331 C 145.438 189.331,151.226 178.151,158.061 164.486 L 170.489 139.642 211.608 139.642 L 252.727 139.642 252.727 205.031 C 252.727 265.454,252.252 282.432,250.299 291.904 L 249.728 294.672 245.087 292.520 C 229.696 285.381,216.489 270.470,210.981 254.012 C 208.736 247.305,208.680 246.610,208.365 221.655 L 208.044 196.152 189.049 196.382 L 170.055 196.613 170.144 219.744 C 170.238 244.291,170.846 250.443,174.380 262.639 C 180.472 283.662,193.870 302.823,211.847 316.224 C 218.709 321.339,231.379 328.155,237.352 329.944 C 239.211 330.502,240.733 331.465,240.733 332.085 C 240.733 335.873,232.125 354.001,225.734 363.669 C 218.020 375.341,209.471 382.373,200.138 384.723 L 196.151 385.727 196.382 404.254 L 196.613 422.781 201.753 422.562 C 221.130 421.736,242.087 407.301,257.788 383.967 C 264.870 373.442,275.273 350.967,278.347 339.550 L 279.270 336.125 286.251 335.056 C 327.769 328.701,360.640 299.164,370.880 259.012 C 373.507 248.710,374.346 238.364,374.363 216.086 L 374.378 196.152 355.316 196.382 L 336.255 196.613 335.775 222.314 C 335.239 251.000,335.093 251.870,328.712 264.292 C 326.004 269.564,323.301 273.046,317.002 279.382 C 309.870 286.554,307.762 288.120,300.687 291.502 C 296.219 293.638,291.511 295.623,290.226 295.914 C 288.052 296.405,287.920 296.276,288.325 294.074 C 290.190 283.951,290.646 269.339,291.015 207.964 L 291.426 139.642 351.750 139.642 L 412.073 139.642 412.073 120.795 L 412.073 101.947 300.699 101.947 L 189.325 101.947 201.371 77.866 C 207.997 64.622,213.299 53.678,213.154 53.547 C 212.801 53.227,179.987 36.838,179.699 36.838 C 179.575 36.838,164.343 67.102,145.851 104.090 " stroke="none" fill-rule="evenodd" fill="black"></path></svg>