<svg width="136mm" height="120mm" version="1.1" viewBox="0 0 600 529.4117647058824" xmlns="http://www.w3.org/2000/svg"><path d="M145.292 105.210 L 111.533 172.726 128.163 181.028 C 137.310 185.595,144.983 189.331,145.213 189.331 C 145.444 189.331,151.226 178.151,158.061 164.486 L 170.489 139.642 211.608 139.642 L 252.727 139.642 252.727 205.031 C 252.727 265.454,252.252 282.432,250.299 291.904 L 249.728 294.672 245.087 292.520 C 229.696 285.381,216.489 270.470,210.981 254.012 C 208.736 247.305,208.680 246.610,208.365 221.655 L 208.044 196.152 189.049 196.382 L 170.055 196.613 170.098 219.315 C 170.146 244.563,170.961 252.220,174.933 264.720 C 183.193 290.717,202.178 313.016,226.358 325.121 C 230.545 327.217,235.492 329.387,237.352 329.944 C 239.211 330.502,240.733 331.465,240.733 332.085 C 240.733 335.873,232.125 354.001,225.734 363.669 C 218.020 375.341,209.471 382.373,200.138 384.723 L 196.151 385.727 196.382 404.254 L 196.613 422.781 201.753 422.562 C 221.081 421.738,242.126 407.242,257.788 383.967 C 264.870 373.442,275.273 350.967,278.347 339.550 L 279.270 336.125 286.251 335.056 C 297.175 333.384,307.170 330.216,317.407 325.182 C 342.085 313.047,360.024 292.437,368.840 266.091 C 373.145 253.225,374.341 242.674,374.361 217.388 L 374.378 196.184 355.647 196.184 L 336.917 196.184 336.455 219.958 C 335.943 246.228,335.093 251.677,329.859 262.227 C 323.669 274.702,312.466 285.879,300.349 291.667 C 296.067 293.712,291.511 295.623,290.226 295.914 C 288.052 296.405,287.920 296.276,288.325 294.074 C 290.203 283.878,290.654 269.472,291.016 207.964 L 291.419 139.642 351.746 139.642 L 412.073 139.642 412.073 120.795 L 412.073 101.947 300.699 101.947 L 189.325 101.947 201.371 77.866 C 207.997 64.622,213.299 53.691,213.154 53.576 C 212.258 52.865,180.386 37.695,179.788 37.695 C 179.383 37.695,163.860 68.077,145.292 105.210 " stroke="none" fill-rule="evenodd" fill="black"></path></svg>