<svg width="136mm" height="120mm" version="1.1" viewBox="0 0 600 529.4117647058824" xmlns="http://www.w3.org/2000/svg"><path d="M238.165 113.510 L 224.901 126.795 243.735 145.642 L 262.568 164.490 275.849 151.209 L 289.130 137.928 270.280 119.077 L 251.429 100.226 238.165 113.510 M162.349 166.191 C 157.870 175.139,154.206 182.656,154.206 182.895 C 154.206 183.133,167.793 190.125,184.400 198.431 L 214.594 213.532 184.614 228.512 C 168.125 236.752,154.515 243.601,154.370 243.734 C 154.224 243.866,157.887 251.482,162.508 260.657 L 170.912 277.339 213.954 256.103 L 256.996 234.866 300.052 256.131 L 343.108 277.396 351.512 260.686 C 356.133 251.495,359.796 243.866,359.650 243.734 C 359.505 243.601,345.895 236.752,329.406 228.512 L 299.426 213.532 329.620 198.431 C 346.227 190.125,359.814 183.133,359.814 182.895 C 359.814 181.537,343.383 149.923,342.678 149.923 C 342.210 149.923,322.744 159.462,299.419 171.122 L 257.010 192.321 214.601 171.122 C 191.276 159.462,171.810 149.923,171.342 149.923 C 170.874 149.923,166.828 157.243,162.349 166.191 M86.890 151.924 C 86.642 152.572,86.571 182.746,86.734 218.978 C 87.028 284.286,87.047 284.907,88.944 291.140 C 92.604 303.162,98.191 312.125,108.521 322.548 C 132.226 346.466,171.563 362.080,224.455 368.563 C 236.323 370.018,277.697 370.018,289.565 368.563 C 325.053 364.213,351.341 356.763,375.128 344.315 C 401.934 330.286,418.934 312.050,425.128 290.678 L 427.065 283.996 427.065 217.602 L 427.065 151.208 408.218 151.208 L 389.370 151.208 388.942 216.745 L 388.513 282.283 386.583 285.896 C 383.668 291.350,374.945 300.199,367.717 305.033 C 349.407 317.279,320.322 326.666,287.851 330.807 C 275.934 332.328,238.086 332.328,226.169 330.807 C 193.775 326.675,164.608 317.276,146.409 305.104 C 138.967 300.127,130.443 291.545,127.552 286.121 L 125.507 282.283 125.078 216.745 L 124.650 151.208 105.996 150.977 C 90.798 150.788,87.259 150.964,86.890 151.924 " stroke="none" fill-rule="evenodd" fill="black"></path></svg>