<svg width="136mm" height="120mm" version="1.1" viewBox="0 0 600 529.4117647058824" xmlns="http://www.w3.org/2000/svg"><path d="M238.165 113.510 L 224.901 126.795 243.735 145.642 L 262.568 164.490 275.849 151.209 L 289.130 137.928 270.280 119.077 L 251.429 100.226 238.165 113.510 M162.633 166.466 L 154.374 183.009 184.274 197.940 C 200.720 206.152,214.175 213.072,214.175 213.318 C 214.175 213.565,200.682 220.504,184.191 228.739 C 167.699 236.974,154.206 243.816,154.206 243.944 C 154.206 244.072,157.870 251.498,162.349 260.445 C 167.510 270.757,170.964 276.714,171.782 276.714 C 172.491 276.714,192.046 267.219,215.238 255.613 L 257.404 234.512 299.616 255.613 C 322.832 267.219,342.210 276.714,342.678 276.714 C 343.488 276.714,360.202 244.236,359.650 243.734 C 359.505 243.601,345.895 236.752,329.406 228.512 L 299.426 213.532 329.623 198.430 L 359.819 183.327 351.582 166.839 C 347.051 157.770,343.176 150.171,342.969 149.951 C 342.763 149.731,323.336 159.174,299.799 170.935 L 257.004 192.318 214.598 171.120 C 191.275 159.462,171.899 149.923,171.542 149.923 C 171.184 149.923,167.175 157.367,162.633 166.466 M87.573 219.084 L 87.812 287.423 90.205 294.190 C 101.036 324.825,134.958 348.906,185.047 361.521 C 208.556 367.441,228.212 369.666,257.010 369.666 C 285.233 369.666,305.418 367.436,327.688 361.858 C 381.878 348.285,416.585 322.593,424.958 289.855 C 426.554 283.617,426.637 280.025,426.637 217.020 L 426.637 150.746 408.003 150.977 L 389.370 151.208 388.942 216.745 L 388.513 282.283 385.998 286.823 C 376.778 303.466,346.849 319.533,311.586 326.770 C 291.208 330.952,281.304 331.879,257.010 331.879 C 232.660 331.879,222.872 330.959,202.181 326.724 C 167.533 319.633,137.140 303.282,128.026 286.831 L 125.507 282.283 125.078 216.745 L 124.650 151.208 105.992 150.977 L 87.334 150.746 87.573 219.084 " stroke="none" fill-rule="evenodd" fill="black"></path></svg>