<svg width="136mm" height="120mm" version="1.1" viewBox="0 0 600 529.4117647058824" xmlns="http://www.w3.org/2000/svg"><path d="M238.165 113.510 L 224.901 126.795 243.735 145.642 L 262.568 164.490 275.849 151.209 L 289.130 137.928 270.280 119.077 L 251.429 100.226 238.165 113.510 M162.349 166.191 C 157.870 175.139,154.206 182.656,154.206 182.895 C 154.206 183.133,167.793 190.125,184.400 198.431 L 214.594 213.532 184.614 228.512 C 168.125 236.752,154.515 243.601,154.370 243.734 C 154.052 244.023,169.454 274.980,170.654 276.464 C 171.277 277.236,182.365 272.061,214.250 256.116 L 257.010 234.732 299.770 256.116 C 331.655 272.061,342.743 277.236,343.366 276.464 C 344.566 274.980,359.968 244.023,359.650 243.734 C 359.505 243.601,345.895 236.752,329.406 228.512 L 299.426 213.532 329.620 198.431 C 346.227 190.125,359.814 183.133,359.814 182.895 C 359.814 181.537,343.383 149.923,342.678 149.923 C 342.210 149.923,322.744 159.462,299.419 171.122 L 257.010 192.321 214.601 171.122 C 191.276 159.462,171.810 149.923,171.342 149.923 C 170.874 149.923,166.828 157.243,162.349 166.191 M87.098 151.350 C 86.204 152.244,86.458 271.933,87.373 280.569 C 88.911 295.098,94.574 307.311,105.116 318.833 C 129.335 345.304,168.772 361.738,224.455 368.563 C 236.323 370.018,277.697 370.018,289.565 368.563 C 345.248 361.738,384.685 345.304,408.904 318.833 C 420.012 306.693,425.256 294.914,426.705 278.856 C 427.200 273.370,427.453 244.733,427.310 210.320 L 427.065 151.208 408.003 150.977 L 388.942 150.746 388.933 215.658 L 388.925 280.569 386.928 284.853 C 378.137 303.708,345.135 320.890,303.272 328.408 C 286.958 331.338,279.254 331.923,257.010 331.923 C 224.940 331.923,204.566 328.892,178.622 320.263 C 153.267 311.830,133.260 298.081,127.092 284.853 L 125.095 280.569 125.087 215.674 L 125.078 150.779 106.374 150.779 C 96.086 150.779,87.412 151.036,87.098 151.350 " stroke="none" fill-rule="evenodd" fill="black"></path></svg>