<svg width="136mm" height="120mm" version="1.1" viewBox="0 0 600 529.4117647058824" xmlns="http://www.w3.org/2000/svg"><path d="M68.536 109.658 L 68.536 128.505 153.349 128.505 L 238.163 128.505 238.163 225.757 L 238.163 323.009 235.807 322.464 C 224.555 319.864,209.760 312.938,200.406 305.892 C 193.397 300.612,183.841 290.623,179.050 283.567 C 173.774 275.797,168.164 263.437,165.549 253.821 L 163.271 245.445 162.972 201.967 L 162.673 158.489 143.876 158.489 L 125.078 158.489 125.078 200.383 C 125.078 238.073,125.247 243.261,126.757 252.094 C 135.009 300.365,168.977 340.263,214.810 355.519 C 230.754 360.826,237.675 361.867,257.010 361.868 C 271.907 361.868,275.897 361.581,283.301 359.979 C 337.558 348.236,378.002 306.266,387.263 252.094 C 388.773 243.261,388.942 238.073,388.942 200.383 L 388.942 158.489 370.144 158.489 L 351.347 158.489 351.048 201.967 L 350.749 245.445 348.471 253.821 C 341.345 280.030,324.036 301.798,300.677 313.927 C 294.061 317.362,284.395 321.036,278.213 322.464 L 275.857 323.009 275.857 225.757 L 275.857 128.505 360.671 128.505 L 445.484 128.505 445.484 109.658 L 445.484 90.810 257.010 90.810 L 68.536 90.810 68.536 109.658 " stroke="none" fill-rule="evenodd" fill="black"></path></svg>