<svg width="136mm" height="120mm" version="1.1" viewBox="0 0 600 529.4117647058824" xmlns="http://www.w3.org/2000/svg"><path d="M67.679 109.658 L 67.679 128.505 152.921 128.505 L 238.163 128.505 238.163 225.757 L 238.163 323.009 235.807 322.464 C 204.620 315.262,178.156 291.176,167.655 260.437 C 163.205 247.411,162.779 242.004,162.776 198.540 L 162.773 158.489 143.926 158.489 L 125.078 158.489 125.078 200.383 C 125.078 237.960,125.250 243.279,126.743 252.016 C 131.578 280.298,144.223 304.504,164.574 324.436 C 189.830 349.174,221.961 362.354,257.010 362.354 C 292.873 362.354,326.055 348.334,351.438 322.456 C 366.500 307.101,375.806 291.690,382.670 270.736 C 388.431 253.149,388.942 247.423,388.942 200.383 L 388.942 158.489 370.094 158.489 L 351.247 158.489 351.244 198.540 C 351.242 231.014,350.988 240.050,349.901 246.301 C 343.959 280.472,319.701 308.802,286.995 319.767 C 283.461 320.951,279.509 322.165,278.213 322.464 L 275.857 323.009 275.857 225.757 L 275.857 128.505 361.099 128.505 L 446.341 128.505 446.341 109.658 L 446.341 90.810 257.010 90.810 L 67.679 90.810 67.679 109.658 " stroke="none" fill-rule="evenodd" fill="black"></path></svg>