<svg width="136mm" height="120mm" version="1.1" viewBox="0 0 600 529.4117647058824" xmlns="http://www.w3.org/2000/svg"><path d="M67.679 109.658 L 67.679 128.505 152.921 128.505 L 238.163 128.505 238.163 225.757 L 238.163 323.009 235.807 322.464 C 234.511 322.165,230.559 320.951,227.025 319.765 C 197.047 309.711,174.035 285.009,165.533 253.760 L 163.271 245.445 162.972 201.951 L 162.673 158.457 143.661 158.687 L 124.650 158.918 124.679 199.611 C 124.710 241.875,125.063 247.454,128.611 261.722 C 143.363 321.043,196.073 362.354,257.010 362.354 C 317.947 362.354,370.657 321.043,385.409 261.722 C 388.957 247.454,389.310 241.875,389.341 199.611 L 389.370 158.918 370.359 158.687 L 351.347 158.457 351.048 201.951 L 350.749 245.445 348.487 253.760 C 341.340 280.032,323.809 301.964,300.242 314.120 C 293.981 317.349,284.012 321.125,278.213 322.464 L 275.857 323.009 275.857 225.757 L 275.857 128.505 361.099 128.505 L 446.341 128.505 446.341 109.658 L 446.341 90.810 257.010 90.810 L 67.679 90.810 67.679 109.658 " stroke="none" fill-rule="evenodd" fill="black"></path></svg>