<svg width="136mm" height="120mm" version="1.1" viewBox="0 0 600 529.4117647058824" xmlns="http://www.w3.org/2000/svg"><path d="M157.491 75.830 L 93.525 107.874 94.663 112.407 C 95.289 114.900,97.221 123.011,98.957 130.433 L 102.113 143.926 257.010 143.926 L 411.907 143.926 415.063 130.433 C 416.799 123.011,418.731 114.900,419.357 112.407 L 420.495 107.874 356.221 75.735 C 320.869 58.058,291.839 43.713,291.708 43.858 C 291.004 44.635,274.942 77.326,275.164 77.529 C 275.310 77.661,287.958 84.077,303.272 91.786 L 331.115 105.802 294.062 106.026 C 273.684 106.149,240.336 106.149,219.958 106.026 L 182.905 105.802 210.748 91.786 C 226.062 84.077,238.708 77.663,238.851 77.533 C 239.228 77.190,222.417 43.683,221.896 43.739 C 221.654 43.765,192.672 58.206,157.491 75.830 M120.795 175.624 L 120.795 196.184 79.245 196.184 L 37.695 196.184 37.695 215.032 L 37.695 233.879 73.676 233.879 C 93.466 233.879,109.658 233.978,109.658 234.098 C 109.658 234.219,97.133 271.888,81.824 317.807 C 66.516 363.727,54.276 401.553,54.624 401.866 C 54.972 402.179,62.582 404.853,71.534 407.808 C 80.487 410.764,88.253 413.343,88.792 413.541 C 89.417 413.770,98.708 387.056,114.386 339.953 C 127.924 299.282,139.241 265.735,139.536 265.404 C 139.832 265.074,151.029 297.457,164.419 337.367 C 177.809 377.277,189.066 410.775,189.435 411.806 C 190.098 413.661,190.291 413.619,207.442 407.894 C 216.977 404.712,224.899 401.746,225.046 401.305 C 225.193 400.864,212.816 363.012,197.540 317.191 L 169.766 233.879 205.678 233.879 L 241.589 233.879 241.589 215.032 L 241.589 196.184 200.039 196.184 L 158.489 196.184 158.489 175.624 L 158.489 155.063 139.642 155.063 L 120.795 155.063 120.795 175.624 M355.531 175.624 L 355.531 196.184 313.981 196.184 L 272.431 196.184 272.431 215.032 L 272.431 233.879 308.342 233.879 L 344.254 233.879 316.480 317.191 C 301.204 363.012,288.827 400.864,288.974 401.305 C 289.121 401.746,297.043 404.712,306.578 407.894 C 323.731 413.620,323.922 413.661,324.587 411.806 C 324.957 410.775,336.195 377.259,349.562 337.326 C 362.929 297.394,374.125 265.010,374.443 265.363 C 374.760 265.716,386.096 299.282,399.634 339.953 C 415.312 387.056,424.603 413.770,425.228 413.541 C 425.767 413.343,433.533 410.764,442.486 407.808 C 451.438 404.853,459.048 402.179,459.396 401.866 C 459.744 401.553,447.504 363.727,432.196 317.807 C 416.887 271.888,404.362 234.219,404.362 234.098 C 404.362 233.978,420.554 233.879,440.344 233.879 L 476.325 233.879 476.325 215.032 L 476.325 196.184 434.775 196.184 L 393.225 196.184 393.225 175.624 L 393.225 155.063 374.378 155.063 L 355.531 155.063 355.531 175.624 " stroke="none" fill-rule="evenodd" fill="black"></path></svg>