<svg width="136mm" height="120mm" version="1.1" viewBox="0 0 600 529.4117647058824" xmlns="http://www.w3.org/2000/svg"><path d="M119.295 161.306 C 86.195 227.392,59.112 281.741,59.112 282.082 C 59.112 282.634,91.008 298.988,92.084 298.988 C 92.323 298.988,98.152 287.712,105.038 273.930 C 111.924 260.148,117.665 248.754,117.795 248.610 C 118.215 248.148,189.331 283.963,189.331 284.637 C 189.331 284.995,178.729 306.488,165.771 332.400 C 152.814 358.311,142.212 379.807,142.212 380.168 C 142.212 380.528,149.730 384.576,158.918 389.163 L 175.623 397.503 199.613 349.531 C 212.807 323.146,223.757 301.558,223.947 301.558 C 224.136 301.558,250.062 314.310,281.558 329.895 L 338.825 358.232 335.450 359.984 C 330.832 362.380,319.596 366.203,311.839 368.016 C 306.497 369.265,300.035 369.576,273.501 369.863 L 241.589 370.207 241.589 388.998 L 241.589 407.789 271.360 407.774 C 302.583 407.757,311.731 407.042,325.307 403.558 C 342.113 399.245,360.302 390.692,373.228 381.023 L 377.646 377.719 398.122 387.963 L 418.597 398.208 426.946 381.484 C 431.538 372.286,435.178 364.654,435.035 364.525 C 434.892 364.396,428.125 360.968,419.997 356.907 C 411.869 352.846,405.219 349.367,405.219 349.175 C 405.219 348.983,406.578 346.769,408.240 344.254 C 424.529 319.597,432.903 286.299,430.237 256.783 C 427.176 222.893,413.409 193.203,389.816 169.609 C 374.333 154.126,356.231 142.852,335.815 135.975 C 315.092 128.995,308.621 128.505,237.213 128.505 L 178.190 128.505 195.754 93.384 C 205.414 74.068,213.318 58.071,213.318 57.836 C 213.318 57.333,181.088 41.115,180.130 41.136 C 179.772 41.144,152.396 95.220,119.295 161.306 M248.443 166.632 C 248.443 167.057,207.360 249.479,206.892 249.991 C 206.663 250.243,136.212 215.243,135.391 214.469 C 135.172 214.264,140.371 203.319,146.944 190.148 L 158.893 166.200 203.668 166.200 C 228.294 166.200,248.443 166.394,248.443 166.632 M303.272 167.065 C 339.041 171.588,369.494 194.105,384.115 226.838 C 395.537 252.411,395.535 283.911,384.110 309.456 C 380.693 317.096,372.301 330.551,370.528 331.231 C 369.931 331.460,340.483 317.167,305.087 299.468 L 240.731 267.287 266.006 216.744 L 291.281 166.200 294.064 166.226 C 295.594 166.241,299.738 166.618,303.272 167.065 " stroke="none" fill-rule="evenodd" fill="black"></path></svg>