<svg width="136mm" height="120mm" version="1.1" viewBox="0 0 600 529.4117647058824" xmlns="http://www.w3.org/2000/svg"><path d="M119.272 161.534 C 86.159 227.760,59.238 282.214,59.446 282.542 C 60.040 283.478,92.408 299.393,92.821 298.953 C 93.024 298.737,98.824 287.285,105.709 273.504 L 118.228 248.447 153.779 266.217 C 173.333 275.990,189.331 284.279,189.331 284.637 C 189.331 284.995,178.729 306.488,165.771 332.400 C 152.814 358.311,142.212 379.807,142.212 380.168 C 142.212 380.528,149.730 384.576,158.918 389.163 L 175.623 397.503 199.613 349.531 C 212.807 323.146,223.890 301.580,224.243 301.605 C 224.595 301.631,250.489 314.483,281.785 330.165 L 338.687 358.677 332.331 361.301 C 313.574 369.045,310.717 369.461,273.501 369.863 L 241.589 370.207 241.589 388.998 L 241.589 407.789 271.360 407.774 C 302.583 407.757,311.731 407.042,325.307 403.558 C 342.042 399.263,360.517 390.589,373.039 381.148 L 377.269 377.959 397.762 388.212 C 409.033 393.851,418.363 398.346,418.495 398.201 C 419.198 397.425,435.263 364.732,435.040 364.530 C 434.894 364.398,428.125 360.968,419.997 356.907 C 411.869 352.846,405.219 349.364,405.219 349.168 C 405.219 348.973,407.103 345.775,409.405 342.063 C 415.754 331.827,419.278 324.360,423.080 313.089 C 427.331 300.487,428.920 292.812,430.159 278.907 C 431.797 260.514,429.476 242.219,423.089 223.170 C 408.475 179.588,372.919 146.139,327.726 133.459 C 312.471 129.178,311.921 129.148,243.113 128.762 L 178.243 128.398 195.781 93.331 C 205.426 74.044,213.318 58.071,213.318 57.836 C 213.318 57.341,181.110 41.122,180.128 41.122 C 179.769 41.122,152.384 95.307,119.272 161.534 M248.443 166.632 C 248.443 167.057,207.360 249.479,206.892 249.991 C 206.690 250.213,136.297 215.307,135.523 214.602 C 135.378 214.470,140.680 203.525,147.306 190.281 L 159.352 166.200 203.898 166.200 C 228.398 166.200,248.443 166.394,248.443 166.632 M311.839 168.489 C 345.506 175.228,374.238 200.115,386.739 233.365 C 394.456 253.890,394.461 282.317,386.751 302.929 C 382.691 313.783,372.306 331.543,370.019 331.543 C 369.587 331.543,340.320 317.085,304.982 299.415 L 240.731 267.287 266.049 216.658 L 291.366 166.029 298.390 166.616 C 302.253 166.939,308.305 167.781,311.839 168.489 " stroke="none" fill-rule="evenodd" fill="black"></path></svg>