<svg width="136mm" height="120mm" version="1.1" viewBox="0 0 600 529.4117647058824" xmlns="http://www.w3.org/2000/svg"><path d="M119.247 161.583 C 86.121 227.837,59.135 282.152,59.279 282.282 C 60.056 282.986,92.747 299.047,92.949 298.825 C 93.082 298.679,98.824 287.284,105.710 273.501 C 112.596 259.719,118.424 248.443,118.660 248.443 C 119.083 248.443,189.511 283.531,190.022 283.996 C 190.166 284.128,179.446 305.910,166.200 332.400 C 152.953 358.890,142.233 380.670,142.378 380.801 C 142.522 380.932,150.060 384.746,159.129 389.277 L 175.618 397.514 199.610 349.536 C 212.805 323.149,223.988 301.558,224.459 301.558 C 225.467 301.558,338.397 357.941,338.397 358.445 C 338.397 359.333,322.469 365.316,314.837 367.295 C 306.509 369.454,305.367 369.526,273.930 369.877 L 241.589 370.237 241.589 389.013 L 241.589 407.789 270.931 407.772 C 301.925 407.755,311.945 406.978,325.349 403.556 C 341.022 399.554,356.511 392.499,369.883 383.271 L 377.810 377.800 398.204 388.004 L 418.597 398.208 426.946 381.484 C 431.538 372.286,435.178 364.654,435.035 364.525 C 434.892 364.396,428.125 360.968,419.997 356.907 C 411.869 352.846,405.219 349.346,405.219 349.129 C 405.219 348.912,406.796 346.312,408.724 343.351 C 413.839 335.496,420.957 320.326,423.912 310.982 C 433.178 281.682,432.951 252.814,423.225 223.509 C 408.420 178.901,371.291 144.468,325.349 132.738 C 310.089 128.842,303.912 128.539,239.231 128.522 L 178.190 128.505 195.754 93.384 C 205.414 74.068,213.318 58.071,213.318 57.836 C 213.318 57.341,181.110 41.122,180.128 41.122 C 179.769 41.122,152.373 95.329,119.247 161.583 M228.311 208.178 C 216.765 231.266,207.124 250.156,206.887 250.156 C 206.462 250.156,136.035 215.068,135.523 214.602 C 135.378 214.470,140.680 203.525,147.306 190.281 L 159.352 166.200 204.328 166.200 L 249.303 166.200 228.311 208.178 M311.767 168.326 C 330.607 172.290,346.965 180.971,360.968 194.440 C 369.332 202.483,375.460 210.196,379.715 218.030 C 396.086 248.178,397.265 281.658,383.008 311.522 C 378.634 320.685,372.428 330.502,370.557 331.220 C 369.944 331.455,340.483 317.167,305.087 299.468 L 240.731 267.287 266.067 216.622 L 291.402 165.957 298.571 166.508 C 302.514 166.811,308.452 167.629,311.767 168.326 " stroke="none" fill-rule="evenodd" fill="black"></path></svg>