<svg width="136mm" height="120mm" version="1.1" viewBox="0 0 600 529.4117647058824" xmlns="http://www.w3.org/2000/svg"><path d="M83.100 71.963 L 83.100 90.810 124.222 90.810 C 146.838 90.810,165.343 91.004,165.343 91.240 C 165.343 91.477,143.937 134.481,117.773 186.807 C 91.610 239.132,70.374 282.212,70.583 282.541 C 71.176 283.477,103.544 299.393,103.958 298.953 C 104.161 298.737,109.961 287.284,116.847 273.501 C 123.733 259.719,129.561 248.443,129.797 248.443 C 130.220 248.443,200.649 283.531,201.159 283.996 C 201.303 284.128,190.584 305.910,177.337 332.400 C 164.090 358.890,153.370 380.670,153.515 380.801 C 153.659 380.932,161.191 384.743,170.252 389.270 L 186.727 397.500 187.953 395.577 C 188.627 394.519,199.524 372.932,212.168 347.606 C 224.812 322.280,235.449 301.558,235.806 301.558 C 236.162 301.558,261.980 314.322,293.178 329.923 L 349.903 358.288 347.362 359.623 C 342.477 362.191,334.472 365.060,325.974 367.288 C 317.604 369.484,316.664 369.543,285.067 369.878 L 252.727 370.222 252.727 389.005 L 252.727 407.789 282.497 407.774 C 313.792 407.757,322.807 407.049,336.629 403.519 C 353.849 399.123,373.774 389.674,385.636 380.279 L 388.836 377.745 409.445 388.056 L 430.054 398.368 438.197 382.098 C 442.676 373.149,446.341 365.530,446.341 365.166 C 446.341 364.801,439.560 361.119,431.273 356.984 L 416.205 349.464 417.567 347.384 C 429.793 328.725,436.706 311.155,440.484 289.136 C 442.778 275.762,442.345 254.368,439.513 241.161 C 428.741 190.937,394.516 152.043,346.909 135.922 C 326.527 129.021,319.672 128.505,248.350 128.505 L 189.327 128.505 208.178 90.810 L 227.029 53.115 155.065 53.115 L 83.100 53.115 83.100 71.963 M239.448 208.178 C 227.902 231.266,218.261 250.156,218.024 250.156 C 217.600 250.156,147.172 215.068,146.660 214.602 C 146.515 214.470,151.817 203.525,158.443 190.281 L 170.489 166.200 215.465 166.200 L 260.440 166.200 239.448 208.178 M322.976 168.464 C 357.590 175.426,387.245 201.406,398.622 234.736 C 402.545 246.226,403.876 254.692,403.876 268.147 C 403.876 286.070,400.651 299.848,392.968 314.744 C 389.143 322.161,382.588 331.543,381.231 331.543 C 380.433 331.543,253.645 268.422,252.754 267.581 C 252.534 267.373,263.714 244.442,277.598 216.623 L 302.843 166.043 309.697 166.607 C 313.467 166.918,319.442 167.753,322.976 168.464 " stroke="none" fill-rule="evenodd" fill="black"></path></svg>