<svg width="136mm" height="120mm" version="1.1" viewBox="0 0 600 529.4117647058824" xmlns="http://www.w3.org/2000/svg"><path d="M83.100 71.963 L 83.100 90.810 124.222 90.810 C 146.838 90.810,165.343 91.004,165.343 91.240 C 165.343 91.477,143.925 134.504,117.748 186.857 C 91.571 239.210,70.271 282.151,70.415 282.281 C 71.192 282.985,103.884 299.047,104.086 298.825 C 104.219 298.679,109.961 287.284,116.847 273.501 C 123.733 259.719,129.561 248.443,129.797 248.443 C 130.220 248.443,200.649 283.531,201.159 283.996 C 201.303 284.128,190.584 305.910,177.337 332.400 C 164.090 358.890,153.370 380.670,153.515 380.801 C 153.659 380.932,161.191 384.743,170.252 389.270 L 186.727 397.500 187.953 395.577 C 188.627 394.519,199.524 372.932,212.168 347.606 C 224.812 322.280,235.449 301.558,235.806 301.558 C 236.162 301.558,261.980 314.322,293.178 329.923 L 349.903 358.288 347.362 359.623 C 342.477 362.191,334.472 365.060,325.974 367.288 C 317.604 369.484,316.664 369.543,285.067 369.878 L 252.727 370.222 252.727 389.005 L 252.727 407.789 282.497 407.774 C 313.792 407.757,322.807 407.049,336.629 403.519 C 353.595 399.188,370.921 391.063,384.351 381.142 L 388.904 377.779 409.479 388.073 L 430.054 398.368 438.197 382.098 C 442.676 373.149,446.341 365.530,446.341 365.166 C 446.341 364.801,439.594 361.136,431.348 357.022 C 417.307 350.014,415.228 348.618,417.106 347.458 C 417.519 347.203,419.525 344.192,421.565 340.768 C 446.421 299.046,448.709 249.652,427.765 206.914 C 411.419 173.558,382.153 147.851,346.964 135.940 C 326.515 129.018,319.708 128.505,248.350 128.505 L 189.327 128.505 208.178 90.810 L 227.029 53.115 155.065 53.115 L 83.100 53.115 83.100 71.963 M239.448 208.178 C 227.902 231.266,218.261 250.156,218.024 250.156 C 217.600 250.156,147.172 215.068,146.660 214.602 C 146.515 214.470,151.817 203.525,158.443 190.281 L 170.489 166.200 215.465 166.200 L 260.440 166.200 239.448 208.178 M322.976 168.464 C 360.674 176.046,391.875 205.907,401.175 243.303 C 404.800 257.880,404.800 278.414,401.175 292.991 C 398.240 304.794,390.221 321.507,383.911 328.973 L 381.376 331.971 317.051 299.850 C 281.673 282.183,252.727 267.438,252.727 267.083 C 252.727 266.728,264.003 243.849,277.785 216.241 L 302.843 166.044 309.697 166.608 C 313.467 166.918,319.442 167.753,322.976 168.464 " stroke="none" fill-rule="evenodd" fill="black"></path></svg>