<svg width="136mm" height="120mm" version="1.1" viewBox="0 0 600 529.4117647058824" xmlns="http://www.w3.org/2000/svg"><path d="M83.100 71.963 L 83.100 90.810 124.222 90.810 C 146.838 90.810,165.343 91.004,165.343 91.240 C 165.343 91.477,143.925 134.504,117.748 186.857 C 91.571 239.210,70.271 282.151,70.415 282.281 C 71.192 282.985,103.884 299.047,104.086 298.825 C 104.219 298.679,109.961 287.284,116.847 273.501 C 123.733 259.719,129.561 248.443,129.797 248.443 C 130.220 248.443,200.649 283.531,201.159 283.996 C 201.303 284.128,190.584 305.910,177.337 332.400 C 164.090 358.890,153.370 380.617,153.515 380.683 C 153.659 380.749,161.231 384.499,170.341 389.017 C 186.567 397.063,186.927 397.194,188.041 395.442 C 188.667 394.458,199.524 372.932,212.168 347.606 C 224.812 322.280,235.449 301.558,235.806 301.558 C 236.162 301.558,261.985 314.325,293.190 329.929 L 349.926 358.299 345.935 360.328 C 343.739 361.443,339.054 363.326,335.522 364.512 C 321.487 369.223,319.543 369.430,285.495 369.847 L 253.583 370.238 253.583 389.014 L 253.583 407.789 282.239 407.789 C 313.556 407.789,324.037 406.904,338.383 403.046 C 354.359 398.750,371.435 390.696,383.683 381.680 L 388.950 377.802 409.342 388.005 L 429.734 398.208 438.037 381.575 C 442.604 372.427,446.341 364.755,446.341 364.525 C 446.341 364.295,439.691 360.785,431.563 356.724 C 423.435 352.663,416.673 349.241,416.538 349.119 C 416.402 348.997,417.827 346.584,419.704 343.758 C 444.292 306.740,448.822 255.496,431.156 214.234 C 412.582 170.853,375.665 140.685,329.200 130.917 C 320.161 129.016,318.677 128.972,254.672 128.702 L 189.367 128.426 208.198 90.770 L 227.029 53.115 155.065 53.115 L 83.100 53.115 83.100 71.963 M239.457 208.160 L 218.473 250.120 207.543 244.705 C 201.531 241.726,185.336 233.637,171.553 226.728 L 146.493 214.168 158.491 190.184 L 170.489 166.200 215.465 166.200 L 260.440 166.200 239.457 208.160 M324.563 168.702 C 363.458 177.220,394.058 208.479,402.205 248.015 C 406.228 267.535,404.080 289.048,396.256 307.599 C 392.954 315.429,387.755 324.486,384.055 328.856 L 381.615 331.737 317.171 299.513 C 281.726 281.789,252.727 267.097,252.727 266.863 C 252.727 266.629,264.003 243.842,277.785 216.226 L 302.843 166.014 309.999 166.547 C 313.934 166.840,320.488 167.810,324.563 168.702 " stroke="none" fill-rule="evenodd" fill="black"></path></svg>