<svg width="136mm" height="120mm" version="1.1" viewBox="0 0 600 529.4117647058824" xmlns="http://www.w3.org/2000/svg"><path d="M120.795 94.237 L 120.795 113.084 237.734 113.084 C 302.051 113.084,354.674 113.278,354.674 113.514 C 354.674 114.357,263.854 295.562,263.432 295.562 C 263.195 295.562,238.018 283.069,207.483 267.799 L 151.963 240.037 143.615 256.759 C 139.024 265.957,135.384 273.588,135.527 273.719 C 136.211 274.344,376.174 394.082,376.743 394.082 C 377.102 394.082,381.112 386.640,385.653 377.544 L 393.909 361.006 345.619 336.865 L 297.329 312.724 356.414 195.050 C 388.911 130.329,415.499 76.929,415.500 76.383 C 415.500 75.634,379.286 75.390,268.147 75.390 L 120.795 75.390 120.795 94.237 " stroke="none" fill-rule="evenodd" fill="black"></path></svg>