<svg width="136mm" height="120mm" version="1.1" viewBox="0 0 600 529.4117647058824" xmlns="http://www.w3.org/2000/svg"><path d="M120.795 94.237 L 120.795 113.084 237.734 113.084 C 302.051 113.084,354.674 113.278,354.674 113.514 C 354.674 113.751,334.241 154.808,309.268 204.754 L 263.861 295.563 208.083 267.671 C 177.404 252.330,152.197 239.897,152.066 240.042 C 151.361 240.820,135.300 273.510,135.522 273.714 C 136.208 274.342,376.171 394.082,376.743 394.082 C 377.102 394.082,381.150 386.564,385.738 377.374 L 394.078 360.667 345.760 336.512 L 297.442 312.358 356.471 194.303 C 388.937 129.373,415.500 76.055,415.500 75.819 C 415.500 75.583,349.191 75.390,268.147 75.390 L 120.795 75.390 120.795 94.237 " stroke="none" fill-rule="evenodd" fill="black"></path></svg>