<svg width="136mm" height="120mm" version="1.1" viewBox="0 0 600 529.4117647058824" xmlns="http://www.w3.org/2000/svg"><path d="M143.497 52.829 C 134.545 57.333,127.102 61.125,126.957 61.256 C 126.398 61.763,167.965 143.926,168.780 143.926 C 169.255 143.926,176.963 140.262,185.910 135.784 L 202.176 127.642 181.408 86.095 C 169.985 63.245,160.445 44.569,160.207 44.594 C 159.969 44.619,152.450 48.325,143.497 52.829 M223.170 52.829 C 214.218 57.333,206.713 61.187,206.493 61.393 C 205.939 61.913,246.988 143.926,247.802 143.926 C 248.787 143.926,280.998 127.708,280.998 127.212 C 280.998 126.625,239.925 44.537,239.660 44.594 C 239.543 44.619,232.123 48.325,223.170 52.829 M330.898 111.801 C 312.405 148.790,297.275 179.436,297.275 179.904 C 297.275 180.611,328.889 197.041,330.248 197.041 C 330.783 197.041,398.567 61.589,398.200 61.256 C 397.847 60.936,365.033 44.548,364.746 44.548 C 364.622 44.548,349.390 74.812,330.898 111.801 M101.947 173.910 L 101.947 192.757 124.222 192.757 C 136.472 192.757,146.496 192.951,146.496 193.188 C 146.496 193.425,131.846 222.915,113.942 258.722 L 81.388 323.825 98.354 332.316 L 115.321 340.808 126.623 318.185 C 132.839 305.742,138.407 295.562,138.997 295.562 C 141.211 295.562,191.901 312.872,191.901 313.628 C 191.901 314.062,184.034 330.148,174.418 349.374 L 156.936 384.330 173.567 392.633 C 182.715 397.199,190.388 400.936,190.620 400.936 C 190.851 400.936,199.523 383.973,209.891 363.241 C 220.260 342.509,229.031 325.546,229.383 325.546 C 230.568 325.546,338.817 361.734,339.509 362.362 C 340.615 363.364,326.571 369.960,319.121 371.937 C 312.856 373.599,309.414 373.791,279.070 374.163 L 245.873 374.570 245.873 393.421 L 245.873 412.273 279.927 411.814 C 317.185 411.313,321.996 410.811,336.255 405.934 C 350.886 400.930,363.738 393.176,375.066 382.519 L 381.842 376.144 405.148 383.919 C 417.967 388.195,428.571 391.556,428.713 391.388 C 429.293 390.706,440.499 356.260,440.219 356.022 C 440.052 355.881,431.434 352.961,421.068 349.534 C 410.702 346.106,402.097 343.200,401.946 343.074 C 401.796 342.948,402.482 340.224,403.472 337.020 C 406.427 327.453,407.873 317.191,407.867 305.842 C 407.851 279.328,399.192 256.219,381.801 236.277 C 376.216 229.875,366.311 221.298,359.426 216.905 C 353.358 213.033,341.625 207.599,334.433 205.329 C 319.357 200.572,317.619 200.474,249.086 200.471 C 214.336 200.469,185.904 200.272,185.904 200.033 C 185.904 199.794,190.917 189.578,197.044 177.331 L 208.184 155.063 155.066 155.063 L 101.947 155.063 101.947 173.910 M229.596 238.598 C 229.596 240.208,209.672 278.428,208.832 278.428 C 208.253 278.428,195.959 274.494,181.512 269.687 L 155.244 260.946 160.921 249.554 L 166.599 238.163 198.097 238.163 C 215.421 238.163,229.596 238.359,229.596 238.598 M319.977 240.067 C 331.736 243.558,341.725 249.475,350.253 258.004 C 364.621 272.371,370.838 288.634,369.832 309.219 C 369.382 318.447,367.465 328.432,365.817 330.140 C 365.422 330.549,338.515 322.016,305.517 311.017 L 245.930 291.154 259.225 264.573 L 272.521 237.993 294.107 238.394 C 309.693 238.684,316.885 239.149,319.977 240.067 " stroke="none" fill-rule="evenodd" fill="black"></path></svg>