<svg width="136mm" height="120mm" version="1.1" viewBox="0 0 600 529.4117647058824" xmlns="http://www.w3.org/2000/svg"><path d="M143.497 52.829 C 134.545 57.333,127.102 61.125,126.957 61.256 C 126.398 61.763,167.965 143.926,168.780 143.926 C 169.255 143.926,176.963 140.262,185.910 135.784 L 202.176 127.642 181.408 86.095 C 169.985 63.245,160.445 44.569,160.207 44.594 C 159.969 44.619,152.450 48.325,143.497 52.829 M223.170 52.829 C 214.218 57.333,206.775 61.125,206.630 61.256 C 206.262 61.589,247.491 143.926,248.025 143.926 C 248.861 143.926,280.998 127.636,280.998 127.212 C 280.998 126.625,239.925 44.537,239.660 44.594 C 239.543 44.619,232.123 48.325,223.170 52.829 M330.898 111.801 C 312.405 148.790,297.275 179.436,297.275 179.904 C 297.275 180.611,328.889 197.041,330.248 197.041 C 330.783 197.041,398.567 61.589,398.200 61.256 C 397.847 60.936,365.033 44.548,364.746 44.548 C 364.622 44.548,349.390 74.812,330.898 111.801 M101.947 173.910 L 101.947 192.757 124.222 192.757 C 136.472 192.757,146.496 192.951,146.496 193.188 C 146.496 193.425,131.846 222.915,113.942 258.722 L 81.388 323.825 98.354 332.316 L 115.321 340.808 126.623 318.185 C 132.839 305.742,138.407 295.562,138.997 295.562 C 141.211 295.562,191.901 312.872,191.901 313.628 C 191.901 314.062,184.034 330.148,174.418 349.374 L 156.936 384.330 173.567 392.633 C 182.715 397.199,190.388 400.936,190.620 400.936 C 190.851 400.936,199.523 383.973,209.891 363.241 C 220.260 342.509,229.034 325.546,229.391 325.546 C 229.940 325.546,335.525 360.590,339.253 362.010 C 341.162 362.737,331.542 367.981,323.702 370.488 C 314.197 373.527,303.051 374.378,272.768 374.378 L 245.873 374.378 245.873 393.325 L 245.873 412.273 279.927 411.814 C 317.185 411.313,321.996 410.811,336.255 405.934 C 350.862 400.938,363.277 393.451,374.910 382.624 L 381.867 376.148 404.858 383.824 C 417.503 388.045,428.106 391.213,428.421 390.863 C 428.735 390.513,431.411 382.902,434.366 373.950 C 437.321 364.997,439.882 357.279,440.057 356.799 C 440.232 356.319,431.667 353.043,421.024 349.519 C 403.520 343.723,401.716 342.948,402.114 341.397 C 402.356 340.453,403.572 335.826,404.817 331.115 C 407.831 319.702,408.645 300.662,406.617 289.020 C 398.720 243.699,364.881 209.676,319.869 201.803 C 313.461 200.682,302.345 200.473,249.086 200.471 C 214.336 200.469,185.904 200.272,185.904 200.033 C 185.904 199.794,190.917 189.578,197.044 177.331 L 208.184 155.063 155.066 155.063 L 101.947 155.063 101.947 173.910 M229.596 238.586 C 229.596 238.819,225.096 248.019,219.596 259.031 L 209.596 279.053 183.071 270.201 C 168.483 265.333,156.328 261.131,156.060 260.863 C 155.793 260.595,158.049 255.378,161.075 249.270 L 166.576 238.163 198.086 238.163 C 215.416 238.163,229.596 238.353,229.596 238.586 M320.406 240.162 C 322.997 240.913,328.780 243.338,333.256 245.550 C 340.256 249.010,342.607 250.783,350.061 258.226 C 357.871 266.026,359.153 267.768,363.047 275.867 C 368.744 287.714,369.666 291.892,369.666 305.842 C 369.666 317.208,367.743 329.063,365.695 330.330 C 365.263 330.596,338.140 321.891,305.420 310.984 L 245.930 291.154 259.225 264.573 L 272.521 237.993 294.107 238.394 C 310.357 238.696,316.859 239.133,320.406 240.162 " stroke="none" fill-rule="evenodd" fill="black"></path></svg>