<svg width="136mm" height="120mm" version="1.1" viewBox="0 0 600 529.4117647058824" xmlns="http://www.w3.org/2000/svg"><path d="M143.497 52.829 C 134.545 57.333,127.102 61.125,126.957 61.256 C 126.398 61.763,167.965 143.926,168.780 143.926 C 169.255 143.926,176.963 140.262,185.910 135.784 L 202.176 127.642 181.408 86.095 C 169.985 63.245,160.445 44.569,160.207 44.594 C 159.969 44.619,152.450 48.325,143.497 52.829 M223.170 52.829 C 214.218 57.333,206.775 61.125,206.630 61.256 C 206.262 61.589,247.491 143.926,248.025 143.926 C 248.861 143.926,280.998 127.636,280.998 127.212 C 280.998 126.625,239.925 44.537,239.660 44.594 C 239.543 44.619,232.123 48.325,223.170 52.829 M330.898 111.801 C 312.405 148.790,297.275 179.436,297.275 179.904 C 297.275 180.611,328.889 197.041,330.248 197.041 C 330.783 197.041,398.567 61.589,398.200 61.256 C 397.847 60.936,365.033 44.548,364.746 44.548 C 364.622 44.548,349.390 74.812,330.898 111.801 M124.652 237.302 L 81.388 323.825 98.355 332.317 L 115.321 340.808 126.623 318.185 C 132.839 305.742,138.401 295.562,138.982 295.562 C 139.564 295.562,151.863 299.496,166.313 304.304 L 192.586 313.046 175.110 347.991 C 165.497 367.211,157.633 383.322,157.633 383.793 C 157.633 384.503,189.240 400.936,190.605 400.936 C 190.845 400.936,199.523 383.973,209.892 363.241 C 220.260 342.509,229.028 325.546,229.376 325.546 C 231.151 325.546,339.253 362.048,339.253 362.648 C 339.253 363.950,323.454 370.770,317.238 372.151 C 312.182 373.275,305.205 373.521,278.473 373.521 L 245.873 373.521 245.873 392.903 L 245.873 412.285 279.498 411.850 C 316.194 411.376,321.883 410.793,336.013 406.059 C 350.322 401.265,363.731 393.182,375.068 382.517 L 381.846 376.141 404.847 383.820 C 417.498 388.044,428.105 391.213,428.419 390.863 C 429.054 390.154,440.432 356.163,440.116 355.919 C 440.006 355.834,431.434 352.961,421.068 349.534 C 410.702 346.106,402.097 343.199,401.946 343.073 C 401.795 342.947,402.455 340.205,403.413 336.979 C 408.560 319.649,409.184 297.083,404.964 280.925 C 395.396 244.288,369.871 216.733,334.947 205.338 C 320.497 200.623,317.757 200.468,249.149 200.468 C 214.364 200.468,185.904 200.271,185.904 200.031 C 185.904 199.791,189.567 192.275,194.044 183.330 L 202.185 167.067 185.914 158.923 C 176.965 154.444,169.255 150.779,168.779 150.779 C 168.304 150.779,148.446 189.715,124.652 237.302 M229.596 238.598 C 229.596 240.226,209.667 278.428,208.817 278.428 C 206.631 278.428,155.919 261.120,155.919 260.374 C 155.919 259.947,158.322 254.775,161.258 248.880 L 166.596 238.163 198.096 238.163 C 215.421 238.163,229.596 238.359,229.596 238.598 M321.691 240.663 C 343.724 247.842,359.924 263.855,367.266 285.709 C 369.344 291.896,369.573 293.814,369.617 305.414 C 369.659 316.488,369.396 319.122,367.714 324.475 C 366.640 327.891,365.484 330.686,365.144 330.686 C 364.804 330.686,337.842 321.791,305.228 310.920 L 245.930 291.154 259.220 264.583 L 272.511 238.012 294.103 238.361 C 313.699 238.677,316.248 238.890,321.691 240.663 " stroke="none" fill-rule="evenodd" fill="black"></path></svg>