<svg width="136mm" height="120mm" version="1.1" viewBox="0 0 600 529.4117647058824" xmlns="http://www.w3.org/2000/svg"><path d="M117.350 119.974 C 99.720 155.244,85.476 184.271,85.697 184.478 C 85.918 184.685,93.518 188.562,102.585 193.092 L 119.073 201.329 129.789 179.909 L 140.505 158.489 155.066 158.489 L 169.627 158.489 169.627 202.181 L 169.627 245.873 145.211 245.873 L 120.795 245.873 120.795 264.720 L 120.795 283.568 145.211 283.568 L 169.627 283.568 169.627 336.255 L 169.627 388.942 188.902 388.942 L 208.178 388.942 208.178 336.255 L 208.178 283.568 232.594 283.568 L 257.010 283.568 257.010 336.255 L 257.010 388.942 275.857 388.942 L 294.705 388.942 294.705 336.255 L 294.705 283.568 319.121 283.568 L 343.537 283.568 343.537 336.255 L 343.537 388.942 362.812 388.942 L 382.088 388.942 382.088 336.269 L 382.088 283.596 404.577 283.368 L 427.065 283.139 427.296 264.506 L 427.527 245.873 404.807 245.873 L 382.088 245.873 382.088 202.181 L 382.088 158.489 404.791 158.489 L 427.493 158.489 427.493 139.642 L 427.493 120.795 293.417 120.795 L 159.340 120.795 171.338 96.812 L 183.335 72.828 166.370 64.338 L 149.404 55.847 117.350 119.974 M257.010 202.181 L 257.010 245.873 232.594 245.873 L 208.178 245.873 208.178 202.181 L 208.178 158.489 232.594 158.489 L 257.010 158.489 257.010 202.181 M343.537 202.181 L 343.537 245.873 319.121 245.873 L 294.705 245.873 294.705 202.181 L 294.705 158.489 319.121 158.489 L 343.537 158.489 343.537 202.181 " stroke="none" fill-rule="evenodd" fill="black"></path></svg>