<svg width="136mm" height="120mm" version="1.1" viewBox="0 0 600 529.4117647058824" xmlns="http://www.w3.org/2000/svg"><path d="M117.517 119.637 C 99.977 154.721,85.796 183.694,86.004 184.022 C 86.597 184.957,118.965 200.872,119.379 200.432 C 119.581 200.216,124.418 190.691,130.126 179.264 L 140.506 158.489 155.502 158.489 L 170.499 158.489 170.277 201.967 L 170.055 245.445 145.408 245.672 L 120.761 245.899 120.992 264.519 L 121.223 283.139 145.853 283.367 L 170.483 283.594 170.483 336.268 L 170.483 388.942 189.331 388.942 L 208.178 388.942 208.178 336.255 L 208.178 283.568 232.594 283.568 L 257.010 283.568 257.010 336.255 L 257.010 388.942 275.857 388.942 L 294.705 388.942 294.705 336.255 L 294.705 283.568 319.121 283.568 L 343.537 283.568 343.537 336.255 L 343.537 388.942 362.384 388.942 L 381.231 388.942 381.231 336.255 L 381.231 283.568 403.934 283.568 L 426.637 283.568 426.637 264.735 L 426.637 245.901 404.148 245.673 L 381.660 245.445 381.660 202.181 L 381.660 158.918 404.148 158.689 L 426.637 158.461 426.637 139.628 L 426.637 120.795 292.988 120.795 L 159.340 120.795 171.338 96.812 L 183.335 72.828 166.371 64.338 L 149.407 55.848 117.517 119.637 M257.010 202.181 L 257.010 245.873 232.594 245.873 L 208.178 245.873 208.178 202.181 L 208.178 158.489 232.594 158.489 L 257.010 158.489 257.010 202.181 M343.537 202.195 L 343.537 245.900 319.335 245.672 L 295.133 245.445 294.911 201.967 L 294.689 158.489 319.113 158.489 L 343.537 158.489 343.537 202.195 " stroke="none" fill-rule="evenodd" fill="black"></path></svg>