<svg width="136mm" height="120mm" version="1.1" viewBox="0 0 600 529.4117647058824" xmlns="http://www.w3.org/2000/svg"><path d="M167.061 131.499 L 77.543 221.020 90.807 234.305 L 104.071 247.589 122.078 229.597 L 140.085 211.605 166.421 211.605 C 180.906 211.605,192.757 211.704,192.757 211.825 C 192.757 211.946,181.967 244.410,168.779 283.968 C 155.591 323.526,145.086 356.148,145.434 356.461 C 145.782 356.774,153.392 359.448,162.345 362.403 C 171.297 365.359,179.064 367.938,179.604 368.136 C 180.231 368.366,187.995 346.264,201.017 307.185 L 221.448 245.873 225.950 245.873 C 228.426 245.873,230.452 245.972,230.452 246.093 C 230.452 246.215,220.622 275.800,208.606 311.839 C 196.591 347.878,186.761 377.820,186.761 378.377 C 186.761 379.381,221.475 391.394,222.155 390.626 C 222.349 390.406,233.289 357.844,246.467 318.264 L 270.426 246.301 276.939 246.052 L 283.452 245.803 261.252 312.391 C 249.042 349.015,239.141 379.048,239.250 379.132 C 240.734 380.272,274.481 390.643,274.970 390.109 C 275.342 389.703,286.196 357.665,299.090 318.915 C 320.809 253.645,322.661 248.498,324.254 248.983 C 328.623 250.314,338.504 255.722,343.729 259.644 C 354.468 267.703,363.237 280.552,367.659 294.705 C 369.362 300.158,369.666 302.944,369.666 313.124 C 369.666 327.341,368.492 332.632,362.825 343.965 C 356.285 357.041,345.951 367.369,332.828 373.946 C 324.018 378.361,317.508 380.251,308.626 380.973 L 302.415 381.479 302.415 400.332 L 302.415 419.185 310.768 418.663 C 352.448 416.059,390.137 386.051,403.044 345.193 C 409.410 325.042,409.373 300.794,402.946 281.107 C 391.023 244.581,361.505 218.196,323.185 209.812 C 315.525 208.136,311.538 207.950,274.787 207.559 C 252.759 207.324,234.736 206.874,234.736 206.557 C 234.736 206.241,237.049 199.068,239.876 190.616 C 242.703 182.164,245.016 174.947,245.016 174.579 C 245.016 174.211,229.885 173.910,211.392 173.910 L 177.768 173.910 217.388 134.289 L 257.009 94.668 333.476 171.132 L 409.943 247.595 423.210 234.307 L 436.477 221.020 346.959 131.499 C 297.724 82.263,257.247 41.978,257.010 41.978 C 256.773 41.978,216.296 82.263,167.061 131.499 " stroke="none" fill-rule="evenodd" fill="black"></path></svg>