<svg width="136mm" height="120mm" version="1.1" viewBox="0 0 600 529.4117647058824" xmlns="http://www.w3.org/2000/svg"><path d="M167.061 131.499 L 77.543 221.020 90.807 234.305 L 104.071 247.589 122.078 229.597 L 140.085 211.605 166.421 211.605 C 180.906 211.605,192.757 211.704,192.757 211.825 C 192.757 211.946,181.967 244.410,168.779 283.968 C 155.591 323.526,145.086 356.148,145.434 356.461 C 145.782 356.774,153.392 359.448,162.345 362.403 C 171.297 365.359,179.064 367.938,179.604 368.136 C 180.231 368.366,187.995 346.264,201.017 307.185 L 221.448 245.873 225.950 245.873 C 228.426 245.873,230.452 245.972,230.452 246.093 C 230.452 246.215,220.622 275.800,208.606 311.839 C 196.591 347.878,186.761 377.820,186.761 378.377 C 186.761 379.381,221.475 391.394,222.155 390.626 C 222.349 390.406,233.289 357.844,246.467 318.264 L 270.426 246.301 276.939 246.052 L 283.452 245.803 261.252 312.391 C 249.042 349.015,239.141 379.048,239.250 379.132 C 240.734 380.272,274.481 390.643,274.970 390.109 C 275.342 389.703,286.196 357.665,299.090 318.915 C 320.722 253.906,322.667 248.496,324.254 248.935 C 325.200 249.196,328.756 250.749,332.156 252.385 C 348.738 260.367,363.111 277.658,368.045 295.562 C 369.969 302.543,370.247 322.736,368.517 329.829 C 367.885 332.421,365.487 338.455,363.189 343.238 C 359.793 350.303,357.703 353.315,352.046 359.291 C 344.335 367.438,336.507 373.062,328.203 376.425 C 321.735 379.044,311.770 381.231,306.306 381.231 L 302.415 381.231 302.415 400.079 L 302.415 418.926 307.443 418.926 C 314.122 418.926,325.475 416.892,334.230 414.126 C 366.946 403.791,392.658 378.071,402.999 345.337 C 406.903 332.979,408.034 324.069,407.525 309.697 C 406.524 281.402,396.738 258.754,376.976 238.992 C 364.894 226.911,352.003 218.832,336.255 213.474 C 321.883 208.584,317.167 208.184,273.930 208.181 C 242.637 208.179,234.736 207.957,234.736 207.080 C 234.736 206.477,237.049 199.068,239.876 190.616 C 242.703 182.164,245.016 174.947,245.016 174.579 C 245.016 174.211,229.885 173.910,211.392 173.910 L 177.768 173.910 217.388 134.289 L 257.009 94.668 333.476 171.132 L 409.943 247.595 423.210 234.307 L 436.477 221.020 346.959 131.499 C 297.724 82.263,257.247 41.978,257.010 41.978 C 256.773 41.978,216.296 82.263,167.061 131.499 " stroke="none" fill-rule="evenodd" fill="black"></path></svg>