<svg width="136mm" height="120mm" version="1.1" viewBox="0 0 600 529.4117647058824" xmlns="http://www.w3.org/2000/svg"><path d="M167.061 131.499 L 77.543 221.020 90.807 234.305 L 104.071 247.589 122.078 229.597 L 140.085 211.605 166.421 211.605 C 180.906 211.605,192.757 211.704,192.757 211.825 C 192.757 211.946,181.967 244.410,168.779 283.968 C 155.591 323.526,145.086 356.148,145.434 356.461 C 145.782 356.774,153.392 359.448,162.345 362.403 C 171.297 365.359,179.064 367.938,179.604 368.136 C 180.231 368.366,187.995 346.264,201.017 307.185 L 221.448 245.873 225.950 245.873 C 228.426 245.873,230.452 245.972,230.452 246.093 C 230.452 246.215,220.622 275.800,208.606 311.839 C 196.591 347.878,186.761 377.820,186.761 378.377 C 186.761 379.381,221.475 391.394,222.155 390.626 C 222.349 390.406,233.289 357.844,246.467 318.264 L 270.426 246.301 277.103 246.049 C 283.238 245.817,283.729 245.922,283.152 247.334 C 281.840 250.548,239.054 378.979,239.246 379.128 C 240.719 380.267,274.480 390.645,274.970 390.109 C 275.342 389.703,286.196 357.665,299.090 318.915 C 320.722 253.906,322.667 248.496,324.254 248.935 C 328.945 250.231,339.103 255.947,344.656 260.414 C 355.736 269.327,364.676 282.617,368.012 295.133 C 371.497 308.211,370.289 327.562,365.232 339.637 C 358.715 355.199,343.643 370.173,328.203 376.425 C 321.735 379.044,311.770 381.231,306.306 381.231 L 302.415 381.231 302.415 400.208 L 302.415 419.185 310.768 418.665 C 345.429 416.509,378.751 394.720,395.769 363.084 C 400.206 354.835,404.850 341.293,406.550 331.650 C 408.239 322.060,408.215 304.910,406.497 295.133 C 399.883 257.490,372.558 225.716,336.255 213.455 C 321.826 208.582,317.126 208.184,273.930 208.181 C 242.637 208.179,234.736 207.957,234.736 207.080 C 234.736 206.477,237.049 199.068,239.876 190.616 C 242.703 182.164,245.016 174.947,245.016 174.579 C 245.016 174.211,229.885 173.910,211.392 173.910 L 177.768 173.910 217.388 134.289 L 257.009 94.668 333.476 171.132 L 409.943 247.595 423.210 234.307 L 436.477 221.020 346.959 131.499 C 297.724 82.263,257.247 41.978,257.010 41.978 C 256.773 41.978,216.296 82.263,167.061 131.499 " stroke="none" fill-rule="evenodd" fill="black"></path></svg>