<svg width="136mm" height="120mm" version="1.1" viewBox="0 0 600 529.4117647058824" xmlns="http://www.w3.org/2000/svg"><path d="M238.163 83.476 L 238.163 106.126 234.522 106.545 C 232.519 106.776,226.640 107.416,221.457 107.969 C 154.247 115.137,102.789 144.192,89.924 182.235 L 87.090 190.616 87.023 214.175 L 86.955 237.734 105.802 237.734 L 124.650 237.734 125.078 215.460 L 125.507 193.186 128.045 188.902 C 141.390 166.381,183.307 148.989,234.950 144.546 L 238.163 144.270 238.163 154.808 L 238.163 165.346 184.619 272.431 C 155.170 331.327,131.075 379.810,131.075 380.169 C 131.075 380.529,138.593 384.577,147.782 389.164 L 164.490 397.505 210.534 305.411 C 235.858 254.760,256.772 213.318,257.010 213.318 C 257.248 213.318,278.162 254.760,303.486 305.411 L 349.530 397.505 366.238 389.164 C 375.427 384.577,382.945 380.529,382.945 380.169 C 382.945 379.810,358.850 331.327,329.401 272.431 L 275.857 165.346 275.857 154.808 L 275.857 144.270 279.070 144.546 C 330.713 148.989,372.630 166.381,385.975 188.902 L 388.513 193.186 388.942 215.460 L 389.370 237.734 408.218 237.734 L 427.065 237.734 427.323 220.172 C 427.634 199.052,426.629 189.137,423.239 179.847 C 409.979 143.516,358.053 114.954,292.563 107.969 C 287.380 107.416,281.501 106.776,279.498 106.545 L 275.857 106.126 275.857 83.476 L 275.857 60.826 257.010 60.826 L 238.163 60.826 238.163 83.476 " stroke="none" fill-rule="evenodd" fill="black"></path></svg>