<svg width="136mm" height="120mm" version="1.1" viewBox="0 0 600 529.4117647058824" xmlns="http://www.w3.org/2000/svg"><path d="M107.033 144.568 C 88.548 200.050,73.282 245.835,73.108 246.312 C 72.787 247.194,107.727 259.226,108.465 258.488 C 108.686 258.267,116.305 235.773,125.397 208.502 L 141.928 158.918 167.343 158.691 C 181.321 158.566,192.757 158.568,192.757 158.695 C 192.757 158.822,176.797 206.804,157.290 265.321 L 121.822 371.717 139.774 377.708 C 152.120 381.829,157.846 383.381,158.112 382.680 C 158.324 382.119,175.202 331.543,195.617 270.289 L 232.737 158.918 254.297 158.689 C 266.892 158.555,275.857 158.785,275.857 159.242 C 275.857 159.672,259.915 207.661,240.430 265.884 L 205.002 371.744 222.859 377.704 C 232.681 380.981,240.861 383.405,241.038 383.090 C 241.214 382.775,258.040 332.400,278.429 271.146 C 298.818 209.892,315.593 159.661,315.706 159.523 C 315.819 159.384,319.718 160.048,324.370 160.997 C 352.647 166.769,375.653 181.247,392.875 204.109 C 430.593 254.179,420.115 325.466,369.525 362.976 C 348.963 378.222,324.833 385.512,294.919 385.514 L 286.995 385.515 286.995 404.498 L 286.995 423.481 302.629 422.912 C 318.908 422.320,328.064 421.149,339.720 418.171 C 393.230 404.496,435.374 362.264,448.827 308.835 C 454.820 285.032,454.803 257.657,448.781 234.736 C 441.354 206.472,427.759 183.305,406.800 163.201 C 395.005 151.887,384.274 144.351,369.666 137.122 C 350.662 127.717,335.155 123.357,314.682 121.661 C 309.105 121.199,270.982 120.816,229.810 120.808 C 188.699 120.801,155.063 120.500,155.063 120.139 C 155.063 119.779,159.875 105.058,165.757 87.427 C 171.639 69.796,176.318 55.238,176.157 55.076 C 175.634 54.554,142.726 43.692,141.666 43.692 C 141.067 43.692,126.668 85.632,107.033 144.568 " stroke="none" fill-rule="evenodd" fill="black"></path></svg>