<svg width="136mm" height="120mm" version="1.1" viewBox="0 0 600 529.4117647058824" xmlns="http://www.w3.org/2000/svg"><path d="M106.799 145.217 C 76.975 234.685,73.126 246.830,74.387 247.477 C 78.420 249.548,108.189 258.812,108.769 258.177 C 109.140 257.771,116.849 235.175,125.899 207.964 L 142.355 158.489 167.556 158.489 C 181.417 158.489,192.757 158.779,192.757 159.132 C 192.757 159.485,176.908 207.323,157.536 265.438 C 138.165 323.553,122.648 371.404,123.054 371.774 C 123.461 372.144,131.428 374.979,140.759 378.074 C 152.459 381.953,157.845 383.383,158.112 382.680 C 158.324 382.119,175.202 331.543,195.617 270.289 L 232.737 158.918 254.297 158.689 C 266.155 158.563,275.857 158.756,275.857 159.117 C 275.857 159.479,260.008 207.323,240.636 265.438 C 221.265 323.553,205.748 371.404,206.154 371.774 C 207.392 372.902,240.694 383.705,241.037 383.090 C 241.214 382.775,258.040 332.400,278.429 271.146 C 298.818 209.892,315.606 159.648,315.735 159.494 C 316.359 158.748,331.656 162.312,339.403 165.008 C 350.247 168.783,355.657 171.494,365.558 178.116 C 391.681 195.590,409.036 223.051,414.330 255.286 C 415.972 265.282,415.514 284.165,413.385 294.276 C 406.217 328.323,384.593 356.814,353.991 372.534 C 337.325 381.094,323.442 384.423,300.916 385.260 L 286.995 385.778 286.995 404.494 L 286.995 423.210 296.698 423.210 C 329.160 423.210,357.337 415.541,382.517 399.854 C 420.749 376.034,446.634 335.128,452.292 289.587 C 457.211 249.996,444.890 207.862,419.149 176.255 C 399.852 152.560,370.122 133.419,340.967 125.918 C 322.874 121.263,325.971 121.409,237.520 121.050 C 192.169 120.866,155.063 120.631,155.063 120.528 C 155.063 120.425,159.882 105.895,165.771 88.240 C 171.661 70.585,176.480 55.877,176.480 55.555 C 176.480 54.951,143.415 43.692,141.641 43.692 C 141.077 43.692,125.923 87.849,106.799 145.217 " stroke="none" fill-rule="evenodd" fill="black"></path></svg>