<svg width="136mm" height="120mm" version="1.1" viewBox="0 0 600 529.4117647058824" xmlns="http://www.w3.org/2000/svg"><path d="M107.033 144.568 C 88.548 200.050,73.282 245.835,73.108 246.312 C 72.699 247.437,107.892 259.138,108.775 258.171 C 109.142 257.768,116.849 235.175,125.899 207.964 L 142.355 158.489 167.556 158.489 C 181.417 158.489,192.757 158.779,192.757 159.132 C 192.757 159.485,176.908 207.323,157.536 265.438 C 138.165 323.553,122.648 371.404,123.054 371.774 C 123.461 372.144,131.428 374.979,140.759 378.074 C 152.459 381.953,157.845 383.383,158.112 382.680 C 158.324 382.119,175.202 331.543,195.617 270.289 L 232.737 158.918 254.297 158.689 C 266.155 158.563,275.857 158.756,275.857 159.117 C 275.857 159.479,260.008 207.323,240.636 265.438 C 221.265 323.553,205.748 371.404,206.154 371.774 C 207.392 372.902,240.694 383.705,241.037 383.090 C 241.214 382.775,258.040 332.400,278.429 271.146 C 298.818 209.892,315.548 159.706,315.606 159.623 C 315.664 159.539,318.804 160.008,322.583 160.664 C 365.445 168.102,401.432 201.651,411.999 244.022 C 423.228 289.054,406.538 335.533,369.195 363.221 C 362.371 368.280,350.714 374.668,342.680 377.750 C 329.958 382.631,312.231 385.513,294.919 385.514 L 286.995 385.515 286.995 404.498 L 286.995 423.481 302.629 422.912 C 325.258 422.089,339.934 419.280,357.318 412.443 C 377.826 404.379,393.214 394.228,409.096 378.287 C 437.840 349.435,453.129 312.609,453.179 272.104 C 453.243 219.756,426.387 171.385,381.928 143.768 C 361.429 131.035,339.059 123.680,314.682 121.661 C 309.105 121.199,270.982 120.816,229.810 120.808 C 188.699 120.801,155.063 120.693,155.063 120.568 C 155.063 120.443,159.882 105.895,165.771 88.240 C 171.661 70.585,176.480 55.877,176.480 55.555 C 176.480 54.951,143.415 43.692,141.641 43.692 C 141.076 43.692,126.038 87.525,107.033 144.568 " stroke="none" fill-rule="evenodd" fill="black"></path></svg>