<svg width="136mm" height="120mm" version="1.1" viewBox="0 0 600 529.4117647058824" xmlns="http://www.w3.org/2000/svg"><path d="M116.619 147.994 C 89.231 202.768,66.823 247.775,66.823 248.009 C 66.823 248.242,73.645 251.849,81.984 256.024 L 97.145 263.614 92.635 265.112 C 90.056 265.968,88.279 267.031,88.484 267.593 C 88.682 268.133,93.752 283.321,99.751 301.344 C 105.749 319.367,110.914 334.113,111.228 334.113 C 111.775 334.113,145.857 322.903,146.266 322.589 C 146.375 322.505,141.363 307.194,135.129 288.563 L 123.793 254.690 112.870 258.357 C 106.863 260.374,101.947 261.860,101.947 261.660 C 101.947 260.857,165.797 133.645,166.200 133.645 C 166.438 133.645,180.992 162.366,198.542 197.469 C 216.092 232.573,230.144 261.293,229.769 261.293 C 229.394 261.293,224.556 259.771,219.017 257.910 C 211.915 255.524,208.833 254.830,208.560 255.555 C 206.561 260.860,186.761 321.054,186.761 321.829 C 186.761 322.838,221.471 334.856,222.155 334.083 C 223.186 332.917,244.256 267.920,243.901 266.996 C 243.670 266.394,241.803 265.398,239.751 264.783 L 236.021 263.664 249.300 257.000 C 256.603 253.335,262.669 250.419,262.780 250.519 C 262.891 250.620,260.132 259.233,256.649 269.658 L 250.317 288.614 268.268 294.605 C 286.034 300.534,286.228 300.577,286.916 298.721 C 287.298 297.690,291.033 286.534,295.215 273.930 C 299.397 261.326,303.021 251.013,303.267 251.013 C 303.513 251.013,312.768 260.073,323.833 271.146 L 343.953 291.280 327.771 339.897 C 318.871 366.636,311.427 388.954,311.230 389.492 C 311.006 390.100,317.631 392.727,328.750 396.437 L 346.630 402.405 360.179 361.727 L 373.728 321.050 403.178 350.491 L 432.628 379.931 445.913 366.667 L 459.198 353.403 423.107 317.305 L 387.016 281.206 414.108 199.930 C 429.009 155.227,441.201 118.364,441.201 118.010 C 441.201 117.657,420.190 117.368,394.510 117.368 C 368.831 117.368,347.820 117.070,347.820 116.705 C 347.820 116.341,350.904 106.808,354.674 95.522 C 358.443 84.236,361.527 74.735,361.527 74.410 C 361.527 73.801,328.475 62.539,326.686 62.539 C 326.120 62.539,312.548 101.957,295.420 153.349 C 278.774 203.295,264.960 244.160,264.722 244.160 C 264.483 244.160,242.267 200.115,215.352 146.282 L 166.415 48.404 116.619 147.994 M388.942 155.714 C 388.942 156.257,359.086 246.284,357.637 250.112 C 357.074 251.599,316.979 211.927,316.979 209.882 C 316.979 208.899,332.120 162.484,334.513 156.134 C 334.824 155.308,341.105 155.063,361.929 155.063 C 376.786 155.063,388.942 155.356,388.942 155.714 M147.352 275.770 L 147.352 358.782 137.300 355.501 C 131.771 353.696,127.134 352.333,126.995 352.471 C 126.856 352.610,124.091 360.660,120.849 370.359 L 114.956 387.995 148.931 399.303 C 167.617 405.523,183.387 410.789,183.976 411.005 C 184.829 411.319,185.047 389.174,185.047 302.078 L 185.047 192.757 166.200 192.757 L 147.352 192.757 147.352 275.770 " stroke="none" fill-rule="evenodd" fill="black"></path></svg>