<svg width="136mm" height="120mm" version="1.1" viewBox="0 0 600 529.4117647058824" xmlns="http://www.w3.org/2000/svg"><path d="M143.514 94.238 C 130.917 119.446,108.293 164.441,93.237 194.226 L 65.863 248.382 81.121 256.042 C 95.763 263.394,96.281 263.741,93.967 264.640 C 92.641 265.155,91.291 265.583,90.969 265.590 C 87.708 265.663,88.058 267.174,98.952 299.960 C 104.958 318.037,110.175 333.160,110.546 333.567 C 111.034 334.101,144.783 323.729,146.266 322.589 C 146.942 322.069,123.894 255.297,123.038 255.297 C 122.467 255.297,117.488 256.812,111.973 258.665 C 106.459 260.518,101.947 261.867,101.947 261.665 C 101.947 260.859,165.795 133.645,166.200 133.645 C 166.438 133.645,180.992 162.366,198.542 197.469 C 216.092 232.573,230.144 261.293,229.769 261.293 C 229.394 261.293,224.556 259.771,219.017 257.910 C 211.915 255.524,208.833 254.830,208.560 255.555 C 206.572 260.829,186.761 321.052,186.761 321.821 C 186.761 323.110,220.952 334.558,221.843 333.567 C 222.208 333.160,227.552 317.914,233.719 299.686 L 244.932 266.543 240.522 265.079 L 236.113 263.614 249.346 256.975 C 256.624 253.324,262.669 250.419,262.780 250.519 C 262.891 250.620,260.132 259.233,256.649 269.658 L 250.317 288.614 268.268 294.605 C 286.034 300.534,286.228 300.577,286.916 298.721 C 287.298 297.690,291.033 286.534,295.215 273.930 C 299.397 261.326,303.021 251.013,303.267 251.013 C 303.513 251.013,312.768 260.073,323.833 271.146 L 343.953 291.280 327.771 339.897 C 318.871 366.636,311.427 388.954,311.230 389.492 C 311.006 390.100,317.676 392.742,328.875 396.479 L 346.881 402.488 360.409 361.874 L 373.937 321.259 403.286 350.599 L 432.635 379.938 446.125 366.448 L 459.615 352.958 423.527 316.871 L 387.439 280.783 414.679 199.075 L 441.918 117.368 394.869 117.368 C 368.992 117.368,347.820 117.070,347.820 116.705 C 347.820 116.341,350.904 106.808,354.674 95.522 C 358.443 84.236,361.527 74.735,361.527 74.410 C 361.527 73.801,328.475 62.539,326.686 62.539 C 326.120 62.539,312.548 101.957,295.420 153.349 C 278.774 203.295,264.960 244.160,264.722 244.160 C 264.483 244.160,242.267 200.115,215.352 146.283 L 166.416 48.406 143.514 94.238 M388.942 155.705 C 388.942 156.548,357.971 249.610,357.520 250.120 C 357.330 250.335,348.038 241.375,336.871 230.208 L 316.568 209.904 325.032 184.411 C 329.688 170.390,333.819 158.050,334.212 156.990 L 334.927 155.063 361.935 155.063 C 376.789 155.063,388.942 155.352,388.942 155.705 M147.352 275.857 C 147.352 321.562,147.238 358.957,147.098 358.957 C 146.958 358.957,142.354 357.449,136.866 355.605 L 126.889 352.253 120.925 370.125 L 114.960 387.997 148.933 399.304 C 167.618 405.523,183.387 410.789,183.976 411.005 C 184.829 411.319,185.047 389.174,185.047 302.078 L 185.047 192.757 166.200 192.757 L 147.352 192.757 147.352 275.857 " stroke="none" fill-rule="evenodd" fill="black"></path></svg>