<svg width="136mm" height="120mm" version="1.1" viewBox="0 0 600 529.4117647058824" xmlns="http://www.w3.org/2000/svg"><path d="M343.265 55.043 C 341.183 93.149,321.399 130.733,290.850 154.615 C 274.211 167.623,257.803 175.749,237.938 180.821 C 223.551 184.494,215.268 185.013,170.697 185.030 L 128.505 185.047 128.505 294.704 L 128.505 404.361 210.319 363.457 L 292.133 322.553 333.905 364.318 L 375.676 406.083 389.203 392.536 L 402.729 378.990 322.523 299.074 C 278.410 255.120,242.443 219.057,242.596 218.932 C 242.749 218.808,247.693 217.338,253.583 215.665 C 316.513 197.793,365.163 144.975,378.182 80.390 C 379.884 71.944,382.088 52.862,382.088 46.566 C 382.088 45.624,378.477 45.405,362.940 45.405 L 343.791 45.405 343.265 55.043 M136.001 64.347 L 119.082 72.828 139.644 113.945 C 150.953 136.560,160.595 155.063,161.070 155.063 C 161.545 155.063,169.254 151.398,178.202 146.920 L 194.470 138.777 173.815 97.445 C 162.455 74.713,153.107 56.058,153.041 55.990 C 152.975 55.923,145.307 59.683,136.001 64.347 M222.956 64.077 C 213.886 68.638,206.465 72.666,206.465 73.027 C 206.465 73.388,215.717 92.185,227.026 114.798 L 247.587 155.913 264.292 147.574 C 273.480 142.987,280.998 138.939,280.998 138.578 C 280.998 137.839,239.991 55.658,239.660 55.734 C 239.543 55.761,232.026 59.515,222.956 64.077 M225.095 231.947 L 213.320 243.722 238.730 269.143 L 264.140 294.564 215.170 319.052 L 166.200 343.540 166.200 283.141 L 166.200 222.742 191.687 222.676 C 207.456 222.636,220.113 222.192,224.884 221.514 C 238.207 219.617,238.192 218.850,225.095 231.947 " stroke="none" fill-rule="evenodd" fill="black"></path></svg>