<svg width="136mm" height="120mm" version="1.1" viewBox="0 0 600 529.4117647058824" xmlns="http://www.w3.org/2000/svg"><path d="M343.289 55.043 C 342.165 76.621,335.026 98.918,322.855 118.870 C 306.783 145.216,277.597 168.394,248.871 177.624 C 227.733 184.415,221.450 185.010,170.697 185.030 L 128.505 185.047 128.505 294.704 L 128.505 404.361 210.319 363.457 L 292.133 322.553 333.905 364.318 L 375.677 406.083 388.734 393.005 C 395.916 385.812,401.792 379.496,401.792 378.969 C 401.792 378.443,365.939 342.449,322.119 298.984 C 278.299 255.518,242.446 219.677,242.446 219.337 C 242.446 218.996,245.819 217.842,249.942 216.772 C 298.202 204.244,341.069 169.057,363.217 123.793 C 374.189 101.369,381.172 73.864,381.216 52.901 L 381.231 45.405 362.511 45.405 L 343.791 45.405 343.289 55.043 M136.644 64.011 C 127.691 68.490,120.186 72.324,119.967 72.530 C 119.412 73.050,160.461 155.063,161.275 155.063 C 161.637 155.063,169.254 151.398,178.202 146.920 L 194.470 138.777 173.815 97.445 C 162.455 74.713,153.107 56.058,153.041 55.990 C 152.975 55.922,145.596 59.532,136.644 64.011 M222.956 64.077 C 213.886 68.638,206.465 72.666,206.465 73.027 C 206.465 73.388,215.717 92.185,227.026 114.798 L 247.587 155.913 264.292 147.574 C 273.480 142.987,280.998 138.939,280.998 138.578 C 280.998 137.839,239.991 55.658,239.660 55.734 C 239.543 55.761,232.026 59.515,222.956 64.077 M225.095 231.947 L 213.320 243.722 238.730 269.143 L 264.140 294.564 216.030 318.622 C 189.569 331.854,167.532 342.680,167.060 342.680 C 166.493 342.680,166.200 322.291,166.200 282.809 L 166.200 222.938 195.542 222.451 C 211.680 222.183,226.619 221.609,228.739 221.175 C 237.689 219.344,237.685 219.357,225.095 231.947 " stroke="none" fill-rule="evenodd" fill="black"></path></svg>