<svg width="136mm" height="120mm" version="1.1" viewBox="0 0 600 529.4117647058824" xmlns="http://www.w3.org/2000/svg"><path d="M343.537 50.979 C 343.537 63.446,339.726 81.677,334.088 96.184 C 317.895 137.852,281.805 169.621,237.938 180.821 C 223.551 184.494,215.268 185.013,170.697 185.030 L 128.505 185.047 128.505 294.704 L 128.505 404.361 210.319 363.457 L 292.133 322.553 333.905 364.318 L 375.677 406.083 388.943 392.796 L 402.209 379.509 322.150 299.447 C 278.117 255.413,242.267 219.232,242.483 219.046 C 242.698 218.859,247.693 217.339,253.583 215.668 C 326.056 195.102,378.262 128.654,381.464 52.901 L 381.781 45.405 362.659 45.405 L 343.537 45.405 343.537 50.979 M136.644 64.011 C 127.691 68.490,120.186 72.324,119.967 72.530 C 119.412 73.050,160.461 155.063,161.275 155.063 C 161.637 155.063,169.254 151.398,178.202 146.920 L 194.470 138.777 173.815 97.445 C 162.455 74.713,153.107 56.058,153.041 55.990 C 152.975 55.922,145.596 59.532,136.644 64.011 M222.956 64.077 C 213.886 68.638,206.465 72.666,206.465 73.027 C 206.465 73.388,215.717 92.185,227.026 114.798 L 247.587 155.913 264.292 147.574 C 273.480 142.987,280.998 138.939,280.998 138.578 C 280.998 137.839,239.991 55.658,239.660 55.734 C 239.543 55.761,232.026 59.515,222.956 64.077 M225.095 231.947 L 213.320 243.722 238.730 269.143 L 264.140 294.564 216.030 318.622 C 189.569 331.854,167.532 342.680,167.060 342.680 C 166.493 342.680,166.200 322.259,166.200 282.711 L 166.200 222.742 191.687 222.676 C 207.456 222.636,220.113 222.192,224.884 221.514 C 238.207 219.617,238.192 218.850,225.095 231.947 " stroke="none" fill-rule="evenodd" fill="black"></path></svg>