<svg width="136mm" height="120mm" version="1.1" viewBox="0 0 600 529.4117647058824" xmlns="http://www.w3.org/2000/svg"><path d="M238.163 65.966 L 238.163 94.237 170.055 94.237 L 101.947 94.237 101.947 113.084 L 101.947 131.932 170.055 131.932 L 238.163 131.932 238.163 169.621 L 238.163 207.311 170.269 207.530 L 102.376 207.750 102.376 226.597 L 102.376 245.445 156.768 245.665 L 211.160 245.886 142.414 314.636 L 73.668 383.386 86.955 396.652 L 100.243 409.919 178.626 331.539 L 257.010 253.158 335.394 331.539 L 413.777 409.919 427.065 396.652 L 440.352 383.386 371.600 314.629 L 302.847 245.873 355.318 245.873 L 407.789 245.873 407.789 226.597 L 407.789 207.321 341.823 207.321 L 275.857 207.321 275.857 169.627 L 275.857 131.932 341.823 131.932 L 407.789 131.932 407.789 113.084 L 407.789 94.237 341.823 94.237 L 275.857 94.237 275.857 65.966 L 275.857 37.695 257.010 37.695 L 238.163 37.695 238.163 65.966 " stroke="none" fill-rule="evenodd" fill="black"></path></svg>