<svg width="136mm" height="120mm" version="1.1" viewBox="0 0 600 529.4117647058824" xmlns="http://www.w3.org/2000/svg"><path d="M238.163 65.966 L 238.163 94.237 170.055 94.237 L 101.947 94.237 101.947 113.084 L 101.947 131.932 170.055 131.932 L 238.163 131.932 238.163 170.055 L 238.163 208.178 170.055 208.178 L 101.947 208.178 101.947 227.025 L 101.947 245.873 156.560 245.873 L 211.173 245.873 142.420 314.629 L 73.668 383.386 86.955 396.652 L 100.243 409.919 178.626 331.539 L 257.010 253.158 335.394 331.539 L 413.777 409.919 427.065 396.652 L 440.352 383.386 371.606 314.636 L 302.861 245.886 355.539 245.665 L 408.218 245.445 408.448 226.811 L 408.679 208.178 342.268 208.178 L 275.857 208.178 275.857 170.055 L 275.857 131.932 342.268 131.932 L 408.679 131.932 408.448 113.299 L 408.218 94.665 342.037 94.446 L 275.857 94.226 275.857 65.961 L 275.857 37.695 257.010 37.695 L 238.163 37.695 238.163 65.966 " stroke="none" fill-rule="evenodd" fill="black"></path></svg>