<svg width="136mm" height="120mm" version="1.1" viewBox="0 0 600 529.4117647058824" xmlns="http://www.w3.org/2000/svg"><path d="M236.878 76.332 C 197.395 78.447,161.084 87.287,131.503 101.984 C 98.494 118.385,79.128 139.173,73.276 164.486 C 72.291 168.745,71.985 175.850,71.975 194.685 L 71.963 219.315 90.751 219.315 L 109.538 219.315 109.812 195.113 L 110.086 170.912 112.990 165.343 C 116.334 158.929,125.405 149.458,133.305 144.131 C 178.642 113.563,266.154 104.528,333.574 123.455 C 350.828 128.299,369.304 136.408,380.660 144.120 C 388.690 149.572,397.739 158.997,401.039 165.343 L 403.934 170.912 404.208 195.113 L 404.482 219.315 423.325 219.315 L 442.167 219.315 441.896 192.543 L 441.624 165.771 438.888 157.934 C 434.622 145.716,430.089 138.821,418.926 127.571 C 407.291 115.846,398.035 109.406,380.803 101.051 C 351.059 86.628,316.035 78.455,274.572 76.260 C 256.816 75.320,255.729 75.322,236.878 76.332 M166.841 284.853 L 124.223 370.094 251.014 370.094 C 320.749 370.094,377.805 369.900,377.805 369.663 C 377.805 369.426,365.468 344.562,350.390 314.409 L 322.976 259.586 306.270 267.926 C 297.082 272.512,289.565 276.561,289.565 276.923 C 289.565 277.285,295.734 289.915,303.274 304.990 L 316.984 332.400 251.444 332.400 C 215.397 332.400,185.904 332.206,185.904 331.969 C 185.904 331.732,198.819 305.711,214.603 274.144 C 230.388 242.577,243.303 216.558,243.303 216.324 C 243.303 215.830,211.093 199.611,210.112 199.611 C 209.753 199.611,190.281 237.970,166.841 284.853 " stroke="none" fill-rule="evenodd" fill="black"></path></svg>