<svg width="136mm" height="120mm" version="1.1" viewBox="0 0 600 529.4117647058824" xmlns="http://www.w3.org/2000/svg"><path d="M239.448 75.956 C 188.177 79.042,143.745 91.846,113.108 112.362 C 96.931 123.194,82.426 139.648,76.913 153.418 C 72.665 164.030,71.963 170.031,71.963 195.720 L 71.963 219.315 90.751 219.315 L 109.538 219.315 109.812 195.113 L 110.086 170.912 112.981 165.343 C 116.433 158.703,125.421 149.517,134.074 143.783 C 155.992 129.260,186.146 119.606,223.599 115.123 C 240.529 113.097,273.402 113.090,290.421 115.111 C 345.591 121.661,388.406 141.206,401.200 165.681 L 403.934 170.912 404.208 195.113 L 404.482 219.315 423.269 219.315 L 442.057 219.315 442.057 195.720 C 442.057 170.031,441.355 164.030,437.107 153.418 C 431.762 140.068,418.056 124.271,402.221 113.212 C 387.037 102.608,362.358 91.884,338.825 85.662 C 309.162 77.820,270.774 74.071,239.448 75.956 M167.486 284.423 C 144.162 331.069,125.078 369.428,125.078 369.664 C 125.078 369.901,181.942 370.094,251.441 370.094 C 320.941 370.094,377.805 369.900,377.805 369.663 C 377.805 369.426,365.468 344.562,350.390 314.409 L 322.976 259.586 306.270 267.926 C 297.082 272.512,289.565 276.561,289.565 276.923 C 289.565 277.285,295.734 289.915,303.274 304.990 L 316.984 332.400 251.444 332.400 C 215.397 332.400,185.904 332.206,185.904 331.969 C 185.904 331.732,198.819 305.711,214.603 274.144 C 230.388 242.577,243.303 216.558,243.303 216.324 C 243.303 215.900,211.165 199.611,210.329 199.611 C 210.089 199.611,190.810 237.776,167.486 284.423 " stroke="none" fill-rule="evenodd" fill="black"></path></svg>