<svg width="136mm" height="120mm" version="1.1" viewBox="0 0 600 529.4117647058824" xmlns="http://www.w3.org/2000/svg"><path d="M236.878 76.332 C 189.061 78.894,143.088 92.271,113.139 112.339 C 98.613 122.072,85.321 136.140,79.247 148.209 C 72.815 160.989,72.516 162.859,72.157 192.543 L 71.834 219.315 90.685 219.315 L 109.537 219.315 109.811 195.520 L 110.086 171.725 112.983 165.843 C 121.257 149.046,147.077 132.823,180.446 123.455 C 227.357 110.286,286.663 110.286,333.574 123.455 C 366.943 132.823,392.763 149.046,401.037 165.843 L 403.934 171.725 404.209 195.520 L 404.483 219.315 423.335 219.315 L 442.186 219.315 441.863 192.543 C 441.558 167.340,441.423 165.420,439.558 159.775 C 435.064 146.176,428.666 136.503,416.518 124.943 C 387.400 97.233,335.679 79.495,274.572 76.260 C 256.816 75.320,255.729 75.322,236.878 76.332 M167.486 284.423 C 144.162 331.069,125.078 369.428,125.078 369.664 C 125.078 369.901,181.942 370.094,251.441 370.094 C 320.941 370.094,377.805 369.900,377.805 369.663 C 377.805 369.426,365.468 344.562,350.390 314.409 L 322.976 259.586 306.270 267.926 C 297.082 272.512,289.565 276.561,289.565 276.923 C 289.565 277.285,295.734 289.915,303.274 304.990 L 316.984 332.400 251.444 332.400 C 215.397 332.400,185.904 332.206,185.904 331.969 C 185.904 331.732,198.819 305.711,214.603 274.144 C 230.388 242.577,243.303 216.558,243.303 216.324 C 243.303 215.900,211.165 199.611,210.329 199.611 C 210.089 199.611,190.810 237.776,167.486 284.423 " stroke="none" fill-rule="evenodd" fill="black"></path></svg>