<svg width="136mm" height="120mm" version="1.1" viewBox="0 0 600 529.4117647058824" xmlns="http://www.w3.org/2000/svg"><path d="M264.720 101.947 L 264.720 120.795 304.129 120.795 C 335.084 120.795,343.537 121.024,343.537 121.866 C 343.537 122.455,325.185 177.993,302.754 245.284 C 280.324 312.575,262.108 367.747,262.275 367.889 C 262.957 368.468,297.402 379.673,297.640 379.393 C 297.781 379.226,308.795 346.362,322.115 306.361 L 346.332 233.632 357.571 234.138 C 363.752 234.416,371.122 235.247,373.950 235.983 C 393.076 240.968,410.014 256.812,416.279 275.580 C 425.442 303.029,412.784 334.473,387.214 347.775 C 379.608 351.733,369.328 354.674,363.104 354.674 L 358.957 354.674 358.957 373.646 L 358.957 392.618 367.310 392.119 C 388.509 390.852,409.686 381.415,425.854 366.030 C 435.775 356.589,440.988 349.593,446.767 337.968 C 461.086 309.162,460.539 276.645,445.256 248.251 C 429.426 218.841,401.996 200.573,368.155 196.903 C 362.231 196.260,359.007 195.562,359.223 194.970 C 359.409 194.460,365.048 177.562,371.753 157.419 L 383.944 120.795 422.424 120.795 L 460.905 120.795 460.905 101.947 L 460.905 83.100 362.812 83.100 L 264.720 83.100 264.720 101.947 M53.115 150.779 L 53.115 169.627 68.108 169.627 L 83.100 169.627 83.100 226.597 L 83.100 283.568 68.108 283.568 L 53.115 283.568 53.115 302.415 L 53.115 321.262 147.352 321.262 L 241.589 321.262 241.589 302.415 L 241.589 283.568 228.739 283.568 L 215.888 283.568 215.888 226.597 L 215.888 169.627 228.739 169.627 L 241.589 169.627 241.589 150.779 L 241.589 131.932 147.352 131.932 L 53.115 131.932 53.115 150.779 M177.337 226.609 L 177.337 283.591 149.280 283.365 L 121.223 283.139 121.001 227.454 C 120.879 196.827,120.963 171.286,121.188 170.697 C 121.504 169.871,127.961 169.627,149.467 169.627 L 177.337 169.627 177.337 226.609 " stroke="none" fill-rule="evenodd" fill="black"></path></svg>