<svg width="136mm" height="120mm" version="1.1" viewBox="0 0 600 529.4117647058824" xmlns="http://www.w3.org/2000/svg"><path d="M264.720 101.947 L 264.720 120.795 304.487 120.795 L 344.253 120.795 303.202 243.942 C 280.623 311.673,262.150 367.291,262.150 367.537 C 262.150 368.078,297.288 379.810,297.645 379.387 C 297.784 379.224,308.795 346.361,322.115 306.360 L 346.333 233.630 357.666 234.199 C 371.215 234.879,376.708 236.158,386.372 240.885 C 396.523 245.850,407.646 256.897,412.712 267.045 C 417.733 277.101,419.226 284.692,418.713 297.557 C 418.028 314.732,413.545 324.942,401.348 337.111 C 390.506 347.928,378.933 353.549,365.627 354.461 L 358.957 354.919 358.957 373.878 L 358.957 392.838 366.882 392.251 C 389.635 390.566,409.648 381.569,426.445 365.473 C 448.639 344.204,459.571 315.241,456.625 285.508 C 453.294 251.890,433.440 222.645,403.649 207.473 C 390.898 200.980,381.557 198.286,367.721 197.110 C 363.354 196.739,359.602 196.258,359.385 196.041 C 359.167 195.823,364.605 178.804,371.468 158.220 L 383.947 120.795 422.426 120.795 L 460.905 120.795 460.905 101.947 L 460.905 83.100 362.812 83.100 L 264.720 83.100 264.720 101.947 M53.115 151.208 L 53.115 170.483 68.108 170.483 L 83.100 170.483 83.100 227.025 L 83.100 283.568 68.108 283.568 L 53.115 283.568 53.115 302.415 L 53.115 321.262 147.352 321.262 L 241.589 321.262 241.589 302.415 L 241.589 283.568 228.739 283.568 L 215.888 283.568 215.888 227.025 L 215.888 170.483 228.739 170.483 L 241.589 170.483 241.589 151.208 L 241.589 131.932 147.352 131.932 L 53.115 131.932 53.115 151.208 M177.337 227.025 L 177.337 283.568 149.066 283.568 L 120.795 283.568 120.795 227.025 L 120.795 170.483 149.066 170.483 L 177.337 170.483 177.337 227.025 " stroke="none" fill-rule="evenodd" fill="black"></path></svg>