<svg width="136mm" height="120mm" version="1.1" viewBox="0 0 600 529.4117647058824" xmlns="http://www.w3.org/2000/svg"><path d="M264.720 101.947 L 264.720 120.795 304.487 120.795 L 344.253 120.795 303.202 243.942 C 280.623 311.673,262.150 367.291,262.150 367.537 C 262.150 368.078,297.288 379.810,297.645 379.387 C 297.784 379.224,308.795 346.361,322.115 306.358 L 346.334 233.627 357.323 234.183 C 371.704 234.911,375.752 235.816,385.515 240.488 C 392.489 243.826,394.772 245.501,401.466 252.196 C 408.154 258.884,409.840 261.180,413.180 268.147 C 417.913 278.021,419.154 283.787,419.082 295.562 C 418.978 312.486,413.530 325.158,401.022 337.569 C 395.203 343.343,392.123 345.633,386.372 348.463 C 378.234 352.467,370.191 354.642,363.455 354.661 L 358.957 354.674 358.957 373.790 L 358.957 392.906 364.312 392.583 C 401.255 390.353,433.476 368.187,448.680 334.541 C 470.335 286.617,449.731 229.960,402.157 206.615 C 390.529 200.909,380.973 198.227,368.512 197.173 C 363.709 196.767,359.601 196.257,359.384 196.040 C 359.167 195.823,364.605 178.804,371.468 158.220 L 383.947 120.795 422.426 120.795 L 460.905 120.795 460.905 101.947 L 460.905 83.100 362.812 83.100 L 264.720 83.100 264.720 101.947 M53.115 151.208 L 53.115 170.483 68.108 170.483 L 83.100 170.483 83.100 227.025 L 83.100 283.568 68.108 283.568 L 53.115 283.568 53.115 302.415 L 53.115 321.262 147.352 321.262 L 241.589 321.262 241.589 302.415 L 241.589 283.568 228.739 283.568 L 215.888 283.568 215.888 227.025 L 215.888 170.483 228.739 170.483 L 241.589 170.483 241.589 151.208 L 241.589 131.932 147.352 131.932 L 53.115 131.932 53.115 151.208 M177.337 227.025 L 177.337 283.568 149.066 283.568 L 120.795 283.568 120.795 227.025 L 120.795 170.483 149.066 170.483 L 177.337 170.483 177.337 227.025 " stroke="none" fill-rule="evenodd" fill="black"></path></svg>