<svg width="136mm" height="120mm" version="1.1" viewBox="0 0 600 529.4117647058824" xmlns="http://www.w3.org/2000/svg"><path d="M143.926 79.673 L 143.926 98.520 162.704 98.520 L 181.482 98.520 160.990 159.982 C 149.720 193.786,140.499 221.736,140.499 222.093 C 140.499 222.450,160.009 222.742,183.854 222.742 C 222.060 222.742,227.150 222.895,226.715 224.028 C 224.945 228.642,174.786 378.957,174.968 379.102 C 176.389 380.237,210.220 390.653,210.717 390.109 C 211.089 389.703,223.872 351.879,239.124 306.056 L 266.855 222.742 286.287 222.742 C 296.974 222.742,308.734 223.160,312.419 223.671 C 327.248 225.727,339.207 231.891,350.390 243.243 C 360.682 253.691,366.075 263.493,368.954 276.990 C 370.798 285.631,370.073 302.377,367.502 310.554 C 360.636 332.387,343.259 349.630,321.691 356.011 C 315.264 357.912,311.734 358.366,300.488 358.738 L 286.995 359.183 286.995 378.035 L 286.995 396.886 301.773 396.394 C 317.691 395.865,324.754 394.685,337.111 390.493 C 346.745 387.225,351.456 384.888,360.671 378.802 C 404.935 349.570,420.508 291.870,397.065 243.948 C 383.109 215.418,356.023 194.407,324.261 187.473 C 318.543 186.225,311.764 185.664,298.026 185.302 L 279.500 184.814 293.814 141.882 L 308.128 98.949 339.111 98.724 L 370.094 98.499 370.094 79.662 L 370.094 60.826 257.010 60.826 L 143.926 60.826 143.926 79.673 M268.147 99.163 C 268.147 99.516,261.754 118.985,253.940 142.426 L 239.733 185.047 216.245 185.047 C 203.327 185.047,192.757 184.946,192.757 184.822 C 192.757 184.699,198.503 167.370,205.526 146.315 L 218.294 108.032 204.455 103.344 L 190.616 98.656 229.381 98.588 C 250.703 98.551,268.147 98.810,268.147 99.163 " stroke="none" fill-rule="evenodd" fill="black"></path></svg>