<svg width="136mm" height="120mm" version="1.1" viewBox="0 0 600 529.4117647058824" xmlns="http://www.w3.org/2000/svg"><path d="M143.926 79.673 L 143.926 98.520 162.704 98.520 L 181.482 98.520 160.990 159.982 C 149.720 193.786,140.499 221.736,140.499 222.093 C 140.499 222.450,159.967 222.742,183.762 222.742 C 207.557 222.742,227.025 222.841,227.025 222.961 C 227.025 223.082,215.322 258.286,201.018 301.192 L 175.011 379.202 192.532 385.019 C 202.169 388.219,210.355 390.506,210.723 390.103 C 211.091 389.700,223.873 351.847,239.127 305.984 L 266.862 222.599 290.421 222.966 C 311.592 223.297,314.627 223.526,320.360 225.229 C 350.426 234.162,370.094 260.113,370.094 290.850 C 370.094 317.667,354.953 341.204,330.405 352.546 C 321.102 356.844,314.775 358.126,300.059 358.697 L 286.995 359.203 286.995 378.046 L 286.995 396.889 301.344 396.421 C 326.672 395.594,341.709 391.148,360.671 378.879 C 374.461 369.956,389.125 353.337,396.989 337.721 C 409.118 313.635,411.230 283.343,402.580 257.524 C 393.622 230.785,374.069 208.354,349.105 196.175 C 331.947 187.804,322.950 185.871,298.449 185.293 L 279.490 184.846 293.809 141.898 L 308.128 98.949 339.111 98.724 L 370.094 98.499 370.094 79.662 L 370.094 60.826 257.010 60.826 L 143.926 60.826 143.926 79.673 M268.147 99.163 C 268.147 99.516,261.754 118.985,253.940 142.426 L 239.733 185.047 216.245 185.047 C 203.327 185.047,192.757 184.946,192.757 184.822 C 192.757 184.699,198.517 167.329,205.556 146.224 C 214.222 120.241,218.025 107.727,217.335 107.468 C 216.775 107.258,210.727 105.188,203.895 102.869 L 191.472 98.652 229.810 98.586 C 250.895 98.550,268.147 98.810,268.147 99.163 " stroke="none" fill-rule="evenodd" fill="black"></path></svg>