<svg width="136mm" height="120mm" version="1.1" viewBox="0 0 600 529.4117647058824" xmlns="http://www.w3.org/2000/svg"><path d="M143.926 79.673 L 143.926 98.520 162.704 98.520 L 181.482 98.520 160.990 159.982 C 149.720 193.786,140.499 221.736,140.499 222.093 C 140.499 222.450,159.967 222.742,183.762 222.742 C 207.557 222.742,227.025 222.841,227.025 222.961 C 227.025 223.082,215.322 258.286,201.018 301.192 L 175.011 379.202 192.532 385.019 C 202.169 388.219,210.355 390.506,210.723 390.103 C 211.091 389.700,223.872 351.879,239.124 306.056 L 266.855 222.742 286.287 222.742 C 296.974 222.742,308.734 223.160,312.419 223.671 C 327.179 225.718,339.110 231.872,350.390 243.256 C 364.889 257.889,370.843 273.502,369.849 294.276 C 368.851 315.130,359.560 332.671,342.787 345.368 C 330.504 354.666,319.733 358.067,300.488 358.723 L 286.995 359.183 286.995 377.918 L 286.995 396.652 297.917 396.647 C 329.039 396.633,354.385 386.943,375.156 367.118 C 396.459 346.786,407.779 320.292,407.786 290.748 C 407.800 240.153,372.877 197.684,322.548 187.088 C 318.976 186.336,309.059 185.621,298.026 185.320 L 279.500 184.814 293.814 141.882 L 308.128 98.949 339.111 98.724 L 370.094 98.499 370.094 79.662 L 370.094 60.826 257.010 60.826 L 143.926 60.826 143.926 79.673 M268.147 99.163 C 268.147 99.516,261.754 118.985,253.940 142.426 L 239.733 185.047 216.245 185.047 C 203.327 185.047,192.757 184.946,192.757 184.822 C 192.757 184.699,198.503 167.370,205.526 146.315 L 218.294 108.032 204.455 103.344 L 190.616 98.656 229.381 98.588 C 250.703 98.551,268.147 98.810,268.147 99.163 " stroke="none" fill-rule="evenodd" fill="black"></path></svg>