<svg width="136mm" height="120mm" version="1.1" viewBox="0 0 600 529.4117647058824" xmlns="http://www.w3.org/2000/svg"><path d="M238.163 65.966 L 238.163 94.237 166.200 94.237 L 94.237 94.237 94.237 113.084 L 94.237 131.932 257.010 131.932 L 419.783 131.932 419.783 113.084 L 419.783 94.237 347.820 94.237 L 275.857 94.237 275.857 65.966 L 275.857 37.695 257.010 37.695 L 238.163 37.695 238.163 65.966 M67.877 207.964 L 68.108 226.597 96.104 226.823 L 124.101 227.049 124.445 277.797 C 124.827 334.078,124.623 331.935,130.770 344.380 C 134.720 352.376,146.286 364.378,156.348 370.923 C 214.773 408.926,324.026 404.067,369.629 361.438 C 376.579 354.942,381.445 348.576,384.408 342.103 C 389.296 331.427,389.204 332.572,389.575 277.797 L 389.919 227.049 417.916 226.823 L 445.912 226.597 446.143 207.964 L 446.374 189.331 257.010 189.331 L 67.646 189.331 67.877 207.964 M351.247 275.690 L 351.247 324.354 348.730 328.322 C 337.867 345.452,297.443 358.951,257.010 358.951 C 216.577 358.951,176.153 345.452,165.290 328.322 L 162.773 324.354 162.773 275.690 L 162.773 227.025 257.010 227.025 L 351.247 227.025 351.247 275.690 " stroke="none" fill-rule="evenodd" fill="black"></path></svg>