<svg width="136mm" height="120mm" version="1.1" viewBox="0 0 600 529.4117647058824" xmlns="http://www.w3.org/2000/svg"><path d="M238.163 65.961 L 238.163 94.227 166.414 94.446 L 94.665 94.665 94.434 113.299 L 94.204 131.932 257.010 131.932 L 419.816 131.932 419.586 113.299 L 419.355 94.665 347.606 94.446 L 275.857 94.227 275.857 65.961 L 275.857 37.695 257.010 37.695 L 238.163 37.695 238.163 65.961 M67.877 207.964 L 68.108 226.597 96.593 226.823 L 125.078 227.049 125.078 277.966 L 125.078 328.884 127.248 335.752 C 129.994 344.446,135.985 353.489,144.017 361.066 C 194.285 408.487,319.735 408.487,370.003 361.066 C 377.208 354.270,383.630 345.042,386.461 337.418 L 388.484 331.971 388.744 279.510 L 389.004 227.049 417.458 226.823 L 445.912 226.597 446.143 207.964 L 446.374 189.331 257.010 189.331 L 67.646 189.331 67.877 207.964 M351.247 275.690 L 351.247 324.354 348.730 328.322 C 337.867 345.452,297.443 358.951,257.010 358.951 C 216.577 358.951,176.153 345.452,165.290 328.322 L 162.773 324.354 162.773 275.690 L 162.773 227.025 257.010 227.025 L 351.247 227.025 351.247 275.690 " stroke="none" fill-rule="evenodd" fill="black"></path></svg>