<svg width="136mm" height="120mm" version="1.1" viewBox="0 0 600 529.4117647058824" xmlns="http://www.w3.org/2000/svg"><path d="M238.163 65.961 L 238.163 94.227 166.414 94.446 L 94.665 94.665 94.434 113.299 L 94.204 131.932 257.010 131.932 L 419.816 131.932 419.586 113.299 L 419.355 94.665 347.606 94.446 L 275.857 94.227 275.857 65.961 L 275.857 37.695 257.010 37.695 L 238.163 37.695 238.163 65.961 M68.536 207.750 L 68.536 227.025 96.782 227.025 L 125.027 227.025 125.267 279.070 L 125.507 331.115 127.755 337.262 C 139.242 368.678,181.233 390.940,238.163 395.797 C 263.634 397.970,290.707 395.582,315.694 388.958 C 352.417 379.223,378.003 360.336,386.511 336.683 L 388.513 331.115 388.753 279.070 L 388.993 227.025 417.238 227.025 L 445.484 227.025 445.484 207.750 L 445.484 188.474 257.010 188.474 L 68.536 188.474 68.536 207.750 M351.247 275.690 L 351.247 324.354 348.730 328.322 C 340.651 341.062,315.607 352.209,284.424 356.943 C 272.562 358.744,243.279 358.970,232.166 357.346 C 199.123 352.519,173.614 341.448,165.290 328.322 L 162.773 324.354 162.773 275.690 L 162.773 227.025 257.010 227.025 L 351.247 227.025 351.247 275.690 " stroke="none" fill-rule="evenodd" fill="black"></path></svg>