<svg width="136mm" height="120mm" version="1.1" viewBox="0 0 600 529.4117647058824" xmlns="http://www.w3.org/2000/svg"><path d="M136.215 115.226 L 136.215 147.352 111.799 147.352 L 87.383 147.352 87.383 166.200 L 87.383 185.047 112.189 185.047 L 136.994 185.047 137.539 188.260 C 142.194 215.702,154.059 238.278,173.735 257.130 C 190.436 273.132,210.223 283.582,233.022 288.441 C 243.333 290.638,270.691 290.645,280.857 288.453 C 303.690 283.528,323.557 273.149,339.710 257.707 C 359.841 238.462,371.795 215.884,376.481 188.260 L 377.026 185.047 401.831 185.047 L 426.637 185.047 426.637 166.200 L 426.637 147.352 402.221 147.352 L 377.805 147.352 377.805 115.226 L 377.805 83.100 358.957 83.100 L 340.110 83.100 340.110 115.226 L 340.110 147.352 257.010 147.352 L 173.910 147.352 173.910 115.226 L 173.910 83.100 155.063 83.100 L 136.215 83.100 136.215 115.226 M338.397 185.994 C 338.397 188.719,335.299 198.300,332.438 204.425 C 321.973 226.828,303.873 242.420,279.713 249.842 C 272.541 252.046,270.955 252.211,257.010 252.211 C 243.090 252.211,241.471 252.043,234.375 249.860 C 220.099 245.468,208.863 238.822,198.680 228.745 C 191.125 221.269,186.133 214.169,181.582 204.425 C 178.721 198.300,175.624 188.719,175.624 185.994 C 175.624 185.309,198.139 185.047,257.010 185.047 C 315.881 185.047,338.397 185.309,338.397 185.994 M120.795 343.537 L 120.795 362.384 257.010 362.384 L 393.225 362.384 393.225 343.537 L 393.225 324.689 257.010 324.689 L 120.795 324.689 120.795 343.537 " stroke="none" fill-rule="evenodd" fill="black"></path></svg>