<svg width="136mm" height="120mm" version="1.1" viewBox="0 0 600 529.4117647058824" xmlns="http://www.w3.org/2000/svg"><path d="M136.215 115.226 L 136.215 147.352 111.371 147.352 L 86.527 147.352 86.527 166.200 L 86.527 185.047 111.761 185.047 L 136.994 185.047 137.505 188.260 C 139.628 201.622,145.571 218.490,152.221 230.024 C 163.993 250.444,182.271 267.611,203.544 278.225 C 231.693 292.272,265.905 294.497,295.990 284.238 C 323.358 274.906,347.292 255.189,361.799 230.024 C 368.366 218.634,374.190 202.076,376.491 188.260 L 377.026 185.047 402.259 185.047 L 427.493 185.047 427.493 166.200 L 427.493 147.352 402.649 147.352 L 377.805 147.352 377.805 115.226 L 377.805 83.100 358.957 83.100 L 340.110 83.100 340.110 115.226 L 340.110 147.352 257.010 147.352 L 173.910 147.352 173.910 115.226 L 173.910 83.100 155.063 83.100 L 136.215 83.100 136.215 115.226 M337.989 188.260 C 336.999 193.582,333.458 202.956,330.173 208.953 C 318.665 229.964,301.597 243.478,277.900 250.342 C 272.081 252.027,269.188 252.298,257.010 252.298 C 244.832 252.298,241.939 252.027,236.120 250.342 C 212.423 243.478,195.355 229.964,183.847 208.953 C 180.562 202.956,177.021 193.582,176.031 188.260 L 175.433 185.047 257.010 185.047 L 338.587 185.047 337.989 188.260 M120.795 343.537 L 120.795 362.384 257.010 362.384 L 393.225 362.384 393.225 343.537 L 393.225 324.689 257.010 324.689 L 120.795 324.689 120.795 343.537 " stroke="none" fill-rule="evenodd" fill="black"></path></svg>