<svg width="136mm" height="120mm" version="1.1" viewBox="0 0 600 529.4117647058824" xmlns="http://www.w3.org/2000/svg"><path d="M136.215 115.226 L 136.215 147.352 111.371 147.352 L 86.527 147.352 86.527 166.200 L 86.527 185.047 111.724 185.047 L 136.921 185.047 137.488 188.688 C 138.448 194.858,141.948 207.404,144.737 214.676 C 154.596 240.374,176.574 264.456,201.962 277.377 C 271.004 312.515,354.376 275.026,373.953 200.039 C 375.060 195.799,376.221 190.691,376.532 188.688 L 377.099 185.047 402.296 185.047 L 427.493 185.047 427.493 166.200 L 427.493 147.352 402.649 147.352 L 377.805 147.352 377.805 115.226 L 377.805 83.100 358.957 83.100 L 340.110 83.100 340.110 115.226 L 340.110 147.352 257.010 147.352 L 173.910 147.352 173.910 115.226 L 173.910 83.100 155.063 83.100 L 136.215 83.100 136.215 115.226 M337.989 188.260 C 336.171 198.028,329.234 212.516,322.054 221.538 C 310.845 235.626,296.581 244.930,277.900 250.342 C 272.081 252.027,269.188 252.298,257.010 252.298 C 244.832 252.298,241.939 252.027,236.120 250.342 C 217.439 244.930,203.175 235.626,191.966 221.538 C 184.786 212.516,177.849 198.028,176.031 188.260 L 175.433 185.047 257.010 185.047 L 338.587 185.047 337.989 188.260 M120.795 343.537 L 120.795 362.384 257.010 362.384 L 393.225 362.384 393.225 343.537 L 393.225 324.689 257.010 324.689 L 120.795 324.689 120.795 343.537 " stroke="none" fill-rule="evenodd" fill="black"></path></svg>