<svg width="136mm" height="120mm" version="1.1" viewBox="0 0 600 529.4117647058824" xmlns="http://www.w3.org/2000/svg"><path d="M139.642 96.362 L 139.642 125.078 103.644 125.078 L 67.646 125.078 67.877 143.711 L 68.108 162.345 103.752 162.568 L 139.397 162.792 139.871 175.847 C 140.565 194.951,143.616 203.146,154.278 214.543 C 169.649 230.975,195.030 242.408,227.025 247.311 C 240.818 249.425,273.202 249.425,286.995 247.311 C 331.622 240.472,363.531 220.612,371.894 194.471 C 373.239 190.267,373.791 185.703,374.149 175.847 L 374.623 162.792 410.268 162.568 L 445.912 162.345 446.143 143.711 L 446.374 125.078 410.376 125.078 L 374.378 125.078 374.378 96.362 L 374.378 67.647 355.316 67.877 L 336.255 68.108 336.029 96.593 L 335.803 125.078 257.010 125.078 L 178.217 125.078 177.991 96.593 L 177.765 68.108 158.704 67.877 L 139.642 67.647 139.642 96.362 M335.826 173.999 L 335.826 185.226 330.682 190.260 C 324.930 195.888,314.574 201.403,302.843 205.084 C 261.712 217.994,204.339 210.808,183.172 190.097 L 178.194 185.226 178.194 173.999 L 178.194 162.773 257.010 162.773 L 335.826 162.773 335.826 173.999 M86.744 266.648 C 87.113 291.921,87.360 295.873,88.929 301.690 C 98.559 337.385,142.707 366.248,203.895 376.852 C 224.379 380.402,229.612 380.790,257.010 380.790 C 284.408 380.790,289.641 380.402,310.125 376.852 C 365.362 367.280,407.438 342.553,421.586 311.350 C 426.367 300.806,426.777 297.572,427.254 266.648 L 427.693 238.163 408.317 238.163 L 388.942 238.163 388.933 264.934 C 388.925 291.624,388.919 291.720,386.801 296.268 C 385.633 298.777,382.316 303.289,379.430 306.295 C 363.097 323.303,332.720 335.628,292.563 341.539 C 277.896 343.697,236.124 343.697,221.457 341.539 C 181.425 335.647,150.788 323.250,134.706 306.438 C 131.756 303.353,128.387 298.777,127.219 296.268 C 125.101 291.720,125.095 291.624,125.087 264.934 L 125.078 238.163 105.703 238.163 L 86.327 238.163 86.744 266.648 " stroke="none" fill-rule="evenodd" fill="black"></path></svg>