<svg width="136mm" height="120mm" version="1.1" viewBox="0 0 600 529.4117647058824" xmlns="http://www.w3.org/2000/svg"><path d="M139.642 96.379 L 139.642 125.078 103.644 125.078 L 67.646 125.078 67.877 143.711 L 68.108 162.345 103.762 162.568 L 139.417 162.792 139.888 176.275 C 140.558 195.474,143.460 202.988,154.905 215.154 C 170.010 231.211,195.171 242.429,227.025 247.311 C 240.818 249.425,273.202 249.425,286.995 247.311 C 310.887 243.650,333.692 235.301,348.330 224.857 C 355.399 219.813,364.866 209.503,368.240 203.173 C 372.749 194.712,373.585 190.891,374.124 176.275 L 374.620 162.792 410.266 162.568 L 445.912 162.345 446.143 143.711 L 446.374 125.078 410.376 125.078 L 374.378 125.078 374.378 96.379 L 374.378 67.679 355.542 67.679 L 336.706 67.679 336.480 96.165 L 336.255 124.650 257.010 124.650 L 177.765 124.650 177.540 96.165 L 177.314 67.679 158.478 67.679 L 139.642 67.679 139.642 96.379 M336.683 171.233 C 336.683 183.407,336.265 184.746,330.752 190.218 C 317.939 202.938,288.057 211.605,257.010 211.605 C 225.963 211.605,196.081 202.938,183.268 190.218 C 177.755 184.746,177.337 183.407,177.337 171.233 L 177.337 162.773 257.010 162.773 L 336.683 162.773 336.683 171.233 M86.744 267.076 C 87.172 299.026,87.614 302.084,93.503 313.834 C 108.473 343.703,150.259 367.557,203.895 376.852 C 224.379 380.402,229.612 380.790,257.010 380.790 C 284.408 380.790,289.641 380.402,310.125 376.852 C 363.761 367.557,405.547 343.703,420.517 313.834 C 426.406 302.084,426.848 299.026,427.276 267.076 L 427.663 238.163 408.303 238.163 L 388.942 238.163 388.942 265.012 L 388.942 291.861 386.410 296.924 C 376.149 317.445,340.225 334.524,292.563 341.539 C 277.896 343.697,236.124 343.697,221.457 341.539 C 173.795 334.524,137.871 317.445,127.610 296.924 L 125.078 291.861 125.078 265.012 L 125.078 238.163 105.717 238.163 L 86.357 238.163 86.744 267.076 " stroke="none" fill-rule="evenodd" fill="black"></path></svg>