<svg width="136mm" height="120mm" version="1.1" viewBox="0 0 600 529.4117647058824" xmlns="http://www.w3.org/2000/svg"><path d="M140.213 68.250 C 139.899 68.565,139.642 81.287,139.642 96.522 L 139.642 124.222 104.089 124.222 L 68.536 124.222 68.536 143.497 L 68.536 162.773 103.974 162.773 L 139.413 162.773 139.861 175.838 C 140.532 195.388,144.005 204.199,155.753 216.157 C 171.106 231.783,195.176 242.134,228.130 247.281 C 241.515 249.371,272.417 249.370,286.138 247.279 C 331.743 240.329,363.488 220.787,371.925 194.471 C 373.284 190.233,373.817 185.781,374.159 175.838 L 374.607 162.773 410.046 162.773 L 445.484 162.773 445.484 143.497 L 445.484 124.222 409.943 124.222 L 374.401 124.222 374.175 96.165 L 373.950 68.108 355.316 67.877 L 336.683 67.646 336.683 95.934 L 336.683 124.222 257.010 124.222 L 177.337 124.222 177.337 95.950 L 177.337 67.679 159.061 67.679 C 149.009 67.679,140.527 67.936,140.213 68.250 M336.683 172.281 C 336.683 183.487,335.786 185.999,329.949 191.137 C 318.049 201.612,296.599 208.637,269.634 210.891 C 236.745 213.640,200.324 205.345,184.499 191.502 C 178.220 186.009,177.337 183.638,177.337 172.281 L 177.337 162.773 257.010 162.773 L 336.683 162.773 336.683 172.281 M87.567 268.790 L 87.867 299.417 90.456 306.358 C 104.296 343.464,150.953 369.987,218.459 379.120 C 232.097 380.965,266.510 381.696,281.426 380.457 C 355.463 374.309,410.395 345.367,423.859 305.414 C 426.168 298.564,426.169 298.541,426.453 268.361 L 426.737 238.163 407.839 238.163 L 388.942 238.163 388.942 265.012 L 388.942 291.861 386.405 296.937 C 381.525 306.704,368.597 317.248,351.888 325.092 C 305.028 347.088,231.371 349.758,177.843 331.401 C 153.349 323.001,134.007 309.730,127.615 296.937 L 125.078 291.861 125.078 265.012 L 125.078 238.163 106.173 238.163 L 87.267 238.163 87.567 268.790 " stroke="none" fill-rule="evenodd" fill="black"></path></svg>