<svg width="136mm" height="120mm" version="1.1" viewBox="0 0 600 529.4117647058824" xmlns="http://www.w3.org/2000/svg"><path d="M229.596 35.565 C 196.481 39.657,165.057 52.298,137.827 72.482 C 127.438 80.182,107.929 99.397,100.498 109.248 C 87.067 127.053,77.114 146.008,70.358 166.649 C 63.528 187.514,60.840 204.446,60.840 226.597 C 60.840 248.635,63.531 265.687,70.247 286.210 C 80.055 316.179,94.694 339.905,117.282 362.444 C 134.310 379.435,147.578 389.041,167.995 399.161 C 186.790 408.478,207.040 414.608,229.167 417.677 C 242.120 419.474,272.117 419.033,283.996 416.872 C 318.292 410.630,347.815 397.453,373.521 376.911 C 385.762 367.130,400.435 351.650,410.028 338.397 C 451.365 281.287,457.268 202.141,424.878 139.293 C 398.065 87.268,350.792 50.968,293.226 38.200 C 276.219 34.428,248.192 33.267,229.596 35.565 M273.577 73.248 C 331.995 80.906,381.429 121.902,400.122 178.194 C 405.614 194.733,407.789 208.464,407.789 226.597 C 407.789 244.731,405.614 258.461,400.122 275.001 C 384.455 322.180,347.134 359.100,299.845 374.198 C 282.282 379.806,268.487 381.607,248.017 380.965 C 231.211 380.437,221.815 378.915,206.943 374.312 C 154.816 358.177,112.876 312.254,101.971 259.373 C 91.126 206.779,106.478 154.816,143.926 117.368 C 178.209 83.085,225.598 66.958,273.577 73.248 M238.163 197.898 C 238.163 254.911,237.965 301.558,237.723 301.558 C 237.481 301.558,231.896 298.860,225.312 295.561 C 218.728 292.263,213.145 289.565,212.906 289.565 C 212.477 289.565,196.184 321.691,196.184 322.537 C 196.184 322.964,274.577 362.384,275.425 362.384 C 275.663 362.384,275.857 302.051,275.857 228.311 L 275.857 94.237 257.010 94.237 L 238.163 94.237 238.163 197.898 M154.877 162.272 C 148.675 174.696,146.835 179.117,147.606 179.740 C 149.677 181.417,198.858 205.645,199.440 205.276 C 200.377 204.681,216.294 172.313,215.853 171.899 C 215.425 171.497,163.786 145.639,163.411 145.639 C 163.284 145.639,159.444 153.124,154.877 162.272 M324.261 158.631 C 310.125 165.726,298.383 171.696,298.167 171.899 C 297.726 172.313,313.643 204.681,314.580 205.276 C 315.162 205.645,364.343 181.417,366.414 179.740 C 367.185 179.117,365.345 174.696,359.143 162.272 C 354.576 153.124,350.642 145.660,350.401 145.685 C 350.159 145.711,338.397 151.536,324.261 158.631 M172.494 249.560 L 146.662 262.579 155.151 279.499 L 163.639 296.419 189.549 283.473 C 203.800 276.353,215.639 270.359,215.858 270.153 C 216.415 269.629,199.763 236.439,198.971 236.496 C 198.616 236.521,186.702 242.400,172.494 249.560 M306.084 253.114 C 301.508 262.280,297.943 269.947,298.162 270.153 C 298.381 270.359,310.220 276.353,324.471 283.473 L 350.382 296.419 358.873 279.453 L 367.365 262.486 341.311 249.467 C 326.982 242.307,315.066 236.449,314.831 236.449 C 314.596 236.449,310.659 243.948,306.084 253.114 " stroke="none" fill-rule="evenodd" fill="black"></path></svg>