<svg width="136mm" height="120mm" version="1.1" viewBox="0 0 600 529.4117647058824" xmlns="http://www.w3.org/2000/svg"><path d="M229.596 35.511 C 193.131 40.238,157.560 55.579,130.264 78.351 C 120.893 86.169,105.882 101.969,98.893 111.371 C 73.445 145.604,60.740 183.974,60.740 226.597 C 60.740 277.154,79.206 323.216,113.941 359.305 C 131.001 377.030,147.219 388.947,168.342 399.278 C 196.121 412.865,222.325 418.929,253.155 418.905 C 275.932 418.887,293.706 416.096,313.930 409.363 C 383.425 386.224,432.961 326.853,444.263 253.155 C 446.237 240.280,446.237 212.914,444.263 200.039 C 431.211 114.932,367.041 49.763,283.071 36.338 C 271.343 34.463,241.267 33.998,229.596 35.511 M270.740 72.840 C 288.084 74.937,302.173 78.885,317.407 85.919 C 335.671 94.351,348.208 103.094,362.433 117.319 C 384.899 139.785,398.488 165.020,405.362 197.041 C 407.063 204.961,407.294 208.495,407.294 226.597 C 407.294 244.700,407.063 248.233,405.362 256.153 C 400.132 280.514,390.954 300.899,376.625 319.977 C 370.023 328.767,355.325 343.466,346.535 350.067 C 324.392 366.698,299.574 376.695,271.148 380.435 C 260.124 381.885,235.000 380.975,224.077 378.730 C 192.913 372.324,166.193 358.107,144.300 336.282 C 114.454 306.528,98.554 268.406,98.554 226.597 C 98.554 184.999,114.467 146.640,143.875 117.350 C 168.694 92.629,201.257 76.703,234.736 72.913 C 244.031 71.860,262.327 71.823,270.740 72.840 M238.163 197.898 C 238.163 254.911,237.973 301.558,237.742 301.558 C 237.510 301.558,231.745 298.778,224.930 295.380 C 218.115 291.982,212.372 289.380,212.168 289.597 C 211.341 290.480,196.184 321.308,196.184 322.108 C 196.184 322.818,274.030 362.384,275.425 362.384 C 275.663 362.384,275.857 302.051,275.857 228.311 L 275.857 94.237 257.010 94.237 L 238.163 94.237 238.163 197.898 M154.793 162.442 C 150.179 171.683,146.521 179.351,146.664 179.481 C 147.887 180.592,198.982 205.566,199.440 205.276 C 200.377 204.681,216.294 172.313,215.853 171.899 C 215.425 171.497,163.786 145.639,163.411 145.639 C 163.284 145.639,159.406 153.200,154.793 162.442 M324.261 158.631 C 310.125 165.726,298.383 171.696,298.167 171.899 C 297.726 172.313,313.643 204.681,314.580 205.276 C 315.038 205.566,366.133 180.592,367.356 179.481 C 367.733 179.138,350.922 145.630,350.401 145.685 C 350.159 145.711,338.397 151.536,324.261 158.631 M172.625 249.441 C 158.489 256.536,146.805 262.449,146.659 262.582 C 146.342 262.871,161.744 293.828,162.944 295.312 C 163.570 296.086,170.310 293.086,189.621 283.437 C 203.832 276.337,215.639 270.359,215.858 270.153 C 216.415 269.629,199.763 236.439,198.971 236.496 C 198.616 236.521,186.761 242.347,172.625 249.441 M306.084 253.114 C 301.508 262.280,297.943 269.947,298.162 270.153 C 298.381 270.359,310.188 276.337,324.399 283.437 C 343.710 293.086,350.450 296.086,351.076 295.312 C 352.276 293.828,367.678 262.871,367.361 262.581 C 366.844 262.111,315.269 236.449,314.840 236.449 C 314.600 236.449,310.659 243.948,306.084 253.114 " stroke="none" fill-rule="evenodd" fill="black"></path></svg>