<svg width="136mm" height="120mm" version="1.1" viewBox="0 0 600 529.4117647058824" xmlns="http://www.w3.org/2000/svg"><path d="M238.163 84.813 L 238.163 131.932 170.039 131.932 L 101.915 131.932 102.145 150.993 L 102.376 170.055 170.269 170.274 L 238.163 170.494 238.163 194.689 L 238.163 218.884 155.915 301.134 L 73.667 383.385 86.955 396.652 L 100.243 409.919 178.626 331.539 L 257.010 253.158 284.205 280.354 L 311.401 307.549 294.488 324.478 L 277.575 341.406 291.060 354.891 L 304.546 368.377 321.473 351.465 L 338.401 334.553 376.094 372.238 L 413.786 409.924 427.065 396.645 L 440.344 383.366 402.651 345.681 L 364.958 307.995 381.870 291.067 L 398.782 274.139 385.297 260.654 L 371.812 247.169 354.884 264.082 L 337.956 280.994 306.907 249.936 L 275.857 218.878 275.857 194.681 L 275.857 170.483 341.823 170.483 L 407.789 170.483 407.789 151.208 L 407.789 131.932 341.823 131.932 L 275.857 131.932 275.857 84.813 L 275.857 37.695 257.010 37.695 L 238.163 37.695 238.163 84.813 " stroke="none" fill-rule="evenodd" fill="black"></path></svg>