<svg width="136mm" height="120mm" version="1.1" viewBox="0 0 600 529.4117647058824" xmlns="http://www.w3.org/2000/svg"><path d="M238.163 84.813 L 238.163 131.932 172.197 131.932 L 106.231 131.932 106.231 150.779 L 106.231 169.627 158.489 169.627 C 187.232 169.627,210.748 169.915,210.748 170.267 C 210.748 170.619,179.905 201.753,142.208 239.452 L 73.668 307.996 86.954 321.261 L 100.240 334.527 134.105 300.694 L 167.970 266.862 165.020 273.287 C 158.648 287.168,155.990 298.110,155.341 313.124 C 153.265 361.148,184.403 402.978,232.002 416.108 C 239.691 418.229,241.539 418.398,257.010 418.396 C 272.377 418.393,274.388 418.212,282.106 416.129 C 304.862 409.990,324.681 396.726,338.499 378.388 C 344.675 370.192,352.137 355.187,354.982 345.244 C 361.972 320.818,359.332 293.845,347.648 270.289 C 346.417 267.807,355.302 276.193,379.864 300.694 L 413.780 334.527 427.066 321.261 L 440.352 307.996 371.812 239.452 C 334.115 201.753,303.272 170.619,303.272 170.267 C 303.272 169.915,325.254 169.627,352.120 169.627 L 400.969 169.627 400.738 150.993 L 400.507 132.360 338.182 132.140 L 275.857 131.921 275.857 84.808 L 275.857 37.695 257.010 37.695 L 238.163 37.695 238.163 84.813 M124.857 75.818 L 116.517 92.523 154.205 111.370 L 191.892 130.218 200.035 113.949 C 204.514 105.002,208.178 97.292,208.178 96.818 C 208.178 96.035,135.396 59.112,133.853 59.112 C 133.492 59.112,129.444 66.630,124.857 75.818 M342.466 77.580 C 322.323 87.686,305.842 96.343,305.842 96.818 C 305.842 97.292,309.506 105.002,313.985 113.949 L 322.128 130.218 359.815 111.370 L 397.503 92.523 389.163 75.818 C 384.576 66.630,380.433 59.133,379.957 59.159 C 379.480 59.185,362.609 67.474,342.466 77.580 M282.716 203.484 L 307.984 228.773 301.987 225.745 C 294.690 222.061,282.805 218.182,274.144 216.658 C 265.136 215.073,246.222 215.317,237.734 217.127 C 228.597 219.076,219.432 222.190,212.074 225.846 L 206.036 228.846 231.304 203.520 C 245.201 189.590,256.768 178.194,257.010 178.194 C 257.252 178.194,268.819 189.574,282.716 203.484 M272.199 254.886 C 294.218 259.978,313.315 278.892,319.325 301.558 C 321.338 309.149,321.282 325.627,319.218 333.256 C 314.490 350.731,301.837 366.453,286.113 374.390 C 276.316 379.336,269.658 380.803,257.010 380.803 C 247.282 380.803,244.424 380.484,239.019 378.797 C 216.995 371.920,200.731 355.169,194.802 333.256 C 192.734 325.610,192.682 309.142,194.702 301.558 C 201.600 275.674,223.248 256.831,250.156 253.291 C 254.775 252.683,266.270 253.515,272.199 254.886 " stroke="none" fill-rule="evenodd" fill="black"></path></svg>