<svg width="136mm" height="120mm" version="1.1" viewBox="0 0 600 529.4117647058824" xmlns="http://www.w3.org/2000/svg"><path d="M241.161 73.865 C 208.178 90.356,181.075 103.956,180.932 104.086 C 180.789 104.216,184.429 111.848,189.020 121.045 L 197.368 137.767 257.388 107.769 C 290.399 91.271,317.584 77.605,317.800 77.402 C 318.191 77.033,302.373 44.641,301.558 44.143 C 301.323 43.998,274.144 57.373,241.161 73.865 M294.406 128.167 L 231.997 159.433 199.313 148.555 C 181.336 142.572,166.187 137.515,165.648 137.317 C 164.771 136.996,153.349 169.133,153.349 171.921 C 153.349 172.475,160.096 175.165,168.342 177.899 C 176.587 180.632,183.334 183.073,183.334 183.322 C 183.334 183.571,161.715 194.566,135.292 207.756 C 108.869 220.946,87.076 232.008,86.863 232.339 C 86.299 233.215,102.656 265.577,103.664 265.577 C 104.132 265.577,133.931 250.870,169.885 232.895 L 235.256 200.213 296.893 220.834 L 358.529 241.454 340.069 241.522 L 321.609 241.589 320.608 249.514 C 320.057 253.872,318.823 259.713,317.866 262.493 C 311.811 280.083,296.205 296.017,279.131 302.041 L 275.857 303.196 275.857 265.111 L 275.857 227.025 257.010 227.025 L 238.163 227.025 238.163 265.111 L 238.163 303.196 234.889 302.041 C 217.815 296.017,202.209 280.083,196.154 262.493 C 195.197 259.713,193.963 253.872,193.412 249.514 L 192.411 241.589 173.737 241.589 L 155.063 241.589 155.065 246.087 C 155.069 252.706,157.389 264.945,160.286 273.634 C 164.977 287.705,173.436 301.804,183.648 312.575 C 194.518 324.039,213.600 335.308,229.810 339.834 L 238.163 342.167 238.163 371.123 L 238.163 400.079 257.010 400.079 L 275.857 400.079 275.857 371.123 L 275.857 342.167 284.210 339.834 C 300.420 335.308,319.502 324.039,330.372 312.575 C 340.584 301.804,349.043 287.705,353.734 273.634 C 356.646 264.901,358.951 252.699,358.955 245.995 C 358.957 242.686,359.256 241.516,360.028 241.800 C 374.011 246.942,424.403 262.994,424.889 262.461 C 425.577 261.705,437.052 227.662,436.689 227.454 C 436.579 227.390,402.949 216.234,361.956 202.661 C 320.963 189.088,286.459 177.608,285.281 177.150 C 283.370 176.406,288.108 173.829,329.184 153.267 L 375.229 130.218 366.889 113.513 C 362.302 104.325,358.159 96.828,357.682 96.854 C 357.206 96.880,328.731 110.971,294.406 128.167 " stroke="none" fill-rule="evenodd" fill="black"></path></svg>