<svg width="136mm" height="120mm" version="1.1" viewBox="0 0 600 529.4117647058824" xmlns="http://www.w3.org/2000/svg"><path d="M241.161 73.865 C 208.178 90.356,181.073 103.958,180.927 104.091 C 180.374 104.597,197.091 137.072,197.904 137.072 C 198.693 137.072,316.917 78.233,317.800 77.402 C 318.191 77.033,302.373 44.640,301.558 44.143 C 301.323 43.998,274.144 57.373,241.161 73.865 M294.406 128.167 L 231.997 159.433 199.313 148.555 C 181.336 142.572,166.187 137.515,165.648 137.317 C 164.771 136.996,153.349 169.133,153.349 171.921 C 153.349 172.475,160.096 175.165,168.342 177.899 C 176.587 180.632,183.334 183.073,183.334 183.322 C 183.334 183.571,161.715 194.566,135.292 207.756 C 108.869 220.946,87.078 232.005,86.867 232.332 C 86.657 232.659,90.230 240.429,94.807 249.598 L 103.130 266.269 169.193 233.241 L 235.256 200.213 296.892 220.833 L 358.529 241.454 340.006 241.522 L 321.484 241.589 320.881 247.711 C 320.055 256.092,317.111 265.792,313.374 272.441 C 305.952 285.652,292.500 297.324,279.352 301.963 L 275.857 303.196 275.857 265.111 L 275.857 227.025 257.010 227.025 L 238.163 227.025 238.163 265.111 L 238.163 303.196 234.668 301.963 C 221.520 297.324,208.068 285.652,200.646 272.441 C 196.909 265.792,193.965 256.092,193.139 247.711 L 192.536 241.589 173.799 241.589 L 155.063 241.589 155.066 245.659 C 155.076 256.991,159.819 275.122,165.993 287.423 C 178.622 312.587,202.600 332.284,229.810 339.845 L 238.163 342.167 238.163 371.123 L 238.163 400.079 257.010 400.079 L 275.857 400.079 275.857 371.123 L 275.857 342.167 284.210 339.845 C 311.418 332.284,335.366 312.614,348.033 287.423 C 354.091 275.375,358.944 256.815,358.954 245.659 C 358.956 243.421,359.059 241.589,359.184 241.589 C 359.309 241.589,373.857 246.408,391.512 252.298 C 409.167 258.188,423.879 263.007,424.204 263.007 C 424.929 263.007,436.590 228.108,436.031 227.613 C 435.811 227.419,401.707 215.975,360.242 202.183 C 318.778 188.390,284.498 176.902,284.065 176.653 C 283.632 176.404,303.967 165.854,329.253 153.209 L 375.229 130.218 366.889 113.513 C 362.302 104.325,358.159 96.828,357.682 96.854 C 357.206 96.880,328.731 110.971,294.406 128.167 " stroke="none" fill-rule="evenodd" fill="black"></path></svg>