<svg width="136mm" height="120mm" version="1.1" viewBox="0 0 600 529.4117647058824" xmlns="http://www.w3.org/2000/svg"><path d="M136.615 52.131 C 133.299 60.286,54.141 299.483,54.616 299.911 C 54.969 300.228,62.582 302.906,71.534 305.861 C 80.487 308.816,88.253 311.396,88.792 311.594 C 89.399 311.816,91.488 306.779,94.264 298.403 C 96.734 290.950,98.824 284.762,98.910 284.652 C 99.046 284.476,130.336 294.707,130.846 295.094 C 130.955 295.177,124.745 314.135,117.045 337.223 L 103.046 379.201 120.568 385.019 C 130.205 388.218,138.389 390.506,138.754 390.103 C 139.119 389.700,145.484 371.152,152.899 348.886 C 160.314 326.619,166.735 308.182,167.169 307.914 C 167.602 307.646,224.835 326.386,294.352 349.559 C 363.869 372.731,420.851 391.554,420.978 391.387 C 421.720 390.414,432.928 356.404,432.601 356.115 C 432.383 355.923,375.245 336.790,305.628 313.598 C 236.010 290.406,179.050 271.364,179.050 271.283 C 179.050 271.202,190.584 236.537,204.682 194.251 L 230.313 117.368 192.688 117.368 C 171.994 117.368,155.063 117.072,155.063 116.710 C 155.063 116.348,159.074 104.033,163.976 89.342 L 172.890 62.632 155.039 56.675 C 139.413 51.460,137.118 50.894,136.615 52.131 M325.091 76.444 C 324.863 77.042,324.776 128.034,324.897 189.759 L 325.118 301.987 343.965 301.987 L 362.812 301.987 362.812 188.902 L 362.812 75.818 344.159 75.587 C 329.701 75.408,325.412 75.601,325.091 76.444 M255.824 151.231 C 246.925 154.251,239.511 156.855,239.348 157.019 C 239.054 157.313,268.659 246.671,269.244 247.256 C 269.618 247.629,303.454 236.452,304.334 235.664 C 304.682 235.352,298.290 215.065,290.130 190.582 C 277.666 153.189,275.030 146.041,273.648 145.904 C 272.743 145.814,264.722 148.211,255.824 151.231 M412.471 146.710 C 408.302 157.747,383.141 235.256,383.596 235.663 C 384.303 236.297,418.294 247.674,418.537 247.358 C 418.621 247.248,425.435 226.893,433.679 202.125 L 448.667 157.092 431.418 151.366 C 421.931 148.216,413.878 145.639,413.523 145.639 C 413.167 145.639,412.694 146.121,412.471 146.710 M177.337 155.705 C 177.337 156.059,169.608 179.535,160.161 207.876 L 142.985 259.404 127.178 254.152 C 118.484 251.263,111.371 248.504,111.371 248.020 C 111.371 247.340,139.952 160.903,141.754 156.134 C 142.059 155.325,146.463 155.063,159.748 155.063 C 169.422 155.063,177.337 155.352,177.337 155.705 " stroke="none" fill-rule="evenodd" fill="black"></path></svg>