<svg width="136mm" height="120mm" version="1.1" viewBox="0 0 600 529.4117647058824" xmlns="http://www.w3.org/2000/svg"><path d="M95.888 174.634 C 73.187 242.793,54.566 298.896,54.508 299.307 C 54.425 299.879,73.171 306.601,88.373 311.450 C 89.538 311.822,90.587 309.497,94.272 298.378 C 96.738 290.939,98.824 284.762,98.910 284.652 C 99.046 284.476,130.336 294.707,130.846 295.094 C 130.955 295.177,124.883 313.720,117.353 336.301 C 109.822 358.881,103.661 377.814,103.661 378.374 C 103.661 379.380,138.373 391.396,139.055 390.626 C 139.249 390.406,145.484 371.915,152.911 349.534 C 160.338 327.152,166.718 308.508,167.089 308.101 C 167.460 307.695,224.685 326.336,294.255 349.526 C 363.826 372.717,420.863 391.554,421.004 391.387 C 421.583 390.705,432.788 356.260,432.508 356.022 C 432.342 355.881,375.245 336.790,305.628 313.598 C 236.010 290.406,179.050 271.364,179.050 271.283 C 179.050 271.202,190.584 236.537,204.682 194.251 L 230.313 117.368 192.688 117.368 C 171.994 117.368,155.063 117.072,155.063 116.710 C 155.063 116.348,159.074 104.033,163.976 89.342 L 172.890 62.632 155.025 56.670 L 137.161 50.708 95.888 174.634 M324.900 188.688 L 325.118 301.987 343.751 302.218 L 362.384 302.449 362.384 188.919 L 362.384 75.390 343.534 75.390 L 324.683 75.390 324.900 188.688 M255.824 151.231 C 246.925 154.251,239.511 156.855,239.348 157.019 C 239.054 157.313,268.659 246.671,269.244 247.256 C 269.618 247.629,303.454 236.452,304.334 235.664 C 304.682 235.352,298.290 215.065,290.130 190.582 C 277.666 153.189,275.030 146.041,273.648 145.904 C 272.743 145.814,264.722 148.211,255.824 151.231 M397.623 190.265 C 389.446 214.809,383.088 235.192,383.493 235.561 C 384.262 236.261,418.267 247.709,418.537 247.358 C 419.016 246.737,448.054 158.748,448.054 157.918 C 448.054 157.062,415.771 145.639,413.351 145.639 C 412.877 145.639,405.799 165.721,397.623 190.265 M177.337 155.705 C 177.337 156.059,169.608 179.535,160.161 207.876 L 142.985 259.404 127.178 254.152 C 118.484 251.263,111.371 248.504,111.371 248.020 C 111.371 247.340,139.952 160.903,141.754 156.134 C 142.059 155.325,146.463 155.063,159.748 155.063 C 169.422 155.063,177.337 155.352,177.337 155.705 " stroke="none" fill-rule="evenodd" fill="black"></path></svg>