<svg width="136mm" height="120mm" version="1.1" viewBox="0 0 600 529.4117647058824" xmlns="http://www.w3.org/2000/svg"><path d="M238.163 58.684 L 238.163 79.673 175.624 79.673 L 113.084 79.673 113.084 98.520 L 113.084 117.368 175.624 117.368 L 238.163 117.368 238.163 145.639 L 238.163 173.910 166.200 173.910 L 94.237 173.910 94.237 192.757 L 94.237 211.605 257.010 211.605 L 419.783 211.605 419.783 192.757 L 419.783 173.910 347.820 173.910 L 275.857 173.910 275.857 145.639 L 275.857 117.368 338.397 117.368 L 400.936 117.368 400.936 98.520 L 400.936 79.673 338.397 79.673 L 275.857 79.673 275.857 58.684 L 275.857 37.695 257.010 37.695 L 238.163 37.695 238.163 58.684 M90.810 257.010 L 90.810 275.857 220.811 275.857 L 350.812 275.857 311.505 315.171 L 272.198 354.485 241.304 339.159 C 224.313 330.729,209.911 323.833,209.299 323.833 C 208.315 323.833,191.399 356.205,192.064 356.814 C 192.572 357.278,319.548 420.640,319.971 420.640 C 320.468 420.640,336.683 388.426,336.683 387.439 C 336.683 387.074,330.257 383.570,322.404 379.652 L 308.125 372.528 375.303 305.345 L 442.481 238.163 266.646 238.163 L 90.810 238.163 90.810 257.010 " stroke="none" fill-rule="evenodd" fill="black"></path></svg>