<svg width="136mm" height="120mm" version="1.1" viewBox="0 0 600 529.4117647058824" xmlns="http://www.w3.org/2000/svg"><path d="M238.163 58.684 L 238.163 79.673 175.607 79.673 L 113.051 79.673 113.282 98.306 L 113.513 116.940 175.838 117.159 L 238.163 117.379 238.163 145.645 L 238.163 173.910 166.183 173.910 L 94.204 173.910 94.434 192.543 L 94.665 211.177 257.010 211.177 L 419.355 211.177 419.586 192.543 L 419.816 173.910 347.837 173.910 L 275.857 173.910 275.857 145.645 L 275.857 117.379 338.182 117.159 L 400.507 116.940 400.738 98.306 L 400.969 79.673 338.413 79.673 L 275.857 79.673 275.857 58.684 L 275.857 37.695 257.010 37.695 L 238.163 37.695 238.163 58.684 M90.810 257.010 L 90.810 275.857 220.811 275.857 L 350.812 275.857 311.479 315.197 L 272.147 354.536 240.666 338.792 C 217.164 327.037,208.974 323.309,208.349 324.082 C 207.148 325.568,191.747 356.523,192.064 356.814 C 192.572 357.278,319.548 420.640,319.971 420.640 C 320.468 420.640,336.683 388.426,336.683 387.439 C 336.683 387.074,330.257 383.570,322.404 379.652 L 308.125 372.528 375.303 305.345 L 442.481 238.163 266.646 238.163 L 90.810 238.163 90.810 257.010 " stroke="none" fill-rule="evenodd" fill="black"></path></svg>