<svg width="136mm" height="120mm" version="1.1" viewBox="0 0 600 529.4117647058824" xmlns="http://www.w3.org/2000/svg"><path d="M238.163 55.146 L 238.163 72.598 232.808 73.194 C 207.662 75.990,178.182 88.479,157.204 105.221 C 128.636 128.023,107.814 162.022,101.497 196.184 C 100.756 200.189,99.969 204.334,99.747 205.394 L 99.345 207.321 80.085 207.321 L 60.826 207.321 60.826 226.597 L 60.826 245.873 80.044 245.873 C 101.577 245.873,99.570 245.206,100.676 252.727 C 104.131 276.219,117.321 305.169,133.464 324.689 C 158.006 354.366,193.987 374.718,230.666 379.671 L 238.163 380.683 238.163 398.091 L 238.163 415.500 257.010 415.500 L 275.857 415.500 275.857 397.675 L 275.857 379.850 283.782 378.349 C 301.025 375.081,322.149 366.477,337.111 356.627 C 375.216 331.542,398.461 295.493,406.457 249.086 L 407.010 245.873 430.102 245.873 L 453.194 245.873 453.194 226.597 L 453.194 207.321 430.102 207.321 L 407.010 207.321 406.457 204.109 C 401.283 174.080,389.994 148.893,372.188 127.648 C 349.451 100.521,317.003 81.141,283.782 74.846 L 275.857 73.344 275.857 55.519 L 275.857 37.695 257.010 37.695 L 238.163 37.695 238.163 55.146 M238.163 158.918 L 238.163 207.321 187.970 207.321 L 137.778 207.321 138.370 203.680 C 138.696 201.678,140.291 195.897,141.914 190.834 C 153.073 156.028,179.477 128.719,213.747 116.538 C 221.025 113.951,233.368 110.745,236.663 110.587 C 238.074 110.519,238.163 113.363,238.163 158.918 M286.684 114.417 C 317.387 123.273,344.747 146.853,358.975 176.721 C 362.977 185.124,366.964 197.088,368.074 204.030 L 368.600 207.321 322.229 207.321 L 275.857 207.321 275.857 159.775 C 275.857 113.738,275.909 112.228,277.475 112.228 C 278.365 112.228,282.509 113.213,286.684 114.417 M238.163 294.276 C 238.163 332.438,237.936 342.676,237.092 342.661 C 234.129 342.610,220.494 339.057,213.145 336.421 C 186.322 326.800,163.263 306.680,149.577 280.954 C 145.632 273.537,139.391 256.053,138.355 249.514 L 137.778 245.873 187.970 245.873 L 238.163 245.873 238.163 294.276 M368.074 249.164 C 366.964 256.106,362.977 268.070,358.975 276.473 C 345.336 305.104,320.601 327.224,290.850 337.394 C 286.609 338.844,281.501 340.290,279.498 340.608 L 275.857 341.186 275.857 293.529 L 275.857 245.873 322.229 245.873 L 368.600 245.873 368.074 249.164 " stroke="none" fill-rule="evenodd" fill="black"></path></svg>