<svg width="136mm" height="120mm" version="1.1" viewBox="0 0 600 529.4117647058824" xmlns="http://www.w3.org/2000/svg"><path d="M238.163 55.139 L 238.163 72.584 233.237 73.161 C 207.833 76.140,180.774 87.349,159.035 103.897 C 129.448 126.420,108.241 160.870,101.037 198.112 L 99.090 208.178 79.958 208.178 L 60.826 208.178 60.826 227.025 L 60.826 245.873 80.085 245.873 L 99.345 245.873 99.718 247.800 C 99.924 248.861,100.757 253.198,101.569 257.438 C 107.014 285.860,122.389 314.341,143.900 335.852 C 161.284 353.236,182.001 366.066,204.798 373.565 C 214.644 376.804,230.814 380.375,235.636 380.375 L 238.163 380.375 238.163 397.937 L 238.163 415.500 257.010 415.500 L 275.857 415.500 275.857 397.688 L 275.857 379.876 283.494 378.432 C 304.742 374.415,328.196 363.855,346.535 350.047 C 355.319 343.433,369.981 328.773,376.608 319.977 C 390.890 301.024,400.706 278.938,405.381 255.245 L 407.230 245.873 430.212 245.873 L 453.194 245.873 453.194 227.025 L 453.194 208.178 430.264 208.178 L 407.333 208.178 405.471 198.497 C 397.241 155.714,372.425 119.200,335.587 95.675 C 321.253 86.520,299.918 77.956,283.704 74.848 L 275.857 73.344 275.857 55.519 L 275.857 37.695 257.010 37.695 L 238.163 37.695 238.163 55.139 M238.163 159.346 L 238.163 208.178 188.046 208.178 C 140.886 208.178,137.929 208.090,137.931 206.679 C 137.935 203.487,142.444 188.566,145.755 180.787 C 151.900 166.348,159.496 155.096,170.619 143.959 C 188.706 125.847,210.963 114.754,237.520 110.614 C 237.873 110.559,238.163 132.489,238.163 159.346 M283.436 113.594 C 315.578 122.659,341.351 143.282,356.720 172.232 C 362.214 182.581,368.322 200.422,368.366 206.251 L 368.381 208.178 322.119 208.178 L 275.857 208.178 275.857 160.203 C 275.857 116.846,275.989 112.228,277.225 112.228 C 277.977 112.228,280.772 112.842,283.436 113.594 M238.163 294.260 L 238.163 342.647 234.093 342.121 C 231.855 341.832,225.591 340.279,220.172 338.670 C 186.380 328.638,159.500 304.703,145.755 272.407 C 142.656 265.125,137.937 249.767,137.931 246.944 C 137.929 246.099,148.522 245.873,188.046 245.873 L 238.163 245.873 238.163 294.260 M368.366 247.372 C 368.358 248.197,367.645 251.570,366.782 254.868 C 355.722 297.127,323.633 329.269,281.640 340.154 L 275.857 341.652 275.857 293.763 L 275.857 245.873 322.119 245.873 C 365.613 245.873,368.380 245.963,368.366 247.372 " stroke="none" fill-rule="evenodd" fill="black"></path></svg>