<svg width="136mm" height="120mm" version="1.1" viewBox="0 0 600 529.4117647058824" xmlns="http://www.w3.org/2000/svg"><path d="M238.163 55.139 L 238.163 72.584 233.237 73.161 C 200.455 77.006,168.204 93.031,143.468 117.767 C 121.235 140.000,106.856 167.233,100.895 198.395 L 99.024 208.178 79.480 208.178 L 59.936 208.178 60.166 226.811 L 60.397 245.445 79.768 245.675 L 99.140 245.904 100.987 255.351 C 110.687 304.933,143.046 346.138,188.902 367.296 C 203.062 373.830,226.443 380.375,235.623 380.375 L 238.163 380.375 238.163 397.937 L 238.163 415.500 257.010 415.500 L 275.857 415.500 275.857 397.688 L 275.857 379.876 283.494 378.432 C 304.823 374.400,328.118 363.915,346.535 350.058 C 355.409 343.381,370.132 328.689,376.698 319.959 C 391.267 300.589,400.765 279.330,405.342 255.845 L 407.280 245.900 430.451 245.672 L 453.623 245.445 453.853 226.825 L 454.084 208.206 430.784 207.978 L 407.483 207.750 405.175 196.613 C 398.620 164.984,385.089 139.869,362.459 117.328 C 348.156 103.081,336.164 94.721,317.407 85.921 C 307.274 81.167,292.088 76.257,282.068 74.494 L 275.857 73.402 275.857 55.548 L 275.857 37.695 257.010 37.695 L 238.163 37.695 238.163 55.139 M238.163 159.346 L 238.163 208.178 188.046 208.178 C 142.895 208.178,137.929 208.044,137.929 206.822 C 137.929 204.446,141.358 191.687,143.666 185.476 C 146.759 177.151,150.241 170.367,155.535 162.345 C 174.235 134.015,202.726 116.038,237.520 110.614 C 237.873 110.559,238.163 132.489,238.163 159.346 M283.436 113.594 C 316.244 122.847,341.784 143.438,357.187 173.053 C 362.535 183.336,368.381 200.747,368.381 206.393 L 368.381 208.178 322.119 208.178 L 275.857 208.178 275.857 160.203 C 275.857 116.846,275.989 112.228,277.225 112.228 C 277.977 112.228,280.772 112.842,283.436 113.594 M238.163 294.287 L 238.163 342.700 234.522 342.181 C 229.287 341.434,218.986 338.634,212.033 336.070 C 181.059 324.645,155.219 298.810,143.666 267.719 C 141.559 262.048,137.929 248.812,137.929 246.801 C 137.929 246.145,152.634 245.873,188.046 245.873 L 238.163 245.873 238.163 294.287 M368.381 247.229 C 368.381 247.975,367.621 251.563,366.692 255.202 C 362.148 272.998,353.599 289.335,341.580 303.191 C 325.846 321.328,305.235 334.038,281.640 340.154 L 275.857 341.652 275.857 293.763 L 275.857 245.873 322.119 245.873 C 363.752 245.873,368.381 246.009,368.381 247.229 " stroke="none" fill-rule="evenodd" fill="black"></path></svg>