<svg width="136mm" height="120mm" version="1.1" viewBox="0 0 600 529.4117647058824" xmlns="http://www.w3.org/2000/svg"><path d="M264.720 101.947 L 264.720 120.795 304.487 120.795 L 344.253 120.795 303.202 243.942 C 280.623 311.673,262.150 367.291,262.150 367.537 C 262.150 368.078,297.288 379.810,297.645 379.387 C 297.784 379.224,308.795 346.361,322.115 306.358 L 346.334 233.627 357.323 234.183 C 371.704 234.911,375.752 235.816,385.515 240.488 C 392.489 243.826,394.772 245.501,401.466 252.196 C 408.154 258.884,409.840 261.180,413.180 268.147 C 417.913 278.021,419.154 283.787,419.082 295.562 C 418.978 312.486,413.530 325.158,401.022 337.569 C 395.203 343.343,392.123 345.633,386.372 348.463 C 378.234 352.467,370.191 354.642,363.455 354.661 L 358.957 354.674 358.957 373.790 L 358.957 392.906 364.312 392.583 C 401.255 390.353,433.476 368.187,448.680 334.541 C 470.335 286.617,449.731 229.960,402.157 206.615 C 390.529 200.909,380.973 198.227,368.512 197.173 C 363.709 196.767,359.601 196.257,359.384 196.040 C 359.167 195.823,364.605 178.804,371.468 158.220 L 383.947 120.795 422.426 120.795 L 460.905 120.795 460.905 101.947 L 460.905 83.100 362.812 83.100 L 264.720 83.100 264.720 101.947 M68.267 113.639 C 67.330 114.576,67.605 252.167,68.562 261.293 C 70.693 281.623,78.510 298.352,92.915 313.405 C 104.231 325.231,117.378 332.806,134.387 337.299 C 141.414 339.156,144.487 339.480,155.063 339.480 C 165.661 339.480,168.706 339.157,175.800 337.284 C 206.725 329.116,229.073 307.462,238.753 276.286 L 241.147 268.575 241.398 190.830 L 241.650 113.084 222.772 113.084 L 203.895 113.084 203.895 141.784 L 203.895 170.483 155.074 170.483 L 106.254 170.483 106.028 141.998 L 105.802 113.513 87.328 113.282 C 77.167 113.156,68.590 113.316,68.267 113.639 M203.882 233.665 C 203.868 261.060,203.342 265.686,199.286 274.095 C 191.186 290.886,173.210 302.385,155.063 302.385 C 133.781 302.385,112.850 286.291,107.588 265.882 C 106.494 261.638,106.231 255.538,106.231 234.398 L 106.231 208.178 155.063 208.178 L 203.895 208.178 203.882 233.665 " stroke="none" fill-rule="evenodd" fill="black"></path></svg>