<svg width="136mm" height="120mm" version="1.1" viewBox="0 0 600 529.4117647058824" xmlns="http://www.w3.org/2000/svg"><path d="M264.720 101.947 L 264.720 120.795 304.487 120.795 L 344.253 120.795 303.202 243.942 C 280.623 311.673,262.150 367.291,262.150 367.537 C 262.150 368.078,297.288 379.810,297.645 379.387 C 297.784 379.224,308.795 346.361,322.115 306.360 L 346.333 233.630 357.666 234.199 C 371.215 234.879,376.708 236.158,386.372 240.885 C 396.523 245.850,407.646 256.897,412.712 267.045 C 417.733 277.101,419.226 284.692,418.713 297.557 C 418.028 314.732,413.545 324.942,401.348 337.111 C 390.506 347.928,378.933 353.549,365.627 354.461 L 358.957 354.919 358.957 373.878 L 358.957 392.838 366.882 392.251 C 389.635 390.566,409.648 381.569,426.445 365.473 C 448.639 344.204,459.571 315.241,456.625 285.508 C 453.294 251.890,433.440 222.645,403.649 207.473 C 390.898 200.980,381.557 198.286,367.721 197.110 C 363.354 196.739,359.602 196.258,359.385 196.041 C 359.167 195.823,364.605 178.804,371.468 158.220 L 383.947 120.795 422.426 120.795 L 460.905 120.795 460.905 101.947 L 460.905 83.100 362.812 83.100 L 264.720 83.100 264.720 101.947 M68.025 114.275 C 67.774 114.931,67.722 148.760,67.911 189.451 C 68.284 270.039,68.124 267.299,73.311 282.186 C 82.661 309.019,105.490 329.698,134.074 337.224 C 141.437 339.163,144.385 339.480,155.063 339.480 C 165.661 339.480,168.706 339.157,175.800 337.284 C 191.281 333.195,203.905 326.174,215.304 315.312 C 226.130 304.997,233.835 292.176,238.758 276.286 L 241.147 268.575 241.398 190.830 L 241.650 113.084 222.772 113.084 L 203.895 113.084 203.895 141.784 L 203.895 170.483 155.063 170.483 L 106.231 170.483 106.231 141.784 L 106.231 113.084 87.357 113.084 C 72.031 113.084,68.396 113.308,68.025 114.275 M203.720 236.235 L 203.420 264.292 201.085 270.184 C 198.238 277.364,192.464 285.633,186.986 290.373 C 179.060 297.232,165.364 302.385,155.063 302.385 C 148.726 302.385,139.619 300.067,132.828 296.725 C 120.547 290.681,109.844 277.047,107.165 264.036 C 106.612 261.349,106.231 249.024,106.231 233.837 L 106.231 208.178 155.125 208.178 L 204.019 208.178 203.720 236.235 " stroke="none" fill-rule="evenodd" fill="black"></path></svg>