<svg width="136mm" height="120mm" version="1.1" viewBox="0 0 600 529.4117647058824" xmlns="http://www.w3.org/2000/svg"><path d="M264.720 101.947 L 264.720 120.795 304.129 120.795 C 335.084 120.795,343.537 121.024,343.537 121.866 C 343.537 122.455,325.185 177.993,302.754 245.284 C 280.324 312.575,262.108 367.747,262.275 367.889 C 262.957 368.468,297.402 379.673,297.640 379.393 C 297.781 379.226,308.795 346.362,322.115 306.361 L 346.332 233.632 357.571 234.138 C 363.752 234.416,371.122 235.247,373.950 235.983 C 393.076 240.968,410.014 256.812,416.279 275.580 C 425.442 303.029,412.784 334.473,387.214 347.775 C 379.608 351.733,369.328 354.674,363.104 354.674 L 358.957 354.674 358.957 373.646 L 358.957 392.618 367.310 392.119 C 388.509 390.852,409.686 381.415,425.854 366.030 C 435.775 356.589,440.988 349.593,446.767 337.968 C 461.086 309.162,460.539 276.645,445.256 248.251 C 429.426 218.841,401.996 200.573,368.155 196.903 C 362.231 196.260,359.007 195.562,359.223 194.970 C 359.409 194.460,365.048 177.562,371.753 157.419 L 383.944 120.795 422.424 120.795 L 460.905 120.795 460.905 101.947 L 460.905 83.100 362.812 83.100 L 264.720 83.100 264.720 101.947 M68.738 190.813 L 68.992 268.575 70.969 275.429 C 80.359 307.967,105.739 331.430,139.214 338.518 C 142.061 339.121,149.513 339.572,155.919 339.530 C 170.277 339.434,180.541 337.023,193.186 330.775 C 215.799 319.601,230.951 301.484,238.758 276.286 L 241.147 268.575 241.398 190.830 L 241.650 113.084 222.772 113.084 L 203.895 113.084 203.895 141.356 L 203.895 169.627 155.074 169.627 L 106.254 169.627 106.028 141.570 L 105.802 113.513 87.143 113.282 L 68.484 113.051 68.738 190.813 M203.895 233.699 C 203.895 254.600,203.623 261.121,202.585 265.104 C 199.126 278.385,189.113 290.788,177.033 296.757 C 150.847 309.696,119.834 297.620,109.057 270.289 L 106.693 264.292 106.409 235.807 L 106.126 207.321 155.010 207.321 L 203.895 207.321 203.895 233.699 " stroke="none" fill-rule="evenodd" fill="black"></path></svg>