<svg width="136mm" height="120mm" version="1.1" viewBox="0 0 600 529.4117647058824" xmlns="http://www.w3.org/2000/svg"><path d="M148.185 75.310 C 139.926 79.446,132.601 83.030,131.907 83.274 C 130.944 83.613,135.091 92.637,149.486 121.532 C 159.848 142.330,168.423 159.346,168.542 159.346 C 168.661 159.346,176.243 155.610,185.390 151.044 L 202.021 142.741 183.252 105.210 C 172.929 84.568,164.194 67.704,163.842 67.735 C 163.490 67.765,156.444 71.174,148.185 75.310 M222.528 75.868 C 213.693 80.322,206.465 84.158,206.465 84.393 C 206.465 84.817,243.268 158.673,243.733 159.183 C 243.936 159.405,276.626 143.344,277.403 142.641 C 277.970 142.127,240.258 67.682,239.452 67.725 C 238.979 67.750,231.363 71.414,222.528 75.868 M328.709 123.889 C 313.253 154.804,300.725 180.205,300.869 180.335 C 301.646 181.039,334.336 197.100,334.539 196.877 C 335.004 196.369,390.655 84.815,390.655 84.392 C 390.655 83.898,358.445 67.679,357.464 67.679 C 357.104 67.679,344.164 92.974,328.709 123.889 M202.566 201.720 C 181.273 205.588,163.932 214.768,148.879 230.143 C 140.655 238.542,136.707 244.148,131.464 254.868 C 120.595 277.093,118.203 299.403,124.179 322.811 C 134.039 361.426,166.602 390.185,206.741 395.727 C 215.721 396.967,298.299 396.967,307.279 395.727 C 347.365 390.192,379.983 361.420,389.812 322.925 C 395.796 299.486,393.411 277.091,382.565 254.868 C 377.066 243.600,371.933 236.656,362.289 227.438 C 347.828 213.615,331.104 205.211,311.124 201.727 C 301.375 200.027,211.918 200.021,202.566 201.720 M238.163 298.560 L 238.163 358.957 226.133 358.957 C 213.159 358.957,204.216 357.585,196.177 354.362 C 182.579 348.910,169.195 335.560,163.375 321.642 C 157.256 307.010,157.786 285.687,164.605 272.154 C 169.442 262.557,178.167 252.849,186.895 247.356 C 198.119 240.292,206.267 238.324,224.670 238.231 L 238.163 238.163 238.163 298.560 M306.327 239.091 C 324.204 242.355,340.825 255.109,349.415 272.154 C 354.401 282.048,356.326 299.144,353.839 311.434 C 350.944 325.733,340.666 340.453,327.451 349.225 C 316.856 356.258,305.881 358.957,287.887 358.957 L 275.857 358.957 275.857 298.560 L 275.857 238.163 288.551 238.163 C 295.532 238.163,303.531 238.580,306.327 239.091 " stroke="none" fill-rule="evenodd" fill="black"></path></svg>