<svg width="136mm" height="120mm" version="1.1" viewBox="0 0 600 529.4117647058824" xmlns="http://www.w3.org/2000/svg"><path d="M184.719 99.830 C 166.607 102.872,151.121 108.899,136.215 118.707 C 100.442 142.247,79.673 180.461,79.673 222.742 C 79.673 267.581,103.709 308.902,142.726 331.136 C 155.234 338.264,171.802 343.957,186.761 346.267 C 197.277 347.891,316.822 347.883,327.259 346.258 C 357.520 341.545,384.210 326.988,403.712 304.557 C 430.717 273.498,440.666 231.648,430.504 191.870 C 419.486 148.745,385.456 114.435,341.823 102.460 C 328.178 98.715,323.903 98.523,256.153 98.612 C 206.786 98.676,189.874 98.965,184.719 99.830 M291.068 222.956 L 290.850 309.697 257.010 309.697 L 223.170 309.697 222.952 222.956 L 222.734 136.215 257.010 136.215 L 291.286 136.215 291.068 222.956 M184.753 307.278 C 184.587 307.444,181.930 306.801,178.848 305.849 C 151.664 297.453,129.870 275.831,121.417 248.871 C 112.039 218.959,119.755 185.684,141.252 163.333 C 152.913 151.211,166.000 143.244,180.764 139.280 L 184.619 138.245 184.837 222.610 C 184.957 269.011,184.920 307.112,184.753 307.278 M340.948 141.728 C 346.801 143.868,356.816 149.491,362.233 153.678 C 391.394 176.217,403.215 213.010,392.680 248.443 C 384.664 275.402,361.638 298.128,334.172 306.190 C 331.612 306.941,329.396 307.555,329.246 307.555 C 329.096 307.555,328.973 269.424,328.973 222.820 L 328.973 138.084 333.042 139.204 C 335.280 139.821,338.838 140.956,340.948 141.728 " stroke="none" fill-rule="evenodd" fill="black"></path></svg>