<svg width="136mm" height="120mm" version="1.1" viewBox="0 0 600 529.4117647058824" xmlns="http://www.w3.org/2000/svg"><path d="M182.477 100.246 C 131.956 109.160,92.541 147.670,81.653 198.754 C 79.453 209.079,79.450 236.385,81.649 246.730 C 92.866 299.508,133.629 338.112,186.761 346.273 C 197.481 347.920,316.792 347.876,327.688 346.221 C 360.383 341.255,389.746 323.751,409.492 297.454 C 420.613 282.644,428.414 265.347,432.371 246.730 C 434.570 236.385,434.567 209.079,432.367 198.754 C 421.420 147.396,381.761 108.892,330.841 100.187 C 321.744 98.632,316.760 98.525,256.282 98.590 C 197.188 98.653,190.679 98.799,182.477 100.246 M291.068 222.956 L 290.850 309.697 257.010 309.697 L 223.170 309.697 222.952 222.956 L 222.734 136.215 257.010 136.215 L 291.286 136.215 291.068 222.956 M184.715 307.316 C 184.528 307.504,180.627 306.415,176.047 304.896 C 148.459 295.748,126.536 271.539,119.495 242.446 C 117.358 233.615,116.922 217.734,118.559 208.361 C 124.368 175.103,148.930 147.826,180.764 139.280 L 184.619 138.245 184.837 222.610 C 184.957 269.011,184.902 307.129,184.715 307.316 M340.948 141.728 C 363.568 150.000,383.719 170.776,391.937 194.297 C 408.036 240.374,382.110 291.352,335.212 305.837 C 332.153 306.782,329.497 307.555,329.311 307.555 C 329.125 307.555,328.973 269.424,328.973 222.820 L 328.973 138.084 333.042 139.204 C 335.280 139.821,338.838 140.956,340.948 141.728 " stroke="none" fill-rule="evenodd" fill="black"></path></svg>