<svg width="136mm" height="120mm" version="1.1" viewBox="0 0 600 529.4117647058824" xmlns="http://www.w3.org/2000/svg"><path d="M184.191 99.780 C 163.770 103.331,144.288 111.738,128.319 123.891 C 119.377 130.696,107.636 143.251,101.168 152.924 C 91.373 167.573,85.874 180.451,82.033 197.741 C 79.543 208.949,79.333 234.714,81.640 246.104 C 90.776 291.220,122.021 326.673,165.239 340.965 C 183.893 347.133,184.760 347.203,247.913 347.607 C 307.276 347.987,323.432 347.415,336.683 344.466 C 393.841 331.745,434.337 281.268,434.337 222.742 C 434.337 188.964,421.409 158.196,397.079 134.074 C 380.253 117.391,360.027 106.478,334.970 100.562 C 329.139 99.185,322.161 99.027,259.580 98.854 C 206.030 98.705,189.180 98.912,184.191 99.780 M291.278 222.742 L 291.278 309.269 257.010 309.269 L 222.742 309.269 222.742 222.742 L 222.742 136.215 257.010 136.215 L 291.278 136.215 291.278 222.742 M184.753 307.278 C 184.587 307.444,181.930 306.801,178.848 305.849 C 137.044 292.937,111.131 250.867,118.625 208.076 C 122.564 185.588,134.372 166.722,153.364 152.577 C 160.506 147.259,171.570 141.754,179.461 139.594 L 184.619 138.182 184.837 222.579 C 184.957 268.997,184.920 307.112,184.753 307.278 M345.945 143.966 C 356.303 148.802,363.611 153.980,371.478 162.059 C 387.055 178.056,395.265 196.519,396.395 218.097 C 398.495 258.187,373.518 294.006,335.212 305.837 C 332.153 306.782,329.497 307.555,329.311 307.555 C 329.125 307.555,328.973 269.426,328.973 222.823 L 328.973 138.091 333.899 139.367 C 336.608 140.068,342.029 142.138,345.945 143.966 " stroke="none" fill-rule="evenodd" fill="black"></path></svg>