<svg width="136mm" height="120mm" version="1.1" viewBox="0 0 600 529.4117647058824" xmlns="http://www.w3.org/2000/svg"><path d="M238.163 81.386 L 238.163 125.078 191.044 125.078 L 143.926 125.078 143.926 143.926 L 143.926 162.773 191.044 162.773 L 238.163 162.773 238.163 185.476 L 238.163 208.178 200.468 208.178 L 162.773 208.178 162.773 227.025 L 162.773 245.873 200.468 245.873 L 238.163 245.873 238.163 268.575 L 238.163 291.278 181.175 291.278 L 124.188 291.278 124.419 309.911 L 124.650 328.544 181.406 328.765 L 238.163 328.985 238.163 372.242 L 238.163 415.500 257.010 415.500 L 275.857 415.500 275.857 372.242 L 275.857 328.985 332.614 328.765 L 389.370 328.544 389.601 309.911 L 389.832 291.278 332.845 291.278 L 275.857 291.278 275.857 268.575 L 275.857 245.873 313.552 245.873 L 351.247 245.873 351.247 227.025 L 351.247 208.178 313.552 208.178 L 275.857 208.178 275.857 185.476 L 275.857 162.773 322.976 162.773 L 370.094 162.773 370.094 143.926 L 370.094 125.078 322.976 125.078 L 275.857 125.078 275.857 81.386 L 275.857 37.695 257.010 37.695 L 238.163 37.695 238.163 81.386 " stroke="none" fill-rule="evenodd" fill="black"></path></svg>