<svg width="136mm" height="120mm" version="1.1" viewBox="0 0 600 529.4117647058824" xmlns="http://www.w3.org/2000/svg"><path d="M238.163 80.958 L 238.163 124.222 191.044 124.222 L 143.926 124.222 143.926 143.497 L 143.926 162.773 191.044 162.773 L 238.163 162.773 238.163 185.047 L 238.163 207.321 200.468 207.321 L 162.773 207.321 162.773 226.597 L 162.773 245.873 200.468 245.873 L 238.163 245.873 238.163 268.147 L 238.163 290.421 181.620 290.421 L 125.078 290.421 125.078 309.697 L 125.078 328.973 181.620 328.973 L 238.163 328.973 238.163 372.236 L 238.163 415.500 257.010 415.500 L 275.857 415.500 275.857 372.236 L 275.857 328.973 332.400 328.973 L 388.942 328.973 388.942 309.697 L 388.942 290.421 332.400 290.421 L 275.857 290.421 275.857 268.147 L 275.857 245.873 313.552 245.873 L 351.247 245.873 351.247 226.597 L 351.247 207.321 313.552 207.321 L 275.857 207.321 275.857 185.047 L 275.857 162.773 322.976 162.773 L 370.094 162.773 370.094 143.497 L 370.094 124.222 322.976 124.222 L 275.857 124.222 275.857 80.958 L 275.857 37.695 257.010 37.695 L 238.163 37.695 238.163 80.958 " stroke="none" fill-rule="evenodd" fill="black"></path></svg>