<svg width="136mm" height="120mm" version="1.1" viewBox="0 0 600 529.4117647058824" xmlns="http://www.w3.org/2000/svg"><path d="M101.947 86.955 L 101.947 106.231 262.579 106.231 L 423.210 106.231 423.210 86.955 L 423.210 67.679 262.579 67.679 L 101.947 67.679 101.947 86.955 M218.030 151.609 C 189.050 154.061,164.104 166.013,144.343 186.911 C 129.593 202.510,120.124 220.853,115.565 242.655 C 112.999 254.928,112.994 273.632,115.554 285.871 C 120.573 309.874,130.955 328.873,148.143 345.510 C 164.010 360.870,181.666 370.286,204.323 375.473 C 211.575 377.134,215.269 377.259,266.434 377.583 C 323.091 377.942,331.591 377.590,344.441 374.347 C 378.682 365.705,407.035 341.924,421.020 310.117 C 434.755 278.879,434.040 245.438,418.976 214.569 C 405.704 187.371,382.294 166.814,353.708 157.254 C 336.593 151.530,335.872 151.473,277.999 151.201 C 249.257 151.066,222.271 151.250,218.030 151.609 M298.132 264.720 L 298.132 340.110 272.002 340.110 L 245.873 340.110 245.873 264.720 L 245.873 189.331 272.002 189.331 L 298.132 189.331 298.132 264.720 M207.866 337.281 C 207.063 338.084,192.766 332.048,187.085 328.508 C 174.645 320.754,165.468 310.448,158.893 296.847 C 153.051 284.764,152.097 280.191,152.097 264.292 C 152.097 248.368,153.046 243.842,158.948 231.606 C 167.608 213.654,183.232 199.688,201.988 193.134 L 207.750 191.121 207.969 264.040 C 208.089 304.145,208.043 337.104,207.866 337.281 M349.472 196.228 C 362.917 202.653,372.977 211.410,380.790 223.488 C 388.919 236.053,392.668 248.933,392.668 264.292 C 392.668 285.507,385.641 302.445,370.601 317.485 C 360.894 327.192,351.116 333.152,339.039 336.723 L 336.683 337.420 336.683 264.553 L 336.683 191.687 339.467 192.232 C 340.999 192.532,345.501 194.330,349.472 196.228 " stroke="none" fill-rule="evenodd" fill="black"></path></svg>