<svg width="136mm" height="120mm" version="1.1" viewBox="0 0 600 529.4117647058824" xmlns="http://www.w3.org/2000/svg"><path d="M245.597 38.630 C 226.889 40.606,206.783 50.036,192.090 63.726 C 180.343 74.671,170.198 91.689,165.728 107.944 C 162.679 119.034,161.906 137.399,164.018 148.600 C 167.706 168.161,176.189 184.470,189.848 198.259 C 204.901 213.455,221.534 221.874,244.160 225.749 C 249.654 226.690,240.065 226.863,177.963 226.938 L 105.341 227.025 105.572 245.659 L 105.802 264.292 134.288 264.518 L 162.773 264.743 162.773 343.978 L 162.773 423.212 233.025 388.084 L 303.278 352.955 295.040 336.466 C 290.509 327.397,286.695 319.859,286.564 319.715 C 286.433 319.570,267.008 329.112,243.397 340.920 L 200.468 362.387 200.468 313.554 L 200.468 264.720 234.077 264.720 L 267.687 264.720 259.356 273.082 L 251.026 281.443 319.127 349.540 L 387.227 417.636 400.718 404.145 L 414.209 390.654 351.252 327.693 L 288.296 264.732 348.257 264.512 L 408.218 264.292 408.448 245.659 L 408.679 227.025 336.057 226.938 C 273.955 226.863,264.366 226.690,269.861 225.749 C 301.543 220.323,325.608 203.504,340.442 176.419 C 353.138 153.240,354.749 122.114,344.552 97.055 C 331.305 64.504,301.955 42.346,267.110 38.591 C 257.878 37.596,255.344 37.601,245.597 38.630 M272.728 77.692 C 283.206 80.788,294.547 88.390,301.130 96.730 C 304.918 101.529,310.099 110.343,310.115 112.014 C 310.123 112.859,298.937 113.084,257.010 113.084 C 221.032 113.084,203.895 112.799,203.895 112.199 C 203.895 110.483,208.049 103.145,211.988 97.905 C 220.501 86.581,234.764 78.078,248.437 76.177 C 254.749 75.299,267.273 76.081,272.728 77.692 M310.125 151.725 C 310.125 152.245,308.685 155.425,306.925 158.793 C 302.814 166.658,292.135 177.608,284.424 181.864 C 276.080 186.470,267.767 188.474,257.010 188.474 C 246.253 188.474,237.940 186.470,229.596 181.864 C 221.885 177.608,211.206 166.658,207.095 158.793 C 205.335 155.425,203.895 152.245,203.895 151.725 C 203.895 151.045,218.842 150.779,257.010 150.779 C 295.178 150.779,310.125 151.045,310.125 151.725 " stroke="none" fill-rule="evenodd" fill="black"></path></svg>