<svg width="136mm" height="120mm" version="1.1" viewBox="0 0 600 529.4117647058824" xmlns="http://www.w3.org/2000/svg"><path d="M245.445 38.685 C 215.462 42.039,187.340 61.537,173.356 88.668 C 165.392 104.122,162.322 118.270,163.042 136.215 C 163.997 160.037,173.086 181.214,189.522 197.914 C 204.752 213.387,221.350 221.843,244.160 225.749 C 249.656 226.691,240.147 226.863,178.408 226.938 L 106.231 227.025 106.231 245.873 L 106.231 264.720 134.502 264.720 L 162.773 264.720 162.773 343.966 L 162.773 423.212 233.025 388.084 L 303.278 352.955 295.040 336.466 C 290.509 327.397,286.695 319.859,286.564 319.715 C 286.433 319.570,267.008 329.112,243.397 340.920 L 200.468 362.387 200.468 313.554 L 200.468 264.720 234.077 264.720 L 267.687 264.720 259.356 273.082 L 251.026 281.443 319.123 349.536 L 387.220 417.629 400.507 404.362 L 413.794 391.096 350.611 327.908 L 287.427 264.720 347.608 264.720 L 407.789 264.720 407.789 245.873 L 407.789 227.025 335.612 226.938 C 273.873 226.863,264.364 226.691,269.861 225.749 C 293.943 221.625,312.322 211.697,327.764 194.471 C 349.709 169.992,357.099 133.359,346.412 102.021 C 334.539 67.202,303.698 42.534,267.110 38.591 C 257.757 37.583,255.199 37.594,245.445 38.685 M265.376 76.251 C 277.138 77.779,288.381 83.581,297.500 92.828 C 302.202 97.597,308.445 106.998,309.672 111.157 L 310.241 113.084 257.010 113.084 L 203.779 113.084 204.348 111.157 C 205.575 106.998,211.818 97.597,216.520 92.828 C 229.869 79.291,246.177 73.757,265.376 76.251 M310.125 151.725 C 310.125 152.245,308.685 155.425,306.925 158.793 C 302.814 166.658,292.135 177.608,284.424 181.864 C 276.080 186.470,267.767 188.474,257.010 188.474 C 246.253 188.474,237.940 186.470,229.596 181.864 C 221.885 177.608,211.206 166.658,207.095 158.793 C 205.335 155.425,203.895 152.245,203.895 151.725 C 203.895 151.045,218.842 150.779,257.010 150.779 C 295.178 150.779,310.125 151.045,310.125 151.725 " stroke="none" fill-rule="evenodd" fill="black"></path></svg>