<svg width="136mm" height="120mm" version="1.1" viewBox="0 0 600 529.4117647058824" xmlns="http://www.w3.org/2000/svg"><path d="M244.121 38.637 C 213.728 42.568,186.012 62.789,172.167 91.137 C 161.934 112.088,159.916 137.883,166.801 159.754 C 174.992 185.778,193.326 206.698,217.887 218.046 C 223.575 220.674,235.997 224.481,242.446 225.573 C 243.624 225.772,213.458 225.988,175.409 226.052 L 106.231 226.169 106.231 245.445 L 106.231 264.720 134.502 264.720 L 162.773 264.720 162.773 343.966 L 162.773 423.212 233.025 388.084 L 303.278 352.955 295.040 336.466 C 290.509 327.397,286.696 319.860,286.567 319.717 C 286.437 319.574,267.388 328.922,244.235 340.492 C 221.082 352.061,201.763 361.527,201.303 361.527 C 200.770 361.527,200.468 344.001,200.468 313.124 L 200.468 264.720 234.077 264.720 L 267.687 264.720 259.356 273.082 L 251.026 281.443 319.123 349.536 L 387.220 417.629 400.507 404.362 L 413.794 391.096 350.611 327.908 L 287.427 264.720 347.608 264.720 L 407.789 264.720 407.789 245.445 L 407.789 226.169 338.611 226.109 C 269.569 226.048,269.447 226.045,276.714 224.491 C 307.267 217.956,332.856 196.436,344.424 167.545 C 349.749 154.246,350.783 148.413,350.734 131.932 C 350.694 118.464,350.456 116.070,348.398 108.393 C 335.999 62.139,291.673 32.487,244.121 38.637 M267.969 76.720 C 280.682 79.282,293.911 87.323,301.415 97.050 C 304.627 101.213,310.088 110.875,310.115 112.442 C 310.121 112.795,286.223 113.084,257.010 113.084 C 227.797 113.084,203.895 112.843,203.895 112.547 C 203.895 112.251,205.058 109.649,206.479 106.764 C 215.488 88.477,235.786 75.750,256.404 75.459 C 259.133 75.421,264.337 75.988,267.969 76.720 M310.125 151.725 C 310.125 152.245,308.685 155.425,306.925 158.793 C 302.097 168.030,292.046 177.807,282.711 182.346 C 273.130 187.005,266.968 188.474,257.010 188.474 C 247.052 188.474,240.890 187.005,231.309 182.346 C 221.974 177.807,211.923 168.030,207.095 158.793 C 205.335 155.425,203.895 152.245,203.895 151.725 C 203.895 151.045,218.842 150.779,257.010 150.779 C 295.178 150.779,310.125 151.045,310.125 151.725 " stroke="none" fill-rule="evenodd" fill="black"></path></svg>