<svg width="136mm" height="120mm" version="1.1" viewBox="0 0 600 529.4117647058824" xmlns="http://www.w3.org/2000/svg"><path d="M126.143 130.439 L 58.247 198.338 71.532 211.602 L 84.816 224.866 102.805 206.892 L 120.795 188.918 120.795 288.930 L 120.795 388.942 139.642 388.942 L 158.489 388.942 158.489 270.102 L 158.489 151.261 189.757 119.952 L 221.024 88.643 207.951 75.591 C 200.762 68.412,194.690 62.539,194.459 62.539 C 194.228 62.539,163.485 93.094,126.143 130.439 M238.163 98.520 L 238.163 117.368 279.713 117.368 C 302.565 117.368,321.233 117.657,321.197 118.010 C 321.161 118.364,314.126 139.471,305.562 164.915 L 289.993 211.177 264.078 211.403 L 238.163 211.630 238.163 230.465 L 238.163 249.300 257.802 249.300 L 277.442 249.300 262.300 294.491 L 247.158 339.682 234.950 339.919 L 222.742 340.157 222.742 358.981 L 222.742 377.805 332.400 377.805 L 442.057 377.805 442.057 358.957 L 442.057 340.110 402.293 340.110 L 362.529 340.110 377.658 294.705 L 392.787 249.300 413.567 249.300 L 434.347 249.300 434.347 230.452 L 434.347 211.605 420.211 211.605 C 409.429 211.605,406.076 211.349,406.076 210.528 C 406.076 209.935,415.714 180.542,427.493 145.211 C 439.273 109.879,448.911 80.679,448.911 80.322 C 448.911 79.965,401.492 79.673,343.537 79.673 L 238.163 79.673 238.163 98.520 M396.652 118.010 C 396.652 118.364,389.681 139.567,381.160 165.129 L 365.668 211.605 347.657 211.605 C 333.609 211.605,329.733 211.369,330.042 210.534 C 330.259 209.945,337.333 188.742,345.762 163.416 L 361.087 117.368 378.870 117.368 C 388.650 117.368,396.652 117.657,396.652 118.010 M352.757 250.371 C 352.545 250.960,345.711 271.392,337.571 295.776 L 322.771 340.110 304.791 340.110 C 290.768 340.110,286.898 339.874,287.205 339.039 C 287.422 338.450,294.241 318.018,302.360 293.634 L 317.122 249.300 335.133 249.300 C 349.176 249.300,353.059 249.536,352.757 250.371 " stroke="none" fill-rule="evenodd" fill="black"></path></svg>