<svg width="136mm" height="120mm" version="1.1" viewBox="0 0 600 529.4117647058824" xmlns="http://www.w3.org/2000/svg"><path d="M126.364 130.218 L 58.689 197.896 72.177 211.384 L 85.666 224.873 103.230 207.324 L 120.795 189.775 120.795 289.358 L 120.795 388.942 139.642 388.942 L 158.489 388.942 158.489 270.507 L 158.489 152.073 189.966 120.588 L 221.442 89.103 208.181 75.821 C 200.887 68.516,194.722 62.539,194.479 62.539 C 194.237 62.539,163.585 92.994,126.364 130.218 M238.163 98.520 L 238.163 117.368 279.804 117.368 C 312.757 117.368,321.363 117.591,321.050 118.439 C 320.833 119.028,313.759 140.231,305.330 165.557 L 290.005 211.605 264.084 211.605 L 238.163 211.605 238.163 230.452 L 238.163 249.300 257.802 249.300 L 277.442 249.300 262.300 294.491 L 247.158 339.682 234.950 339.919 L 222.742 340.157 222.742 358.981 L 222.742 377.805 332.400 377.805 L 442.057 377.805 442.057 358.957 L 442.057 340.110 402.293 340.110 L 362.529 340.110 377.658 294.705 L 392.787 249.300 413.567 249.300 L 434.347 249.300 434.347 230.452 L 434.347 211.605 419.852 211.605 L 405.358 211.605 427.134 146.288 C 439.111 110.363,448.911 80.679,448.911 80.322 C 448.911 79.965,401.492 79.673,343.537 79.673 L 238.163 79.673 238.163 98.520 M396.440 118.439 C 396.223 119.028,389.148 140.231,380.720 165.557 L 365.395 211.605 347.520 211.605 C 333.581 211.605,329.733 211.369,330.042 210.534 C 330.259 209.945,337.333 188.742,345.762 163.416 L 361.087 117.368 378.961 117.368 C 392.900 117.368,396.748 117.604,396.440 118.439 M337.687 294.705 L 322.558 340.110 304.684 340.110 C 290.747 340.110,286.898 339.874,287.205 339.039 C 287.422 338.450,294.241 318.018,302.360 293.634 L 317.122 249.300 334.969 249.300 L 352.816 249.300 337.687 294.705 " stroke="none" fill-rule="evenodd" fill="black"></path></svg>