<svg width="136mm" height="120mm" version="1.1" viewBox="0 0 600 529.4117647058824" xmlns="http://www.w3.org/2000/svg"><path d="M332.400 100.234 L 332.400 128.505 298.560 128.505 L 264.720 128.505 264.720 147.352 L 264.720 166.200 298.560 166.200 L 332.400 166.200 332.400 190.616 L 332.400 215.032 304.129 215.032 L 275.857 215.032 275.857 233.879 L 275.857 252.727 304.129 252.727 L 332.400 252.727 332.400 277.571 L 332.400 302.415 292.546 302.415 L 252.693 302.415 252.924 321.048 L 253.155 339.682 292.777 339.904 L 332.400 340.127 332.400 364.534 L 332.400 388.942 351.247 388.942 L 370.094 388.942 370.094 364.526 L 370.094 340.110 409.931 340.110 L 449.767 340.110 449.767 321.262 L 449.767 302.415 409.931 302.415 L 370.094 302.415 370.094 277.571 L 370.094 252.727 398.811 252.727 L 427.527 252.727 427.296 234.093 L 427.065 215.460 398.580 215.234 L 370.094 215.009 370.094 190.604 L 370.094 166.200 404.362 166.200 L 438.630 166.200 438.630 147.352 L 438.630 128.505 404.362 128.505 L 370.094 128.505 370.094 100.234 L 370.094 71.963 351.247 71.963 L 332.400 71.963 332.400 100.234 M83.100 139.642 L 83.100 158.489 111.371 158.489 L 139.642 158.489 139.642 196.184 L 139.642 233.879 111.371 233.879 L 83.100 233.879 83.100 253.155 L 83.100 272.431 111.364 272.431 L 139.627 272.431 139.849 319.335 L 140.070 366.239 158.704 366.470 L 177.337 366.701 177.337 319.577 L 177.337 272.454 205.822 272.228 L 234.307 272.002 234.307 253.155 L 234.307 234.307 205.822 234.082 L 177.337 233.856 177.337 196.173 L 177.337 158.489 206.036 158.489 L 234.736 158.489 234.736 139.642 L 234.736 120.795 158.918 120.795 L 83.100 120.795 83.100 139.642 " stroke="none" fill-rule="evenodd" fill="black"></path></svg>