<svg width="136mm" height="120mm" version="1.1" viewBox="0 0 600 529.4117647058824" xmlns="http://www.w3.org/2000/svg"><path d="M332.400 100.234 L 332.400 128.505 298.560 128.505 L 264.720 128.505 264.720 147.352 L 264.720 166.200 298.560 166.200 L 332.400 166.200 332.400 190.616 L 332.400 215.032 304.129 215.032 L 275.857 215.032 275.857 233.879 L 275.857 252.727 304.129 252.727 L 332.400 252.727 332.400 277.571 L 332.400 302.415 292.991 302.415 L 253.583 302.415 253.583 321.262 L 253.583 340.110 292.991 340.110 L 332.400 340.110 332.400 364.526 L 332.400 388.942 351.247 388.942 L 370.094 388.942 370.094 364.526 L 370.094 340.110 409.931 340.110 L 449.767 340.110 449.767 321.271 L 449.767 302.432 410.145 302.209 L 370.523 301.987 370.523 277.571 L 370.523 253.155 398.580 252.929 L 426.637 252.703 426.637 233.867 L 426.637 215.032 398.365 215.032 L 370.094 215.032 370.094 190.616 L 370.094 166.200 404.362 166.200 L 438.630 166.200 438.630 147.352 L 438.630 128.505 404.362 128.505 L 370.094 128.505 370.094 100.234 L 370.094 71.963 351.247 71.963 L 332.400 71.963 332.400 100.234 M83.100 139.642 L 83.100 158.489 111.371 158.489 L 139.642 158.489 139.642 196.184 L 139.642 233.879 111.371 233.879 L 83.100 233.879 83.100 252.727 L 83.100 271.574 111.364 271.574 L 139.628 271.574 139.849 318.907 L 140.070 366.239 158.696 366.470 L 177.322 366.701 177.544 319.352 L 177.765 272.002 206.267 271.777 L 234.769 271.551 234.538 252.929 L 234.307 234.307 205.813 234.082 L 177.319 233.856 177.542 196.387 L 177.765 158.918 206.251 158.692 L 234.736 158.466 234.736 139.631 L 234.736 120.795 158.918 120.795 L 83.100 120.795 83.100 139.642 " stroke="none" fill-rule="evenodd" fill="black"></path></svg>