<svg width="136mm" height="120mm" version="1.1" viewBox="0 0 600 529.4117647058824" xmlns="http://www.w3.org/2000/svg"><path d="M228.417 125.579 C 160.153 148.353,104.162 167.126,103.993 167.296 C 103.759 167.530,112.941 195.946,115.181 201.919 C 115.446 202.628,120.248 201.376,130.789 197.850 C 139.163 195.049,146.315 192.757,146.683 192.757 C 147.051 192.757,147.352 236.223,147.352 289.348 L 147.352 385.939 213.534 319.762 L 279.715 253.584 339.039 312.908 L 398.363 372.232 411.855 358.740 L 425.348 345.247 340.324 260.223 L 255.299 175.199 241.812 188.686 L 228.325 202.174 240.522 214.393 L 252.720 226.612 218.878 260.444 L 185.036 294.276 185.256 236.949 L 185.476 179.622 274.895 149.814 C 324.076 133.420,364.452 119.869,364.621 119.700 C 364.996 119.325,353.812 85.455,353.066 84.706 C 352.772 84.411,296.680 102.804,228.417 125.579 " stroke="none" fill-rule="evenodd" fill="black"></path></svg>