<svg width="136mm" height="120mm" version="1.1" viewBox="0 0 600 529.4117647058824" xmlns="http://www.w3.org/2000/svg"><path d="M230.455 52.684 L 217.192 65.968 234.311 83.103 L 251.430 100.239 264.712 86.957 L 277.993 73.675 260.856 56.538 L 243.718 39.400 230.455 52.684 M289.351 84.595 L 259.587 114.359 214.821 99.481 C 190.200 91.298,169.719 84.553,169.308 84.494 C 168.735 84.410,162.015 103.151,157.165 118.357 C 156.786 119.545,162.631 121.747,193.258 131.956 L 229.804 144.138 197.142 176.808 L 164.480 209.478 177.766 222.742 L 191.051 236.007 230.351 196.714 L 269.651 157.420 303.649 168.753 C 322.348 174.986,337.763 179.949,337.905 179.782 C 338.484 179.100,349.688 144.655,349.409 144.418 C 349.242 144.276,338.311 140.586,325.118 136.217 C 311.924 131.848,300.797 128.083,300.390 127.850 C 299.983 127.617,310.004 117.067,322.660 104.405 L 345.669 81.384 332.392 68.107 L 319.116 54.831 289.351 84.595 M239.662 222.583 L 166.200 247.150 166.200 329.613 L 166.200 412.075 232.380 378.997 C 268.779 360.804,298.739 345.750,298.957 345.544 C 299.175 345.338,295.966 338.345,291.824 330.004 L 284.294 314.837 328.051 358.526 L 371.808 402.214 385.086 388.936 L 398.364 375.657 337.972 315.269 L 277.579 254.881 264.295 268.144 L 251.011 281.407 266.179 296.592 C 274.520 304.943,281.171 311.941,280.957 312.141 C 280.384 312.680,204.834 350.390,204.327 350.390 C 204.089 350.390,203.895 333.267,203.895 312.339 L 203.895 274.287 264.934 253.967 C 298.506 242.792,326.232 233.504,326.548 233.327 C 327.586 232.747,315.633 198.337,314.335 198.171 C 313.669 198.085,280.066 209.071,239.662 222.583 " stroke="none" fill-rule="evenodd" fill="black"></path></svg>