<svg width="136mm" height="120mm" version="1.1" viewBox="0 0 600 529.4117647058824" xmlns="http://www.w3.org/2000/svg"><path d="M230.455 52.684 L 217.192 65.968 234.311 83.103 L 251.430 100.239 264.712 86.957 L 277.993 73.675 260.856 56.538 L 243.718 39.400 230.455 52.684 M289.351 84.595 L 259.587 114.359 214.821 99.481 C 190.200 91.298,169.719 84.553,169.308 84.494 C 168.303 84.348,156.617 119.281,157.425 120.012 C 157.775 120.327,174.158 125.930,193.831 132.463 L 229.601 144.340 197.041 176.909 L 164.480 209.478 177.766 222.742 L 191.051 236.007 230.351 196.714 L 269.651 157.420 303.649 168.753 C 322.348 174.986,337.763 179.949,337.905 179.782 C 338.484 179.100,349.688 144.655,349.409 144.418 C 349.242 144.276,338.311 140.586,325.118 136.217 C 311.924 131.848,300.797 128.083,300.390 127.850 C 299.983 127.617,310.004 117.067,322.660 104.405 L 345.669 81.384 332.392 68.107 L 319.116 54.831 289.351 84.595 M239.662 222.497 L 166.200 246.938 166.200 329.506 L 166.200 412.075 232.380 378.997 C 268.779 360.804,298.739 345.750,298.957 345.544 C 299.175 345.338,295.966 338.345,291.824 330.004 L 284.294 314.837 327.840 358.315 C 351.790 382.227,371.765 401.792,372.229 401.792 C 373.348 401.792,398.365 376.790,398.365 375.671 C 398.365 374.538,279.120 255.297,277.987 255.297 C 277.511 255.297,271.247 261.180,264.068 268.371 L 251.014 281.445 266.006 296.419 C 274.251 304.654,280.998 311.684,280.998 312.042 C 280.998 312.750,206.162 350.390,204.755 350.390 C 204.192 350.390,203.895 337.247,203.895 312.339 L 203.895 274.287 264.934 253.967 C 298.506 242.792,326.232 233.504,326.548 233.327 C 327.592 232.743,315.633 198.336,314.335 198.191 C 313.669 198.116,280.066 209.054,239.662 222.497 " stroke="none" fill-rule="evenodd" fill="black"></path></svg>