<svg width="136mm" height="120mm" version="1.1" viewBox="0 0 600 529.4117647058824" xmlns="http://www.w3.org/2000/svg"><path d="M117.153 64.340 L 100.233 72.828 113.179 98.739 C 120.299 112.990,126.293 124.829,126.499 125.048 C 127.023 125.605,160.213 108.952,160.157 108.161 C 160.131 107.806,154.252 95.892,147.092 81.684 L 134.074 55.852 117.153 64.340 M186.932 109.310 L 160.205 162.773 121.652 162.773 L 83.100 162.773 83.100 181.620 L 83.100 200.468 112.274 200.468 L 141.448 200.468 109.704 263.657 C 92.244 298.411,77.960 327.160,77.960 327.543 C 77.960 327.926,85.381 331.855,94.451 336.274 C 109.275 343.497,111.051 344.167,112.014 342.902 C 112.875 341.771,113.084 349.530,113.084 382.564 L 113.084 423.632 157.857 378.866 L 202.629 334.099 213.684 356.261 L 224.738 378.422 241.499 370.349 C 250.718 365.909,258.386 362.151,258.539 361.998 C 258.692 361.844,245.227 334.534,228.615 301.307 L 198.413 240.895 181.449 249.386 L 164.484 257.876 174.699 278.293 L 184.914 298.709 168.275 315.332 L 151.636 331.955 151.636 297.905 L 151.636 263.855 167.487 232.161 L 183.338 200.468 227.884 200.468 L 272.431 200.468 272.431 181.620 L 272.431 162.773 237.734 162.773 C 218.651 162.773,203.038 162.579,203.038 162.341 C 203.038 162.104,213.061 141.866,225.312 117.369 L 247.586 72.827 230.622 64.338 L 213.659 55.848 186.932 109.310 M260.437 101.903 L 260.437 120.795 281.426 120.795 L 302.415 120.795 302.415 262.579 L 302.415 404.362 321.262 404.362 L 340.110 404.362 340.110 353.520 L 340.110 302.677 349.748 302.131 C 355.049 301.830,361.235 301.013,363.495 300.315 C 385.788 293.430,403.666 268.368,411.509 233.009 C 414.502 219.513,415.502 209.123,415.483 191.720 C 415.437 150.831,403.853 116.270,383.880 97.429 C 377.255 91.178,372.189 87.924,365.037 85.323 C 360.457 83.657,358.003 83.566,310.340 83.295 L 260.437 83.011 260.437 101.903 M354.630 122.057 C 364.528 127.176,374.417 151.058,376.988 176.052 C 380.225 207.515,373.973 239.431,361.163 256.831 C 356.605 263.023,353.292 264.720,345.763 264.720 L 340.110 264.720 340.110 192.757 L 340.110 120.795 346.149 120.795 C 349.794 120.795,353.157 121.295,354.630 122.057 " stroke="none" fill-rule="evenodd" fill="black"></path></svg>