<svg width="136mm" height="120mm" version="1.1" viewBox="0 0 600 529.4117647058824" xmlns="http://www.w3.org/2000/svg"><path d="M113.656 57.113 C 113.341 57.427,113.084 65.909,113.084 75.961 L 113.084 94.237 137.929 94.237 C 151.593 94.237,162.773 94.336,162.773 94.456 C 162.773 94.577,151.015 129.946,136.644 173.053 C 122.273 216.161,110.514 251.722,110.514 252.079 C 110.514 252.435,124.778 252.727,142.212 252.727 L 173.910 252.727 173.910 262.139 L 173.910 271.552 143.711 271.777 L 113.513 272.002 113.282 290.635 L 113.051 309.269 137.484 309.269 C 150.922 309.269,161.916 309.463,161.916 309.700 C 161.916 309.938,152.315 329.333,140.579 352.800 L 119.242 395.468 135.915 403.791 C 145.085 408.369,152.856 411.943,153.183 411.733 C 153.510 411.523,162.448 393.972,173.046 372.732 C 183.643 351.492,192.512 334.113,192.754 334.113 C 192.996 334.113,201.963 351.654,212.679 373.093 C 223.395 394.532,232.553 412.073,233.030 412.073 C 233.506 412.073,241.217 408.408,250.165 403.930 L 266.433 395.787 245.016 352.960 C 233.236 329.405,223.599 309.938,223.599 309.700 C 223.599 309.463,236.128 309.269,251.441 309.269 L 279.284 309.269 279.284 290.421 L 279.284 271.574 245.445 271.574 L 211.605 271.574 211.605 262.107 L 211.605 252.640 279.070 252.934 C 346.383 253.227,346.550 253.232,352.960 255.176 C 390.721 266.628,409.556 304.420,395.811 341.157 C 391.617 352.367,379.917 366.052,368.973 372.549 C 362.092 376.634,350.884 380.283,343.228 380.930 L 336.683 381.483 336.683 400.205 L 336.683 418.926 341.283 418.926 C 343.813 418.926,349.306 418.338,353.491 417.619 C 394.945 410.497,427.564 378.878,436.101 337.540 C 438.605 325.417,438.663 308.739,436.242 297.275 C 428.900 262.518,405.401 234.707,372.521 221.861 C 370.008 220.879,363.905 219.083,358.957 217.870 C 350.330 215.755,348.677 215.648,318.577 215.262 L 287.191 214.860 313.222 136.777 C 327.539 93.832,339.253 58.210,339.253 57.618 C 339.253 56.760,316.473 56.542,226.740 56.542 C 164.858 56.542,113.970 56.799,113.656 57.113 M286.995 94.873 C 286.995 95.222,278.033 122.401,267.081 155.270 L 247.167 215.032 204.970 215.032 C 181.762 215.032,162.773 214.739,162.773 214.382 C 162.773 213.445,201.889 96.260,202.569 95.159 C 203.227 94.095,286.995 93.811,286.995 94.873 " stroke="none" fill-rule="evenodd" fill="black"></path></svg>