<svg width="136mm" height="120mm" version="1.1" viewBox="0 0 600 529.4117647058824" xmlns="http://www.w3.org/2000/svg"><path d="M113.084 75.390 L 113.084 94.237 137.929 94.237 C 151.593 94.237,162.773 94.336,162.773 94.456 C 162.773 94.577,151.015 129.946,136.644 173.053 C 122.273 216.161,110.514 251.722,110.514 252.079 C 110.514 252.435,124.778 252.727,142.212 252.727 L 173.910 252.727 173.910 262.579 L 173.910 272.431 143.481 272.431 L 113.051 272.431 113.282 291.064 L 113.513 309.697 137.710 309.925 L 161.906 310.152 140.494 352.970 L 119.082 395.787 135.350 403.930 C 144.298 408.408,152.009 412.073,152.485 412.073 C 152.962 412.073,162.120 394.532,172.836 373.093 C 183.552 351.654,192.517 334.113,192.758 334.113 C 192.998 334.113,201.963 351.654,212.679 373.093 C 223.395 394.532,232.553 412.073,233.030 412.073 C 233.506 412.073,241.217 408.408,250.165 403.930 L 266.433 395.787 245.020 352.968 L 223.607 310.149 251.660 309.923 L 279.713 309.697 279.943 291.064 L 280.174 272.431 245.890 272.431 L 211.605 272.431 211.605 262.523 L 211.605 252.614 278.642 252.956 C 353.007 253.334,351.389 253.218,363.604 259.093 C 381.027 267.473,395.203 284.916,398.865 302.481 C 401.486 315.050,400.169 331.286,395.651 342.095 C 390.144 355.273,377.495 368.597,364.635 374.766 C 356.374 378.729,347.064 381.231,340.583 381.231 L 336.683 381.231 336.683 400.079 L 336.683 418.926 341.729 418.926 C 344.504 418.926,349.969 418.320,353.873 417.580 C 380.706 412.489,402.676 398.803,418.680 377.207 C 425.229 368.370,429.365 360.331,433.092 349.192 C 452.597 290.903,415.594 228.368,354.917 217.077 C 349.236 216.020,340.018 215.573,317.296 215.253 L 287.201 214.830 313.227 136.762 C 327.541 93.825,339.253 58.210,339.253 57.618 C 339.253 56.760,316.360 56.542,226.169 56.542 L 113.084 56.542 113.084 75.390 M286.995 94.873 C 286.995 95.222,278.033 122.401,267.081 155.270 L 247.167 215.032 204.970 215.032 C 181.762 215.032,162.773 214.739,162.773 214.382 C 162.773 213.445,201.889 96.260,202.569 95.159 C 203.227 94.095,286.995 93.811,286.995 94.873 " stroke="none" fill-rule="evenodd" fill="black"></path></svg>