<svg width="136mm" height="120mm" version="1.1" viewBox="0 0 600 529.4117647058824" xmlns="http://www.w3.org/2000/svg"><path d="M169.284 128.291 C 153.785 174.820,140.927 213.372,140.710 213.961 C 140.396 214.814,161.341 215.032,243.639 215.032 C 300.468 215.032,346.964 215.225,346.964 215.462 C 346.964 215.699,330.771 248.275,310.980 287.855 L 274.997 359.817 245.778 345.202 C 229.707 337.164,216.451 330.706,216.319 330.851 C 215.614 331.629,199.552 364.320,199.775 364.524 C 200.287 364.991,291.277 410.359,291.703 410.359 C 292.265 410.359,407.789 179.319,407.789 178.195 C 407.789 177.627,371.485 177.337,300.273 177.337 C 241.140 177.337,192.757 177.237,192.757 177.116 C 192.757 176.994,201.817 149.722,212.890 116.511 C 223.963 83.300,233.022 55.867,233.022 55.549 C 233.022 54.979,199.991 43.692,198.322 43.692 C 197.850 43.692,184.782 81.761,169.284 128.291 " stroke="none" fill-rule="evenodd" fill="black"></path></svg>