<svg width="136mm" height="120mm" version="1.1" viewBox="0 0 600 529.4117647058824" xmlns="http://www.w3.org/2000/svg"><path d="M131.932 65.840 L 131.932 93.986 122.134 94.979 C 110.524 96.156,103.116 98.278,93.831 103.085 C 68.569 116.163,53.115 141.581,53.115 170.055 C 53.115 208.666,81.932 240.587,120.695 244.914 C 125.114 245.408,128.893 245.975,129.094 246.176 C 129.294 246.376,112.667 280.121,92.144 321.164 L 54.831 395.788 71.098 403.930 C 80.046 408.409,87.755 412.073,88.230 412.073 C 88.706 412.073,103.071 384.122,120.153 349.960 L 151.211 287.848 182.264 349.960 C 199.343 384.122,213.706 412.073,214.183 412.073 C 214.659 412.073,222.369 408.409,231.317 403.930 L 247.584 395.788 210.271 321.164 C 189.748 280.121,173.121 246.376,173.322 246.176 C 173.522 245.975,177.301 245.408,181.720 244.914 C 195.052 243.426,209.581 237.809,219.134 230.449 C 224.418 226.378,233.381 216.812,236.790 211.605 C 240.913 205.309,245.977 193.786,247.709 186.761 C 248.419 183.882,248.869 177.217,248.865 169.627 C 248.860 159.267,248.534 156.066,246.900 150.351 C 241.207 130.431,227.589 113.309,209.859 103.775 C 200.683 98.841,191.523 96.119,180.251 94.976 L 170.483 93.986 170.483 65.840 L 170.483 37.695 151.208 37.695 L 131.932 37.695 131.932 65.840 M382.571 153.256 C 363.801 209.614,348.289 255.901,348.099 256.115 C 347.909 256.330,335.433 244.189,320.375 229.137 L 292.997 201.768 279.712 215.032 L 266.427 228.296 300.270 262.147 C 318.884 280.765,334.113 296.578,334.113 297.288 C 334.113 297.997,327.211 319.275,318.776 344.571 L 303.439 390.564 321.302 396.525 L 339.165 402.486 351.702 364.873 C 358.598 344.185,364.496 327.259,364.808 327.259 C 365.120 327.259,382.242 344.123,402.856 364.733 L 440.337 402.207 453.623 388.941 L 466.909 375.676 422.357 331.118 L 377.804 286.560 415.054 174.818 C 435.541 113.360,452.172 62.945,452.011 62.783 C 451.850 62.622,443.838 59.857,434.208 56.639 L 416.698 50.787 382.571 153.256 M302.144 75.597 C 291.039 79.315,284.446 81.937,284.670 82.548 C 284.867 83.087,292.463 105.888,301.549 133.217 C 310.636 160.546,318.183 183.039,318.322 183.203 C 318.863 183.843,353.817 171.747,353.817 170.919 C 353.817 169.991,320.646 70.171,320.223 69.827 C 320.088 69.717,311.952 72.314,302.144 75.597 M131.932 170.117 L 131.932 208.301 127.006 207.735 C 115.709 206.436,108.990 203.371,101.938 196.299 C 87.593 181.913,87.262 159.056,101.185 144.334 C 108.874 136.204,116.300 133.044,130.004 132.069 L 131.932 131.932 131.932 170.117 M185.203 134.095 C 187.410 134.720,191.265 136.549,193.770 138.159 C 206.755 146.503,213.165 160.512,210.919 175.639 C 209.744 183.558,206.388 190.170,200.458 196.248 C 193.540 203.340,186.652 206.482,175.409 207.672 L 170.483 208.193 170.483 170.020 L 170.483 131.847 175.838 132.402 C 178.783 132.708,182.997 133.469,185.203 134.095 " stroke="none" fill-rule="evenodd" fill="black"></path></svg>