<svg width="136mm" height="120mm" version="1.1" viewBox="0 0 600 529.4117647058824" xmlns="http://www.w3.org/2000/svg"><path d="M131.932 65.840 L 131.932 93.986 122.164 94.976 C 107.108 96.503,95.329 100.913,83.990 109.268 C 69.661 119.827,60.855 132.831,55.484 151.365 C 53.841 157.037,53.556 159.961,53.624 170.483 C 53.693 181.343,53.991 183.853,55.987 190.441 C 60.266 204.561,66.610 214.826,77.374 225.051 C 89.158 236.245,104.001 243.050,120.695 244.914 C 125.114 245.408,128.893 245.975,129.094 246.176 C 129.294 246.376,112.667 280.121,92.144 321.164 L 54.831 395.788 71.098 403.930 C 80.046 408.409,87.755 412.073,88.230 412.073 C 88.706 412.073,103.071 384.122,120.153 349.960 L 151.211 287.848 182.264 349.960 C 199.343 384.122,213.706 412.073,214.183 412.073 C 214.659 412.073,222.369 408.409,231.317 403.930 L 247.584 395.788 210.271 321.164 C 189.748 280.121,173.121 246.376,173.322 246.176 C 173.522 245.975,177.301 245.408,181.720 244.914 C 201.070 242.754,217.798 234.045,230.870 219.327 C 236.497 212.991,240.151 207.049,243.590 198.638 C 248.111 187.584,248.872 183.398,248.865 169.627 C 248.860 159.267,248.534 156.066,246.900 150.351 C 241.069 129.948,227.467 113.096,208.940 103.319 C 199.437 98.304,192.145 96.182,180.281 94.979 L 170.483 93.986 170.483 65.840 L 170.483 37.695 151.208 37.695 L 131.932 37.695 131.932 65.840 M382.446 152.786 C 363.746 208.931,348.255 255.202,348.022 255.609 C 347.789 256.016,335.313 244.069,320.297 229.059 L 292.997 201.768 279.712 215.032 L 266.427 228.296 300.479 262.356 L 334.530 296.415 319.205 342.464 C 310.776 367.791,303.717 388.954,303.519 389.492 C 303.296 390.100,309.965 392.741,321.162 396.478 L 339.165 402.486 351.702 364.873 C 358.598 344.185,364.496 327.259,364.808 327.259 C 365.120 327.259,382.242 344.123,402.856 364.733 L 440.337 402.207 453.623 388.941 L 466.909 375.676 422.357 331.118 L 377.804 286.560 415.054 174.818 C 435.541 113.360,452.172 62.945,452.011 62.783 C 451.850 62.622,443.782 59.838,434.082 56.597 L 416.446 50.703 382.446 152.786 M302.144 75.597 C 291.039 79.315,284.446 81.937,284.670 82.548 C 284.867 83.087,292.463 105.888,301.549 133.217 C 310.636 160.546,318.183 183.039,318.322 183.203 C 318.863 183.843,353.817 171.747,353.817 170.919 C 353.817 169.991,320.646 70.171,320.223 69.827 C 320.088 69.717,311.952 72.314,302.144 75.597 M131.932 170.062 L 131.932 208.193 127.006 207.672 C 115.744 206.480,108.858 203.333,101.957 196.226 C 87.853 181.700,87.339 159.782,100.753 144.862 C 108.113 136.676,116.441 133.034,130.004 132.069 L 131.932 131.932 131.932 170.062 M184.191 133.830 C 193.513 136.157,203.749 144.799,207.886 153.834 C 214.568 168.429,211.662 185.081,200.477 196.299 C 193.425 203.371,186.706 206.436,175.409 207.735 L 170.483 208.301 170.483 170.055 L 170.483 131.809 175.409 132.338 C 178.119 132.630,182.070 133.301,184.191 133.830 " stroke="none" fill-rule="evenodd" fill="black"></path></svg>