<svg width="136mm" height="120mm" version="1.1" viewBox="0 0 600 529.4117647058824" xmlns="http://www.w3.org/2000/svg"><path d="M132.788 65.839 L 132.788 93.984 124.746 94.549 C 113.521 95.338,104.655 97.767,94.665 102.789 C 74.740 112.807,61.142 129.815,55.157 152.205 C 53.966 156.660,53.603 161.033,53.642 170.483 C 53.686 181.409,53.968 183.814,55.982 190.441 C 60.276 204.575,66.615 214.831,77.374 225.051 C 89.100 236.190,105.508 243.708,120.381 244.758 C 124.305 245.035,127.959 245.536,128.502 245.871 C 129.165 246.281,117.273 270.910,92.239 320.974 L 54.990 395.468 71.663 403.791 C 80.833 408.369,88.603 411.942,88.930 411.732 C 89.258 411.521,103.402 383.560,120.363 349.596 L 151.202 287.844 182.261 349.958 C 199.344 384.121,213.709 412.073,214.185 412.073 C 214.660 412.073,222.369 408.409,231.317 403.930 L 247.584 395.788 210.271 321.164 C 189.748 280.121,173.159 246.339,173.405 246.092 C 173.652 245.846,177.251 245.330,181.404 244.947 C 219.502 241.432,249.329 208.580,249.293 170.174 C 249.256 129.876,218.938 97.649,178.170 94.571 L 170.483 93.991 170.483 65.843 L 170.483 37.695 151.636 37.695 L 132.788 37.695 132.788 65.839 M382.456 152.755 C 363.750 208.917,348.255 255.202,348.022 255.609 C 347.789 256.016,335.313 244.069,320.297 229.059 L 292.997 201.768 279.712 215.032 L 266.427 228.296 300.479 262.356 L 334.530 296.415 319.205 342.464 C 310.776 367.791,303.717 388.954,303.519 389.492 C 303.296 390.100,309.965 392.741,321.162 396.478 L 339.165 402.486 351.702 364.873 C 358.598 344.185,364.496 327.259,364.808 327.259 C 365.120 327.259,382.242 344.123,402.856 364.733 L 440.337 402.207 453.623 388.941 L 466.909 375.676 422.357 331.118 L 377.804 286.560 415.061 174.797 C 435.552 113.327,452.033 62.778,451.685 62.465 C 451.214 62.041,426.667 53.780,417.482 50.954 C 416.823 50.751,404.556 86.402,382.456 152.755 M302.144 75.597 C 291.039 79.315,284.446 81.937,284.670 82.548 C 284.867 83.087,292.463 105.888,301.549 133.217 C 310.636 160.546,318.183 183.039,318.322 183.203 C 318.863 183.843,353.817 171.747,353.817 170.919 C 353.817 169.991,320.646 70.171,320.223 69.827 C 320.088 69.717,311.952 72.314,302.144 75.597 M132.583 169.949 L 132.807 207.537 125.568 207.157 C 119.402 206.834,117.391 206.313,111.989 203.643 C 92.494 194.009,85.233 170.693,95.723 151.418 C 98.542 146.239,106.407 138.829,111.943 136.136 C 116.993 133.680,124.326 131.980,128.933 132.198 L 132.360 132.360 132.583 169.949 M181.861 133.192 C 185.055 133.869,189.585 135.466,191.926 136.740 C 197.090 139.551,204.686 147.330,207.345 152.531 C 215.105 167.711,212.004 185.794,199.660 197.340 C 193.315 203.276,185.543 206.670,177.188 207.153 L 170.483 207.542 170.483 169.737 L 170.483 131.932 173.268 131.947 C 174.799 131.955,178.666 132.515,181.861 133.192 " stroke="none" fill-rule="evenodd" fill="black"></path></svg>