<svg width="136mm" height="120mm" version="1.1" viewBox="0 0 600 529.4117647058824" xmlns="http://www.w3.org/2000/svg"><path d="M120.795 111.361 L 120.795 150.758 88.883 150.983 L 56.971 151.208 56.740 169.841 L 56.509 188.474 88.652 188.474 L 120.795 188.474 120.795 249.094 L 120.795 309.713 84.813 327.688 C 65.024 337.574,48.832 345.760,48.832 345.879 C 48.832 345.998,52.568 353.579,57.134 362.726 L 65.436 379.356 148.370 337.888 L 231.304 296.419 222.964 279.713 C 218.377 270.525,214.328 263.007,213.966 263.007 C 213.604 263.007,200.971 269.178,185.892 276.720 L 158.476 290.433 158.697 239.668 L 158.918 188.902 190.830 188.678 L 222.742 188.453 222.742 169.616 L 222.742 150.779 190.616 150.779 L 158.489 150.779 158.489 111.371 L 158.489 71.963 139.642 71.963 L 120.795 71.963 120.795 111.361 M242.164 87.094 C 241.848 87.410,241.589 95.893,241.589 105.945 L 241.589 124.222 277.571 124.222 C 297.361 124.222,313.552 124.512,313.552 124.867 C 313.552 125.222,294.115 183.821,270.359 255.086 C 246.603 326.351,227.435 384.658,227.763 384.658 C 228.091 384.658,250.869 377.141,278.381 367.953 C 305.893 358.766,328.526 351.371,328.676 351.522 C 328.826 351.672,326.449 359.274,323.393 368.416 C 320.336 377.558,317.836 385.145,317.836 385.276 C 317.836 385.408,350.838 385.515,391.175 385.515 C 449.486 385.515,464.434 385.296,464.121 384.444 C 463.904 383.855,456.904 362.881,448.564 337.835 L 433.402 292.297 415.536 298.260 L 397.670 304.222 404.787 325.535 C 408.701 337.257,411.685 347.066,411.417 347.334 C 410.783 347.967,371.387 347.970,370.753 347.337 C 370.488 347.071,381.989 311.703,396.312 268.740 C 410.634 225.777,422.353 190.142,422.353 189.550 C 422.353 188.700,412.918 188.474,377.445 188.474 L 332.537 188.474 343.250 156.348 L 353.963 124.222 396.313 124.222 L 438.664 124.222 438.433 105.588 L 438.202 86.955 340.470 86.737 C 286.718 86.617,242.480 86.778,242.164 87.094 M370.094 227.675 C 370.094 228.584,330.835 346.244,330.379 346.699 C 330.175 346.904,327.795 340.397,325.091 332.239 C 322.387 324.082,319.842 316.760,319.436 315.970 C 318.775 314.681,317.126 315.058,303.516 319.611 C 295.165 322.404,288.063 324.689,287.733 324.689 C 287.403 324.689,294.460 302.715,303.414 275.857 L 319.694 227.025 344.894 227.025 C 358.754 227.025,370.094 227.318,370.094 227.675 " stroke="none" fill-rule="evenodd" fill="black"></path></svg>