<svg width="136mm" height="120mm" version="1.1" viewBox="0 0 600 529.4117647058824" xmlns="http://www.w3.org/2000/svg"><path d="M120.795 111.371 L 120.795 150.779 88.652 150.779 L 56.509 150.779 56.740 169.841 L 56.971 188.902 88.883 189.127 L 120.795 189.352 120.795 249.308 L 120.795 309.265 84.813 327.259 C 65.024 337.156,48.832 345.643,48.832 346.117 C 48.832 346.592,52.496 354.301,56.974 363.248 L 65.117 379.516 148.213 337.966 C 193.916 315.114,231.309 296.229,231.309 296.000 C 231.309 295.651,215.136 263.960,214.556 263.172 C 214.449 263.027,201.986 269.099,186.859 276.665 C 171.733 284.231,159.161 290.421,158.923 290.421 C 158.685 290.421,158.489 267.676,158.489 239.876 L 158.489 189.331 190.616 189.331 L 222.742 189.331 222.742 170.055 L 222.742 150.779 190.616 150.779 L 158.489 150.779 158.489 111.371 L 158.489 71.963 139.642 71.963 L 120.795 71.963 120.795 111.371 M241.787 106.017 L 242.018 124.650 277.785 124.873 C 297.457 124.996,313.552 125.191,313.552 125.305 C 313.552 125.419,294.104 183.854,270.334 255.160 C 246.565 326.466,227.578 384.637,228.142 384.430 C 237.146 381.125,328.325 351.171,328.586 351.432 C 328.786 351.631,326.449 359.274,323.393 368.416 C 320.336 377.558,317.836 385.145,317.836 385.276 C 317.836 385.408,350.797 385.515,391.084 385.515 C 431.370 385.515,464.331 385.226,464.331 384.873 C 464.331 384.020,434.214 293.535,433.759 293.021 C 433.071 292.243,398.365 304.267,398.365 305.283 C 398.365 305.848,401.450 315.545,405.219 326.831 C 408.989 338.117,412.073 347.457,412.073 347.586 C 412.073 348.053,371.224 347.807,370.753 347.337 C 370.488 347.071,381.989 311.703,396.312 268.740 C 410.634 225.777,422.353 190.335,422.353 189.978 C 422.353 189.622,402.088 189.331,377.319 189.331 C 334.817 189.331,332.311 189.246,332.764 187.831 C 333.027 187.007,337.808 172.646,343.389 155.919 L 353.534 125.507 395.868 125.078 L 438.202 124.650 438.433 106.017 L 438.664 87.383 340.110 87.383 L 241.556 87.383 241.787 106.017 M370.094 227.675 C 370.094 228.584,330.835 346.244,330.379 346.699 C 330.175 346.904,327.602 339.818,324.661 330.954 C 321.721 322.090,319.244 314.746,319.158 314.634 C 319.071 314.523,312.100 316.739,303.667 319.560 C 295.233 322.381,288.063 324.689,287.733 324.689 C 287.403 324.689,294.460 302.715,303.414 275.857 L 319.694 227.025 344.894 227.025 C 358.754 227.025,370.094 227.318,370.094 227.675 " stroke="none" fill-rule="evenodd" fill="black"></path></svg>