<svg width="136mm" height="120mm" version="1.1" viewBox="0 0 600 529.4117647058824" xmlns="http://www.w3.org/2000/svg"><path d="M385.515 152.712 L 385.515 267.729 351.675 284.642 L 317.836 301.556 317.836 209.462 L 317.836 117.368 298.560 117.368 L 279.284 117.368 279.284 219.109 L 279.284 320.850 258.296 331.334 L 237.309 341.817 245.650 358.526 C 250.238 367.716,254.286 375.235,254.646 375.235 C 255.006 375.235,284.599 360.585,320.408 342.679 L 385.515 310.123 385.515 362.811 L 385.515 415.500 404.362 415.500 L 423.210 415.500 423.210 353.392 L 423.210 291.285 443.985 280.906 C 455.411 275.197,464.936 270.360,465.152 270.158 C 465.594 269.743,449.675 237.375,448.737 236.780 C 448.405 236.570,442.724 239.108,436.112 242.420 C 429.499 245.733,423.891 248.443,423.650 248.443 C 423.408 248.443,423.210 201.025,423.210 143.069 L 423.210 37.695 404.362 37.695 L 385.515 37.695 385.515 152.712 M128.505 200.034 L 128.505 354.664 119.545 350.207 C 114.617 347.756,110.419 345.927,110.217 346.143 C 110.015 346.359,106.143 353.955,101.612 363.023 L 93.375 379.511 129.355 397.505 C 149.144 407.402,165.530 415.500,165.767 415.500 C 166.005 415.500,166.200 332.228,166.200 230.452 L 166.200 45.405 147.352 45.405 L 128.505 45.405 128.505 200.034 M53.117 124.648 L 39.853 137.933 62.543 160.635 L 85.232 183.336 98.513 170.056 L 111.794 156.775 89.088 134.069 L 66.382 111.363 53.117 124.648 M205.812 133.869 L 183.329 156.364 196.590 169.604 L 209.850 182.844 231.931 161.058 C 244.075 149.076,254.293 139.055,254.638 138.789 C 254.982 138.522,249.196 132.245,241.779 124.839 L 228.295 111.375 205.812 133.869 M62.539 273.716 L 39.846 296.421 53.125 309.700 L 66.404 322.979 89.097 300.273 L 111.790 277.568 98.511 264.289 L 85.232 251.010 62.539 273.716 M196.182 264.294 L 182.922 277.575 205.608 300.274 L 228.295 322.972 241.798 309.489 L 255.301 296.006 232.816 273.509 C 220.450 261.136,210.132 251.013,209.887 251.013 C 209.643 251.013,203.475 256.990,196.182 264.294 " stroke="none" fill-rule="evenodd" fill="black"></path></svg>