<svg width="136mm" height="120mm" version="1.1" viewBox="0 0 600 529.4117647058824" xmlns="http://www.w3.org/2000/svg"><path d="M385.515 152.712 L 385.515 267.729 351.675 284.642 L 317.836 301.556 317.836 209.462 L 317.836 117.368 298.560 117.368 L 279.284 117.368 279.284 219.109 L 279.284 320.850 258.296 331.334 L 237.309 341.817 245.650 358.526 C 250.238 367.716,254.286 375.235,254.646 375.235 C 255.006 375.235,284.599 360.585,320.408 342.679 L 385.515 310.123 385.515 362.811 L 385.515 415.500 404.362 415.500 L 423.210 415.500 423.210 353.392 L 423.210 291.285 443.985 280.906 C 455.411 275.197,464.936 270.360,465.152 270.158 C 465.594 269.743,449.675 237.375,448.737 236.780 C 448.405 236.570,442.724 239.108,436.112 242.420 C 429.499 245.733,423.891 248.443,423.650 248.443 C 423.408 248.443,423.210 201.025,423.210 143.069 L 423.210 37.695 404.362 37.695 L 385.515 37.695 385.515 152.712 M128.505 200.047 L 128.505 354.689 119.954 350.398 C 115.250 348.038,111.204 346.107,110.963 346.107 C 110.531 346.107,94.237 378.228,94.237 379.079 C 94.237 379.318,110.429 387.612,130.218 397.509 L 166.200 415.503 166.200 230.454 L 166.200 45.405 147.352 45.405 L 128.505 45.405 128.505 200.047 M53.117 124.648 L 39.853 137.933 62.543 160.635 L 85.232 183.336 98.513 170.056 L 111.794 156.775 89.088 134.069 L 66.382 111.363 53.117 124.648 M205.812 133.869 L 183.330 156.364 196.833 169.847 L 210.336 183.330 232.818 160.836 L 255.301 138.341 241.798 124.858 L 228.295 111.375 205.812 133.869 M62.539 273.716 L 39.846 296.421 53.125 309.700 L 66.404 322.979 89.097 300.273 L 111.790 277.568 98.511 264.289 L 85.232 251.010 62.539 273.716 M196.821 264.512 L 183.337 278.015 205.832 300.497 L 228.327 322.980 241.810 309.477 L 255.293 295.974 232.798 273.492 L 210.304 251.009 196.821 264.512 " stroke="none" fill-rule="evenodd" fill="black"></path></svg>