<svg width="136mm" height="120mm" version="1.1" viewBox="0 0 600 529.4117647058824" xmlns="http://www.w3.org/2000/svg"><path d="M109.611 97.450 L 109.564 157.204 91.954 122.080 C 82.268 102.761,74.177 86.778,73.974 86.562 C 73.560 86.122,41.192 102.038,40.598 102.975 C 40.307 103.432,76.415 176.804,77.534 178.030 C 77.667 178.176,84.752 174.802,93.279 170.534 C 101.806 166.265,108.980 162.773,109.220 162.773 C 109.461 162.773,109.658 172.989,109.658 185.476 L 109.658 208.178 73.659 208.178 L 37.661 208.178 37.892 226.811 L 38.123 245.445 70.035 245.669 C 87.587 245.793,101.947 246.181,101.947 246.532 C 101.947 246.882,91.191 279.433,78.044 318.867 L 54.141 390.564 72.003 396.525 L 89.865 402.486 108.864 345.383 C 119.313 313.976,128.111 288.002,128.414 287.664 C 128.717 287.325,137.611 313.004,148.178 344.729 L 167.391 402.409 184.904 396.557 C 194.537 393.338,202.550 390.572,202.712 390.410 C 202.873 390.249,192.218 357.761,179.034 318.215 C 165.850 278.669,155.063 246.214,155.063 246.093 C 155.063 245.972,169.520 245.873,187.189 245.873 L 219.315 245.873 219.315 227.035 L 219.315 208.197 183.548 207.973 L 147.781 207.750 147.552 185.261 C 147.427 172.893,147.527 162.773,147.776 162.773 C 148.024 162.773,155.204 166.265,163.731 170.534 C 172.258 174.802,179.343 178.176,179.476 178.030 C 179.941 177.520,216.745 103.664,216.745 103.241 C 216.745 102.817,184.609 86.527,183.773 86.527 C 183.534 86.527,175.338 102.429,165.559 121.866 L 147.781 157.204 147.561 97.450 L 147.341 37.695 128.499 37.695 L 109.658 37.695 109.611 97.450 M334.541 102.879 C 306.355 105.776,280.103 118.369,259.624 138.817 C 242.569 155.846,230.415 178.122,225.752 200.896 C 222.372 217.406,222.372 235.768,225.753 252.298 C 230.941 277.661,245.983 303.294,265.577 320.161 C 300.754 350.443,346.811 359.061,390.429 343.521 C 425.126 331.160,453.780 301.708,465.561 266.297 C 470.676 250.923,471.613 244.772,471.613 226.597 C 471.613 208.422,470.676 202.272,465.561 186.897 C 447.251 131.860,392.733 96.900,334.541 102.879 M369.181 142.689 C 395.218 149.217,417.115 168.137,427.557 193.130 C 438.569 219.489,435.766 250.234,420.166 274.199 C 415.236 281.772,403.327 293.935,396.434 298.436 C 372.793 313.873,345.368 317.535,319.596 308.695 C 293.018 299.580,272.668 278.191,264.133 250.403 C 261.966 243.349,261.820 241.850,261.820 226.597 C 261.820 211.345,261.966 209.846,264.133 202.791 C 274.538 168.915,302.734 144.791,336.895 140.536 C 345.998 139.402,359.721 140.317,369.181 142.689 M317.617 200.258 L 304.134 213.761 334.337 243.955 L 364.541 274.150 377.598 261.072 C 384.779 253.880,390.655 247.611,390.655 247.143 C 390.655 246.675,377.255 232.896,360.878 216.524 L 331.100 186.755 317.617 200.258 " stroke="none" fill-rule="evenodd" fill="black"></path></svg>