<svg width="136mm" height="120mm" version="1.1" viewBox="0 0 600 529.4117647058824" xmlns="http://www.w3.org/2000/svg"><path d="M109.611 97.450 L 109.564 157.204 91.954 122.080 C 82.268 102.761,74.177 86.778,73.974 86.562 C 73.560 86.122,41.192 102.038,40.598 102.975 C 40.307 103.432,76.415 176.804,77.534 178.030 C 77.667 178.176,84.752 174.802,93.279 170.534 C 101.806 166.265,108.980 162.773,109.220 162.773 C 109.461 162.773,109.658 172.792,109.658 185.038 L 109.658 207.303 73.890 207.526 L 38.123 207.750 38.123 226.597 L 38.123 245.445 70.035 245.669 C 87.587 245.793,101.947 246.181,101.947 246.532 C 101.947 246.882,91.191 279.433,78.044 318.867 L 54.141 390.564 72.003 396.525 L 89.865 402.486 108.872 345.383 C 119.326 313.976,128.091 287.913,128.349 287.465 C 128.607 287.017,137.519 312.736,148.152 344.617 L 167.485 402.584 184.619 396.952 C 194.043 393.855,202.038 391.059,202.386 390.740 C 202.734 390.421,192.229 357.794,179.041 318.236 C 165.853 278.678,155.063 246.218,155.063 246.103 C 155.063 245.988,169.423 245.793,186.975 245.669 L 218.887 245.445 218.887 226.597 L 218.887 207.750 183.120 207.526 L 147.352 207.303 147.352 185.038 C 147.352 172.792,147.549 162.773,147.790 162.773 C 148.030 162.773,155.204 166.265,163.731 170.534 C 172.258 174.802,179.343 178.176,179.476 178.030 C 180.103 177.343,216.745 103.586,216.745 103.011 C 216.745 102.301,185.589 86.527,184.187 86.527 C 183.720 86.527,175.338 102.429,165.559 121.866 L 147.781 157.204 147.561 97.450 L 147.341 37.695 128.499 37.695 L 109.658 37.695 109.611 97.450 M332.400 102.879 C 302.223 106.753,273.166 122.201,253.859 144.637 C 221.287 182.486,213.922 234.631,234.841 279.284 C 264.037 341.607,338.515 368.574,400.585 339.295 C 436.397 322.403,461.532 290.154,470.061 250.156 C 472.295 239.676,472.259 213.394,469.994 202.610 C 458.907 149.804,416.691 110.089,364.356 103.228 C 353.898 101.857,341.424 101.721,332.400 102.879 M358.832 140.534 C 401.680 145.907,434.347 183.136,434.347 226.597 C 434.347 283.113,381.049 324.546,326.236 310.642 C 284.964 300.172,257.032 260.386,261.358 218.230 C 263.461 197.741,271.958 179.700,286.226 165.432 C 305.540 146.118,331.734 137.136,358.832 140.534 M317.617 200.258 L 304.134 213.761 334.337 243.955 L 364.541 274.150 377.598 261.072 C 384.779 253.880,390.655 247.611,390.655 247.143 C 390.655 246.675,377.255 232.896,360.878 216.524 L 331.100 186.755 317.617 200.258 " stroke="none" fill-rule="evenodd" fill="black"></path></svg>