<svg width="136mm" height="120mm" version="1.1" viewBox="0 0 600 529.4117647058824" xmlns="http://www.w3.org/2000/svg"><path d="M79.673 109.658 L 79.673 128.505 259.152 128.505 L 438.630 128.505 438.630 109.658 L 438.630 90.810 259.152 90.810 L 79.673 90.810 79.673 109.658 M135.029 151.247 C 126.131 154.258,118.717 156.855,118.554 157.018 C 118.335 157.237,160.821 285.704,163.151 291.869 C 163.416 292.571,169.157 291.014,181.528 286.885 L 199.518 280.881 196.261 271.730 C 194.469 266.697,184.241 236.267,173.533 204.109 C 157.975 157.386,153.776 145.652,152.635 145.705 C 151.850 145.742,143.927 148.235,135.029 151.247 M218.129 151.231 C 209.230 154.251,201.817 156.855,201.654 157.018 C 201.435 157.237,243.921 285.704,246.251 291.869 C 246.516 292.571,252.244 291.018,264.589 286.898 L 282.541 280.907 260.070 213.487 C 241.080 156.511,237.344 146.042,235.953 145.904 C 235.048 145.814,227.027 148.211,218.129 151.231 M341.254 235.164 L 311.417 324.689 195.545 324.689 L 79.673 324.689 79.673 343.537 L 79.673 362.384 259.152 362.384 L 438.630 362.384 438.630 343.537 L 438.630 324.689 395.008 324.689 L 351.387 324.689 379.160 241.380 C 394.435 195.560,406.933 157.812,406.933 157.495 C 406.933 156.896,373.852 145.639,372.091 145.639 C 371.525 145.639,358.137 184.506,341.254 235.164 " stroke="none" fill-rule="evenodd" fill="black"></path></svg>