<svg width="136mm" height="120mm" version="1.1" viewBox="0 0 600 529.4117647058824" xmlns="http://www.w3.org/2000/svg"><path d="M79.673 109.658 L 79.673 128.505 259.152 128.505 L 438.630 128.505 438.630 109.658 L 438.630 90.810 259.152 90.810 L 79.673 90.810 79.673 109.658 M134.659 151.350 C 124.397 154.827,118.247 157.329,118.470 157.937 C 118.667 158.477,128.765 188.795,140.908 225.312 C 153.052 261.829,163.231 291.979,163.529 292.313 C 163.960 292.794,192.148 283.936,198.023 281.474 C 199.241 280.963,196.373 271.702,176.966 213.475 C 157.976 156.500,154.244 146.042,152.853 145.905 C 151.948 145.816,143.761 148.266,134.659 151.350 M217.759 151.350 C 207.497 154.827,201.347 157.329,201.570 157.937 C 201.767 158.477,211.864 188.795,224.008 225.312 C 236.151 261.829,246.331 291.979,246.629 292.313 C 247.060 292.794,275.248 283.936,281.123 281.474 C 282.341 280.963,279.473 271.702,260.066 213.475 C 241.076 156.500,237.344 146.042,235.953 145.905 C 235.048 145.816,226.861 148.266,217.759 151.350 M341.254 235.164 L 311.417 324.689 195.545 324.689 L 79.673 324.689 79.673 343.537 L 79.673 362.384 259.152 362.384 L 438.630 362.384 438.630 343.537 L 438.630 324.689 394.939 324.689 C 370.908 324.689,351.247 324.591,351.247 324.470 C 351.247 324.350,363.769 286.690,379.073 240.783 C 394.378 194.875,406.768 157.182,406.607 157.022 C 406.086 156.500,373.175 145.639,372.117 145.639 C 371.517 145.639,358.696 182.831,341.254 235.164 " stroke="none" fill-rule="evenodd" fill="black"></path></svg>