<svg width="136mm" height="120mm" version="1.1" viewBox="0 0 600 529.4117647058824" xmlns="http://www.w3.org/2000/svg"><path d="M245.759 57.463 C 224.200 59.749,203.558 69.775,187.643 85.690 C 168.566 104.768,159.104 127.625,159.104 154.634 C 159.104 183.003,169.498 206.962,190.341 226.637 L 197.643 233.531 192.995 236.899 C 186.466 241.631,174.184 254.597,169.430 261.777 C 161.327 274.015,154.968 289.973,152.439 304.413 C 151.930 307.319,151.294 320.010,151.027 332.614 L 150.541 355.531 139.523 355.531 L 128.505 355.531 128.505 374.381 L 128.505 393.231 258.938 393.014 L 389.370 392.797 389.601 374.164 L 389.832 355.530 376.655 355.531 L 363.479 355.531 362.993 332.614 C 362.726 320.010,362.090 307.319,361.581 304.413 C 359.085 290.158,352.613 273.893,344.656 261.876 C 339.844 254.610,327.589 241.656,321.025 236.899 L 316.377 233.531 323.679 226.637 C 355.221 196.862,363.852 153.063,346.013 113.303 C 337.665 94.697,319.940 76.612,300.821 67.193 C 289.314 61.524,280.145 58.875,267.110 57.451 C 257.912 56.446,255.339 56.448,245.759 57.463 M272.859 96.524 C 282.467 98.931,290.939 104.055,299.435 112.596 C 312.069 125.297,316.979 137.182,316.979 155.063 C 316.979 166.633,314.827 175.446,309.896 184.066 C 302.435 197.110,290.728 206.981,276.815 211.958 C 269.856 214.448,268.719 214.600,257.010 214.600 C 245.301 214.600,244.164 214.448,237.205 211.958 C 219.690 205.692,204.960 190.838,199.475 173.910 C 196.905 165.980,196.324 149.804,198.290 140.964 C 200.976 128.894,208.447 116.944,218.808 108.147 C 223.669 104.021,234.227 98.317,239.876 96.766 C 249.516 94.120,262.872 94.022,272.859 96.524 M272.834 254.878 C 292.880 259.124,312.065 275.642,320.123 295.592 C 324.008 305.210,324.658 310.683,324.674 333.899 L 324.689 355.531 257.010 355.531 L 189.331 355.531 189.346 333.899 C 189.362 310.683,190.012 305.210,193.897 295.592 C 201.870 275.851,221.080 259.189,240.794 254.914 C 248.188 253.310,265.343 253.291,272.834 254.878 " stroke="none" fill-rule="evenodd" fill="black"></path></svg>