<svg width="136mm" height="120mm" version="1.1" viewBox="0 0 600 529.4117647058824" xmlns="http://www.w3.org/2000/svg"><path d="M244.338 57.460 C 209.749 61.952,179.011 85.665,166.153 117.776 C 150.818 156.075,160.174 198.160,190.360 226.655 L 197.681 233.566 194.584 235.650 C 189.363 239.164,177.421 251.071,172.295 257.874 C 166.251 265.894,160.194 277.513,156.845 287.508 C 152.492 300.501,151.636 307.899,151.636 332.512 L 151.636 354.674 140.070 354.674 L 128.505 354.674 128.505 373.521 L 128.505 392.369 258.723 392.369 L 388.942 392.369 388.942 373.521 L 388.942 354.674 375.663 354.674 L 362.384 354.674 362.384 332.512 C 362.384 307.873,361.530 300.517,357.151 287.427 C 353.882 277.654,347.674 265.818,341.546 257.676 C 336.486 250.952,324.624 239.142,319.397 235.624 L 316.262 233.513 323.630 226.628 C 353.492 198.724,363.142 156.203,348.171 118.493 C 331.771 77.185,288.464 51.729,244.338 57.460 M272.002 96.370 C 274.829 97.091,280.419 99.272,284.424 101.217 C 290.411 104.125,293.099 106.154,299.533 112.622 C 305.903 119.027,308.008 121.833,310.850 127.710 C 315.398 137.116,317.107 144.745,317.068 155.456 C 317.030 165.586,315.606 171.731,311.102 181.192 C 297.316 210.150,261.787 223.190,232.660 209.984 C 219.435 203.987,209.575 194.569,203.415 182.049 C 198.457 171.973,196.987 165.953,196.930 155.491 C 196.838 138.706,201.921 125.696,213.221 113.790 C 222.856 103.640,233.106 97.947,246.289 95.427 C 253.360 94.075,264.618 94.488,272.002 96.370 M273.793 255.292 C 297.878 261.364,317.203 280.902,322.942 304.985 C 324.441 311.274,324.678 315.159,324.683 333.470 L 324.689 354.674 257.010 354.674 L 189.331 354.674 189.337 333.470 C 189.342 315.159,189.579 311.274,191.078 304.985 C 196.792 281.006,215.950 261.514,239.876 255.337 C 248.927 253.000,264.619 252.979,273.793 255.292 " stroke="none" fill-rule="evenodd" fill="black"></path></svg>