<svg width="136mm" height="120mm" version="1.1" viewBox="0 0 600 529.4117647058824" xmlns="http://www.w3.org/2000/svg"><path d="M245.962 57.522 C 200.326 62.292,164.001 99.268,159.370 145.665 C 157.010 169.309,163.921 194.058,178.303 213.464 C 180.632 216.607,185.942 222.418,190.102 226.377 L 197.667 233.576 194.577 235.655 C 189.219 239.261,177.256 251.186,172.220 257.940 C 162.868 270.485,155.753 287.019,152.898 302.847 C 151.970 307.988,151.345 318.040,151.018 333.042 L 150.529 355.531 139.517 355.531 L 128.505 355.531 128.505 374.378 L 128.505 393.225 258.723 393.225 L 388.942 393.225 388.942 374.378 L 388.942 355.531 376.216 355.531 L 363.491 355.531 363.002 333.042 C 362.675 318.040,362.050 307.988,361.122 302.847 C 358.267 287.019,351.152 270.485,341.800 257.940 C 336.764 251.186,324.801 239.261,319.443 235.655 L 316.353 233.576 323.918 226.377 C 342.317 208.867,352.096 188.889,354.642 163.604 C 358.620 124.099,336.747 85.007,300.696 67.190 C 288.813 61.317,280.026 58.808,266.557 57.442 C 256.743 56.447,256.228 56.449,245.962 57.522 M272.859 96.524 C 287.551 100.205,303.751 113.405,310.757 127.403 C 315.792 137.465,317.302 145.133,316.774 157.961 C 316.282 169.911,314.551 176.133,309.185 185.240 C 301.924 197.564,290.353 207.115,276.815 211.958 C 269.856 214.448,268.719 214.600,257.010 214.600 C 245.301 214.600,244.164 214.448,237.205 211.958 C 223.667 207.115,212.096 197.564,204.835 185.240 C 199.383 175.986,197.687 169.892,197.234 157.915 C 196.746 145.036,198.251 137.418,203.263 127.403 C 209.966 114.010,226.032 100.567,239.876 96.766 C 249.516 94.120,262.872 94.022,272.859 96.524 M272.834 254.878 C 294.842 259.540,314.808 278.248,322.197 301.130 C 323.976 306.638,324.163 309.100,324.491 331.329 L 324.847 355.531 257.010 355.531 L 189.173 355.531 189.522 331.329 C 189.860 307.886,189.942 306.912,192.149 300.273 C 199.494 278.181,219.493 259.533,240.794 254.914 C 248.188 253.310,265.343 253.291,272.834 254.878 " stroke="none" fill-rule="evenodd" fill="black"></path></svg>