<svg width="136mm" height="120mm" version="1.1" viewBox="0 0 600 529.4117647058824" xmlns="http://www.w3.org/2000/svg"><path d="M347.774 109.015 L 347.727 169.198 329.781 133.431 C 319.910 113.759,311.639 97.664,311.400 97.664 C 310.035 97.664,278.428 114.096,278.428 114.806 C 278.428 116.482,315.285 189.331,316.133 189.331 C 316.608 189.331,323.932 185.859,332.409 181.616 L 347.820 173.901 347.820 196.608 L 347.820 219.315 311.839 219.315 L 275.857 219.315 275.857 238.163 L 275.857 257.010 307.984 257.010 C 325.653 257.010,340.110 257.109,340.110 257.230 C 340.110 257.351,329.320 289.815,316.132 329.373 C 302.943 368.931,292.438 401.553,292.787 401.866 C 293.135 402.179,300.745 404.853,309.697 407.808 C 318.650 410.764,326.417 413.344,326.957 413.542 C 327.583 413.771,334.887 393.052,347.085 356.445 C 357.614 324.844,366.427 298.988,366.668 298.988 C 366.908 298.988,375.712 324.818,386.231 356.387 C 396.751 387.957,405.434 413.786,405.527 413.786 C 405.721 413.786,438.521 402.852,440.076 402.269 C 440.760 402.012,433.249 378.360,417.159 330.097 C 403.996 290.612,393.225 258.015,393.225 257.658 C 393.225 257.302,407.682 257.010,425.352 257.010 L 457.478 257.010 457.478 238.163 L 457.478 219.315 421.496 219.315 L 385.515 219.315 385.515 196.616 L 385.515 173.916 401.323 181.807 C 410.018 186.146,417.300 189.518,417.506 189.300 C 418.048 188.724,454.908 114.888,454.908 114.378 C 454.908 114.142,447.533 110.258,438.519 105.747 C 427.766 100.365,421.840 97.834,421.287 98.387 C 420.823 98.851,412.599 114.780,403.010 133.786 L 385.577 168.342 385.546 108.587 L 385.515 48.832 366.668 48.832 L 347.820 48.832 347.774 109.015 M56.542 101.947 L 56.542 120.795 96.470 120.795 C 128.052 120.795,136.316 121.019,136.005 121.866 C 135.788 122.455,125.097 154.549,112.247 193.186 C 99.397 231.823,88.579 263.768,88.208 264.174 C 87.837 264.580,80.344 262.516,71.556 259.587 C 62.768 256.658,55.399 254.441,55.180 254.660 C 54.627 255.213,43.692 288.022,43.692 289.128 C 43.692 289.622,51.016 292.457,59.969 295.427 C 68.922 298.398,76.246 300.901,76.246 300.991 C 76.246 301.081,71.241 316.159,65.124 334.497 C 59.007 352.835,54.091 367.909,54.201 367.993 C 54.610 368.308,88.692 379.518,89.240 379.518 C 89.554 379.518,94.714 364.772,100.706 346.749 C 106.699 328.726,111.747 313.721,111.924 313.405 C 112.102 313.088,119.637 315.299,128.669 318.319 C 137.701 321.339,145.162 323.718,145.248 323.607 C 145.567 323.194,156.776 289.114,156.776 288.556 C 156.776 288.238,149.451 285.547,140.499 282.577 C 131.546 279.606,124.250 276.783,124.284 276.303 C 124.319 275.822,127.499 266.177,131.352 254.868 L 138.357 234.307 149.274 234.501 C 155.408 234.610,162.726 235.282,165.979 236.035 C 182.853 239.941,198.446 252.935,206.055 269.432 C 210.127 278.261,211.177 283.555,211.155 295.133 C 211.139 303.402,210.748 306.671,209.158 311.839 C 201.936 335.316,181.163 352.425,157.287 354.559 L 151.208 355.102 150.975 373.071 C 150.848 382.953,150.901 391.451,151.095 391.955 C 151.654 393.412,167.086 391.822,176.368 389.351 C 196.481 383.998,214.688 372.130,227.615 355.946 C 258.592 317.167,256.192 262.579,221.934 226.713 C 206.412 210.463,184.353 199.405,163.630 197.486 C 160.567 197.202,156.461 196.776,154.506 196.538 L 150.951 196.105 163.495 158.450 L 176.040 120.795 214.811 120.795 L 253.583 120.795 253.583 101.947 L 253.583 83.100 155.063 83.100 L 56.542 83.100 56.542 101.947 " stroke="none" fill-rule="evenodd" fill="black"></path></svg>