<svg width="136mm" height="120mm" version="1.1" viewBox="0 0 600 529.4117647058824" xmlns="http://www.w3.org/2000/svg"><path d="M347.774 109.015 L 347.727 169.198 329.781 133.431 C 319.910 113.759,311.639 97.664,311.400 97.664 C 310.035 97.664,278.428 114.096,278.428 114.806 C 278.428 115.935,315.140 189.331,315.705 189.331 C 315.944 189.331,323.071 185.861,331.543 181.620 C 340.014 177.380,347.142 173.910,347.383 173.910 C 347.623 173.910,347.820 184.126,347.820 196.613 L 347.820 219.315 311.839 219.315 L 275.857 219.315 275.857 238.163 L 275.857 257.010 307.984 257.010 C 325.653 257.010,340.110 257.109,340.110 257.230 C 340.110 257.351,329.320 289.815,316.132 329.373 C 302.943 368.931,292.438 401.552,292.787 401.864 C 293.494 402.498,327.483 413.873,327.729 413.558 C 327.814 413.448,336.508 387.445,347.048 355.773 C 357.587 324.102,366.458 298.465,366.760 298.803 C 367.063 299.140,375.872 325.150,386.336 356.601 C 396.800 388.053,405.437 413.786,405.529 413.786 C 405.721 413.786,438.533 402.847,440.076 402.269 C 440.760 402.012,433.249 378.360,417.159 330.097 C 403.996 290.612,393.225 258.015,393.225 257.658 C 393.225 257.302,407.682 257.010,425.352 257.010 L 457.478 257.010 457.478 238.163 L 457.478 219.315 421.496 219.315 L 385.515 219.315 385.515 196.616 L 385.515 173.916 401.323 181.807 C 410.018 186.146,417.300 189.518,417.506 189.300 C 418.680 188.054,454.890 114.608,454.575 114.112 C 453.981 113.175,421.613 97.259,421.198 97.700 C 420.995 97.915,412.904 113.898,403.219 133.217 L 385.608 168.342 385.562 108.587 L 385.515 48.832 366.668 48.832 L 347.820 48.832 347.774 109.015 M56.542 101.947 L 56.542 120.795 96.470 120.795 C 128.052 120.795,136.316 121.019,136.005 121.866 C 135.788 122.455,125.097 154.549,112.247 193.186 C 99.397 231.823,88.624 263.723,88.308 264.074 C 87.993 264.425,80.824 262.401,72.379 259.576 C 63.934 256.751,56.619 254.440,56.125 254.440 C 55.285 254.440,43.173 289.386,43.822 289.935 C 43.986 290.074,51.348 292.585,60.183 295.516 C 69.018 298.446,76.246 300.914,76.246 300.999 C 76.246 301.085,71.241 316.159,65.124 334.497 C 59.007 352.835,54.091 367.909,54.201 367.993 C 55.681 369.133,89.433 379.507,89.922 378.972 C 90.293 378.565,95.484 363.522,101.457 345.543 L 112.318 312.852 128.705 318.331 C 137.717 321.344,145.162 323.718,145.248 323.607 C 146.387 322.135,156.766 288.373,156.230 287.883 C 155.823 287.512,148.745 284.988,140.499 282.274 C 132.253 279.560,125.249 277.196,124.934 277.019 C 124.619 276.843,127.549 267.161,131.446 255.503 L 138.531 234.307 149.625 234.513 C 167.843 234.851,179.846 239.158,191.489 249.535 C 212.076 267.885,217.584 299.657,204.293 323.404 C 194.311 341.240,176.854 352.810,157.287 354.559 L 151.208 355.102 150.975 373.071 C 150.848 382.953,150.901 391.451,151.095 391.955 C 151.608 393.293,166.395 391.933,174.990 389.757 C 240.414 373.199,270.233 296.846,233.178 240.764 C 216.632 215.722,190.346 199.900,160.774 197.182 C 156.189 196.760,152.217 196.195,151.948 195.925 C 151.678 195.655,157.023 178.737,163.826 158.329 L 176.194 121.223 214.889 121.000 L 253.583 120.777 253.583 101.939 L 253.583 83.100 155.063 83.100 L 56.542 83.100 56.542 101.947 " stroke="none" fill-rule="evenodd" fill="black"></path></svg>