<svg width="136mm" height="120mm" version="1.1" viewBox="0 0 600 529.4117647058824" xmlns="http://www.w3.org/2000/svg"><path d="M385.515 152.712 L 385.515 267.729 351.675 284.642 L 317.836 301.556 317.836 209.462 L 317.836 117.368 298.560 117.368 L 279.284 117.368 279.284 219.109 L 279.284 320.850 258.296 331.334 L 237.309 341.817 245.650 358.526 C 250.238 367.716,254.286 375.235,254.646 375.235 C 255.006 375.235,284.599 360.585,320.408 342.679 L 385.515 310.123 385.515 362.811 L 385.515 415.500 404.362 415.500 L 423.210 415.500 423.210 353.392 L 423.210 291.285 443.985 280.906 C 455.411 275.197,464.936 270.360,465.152 270.158 C 465.594 269.743,449.675 237.375,448.737 236.780 C 448.405 236.570,442.724 239.108,436.112 242.420 C 429.499 245.733,423.891 248.443,423.650 248.443 C 423.408 248.443,423.210 201.025,423.210 143.069 L 423.210 37.695 404.362 37.695 L 385.515 37.695 385.515 152.712 M37.695 83.100 L 37.695 101.947 83.100 101.947 L 128.505 101.947 128.505 228.305 L 128.505 354.664 119.545 350.207 C 114.617 347.756,110.419 345.927,110.217 346.143 C 110.015 346.359,106.143 353.955,101.612 363.023 L 93.375 379.511 129.355 397.505 C 149.144 407.402,165.530 415.499,165.767 415.499 C 166.005 415.499,166.200 344.950,166.200 258.723 L 166.200 101.947 211.605 101.947 L 257.010 101.947 257.010 83.100 L 257.010 64.252 147.352 64.252 L 37.695 64.252 37.695 83.100 M53.117 162.343 L 39.853 175.628 62.543 198.330 L 85.232 221.031 98.513 207.750 L 111.794 194.470 89.088 171.763 L 66.382 149.057 53.117 162.343 M205.605 171.772 L 182.915 194.474 196.404 207.963 L 209.893 221.452 232.599 198.746 L 255.305 176.040 241.800 162.555 L 228.295 149.069 205.605 171.772 M62.539 273.716 L 39.846 296.421 53.125 309.700 L 66.404 322.979 89.097 300.273 L 111.790 277.568 98.511 264.289 L 85.232 251.010 62.539 273.716 M196.182 264.294 L 182.922 277.575 205.608 300.274 L 228.295 322.972 241.798 309.489 L 255.301 296.006 232.816 273.509 C 220.450 261.136,210.132 251.013,209.887 251.013 C 209.643 251.013,203.475 256.990,196.182 264.294 " stroke="none" fill-rule="evenodd" fill="black"></path></svg>