<svg width="136mm" height="120mm" version="1.1" viewBox="0 0 600 529.4117647058824" xmlns="http://www.w3.org/2000/svg"><path d="M385.515 152.712 L 385.515 267.729 351.675 284.642 L 317.836 301.556 317.836 209.462 L 317.836 117.368 298.560 117.368 L 279.284 117.368 279.284 219.109 L 279.284 320.850 258.296 331.334 L 237.309 341.817 245.650 358.526 C 250.238 367.716,254.286 375.235,254.646 375.235 C 255.006 375.235,284.599 360.585,320.408 342.679 L 385.515 310.123 385.515 362.811 L 385.515 415.500 404.362 415.500 L 423.210 415.500 423.210 353.392 L 423.210 291.285 443.985 280.906 C 455.411 275.197,464.936 270.360,465.152 270.158 C 465.594 269.743,449.675 237.375,448.737 236.780 C 448.405 236.570,442.724 239.108,436.112 242.420 C 429.499 245.733,423.891 248.443,423.650 248.443 C 423.408 248.443,423.210 201.025,423.210 143.069 L 423.210 37.695 404.362 37.695 L 385.515 37.695 385.515 152.712 M37.695 83.100 L 37.695 101.947 83.100 101.947 L 128.505 101.947 128.505 228.318 L 128.505 354.689 119.900 350.371 C 115.167 347.996,111.023 346.225,110.690 346.436 C 109.750 347.033,93.830 379.400,94.273 379.816 C 94.849 380.358,165.258 415.500,165.767 415.500 C 166.005 415.500,166.200 344.950,166.200 258.723 L 166.200 101.947 211.605 101.947 L 257.010 101.947 257.010 83.100 L 257.010 64.252 147.352 64.252 L 37.695 64.252 37.695 83.100 M53.117 162.343 L 39.853 175.628 62.543 198.330 L 85.232 221.031 98.513 207.750 L 111.794 194.470 89.088 171.763 L 66.382 149.057 53.117 162.343 M205.812 171.564 L 183.330 194.059 196.833 207.542 L 210.336 221.025 232.818 198.530 L 255.301 176.036 241.798 162.553 L 228.295 149.069 205.812 171.564 M62.539 273.716 L 39.846 296.421 53.125 309.700 L 66.404 322.979 89.097 300.273 L 111.790 277.568 98.511 264.289 L 85.232 251.010 62.539 273.716 M196.821 264.512 L 183.337 278.015 205.832 300.497 L 228.327 322.980 241.810 309.477 L 255.293 295.974 232.798 273.492 L 210.304 251.009 196.821 264.512 " stroke="none" fill-rule="evenodd" fill="black"></path></svg>