<svg width="136mm" height="120mm" version="1.1" viewBox="0 0 600 529.4117647058824" xmlns="http://www.w3.org/2000/svg"><path d="M298.132 83.954 L 298.132 130.213 271.574 143.497 C 256.967 150.804,245.016 156.977,245.016 157.216 C 245.016 158.586,261.450 190.187,262.163 190.187 C 262.636 190.187,270.726 186.332,280.141 181.620 C 289.556 176.909,297.455 173.053,297.695 173.053 C 297.935 173.053,298.132 188.986,298.132 208.460 L 298.132 243.867 271.939 256.619 C 257.533 263.633,245.571 269.656,245.356 270.003 C 244.792 270.916,261.137 303.272,262.163 303.272 C 262.636 303.272,270.726 299.417,280.141 294.705 C 289.556 289.993,297.455 286.138,297.695 286.138 C 297.935 286.138,298.132 294.330,298.132 304.343 C 298.134 334.947,300.221 347.898,307.585 362.972 C 328.708 406.213,381.212 423.796,424.616 402.164 C 443.753 392.626,460.027 374.386,467.012 354.646 C 471.816 341.070,472.176 337.834,472.654 303.914 L 473.097 272.431 453.722 272.431 L 434.347 272.431 434.347 302.235 C 434.347 335.413,434.073 337.631,428.720 347.818 C 422.921 358.854,412.379 367.686,400.507 371.455 C 377.952 378.616,353.243 368.623,342.377 347.945 C 336.884 337.492,336.683 335.775,336.683 299.235 L 336.683 266.431 374.720 247.418 L 412.757 228.406 404.501 211.867 C 399.960 202.770,395.948 195.328,395.587 195.328 C 395.225 195.328,381.824 201.882,365.806 209.894 L 336.683 224.460 336.683 188.907 L 336.683 153.353 373.735 134.839 C 394.114 124.655,411.254 115.946,411.824 115.484 C 412.602 114.855,410.811 110.540,404.661 98.230 C 400.150 89.202,396.353 81.696,396.221 81.551 C 396.090 81.407,382.835 87.864,366.766 95.901 C 350.697 103.938,337.355 110.514,337.116 110.514 C 336.878 110.514,336.683 94.130,336.683 74.105 L 336.683 37.695 317.407 37.695 L 298.132 37.695 298.132 83.954 M123.457 126.841 C 67.448 138.930,33.625 195.184,49.362 250.075 C 57.921 279.928,81.658 305.175,110.575 315.184 C 122.737 319.393,130.297 320.648,143.497 320.648 C 156.394 320.648,164.167 319.410,175.624 315.530 C 205.029 305.574,229.134 280.403,237.682 250.729 C 240.749 240.080,241.576 234.089,241.583 222.448 C 241.611 178.122,211.503 139.375,168.121 127.911 C 156.312 124.790,135.291 124.286,123.457 126.841 M158.690 164.428 C 175.141 168.635,189.389 180.008,197.387 195.315 C 201.629 203.434,203.081 209.139,203.604 219.744 C 204.202 231.878,202.672 239.369,197.418 250.009 C 190.638 263.743,176.722 275.871,162.773 280.202 C 133.788 289.202,104.955 277.615,90.141 251.013 C 85.371 242.448,83.556 234.745,83.581 223.170 C 83.606 211.350,84.999 204.974,89.569 195.756 C 97.028 180.710,113.666 167.476,129.362 164.105 C 137.733 162.307,150.967 162.453,158.690 164.428 " stroke="none" fill-rule="evenodd" fill="black"></path></svg>