<svg width="136mm" height="120mm" version="1.1" viewBox="0 0 600 529.4117647058824" xmlns="http://www.w3.org/2000/svg"><path d="M298.132 83.954 L 298.132 130.213 271.574 143.497 C 256.967 150.804,245.016 156.977,245.016 157.216 C 245.016 158.586,261.450 190.187,262.163 190.187 C 262.636 190.187,270.726 186.332,280.141 181.620 C 289.556 176.909,297.455 173.053,297.695 173.053 C 297.935 173.053,298.132 188.858,298.132 208.175 L 298.132 243.297 271.574 256.582 C 256.967 263.888,245.016 270.061,245.016 270.300 C 245.016 271.670,261.450 303.272,262.163 303.272 C 262.636 303.272,270.726 299.417,280.141 294.705 C 289.556 289.993,297.406 286.138,297.586 286.138 C 297.766 286.138,298.124 297.221,298.382 310.768 C 298.732 329.211,299.208 337.012,300.279 341.823 C 309.541 383.465,343.725 411.348,385.515 411.348 C 427.450 411.348,462.087 382.653,470.685 340.789 C 471.775 335.482,472.042 328.123,472.042 303.308 L 472.042 272.431 453.251 272.431 L 434.461 272.431 434.144 303.914 C 433.791 338.964,433.721 339.457,427.733 349.345 C 418.279 364.953,403.405 373.602,385.954 373.638 C 381.707 373.647,376.305 373.189,373.950 372.620 C 362.540 369.867,351.692 362.221,344.832 352.096 C 337.101 340.686,337.192 341.270,336.873 301.365 L 336.595 266.475 374.681 247.438 L 412.768 228.400 404.277 211.435 L 395.787 194.470 366.668 209.034 C 350.653 217.045,337.355 223.599,337.116 223.599 C 336.878 223.599,336.683 207.793,336.683 188.476 L 336.683 153.353 374.378 134.502 C 395.110 124.134,412.073 115.262,412.073 114.787 C 412.073 114.312,408.408 106.603,403.930 97.655 L 395.787 81.386 366.668 95.950 C 350.653 103.960,337.355 110.514,337.116 110.514 C 336.878 110.514,336.683 94.130,336.683 74.105 L 336.683 37.695 317.407 37.695 L 298.132 37.695 298.132 83.954 M125.627 126.396 C 93.415 132.467,65.362 155.243,53.210 185.191 C 43.744 208.517,43.067 231.560,51.149 255.297 C 63.135 290.499,95.786 316.234,133.775 320.422 C 179.917 325.509,224.725 295.394,237.716 250.565 C 241.086 238.937,241.847 232.184,241.335 218.459 C 240.816 204.520,238.920 196.063,233.466 183.352 C 224.398 162.218,204.894 142.622,183.644 133.296 C 170.502 127.529,162.359 125.808,146.496 125.448 C 136.410 125.219,130.431 125.490,125.627 126.396 M158.668 164.422 C 185.315 171.238,203.821 194.956,203.880 222.370 C 203.898 230.961,202.680 237.811,199.854 245.016 C 190.345 269.254,164.622 285.417,139.214 283.118 C 123.952 281.737,112.203 276.339,101.608 265.840 C 89.241 253.584,83.803 240.751,83.709 223.599 C 83.645 211.972,84.916 206.166,89.701 196.212 C 93.044 189.257,94.715 186.992,101.415 180.334 C 114.057 167.771,125.596 162.983,143.574 162.841 C 149.499 162.794,154.248 163.292,158.668 164.422 " stroke="none" fill-rule="evenodd" fill="black"></path></svg>