<svg width="136mm" height="120mm" version="1.1" viewBox="0 0 600 529.4117647058824" xmlns="http://www.w3.org/2000/svg"><path d="M298.703 38.266 C 298.389 38.580,298.132 59.397,298.132 84.525 L 298.132 130.213 271.574 143.497 C 256.967 150.804,245.016 156.977,245.016 157.216 C 245.016 158.586,261.450 190.187,262.163 190.187 C 262.636 190.187,270.726 186.332,280.141 181.620 C 289.556 176.909,297.455 173.053,297.695 173.053 C 297.935 173.053,298.132 188.858,298.132 208.175 L 298.132 243.297 271.574 256.582 C 256.967 263.888,245.016 270.061,245.016 270.300 C 245.016 271.670,261.450 303.272,262.163 303.272 C 262.636 303.272,270.726 299.417,280.141 294.705 C 289.556 289.993,297.455 286.138,297.695 286.138 C 297.935 286.138,298.138 293.944,298.145 303.486 C 298.162 324.735,299.235 338.368,301.602 347.392 C 309.275 376.646,333.372 400.636,363.298 408.814 C 369.637 410.546,372.412 410.782,385.943 410.740 C 400.215 410.696,401.938 410.519,409.074 408.352 C 439.340 399.161,460.895 377.129,469.569 346.515 C 471.402 340.048,471.523 337.856,471.835 305.611 L 472.164 271.540 453.470 271.771 L 434.775 272.002 434.308 303.700 C 433.861 333.982,433.753 335.636,431.881 340.729 C 426.249 356.055,413.075 368.257,397.892 372.212 C 391.497 373.878,379.596 373.894,373.267 372.245 C 357.920 368.248,345.259 356.797,339.156 341.395 C 337.146 336.324,337.115 335.786,336.857 301.365 L 336.595 266.475 374.681 247.438 L 412.768 228.400 404.277 211.435 L 395.787 194.470 366.668 209.034 C 350.653 217.045,337.355 223.599,337.116 223.599 C 336.878 223.599,336.683 207.793,336.683 188.476 L 336.683 153.353 374.378 134.502 C 395.110 124.134,412.073 115.262,412.073 114.787 C 412.073 114.312,408.408 106.603,403.930 97.655 L 395.787 81.386 366.668 95.950 C 350.653 103.960,337.355 110.514,337.116 110.514 C 336.878 110.514,336.683 94.130,336.683 74.105 L 336.683 37.695 317.978 37.695 C 307.691 37.695,299.017 37.952,298.703 38.266 M135.155 125.184 C 104.220 127.614,74.836 146.130,59.067 173.130 C 36.469 211.825,42.770 260.450,74.494 292.174 C 111.752 329.432,171.926 330.597,210.035 294.798 C 225.527 280.245,234.627 264.622,239.650 243.954 C 240.821 239.133,241.149 234.266,241.109 222.314 C 241.062 208.474,240.827 206.044,238.820 198.609 C 234.009 180.792,225.756 166.432,212.995 153.675 C 196.701 137.386,174.830 126.884,154.206 125.444 C 150.672 125.197,146.817 124.890,145.639 124.762 C 144.461 124.634,139.743 124.824,135.155 125.184 M158.824 164.462 C 176.002 168.856,189.965 180.364,197.965 196.723 C 213.062 227.594,198.620 265.361,166.628 278.673 C 159.173 281.775,152.303 283.033,143.069 282.988 C 116.252 282.856,93.700 265.609,85.578 239.019 C 84.042 233.990,83.615 230.547,83.613 223.170 C 83.610 211.895,85.083 205.576,90.102 195.328 C 93.010 189.388,95.102 186.620,101.448 180.313 C 110.070 171.744,117.477 167.347,128.116 164.481 C 136.433 162.240,150.104 162.232,158.824 164.462 " stroke="none" fill-rule="evenodd" fill="black"></path></svg>