<svg width="136mm" height="120mm" version="1.1" viewBox="0 0 600 529.4117647058824" xmlns="http://www.w3.org/2000/svg"><path d="M238.591 54.406 C 214.270 58.287,193.338 67.975,175.195 83.750 C 150.144 105.530,135.445 135.268,132.746 169.627 C 132.321 175.045,131.963 179.961,131.952 180.550 C 131.936 181.382,126.124 181.620,105.802 181.620 L 79.673 181.620 79.673 200.468 L 79.673 219.315 257.010 219.315 L 434.347 219.315 434.347 200.468 L 434.347 181.620 408.218 181.620 C 393.846 181.620,382.076 181.331,382.062 180.978 C 381.731 172.864,380.182 158.178,379.104 152.921 C 367.082 94.309,315.849 52.767,256.153 53.229 C 250.263 53.275,242.360 53.804,238.591 54.406 M271.909 92.103 C 289.715 95.208,305.105 103.201,318.062 116.075 C 333.379 131.293,342.269 151.119,343.323 172.411 L 343.779 181.620 257.010 181.620 L 170.241 181.620 170.697 172.411 C 172.660 132.764,202.267 99.240,241.603 92.125 C 250.307 90.550,262.953 90.541,271.909 92.103 M329.190 292.353 L 297.703 355.102 195.953 355.320 L 94.204 355.537 94.434 374.167 L 94.665 392.797 260.865 392.797 L 427.065 392.797 427.296 374.164 L 427.527 355.531 384.247 355.531 C 355.873 355.531,340.967 355.234,340.967 354.671 C 340.967 354.198,352.918 329.912,367.524 300.702 C 382.131 271.491,394.082 247.297,394.082 246.936 C 394.082 246.576,386.566 242.529,377.379 237.942 L 360.676 229.604 329.190 292.353 M142.855 242.068 L 126.792 250.165 147.447 291.496 C 158.807 314.229,168.211 332.947,168.344 333.093 C 168.547 333.315,201.238 317.253,202.016 316.549 C 202.677 315.950,160.932 233.884,159.987 233.925 C 159.399 233.950,151.690 237.614,142.855 242.068 M222.528 242.068 C 213.693 246.521,206.465 250.358,206.465 250.593 C 206.465 250.828,215.718 269.524,227.029 292.141 L 247.593 333.262 264.081 325.024 C 273.149 320.494,280.749 316.618,280.969 316.412 C 281.624 315.797,240.394 233.875,239.455 233.925 C 238.980 233.950,231.363 237.614,222.528 242.068 " stroke="none" fill-rule="evenodd" fill="black"></path></svg>