<svg width="136mm" height="120mm" version="1.1" viewBox="0 0 600 529.4117647058824" xmlns="http://www.w3.org/2000/svg"><path d="M238.591 54.406 C 198.908 60.738,166.002 83.874,147.260 118.620 C 138.145 135.518,133.907 151.132,132.311 173.696 L 131.750 181.620 105.712 181.620 L 79.673 181.620 79.673 200.468 L 79.673 219.315 257.010 219.315 L 434.347 219.315 434.347 200.468 L 434.347 181.620 408.298 181.620 L 382.248 181.620 381.675 173.268 C 380.934 162.481,379.121 150.943,377.063 143.926 C 365.672 105.070,338.331 75.338,300.702 60.885 C 282.915 54.054,257.446 51.397,238.591 54.406 M271.909 92.103 C 299.896 96.984,322.801 114.474,335.350 140.547 C 340.455 151.153,342.714 160.086,343.301 171.983 L 343.776 181.620 257.010 181.620 L 170.244 181.620 170.719 171.983 C 171.306 160.086,173.565 151.153,178.670 140.547 C 183.531 130.447,188.631 123.251,196.330 115.628 C 216.016 96.136,244.390 87.304,271.909 92.103 M329.613 292.563 L 298.133 355.531 196.168 355.531 L 94.204 355.531 94.434 374.164 L 94.665 392.797 260.865 392.797 L 427.065 392.797 427.296 374.164 L 427.527 355.531 384.247 355.531 C 354.347 355.531,340.967 355.250,340.967 354.623 C 340.967 354.124,353.014 329.740,367.738 300.437 C 382.463 271.133,394.608 246.961,394.727 246.721 C 394.898 246.378,362.144 229.596,361.305 229.596 C 361.189 229.596,346.928 257.931,329.613 292.563 M142.855 242.068 L 126.792 250.165 147.447 291.496 C 158.807 314.229,168.211 332.947,168.344 333.093 C 168.634 333.410,199.590 318.009,201.074 316.809 C 201.846 316.185,196.891 305.537,181.583 274.926 C 170.293 252.350,160.575 233.900,159.987 233.925 C 159.399 233.950,151.690 237.614,142.855 242.068 M222.528 242.068 C 213.693 246.521,206.465 250.358,206.465 250.593 C 206.465 250.828,215.718 269.524,227.029 292.141 L 247.593 333.262 264.081 325.024 C 273.149 320.494,280.749 316.618,280.969 316.412 C 281.624 315.797,240.394 233.875,239.455 233.925 C 238.980 233.950,231.363 237.614,222.528 242.068 " stroke="none" fill-rule="evenodd" fill="black"></path></svg>