<svg width="136mm" height="120mm" version="1.1" viewBox="0 0 600 529.4117647058824" xmlns="http://www.w3.org/2000/svg"><path d="M238.163 96.379 L 238.163 125.078 166.183 125.078 L 94.204 125.078 94.434 143.711 L 94.665 162.345 165.986 162.564 C 205.212 162.684,237.306 162.974,237.306 163.208 C 237.306 163.442,217.068 204.107,192.333 253.575 L 147.360 343.518 111.589 343.741 L 75.818 343.965 75.587 362.598 L 75.356 381.231 254.852 381.231 L 434.347 381.231 434.347 362.384 L 434.347 343.537 400.508 343.537 L 366.669 343.537 321.692 253.585 C 296.954 204.111,276.714 163.442,276.714 163.208 C 276.714 162.974,308.808 162.684,348.034 162.564 L 419.355 162.345 419.586 143.711 L 419.816 125.078 347.837 125.078 L 275.857 125.078 275.857 96.379 L 275.857 67.679 257.010 67.679 L 238.163 67.679 238.163 96.379 M291.066 276.286 L 324.688 343.537 257.010 343.537 L 189.332 343.537 222.954 276.286 C 241.447 239.298,256.772 209.035,257.010 209.035 C 257.248 209.035,272.573 239.298,291.066 276.286 " stroke="none" fill-rule="evenodd" fill="black"></path></svg>