<svg width="136mm" height="120mm" version="1.1" viewBox="0 0 600 529.4117647058824" xmlns="http://www.w3.org/2000/svg"><path d="M238.163 96.379 L 238.163 125.078 166.183 125.078 L 94.204 125.078 94.434 143.711 L 94.665 162.345 166.055 162.564 C 205.320 162.684,237.318 163.070,237.161 163.420 C 237.005 163.771,216.638 204.438,191.901 253.791 L 146.924 343.523 111.157 343.530 L 75.390 343.537 75.390 362.384 L 75.390 381.231 254.868 381.231 L 434.347 381.231 434.347 362.384 L 434.347 343.537 400.721 343.521 L 367.096 343.505 322.119 253.863 C 297.382 204.560,277.015 163.898,276.859 163.502 C 276.702 163.107,308.700 162.684,347.965 162.564 L 419.355 162.345 419.586 143.711 L 419.816 125.078 347.837 125.078 L 275.857 125.078 275.857 96.379 L 275.857 67.679 257.010 67.679 L 238.163 67.679 238.163 96.379 M291.066 276.286 L 324.688 343.537 257.010 343.537 L 189.332 343.537 222.954 276.286 C 241.447 239.298,256.772 209.035,257.010 209.035 C 257.248 209.035,272.573 239.298,291.066 276.286 " stroke="none" fill-rule="evenodd" fill="black"></path></svg>