<svg width="136mm" height="120mm" version="1.1" viewBox="0 0 600 529.4117647058824" xmlns="http://www.w3.org/2000/svg"><path d="M238.163 141.784 L 238.163 245.873 168.342 245.873 L 98.520 245.873 98.520 264.720 L 98.520 283.568 168.342 283.568 L 238.163 283.568 238.163 349.534 L 238.163 415.500 257.010 415.500 L 275.857 415.500 275.857 349.538 L 275.857 283.577 347.606 283.358 L 419.355 283.139 419.586 264.506 L 419.816 245.873 347.837 245.873 L 275.857 245.873 275.857 141.784 L 275.857 37.695 257.010 37.695 L 238.163 37.695 238.163 141.784 M131.718 102.425 L 115.656 110.522 143.929 167.063 L 172.202 223.605 188.691 215.367 C 197.760 210.836,205.297 207.023,205.441 206.893 C 206.008 206.379,149.445 94.240,148.640 94.283 C 148.168 94.308,140.553 97.972,131.718 102.425 M336.419 150.447 C 320.963 181.362,308.436 206.763,308.579 206.893 C 308.723 207.023,316.260 210.836,325.329 215.367 L 341.818 223.605 370.091 167.063 L 398.364 110.522 382.096 102.380 C 373.149 97.901,365.534 94.237,365.174 94.237 C 364.814 94.237,351.874 119.531,336.419 150.447 " stroke="none" fill-rule="evenodd" fill="black"></path></svg>