<svg width="136mm" height="120mm" version="1.1" viewBox="0 0 600 529.4117647058824" xmlns="http://www.w3.org/2000/svg"><path d="M238.163 141.784 L 238.163 245.873 168.342 245.873 L 98.520 245.873 98.520 264.720 L 98.520 283.568 168.342 283.568 L 238.163 283.568 238.163 349.534 L 238.163 415.500 257.010 415.500 L 275.857 415.500 275.857 349.534 L 275.857 283.568 347.820 283.568 L 419.783 283.568 419.783 264.720 L 419.783 245.873 347.820 245.873 L 275.857 245.873 275.857 141.784 L 275.857 37.695 257.010 37.695 L 238.163 37.695 238.163 141.784 M131.718 102.426 C 122.883 106.879,115.654 110.715,115.654 110.950 C 115.654 111.373,171.306 222.927,171.770 223.435 C 171.973 223.657,204.663 207.597,205.441 206.893 C 206.008 206.379,149.445 94.240,148.640 94.283 C 148.168 94.308,140.552 97.972,131.718 102.426 M336.419 150.447 C 320.963 181.362,308.436 206.763,308.579 206.893 C 309.357 207.597,342.047 223.657,342.250 223.435 C 342.714 222.927,398.365 111.372,398.365 110.950 C 398.365 110.456,366.155 94.237,365.174 94.237 C 364.814 94.237,351.874 119.531,336.419 150.447 " stroke="none" fill-rule="evenodd" fill="black"></path></svg>