<svg width="136mm" height="120mm" version="1.1" viewBox="0 0 600 529.4117647058824" xmlns="http://www.w3.org/2000/svg"><path d="M132.580 97.450 L 132.360 157.204 114.582 121.866 C 104.803 102.429,96.415 86.527,95.940 86.527 C 95.465 86.527,87.756 90.191,78.808 94.670 L 62.539 102.812 81.389 140.503 C 91.756 161.233,100.434 178.194,100.673 178.194 C 100.913 178.194,108.040 174.724,116.511 170.483 C 124.983 166.243,132.111 162.773,132.351 162.773 C 132.592 162.773,132.788 172.796,132.788 185.047 L 132.788 207.321 96.807 207.321 L 60.826 207.321 60.826 226.597 L 60.826 245.873 90.382 245.873 C 106.638 245.873,119.938 246.067,119.938 246.303 C 119.938 246.540,104.496 277.617,85.622 315.362 C 66.748 353.108,51.424 384.098,51.568 384.228 C 52.345 384.933,85.036 400.994,85.240 400.772 C 85.373 400.626,96.029 379.497,108.921 353.817 L 132.360 307.127 132.581 361.313 L 132.801 415.500 151.642 415.500 L 170.483 415.500 170.530 361.742 L 170.577 307.984 193.755 354.245 C 206.504 379.689,217.100 400.684,217.303 400.900 C 217.718 401.340,250.086 385.425,250.680 384.488 C 250.889 384.159,235.628 353.030,216.768 315.312 C 197.908 277.594,182.477 246.540,182.477 246.303 C 182.477 246.067,195.777 245.873,212.033 245.873 L 241.589 245.873 241.589 226.597 L 241.589 207.321 206.036 207.321 L 170.483 207.321 170.483 185.047 C 170.483 172.796,170.680 162.773,170.921 162.773 C 171.161 162.773,178.292 166.244,186.766 170.486 L 202.175 178.199 221.028 140.500 L 239.881 102.801 223.214 94.480 C 214.047 89.904,206.378 86.339,206.172 86.557 C 205.966 86.776,197.873 102.761,188.187 122.080 L 170.577 157.204 170.530 97.450 L 170.483 37.695 151.642 37.695 L 132.800 37.695 132.580 97.450 M283.568 226.597 L 283.568 415.500 302.415 415.500 L 321.262 415.500 321.262 368.381 L 321.262 321.262 358.957 321.262 L 396.652 321.262 396.652 368.381 L 396.652 415.500 415.500 415.500 L 434.347 415.500 434.347 226.597 L 434.347 37.695 415.500 37.695 L 396.652 37.695 396.652 84.813 L 396.652 131.932 358.957 131.932 L 321.262 131.932 321.262 84.813 L 321.262 37.695 302.415 37.695 L 283.568 37.695 283.568 226.597 M396.652 226.597 L 396.652 283.568 358.957 283.568 L 321.262 283.568 321.262 226.597 L 321.262 169.627 358.957 169.627 L 396.652 169.627 396.652 226.597 " stroke="none" fill-rule="evenodd" fill="black"></path></svg>