<svg width="136mm" height="120mm" version="1.1" viewBox="0 0 600 529.4117647058824" xmlns="http://www.w3.org/2000/svg"><path d="M131.885 97.021 L 131.838 156.348 114.321 121.437 C 104.686 102.236,96.415 86.527,95.940 86.527 C 95.465 86.527,87.756 90.191,78.808 94.670 L 62.539 102.812 81.389 140.503 C 91.756 161.233,100.434 178.194,100.673 178.194 C 100.913 178.194,108.044 174.722,116.520 170.479 L 131.932 162.764 131.932 185.471 L 131.932 208.178 96.379 208.178 L 60.826 208.178 60.826 227.025 L 60.826 245.873 90.382 245.873 C 106.638 245.873,119.938 246.067,119.938 246.303 C 119.938 246.540,104.496 277.617,85.622 315.362 C 66.748 353.108,51.424 384.098,51.568 384.228 C 52.345 384.933,85.036 400.994,85.240 400.772 C 85.373 400.626,95.912 379.689,108.660 354.245 L 131.838 307.984 131.885 361.742 L 131.932 415.500 151.208 415.500 L 170.483 415.500 170.530 361.742 L 170.577 307.984 193.755 354.245 C 206.504 379.689,217.100 400.684,217.303 400.900 C 217.718 401.340,250.086 385.425,250.680 384.488 C 250.889 384.159,235.628 353.030,216.768 315.312 C 197.908 277.594,182.477 246.540,182.477 246.303 C 182.477 246.067,195.777 245.873,212.033 245.873 L 241.589 245.873 241.589 227.025 L 241.589 208.178 206.036 208.178 L 170.483 208.178 170.483 185.471 L 170.483 162.764 185.895 170.479 C 194.371 174.722,201.502 178.194,201.742 178.194 C 201.981 178.194,210.659 161.233,221.027 140.503 L 239.876 102.812 223.607 94.670 C 214.659 90.191,206.950 86.527,206.475 86.527 C 206.001 86.527,197.729 102.236,188.094 121.437 L 170.577 156.348 170.530 97.021 L 170.483 37.695 151.208 37.695 L 131.932 37.695 131.885 97.021 M283.568 226.597 L 283.568 415.500 302.415 415.500 L 321.262 415.500 321.262 368.381 L 321.262 321.262 358.957 321.262 L 396.652 321.262 396.652 368.381 L 396.652 415.500 415.500 415.500 L 434.347 415.500 434.347 226.597 L 434.347 37.695 415.500 37.695 L 396.652 37.695 396.652 84.813 L 396.652 131.932 358.957 131.932 L 321.262 131.932 321.262 84.813 L 321.262 37.695 302.415 37.695 L 283.568 37.695 283.568 226.597 M396.652 227.025 L 396.652 283.568 358.957 283.568 L 321.262 283.568 321.262 227.025 L 321.262 170.483 358.957 170.483 L 396.652 170.483 396.652 227.025 " stroke="none" fill-rule="evenodd" fill="black"></path></svg>