<svg width="136mm" height="120mm" version="1.1" viewBox="0 0 600 529.4117647058824" xmlns="http://www.w3.org/2000/svg"><path d="M67.679 226.597 L 67.679 415.500 86.955 415.500 L 106.231 415.500 106.231 368.381 L 106.231 321.262 143.926 321.262 L 181.620 321.262 181.620 368.381 L 181.620 415.500 200.468 415.500 L 219.315 415.500 219.315 226.597 L 219.315 37.695 200.468 37.695 L 181.620 37.695 181.620 84.813 L 181.620 131.932 143.926 131.932 L 106.231 131.932 106.231 84.813 L 106.231 37.695 86.955 37.695 L 67.679 37.695 67.679 226.597 M321.216 97.450 L 321.169 157.204 303.559 122.080 C 293.873 102.761,285.782 86.778,285.579 86.562 C 285.165 86.122,252.797 102.038,252.202 102.975 C 251.912 103.432,288.020 176.804,289.139 178.030 C 289.272 178.176,296.357 174.802,304.884 170.534 C 313.411 166.265,320.585 162.773,320.825 162.773 C 321.066 162.773,321.262 172.989,321.262 185.476 L 321.262 208.178 285.264 208.178 L 249.266 208.178 249.497 226.811 L 249.728 245.445 279.494 245.670 L 309.260 245.895 274.649 315.113 L 240.038 384.331 256.668 392.633 C 265.815 397.200,273.488 400.936,273.720 400.936 C 273.951 400.936,284.722 379.829,297.655 354.031 L 321.169 307.127 321.216 361.313 L 321.262 415.500 340.110 415.500 L 358.957 415.500 359.004 361.313 L 359.051 307.127 382.565 354.031 C 395.498 379.829,406.268 400.936,406.500 400.936 C 406.732 400.936,414.405 397.200,423.552 392.633 L 440.182 384.331 405.571 315.113 L 370.960 245.895 400.726 245.670 L 430.492 245.445 430.723 226.811 L 430.954 208.178 394.955 208.178 L 358.957 208.178 358.957 185.476 C 358.957 172.989,359.154 162.773,359.395 162.773 C 359.635 162.773,366.809 166.265,375.336 170.534 C 383.863 174.802,390.948 178.176,391.081 178.030 C 392.200 176.804,428.308 103.432,428.017 102.975 C 427.423 102.038,395.055 86.122,394.641 86.562 C 394.437 86.778,386.347 102.761,376.661 122.080 L 359.051 157.204 359.004 97.450 L 358.957 37.695 340.110 37.695 L 321.262 37.695 321.216 97.450 M181.620 227.025 L 181.620 283.568 143.926 283.568 L 106.231 283.568 106.231 227.025 L 106.231 170.483 143.926 170.483 L 181.620 170.483 181.620 227.025 " stroke="none" fill-rule="evenodd" fill="black"></path></svg>