<svg width="136mm" height="120mm" version="1.1" viewBox="0 0 600 529.4117647058824" xmlns="http://www.w3.org/2000/svg"><path d="M340.110 64.244 L 340.110 75.372 300.488 75.595 L 260.865 75.818 260.634 94.451 L 260.403 113.084 360.654 113.084 L 460.905 113.084 460.905 94.237 L 460.905 75.390 419.355 75.390 L 377.805 75.390 377.805 64.252 L 377.805 53.115 358.957 53.115 L 340.110 53.115 340.110 64.244 M68.250 113.656 C 67.936 113.970,67.679 122.438,67.679 132.474 L 67.679 150.721 58.470 150.964 L 49.260 151.208 49.260 170.055 L 49.260 188.902 58.470 189.146 L 67.679 189.389 67.680 219.558 C 67.681 253.786,68.487 265.152,71.629 275.230 C 82.340 309.590,115.578 331.679,151.084 328.034 C 179.183 325.149,203.140 307.184,213.828 280.984 C 218.757 268.901,219.292 263.402,219.304 224.670 L 219.315 189.331 228.739 189.331 L 238.163 189.331 238.163 170.055 L 238.163 150.779 228.739 150.779 L 219.315 150.779 219.315 131.932 L 219.315 113.084 200.468 113.084 L 181.620 113.084 181.620 131.932 L 181.620 150.779 143.926 150.779 L 106.231 150.779 106.231 131.932 L 106.231 113.084 87.526 113.084 C 77.239 113.084,68.565 113.341,68.250 113.656 M340.110 179.479 L 340.110 233.879 292.991 233.879 L 245.873 233.879 245.873 253.155 L 245.873 272.431 286.996 272.431 L 328.119 272.431 299.418 329.827 C 283.633 361.395,270.717 387.518,270.717 387.879 C 270.717 388.239,278.236 392.287,287.425 396.875 L 304.132 405.215 331.327 350.817 C 346.285 320.898,358.718 296.418,358.957 296.418 C 359.196 296.418,371.630 320.898,386.587 350.817 L 413.782 405.215 430.490 396.875 C 439.679 392.287,447.197 388.239,447.197 387.879 C 447.197 387.518,434.282 361.395,418.497 329.827 L 389.796 272.431 430.919 272.431 L 472.042 272.431 472.042 253.155 L 472.042 233.879 424.923 233.879 L 377.805 233.879 377.805 179.479 L 377.805 125.078 358.957 125.078 L 340.110 125.078 340.110 179.479 M268.145 158.920 L 254.884 172.201 279.285 196.613 L 303.685 221.024 317.188 207.541 L 330.691 194.058 306.492 169.849 C 293.183 156.533,282.094 145.639,281.850 145.639 C 281.605 145.639,275.438 151.616,268.145 158.920 M411.422 169.849 L 387.224 194.058 400.727 207.541 L 414.230 221.024 438.630 196.613 L 463.030 172.201 449.770 158.920 C 442.477 151.616,436.309 145.639,436.065 145.639 C 435.821 145.639,424.731 156.533,411.422 169.849 M181.603 221.243 C 181.594 238.794,181.234 255.586,180.805 258.557 C 178.742 272.825,168.304 284.903,154.308 289.222 C 148.764 290.932,137.965 290.853,132.526 289.062 C 122.602 285.795,114.007 278.088,109.370 268.301 L 106.659 262.579 106.410 225.955 L 106.161 189.331 143.891 189.331 L 181.620 189.331 181.603 221.243 " stroke="none" fill-rule="evenodd" fill="black"></path></svg>