<svg width="136mm" height="120mm" version="1.1" viewBox="0 0 600 529.4117647058824" xmlns="http://www.w3.org/2000/svg"><path d="M340.110 64.244 L 340.110 75.372 300.488 75.595 L 260.865 75.818 260.634 94.451 L 260.403 113.084 360.654 113.084 L 460.905 113.084 460.905 94.237 L 460.905 75.390 419.355 75.390 L 377.805 75.390 377.805 64.252 L 377.805 53.115 358.957 53.115 L 340.110 53.115 340.110 64.244 M68.536 131.915 L 68.536 150.779 59.112 150.779 L 49.689 150.779 49.689 169.598 L 49.689 188.416 58.898 188.659 L 68.108 188.902 68.556 228.311 L 69.005 267.719 71.441 275.001 C 78.758 296.881,92.499 312.460,112.722 321.803 C 125.984 327.930,144.612 329.968,159.158 326.882 C 184.042 321.603,204.952 303.743,214.234 279.839 C 218.766 268.168,219.315 262.074,219.315 223.486 L 219.315 188.474 228.739 188.474 L 238.163 188.474 238.163 169.627 L 238.163 150.779 228.739 150.779 L 219.315 150.779 219.315 131.932 L 219.315 113.084 200.468 113.084 L 181.620 113.084 181.620 131.932 L 181.620 150.779 143.942 150.779 L 106.264 150.779 106.033 132.146 L 105.802 113.513 87.169 113.282 L 68.536 113.051 68.536 131.915 M340.110 179.050 L 340.110 233.879 292.991 233.879 L 245.873 233.879 245.873 252.727 L 245.873 271.574 286.995 271.574 C 309.611 271.574,328.116 271.768,328.116 272.005 C 328.116 272.242,315.201 298.263,299.417 329.829 C 283.632 361.396,270.717 387.415,270.717 387.650 C 270.717 388.145,302.929 404.362,303.911 404.362 C 304.272 404.362,316.707 380.075,331.543 350.390 C 346.379 320.706,358.715 296.418,358.955 296.418 C 359.195 296.418,371.630 320.898,386.587 350.817 L 413.782 405.215 430.490 396.875 C 439.679 392.287,447.197 388.239,447.197 387.879 C 447.197 387.518,434.283 361.396,418.498 329.830 C 402.713 298.263,389.798 272.242,389.798 272.005 C 389.798 271.768,408.303 271.574,430.920 271.574 L 472.042 271.574 472.042 252.727 L 472.042 233.879 424.923 233.879 L 377.805 233.879 377.805 179.050 L 377.805 124.222 358.957 124.222 L 340.110 124.222 340.110 179.050 M268.145 158.920 L 254.884 172.201 279.285 196.613 L 303.685 221.024 317.188 207.541 L 330.691 194.058 306.492 169.849 C 293.183 156.533,282.094 145.639,281.850 145.639 C 281.605 145.639,275.438 151.616,268.145 158.920 M411.422 169.849 L 387.224 194.058 400.727 207.541 L 414.230 221.024 438.630 196.613 L 463.030 172.201 449.770 158.920 C 442.477 151.616,436.309 145.639,436.065 145.639 C 435.821 145.639,424.731 156.533,411.422 169.849 M181.419 222.314 C 181.562 243.197,181.310 257.352,180.749 260.064 C 178.354 271.639,170.486 281.786,159.842 287.025 C 154.609 289.602,152.950 289.982,145.707 290.269 C 138.959 290.536,136.523 290.264,132.003 288.737 C 121.958 285.344,114.070 278.222,109.370 268.301 L 106.659 262.579 106.411 225.517 L 106.162 188.456 143.677 188.679 L 181.192 188.902 181.419 222.314 " stroke="none" fill-rule="evenodd" fill="black"></path></svg>