<svg width="136mm" height="120mm" version="1.1" viewBox="0 0 600 529.4117647058824" xmlns="http://www.w3.org/2000/svg"><path d="M340.110 64.244 L 340.110 75.372 300.488 75.595 L 260.865 75.818 260.634 94.451 L 260.403 113.084 360.654 113.084 L 460.905 113.084 460.905 94.237 L 460.905 75.390 419.355 75.390 L 377.805 75.390 377.805 64.252 L 377.805 53.115 358.957 53.115 L 340.110 53.115 340.110 64.244 M68.267 113.639 C 67.944 113.962,67.679 122.451,67.679 132.503 L 67.679 150.779 58.239 150.779 L 48.799 150.779 49.030 169.841 L 49.260 188.902 58.393 189.145 L 67.525 189.387 67.904 226.411 C 68.257 260.967,68.407 263.921,70.152 270.717 C 83.145 321.321,140.632 344.256,184.509 316.340 C 198.382 307.514,209.259 293.828,214.703 278.351 C 218.853 266.550,219.253 261.823,219.285 224.241 L 219.315 189.331 228.739 189.331 L 238.163 189.331 238.163 170.055 L 238.163 150.779 228.739 150.779 L 219.315 150.779 219.315 131.932 L 219.315 113.084 200.468 113.084 L 181.620 113.084 181.620 131.932 L 181.620 150.779 143.942 150.779 L 106.264 150.779 106.033 132.146 L 105.802 113.513 87.328 113.282 C 77.167 113.156,68.590 113.316,68.267 113.639 M340.110 179.479 L 340.110 233.879 292.991 233.879 L 245.873 233.879 245.873 253.155 L 245.873 272.431 286.996 272.431 L 328.119 272.431 299.418 329.827 C 283.633 361.395,270.717 387.518,270.717 387.879 C 270.717 388.239,278.236 392.287,287.425 396.875 L 304.132 405.215 331.327 350.817 C 346.285 320.898,358.717 296.425,358.954 296.434 C 359.191 296.442,371.720 320.874,386.796 350.727 L 414.206 405.004 430.701 396.769 C 439.774 392.240,447.197 388.239,447.197 387.879 C 447.197 387.518,434.284 361.399,418.501 329.835 L 389.804 272.447 431.137 272.225 L 472.470 272.002 472.470 253.155 L 472.470 234.307 425.137 234.086 L 377.805 233.865 377.805 179.471 L 377.805 125.078 358.957 125.078 L 340.110 125.078 340.110 179.479 M268.143 158.922 L 254.880 172.205 279.504 196.828 L 304.127 221.452 317.616 207.962 L 331.106 194.473 306.700 170.056 C 293.277 156.627,282.094 145.639,281.850 145.639 C 281.605 145.639,275.437 151.616,268.143 158.922 M411.422 169.849 L 387.224 194.058 400.727 207.541 L 414.230 221.024 438.630 196.613 L 463.030 172.201 449.770 158.920 C 442.477 151.616,436.309 145.639,436.065 145.639 C 435.821 145.639,424.731 156.533,411.422 169.849 M181.592 220.814 C 181.577 238.130,181.229 254.897,180.820 258.074 C 179.767 266.238,175.999 273.752,169.995 279.661 C 162.099 287.432,154.742 290.433,143.497 290.470 C 126.933 290.524,113.157 280.460,107.643 264.275 C 106.421 260.690,106.231 255.364,106.231 224.731 L 106.231 189.331 143.926 189.331 L 181.620 189.331 181.592 220.814 " stroke="none" fill-rule="evenodd" fill="black"></path></svg>