<svg width="136mm" height="120mm" version="1.1" viewBox="0 0 600 529.4117647058824" xmlns="http://www.w3.org/2000/svg"><path d="M67.679 226.597 L 67.679 415.500 86.955 415.500 L 106.231 415.500 106.231 368.381 L 106.231 321.262 143.926 321.262 L 181.620 321.262 181.620 368.381 L 181.620 415.500 200.468 415.500 L 219.315 415.500 219.315 226.597 L 219.315 37.695 200.468 37.695 L 181.620 37.695 181.620 84.813 L 181.620 131.932 143.926 131.932 L 106.231 131.932 106.231 84.813 L 106.231 37.695 86.955 37.695 L 67.679 37.695 67.679 226.597 M252.727 101.947 L 252.727 120.795 292.563 120.795 C 314.473 120.795,332.400 121.085,332.400 121.441 C 332.400 121.796,314.088 177.019,291.706 244.160 C 269.325 311.300,251.013 366.684,251.013 367.236 C 251.013 368.399,285.096 379.983,285.977 379.119 C 286.301 378.802,297.399 346.090,310.639 306.425 L 334.711 234.307 346.354 234.535 C 359.878 234.799,367.917 236.696,376.972 241.760 C 389.414 248.718,400.692 262.311,404.909 275.429 C 407.823 284.496,408.551 298.337,406.595 307.525 C 402.975 324.538,390.227 341.022,374.825 348.604 C 368.233 351.849,357.596 354.674,351.967 354.674 L 347.820 354.674 347.820 373.765 L 347.820 392.855 356.110 392.188 C 379.064 390.340,400.137 380.470,416.845 363.740 C 435.889 344.672,445.564 321.291,445.542 294.387 C 445.503 243.866,406.701 201.334,356.809 197.125 C 352.318 196.746,348.418 196.211,348.142 195.935 C 347.867 195.660,353.208 178.737,360.010 158.329 L 372.379 121.223 411.073 121.000 L 449.767 120.777 449.767 101.939 L 449.767 83.100 351.247 83.100 L 252.727 83.100 252.727 101.947 M181.620 227.025 L 181.620 283.568 143.926 283.568 L 106.231 283.568 106.231 227.025 L 106.231 170.483 143.926 170.483 L 181.620 170.483 181.620 227.025 " stroke="none" fill-rule="evenodd" fill="black"></path></svg>