<svg width="136mm" height="120mm" version="1.1" viewBox="0 0 600 529.4117647058824" xmlns="http://www.w3.org/2000/svg"><path d="M67.679 226.597 L 67.679 415.500 86.955 415.500 L 106.231 415.500 106.231 368.381 L 106.231 321.262 143.926 321.262 L 181.620 321.262 181.620 368.381 L 181.620 415.500 200.468 415.500 L 219.315 415.500 219.315 226.597 L 219.315 37.695 200.468 37.695 L 181.620 37.695 181.620 84.813 L 181.620 131.932 143.926 131.932 L 106.231 131.932 106.231 84.813 L 106.231 37.695 86.955 37.695 L 67.679 37.695 67.679 226.597 M252.727 101.947 L 252.727 120.795 292.563 120.795 C 314.473 120.795,332.400 121.085,332.400 121.441 C 332.400 121.796,314.088 177.019,291.706 244.160 C 269.325 311.300,251.013 366.684,251.013 367.236 C 251.013 368.399,285.096 379.983,285.977 379.119 C 286.301 378.802,297.399 346.090,310.638 306.425 L 334.710 234.307 346.072 234.496 C 359.564 234.721,365.297 235.983,375.235 240.916 C 381.078 243.817,384.045 246.060,390.255 252.270 C 402.636 264.651,407.741 276.907,407.774 294.333 C 407.792 303.775,406.720 309.952,403.818 317.118 C 395.506 337.647,375.193 353.013,354.460 354.456 L 347.820 354.919 347.820 373.878 L 347.820 392.838 355.745 392.251 C 378.304 390.580,398.619 381.445,415.308 365.467 C 447.990 334.176,455.212 287.224,433.527 247.022 C 418.540 219.237,388.704 199.816,356.881 197.131 C 352.350 196.749,348.465 196.258,348.248 196.041 C 348.030 195.823,353.468 178.804,360.331 158.220 L 372.810 120.795 411.289 120.795 L 449.767 120.795 449.767 101.947 L 449.767 83.100 351.247 83.100 L 252.727 83.100 252.727 101.947 M181.620 227.025 L 181.620 283.568 143.926 283.568 L 106.231 283.568 106.231 227.025 L 106.231 170.483 143.926 170.483 L 181.620 170.483 181.620 227.025 " stroke="none" fill-rule="evenodd" fill="black"></path></svg>