<svg width="136mm" height="120mm" version="1.1" viewBox="0 0 600 529.4117647058824" xmlns="http://www.w3.org/2000/svg"><path d="M68.536 226.597 L 68.536 415.500 87.383 415.500 L 106.231 415.500 106.231 368.381 L 106.231 321.262 143.926 321.262 L 181.620 321.262 181.620 368.381 L 181.620 415.500 200.468 415.500 L 219.315 415.500 219.315 226.597 L 219.315 37.695 200.468 37.695 L 181.620 37.695 181.620 84.813 L 181.620 131.932 143.926 131.932 L 106.231 131.932 106.231 84.813 L 106.231 37.695 87.383 37.695 L 68.536 37.695 68.536 226.597 M253.583 101.947 L 253.583 120.795 292.991 120.795 C 314.666 120.795,332.400 121.085,332.400 121.441 C 332.400 121.796,314.088 177.019,291.706 244.160 C 269.325 311.300,251.013 366.684,251.013 367.236 C 251.013 368.399,285.096 379.983,285.977 379.119 C 286.301 378.802,297.392 346.090,310.623 306.425 L 334.679 234.307 341.464 234.046 C 354.925 233.527,368.314 236.617,378.520 242.600 C 381.189 244.164,386.466 248.529,390.247 252.298 C 401.959 263.977,407.802 278.086,407.777 294.628 C 407.761 304.809,406.126 311.977,401.801 320.834 C 395.767 333.191,387.384 341.794,375.064 348.276 C 368.421 351.770,357.939 354.674,351.967 354.674 L 347.820 354.674 347.820 373.651 L 347.820 392.627 356.173 392.104 C 370.834 391.186,386.099 386.157,399.749 377.747 C 409.918 371.481,424.541 356.894,430.732 346.839 C 440.183 331.491,444.498 317.341,445.225 299.311 C 445.818 284.596,444.725 276.082,440.677 263.895 C 428.378 226.871,396.390 201.141,357.504 196.993 C 352.413 196.450,348.112 195.877,347.945 195.720 C 347.778 195.563,353.208 178.737,360.010 158.329 L 372.379 121.223 411.073 121.000 L 449.767 120.777 449.767 101.939 L 449.767 83.100 351.675 83.100 L 253.583 83.100 253.583 101.947 M181.620 226.597 L 181.620 283.568 143.926 283.568 L 106.231 283.568 106.231 226.597 L 106.231 169.627 143.926 169.627 L 181.620 169.627 181.620 226.597 " stroke="none" fill-rule="evenodd" fill="black"></path></svg>