<svg width="136mm" height="120mm" version="1.1" viewBox="0 0 600 529.4117647058824" xmlns="http://www.w3.org/2000/svg"><path d="M283.568 226.597 L 283.568 415.500 302.415 415.500 L 321.262 415.500 321.262 368.381 L 321.262 321.262 358.957 321.262 L 396.652 321.262 396.652 368.381 L 396.652 415.500 415.500 415.500 L 434.347 415.500 434.347 226.597 L 434.347 37.695 415.500 37.695 L 396.652 37.695 396.652 84.813 L 396.652 131.932 358.957 131.932 L 321.262 131.932 321.262 84.813 L 321.262 37.695 302.415 37.695 L 283.568 37.695 283.568 226.597 M56.542 101.947 L 56.542 120.795 96.379 120.795 C 118.289 120.795,136.215 120.893,136.215 121.012 C 136.215 121.132,117.718 176.718,95.111 244.537 C 72.503 312.356,54.095 367.912,54.203 367.995 C 55.434 368.940,89.360 379.544,89.793 379.119 C 90.117 378.802,101.213 346.090,114.450 306.425 L 138.518 234.307 148.718 234.388 C 160.111 234.477,166.739 235.612,174.338 238.774 C 190.560 245.523,203.088 259.164,208.791 276.286 C 210.807 282.336,211.077 284.494,211.094 294.705 C 211.111 305.176,210.887 306.919,208.726 313.124 C 204.667 324.776,198.542 333.764,189.569 341.232 C 180.522 348.762,165.725 354.630,155.705 354.661 L 151.636 354.674 151.636 373.521 L 151.636 392.369 156.562 392.362 C 172.280 392.341,193.114 385.188,208.044 374.686 C 215.554 369.403,227.320 357.381,232.275 349.928 C 258.276 310.816,254.267 260.884,222.422 227.205 C 205.431 209.235,183.688 198.921,157.847 196.574 C 154.431 196.264,151.636 195.757,151.636 195.447 C 151.636 195.138,157.162 178.310,163.916 158.054 L 176.197 121.223 214.890 121.000 L 253.583 120.777 253.583 101.939 L 253.583 83.100 155.063 83.100 L 56.542 83.100 56.542 101.947 M396.652 226.597 L 396.652 283.568 358.957 283.568 L 321.262 283.568 321.262 226.597 L 321.262 169.627 358.957 169.627 L 396.652 169.627 396.652 226.597 " stroke="none" fill-rule="evenodd" fill="black"></path></svg>