<svg width="136mm" height="120mm" version="1.1" viewBox="0 0 600 529.4117647058824" xmlns="http://www.w3.org/2000/svg"><path d="M283.568 226.597 L 283.568 415.500 302.415 415.500 L 321.262 415.500 321.262 368.381 L 321.262 321.262 358.957 321.262 L 396.652 321.262 396.652 368.381 L 396.652 415.500 415.500 415.500 L 434.347 415.500 434.347 226.597 L 434.347 37.695 415.500 37.695 L 396.652 37.695 396.652 84.813 L 396.652 131.932 358.957 131.932 L 321.262 131.932 321.262 84.813 L 321.262 37.695 302.415 37.695 L 283.568 37.695 283.568 226.597 M56.542 101.947 L 56.542 120.795 96.379 120.795 C 118.289 120.795,136.215 120.893,136.215 121.012 C 136.215 121.132,117.718 176.718,95.111 244.537 C 72.503 312.356,54.095 367.912,54.203 367.995 C 55.586 369.057,89.529 379.564,89.766 379.004 C 89.946 378.580,100.953 345.850,114.225 306.270 L 138.357 234.307 149.274 234.501 C 155.408 234.610,162.726 235.282,165.979 236.035 C 182.853 239.941,198.446 252.935,206.055 269.432 C 210.127 278.261,211.177 283.555,211.155 295.133 C 211.139 303.402,210.748 306.671,209.158 311.839 C 201.936 335.316,181.163 352.425,157.287 354.559 L 151.208 355.102 150.975 373.071 C 150.848 382.953,150.901 391.451,151.095 391.955 C 151.654 393.412,167.086 391.822,176.368 389.351 C 196.481 383.998,214.688 372.130,227.615 355.946 C 258.592 317.167,256.192 262.579,221.934 226.713 C 206.412 210.463,184.353 199.405,163.630 197.486 C 160.567 197.202,156.461 196.776,154.506 196.538 L 150.951 196.105 163.495 158.450 L 176.040 120.795 214.811 120.795 L 253.583 120.795 253.583 101.947 L 253.583 83.100 155.063 83.100 L 56.542 83.100 56.542 101.947 M396.652 227.025 L 396.652 283.568 358.957 283.568 L 321.262 283.568 321.262 227.025 L 321.262 170.483 358.957 170.483 L 396.652 170.483 396.652 227.025 " stroke="none" fill-rule="evenodd" fill="black"></path></svg>