<svg width="136mm" height="120mm" version="1.1" viewBox="0 0 600 529.4117647058824" xmlns="http://www.w3.org/2000/svg"><path d="M283.568 226.597 L 283.568 415.500 302.415 415.500 L 321.262 415.500 321.262 368.381 L 321.262 321.262 358.957 321.262 L 396.652 321.262 396.652 368.381 L 396.652 415.500 415.500 415.500 L 434.347 415.500 434.347 226.597 L 434.347 37.695 415.500 37.695 L 396.652 37.695 396.652 84.813 L 396.652 131.932 358.957 131.932 L 321.262 131.932 321.262 84.813 L 321.262 37.695 302.415 37.695 L 283.568 37.695 283.568 226.597 M56.542 101.947 L 56.542 120.795 96.379 120.795 C 118.289 120.795,136.215 120.893,136.215 121.012 C 136.215 121.132,117.718 176.718,95.111 244.537 C 72.503 312.356,54.095 367.912,54.203 367.995 C 55.434 368.940,89.360 379.544,89.793 379.119 C 90.117 378.802,101.215 346.090,114.454 306.425 L 138.527 234.307 149.623 234.513 C 167.843 234.851,179.845 239.158,191.489 249.535 C 212.076 267.885,217.584 299.657,204.293 323.404 C 194.311 341.240,176.854 352.810,157.287 354.559 L 151.208 355.102 150.975 373.071 C 150.848 382.953,150.901 391.451,151.095 391.955 C 151.608 393.293,166.395 391.933,174.990 389.757 C 240.414 373.199,270.233 296.846,233.178 240.764 C 216.632 215.722,190.346 199.900,160.774 197.182 C 156.189 196.760,152.217 196.195,151.948 195.925 C 151.678 195.655,157.023 178.737,163.826 158.329 L 176.194 121.223 214.889 121.000 L 253.583 120.777 253.583 101.939 L 253.583 83.100 155.063 83.100 L 56.542 83.100 56.542 101.947 M396.652 227.025 L 396.652 283.568 358.957 283.568 L 321.262 283.568 321.262 227.025 L 321.262 170.483 358.957 170.483 L 396.652 170.483 396.652 227.025 " stroke="none" fill-rule="evenodd" fill="black"></path></svg>