<svg width="136mm" height="120mm" version="1.1" viewBox="0 0 600 529.4117647058824" xmlns="http://www.w3.org/2000/svg"><path d="M238.163 71.963 C 238.163 94.869,237.870 106.231,237.282 106.231 C 231.855 106.231,208.042 109.484,196.430 111.812 C 138.761 123.374,97.765 151.584,89.037 185.711 C 87.470 191.838,87.383 195.829,87.383 262.287 L 87.383 332.400 106.216 332.400 L 125.049 332.400 125.278 263.221 L 125.507 194.043 127.578 189.834 C 131.978 180.895,146.504 169.182,162.138 161.967 C 181.346 153.103,201.944 148.040,233.665 144.385 L 238.163 143.867 238.163 279.683 L 238.163 415.500 257.010 415.500 L 275.857 415.500 275.857 279.683 L 275.857 143.867 280.355 144.385 C 312.108 148.044,332.647 153.077,351.650 161.857 C 367.528 169.192,382.017 180.843,386.442 189.834 L 388.513 194.043 388.742 263.221 L 388.971 332.400 407.804 332.400 L 426.637 332.400 426.624 262.364 C 426.610 184.441,426.796 187.222,420.749 174.420 C 404.518 140.056,354.164 114.259,290.231 107.554 C 283.295 106.826,277.223 106.231,276.738 106.231 C 276.150 106.231,275.857 94.869,275.857 71.963 L 275.857 37.695 257.010 37.695 L 238.163 37.695 238.163 71.963 " stroke="none" fill-rule="evenodd" fill="black"></path></svg>