<svg width="136mm" height="120mm" version="1.1" viewBox="0 0 600 529.4117647058824" xmlns="http://www.w3.org/2000/svg"><path d="M238.163 71.910 L 238.163 106.126 234.522 106.545 C 232.519 106.776,226.640 107.416,221.457 107.969 C 175.821 112.836,135.115 128.623,111.218 150.723 C 99.763 161.317,92.533 172.655,88.861 185.788 C 87.073 192.179,87.024 193.942,86.729 262.364 L 86.427 332.400 105.752 332.400 L 125.078 332.400 125.079 264.078 L 125.080 195.756 127.641 190.341 C 138.368 167.667,181.838 149.115,234.950 144.546 L 238.163 144.270 238.163 279.885 L 238.163 415.500 257.010 415.500 L 275.857 415.500 275.857 279.885 L 275.857 144.270 279.070 144.546 C 332.182 149.115,375.652 167.667,386.379 190.341 L 388.940 195.756 388.941 264.078 L 388.942 332.400 408.268 332.400 L 427.593 332.400 427.291 262.364 C 426.996 193.942,426.947 192.179,425.159 185.788 C 421.487 172.655,414.257 161.317,402.802 150.723 C 378.896 128.615,337.961 112.747,292.563 107.989 C 287.380 107.446,281.501 106.805,279.498 106.564 L 275.857 106.126 275.857 71.910 L 275.857 37.695 257.010 37.695 L 238.163 37.695 238.163 71.910 " stroke="none" fill-rule="evenodd" fill="black"></path></svg>