<svg width="136mm" height="120mm" version="1.1" viewBox="0 0 600 529.4117647058824" xmlns="http://www.w3.org/2000/svg"><path d="M238.163 71.910 L 238.163 106.126 234.522 106.545 C 232.519 106.776,226.640 107.416,221.457 107.969 C 154.268 115.135,103.089 144.017,89.857 182.235 L 86.955 190.616 86.695 261.508 L 86.436 332.400 105.738 332.400 L 125.039 332.400 125.273 262.793 L 125.507 193.186 128.045 188.902 C 141.390 166.381,183.307 148.989,234.950 144.546 L 238.163 144.270 238.163 279.885 L 238.163 415.500 257.010 415.500 L 275.857 415.500 275.857 279.885 L 275.857 144.270 279.070 144.546 C 330.713 148.989,372.630 166.381,385.975 188.902 L 388.513 193.186 388.747 262.793 L 388.981 332.400 408.237 332.400 L 427.493 332.400 427.493 266.625 C 427.493 226.135,427.150 198.115,426.601 193.732 C 424.671 178.343,416.945 164.102,403.741 151.596 C 379.853 128.970,338.939 112.915,292.563 107.969 C 287.380 107.416,281.501 106.776,279.498 106.545 L 275.857 106.126 275.857 71.910 L 275.857 37.695 257.010 37.695 L 238.163 37.695 238.163 71.910 " stroke="none" fill-rule="evenodd" fill="black"></path></svg>