<svg width="136mm" height="120mm" version="1.1" viewBox="0 0 600 529.4117647058824" xmlns="http://www.w3.org/2000/svg"><path d="M120.795 81.386 L 120.795 101.947 79.245 101.947 L 37.695 101.947 37.695 120.795 L 37.695 139.642 79.245 139.642 L 120.795 139.642 120.795 160.850 L 120.795 182.057 87.393 282.254 C 69.022 337.362,54.276 382.706,54.624 383.019 C 54.972 383.332,62.582 386.006,71.534 388.961 C 80.487 391.916,88.253 394.496,88.792 394.693 C 89.417 394.922,98.708 368.209,114.386 321.105 C 127.924 280.434,139.275 246.853,139.612 246.481 C 139.949 246.109,151.332 279.070,164.907 319.729 C 178.482 360.388,189.727 393.912,189.896 394.227 C 190.226 394.843,223.533 384.034,224.766 382.911 C 225.172 382.541,210.426 337.003,191.997 281.715 L 158.489 181.192 158.489 160.417 L 158.489 139.642 200.039 139.642 L 241.589 139.642 241.589 120.795 L 241.589 101.947 200.039 101.947 L 158.489 101.947 158.489 81.386 L 158.489 60.826 139.642 60.826 L 120.795 60.826 120.795 81.386 M355.531 81.386 L 355.531 101.947 313.981 101.947 L 272.431 101.947 272.431 120.795 L 272.431 139.642 313.981 139.642 L 355.531 139.642 355.531 160.417 L 355.531 181.192 322.023 281.715 C 303.594 337.003,288.848 382.541,289.254 382.911 C 289.660 383.281,297.628 386.116,306.959 389.211 C 318.658 393.090,324.045 394.521,324.311 393.817 C 324.524 393.256,335.811 359.450,349.395 318.693 L 374.093 244.590 399.170 319.821 C 415.142 367.737,424.603 394.922,425.228 394.693 C 425.767 394.496,433.533 391.916,442.486 388.961 C 451.438 386.006,459.048 383.332,459.396 383.019 C 459.744 382.706,444.998 337.362,426.627 282.254 L 393.225 182.057 393.225 160.850 L 393.225 139.642 434.775 139.642 L 476.325 139.642 476.325 120.795 L 476.325 101.947 434.775 101.947 L 393.225 101.947 393.225 81.386 L 393.225 60.826 374.378 60.826 L 355.531 60.826 355.531 81.386 " stroke="none" fill-rule="evenodd" fill="black"></path></svg>