<svg width="136mm" height="120mm" version="1.1" viewBox="0 0 600 529.4117647058824" xmlns="http://www.w3.org/2000/svg"><path d="M120.795 81.386 L 120.795 101.947 79.245 101.947 L 37.695 101.947 37.695 120.795 L 37.695 139.642 79.245 139.642 L 120.795 139.642 120.795 161.278 L 120.795 182.914 87.438 282.977 C 65.064 350.091,54.415 383.166,55.097 383.421 C 56.640 384.000,89.451 394.939,89.643 394.939 C 89.735 394.939,101.087 361.110,114.869 319.764 L 139.927 244.590 164.625 318.693 C 178.209 359.450,189.496 393.256,189.709 393.817 C 189.975 394.521,195.362 393.090,207.061 389.211 C 216.392 386.116,224.360 383.281,224.766 382.911 C 225.172 382.541,210.619 337.581,192.426 283.000 L 159.346 183.762 159.346 161.702 L 159.346 139.642 200.468 139.642 L 241.589 139.642 241.589 120.795 L 241.589 101.947 200.468 101.947 L 159.346 101.947 159.346 81.386 L 159.346 60.826 140.070 60.826 L 120.795 60.826 120.795 81.386 M354.674 81.386 L 354.674 101.947 313.552 101.947 L 272.431 101.947 272.431 120.795 L 272.431 139.642 313.552 139.642 L 354.674 139.642 354.674 161.702 L 354.674 183.762 321.594 283.000 C 303.401 337.581,288.848 382.541,289.254 382.911 C 289.660 383.281,297.628 386.116,306.959 389.211 C 318.658 393.090,324.045 394.521,324.311 393.817 C 324.524 393.256,335.811 359.450,349.395 318.693 L 374.093 244.590 399.151 319.764 C 412.933 361.110,424.285 394.939,424.377 394.939 C 424.569 394.939,457.380 384.000,458.923 383.421 C 459.605 383.166,448.956 350.091,426.582 282.977 L 393.225 182.914 393.225 161.278 L 393.225 139.642 434.775 139.642 L 476.325 139.642 476.325 120.795 L 476.325 101.947 434.775 101.947 L 393.225 101.947 393.225 81.386 L 393.225 60.826 373.950 60.826 L 354.674 60.826 354.674 81.386 " stroke="none" fill-rule="evenodd" fill="black"></path></svg>