<svg width="136mm" height="120mm" version="1.1" viewBox="0 0 600 529.4117647058824" xmlns="http://www.w3.org/2000/svg"><path d="M120.795 81.386 L 120.795 101.947 79.245 101.947 L 37.695 101.947 37.695 120.795 L 37.695 139.642 79.245 139.642 L 120.795 139.642 120.795 161.278 L 120.795 182.914 87.438 282.977 C 65.064 350.091,54.415 383.166,55.097 383.421 C 56.640 384.000,89.451 394.939,89.643 394.939 C 89.735 394.939,101.087 361.110,114.869 319.763 L 139.928 244.588 164.932 319.549 C 186.988 385.670,190.128 394.480,191.561 394.252 C 194.913 393.718,224.459 383.632,224.937 382.858 C 225.211 382.415,210.373 336.849,191.963 281.600 L 158.490 181.149 158.489 160.396 L 158.489 139.642 200.039 139.642 L 241.589 139.642 241.589 120.795 L 241.589 101.947 200.039 101.947 L 158.489 101.947 158.489 81.386 L 158.489 60.826 139.642 60.826 L 120.795 60.826 120.795 81.386 M355.531 81.386 L 355.531 101.947 313.981 101.947 L 272.431 101.947 272.431 120.795 L 272.431 139.642 313.981 139.642 L 355.531 139.642 355.531 160.396 L 355.531 181.149 322.025 281.696 C 303.598 336.997,288.852 382.545,289.257 382.914 C 289.662 383.282,297.628 386.116,306.959 389.211 C 318.658 393.090,324.045 394.521,324.311 393.817 C 324.524 393.256,335.811 359.450,349.395 318.693 L 374.093 244.590 399.151 319.764 C 412.933 361.110,424.285 394.939,424.377 394.939 C 424.569 394.939,457.380 384.000,458.923 383.421 C 459.605 383.166,448.956 350.091,426.582 282.977 L 393.225 182.914 393.225 161.278 L 393.225 139.642 434.775 139.642 L 476.325 139.642 476.325 120.795 L 476.325 101.947 434.775 101.947 L 393.225 101.947 393.225 81.386 L 393.225 60.826 374.378 60.826 L 355.531 60.826 355.531 81.386 " stroke="none" fill-rule="evenodd" fill="black"></path></svg>