<svg width="136mm" height="120mm" version="1.1" viewBox="0 0 600 529.4117647058824" xmlns="http://www.w3.org/2000/svg"><path d="M162.773 226.597 L 162.773 415.500 181.620 415.500 L 200.468 415.500 200.468 368.381 L 200.468 321.262 257.010 321.262 L 313.552 321.262 313.552 368.381 L 313.552 415.500 332.400 415.500 L 351.247 415.500 351.247 226.597 L 351.247 37.695 332.400 37.695 L 313.552 37.695 313.552 84.813 L 313.552 131.932 257.010 131.932 L 200.468 131.932 200.468 84.813 L 200.468 37.695 181.620 37.695 L 162.773 37.695 162.773 226.597 M313.552 227.025 L 313.552 283.568 257.010 283.568 L 200.468 283.568 200.468 227.025 L 200.468 170.483 257.010 170.483 L 313.552 170.483 313.552 227.025 " stroke="none" fill-rule="evenodd" fill="black"></path></svg>