<svg width="136mm" height="120mm" version="1.1" viewBox="0 0 600 529.4117647058824" xmlns="http://www.w3.org/2000/svg"><path d="M268.147 98.520 L 268.147 117.368 328.116 117.368 C 361.099 117.368,388.065 117.657,388.039 118.010 C 388.014 118.364,383.987 126.556,379.090 136.215 L 370.186 153.778 370.140 144.996 L 370.094 136.215 351.247 136.215 L 332.400 136.215 332.400 182.907 L 332.400 229.600 295.990 302.415 C 275.964 342.464,259.580 375.615,259.580 376.085 C 259.580 376.794,291.190 393.225,292.553 393.225 C 292.792 393.225,302.178 374.849,313.410 352.389 L 333.832 311.552 334.890 318.335 C 341.867 363.028,361.966 394.498,388.513 402.293 C 391.508 403.172,396.515 403.807,400.507 403.814 C 432.835 403.872,458.219 370.126,466.468 316.122 C 467.225 311.170,468.073 298.366,468.356 287.637 L 468.870 268.147 450.021 268.147 L 431.172 268.147 430.681 286.352 C 429.951 313.440,426.356 331.275,418.312 347.718 C 413.995 356.543,406.618 365.077,402.402 366.124 C 394.370 368.118,382.467 352.404,376.531 331.971 C 371.539 314.787,370.846 308.107,370.352 272.414 L 369.895 239.414 409.832 159.544 L 449.769 79.673 358.958 79.673 L 268.147 79.673 268.147 98.520 M56.542 101.947 L 56.542 120.795 96.379 120.795 C 118.289 120.795,136.215 120.893,136.215 121.012 C 136.215 121.132,117.718 176.718,95.111 244.537 C 72.503 312.356,54.095 367.912,54.203 367.995 C 55.434 368.940,89.360 379.544,89.793 379.119 C 90.117 378.802,101.213 346.090,114.450 306.425 L 138.518 234.307 148.718 234.388 C 160.111 234.477,166.739 235.612,174.338 238.774 C 190.560 245.523,203.088 259.164,208.791 276.286 C 210.807 282.336,211.077 284.494,211.094 294.705 C 211.111 305.176,210.887 306.919,208.726 313.124 C 204.667 324.776,198.542 333.764,189.569 341.232 C 180.522 348.762,165.725 354.630,155.705 354.661 L 151.636 354.674 151.636 373.521 L 151.636 392.369 156.562 392.362 C 172.280 392.341,193.114 385.188,208.044 374.686 C 215.554 369.403,227.320 357.381,232.275 349.928 C 258.276 310.816,254.267 260.884,222.422 227.205 C 205.431 209.235,183.688 198.921,157.847 196.574 C 154.431 196.264,151.636 195.757,151.636 195.447 C 151.636 195.138,157.162 178.310,163.916 158.054 L 176.197 121.223 214.890 121.000 L 253.583 120.777 253.583 101.939 L 253.583 83.100 155.063 83.100 L 56.542 83.100 56.542 101.947 " stroke="none" fill-rule="evenodd" fill="black"></path></svg>