<svg width="136mm" height="120mm" version="1.1" viewBox="0 0 600 529.4117647058824" xmlns="http://www.w3.org/2000/svg"><path d="M268.147 98.520 L 268.147 117.368 328.548 117.368 L 388.950 117.368 379.736 135.573 L 370.523 153.778 370.279 144.996 L 370.034 136.215 351.217 136.215 L 332.400 136.215 332.400 182.907 L 332.400 229.600 295.990 302.415 C 275.964 342.464,259.580 375.615,259.580 376.085 C 259.580 376.794,291.190 393.225,292.553 393.225 C 292.792 393.225,302.168 374.869,313.387 352.434 L 333.786 311.642 334.878 318.808 C 341.064 359.401,359.911 390.991,383.667 400.586 C 409.797 411.141,437.179 396.261,453.178 362.812 C 463.797 340.611,468.615 315.832,468.615 283.419 L 468.615 268.147 449.767 268.147 L 430.920 268.147 430.917 280.783 C 430.912 302.251,428.551 320.673,424.075 334.176 C 418.977 349.552,409.617 363.653,403.074 365.812 C 396.681 367.922,389.898 361.570,382.489 346.535 C 373.118 327.518,371.032 314.623,370.365 271.574 L 369.867 239.448 409.814 159.560 L 449.760 79.673 358.954 79.673 L 268.147 79.673 268.147 98.520 M56.542 101.947 L 56.542 120.795 96.379 120.795 C 118.289 120.795,136.215 120.893,136.215 121.012 C 136.215 121.132,117.718 176.718,95.111 244.537 C 72.503 312.356,54.095 367.912,54.203 367.995 C 55.586 369.057,89.529 379.564,89.766 379.004 C 89.946 378.580,100.953 345.850,114.225 306.270 L 138.357 234.307 149.274 234.501 C 155.408 234.610,162.726 235.282,165.979 236.035 C 182.853 239.941,198.446 252.935,206.055 269.432 C 210.127 278.261,211.177 283.555,211.155 295.133 C 211.139 303.402,210.748 306.671,209.158 311.839 C 201.936 335.316,181.163 352.425,157.287 354.559 L 151.208 355.102 150.975 373.071 C 150.848 382.953,150.901 391.451,151.095 391.955 C 151.654 393.412,167.086 391.822,176.368 389.351 C 196.481 383.998,214.688 372.130,227.615 355.946 C 258.592 317.167,256.192 262.579,221.934 226.713 C 206.412 210.463,184.353 199.405,163.630 197.486 C 160.567 197.202,156.461 196.776,154.506 196.538 L 150.951 196.105 163.495 158.450 L 176.040 120.795 214.811 120.795 L 253.583 120.795 253.583 101.947 L 253.583 83.100 155.063 83.100 L 56.542 83.100 56.542 101.947 " stroke="none" fill-rule="evenodd" fill="black"></path></svg>