<svg width="136mm" height="120mm" version="1.1" viewBox="0 0 600 529.4117647058824" xmlns="http://www.w3.org/2000/svg"><path d="M268.147 98.520 L 268.147 117.368 328.116 117.368 C 361.099 117.368,388.065 117.657,388.039 118.010 C 388.014 118.364,383.987 126.556,379.090 136.215 L 370.186 153.778 370.140 144.996 L 370.094 136.215 351.247 136.215 L 332.400 136.215 332.400 182.907 L 332.400 229.600 295.990 302.415 C 275.964 342.464,259.580 375.615,259.580 376.085 C 259.580 376.794,291.190 393.225,292.553 393.225 C 292.792 393.225,302.182 374.841,313.419 352.371 L 333.849 311.516 334.452 316.175 C 338.367 346.424,350.826 374.438,367.137 389.671 C 377.460 399.311,388.065 403.802,400.507 403.802 C 421.798 403.802,440.356 389.138,453.200 362.164 C 463.525 340.483,467.526 320.919,468.355 288.065 L 468.858 268.147 450.025 268.147 L 431.192 268.147 430.654 286.062 C 430.359 295.915,429.507 308.082,428.762 313.100 C 426.291 329.743,421.057 344.575,413.959 355.050 C 404.020 369.718,396.998 369.753,387.160 355.184 C 380.088 344.713,374.846 330.056,372.216 313.400 C 371.190 306.904,370.694 295.917,370.345 272.002 L 369.871 239.448 409.820 159.560 L 449.769 79.673 358.958 79.673 L 268.147 79.673 268.147 98.520 M56.542 101.947 L 56.542 120.795 96.379 120.795 C 118.289 120.795,136.215 120.893,136.215 121.012 C 136.215 121.132,117.718 176.718,95.111 244.537 C 72.503 312.356,54.095 367.912,54.203 367.995 C 55.434 368.940,89.360 379.544,89.793 379.119 C 90.117 378.802,101.215 346.090,114.454 306.425 L 138.527 234.307 149.623 234.513 C 167.843 234.851,179.845 239.158,191.489 249.535 C 212.076 267.885,217.584 299.657,204.293 323.404 C 194.311 341.240,176.854 352.810,157.287 354.559 L 151.208 355.102 150.975 373.071 C 150.848 382.953,150.901 391.451,151.095 391.955 C 151.608 393.293,166.395 391.933,174.990 389.757 C 240.414 373.199,270.233 296.846,233.178 240.764 C 216.632 215.722,190.346 199.900,160.774 197.182 C 156.189 196.760,152.217 196.195,151.948 195.925 C 151.678 195.655,157.023 178.737,163.826 158.329 L 176.194 121.223 214.889 121.000 L 253.583 120.777 253.583 101.939 L 253.583 83.100 155.063 83.100 L 56.542 83.100 56.542 101.947 " stroke="none" fill-rule="evenodd" fill="black"></path></svg>