<svg width="136mm" height="120mm" version="1.1" viewBox="0 0 600 529.4117647058824" xmlns="http://www.w3.org/2000/svg"><path d="M233.879 76.270 C 197.442 79.033,163.984 94.635,138.173 120.900 C 112.527 146.996,97.699 179.840,95.138 216.225 C 90.866 276.908,123.582 334.069,178.343 361.603 C 191.798 368.368,205.155 372.752,221.885 375.895 C 228.201 377.081,241.528 377.304,322.333 377.576 L 415.500 377.889 415.500 359.036 L 415.500 340.182 323.618 339.849 C 226.884 339.498,229.159 339.592,214.557 335.360 C 173.915 323.583,143.703 290.993,134.776 249.300 C 132.578 239.036,132.578 214.159,134.776 203.895 C 143.460 163.337,172.676 131.002,211.806 118.641 C 227.952 113.540,224.533 113.702,324.047 113.329 L 415.500 112.986 415.500 94.188 L 415.500 75.390 328.759 75.521 C 281.051 75.594,238.355 75.931,233.879 76.270 " stroke="none" fill-rule="evenodd" fill="black"></path></svg>