<svg width="136mm" height="120mm" version="1.1" viewBox="0 0 600 529.4117647058824" xmlns="http://www.w3.org/2000/svg"><path d="M233.879 76.270 C 175.034 80.733,123.825 119.524,103.853 174.767 C 97.200 193.169,94.877 206.582,94.877 226.597 C 94.877 255.916,102.044 281.233,117.484 306.461 C 136.994 338.335,171.028 363.335,207.750 372.767 C 225.734 377.385,222.259 377.240,322.333 377.576 L 415.500 377.889 415.500 358.999 L 415.500 340.110 328.939 340.110 C 273.590 340.110,239.379 339.781,234.060 339.199 C 208.725 336.425,185.810 325.900,168.013 308.862 C 149.631 291.264,137.918 269.294,133.978 245.019 C 132.461 235.674,132.461 217.520,133.978 208.175 C 141.167 163.891,174.255 128.023,218.200 116.875 C 231.624 113.470,243.156 113.084,331.667 113.084 L 415.500 113.084 415.500 94.237 L 415.500 75.390 328.759 75.521 C 281.051 75.594,238.355 75.931,233.879 76.270 " stroke="none" fill-rule="evenodd" fill="black"></path></svg>