<svg width="136mm" height="120mm" version="1.1" viewBox="0 0 600 529.4117647058824" xmlns="http://www.w3.org/2000/svg"><path d="M229.642 76.373 C 203.517 79.101,175.469 90.238,154.634 106.155 C 113.868 137.300,91.881 185.635,95.168 236.878 C 99.249 300.475,144.217 355.517,205.678 372.145 C 225.376 377.474,219.739 377.211,321.905 377.562 L 415.500 377.882 415.500 359.029 L 415.500 340.176 324.047 339.909 C 240.464 339.665,231.967 339.512,225.312 338.124 C 209.068 334.738,192.494 327.728,180.251 319.064 C 170.629 312.255,157.698 298.820,151.240 288.922 C 138.580 269.518,132.788 249.956,132.788 226.597 C 132.788 196.552,143.178 170.301,163.559 148.849 C 172.882 139.036,183.137 131.427,194.899 125.594 C 205.770 120.203,212.208 117.920,223.599 115.417 C 231.517 113.677,234.225 113.620,323.618 113.320 L 415.500 113.012 415.500 94.201 L 415.500 75.390 326.189 75.503 C 277.067 75.566,233.622 75.957,229.642 76.373 " stroke="none" fill-rule="evenodd" fill="black"></path></svg>