<svg width="136mm" height="120mm" version="1.1" viewBox="0 0 600 529.4117647058824" xmlns="http://www.w3.org/2000/svg"><path d="M158.594 147.143 L 118.870 226.606 158.478 305.846 C 180.262 349.429,198.252 385.263,198.456 385.479 C 198.875 385.924,231.241 370.000,231.841 369.054 C 232.055 368.717,216.137 336.529,196.469 297.526 L 160.708 226.610 196.223 156.111 C 215.756 117.336,231.861 85.255,232.011 84.818 C 232.256 84.110,200.583 67.679,198.973 67.679 C 198.613 67.679,180.443 103.438,158.594 147.143 M290.526 147.143 L 250.802 226.606 290.744 306.486 L 330.685 386.366 347.391 378.026 C 356.580 373.439,364.098 369.392,364.098 369.032 C 364.098 368.672,348.146 336.476,328.651 297.487 L 293.204 226.597 328.603 155.919 C 348.073 117.047,364.024 84.954,364.050 84.603 C 364.097 83.975,332.182 67.679,330.905 67.679 C 330.545 67.679,312.374 103.438,290.526 147.143 " stroke="none" fill-rule="evenodd" fill="black"></path></svg>