<svg width="136mm" height="120mm" version="1.1" viewBox="0 0 600 529.4117647058824" xmlns="http://www.w3.org/2000/svg"><path d="M238.163 192.332 L 238.163 346.969 214.082 334.923 C 200.837 328.298,189.893 322.995,189.762 323.140 C 189.057 323.918,172.994 356.610,173.217 356.814 C 173.729 357.281,275.000 407.789,275.426 407.789 C 275.663 407.789,275.857 324.518,275.857 222.742 L 275.857 37.695 257.010 37.695 L 238.163 37.695 238.163 192.332 M113.517 131.923 C 109.038 140.871,105.374 148.388,105.374 148.627 C 105.374 148.866,122.337 157.545,143.070 167.914 L 180.767 186.766 189.087 170.098 C 193.664 160.931,197.229 153.262,197.010 153.056 C 196.435 152.514,122.598 115.654,122.088 115.654 C 121.853 115.654,117.996 122.975,113.517 131.923 M354.245 134.215 C 333.984 144.372,317.228 152.850,317.010 153.056 C 316.791 153.262,320.356 160.931,324.933 170.098 L 333.253 186.766 370.950 167.914 C 391.683 157.545,408.646 148.866,408.646 148.627 C 408.646 147.499,392.281 115.660,391.722 115.701 C 391.371 115.727,374.506 124.058,354.245 134.215 M142.855 266.530 C 122.240 276.845,105.374 285.481,105.374 285.720 C 105.374 286.556,121.664 318.692,122.088 318.692 C 122.595 318.692,196.433 281.835,197.005 281.296 C 197.396 280.928,181.578 248.536,180.764 248.037 C 180.528 247.892,163.469 256.214,142.855 266.530 M324.931 264.251 C 320.356 273.417,316.791 281.085,317.010 281.291 C 317.585 281.833,391.422 318.692,391.932 318.692 C 392.807 318.692,408.676 286.023,408.186 285.231 C 407.719 284.475,334.728 247.586,333.700 247.586 C 333.453 247.586,329.507 255.085,324.931 264.251 " stroke="none" fill-rule="evenodd" fill="black"></path></svg>