<svg width="136mm" height="120mm" version="1.1" viewBox="0 0 600 529.4117647058824" xmlns="http://www.w3.org/2000/svg"><path d="M238.163 192.329 C 238.163 277.378,237.967 346.964,237.728 346.964 C 237.490 346.963,226.576 341.602,213.477 335.049 L 189.659 323.134 181.311 339.858 C 176.719 349.056,173.079 356.688,173.222 356.818 C 173.732 357.284,275.003 407.789,275.426 407.789 C 275.663 407.789,275.857 324.518,275.857 222.742 L 275.857 37.695 257.010 37.695 L 238.163 37.695 238.163 192.329 M113.326 132.319 C 108.751 141.485,105.186 149.153,105.405 149.359 C 106.651 150.532,180.097 186.743,180.593 186.428 C 181.530 185.834,197.446 153.466,197.005 153.051 C 196.427 152.507,122.592 115.654,122.081 115.654 C 121.842 115.654,117.902 123.154,113.326 132.319 M354.245 134.215 C 333.984 144.372,317.231 152.848,317.015 153.051 C 316.574 153.466,332.490 185.834,333.427 186.428 C 333.923 186.743,407.369 150.532,408.615 149.359 C 409.172 148.834,392.520 115.644,391.729 115.701 C 391.374 115.727,374.506 124.058,354.245 134.215 M142.855 266.530 C 122.240 276.845,105.374 285.481,105.374 285.720 C 105.374 286.556,121.664 318.692,122.088 318.692 C 122.595 318.692,196.433 281.835,197.005 281.296 C 197.396 280.928,181.578 248.536,180.764 248.037 C 180.528 247.892,163.469 256.214,142.855 266.530 M324.933 264.248 C 320.356 273.416,316.791 281.085,317.010 281.291 C 317.585 281.833,391.422 318.692,391.932 318.692 C 392.356 318.692,408.646 286.556,408.646 285.720 C 408.646 285.481,391.683 276.802,370.950 266.433 L 333.253 247.581 324.933 264.248 " stroke="none" fill-rule="evenodd" fill="black"></path></svg>