<svg width="136mm" height="120mm" version="1.1" viewBox="0 0 600 529.4117647058824" xmlns="http://www.w3.org/2000/svg"><path d="M68.252 94.806 C 67.937 95.121,67.679 103.604,67.679 113.656 L 67.679 131.932 107.516 131.932 L 147.352 131.932 147.352 226.597 L 147.352 321.262 107.499 321.262 L 67.646 321.262 67.877 339.896 L 68.108 358.529 257.010 358.529 L 445.912 358.529 446.143 339.896 L 446.374 321.262 410.376 321.262 L 374.378 321.262 374.378 226.597 L 374.378 131.932 410.376 131.932 L 446.374 131.932 446.143 113.299 L 445.912 94.665 257.369 94.449 C 153.670 94.330,68.568 94.491,68.252 94.806 M336.683 226.597 L 336.683 321.262 260.865 321.262 L 185.047 321.262 185.047 226.597 L 185.047 131.932 260.865 131.932 L 336.683 131.932 336.683 226.597 " stroke="none" fill-rule="evenodd" fill="black"></path></svg>