<svg width="136mm" height="120mm" version="1.1" viewBox="0 0 600 529.4117647058824" xmlns="http://www.w3.org/2000/svg"><path d="M68.536 113.084 L 68.536 131.932 107.944 131.932 L 147.352 131.932 147.352 226.597 L 147.352 321.262 107.944 321.262 L 68.536 321.262 68.536 340.110 L 68.536 358.957 257.010 358.957 L 445.484 358.957 445.484 340.110 L 445.484 321.262 409.931 321.262 L 374.378 321.262 374.378 226.597 L 374.378 131.932 409.931 131.932 L 445.484 131.932 445.484 113.084 L 445.484 94.237 257.010 94.237 L 68.536 94.237 68.536 113.084 M336.255 226.597 L 336.255 320.834 260.651 321.053 L 185.047 321.272 185.047 226.597 L 185.047 131.922 260.651 132.141 L 336.255 132.360 336.255 226.597 " stroke="none" fill-rule="evenodd" fill="black"></path></svg>