<svg width="136mm" height="120mm" version="1.1" viewBox="0 0 600 529.4117647058824" xmlns="http://www.w3.org/2000/svg"><path d="M109.658 72.734 L 109.658 107.773 105.160 108.844 C 82.258 114.294,60.252 130.771,47.437 152.064 C 43.636 158.381,38.889 169.928,36.694 178.201 C 34.774 185.435,34.762 185.887,34.484 258.938 L 34.205 332.400 53.051 332.400 L 71.898 332.400 72.162 260.651 C 72.457 180.548,72.029 186.287,78.660 173.482 C 83.112 164.887,94.241 153.924,102.804 149.700 L 109.229 146.531 109.446 281.015 L 109.663 415.500 128.505 415.500 L 147.347 415.500 147.564 280.933 L 147.781 146.366 154.206 149.631 C 163.380 154.292,174.917 165.890,179.321 174.877 C 185.099 186.670,185.016 185.391,185.032 262.793 L 185.047 332.400 203.895 332.400 L 222.742 332.400 222.742 261.214 C 222.742 193.363,222.662 189.634,221.026 181.607 C 213.963 146.948,187.544 118.425,154.252 109.515 L 147.352 107.668 147.352 72.681 L 147.352 37.695 128.505 37.695 L 109.658 37.695 109.658 72.734 M241.589 94.169 L 241.589 113.084 269.861 113.084 L 298.132 113.084 298.132 264.292 L 298.132 415.500 317.407 415.500 L 336.683 415.500 336.683 359.079 L 336.683 302.658 347.178 302.062 C 378.543 300.281,402.599 289.765,423.655 268.628 C 446.083 246.115,456.906 219.834,456.841 188.046 C 456.777 157.146,444.921 129.465,422.419 107.684 C 406.337 92.116,389.097 82.982,366.153 77.871 C 357.972 76.049,355.623 75.970,299.631 75.618 L 241.589 75.254 241.589 94.169 M351.175 113.975 C 382.603 117.200,407.777 138.200,416.563 168.520 C 418.216 174.226,418.495 177.185,418.481 188.902 C 418.463 205.125,417.494 209.558,411.181 222.314 C 403.533 237.766,392.798 248.511,377.376 256.148 C 367.386 261.095,357.879 263.547,345.464 264.378 L 336.683 264.965 336.683 189.025 L 336.683 113.084 339.591 113.084 C 341.190 113.084,346.403 113.485,351.175 113.975 " stroke="none" fill-rule="evenodd" fill="black"></path></svg>