<svg width="136mm" height="120mm" version="1.1" viewBox="0 0 600 529.4117647058824" xmlns="http://www.w3.org/2000/svg"><path d="M109.658 72.681 L 109.658 107.668 102.758 109.515 C 74.262 117.142,49.284 140.559,39.487 168.831 C 34.242 183.968,34.268 183.515,34.268 261.388 L 34.268 332.400 53.115 332.400 L 71.963 332.400 71.963 263.593 C 71.963 217.890,72.274 193.079,72.891 189.702 C 74.148 182.819,77.548 174.478,81.457 168.692 C 86.094 161.826,95.603 153.375,102.933 149.605 L 109.229 146.366 109.446 280.933 L 109.663 415.500 128.505 415.500 L 147.347 415.500 147.564 280.933 L 147.781 146.366 154.077 149.605 C 161.407 153.375,170.916 161.826,175.553 168.692 C 179.462 174.478,182.862 182.819,184.119 189.702 C 184.736 193.079,185.047 217.890,185.047 263.593 L 185.047 332.400 203.895 332.400 L 222.742 332.400 222.742 261.388 C 222.742 183.515,222.768 183.968,217.523 168.831 C 207.726 140.559,182.748 117.142,154.252 109.515 L 147.352 107.668 147.352 72.681 L 147.352 37.695 128.505 37.695 L 109.658 37.695 109.658 72.681 M241.589 94.237 L 241.589 113.084 269.861 113.084 L 298.132 113.084 298.132 264.292 L 298.132 415.500 317.407 415.500 L 336.683 415.500 336.683 359.079 L 336.683 302.658 347.178 302.062 C 377.574 300.336,401.851 290.030,422.419 270.120 C 439.667 253.425,450.805 232.923,455.468 209.285 C 457.670 198.125,457.463 177.916,455.031 166.446 C 445.899 123.389,414.192 90.159,371.808 79.225 C 359.138 75.957,347.746 75.405,292.777 75.397 L 241.589 75.390 241.589 94.237 M359.937 115.220 C 388.168 120.978,411.783 144.721,417.765 173.359 C 420.195 184.995,419.255 201.976,415.590 212.628 C 405.800 241.081,381.683 260.400,351.675 263.826 C 347.435 264.310,342.327 264.709,340.324 264.713 L 336.683 264.720 336.683 188.792 L 336.683 112.864 345.464 113.461 C 350.294 113.790,356.807 114.582,359.937 115.220 " stroke="none" fill-rule="evenodd" fill="black"></path></svg>