<svg width="136mm" height="120mm" version="1.1" viewBox="0 0 600 529.4117647058824" xmlns="http://www.w3.org/2000/svg"><path d="M109.658 72.611 L 109.658 107.528 102.666 109.487 C 72.928 117.820,47.562 142.468,38.609 171.729 C 34.351 185.643,34.268 187.382,34.268 262.262 L 34.268 332.400 53.115 332.400 L 71.963 332.400 71.963 263.390 C 71.963 186.029,71.822 188.049,78.120 174.860 C 82.816 165.026,92.469 155.234,102.590 150.038 L 109.658 146.409 109.658 280.954 L 109.658 415.500 128.502 415.500 L 147.347 415.500 147.564 281.015 L 147.781 146.531 154.206 149.708 C 159.004 152.082,162.488 154.735,167.964 160.186 C 176.357 168.540,180.659 175.873,183.358 186.426 C 184.971 192.734,185.047 196.166,185.047 262.716 L 185.047 332.400 203.922 332.400 L 222.796 332.400 222.546 258.509 L 222.295 184.619 220.007 176.304 C 211.087 143.881,185.806 118.114,154.427 109.463 L 147.365 107.516 147.359 72.605 L 147.352 37.695 128.505 37.695 L 109.658 37.695 109.658 72.611 M241.589 94.183 L 241.589 113.084 269.858 113.084 L 298.127 113.084 298.343 264.078 L 298.560 415.071 317.622 415.302 L 336.683 415.532 336.683 359.102 L 336.683 302.672 347.178 302.083 C 376.970 300.412,401.271 290.253,421.480 271.022 C 439.600 253.778,451.067 232.548,455.443 208.139 C 457.533 196.480,457.338 178.575,454.998 167.323 C 450.067 143.611,440.555 125.900,423.750 109.146 C 407.012 92.460,389.815 82.990,366.877 77.828 C 358.821 76.015,356.486 75.938,300.059 75.616 L 241.589 75.283 241.589 94.183 M361.727 115.590 C 386.028 121.829,404.950 138.356,414.141 161.372 C 421.895 180.789,420.638 204.438,410.844 223.400 C 398.238 247.807,375.098 262.381,345.836 264.341 L 336.683 264.954 336.683 188.888 L 336.683 112.823 345.893 113.356 C 350.958 113.649,358.083 114.654,361.727 115.590 " stroke="none" fill-rule="evenodd" fill="black"></path></svg>