<svg width="136mm" height="120mm" version="1.1" viewBox="0 0 600 529.4117647058824" xmlns="http://www.w3.org/2000/svg"><path d="M222.427 35.569 C 213.585 37.370,208.578 39.181,199.611 43.824 C 178.158 54.931,163.366 73.974,157.125 98.520 C 154.719 107.984,154.883 127.205,157.451 136.741 C 161.770 152.778,169.407 165.964,180.491 176.527 C 191.803 187.305,202.922 193.529,218.357 197.722 C 226.517 199.939,226.892 199.961,257.010 199.961 C 287.128 199.961,287.503 199.939,295.663 197.722 C 326.553 189.330,348.258 167.598,356.569 136.741 C 359.137 127.205,359.301 107.984,356.895 98.520 C 350.493 73.342,335.606 54.542,313.124 43.244 C 296.995 35.139,295.037 34.824,259.152 34.581 C 235.435 34.420,226.952 34.649,222.427 35.569 M238.163 85.242 L 238.163 98.520 217.602 98.520 C 206.293 98.520,197.041 98.300,197.041 98.031 C 197.041 96.397,202.250 89.165,206.455 84.960 C 214.098 77.318,225.279 72.162,234.522 72.019 L 238.163 71.963 238.163 85.242 M285.378 72.818 C 292.685 74.173,301.664 79.059,307.413 84.808 C 311.741 89.136,316.979 96.376,316.979 98.031 C 316.979 98.300,307.727 98.520,296.418 98.520 L 275.857 98.520 275.857 85.242 L 275.857 71.963 278.311 71.963 C 279.660 71.963,282.840 72.348,285.378 72.818 M238.163 149.547 L 238.163 162.878 234.093 162.339 C 218.853 160.321,205.717 151.847,198.827 139.589 L 196.931 136.215 217.547 136.215 L 238.163 136.215 238.163 149.547 M315.193 139.589 C 308.303 151.847,295.167 160.321,279.927 162.339 L 275.857 162.878 275.857 149.547 L 275.857 136.215 296.473 136.215 L 317.089 136.215 315.193 139.589 M106.231 227.025 L 106.231 245.873 257.010 245.873 L 407.789 245.873 407.789 227.025 L 407.789 208.178 257.010 208.178 L 106.231 208.178 106.231 227.025 M151.350 261.008 C 151.036 261.322,150.779 269.803,150.779 279.855 L 150.779 298.132 220.812 298.132 L 290.845 298.132 270.077 318.900 L 249.309 339.668 237.086 327.467 L 224.863 315.266 211.601 328.548 L 198.340 341.830 236.024 379.522 L 273.709 417.213 286.987 403.934 L 300.266 390.656 288.061 378.451 L 275.856 366.246 328.755 313.341 L 381.655 260.437 266.788 260.437 C 203.611 260.437,151.664 260.694,151.350 261.008 " stroke="none" fill-rule="evenodd" fill="black"></path></svg>