<svg width="136mm" height="120mm" version="1.1" viewBox="0 0 600 529.4117647058824" xmlns="http://www.w3.org/2000/svg"><path d="M221.029 35.935 C 211.667 37.996,207.714 39.460,199.010 44.091 C 162.226 63.658,145.966 106.454,160.283 146.019 C 163.835 155.835,170.397 166.115,178.502 174.557 C 189.513 186.026,201.929 193.276,218.037 197.641 C 226.589 199.958,226.626 199.961,257.010 199.961 C 287.394 199.961,287.431 199.958,295.983 197.641 C 312.014 193.296,324.600 185.929,335.645 174.424 C 351.721 157.680,359.717 136.730,358.733 113.941 C 358.194 101.483,355.824 92.073,350.425 80.958 C 341.642 62.873,329.456 50.881,310.802 41.964 C 296.656 35.202,293.993 34.820,259.152 34.561 C 231.639 34.356,227.525 34.504,221.029 35.935 M238.163 85.242 L 238.163 98.520 217.602 98.520 C 206.293 98.520,197.041 98.210,197.041 97.832 C 197.041 96.152,202.726 88.425,206.944 84.372 C 214.469 77.143,225.598 72.157,234.522 72.019 L 238.163 71.963 238.163 85.242 M287.387 73.275 C 294.463 75.118,301.674 79.182,307.076 84.372 C 311.294 88.425,316.979 96.152,316.979 97.832 C 316.979 98.210,307.727 98.520,296.418 98.520 L 275.857 98.520 275.857 85.242 L 275.857 71.963 279.104 71.963 C 280.890 71.963,284.617 72.553,287.387 73.275 M238.163 149.547 L 238.163 162.878 234.093 162.339 C 218.900 160.328,205.624 151.811,198.914 139.772 L 196.931 136.215 217.547 136.215 L 238.163 136.215 238.163 149.547 M315.106 139.772 C 308.396 151.811,295.120 160.328,279.927 162.339 L 275.857 162.878 275.857 149.547 L 275.857 136.215 296.473 136.215 L 317.089 136.215 315.106 139.772 M105.572 226.811 L 105.802 245.445 257.010 245.445 L 408.218 245.445 408.448 226.811 L 408.679 208.178 257.010 208.178 L 105.341 208.178 105.572 226.811 M151.350 261.008 C 151.036 261.322,150.779 269.803,150.779 279.855 L 150.779 298.132 220.812 298.132 L 290.845 298.132 270.077 318.900 L 249.309 339.668 237.086 327.467 L 224.863 315.266 211.601 328.548 L 198.340 341.830 236.024 379.522 L 273.709 417.213 286.984 403.938 L 300.258 390.663 288.486 378.869 C 282.012 372.381,276.714 366.716,276.714 366.279 C 276.714 365.843,300.231 342.201,328.973 313.743 C 357.715 285.285,381.231 261.649,381.231 261.219 C 381.231 260.320,152.248 260.110,151.350 261.008 " stroke="none" fill-rule="evenodd" fill="black"></path></svg>