<svg width="136mm" height="120mm" version="1.1" viewBox="0 0 600 529.4117647058824" xmlns="http://www.w3.org/2000/svg"><path d="M221.982 35.563 C 213.773 37.386,208.471 39.251,200.980 42.950 C 179.459 53.577,163.389 73.662,157.462 97.341 C 154.989 107.223,154.776 126.598,157.041 135.669 C 164.957 167.367,189.057 191.039,220.938 198.431 C 228.440 200.171,271.043 201.060,283.156 199.730 C 303.293 197.518,318.491 190.665,332.511 177.473 C 344.424 166.263,352.185 153.276,356.580 137.197 C 359.227 127.511,359.220 107.909,356.565 97.341 C 349.283 68.355,327.862 46.121,298.560 37.135 L 290.850 34.771 259.152 34.559 C 234.307 34.394,226.271 34.611,221.982 35.563 M238.163 85.242 L 238.163 98.520 217.602 98.520 C 206.293 98.520,197.041 98.300,197.041 98.031 C 197.041 96.363,202.460 88.824,206.564 84.784 C 214.192 77.273,225.389 72.161,234.522 72.019 L 238.163 71.963 238.163 85.242 M287.269 73.244 C 297.604 75.936,306.519 82.181,312.806 91.134 C 315.101 94.402,316.979 97.401,316.979 97.798 C 316.979 98.195,307.727 98.520,296.418 98.520 L 275.857 98.520 275.857 85.242 L 275.857 71.963 279.104 71.963 C 280.890 71.963,284.564 72.539,287.269 73.244 M238.163 149.368 L 238.163 162.521 233.665 162.129 C 220.024 160.940,205.507 151.601,198.914 139.772 L 196.931 136.215 217.547 136.215 L 238.163 136.215 238.163 149.368 M315.193 139.589 C 308.422 151.635,294.047 160.936,280.355 162.129 L 275.857 162.521 275.857 149.368 L 275.857 136.215 296.473 136.215 L 317.089 136.215 315.193 139.589 M106.231 226.597 L 106.231 245.873 257.010 245.873 L 407.789 245.873 407.789 226.597 L 407.789 207.321 257.010 207.321 L 106.231 207.321 106.231 226.597 M151.636 279.284 L 151.636 298.132 221.241 298.132 L 290.845 298.132 270.077 318.900 L 249.309 339.668 237.086 327.467 L 224.863 315.266 211.601 328.548 L 198.340 341.830 236.024 379.522 L 273.709 417.213 286.984 403.938 L 300.258 390.663 288.486 378.869 C 282.012 372.381,276.714 366.694,276.714 366.231 C 276.714 365.767,300.326 341.774,329.184 312.912 L 381.655 260.437 266.645 260.437 L 151.636 260.437 151.636 279.284 " stroke="none" fill-rule="evenodd" fill="black"></path></svg>