<svg width="136mm" height="120mm" version="1.1" viewBox="0 0 600 529.4117647058824" xmlns="http://www.w3.org/2000/svg"><path d="M251.013 49.439 C 211.745 51.280,174.653 75.162,156.514 110.282 C 151.434 120.119,146.993 133.394,145.157 144.234 C 143.391 154.658,143.858 176.054,146.066 185.904 C 157.043 234.873,196.801 270.070,246.791 275.077 C 268.987 277.299,294.009 271.898,313.124 260.757 C 341.186 244.402,360.862 217.540,367.954 185.904 C 370.162 176.054,370.629 154.658,368.863 144.234 C 361.364 99.962,329.012 64.574,285.281 52.807 C 276.269 50.382,261.615 48.941,251.013 49.439 M272.739 88.671 C 292.038 92.657,309.965 105.095,320.702 121.949 C 324.157 127.372,329.247 139.302,330.809 145.639 C 331.525 148.543,331.962 155.118,331.946 162.773 C 331.925 173.074,331.588 176.359,329.972 182.013 C 323.929 203.155,309.404 220.647,290.089 230.043 C 278.069 235.890,270.792 237.539,257.010 237.539 C 243.228 237.539,235.951 235.890,223.931 230.043 C 204.616 220.647,190.091 203.155,184.048 182.013 C 182.432 176.359,182.095 173.074,182.074 162.773 C 182.058 155.023,182.491 148.579,183.224 145.639 C 184.888 138.970,189.762 127.373,193.078 122.196 C 203.826 105.413,221.781 92.798,240.716 88.725 C 248.283 87.097,264.982 87.069,272.739 88.671 M173.696 283.189 C 164.861 287.643,157.633 291.672,157.633 292.144 C 157.633 292.615,164.572 306.875,173.053 323.833 C 181.535 340.790,188.474 354.859,188.474 355.098 C 188.474 355.336,174.981 355.531,158.489 355.531 L 128.505 355.531 128.505 374.381 L 128.505 393.231 258.938 393.014 L 389.370 392.797 389.601 374.164 L 389.832 355.531 357.689 355.531 C 340.010 355.531,325.546 355.336,325.546 355.098 C 325.546 354.859,332.485 340.790,340.967 323.833 C 349.448 306.875,356.387 292.615,356.387 292.144 C 356.387 291.433,324.781 275.001,323.415 275.001 C 323.175 275.001,313.918 293.120,302.843 315.266 L 282.707 355.531 257.010 355.531 L 231.313 355.531 211.177 315.266 C 200.102 293.120,190.752 275.021,190.400 275.046 C 190.047 275.071,182.531 278.736,173.696 283.189 " stroke="none" fill-rule="evenodd" fill="black"></path></svg>