<svg width="136mm" height="120mm" version="1.1" viewBox="0 0 600 529.4117647058824" xmlns="http://www.w3.org/2000/svg"><path d="M244.858 49.701 C 200.607 54.766,163.486 84.847,149.571 126.915 C 134.654 172.014,149.895 222.570,187.077 251.327 C 208.350 267.780,230.432 275.358,257.010 275.328 C 271.646 275.311,281.356 273.739,293.991 269.341 C 310.892 263.458,324.214 255.038,337.135 242.072 C 354.150 224.998,364.932 203.898,368.864 179.980 C 370.730 168.628,370.152 148.835,367.635 137.929 C 357.349 93.351,322.381 59.525,277.852 51.078 C 268.992 49.397,253.249 48.740,244.858 49.701 M274.831 89.156 C 300.983 95.199,322.294 115.869,329.971 142.641 C 331.629 148.420,331.937 151.507,331.937 162.345 C 331.937 173.167,331.628 176.271,329.980 182.013 C 322.430 208.321,301.627 228.795,275.429 235.703 C 265.679 238.274,248.248 238.261,238.591 235.675 C 224.196 231.821,208.570 222.147,199.666 211.576 C 186.860 196.373,180.842 178.249,181.896 158.061 C 182.747 141.770,188.052 127.895,198.352 115.022 C 216.489 92.354,245.788 82.445,274.831 89.156 M173.696 283.189 C 164.861 287.643,157.633 291.672,157.633 292.144 C 157.633 292.615,164.573 306.877,173.056 323.837 L 188.479 354.674 158.492 354.674 L 128.505 354.674 128.505 373.521 L 128.505 392.369 258.723 392.369 L 388.942 392.369 388.942 373.521 L 388.942 354.674 357.242 354.674 L 325.541 354.674 340.964 323.837 C 349.447 306.877,356.387 292.615,356.387 292.144 C 356.387 291.133,324.029 274.771,323.149 275.337 C 322.818 275.549,313.684 293.487,302.851 315.198 L 283.154 354.674 257.013 354.674 L 230.872 354.674 210.959 314.837 C 200.007 292.927,190.757 275.021,190.403 275.046 C 190.049 275.071,182.531 278.736,173.696 283.189 " stroke="none" fill-rule="evenodd" fill="black"></path></svg>