<svg width="136mm" height="120mm" version="1.1" viewBox="0 0 600 529.4117647058824" xmlns="http://www.w3.org/2000/svg"><path d="M251.013 49.431 C 206.769 51.577,166.905 80.651,151.161 122.255 C 144.589 139.621,142.245 161.705,145.076 179.582 C 154.425 238.607,208.588 280.949,267.229 275.077 C 307.362 271.058,341.223 247.703,358.569 212.078 C 367.232 194.285,370.611 178.011,369.850 157.747 C 368.280 115.991,344.756 79.737,307.127 61.083 C 289.829 52.508,270.466 48.487,251.013 49.431 M272.739 88.671 C 295.150 93.300,313.958 108.008,324.223 128.933 C 329.768 140.237,331.451 146.549,332.106 158.489 C 333.293 180.121,325.372 200.674,309.974 215.921 C 300.310 225.490,288.732 232.088,275.171 235.755 C 265.712 238.313,248.197 238.282,238.591 235.689 C 203.429 226.202,180.042 194.528,181.904 158.918 C 182.549 146.577,184.190 140.357,189.813 128.933 C 200.042 108.154,218.623 93.477,240.716 88.725 C 248.283 87.097,264.982 87.069,272.739 88.671 M173.696 283.189 C 164.861 287.643,157.633 291.672,157.633 292.144 C 157.633 292.615,164.572 306.875,173.053 323.833 C 181.535 340.790,188.474 354.859,188.474 355.098 C 188.474 355.336,174.981 355.531,158.489 355.531 L 128.505 355.531 128.505 374.378 L 128.505 393.225 258.723 393.225 L 388.942 393.225 388.942 374.378 L 388.942 355.531 357.244 355.531 C 339.810 355.531,325.546 355.336,325.546 355.098 C 325.546 354.859,332.485 340.790,340.967 323.833 C 349.448 306.875,356.387 292.615,356.387 292.144 C 356.387 291.433,324.781 275.001,323.415 275.001 C 323.175 275.001,313.918 293.120,302.843 315.266 L 282.707 355.531 257.010 355.531 L 231.313 355.531 211.177 315.266 C 200.102 293.120,190.752 275.021,190.400 275.046 C 190.047 275.071,182.531 278.736,173.696 283.189 " stroke="none" fill-rule="evenodd" fill="black"></path></svg>