<svg width="136mm" height="120mm" version="1.1" viewBox="0 0 600 529.4117647058824" xmlns="http://www.w3.org/2000/svg"><path d="M75.587 79.459 L 75.818 98.092 257.010 98.092 L 438.202 98.092 438.433 79.459 L 438.664 60.826 257.010 60.826 L 75.356 60.826 75.587 79.459 M236.825 118.686 C 187.347 125.910,145.070 159.439,127.236 205.597 C 116.339 233.800,114.430 262.995,121.638 291.224 C 134.281 340.743,173.844 380.107,223.170 392.244 C 235.770 395.345,242.775 396.154,257.010 396.154 C 264.785 396.154,274.037 395.654,277.571 395.042 C 309.105 389.587,334.239 376.857,355.548 355.548 C 390.995 320.101,404.707 269.462,391.927 221.203 C 377.480 166.650,332.387 126.593,276.475 118.644 C 265.827 117.130,247.344 117.150,236.825 118.686 M238.163 197.469 L 238.163 238.163 197.469 238.163 C 175.088 238.163,156.776 237.857,156.776 237.483 C 156.776 235.119,161.747 220.291,164.558 214.270 C 174.580 192.805,190.907 176.085,211.943 165.746 C 220.078 161.748,233.532 156.973,237.092 156.822 C 237.934 156.786,238.163 165.462,238.163 197.469 M288.280 159.963 C 303.371 164.660,321.318 176.089,331.890 187.737 C 342.348 199.258,350.926 214.676,355.036 229.335 C 356.250 233.668,357.244 237.427,357.244 237.688 C 357.244 237.949,338.932 238.163,316.551 238.163 L 275.857 238.163 275.857 197.401 L 275.857 156.640 278.642 157.235 C 280.173 157.563,284.510 158.790,288.280 159.963 M238.163 316.608 C 238.163 355.012,238.076 357.335,236.663 356.929 C 220.683 352.338,213.432 349.493,205.180 344.574 C 190.522 335.838,177.715 322.899,168.962 307.984 C 165.028 301.280,160.170 289.640,158.594 283.139 C 158.023 280.783,157.354 278.181,157.108 277.357 C 156.686 275.944,159.002 275.857,197.412 275.857 L 238.163 275.857 238.163 316.608 M356.912 277.357 C 356.666 278.181,355.997 280.783,355.426 283.139 C 353.850 289.640,348.992 301.280,345.058 307.984 C 336.305 322.899,323.498 335.838,308.840 344.574 C 300.588 349.493,293.337 352.338,277.357 356.929 C 275.944 357.335,275.857 355.012,275.857 316.608 L 275.857 275.857 316.608 275.857 C 355.018 275.857,357.334 275.944,356.912 277.357 " stroke="none" fill-rule="evenodd" fill="black"></path></svg>