<svg width="136mm" height="120mm" version="1.1" viewBox="0 0 600 529.4117647058824" xmlns="http://www.w3.org/2000/svg"><path d="M75.587 79.459 L 75.818 98.092 257.010 98.092 L 438.202 98.092 438.433 79.459 L 438.664 60.826 257.010 60.826 L 75.356 60.826 75.587 79.459 M240.304 117.905 C 205.899 123.047,178.923 136.763,155.790 160.875 C 137.558 179.880,125.169 203.859,119.769 230.600 C 116.978 244.416,117.011 270.280,119.836 283.568 C 129.308 328.123,157.272 364.026,197.191 382.884 C 213.565 390.619,226.934 394.191,246.078 395.945 C 258.561 397.089,274.506 396.050,287.071 393.273 C 315.642 386.959,343.329 370.508,362.202 348.632 C 409.712 293.561,407.809 212.524,357.781 160.391 C 338.081 139.862,313.511 126.151,285.132 119.850 C 278.881 118.463,273.414 118.016,260.008 117.799 C 250.585 117.646,241.718 117.694,240.304 117.905 M238.163 197.469 L 238.163 238.163 197.401 238.163 L 156.640 238.163 157.235 235.378 C 160.849 218.473,171.271 198.853,183.205 186.489 C 192.322 177.044,205.248 168.081,216.981 163.068 C 222.871 160.552,234.321 156.925,236.663 156.834 C 238.071 156.780,238.163 159.263,238.163 197.469 M288.501 159.874 C 313.741 168.113,334.627 185.763,347.016 209.323 C 350.854 216.622,355.459 228.880,356.804 235.378 L 357.380 238.163 316.619 238.163 L 275.857 238.163 275.857 197.374 L 275.857 156.585 278.878 157.152 C 280.540 157.464,284.870 158.689,288.501 159.874 M238.163 316.460 L 238.163 357.062 234.522 356.268 C 205.755 350.001,178.592 328.586,165.763 302.060 C 162.103 294.491,158.441 284.293,157.354 278.642 L 156.819 275.857 197.491 275.857 L 238.163 275.857 238.163 316.460 M356.918 277.357 C 356.676 278.181,355.887 281.192,355.166 284.046 C 346.458 318.520,315.016 348.530,279.498 356.268 L 275.857 357.062 275.857 316.460 L 275.857 275.857 316.608 275.857 C 355.016 275.857,357.334 275.944,356.918 277.357 " stroke="none" fill-rule="evenodd" fill="black"></path></svg>