<svg width="136mm" height="120mm" version="1.1" viewBox="0 0 600 529.4117647058824" xmlns="http://www.w3.org/2000/svg"><path d="M75.587 79.459 L 75.818 98.092 257.010 98.092 L 438.202 98.092 438.433 79.459 L 438.664 60.826 257.010 60.826 L 75.356 60.826 75.587 79.459 M236.825 118.686 C 191.718 125.272,152.576 153.576,131.882 194.570 C 117.196 223.662,113.402 259.216,121.585 291.062 C 134.447 341.121,173.505 380.023,223.170 392.244 C 235.770 395.345,242.775 396.154,257.010 396.154 C 264.785 396.154,274.037 395.654,277.571 395.042 C 309.343 389.545,334.257 376.861,355.973 355.124 C 375.836 335.242,387.883 312.730,394.133 283.814 C 396.727 271.810,397.347 249.444,395.421 237.306 C 390.281 204.913,377.013 178.890,354.555 157.152 C 339.387 142.471,325.447 133.518,306.493 126.285 C 285.484 118.268,259.270 115.408,236.825 118.686 M238.163 197.469 L 238.163 238.163 197.401 238.163 L 156.640 238.163 157.235 235.378 C 162.202 212.145,177.318 188.900,196.748 174.616 C 202.290 170.542,215.027 163.645,221.229 161.360 C 225.340 159.846,235.456 156.972,237.092 156.853 C 237.934 156.793,238.163 165.445,238.163 197.469 M282.159 158.111 C 298.353 162.218,315.595 171.746,327.565 183.205 C 341.075 196.138,352.916 217.281,356.785 235.378 L 357.380 238.163 316.619 238.163 L 275.857 238.163 275.857 197.469 C 275.857 175.088,276.091 156.776,276.376 156.776 C 276.662 156.776,279.264 157.377,282.159 158.111 M238.163 316.551 C 238.163 338.932,238.020 357.244,237.846 357.244 C 236.411 357.244,219.525 351.733,215.460 349.937 C 188.416 337.994,165.857 311.756,158.874 284.125 C 158.142 281.227,157.344 278.181,157.102 277.357 C 156.686 275.944,159.004 275.857,197.412 275.857 L 238.163 275.857 238.163 316.551 M356.918 277.357 C 356.676 278.181,355.878 281.227,355.146 284.125 C 348.020 312.324,324.610 339.118,297.236 350.406 C 291.994 352.568,288.177 353.820,277.357 356.929 C 275.944 357.335,275.857 355.012,275.857 316.608 L 275.857 275.857 316.608 275.857 C 355.016 275.857,357.334 275.944,356.918 277.357 " stroke="none" fill-rule="evenodd" fill="black"></path></svg>