<svg width="136mm" height="120mm" version="1.1" viewBox="0 0 600 529.4117647058824" xmlns="http://www.w3.org/2000/svg"><path d="M238.163 66.342 L 238.163 94.989 234.093 95.505 C 222.699 96.951,211.910 98.931,203.038 101.203 C 171.960 109.164,147.617 125.266,137.993 144.228 C 133.010 154.044,132.810 155.844,132.799 190.830 L 132.788 222.742 151.636 222.742 L 170.483 222.742 170.483 193.143 C 170.483 159.555,170.158 161.308,177.663 154.448 C 188.129 144.884,209.575 136.846,232.816 133.778 L 238.179 133.070 237.956 174.995 L 237.734 216.919 230.024 218.890 C 211.600 223.600,195.180 233.222,181.543 247.299 C 169.800 259.421,162.002 272.117,156.845 287.508 C 152.492 300.501,151.636 307.899,151.636 332.512 L 151.636 354.674 130.647 354.674 L 109.658 354.674 109.658 373.521 L 109.658 392.369 258.723 392.369 L 407.789 392.369 407.789 373.521 L 407.789 354.674 385.087 354.674 L 362.384 354.674 362.384 332.512 C 362.384 307.968,361.525 300.492,357.230 287.674 C 352.166 272.557,344.658 260.153,333.402 248.305 C 319.218 233.375,303.172 223.825,283.996 218.900 L 276.286 216.919 276.064 174.995 L 275.841 133.070 281.204 133.778 C 304.445 136.846,325.891 144.884,336.357 154.448 C 343.862 161.308,343.537 159.555,343.537 193.143 L 343.537 222.742 362.384 222.742 L 381.231 222.742 381.221 190.830 C 381.210 155.844,381.010 154.044,376.027 144.228 C 368.413 129.227,351.376 115.733,328.973 106.961 C 315.552 101.706,299.806 98.028,279.927 95.505 L 275.857 94.989 275.857 66.342 L 275.857 37.695 257.010 37.695 L 238.163 37.695 238.163 66.342 M273.985 255.341 C 297.868 261.359,317.223 280.986,322.942 304.985 C 324.441 311.274,324.678 315.159,324.683 333.470 L 324.689 354.674 257.010 354.674 L 189.331 354.674 189.337 333.470 C 189.344 308.930,190.358 302.678,196.273 290.694 C 210.366 262.146,242.671 247.450,273.985 255.341 " stroke="none" fill-rule="evenodd" fill="black"></path></svg>