<svg width="136mm" height="120mm" version="1.1" viewBox="0 0 600 529.4117647058824" xmlns="http://www.w3.org/2000/svg"><path d="M238.163 66.394 C 238.163 82.179,237.990 95.094,237.778 95.094 C 237.567 95.094,232.844 95.684,227.284 96.406 C 207.256 99.007,190.394 103.942,174.462 111.865 C 153.301 122.389,139.749 136.108,134.327 152.493 C 132.603 157.703,132.462 160.140,132.130 190.402 L 131.775 222.742 151.129 222.742 L 170.483 222.742 170.483 193.143 C 170.483 159.555,170.158 161.308,177.663 154.448 C 188.243 144.779,210.358 136.429,232.388 133.787 L 238.179 133.093 237.956 175.016 L 237.734 216.940 231.333 218.566 C 196.276 227.468,168.258 253.443,156.790 287.674 C 152.606 300.162,151.554 308.435,151.018 333.042 L 150.529 355.531 130.093 355.531 L 109.658 355.531 109.658 374.378 L 109.658 393.225 258.723 393.225 L 407.789 393.225 407.789 374.378 L 407.789 355.531 385.640 355.531 L 363.491 355.531 363.002 333.042 C 362.466 308.435,361.414 300.162,357.230 287.674 C 348.503 261.626,330.084 240.021,305.997 227.580 C 296.824 222.843,293.414 221.523,283.568 218.900 L 276.286 216.961 276.064 175.027 L 275.841 133.093 281.632 133.787 C 303.662 136.429,325.777 144.779,336.357 154.448 C 343.862 161.308,343.537 159.555,343.537 193.143 L 343.537 222.742 362.812 222.742 L 382.088 222.742 382.088 194.961 C 382.088 158.025,381.073 151.414,373.642 139.946 C 359.463 118.065,326.550 101.576,286.736 96.406 C 281.176 95.684,276.453 95.094,276.242 95.094 C 276.030 95.094,275.857 82.179,275.857 66.394 L 275.857 37.695 257.010 37.695 L 238.163 37.695 238.163 66.394 M272.829 254.937 C 294.597 259.318,314.799 278.220,322.197 301.130 C 323.976 306.638,324.163 309.100,324.491 331.329 L 324.847 355.531 257.010 355.531 L 189.173 355.531 189.522 331.329 C 189.860 307.886,189.942 306.912,192.149 300.273 C 197.953 282.818,210.755 268.144,227.499 259.754 C 240.185 253.398,256.541 251.660,272.829 254.937 " stroke="none" fill-rule="evenodd" fill="black"></path></svg>