<svg width="136mm" height="120mm" version="1.1" viewBox="0 0 600 529.4117647058824" xmlns="http://www.w3.org/2000/svg"><path d="M238.163 66.342 L 238.163 94.989 234.093 95.515 C 212.946 98.249,198.831 101.516,185.595 106.741 C 158.411 117.472,140.748 133.229,134.309 152.493 C 132.557 157.734,132.428 159.960,132.126 190.402 L 131.805 222.742 151.144 222.742 L 170.483 222.742 170.483 193.143 C 170.483 159.555,170.158 161.308,177.663 154.448 C 188.243 144.779,210.358 136.429,232.388 133.787 L 238.179 133.093 237.956 175.016 L 237.734 216.940 231.333 218.566 C 211.802 223.525,194.425 233.730,180.320 248.521 C 165.939 263.603,156.149 283.228,152.439 304.413 C 151.930 307.319,151.294 320.010,151.027 332.614 L 150.541 355.531 130.099 355.531 L 109.658 355.531 109.658 374.380 L 109.658 393.230 258.938 393.014 L 408.218 392.797 408.448 374.164 L 408.679 355.530 386.079 355.531 L 363.479 355.531 362.993 332.614 C 362.478 308.346,361.959 303.637,358.469 291.563 C 348.137 255.825,319.040 227.797,282.687 218.566 L 276.286 216.940 276.064 175.016 L 275.841 133.093 281.632 133.787 C 303.662 136.429,325.777 144.779,336.357 154.448 C 343.862 161.308,343.537 159.555,343.537 193.143 L 343.537 222.742 362.876 222.742 L 382.215 222.742 381.894 190.402 C 381.592 159.960,381.463 157.734,379.711 152.493 C 371.599 128.223,344.810 109.056,306.270 99.946 C 299.124 98.257,279.548 95.094,276.242 95.094 C 276.030 95.094,275.857 82.179,275.857 66.394 L 275.857 37.695 257.010 37.695 L 238.163 37.695 238.163 66.342 M272.829 254.937 C 292.642 258.924,312.052 275.609,320.123 295.592 C 324.008 305.210,324.658 310.683,324.674 333.899 L 324.689 355.531 257.010 355.531 L 189.331 355.531 189.346 333.899 C 189.362 310.683,190.012 305.210,193.897 295.592 C 200.092 280.254,212.060 267.490,227.499 259.754 C 240.185 253.398,256.541 251.660,272.829 254.937 " stroke="none" fill-rule="evenodd" fill="black"></path></svg>