<svg width="136mm" height="120mm" version="1.1" viewBox="0 0 600 529.4117647058824" xmlns="http://www.w3.org/2000/svg"><path d="M335.826 84.813 L 335.826 131.932 305.842 131.932 L 275.857 131.932 275.857 113.084 L 275.857 94.237 257.010 94.237 L 238.163 94.237 238.163 113.084 L 238.163 131.932 211.605 131.932 L 185.047 131.932 185.047 103.661 L 185.047 75.390 166.200 75.390 L 147.352 75.390 147.352 103.650 L 147.352 131.910 117.154 132.135 L 86.955 132.360 86.955 151.208 L 86.955 170.055 117.154 170.280 L 147.352 170.505 147.352 227.036 L 147.352 283.568 116.923 283.568 L 86.493 283.568 86.724 302.201 L 86.955 320.834 117.154 321.059 L 147.352 321.284 147.352 349.545 L 147.352 377.805 166.200 377.805 L 185.047 377.805 185.047 349.534 L 185.047 321.262 211.605 321.262 L 238.163 321.262 238.163 340.110 L 238.163 358.957 257.010 358.957 L 275.857 358.957 275.857 340.110 L 275.857 321.262 305.842 321.262 L 335.826 321.262 335.826 368.381 L 335.826 415.500 355.102 415.500 L 374.378 415.500 374.378 368.393 L 374.378 321.287 400.721 321.061 L 427.065 320.834 427.296 302.201 L 427.527 283.568 400.952 283.568 L 374.378 283.568 374.378 227.038 L 374.378 170.508 400.721 170.282 L 427.065 170.055 427.065 151.208 L 427.065 132.360 400.721 132.134 L 374.378 131.907 374.378 84.801 L 374.378 37.695 355.102 37.695 L 335.826 37.695 335.826 84.813 M238.163 227.025 L 238.163 283.568 211.605 283.568 L 185.047 283.568 185.047 227.025 L 185.047 170.483 211.605 170.483 L 238.163 170.483 238.163 227.025 M335.826 227.025 L 335.826 283.568 305.842 283.568 L 275.857 283.568 275.857 227.025 L 275.857 170.483 305.842 170.483 L 335.826 170.483 335.826 227.025 " stroke="none" fill-rule="evenodd" fill="black"></path></svg>