<svg width="136mm" height="120mm" version="1.1" viewBox="0 0 600 529.4117647058824" xmlns="http://www.w3.org/2000/svg"><path d="M336.683 84.813 L 336.683 131.932 306.270 131.932 L 275.857 131.932 275.857 113.084 L 275.857 94.237 257.010 94.237 L 238.163 94.237 238.163 113.084 L 238.163 131.932 211.605 131.932 L 185.047 131.932 185.047 103.661 L 185.047 75.390 166.200 75.390 L 147.352 75.390 147.352 103.661 L 147.352 131.932 117.368 131.932 L 87.383 131.932 87.383 150.779 L 87.383 169.627 117.368 169.627 L 147.352 169.627 147.352 226.597 L 147.352 283.568 117.368 283.568 L 87.383 283.568 87.383 302.415 L 87.383 321.262 117.368 321.262 L 147.352 321.262 147.352 349.534 L 147.352 377.805 166.200 377.805 L 185.047 377.805 185.047 349.534 L 185.047 321.262 211.605 321.262 L 238.163 321.262 238.163 340.110 L 238.163 358.957 257.010 358.957 L 275.857 358.957 275.857 340.110 L 275.857 321.262 306.270 321.262 L 336.683 321.262 336.683 368.381 L 336.683 415.500 355.531 415.500 L 374.378 415.500 374.378 368.381 L 374.378 321.262 400.507 321.262 L 426.637 321.262 426.637 302.415 L 426.637 283.568 400.507 283.568 L 374.378 283.568 374.378 226.597 L 374.378 169.627 400.507 169.627 L 426.637 169.627 426.637 150.779 L 426.637 131.932 400.507 131.932 L 374.378 131.932 374.378 84.813 L 374.378 37.695 355.531 37.695 L 336.683 37.695 336.683 84.813 M238.163 226.610 L 238.163 283.592 211.819 283.366 L 185.476 283.139 185.254 227.454 C 185.132 196.827,185.216 171.286,185.441 170.697 C 185.756 169.873,191.871 169.627,212.006 169.627 L 238.163 169.627 238.163 226.610 M336.255 226.597 L 336.255 283.139 306.056 283.364 L 275.857 283.590 275.857 226.597 L 275.857 169.605 306.056 169.830 L 336.255 170.055 336.255 226.597 " stroke="none" fill-rule="evenodd" fill="black"></path></svg>