<svg width="136mm" height="120mm" version="1.1" viewBox="0 0 600 529.4117647058824" xmlns="http://www.w3.org/2000/svg"><path d="M37.695 120.795 L 37.695 139.642 50.974 139.642 L 64.252 139.642 64.252 234.307 L 64.252 328.973 50.974 328.973 L 37.695 328.973 37.695 347.824 L 37.695 366.674 141.570 366.457 L 245.445 366.239 245.675 347.606 L 245.906 328.973 230.897 328.973 L 215.888 328.973 215.888 234.307 L 215.888 139.642 230.881 139.642 L 245.873 139.642 245.873 120.795 L 245.873 101.947 141.784 101.947 L 37.695 101.947 37.695 120.795 M268.147 120.795 L 268.147 139.642 283.139 139.642 L 298.132 139.642 298.132 234.307 L 298.132 328.973 283.123 328.973 L 268.114 328.973 268.345 347.606 L 268.575 366.239 372.450 366.457 L 476.325 366.674 476.325 347.824 L 476.325 328.973 463.046 328.973 L 449.767 328.973 449.767 234.307 L 449.767 139.642 463.046 139.642 L 476.325 139.642 476.325 120.795 L 476.325 101.947 372.236 101.947 L 268.147 101.947 268.147 120.795 M177.337 234.307 L 177.337 328.973 139.642 328.973 L 101.947 328.973 101.947 234.307 L 101.947 139.642 139.642 139.642 L 177.337 139.642 177.337 234.307 M412.073 234.307 L 412.073 328.973 374.378 328.973 L 336.683 328.973 336.683 234.307 L 336.683 139.642 374.378 139.642 L 412.073 139.642 412.073 234.307 " stroke="none" fill-rule="evenodd" fill="black"></path></svg>