<svg width="136mm" height="120mm" version="1.1" viewBox="0 0 600 529.4117647058824" xmlns="http://www.w3.org/2000/svg"><path d="M86.170 169.412 C 66.576 228.193,50.545 276.546,50.545 276.865 C 50.545 277.581,85.450 289.231,85.939 288.678 C 86.133 288.459,89.863 277.485,94.227 264.292 C 98.591 251.099,102.414 240.023,102.722 239.680 C 103.030 239.336,111.750 247.529,122.099 257.886 L 140.915 276.717 123.914 327.745 C 114.564 355.810,107.091 378.951,107.309 379.169 C 107.902 379.761,140.714 390.655,141.905 390.655 C 142.500 390.655,148.824 372.970,156.915 348.678 L 170.898 306.700 188.476 324.263 L 206.054 341.826 219.316 328.544 L 232.578 315.261 208.384 291.056 L 184.191 266.851 209.035 192.329 C 222.699 151.342,233.879 117.708,233.879 117.588 C 233.879 117.467,213.640 117.368,188.902 117.368 C 153.051 117.368,143.926 117.147,143.926 116.277 C 143.926 115.677,147.004 105.969,150.766 94.704 C 154.529 83.439,157.474 74.088,157.311 73.925 C 156.787 73.402,123.881 62.539,122.818 62.539 C 122.220 62.539,106.991 106.949,86.170 169.412 M264.930 120.738 C 255.387 123.915,247.395 126.698,247.170 126.922 C 246.770 127.323,287.396 249.987,288.194 250.784 C 288.540 251.130,322.842 240.119,323.708 239.384 C 323.993 239.142,282.732 114.703,282.425 114.880 C 282.347 114.925,274.474 117.561,264.930 120.738 M321.133 120.906 L 303.441 126.878 324.035 188.731 C 335.362 222.751,344.787 250.764,344.980 250.983 C 345.174 251.201,352.553 248.985,361.378 246.057 C 370.204 243.128,377.673 240.733,377.976 240.733 C 378.279 240.733,375.344 250.274,371.453 261.936 L 364.379 283.139 301.271 283.359 L 238.163 283.579 238.163 302.424 L 238.163 321.269 345.893 321.052 L 453.623 320.834 453.854 302.201 L 454.084 283.568 429.223 283.568 C 415.550 283.568,404.362 283.279,404.362 282.925 C 404.362 282.572,416.102 247.324,430.449 204.597 L 456.536 126.911 438.541 120.905 C 426.167 116.776,420.426 115.218,420.161 115.920 C 419.949 116.481,410.781 143.925,399.789 176.907 L 379.803 236.875 359.457 175.837 C 348.266 142.265,339.046 114.828,338.968 114.865 C 338.889 114.903,330.863 117.621,321.133 120.906 M168.165 195.113 C 160.840 217.141,154.595 235.445,154.287 235.789 C 153.979 236.133,145.265 227.944,134.921 217.593 L 116.115 198.772 123.362 176.917 L 130.609 155.063 156.046 155.063 L 181.482 155.063 168.165 195.113 " stroke="none" fill-rule="evenodd" fill="black"></path></svg>