<svg width="136mm" height="120mm" version="1.1" viewBox="0 0 600 529.4117647058824" xmlns="http://www.w3.org/2000/svg"><path d="M238.163 115.226 L 238.163 173.910 179.479 173.910 L 120.795 173.910 120.795 192.757 L 120.795 211.605 257.010 211.605 L 393.225 211.605 393.225 192.757 L 393.225 173.910 334.541 173.910 L 275.857 173.910 275.857 115.226 L 275.857 56.542 257.010 56.542 L 238.163 56.542 238.163 115.226 M120.795 260.437 L 120.795 279.284 179.479 279.284 L 238.163 279.284 238.163 337.968 L 238.163 396.652 257.010 396.652 L 275.857 396.652 275.857 337.968 L 275.857 279.284 334.541 279.284 L 393.225 279.284 393.225 260.437 L 393.225 241.589 257.010 241.589 L 120.795 241.589 120.795 260.437 " stroke="none" fill-rule="evenodd" fill="black"></path></svg>