<svg width="136mm" height="120mm" version="1.1" viewBox="0 0 600 529.4117647058824" xmlns="http://www.w3.org/2000/svg"><path d="M268.147 98.520 L 268.147 117.368 328.548 117.368 L 388.950 117.368 379.736 135.573 L 370.523 153.778 370.279 144.996 L 370.034 136.215 351.217 136.215 L 332.400 136.215 332.400 182.907 L 332.400 229.600 295.990 302.415 C 275.964 342.464,259.580 375.615,259.580 376.085 C 259.580 376.794,291.190 393.225,292.553 393.225 C 292.792 393.225,302.168 374.869,313.387 352.434 L 333.786 311.642 334.878 318.808 C 341.064 359.401,359.911 390.991,383.667 400.586 C 409.797 411.141,437.179 396.261,453.178 362.812 C 463.797 340.611,468.615 315.832,468.615 283.419 L 468.615 268.147 449.767 268.147 L 430.920 268.147 430.917 280.783 C 430.912 302.251,428.551 320.673,424.075 334.176 C 418.977 349.552,409.617 363.653,403.074 365.812 C 396.681 367.922,389.898 361.570,382.489 346.535 C 373.118 327.518,371.032 314.623,370.365 271.574 L 369.867 239.448 409.814 159.560 L 449.760 79.673 358.954 79.673 L 268.147 79.673 268.147 98.520 M37.695 120.795 L 37.695 139.642 50.974 139.642 L 64.252 139.642 64.252 234.307 L 64.252 328.973 50.974 328.973 L 37.695 328.973 37.695 347.824 L 37.695 366.674 141.570 366.457 L 245.445 366.239 245.675 347.606 L 245.906 328.973 230.897 328.973 L 215.888 328.973 215.888 234.307 L 215.888 139.642 230.881 139.642 L 245.873 139.642 245.873 120.795 L 245.873 101.947 141.784 101.947 L 37.695 101.947 37.695 120.795 M177.337 234.307 L 177.337 328.973 139.642 328.973 L 101.947 328.973 101.947 234.307 L 101.947 139.642 139.642 139.642 L 177.337 139.642 177.337 234.307 " stroke="none" fill-rule="evenodd" fill="black"></path></svg>