<svg width="136mm" height="120mm" version="1.1" viewBox="0 0 600 529.4117647058824" xmlns="http://www.w3.org/2000/svg"><path d="M268.147 98.520 L 268.147 117.368 328.116 117.368 C 361.099 117.368,388.065 117.657,388.039 118.010 C 388.014 118.364,383.987 126.556,379.090 136.215 L 370.186 153.778 370.140 144.996 L 370.094 136.215 351.247 136.215 L 332.400 136.215 332.400 182.907 L 332.400 229.600 295.990 302.415 C 275.964 342.464,259.580 375.615,259.580 376.085 C 259.580 376.794,291.190 393.225,292.553 393.225 C 292.792 393.225,302.182 374.841,313.419 352.371 L 333.849 311.516 334.452 316.175 C 338.367 346.424,350.826 374.438,367.137 389.671 C 377.460 399.311,388.065 403.802,400.507 403.802 C 421.798 403.802,440.356 389.138,453.200 362.164 C 463.525 340.483,467.526 320.919,468.355 288.065 L 468.858 268.147 450.025 268.147 L 431.192 268.147 430.654 286.062 C 430.359 295.915,429.507 308.082,428.762 313.100 C 426.291 329.743,421.057 344.575,413.959 355.050 C 404.020 369.718,396.998 369.753,387.160 355.184 C 380.088 344.713,374.846 330.056,372.216 313.400 C 371.190 306.904,370.694 295.917,370.345 272.002 L 369.871 239.448 409.820 159.560 L 449.769 79.673 358.958 79.673 L 268.147 79.673 268.147 98.520 M37.695 120.795 L 37.695 139.642 50.974 139.642 L 64.252 139.642 64.252 234.307 L 64.252 328.973 50.957 328.973 L 37.661 328.973 37.892 347.606 L 38.123 366.239 141.784 366.239 L 245.445 366.239 245.675 347.606 L 245.906 328.973 230.897 328.973 L 215.888 328.973 215.888 234.307 L 215.888 139.642 230.881 139.642 L 245.873 139.642 245.873 120.795 L 245.873 101.947 141.784 101.947 L 37.695 101.947 37.695 120.795 M177.337 234.316 L 177.337 328.991 139.856 328.768 L 102.376 328.544 102.158 234.093 L 101.940 139.642 139.638 139.642 L 177.337 139.642 177.337 234.316 " stroke="none" fill-rule="evenodd" fill="black"></path></svg>