<svg width="136mm" height="120mm" version="1.1" viewBox="0 0 600 529.4117647058824" xmlns="http://www.w3.org/2000/svg"><path d="M268.147 98.520 L 268.147 117.368 328.116 117.368 C 361.099 117.368,388.065 117.657,388.039 118.010 C 388.014 118.364,383.987 126.556,379.090 136.215 L 370.186 153.778 370.140 144.996 L 370.094 136.215 351.247 136.215 L 332.400 136.215 332.400 182.907 L 332.400 229.600 295.990 302.415 C 275.964 342.464,259.580 375.615,259.580 376.085 C 259.580 376.794,291.190 393.225,292.553 393.225 C 292.792 393.225,302.178 374.849,313.410 352.389 L 333.832 311.552 334.890 318.335 C 341.867 363.028,361.966 394.498,388.513 402.293 C 391.508 403.172,396.515 403.807,400.507 403.814 C 432.835 403.872,458.219 370.126,466.468 316.122 C 467.225 311.170,468.073 298.366,468.356 287.637 L 468.870 268.147 450.021 268.147 L 431.172 268.147 430.681 286.352 C 429.951 313.440,426.356 331.275,418.312 347.718 C 413.995 356.543,406.618 365.077,402.402 366.124 C 394.370 368.118,382.467 352.404,376.531 331.971 C 371.539 314.787,370.846 308.107,370.352 272.414 L 369.895 239.414 409.832 159.544 L 449.769 79.673 358.958 79.673 L 268.147 79.673 268.147 98.520 M37.695 120.795 L 37.695 139.642 50.974 139.642 L 64.252 139.642 64.252 234.307 L 64.252 328.973 50.957 328.973 L 37.661 328.973 37.892 347.606 L 38.123 366.239 141.784 366.239 L 245.445 366.239 245.675 347.606 L 245.906 328.973 230.897 328.973 L 215.888 328.973 215.888 234.307 L 215.888 139.642 230.881 139.642 L 245.873 139.642 245.873 120.795 L 245.873 101.947 141.784 101.947 L 37.695 101.947 37.695 120.795 M177.337 234.316 L 177.337 328.991 139.856 328.768 L 102.376 328.544 102.158 234.093 L 101.940 139.642 139.638 139.642 L 177.337 139.642 177.337 234.316 " stroke="none" fill-rule="evenodd" fill="black"></path></svg>