<svg width="136mm" height="120mm" version="1.1" viewBox="0 0 600 529.4117647058824" xmlns="http://www.w3.org/2000/svg"><path d="M109.658 72.734 L 109.658 107.773 105.160 108.844 C 82.258 114.294,60.252 130.771,47.437 152.064 C 43.636 158.381,38.889 169.928,36.694 178.201 C 34.774 185.435,34.762 185.887,34.484 258.938 L 34.205 332.400 53.051 332.400 L 71.898 332.400 72.162 260.651 C 72.457 180.548,72.029 186.287,78.660 173.482 C 83.112 164.887,94.241 153.924,102.804 149.700 L 109.229 146.531 109.446 281.015 L 109.663 415.500 128.505 415.500 L 147.347 415.500 147.564 280.933 L 147.781 146.366 154.206 149.631 C 163.380 154.292,174.917 165.890,179.321 174.877 C 185.099 186.670,185.016 185.391,185.032 262.793 L 185.047 332.400 203.895 332.400 L 222.742 332.400 222.742 261.214 C 222.742 193.363,222.662 189.634,221.026 181.607 C 213.963 146.948,187.544 118.425,154.252 109.515 L 147.352 107.668 147.352 72.681 L 147.352 37.695 128.505 37.695 L 109.658 37.695 109.658 72.734 M332.400 84.813 L 332.400 131.932 294.705 131.932 L 257.010 131.932 257.010 151.208 L 257.010 170.483 294.705 170.483 L 332.400 170.483 332.400 227.025 L 332.400 283.568 285.281 283.568 L 238.163 283.568 238.163 302.415 L 238.163 321.262 285.281 321.262 L 332.400 321.262 332.400 368.381 L 332.400 415.500 351.247 415.500 L 370.094 415.500 370.094 368.388 L 370.094 321.277 417.427 321.056 L 464.760 320.834 464.991 302.201 L 465.222 283.568 417.658 283.568 L 370.094 283.568 370.094 227.034 L 370.094 170.501 408.003 170.278 L 445.912 170.055 445.912 151.208 L 445.912 132.360 408.003 132.137 L 370.094 131.914 370.094 84.804 L 370.094 37.695 351.247 37.695 L 332.400 37.695 332.400 84.813 " stroke="none" fill-rule="evenodd" fill="black"></path></svg>