<svg width="136mm" height="120mm" version="1.1" viewBox="0 0 600 529.4117647058824" xmlns="http://www.w3.org/2000/svg"><path d="M109.658 72.681 L 109.658 107.668 102.758 109.515 C 74.262 117.142,49.284 140.559,39.487 168.831 C 34.242 183.968,34.268 183.515,34.268 261.388 L 34.268 332.400 53.115 332.400 L 71.963 332.400 71.963 263.593 C 71.963 217.890,72.274 193.079,72.891 189.702 C 74.148 182.819,77.548 174.478,81.457 168.692 C 86.094 161.826,95.603 153.375,102.933 149.605 L 109.229 146.366 109.446 280.933 L 109.663 415.500 128.505 415.500 L 147.347 415.500 147.564 280.933 L 147.781 146.366 154.077 149.605 C 161.407 153.375,170.916 161.826,175.553 168.692 C 179.462 174.478,182.862 182.819,184.119 189.702 C 184.736 193.079,185.047 217.890,185.047 263.593 L 185.047 332.400 203.895 332.400 L 222.742 332.400 222.742 261.388 C 222.742 183.515,222.768 183.968,217.523 168.831 C 207.726 140.559,182.748 117.142,154.252 109.515 L 147.352 107.668 147.352 72.681 L 147.352 37.695 128.505 37.695 L 109.658 37.695 109.658 72.681 M332.400 84.813 L 332.400 131.932 294.705 131.932 L 257.010 131.932 257.010 151.208 L 257.010 170.483 294.705 170.483 L 332.400 170.483 332.400 227.025 L 332.400 283.568 285.281 283.568 L 238.163 283.568 238.163 302.415 L 238.163 321.262 285.281 321.262 L 332.400 321.262 332.400 368.381 L 332.400 415.500 351.247 415.500 L 370.094 415.500 370.094 368.381 L 370.094 321.262 417.641 321.262 L 465.188 321.262 465.188 302.415 L 465.188 283.568 417.641 283.568 L 370.094 283.568 370.094 227.034 L 370.094 170.501 408.003 170.278 L 445.912 170.055 445.912 151.208 L 445.912 132.360 408.003 132.137 L 370.094 131.914 370.094 84.804 L 370.094 37.695 351.247 37.695 L 332.400 37.695 332.400 84.813 " stroke="none" fill-rule="evenodd" fill="black"></path></svg>