<svg width="136mm" height="120mm" version="1.1" viewBox="0 0 600 529.4117647058824" xmlns="http://www.w3.org/2000/svg"><path d="M109.658 72.611 L 109.658 107.528 102.666 109.487 C 72.928 117.820,47.562 142.468,38.609 171.729 C 34.351 185.643,34.268 187.382,34.268 262.262 L 34.268 332.400 53.115 332.400 L 71.963 332.400 71.963 263.390 C 71.963 186.029,71.822 188.049,78.120 174.860 C 82.816 165.026,92.469 155.234,102.590 150.038 L 109.658 146.409 109.658 280.954 L 109.658 415.500 128.502 415.500 L 147.347 415.500 147.564 281.015 L 147.781 146.531 154.206 149.708 C 159.004 152.082,162.488 154.735,167.964 160.186 C 176.357 168.540,180.659 175.873,183.358 186.426 C 184.971 192.734,185.047 196.166,185.047 262.716 L 185.047 332.400 203.922 332.400 L 222.796 332.400 222.546 258.509 L 222.295 184.619 220.007 176.304 C 211.087 143.881,185.806 118.114,154.427 109.463 L 147.365 107.516 147.359 72.605 L 147.352 37.695 128.505 37.695 L 109.658 37.695 109.658 72.611 M332.400 84.813 L 332.400 131.932 294.705 131.932 L 257.010 131.932 257.010 150.779 L 257.010 169.627 294.705 169.627 L 332.400 169.627 332.400 226.597 L 332.400 283.568 285.281 283.568 L 238.163 283.568 238.163 302.415 L 238.163 321.262 285.281 321.262 L 332.400 321.262 332.400 368.381 L 332.400 415.500 351.247 415.500 L 370.094 415.500 370.094 368.381 L 370.094 321.262 417.213 321.262 L 464.331 321.262 464.331 302.422 L 464.331 283.582 417.427 283.361 L 370.523 283.139 370.523 226.597 L 370.523 170.055 408.003 169.832 L 445.484 169.609 445.484 150.770 L 445.484 131.932 407.789 131.932 L 370.094 131.932 370.094 84.813 L 370.094 37.695 351.247 37.695 L 332.400 37.695 332.400 84.813 " stroke="none" fill-rule="evenodd" fill="black"></path></svg>