<svg width="136mm" height="120mm" version="1.1" viewBox="0 0 600 529.4117647058824" xmlns="http://www.w3.org/2000/svg"><path d="M229.596 35.511 C 193.131 40.238,157.560 55.579,130.264 78.351 C 120.893 86.169,105.882 101.969,98.893 111.371 C 73.445 145.604,60.740 183.974,60.740 226.597 C 60.740 277.154,79.206 323.216,113.941 359.305 C 131.001 377.030,147.219 388.947,168.342 399.278 C 196.121 412.865,222.325 418.929,253.155 418.905 C 275.932 418.887,293.706 416.096,313.930 409.363 C 383.425 386.224,432.961 326.853,444.263 253.155 C 446.237 240.280,446.237 212.914,444.263 200.039 C 431.211 114.932,367.041 49.763,283.071 36.338 C 271.343 34.463,241.267 33.998,229.596 35.511 M270.740 72.840 C 288.084 74.937,302.173 78.885,317.407 85.919 C 335.671 94.351,348.208 103.094,362.433 117.319 C 384.899 139.785,398.488 165.020,405.362 197.041 C 407.063 204.961,407.294 208.495,407.294 226.597 C 407.294 244.700,407.063 248.233,405.362 256.153 C 400.132 280.514,390.954 300.899,376.625 319.977 C 370.023 328.767,355.325 343.466,346.535 350.067 C 324.392 366.698,299.574 376.695,271.148 380.435 C 260.124 381.885,235.000 380.975,224.077 378.730 C 192.913 372.324,166.193 358.107,144.300 336.282 C 114.454 306.528,98.554 268.406,98.554 226.597 C 98.554 184.999,114.467 146.640,143.875 117.350 C 168.694 92.629,201.257 76.703,234.736 72.913 C 244.031 71.860,262.327 71.823,270.740 72.840 M238.163 117.368 L 238.163 147.352 187.189 147.352 L 136.215 147.352 136.215 166.200 L 136.215 185.047 187.189 185.047 L 238.163 185.047 238.163 226.597 L 238.163 268.147 187.189 268.147 L 136.215 268.147 136.215 286.995 L 136.215 305.842 187.189 305.842 L 238.163 305.842 238.163 336.255 L 238.163 366.668 257.010 366.668 L 275.857 366.668 275.857 336.255 L 275.857 305.842 326.831 305.842 L 377.805 305.842 377.805 286.995 L 377.805 268.147 326.831 268.147 L 275.857 268.147 275.857 226.597 L 275.857 185.047 326.831 185.047 L 377.805 185.047 377.805 166.200 L 377.805 147.352 326.831 147.352 L 275.857 147.352 275.857 117.368 L 275.857 87.383 257.010 87.383 L 238.163 87.383 238.163 117.368 " stroke="none" fill-rule="evenodd" fill="black"></path></svg>