<svg width="136mm" height="120mm" version="1.1" viewBox="0 0 600 529.4117647058824" xmlns="http://www.w3.org/2000/svg"><path d="M147.138 75.868 C 138.304 80.322,131.075 84.158,131.075 84.393 C 131.075 84.817,167.879 158.673,168.344 159.183 C 168.547 159.405,201.237 143.344,202.014 142.641 C 202.581 142.127,164.868 67.682,164.063 67.725 C 163.589 67.750,155.973 71.414,147.138 75.868 M222.528 75.868 C 213.693 80.322,206.465 84.158,206.465 84.393 C 206.465 84.817,243.268 158.673,243.733 159.183 C 243.936 159.405,276.626 143.344,277.403 142.641 C 277.970 142.127,240.258 67.682,239.452 67.725 C 238.979 67.750,231.363 71.414,222.528 75.868 M328.709 123.889 C 313.253 154.804,300.725 180.205,300.869 180.335 C 301.646 181.039,334.336 197.100,334.539 196.877 C 335.004 196.369,390.655 84.815,390.655 84.392 C 390.655 83.898,358.445 67.679,357.464 67.679 C 357.104 67.679,344.164 92.974,328.709 123.889 M104.279 255.771 C 83.653 297.025,66.948 331.046,67.157 331.375 C 67.750 332.310,100.118 348.224,100.532 347.784 C 100.736 347.569,111.547 326.092,124.557 300.059 L 148.212 252.727 168.343 252.727 C 179.415 252.727,188.474 252.920,188.474 253.157 C 188.474 253.394,174.596 281.342,157.634 315.264 L 126.793 376.940 143.061 385.083 C 152.008 389.561,159.718 393.225,160.193 393.225 C 160.669 393.225,176.865 361.613,196.184 322.976 L 231.311 252.727 247.587 252.727 C 256.539 252.727,263.864 252.920,263.864 253.157 C 263.864 253.394,249.985 281.342,233.023 315.264 L 202.183 376.940 218.451 385.083 C 227.398 389.561,235.108 393.225,235.583 393.225 C 236.058 393.225,252.283 361.556,271.637 322.850 L 306.827 252.474 326.253 252.994 C 338.473 253.321,347.844 253.991,351.516 254.801 C 364.115 257.577,377.759 266.446,386.706 277.676 C 395.864 289.170,400.089 301.578,400.064 316.902 C 400.044 328.963,398.397 336.292,393.502 346.107 C 390.072 352.982,388.173 355.514,381.267 362.415 C 374.625 369.053,371.728 371.263,365.811 374.206 C 352.047 381.052,350.491 381.231,304.848 381.231 L 264.720 381.231 264.720 400.122 L 264.720 419.013 308.626 418.728 L 352.532 418.444 360.939 416.151 C 404.268 404.331,433.567 369.998,437.716 326.181 C 442.077 280.119,413.393 235.851,369.552 220.981 C 353.231 215.446,357.151 215.646,257.668 215.276 L 167.087 214.939 171.408 206.328 C 173.785 201.593,175.609 197.609,175.462 197.476 C 175.108 197.154,142.294 180.764,142.004 180.764 C 141.881 180.764,124.904 214.517,104.279 255.771 " stroke="none" fill-rule="evenodd" fill="black"></path></svg>