<svg width="136mm" height="120mm" version="1.1" viewBox="0 0 600 529.4117647058824" xmlns="http://www.w3.org/2000/svg"><path d="M148.185 75.310 C 139.926 79.446,132.601 83.030,131.907 83.274 C 130.944 83.613,135.091 92.637,149.486 121.532 C 159.848 142.330,168.423 159.346,168.542 159.346 C 168.661 159.346,176.243 155.610,185.390 151.044 L 202.021 142.741 183.252 105.210 C 172.929 84.568,164.194 67.704,163.842 67.735 C 163.490 67.765,156.444 71.174,148.185 75.310 M222.528 75.868 C 213.693 80.322,206.465 84.158,206.465 84.393 C 206.465 84.817,243.268 158.673,243.733 159.183 C 243.936 159.405,276.626 143.344,277.403 142.641 C 277.970 142.127,240.258 67.682,239.452 67.725 C 238.979 67.750,231.363 71.414,222.528 75.868 M328.709 123.889 C 313.253 154.804,300.725 180.205,300.869 180.335 C 301.646 181.039,334.336 197.100,334.539 196.877 C 335.004 196.369,390.655 84.815,390.655 84.392 C 390.655 83.898,358.445 67.679,357.464 67.679 C 357.104 67.679,344.164 92.974,328.709 123.889 M103.827 256.138 L 65.870 331.486 82.276 339.698 C 91.299 344.214,99.085 347.775,99.578 347.610 C 100.072 347.446,111.119 326.126,124.128 300.233 L 147.781 253.155 168.127 252.925 C 179.318 252.799,188.474 252.896,188.474 253.142 C 188.474 253.387,174.697 281.055,157.859 314.625 C 141.021 348.196,127.114 375.939,126.956 376.277 C 126.797 376.615,134.267 380.663,143.556 385.273 C 152.844 389.882,160.604 393.268,160.800 392.797 C 160.996 392.326,176.844 360.714,196.018 322.548 L 230.881 253.155 247.372 252.922 C 256.442 252.794,263.864 252.892,263.864 253.139 C 263.864 253.386,249.985 281.342,233.023 315.264 L 202.183 376.940 218.451 385.083 C 227.398 389.561,235.108 393.225,235.583 393.225 C 236.058 393.225,252.283 361.556,271.637 322.850 L 306.827 252.474 326.253 252.994 C 338.473 253.321,347.844 253.991,351.516 254.801 C 373.612 259.669,394.278 280.480,398.865 302.481 C 401.486 315.050,400.169 331.286,395.651 342.095 C 390.144 355.273,377.495 368.597,364.635 374.766 C 351.502 381.066,349.963 381.231,304.602 381.231 L 264.720 381.231 264.720 400.079 L 264.720 418.926 305.747 418.926 C 339.468 418.926,348.038 418.686,353.873 417.580 C 380.706 412.489,402.676 398.803,418.680 377.207 C 425.229 368.370,429.365 360.331,433.092 349.192 C 452.548 291.050,416.223 229.316,355.334 217.041 C 349.055 215.775,337.933 215.574,257.653 215.276 C 207.825 215.090,167.056 214.760,167.056 214.541 C 167.056 214.323,168.950 210.371,171.264 205.759 L 175.472 197.373 158.837 189.069 C 149.687 184.501,142.107 180.769,141.992 180.776 C 141.878 180.783,124.703 214.696,103.827 256.138 " stroke="none" fill-rule="evenodd" fill="black"></path></svg>