<svg width="136mm" height="120mm" version="1.1" viewBox="0 0 600 529.4117647058824" xmlns="http://www.w3.org/2000/svg"><path d="M147.138 75.868 C 138.304 80.322,131.075 84.158,131.075 84.393 C 131.075 84.814,167.876 158.670,168.339 159.178 C 168.469 159.321,176.101 155.681,185.298 151.089 L 202.021 142.741 183.252 105.210 C 172.929 84.568,164.194 67.700,163.842 67.725 C 163.490 67.750,155.973 71.414,147.138 75.868 M222.528 75.868 C 213.693 80.322,206.465 84.158,206.465 84.393 C 206.465 84.817,243.268 158.673,243.733 159.183 C 243.936 159.405,276.626 143.344,277.403 142.641 C 277.970 142.127,240.258 67.682,239.452 67.725 C 238.979 67.750,231.363 71.414,222.528 75.868 M328.709 123.889 C 313.253 154.804,300.725 180.205,300.869 180.335 C 301.646 181.039,334.336 197.100,334.539 196.877 C 335.004 196.369,390.655 84.815,390.655 84.392 C 390.655 83.898,358.445 67.679,357.464 67.679 C 357.104 67.679,344.164 92.974,328.709 123.889 M104.301 255.726 C 83.688 296.956,66.823 330.879,66.823 331.112 C 66.823 331.913,99.563 347.920,100.112 347.388 C 100.415 347.094,111.264 325.772,124.222 300.004 L 147.781 253.155 168.127 252.925 C 179.318 252.799,188.474 252.896,188.474 253.142 C 188.474 253.387,174.595 281.345,157.631 315.270 L 126.787 376.952 143.616 385.303 C 152.871 389.896,160.604 393.268,160.800 392.797 C 160.996 392.326,176.844 360.714,196.018 322.548 L 230.881 253.155 247.372 252.922 C 256.442 252.794,263.864 252.892,263.864 253.139 C 263.864 253.386,250.021 281.270,233.103 315.104 L 202.343 376.621 218.973 384.923 C 228.120 389.489,235.794 393.225,236.025 393.225 C 236.257 393.225,252.278 361.565,271.627 322.869 L 306.808 252.513 326.671 252.957 C 343.655 253.336,347.467 253.670,352.960 255.263 C 390.438 266.125,409.550 304.435,395.811 341.157 C 391.617 352.367,379.917 366.052,368.973 372.549 C 366.302 374.135,360.739 376.641,356.611 378.118 L 349.105 380.803 306.913 381.062 L 264.720 381.321 264.720 400.124 L 264.720 418.926 305.301 418.926 C 337.783 418.926,347.401 418.665,353.491 417.619 C 394.945 410.497,427.564 378.878,436.101 337.540 C 438.605 325.417,438.663 308.739,436.242 297.275 C 428.900 262.518,405.401 234.707,372.521 221.861 C 370.008 220.879,363.905 219.056,358.957 217.809 L 349.962 215.542 258.509 215.251 C 208.210 215.090,167.056 214.776,167.056 214.552 C 167.056 214.327,168.986 210.299,171.345 205.599 L 175.633 197.054 159.359 188.909 C 150.409 184.429,142.792 180.764,142.433 180.764 C 142.073 180.764,124.914 214.497,104.301 255.726 " stroke="none" fill-rule="evenodd" fill="black"></path></svg>