<svg width="136mm" height="120mm" version="1.1" viewBox="0 0 600 529.4117647058824" xmlns="http://www.w3.org/2000/svg"><path d="M240.304 46.311 C 212.601 50.048,186.291 63.146,166.268 83.169 C 126.969 122.468,117.475 182.247,142.661 231.815 C 156.028 258.123,178.950 279.761,205.776 291.396 C 213.227 294.628,227.898 299.079,234.950 300.247 L 238.163 300.779 238.163 327.727 L 238.163 354.674 177.765 354.674 L 117.368 354.674 117.368 373.521 L 117.368 392.369 251.441 392.369 L 385.515 392.369 385.515 373.521 L 385.515 354.674 330.686 354.674 L 275.857 354.674 275.857 327.727 L 275.857 300.779 279.070 300.225 C 330.979 291.276,372.865 250.109,382.939 198.139 C 388.503 169.438,384.399 141.203,370.820 114.749 C 353.276 80.571,320.957 56.018,282.881 47.944 C 273.252 45.902,249.962 45.009,240.304 46.311 M237.770 261.972 C 237.053 262.689,222.485 257.759,216.759 254.861 C 198.512 245.627,184.233 231.090,175.530 212.890 C 162.148 184.902,163.624 153.385,179.571 126.627 C 184.840 117.785,198.509 103.660,207.184 98.091 C 215.156 92.973,224.274 88.753,231.830 86.683 L 237.734 85.066 237.952 173.318 C 238.072 221.857,237.990 261.751,237.770 261.972 M295.328 91.663 C 314.767 100.768,332.249 118.750,340.178 137.795 C 350.566 162.748,349.979 188.863,338.490 212.890 C 329.875 230.906,316.199 245.020,298.467 254.194 C 292.624 257.216,279.107 262.150,276.670 262.150 C 276.163 262.150,275.857 228.825,275.857 173.536 L 275.857 84.922 282.068 86.642 C 285.485 87.588,291.451 89.847,295.328 91.663 " stroke="none" fill-rule="evenodd" fill="black"></path></svg>