<svg width="136mm" height="120mm" version="1.1" viewBox="0 0 600 529.4117647058824" xmlns="http://www.w3.org/2000/svg"><path d="M242.446 46.344 C 205.402 50.479,170.950 71.442,150.316 102.402 C 117.065 152.295,122.543 218.422,163.493 261.453 C 183.131 282.089,207.989 295.577,234.950 300.225 L 238.163 300.779 238.163 328.155 L 238.163 355.531 177.765 355.531 L 117.368 355.531 117.368 374.378 L 117.368 393.225 251.441 393.225 L 385.515 393.225 385.515 374.378 L 385.515 355.531 330.686 355.531 L 275.857 355.531 275.857 328.155 L 275.857 300.779 279.070 300.225 C 293.795 297.687,310.723 291.333,323.404 283.585 C 363.445 259.121,387.367 214.610,385.287 168.444 C 381.928 93.929,316.582 38.071,242.446 46.344 M237.770 261.972 C 236.895 262.846,221.880 257.487,214.794 253.771 C 182.272 236.717,163.062 200.788,167.056 164.490 C 169.345 143.685,177.282 126.410,191.359 111.586 C 203.108 99.215,216.236 91.242,232.594 86.543 L 237.734 85.067 237.952 173.319 C 238.072 221.858,237.990 261.751,237.770 261.972 M289.206 89.036 C 310.267 96.860,330.100 115.402,339.290 135.863 C 350.132 160.001,350.146 188.122,339.328 211.220 C 330.520 230.025,316.835 244.545,299.226 253.766 C 292.810 257.126,279.293 262.150,276.670 262.150 C 276.163 262.150,275.857 228.834,275.857 173.559 L 275.857 84.968 279.996 86.060 C 282.272 86.661,286.417 88.000,289.206 89.036 " stroke="none" fill-rule="evenodd" fill="black"></path></svg>