<svg width="136mm" height="120mm" version="1.1" viewBox="0 0 600 529.4117647058824" xmlns="http://www.w3.org/2000/svg"><path d="M242.446 46.344 C 213.595 49.564,186.862 62.579,165.885 83.619 C 111.392 138.275,117.774 228.571,179.479 275.956 C 194.988 287.867,215.672 296.917,234.950 300.228 L 238.163 300.779 238.163 328.155 L 238.163 355.531 177.765 355.531 L 117.368 355.531 117.368 374.378 L 117.368 393.225 251.441 393.225 L 385.515 393.225 385.515 374.378 L 385.515 355.531 330.686 355.531 L 275.857 355.531 275.857 328.155 L 275.857 300.779 279.070 300.228 C 293.414 297.764,311.079 291.108,323.614 283.443 C 352.630 265.699,373.571 236.956,381.667 203.761 C 395.760 145.969,367.893 86.004,314.456 59.136 C 292.410 48.052,267.229 43.579,242.446 46.344 M237.770 261.972 C 237.550 262.192,233.982 261.324,229.842 260.043 C 204.444 252.187,183.151 232.484,173.117 207.555 C 169.653 198.950,168.085 192.476,167.108 182.754 C 162.705 138.953,190.062 98.761,232.594 86.543 L 237.734 85.067 237.952 173.319 C 238.072 221.858,237.990 261.751,237.770 261.972 M289.206 89.036 C 320.729 100.746,343.711 131.000,346.935 165.031 C 350.415 201.756,331.553 236.837,299.226 253.766 C 292.810 257.126,279.293 262.150,276.670 262.150 C 276.163 262.150,275.857 228.834,275.857 173.559 L 275.857 84.968 279.996 86.060 C 282.272 86.661,286.417 88.000,289.206 89.036 " stroke="none" fill-rule="evenodd" fill="black"></path></svg>