<svg width="136mm" height="120mm" version="1.1" viewBox="0 0 600 529.4117647058824" xmlns="http://www.w3.org/2000/svg"><path d="M310.077 112.325 C 294.501 143.473,281.876 169.066,282.020 169.197 C 282.798 169.901,315.489 185.963,315.692 185.740 C 316.319 185.054,371.808 73.599,371.808 73.026 C 371.808 72.666,364.290 68.618,355.102 64.031 L 338.396 55.691 310.077 112.325 M162.345 64.198 C 150.124 68.341,145.238 70.368,145.306 71.270 C 145.410 72.659,170.502 148.394,171.071 149.036 C 171.555 149.584,206.465 137.942,206.465 137.233 C 206.465 135.970,180.318 58.261,179.914 58.323 C 179.675 58.360,171.768 61.004,162.345 64.198 M226.597 64.198 C 214.376 68.341,209.490 70.368,209.558 71.270 C 209.663 72.659,234.755 148.394,235.323 149.036 C 235.808 149.584,270.717 137.942,270.717 137.233 C 270.717 135.970,244.570 58.261,244.166 58.323 C 243.927 58.360,236.021 61.004,226.597 64.198 M101.947 177.337 L 101.947 196.184 124.222 196.184 C 136.472 196.184,146.496 196.378,146.496 196.615 C 146.496 196.852,132.810 224.415,116.083 257.867 C 99.356 291.318,85.670 319.072,85.670 319.542 C 85.670 320.630,118.220 336.967,118.959 336.251 C 119.262 335.957,130.111 314.635,143.069 288.867 L 166.628 242.018 181.418 241.783 L 196.207 241.549 165.354 303.249 C 148.386 337.184,134.502 365.170,134.502 365.439 C 134.502 365.813,167.431 382.088,168.187 382.088 C 168.277 382.088,184.152 350.476,203.466 311.839 L 238.583 241.589 252.936 241.589 C 261.961 241.589,267.290 241.908,267.290 242.448 C 267.290 242.921,253.605 270.677,236.878 304.129 C 220.150 337.580,206.465 365.141,206.465 365.376 C 206.465 366.111,239.070 382.160,239.703 381.736 C 240.034 381.516,256.110 349.866,275.429 311.405 L 310.554 241.476 318.221 242.039 C 336.458 243.378,350.656 250.711,363.312 265.329 C 368.099 270.858,374.460 283.221,376.223 290.421 C 377.928 297.388,377.660 316.013,375.754 322.976 C 371.327 339.148,358.588 354.876,343.558 362.723 C 332.417 368.541,327.874 369.473,308.626 369.892 L 291.278 370.270 291.278 389.030 L 291.278 407.789 306.913 407.786 C 324.538 407.783,333.627 406.557,345.597 402.566 C 399.025 384.753,427.623 328.491,410.623 274.636 C 401.133 244.572,376.906 219.836,346.964 209.640 C 331.307 204.308,334.194 204.485,256.796 204.125 C 217.805 203.944,185.904 203.622,185.904 203.410 C 185.904 203.199,190.917 193.005,197.044 180.757 L 208.184 158.489 155.066 158.489 L 101.947 158.489 101.947 177.337 " stroke="none" fill-rule="evenodd" fill="black"></path></svg>