<svg width="136mm" height="120mm" version="1.1" viewBox="0 0 600 529.4117647058824" xmlns="http://www.w3.org/2000/svg"><path d="M310.077 112.325 C 294.501 143.473,281.876 169.066,282.020 169.197 C 282.798 169.901,315.489 185.963,315.692 185.740 C 316.319 185.054,371.808 73.599,371.808 73.026 C 371.808 72.666,364.290 68.618,355.102 64.031 L 338.396 55.691 310.077 112.325 M162.345 64.198 C 150.124 68.341,145.238 70.368,145.306 71.270 C 145.410 72.659,170.502 148.394,171.071 149.036 C 171.748 149.801,206.465 137.793,206.465 136.794 C 206.465 134.982,180.636 58.254,180.050 58.323 C 179.736 58.360,171.768 61.004,162.345 64.198 M226.597 64.198 C 214.376 68.341,209.490 70.368,209.558 71.270 C 209.663 72.659,234.755 148.394,235.323 149.036 C 235.808 149.584,270.717 137.942,270.717 137.233 C 270.717 135.970,244.570 58.261,244.166 58.323 C 243.927 58.360,236.021 61.004,226.597 64.198 M101.947 177.337 L 101.947 196.184 124.222 196.184 C 138.541 196.184,146.496 196.491,146.496 197.043 C 146.496 197.516,132.810 225.272,116.083 258.723 C 99.356 292.175,85.670 319.736,85.670 319.971 C 85.670 320.774,118.409 336.785,118.959 336.251 C 119.262 335.957,130.111 314.635,143.069 288.867 L 166.628 242.018 181.418 241.783 L 196.207 241.549 165.306 303.346 C 148.311 337.334,134.523 365.250,134.668 365.381 C 135.021 365.701,167.835 382.088,168.123 382.088 C 168.248 382.088,184.152 350.476,203.466 311.839 L 238.583 241.589 252.936 241.589 C 261.961 241.589,267.290 241.908,267.290 242.448 C 267.290 242.921,253.605 270.677,236.878 304.129 C 220.150 337.580,206.465 365.141,206.465 365.376 C 206.465 365.799,238.603 382.088,239.438 382.088 C 239.678 382.088,255.705 350.428,275.054 311.733 L 310.234 241.377 318.061 241.989 C 334.982 243.313,346.453 248.630,358.609 260.786 C 367.231 269.408,371.558 276.261,375.069 286.852 C 376.965 292.571,377.254 294.970,377.311 305.414 C 377.383 318.576,376.005 324.958,370.915 335.040 C 365.532 345.705,353.420 357.823,342.781 363.187 C 332.204 368.521,327.477 369.448,308.626 369.887 L 291.278 370.291 291.278 389.040 L 291.278 407.789 306.913 407.786 C 330.255 407.782,343.963 404.807,360.875 396.072 C 374.054 389.265,384.505 380.500,394.045 368.252 C 439.193 310.287,409.529 224.988,337.968 207.004 C 327.163 204.288,316.159 203.895,251.047 203.895 C 215.218 203.895,185.904 203.699,185.904 203.460 C 185.904 203.221,190.917 193.005,197.044 180.757 L 208.184 158.489 155.066 158.489 L 101.947 158.489 101.947 177.337 " stroke="none" fill-rule="evenodd" fill="black"></path></svg>