<svg width="136mm" height="120mm" version="1.1" viewBox="0 0 600 529.4117647058824" xmlns="http://www.w3.org/2000/svg"><path d="M310.080 112.319 C 294.502 143.471,281.876 169.066,282.020 169.197 C 282.164 169.327,289.703 173.141,298.771 177.672 L 315.260 185.910 343.582 129.270 C 359.160 98.119,371.787 72.524,371.642 72.393 C 371.498 72.262,363.960 68.448,354.891 63.917 L 338.402 55.680 310.080 112.319 M162.345 64.198 C 150.124 68.341,145.238 70.368,145.306 71.270 C 145.410 72.659,170.502 148.394,171.071 149.036 C 171.748 149.801,206.465 137.793,206.465 136.794 C 206.465 134.982,180.636 58.254,180.050 58.323 C 179.736 58.360,171.768 61.004,162.345 64.198 M226.597 64.198 C 214.376 68.341,209.490 70.368,209.558 71.270 C 209.663 72.659,234.755 148.394,235.323 149.036 C 235.808 149.584,270.717 137.942,270.717 137.233 C 270.717 135.970,244.570 58.261,244.166 58.323 C 243.927 58.360,236.021 61.004,226.597 64.198 M101.947 177.337 L 101.947 196.184 124.222 196.184 C 138.541 196.184,146.496 196.491,146.496 197.043 C 146.496 197.516,132.810 225.272,116.083 258.723 C 99.356 292.175,85.670 319.736,85.670 319.971 C 85.670 320.696,118.270 336.757,118.908 336.347 C 119.239 336.134,130.109 314.727,143.063 288.775 L 166.616 241.589 181.401 241.589 L 196.187 241.589 165.296 303.366 C 148.306 337.343,134.523 365.250,134.668 365.381 C 135.021 365.701,167.835 382.088,168.123 382.088 C 168.248 382.088,184.152 350.476,203.466 311.839 L 238.583 241.589 253.366 241.589 L 268.149 241.589 237.259 303.366 C 220.269 337.343,206.486 365.250,206.630 365.381 C 206.775 365.512,214.313 369.326,223.382 373.857 L 239.871 382.094 274.999 311.842 L 310.127 241.589 314.335 241.589 C 324.896 241.589,338.953 245.932,348.474 252.135 C 375.581 269.795,385.372 304.640,371.394 333.710 C 365.254 346.479,354.158 357.581,341.489 363.631 C 331.039 368.620,326.853 369.404,308.198 369.860 L 291.278 370.273 291.278 389.031 L 291.278 407.789 306.484 407.786 C 329.972 407.780,343.526 404.925,359.955 396.520 C 403.438 374.276,425.055 324.459,411.529 277.667 C 402.392 246.058,377.399 219.797,346.620 209.464 C 331.150 204.271,334.787 204.488,257.224 204.136 C 217.998 203.958,185.904 203.635,185.904 203.419 C 185.904 203.202,190.917 193.005,197.044 180.757 L 208.184 158.489 155.066 158.489 L 101.947 158.489 101.947 177.337 " stroke="none" fill-rule="evenodd" fill="black"></path></svg>