<svg width="136mm" height="120mm" version="1.1" viewBox="0 0 600 529.4117647058824" xmlns="http://www.w3.org/2000/svg"><path d="M136.215 84.813 L 136.215 131.932 98.520 131.932 L 60.826 131.932 60.826 150.779 L 60.826 169.627 98.520 169.627 L 136.215 169.627 136.215 226.597 L 136.215 283.568 89.097 283.568 L 41.978 283.568 41.978 302.415 L 41.978 321.262 89.097 321.262 L 136.215 321.262 136.215 368.381 L 136.215 415.500 155.063 415.500 L 173.910 415.500 173.910 368.381 L 173.910 321.262 221.029 321.262 L 268.147 321.262 268.147 302.415 L 268.147 283.568 221.029 283.568 L 173.910 283.568 173.910 226.597 L 173.910 169.627 211.605 169.627 L 249.300 169.627 249.300 150.779 L 249.300 131.932 211.605 131.932 L 173.910 131.932 173.910 84.813 L 173.910 37.695 155.063 37.695 L 136.215 37.695 136.215 84.813 M358.951 72.605 L 358.944 107.516 351.987 109.454 C 322.156 117.763,297.892 141.235,288.010 171.340 C 283.696 184.484,283.568 187.112,283.568 262.262 L 283.568 332.400 302.415 332.400 L 321.262 332.400 321.277 263.221 C 321.294 185.673,321.177 187.373,327.364 174.823 C 332.251 164.910,341.884 155.175,351.890 150.038 L 358.957 146.409 358.957 280.954 L 358.957 415.500 377.802 415.500 L 396.647 415.500 396.864 281.015 L 397.080 146.531 403.506 149.708 C 408.304 152.082,411.788 154.735,417.264 160.186 C 425.657 168.540,429.958 175.873,432.657 186.426 C 434.271 192.734,434.347 196.166,434.347 262.716 L 434.347 332.400 453.226 332.400 L 472.105 332.400 471.838 258.509 L 471.572 184.619 469.558 177.337 C 463.831 156.630,452.467 139.011,436.709 126.403 C 428.304 119.677,413.600 112.112,403.726 109.432 L 396.665 107.516 396.659 72.605 L 396.652 37.695 377.805 37.695 L 358.957 37.695 358.951 72.605 " stroke="none" fill-rule="evenodd" fill="black"></path></svg>