<svg width="136mm" height="120mm" version="1.1" viewBox="0 0 600 529.4117647058824" xmlns="http://www.w3.org/2000/svg"><path d="M136.215 84.804 L 136.215 131.914 98.306 132.137 L 60.397 132.360 60.397 151.208 L 60.397 170.055 98.306 170.278 L 136.215 170.501 136.215 227.034 L 136.215 283.568 88.652 283.568 L 41.088 283.568 41.319 302.201 L 41.550 320.834 88.883 321.056 L 136.215 321.277 136.215 368.388 L 136.215 415.500 155.063 415.500 L 173.910 415.500 173.910 368.381 L 173.910 321.262 221.029 321.262 L 268.147 321.262 268.147 302.415 L 268.147 283.568 221.029 283.568 L 173.910 283.568 173.910 227.025 L 173.910 170.483 211.605 170.483 L 249.300 170.483 249.300 151.208 L 249.300 131.932 211.605 131.932 L 173.910 131.932 173.910 84.813 L 173.910 37.695 155.063 37.695 L 136.215 37.695 136.215 84.804 M358.957 72.715 L 358.957 107.736 353.369 109.140 C 340.658 112.333,325.403 120.579,315.304 129.718 C 300.787 142.855,291.730 157.715,286.284 177.337 L 284.024 185.476 283.764 258.938 L 283.504 332.400 302.351 332.400 L 321.198 332.400 321.462 260.651 C 321.756 180.555,321.328 186.299,327.954 173.482 C 332.363 164.954,343.495 154.002,352.104 149.724 L 358.529 146.531 358.746 281.015 L 358.963 415.500 377.805 415.500 L 396.647 415.500 396.864 280.948 L 397.080 146.397 403.077 149.398 C 413.742 154.737,423.802 164.930,429.146 175.811 C 434.317 186.341,434.316 186.328,434.332 262.793 L 434.347 332.400 453.623 332.400 L 472.898 332.400 472.891 267.505 C 472.887 231.812,472.504 198.369,472.040 193.186 C 469.572 165.628,456.974 142.190,435.856 125.869 C 426.699 118.792,414.130 112.372,403.916 109.553 L 396.652 107.549 396.652 72.622 L 396.652 37.695 377.805 37.695 L 358.957 37.695 358.957 72.715 " stroke="none" fill-rule="evenodd" fill="black"></path></svg>