<svg width="136mm" height="120mm" version="1.1" viewBox="0 0 600 529.4117647058824" xmlns="http://www.w3.org/2000/svg"><path d="M136.215 84.813 L 136.215 131.932 98.520 131.932 L 60.826 131.932 60.826 151.208 L 60.826 170.483 98.520 170.483 L 136.215 170.483 136.215 227.025 L 136.215 283.568 89.097 283.568 L 41.978 283.568 41.978 302.415 L 41.978 321.262 89.097 321.262 L 136.215 321.262 136.215 368.381 L 136.215 415.500 155.063 415.500 L 173.910 415.500 173.910 368.381 L 173.910 321.262 221.029 321.262 L 268.147 321.262 268.147 302.415 L 268.147 283.568 221.029 283.568 L 173.910 283.568 173.910 227.025 L 173.910 170.483 211.605 170.483 L 249.300 170.483 249.300 151.208 L 249.300 131.932 211.605 131.932 L 173.910 131.932 173.910 84.813 L 173.910 37.695 155.063 37.695 L 136.215 37.695 136.215 84.813 M358.957 72.715 L 358.957 107.736 353.559 109.092 C 336.287 113.430,318.289 124.702,306.500 138.562 C 296.735 150.044,290.469 162.026,286.290 177.210 L 284.015 185.476 283.764 258.938 L 283.513 332.400 302.355 332.400 L 321.198 332.400 321.462 260.651 C 321.756 180.548,321.329 186.287,327.960 173.482 C 332.339 165.027,343.486 154.016,352.104 149.633 L 358.529 146.366 358.746 280.933 L 358.963 415.500 377.805 415.500 L 396.647 415.500 396.864 280.933 L 397.080 146.366 403.412 149.623 C 410.845 153.447,420.770 162.353,425.443 169.393 C 427.221 172.071,429.855 177.557,431.297 181.583 L 433.919 188.902 434.161 260.651 L 434.403 332.400 453.222 332.400 L 472.042 332.400 472.042 261.834 C 472.042 184.456,472.005 183.787,466.887 169.016 C 457.023 140.549,432.131 117.164,403.551 109.515 L 396.652 107.668 396.652 72.681 L 396.652 37.695 377.805 37.695 L 358.957 37.695 358.957 72.715 " stroke="none" fill-rule="evenodd" fill="black"></path></svg>