<svg width="136mm" height="120mm" version="1.1" viewBox="0 0 600 529.4117647058824" xmlns="http://www.w3.org/2000/svg"><path d="M257.010 101.448 L 257.010 165.200 169.198 194.471 C 120.902 210.570,81.386 223.998,81.386 224.312 C 81.386 224.858,92.596 258.941,92.910 259.349 C 92.993 259.458,129.950 247.249,175.036 232.219 L 257.010 204.891 257.010 275.928 L 257.010 346.966 195.233 316.075 C 161.256 299.085,133.349 285.302,133.219 285.447 C 132.514 286.225,116.452 318.916,116.675 319.119 C 117.186 319.586,293.850 407.789,294.275 407.789 C 294.511 407.789,294.705 359.309,294.705 300.055 L 294.705 192.321 363.669 169.339 C 401.600 156.699,432.634 146.099,432.634 145.784 C 432.634 145.237,421.425 111.154,421.110 110.745 C 421.026 110.636,392.650 119.985,358.052 131.520 C 323.454 143.055,295.047 152.493,294.926 152.493 C 294.804 152.493,294.705 126.663,294.705 95.094 L 294.705 37.695 275.857 37.695 L 257.010 37.695 257.010 101.448 " stroke="none" fill-rule="evenodd" fill="black"></path></svg>