<svg width="136mm" height="120mm" version="1.1" viewBox="0 0 600 529.4117647058824" xmlns="http://www.w3.org/2000/svg"><path d="M244.510 68.566 C 195.716 73.204,153.718 102.075,131.669 146.138 C 122.974 163.515,117.368 186.733,117.368 205.371 L 117.368 211.605 89.097 211.605 L 60.826 211.605 60.826 230.452 L 60.826 249.300 89.097 249.300 L 117.368 249.300 117.368 322.976 L 117.368 396.652 136.215 396.652 L 155.063 396.652 155.063 322.976 L 155.063 249.300 257.010 249.300 L 358.957 249.300 358.957 322.976 L 358.957 396.652 377.805 396.652 L 396.652 396.652 396.652 322.976 L 396.652 249.300 424.923 249.300 L 453.194 249.300 453.194 230.452 L 453.194 211.605 424.923 211.605 L 396.652 211.605 396.652 205.371 C 396.652 186.946,391.626 165.733,382.953 147.559 C 366.479 113.035,336.600 86.785,300.292 74.936 C 283.516 69.461,261.519 66.950,244.510 68.566 M275.585 107.598 C 296.857 111.349,316.002 121.939,331.543 138.551 C 347.837 155.968,357.303 178.071,358.663 201.875 L 359.218 211.605 257.012 211.605 L 154.806 211.605 155.293 202.369 C 156.557 178.417,166.066 156.093,182.477 138.551 C 206.869 112.479,240.278 101.372,275.585 107.598 " stroke="none" fill-rule="evenodd" fill="black"></path></svg>