<svg width="136mm" height="120mm" version="1.1" viewBox="0 0 600 529.4117647058824" xmlns="http://www.w3.org/2000/svg"><path d="M251.441 68.301 C 179.686 70.997,120.777 129.086,117.627 200.254 L 117.125 211.605 88.547 211.605 L 59.969 211.605 59.969 230.452 L 59.969 249.300 88.668 249.300 L 117.368 249.300 117.368 322.976 L 117.368 396.652 136.215 396.652 L 155.063 396.652 155.063 322.976 L 155.063 249.300 257.010 249.300 L 358.957 249.300 358.957 322.976 L 358.957 396.652 377.805 396.652 L 396.652 396.652 396.652 322.976 L 396.652 249.300 425.352 249.300 L 454.051 249.300 454.051 230.452 L 454.051 211.605 425.473 211.605 L 396.895 211.605 396.393 200.254 C 393.705 139.525,349.788 86.613,289.993 72.060 C 278.905 69.361,263.414 67.851,251.441 68.301 M275.057 107.577 C 295.900 111.531,312.504 120.013,327.376 134.303 C 346.576 152.751,357.179 175.934,358.714 202.824 L 359.215 211.605 257.010 211.605 L 154.805 211.605 155.306 202.824 C 156.841 175.934,167.444 152.751,186.644 134.303 C 201.154 120.360,216.715 112.228,237.114 107.927 C 246.823 105.880,265.215 105.711,275.057 107.577 " stroke="none" fill-rule="evenodd" fill="black"></path></svg>