<svg width="136mm" height="120mm" version="1.1" viewBox="0 0 600 529.4117647058824" xmlns="http://www.w3.org/2000/svg"><path d="M251.441 68.301 C 202.281 70.148,156.368 98.980,133.739 142.212 C 123.495 161.784,117.368 185.150,117.368 204.647 L 117.368 211.605 89.097 211.605 L 60.826 211.605 60.826 230.452 L 60.826 249.300 89.097 249.300 L 117.368 249.300 117.368 322.976 L 117.368 396.652 136.215 396.652 L 155.063 396.652 155.063 322.976 L 155.063 249.300 257.010 249.300 L 358.957 249.300 358.957 322.976 L 358.957 396.652 377.805 396.652 L 396.652 396.652 396.652 322.976 L 396.652 249.300 424.923 249.300 L 453.194 249.300 453.194 230.452 L 453.194 211.605 424.923 211.605 L 396.652 211.605 396.652 204.647 C 396.652 178.914,386.800 149.455,370.525 126.522 C 343.632 88.628,298.443 66.534,251.441 68.301 M276.580 107.919 C 296.618 112.010,312.559 120.182,326.755 133.644 C 343.654 149.669,354.693 171.049,357.718 193.614 C 358.381 198.562,358.931 204.634,358.941 207.107 L 358.957 211.605 257.010 211.605 L 155.063 211.605 155.079 207.107 C 155.108 199.421,157.403 184.951,159.802 177.337 C 161.064 173.332,164.044 166.248,166.424 161.595 C 180.893 133.314,205.571 114.578,237.114 107.927 C 247.723 105.690,265.641 105.687,276.580 107.919 " stroke="none" fill-rule="evenodd" fill="black"></path></svg>