<svg width="136mm" height="120mm" version="1.1" viewBox="0 0 600 529.4117647058824" xmlns="http://www.w3.org/2000/svg"><path d="M235.597 61.239 L 228.348 83.100 197.274 83.100 L 166.200 83.100 166.200 101.947 L 166.200 120.795 190.974 120.795 L 215.748 120.795 169.127 260.650 C 143.486 337.570,122.627 400.865,122.774 401.306 C 123.116 402.331,157.509 413.842,157.938 413.075 C 158.114 412.759,180.134 346.837,206.871 266.581 L 255.484 120.660 285.161 121.025 C 317.309 121.421,319.045 121.642,332.108 127.010 C 344.540 132.119,357.857 143.308,365.391 154.974 C 369.202 160.876,375.183 173.834,375.219 176.266 C 375.231 177.111,363.963 177.337,321.691 177.337 L 268.147 177.337 268.147 196.184 L 268.147 215.032 321.691 215.032 C 351.140 215.032,375.235 215.357,375.235 215.754 C 375.235 217.247,371.948 225.951,369.677 230.472 C 362.149 245.456,347.291 259.388,331.971 265.825 C 319.967 270.869,319.112 270.969,283.139 271.505 L 249.728 272.002 249.497 290.635 L 249.266 309.269 281.725 309.269 C 317.952 309.269,322.954 308.776,338.105 303.711 C 376.787 290.779,404.743 259.085,413.558 218.167 C 415.707 208.191,415.653 183.990,413.458 173.910 C 404.782 134.058,376.126 101.614,338.578 89.131 C 324.041 84.299,320.169 83.805,293.206 83.342 C 279.423 83.106,268.147 82.846,268.147 82.765 C 268.147 82.684,270.458 75.708,273.283 67.263 C 276.108 58.818,278.132 51.649,277.781 51.334 C 277.430 51.018,269.818 48.341,260.865 45.386 C 251.913 42.431,244.196 39.870,243.717 39.696 C 243.238 39.521,239.584 49.216,235.597 61.239 " stroke="none" fill-rule="evenodd" fill="black"></path></svg>