<svg width="136mm" height="120mm" version="1.1" viewBox="0 0 600 529.4117647058824" xmlns="http://www.w3.org/2000/svg"><path d="M235.597 61.239 L 228.348 83.100 197.274 83.100 L 166.200 83.100 166.200 101.947 L 166.200 120.795 190.974 120.795 L 215.748 120.795 169.127 260.650 C 143.486 337.570,122.627 400.865,122.774 401.306 C 123.116 402.331,157.509 413.842,157.938 413.075 C 158.114 412.759,180.135 346.833,206.874 266.572 L 255.490 120.643 284.735 121.004 C 318.203 121.416,321.251 121.893,335.588 128.950 C 348.596 135.353,359.455 145.183,366.802 157.204 C 369.281 161.260,373.891 171.641,374.698 174.981 L 375.267 177.337 321.707 177.337 L 268.147 177.337 268.147 196.184 L 268.147 215.032 321.784 215.032 L 375.420 215.032 374.874 217.208 C 369.790 237.466,351.508 257.751,330.686 266.239 C 318.490 271.211,314.373 271.698,280.339 272.186 L 249.267 272.631 249.497 291.164 L 249.728 309.697 281.426 309.631 C 307.422 309.576,314.588 309.300,321.262 308.095 C 367.811 299.690,403.468 265.031,413.508 218.429 C 415.692 208.292,415.698 184.990,413.519 174.767 C 405.014 134.864,378.236 103.623,340.810 89.943 C 326.735 84.798,319.858 83.854,292.777 83.345 C 279.231 83.090,268.147 82.823,268.147 82.750 C 268.147 82.677,270.458 75.708,273.283 67.263 C 276.108 58.818,278.132 51.649,277.781 51.334 C 277.430 51.018,269.818 48.341,260.865 45.386 C 251.913 42.431,244.196 39.870,243.717 39.696 C 243.238 39.521,239.584 49.216,235.597 61.239 " stroke="none" fill-rule="evenodd" fill="black"></path></svg>