<svg width="136mm" height="120mm" version="1.1" viewBox="0 0 600 529.4117647058824" xmlns="http://www.w3.org/2000/svg"><path d="M235.597 61.239 L 228.348 83.100 197.274 83.100 L 166.200 83.100 166.200 101.947 L 166.200 120.795 190.974 120.795 L 215.748 120.795 169.128 260.648 C 143.487 337.567,122.508 400.894,122.508 401.374 C 122.508 402.480,156.946 413.981,157.710 413.131 C 158.021 412.784,180.149 346.833,206.883 266.572 L 255.490 120.643 284.735 121.004 C 311.413 121.333,314.582 121.528,320.834 123.226 C 340.666 128.613,357.285 141.131,367.519 158.392 C 370.588 163.568,375.235 174.474,375.235 176.500 C 375.235 177.036,355.982 177.337,321.691 177.337 L 268.147 177.337 268.147 196.184 L 268.147 215.032 321.691 215.032 C 351.140 215.032,375.235 215.357,375.235 215.754 C 375.235 217.247,371.948 225.951,369.677 230.472 C 361.915 245.923,347.079 259.644,331.170 266.083 C 318.460 271.228,314.574 271.695,280.339 272.186 L 249.267 272.631 249.497 291.164 L 249.728 309.697 273.287 309.957 C 318.838 310.459,336.397 307.297,358.530 294.609 C 386.333 278.671,404.984 253.478,413.005 221.029 C 414.743 213.998,415.020 210.732,415.044 197.041 C 415.080 175.955,412.415 163.689,404.108 146.703 C 391.276 120.467,368.673 100.169,340.875 89.920 C 327.146 84.858,319.792 83.852,292.777 83.345 C 279.231 83.090,268.147 82.823,268.147 82.750 C 268.147 82.677,270.458 75.708,273.283 67.263 C 276.108 58.818,278.132 51.649,277.781 51.334 C 277.430 51.018,269.818 48.341,260.865 45.386 C 251.913 42.431,244.196 39.870,243.717 39.696 C 243.238 39.521,239.584 49.216,235.597 61.239 " stroke="none" fill-rule="evenodd" fill="black"></path></svg>