<svg width="136mm" height="120mm" version="1.1" viewBox="0 0 600 529.4117647058824" xmlns="http://www.w3.org/2000/svg"><path d="M240.437 46.718 C 220.466 50.491,202.622 60.185,188.733 74.806 C 172.708 91.676,164.046 112.131,163.011 135.545 C 162.092 156.336,167.191 174.823,178.727 192.520 C 182.934 198.974,197.779 213.783,204.323 218.053 C 220.724 228.756,237.405 233.789,256.684 233.849 C 277.609 233.915,296.225 227.920,312.770 215.788 C 319.694 210.710,330.868 199.157,335.202 192.593 C 340.420 184.690,345.948 172.386,348.406 163.201 C 350.479 155.458,350.699 153.192,350.699 139.642 C 350.699 126.075,350.480 123.835,348.400 116.083 C 345.656 105.862,338.430 90.855,332.488 83.039 C 327.126 75.985,317.132 66.441,310.125 61.682 C 302.218 56.313,289.879 50.751,280.379 48.276 C 269.690 45.490,250.829 44.754,240.437 46.718 M274.564 86.063 C 297.392 93.744,312.097 113.106,313.304 137.072 C 314.139 153.667,308.710 167.694,296.881 179.500 C 285.628 190.731,272.596 196.184,257.010 196.184 C 241.424 196.184,228.392 190.731,217.139 179.500 C 205.183 167.567,199.866 153.675,200.736 136.644 C 202.055 110.806,219.581 90.291,245.445 84.311 C 253.402 82.471,266.172 83.239,274.564 86.063 M139.642 215.989 C 107.834 219.628,78.093 241.733,65.053 271.427 C 44.545 318.123,64.423 372.443,110.086 394.487 C 124.008 401.208,135.199 403.726,151.208 403.740 C 169.720 403.756,184.155 399.827,200.081 390.436 C 209.533 384.862,224.157 370.812,230.027 361.665 C 250.730 329.401,250.761 289.832,230.109 257.908 C 224.898 249.851,213.067 237.674,205.103 232.169 C 192.499 223.455,176.959 217.657,161.630 215.948 C 152.425 214.921,148.919 214.928,139.642 215.989 M351.247 215.989 C 338.032 217.501,323.047 223.017,311.023 230.795 C 302.967 236.007,290.790 247.837,285.284 255.801 C 259.812 292.648,263.605 342.165,294.366 374.362 C 313.159 394.033,335.881 403.808,362.812 403.808 C 389.615 403.808,412.501 394.009,431.022 374.603 C 448.176 356.630,457.006 334.342,456.908 309.269 C 456.811 284.449,448.060 262.683,430.965 244.743 C 422.592 235.955,415.273 230.527,404.791 225.331 C 387.658 216.839,370.297 213.810,351.247 215.989 M165.757 254.987 C 180.712 258.828,193.941 269.462,201.235 283.507 C 205.922 292.532,207.582 299.382,207.582 309.697 C 207.582 325.472,202.226 338.401,191.069 349.558 C 180.202 360.425,167.134 365.954,152.064 366.060 C 142.865 366.125,136.000 364.773,128.637 361.446 C 107.731 352.002,94.872 332.293,94.872 309.697 C 94.872 281.371,114.975 258.152,143.497 253.535 C 149.008 252.643,159.225 253.310,165.757 254.987 M377.376 254.986 C 392.010 258.730,406.235 270.222,412.792 283.597 C 417.409 293.014,419.148 300.157,419.148 309.697 C 419.148 335.797,401.671 358.106,376.091 364.659 C 368.809 366.524,355.976 366.477,348.677 364.557 C 321.276 357.352,302.905 330.124,306.707 302.355 C 310.175 277.024,329.324 257.708,355.102 253.535 C 360.609 252.644,370.821 253.309,377.376 254.986 " stroke="none" fill-rule="evenodd" fill="black"></path></svg>