<svg width="136mm" height="120mm" version="1.1" viewBox="0 0 600 529.4117647058824" xmlns="http://www.w3.org/2000/svg"><path d="M242.018 46.679 C 174.212 57.608,140.883 134.456,178.751 192.556 C 182.938 198.980,197.795 213.793,204.323 218.053 C 215.541 225.372,229.877 230.986,242.446 232.982 C 249.596 234.117,264.424 234.117,271.574 232.982 C 284.143 230.986,298.479 225.372,309.697 218.053 C 316.225 213.793,331.082 198.980,335.269 192.556 C 354.806 162.580,356.571 126.027,339.973 95.094 C 321.049 59.825,281.557 40.306,242.018 46.679 M268.826 84.447 C 288.220 88.405,305.221 103.726,311.063 122.508 C 313.500 130.345,314.093 143.467,312.377 151.636 C 308.105 171.981,291.420 189.286,271.052 194.495 C 257.698 197.910,242.701 196.110,230.195 189.590 C 221.027 184.811,211.231 174.743,206.591 165.332 C 201.788 155.592,200.164 147.601,200.759 136.644 C 201.306 126.586,203.449 118.998,207.769 111.826 C 221.069 89.745,244.124 79.406,268.826 84.447 M142.212 215.935 C 106.083 219.159,73.899 244.322,62.286 278.428 C 55.456 298.488,55.291 320.012,61.817 339.682 C 70.146 364.786,90.590 386.858,114.544 396.606 C 130.558 403.123,146.404 405.320,162.497 403.252 C 220.380 395.817,258.005 339.248,241.940 283.809 C 229.249 240.018,187.878 211.861,142.212 215.935 M353.678 215.946 C 331.126 217.908,311.102 227.673,294.658 244.729 C 259.684 281.004,259.660 337.987,294.603 374.603 C 332.211 414.011,393.769 413.864,431.356 374.277 C 448.125 356.615,456.867 334.456,456.832 309.697 C 456.804 289.923,452.069 273.948,441.342 257.438 C 436.444 249.901,422.821 236.191,415.500 231.431 C 396.808 219.279,375.815 214.020,353.678 215.946 M170.467 256.461 C 185.670 261.748,199.781 275.915,204.768 290.899 C 208.708 302.740,208.399 318.937,204.016 330.222 C 198.265 345.034,184.524 358.434,170.218 363.182 C 142.988 372.219,114.135 360.799,101.154 335.848 C 96.723 327.331,95.119 320.380,95.119 309.697 C 95.119 299.032,96.723 292.064,101.123 283.605 C 108.197 270.008,121.257 259.191,135.359 255.249 C 145.423 252.436,160.379 252.952,170.467 256.461 M378.661 255.258 C 396.891 260.312,413.288 277.320,417.611 295.659 C 419.266 302.680,419.266 316.714,417.611 323.735 C 414.665 336.236,405.322 349.343,393.988 356.878 C 368.357 373.917,334.483 367.426,316.338 341.999 C 303.800 324.427,303.002 297.894,314.478 280.138 C 324.422 264.753,339.786 255.055,356.387 253.685 C 363.833 253.071,373.141 253.728,378.661 255.258 " stroke="none" fill-rule="evenodd" fill="black"></path></svg>