<svg width="136mm" height="120mm" version="1.1" viewBox="0 0 600 529.4117647058824" xmlns="http://www.w3.org/2000/svg"><path d="M242.018 46.716 C 230.393 48.653,222.212 51.405,212.481 56.652 C 182.959 72.571,164.464 101.879,163.026 135.020 C 162.102 156.343,166.813 174.186,177.854 191.174 C 183.122 199.279,197.398 213.546,205.527 218.830 C 236.557 239.000,277.463 239.000,308.493 218.830 C 311.982 216.562,318.716 210.828,323.456 206.088 C 335.960 193.583,342.486 182.851,347.354 166.785 C 350.618 156.013,351.513 148.267,350.987 135.359 C 350.426 121.615,348.029 111.771,342.295 99.666 C 337.292 89.105,333.235 83.138,325.638 75.165 C 303.719 52.161,272.694 41.606,242.018 46.716 M268.826 84.447 C 299.308 90.668,318.774 120.967,312.268 152.064 C 308.082 172.069,291.338 189.306,271.052 194.495 C 257.698 197.910,242.701 196.110,230.195 189.590 C 221.026 184.810,211.231 174.743,206.592 165.332 C 192.360 136.463,203.850 102.593,232.594 88.686 C 243.550 83.386,256.309 81.893,268.826 84.447 M142.174 215.939 C 103.959 219.270,71.319 246.392,60.470 283.827 C 51.174 315.906,59.781 350.528,83.053 374.665 C 99.073 391.281,117.545 400.486,140.525 403.305 C 150.381 404.514,152.373 404.512,162.007 403.287 C 185.098 400.351,203.728 391.042,219.417 374.603 C 255.669 336.615,254.069 277.317,215.815 241.153 C 196.082 222.498,169.871 213.524,142.174 215.939 M353.817 215.935 C 333.287 217.767,313.449 226.765,298.205 241.160 C 259.954 277.281,258.353 336.617,294.603 374.603 C 310.364 391.118,329.006 400.405,352.194 403.293 C 362.013 404.516,363.967 404.515,373.724 403.289 C 412.147 398.458,442.890 372.352,453.575 335.480 C 465.859 293.090,446.320 247.362,406.933 226.321 C 391.456 218.054,372.224 214.293,353.817 215.935 M167.034 255.256 C 185.319 260.344,201.207 276.707,206.006 295.395 C 207.840 302.536,207.835 316.891,205.997 323.985 C 201.350 341.919,186.379 358.127,169.688 363.296 C 143.233 371.489,117.789 362.335,102.873 339.256 C 92.044 322.502,92.044 296.892,102.873 280.138 C 112.817 264.753,128.181 255.055,144.782 253.685 C 152.226 253.071,161.544 253.729,167.034 255.256 M382.072 256.461 C 397.220 261.728,411.387 275.918,416.331 290.773 C 420.355 302.866,420.069 318.768,415.621 330.222 C 409.870 345.034,396.129 358.434,381.823 363.182 C 353.895 372.451,324.870 360.513,311.932 334.436 C 305.214 320.896,304.684 301.689,310.634 287.336 C 314.633 277.691,324.166 266.900,333.902 261.000 C 347.345 252.854,366.508 251.048,382.072 256.461 " stroke="none" fill-rule="evenodd" fill="black"></path></svg>