<svg width="136mm" height="120mm" version="1.1" viewBox="0 0 600 529.4117647058824" xmlns="http://www.w3.org/2000/svg"><path d="M234.450 57.113 C 234.136 57.427,233.879 65.909,233.879 75.961 L 233.879 94.237 264.292 94.237 C 281.019 94.237,294.705 94.529,294.705 94.885 C 294.705 95.241,282.947 130.802,268.575 173.910 C 254.204 217.018,242.446 252.362,242.446 252.454 C 242.446 252.545,274.347 252.759,313.338 252.929 C 382.618 253.232,384.379 253.281,390.787 255.068 C 413.024 261.272,430.437 278.725,436.184 300.570 C 438.423 309.079,438.587 324.221,436.535 332.980 C 433.714 345.023,425.785 357.340,414.686 366.922 C 405.806 374.589,388.905 381.231,378.278 381.231 L 374.378 381.231 374.378 400.079 L 374.378 418.926 379.423 418.926 C 385.709 418.926,396.519 416.911,405.584 414.050 C 435.546 404.592,460.033 380.696,470.371 350.826 C 480.875 320.476,476.894 288.401,459.257 261.295 C 444.880 239.201,419.645 222.078,394.725 217.509 C 391.544 216.926,388.942 216.224,388.942 215.949 C 388.942 215.675,400.861 179.696,415.430 135.996 L 441.918 56.542 338.470 56.542 C 281.573 56.542,234.764 56.799,234.450 57.113 M37.695 94.169 L 37.695 113.084 65.966 113.084 L 94.237 113.084 94.237 264.292 L 94.237 415.500 113.513 415.500 L 132.788 415.500 132.788 358.957 L 132.788 302.415 136.981 302.415 C 144.175 302.415,158.609 300.701,165.961 298.973 C 220.205 286.228,257.482 234.845,252.651 179.479 C 250.189 151.264,238.807 127.318,218.525 107.683 C 202.508 92.178,185.117 82.963,162.258 77.871 C 154.077 76.049,151.728 75.970,95.736 75.618 L 37.695 75.254 37.695 94.169 M388.942 95.308 C 388.942 95.897,380.043 123.076,369.166 155.705 L 349.391 215.032 322.048 215.032 C 307.009 215.032,294.705 214.932,294.705 214.811 C 294.705 214.571,333.842 97.077,334.511 95.308 C 335.101 93.747,388.942 93.747,388.942 95.308 M147.280 113.975 C 174.664 116.785,197.036 132.807,208.607 157.896 C 212.823 167.039,214.242 173.193,214.767 184.619 C 215.720 205.388,210.587 221.389,198.021 236.817 C 184.666 253.213,165.011 262.809,141.570 264.378 L 132.788 264.965 132.788 189.025 L 132.788 113.084 135.696 113.084 C 137.295 113.084,142.508 113.485,147.280 113.975 " stroke="none" fill-rule="evenodd" fill="black"></path></svg>