<svg width="136mm" height="120mm" version="1.1" viewBox="0 0 600 529.4117647058824" xmlns="http://www.w3.org/2000/svg"><path d="M234.450 57.113 C 234.136 57.427,233.879 65.909,233.879 75.961 L 233.879 94.237 264.292 94.237 C 281.019 94.237,294.705 94.529,294.705 94.885 C 294.705 95.241,282.947 130.802,268.575 173.910 C 254.204 217.018,242.446 252.362,242.446 252.453 C 242.446 252.544,274.155 252.770,312.910 252.955 C 391.087 253.329,389.015 253.185,401.299 259.093 C 418.714 267.469,432.770 284.737,436.463 302.294 C 438.342 311.223,438.171 325.432,436.087 333.579 C 433.225 344.770,428.297 353.080,418.949 362.482 C 411.833 369.638,409.694 371.230,402.635 374.618 C 394.099 378.714,384.829 381.231,378.278 381.231 L 374.378 381.231 374.378 400.079 L 374.378 418.926 379.423 418.926 C 390.369 418.926,407.584 414.349,419.783 408.195 C 475.587 380.042,493.236 309.086,457.068 258.295 C 442.251 237.488,418.349 221.867,394.645 217.500 C 391.508 216.922,388.942 216.224,388.942 215.949 C 388.942 215.674,400.700 180.180,415.071 137.072 C 429.442 93.964,441.201 58.210,441.201 57.618 C 441.201 56.761,420.281 56.542,338.111 56.542 C 281.412 56.542,234.764 56.799,234.450 57.113 M37.695 94.169 L 37.695 113.084 65.966 113.084 L 94.237 113.084 94.237 264.292 L 94.237 415.500 113.513 415.500 L 132.788 415.500 132.788 359.079 L 132.788 302.658 143.283 302.062 C 173.412 300.351,198.133 289.831,218.753 269.946 C 250.927 238.917,261.534 191.840,245.965 149.179 C 240.326 133.728,231.247 119.999,218.525 107.684 C 202.442 92.116,185.203 82.982,162.258 77.871 C 154.077 76.049,151.728 75.970,95.736 75.618 L 37.695 75.254 37.695 94.169 M388.942 94.873 C 388.942 95.222,379.981 122.401,369.028 155.270 L 349.114 215.032 321.910 215.032 C 306.947 215.032,294.705 214.932,294.705 214.811 C 294.705 214.571,333.842 97.077,334.511 95.308 C 334.823 94.482,341.106 94.237,361.929 94.237 C 376.786 94.237,388.942 94.523,388.942 94.873 M147.280 113.975 C 174.761 116.795,196.995 132.719,208.607 157.896 C 210.170 161.285,212.091 166.371,212.876 169.198 C 214.784 176.072,215.540 194.278,214.229 201.805 C 210.102 225.501,194.602 245.971,172.756 256.575 C 163.425 261.105,153.546 263.576,141.570 264.378 L 132.788 264.965 132.788 189.025 L 132.788 113.084 135.696 113.084 C 137.295 113.084,142.508 113.485,147.280 113.975 " stroke="none" fill-rule="evenodd" fill="black"></path></svg>