<svg width="136mm" height="120mm" version="1.1" viewBox="0 0 600 529.4117647058824" xmlns="http://www.w3.org/2000/svg"><path d="M234.736 75.390 L 234.736 94.237 264.720 94.237 C 281.212 94.237,294.705 94.529,294.705 94.885 C 294.705 95.241,282.947 130.802,268.575 173.910 C 254.204 217.018,242.446 252.386,242.446 252.507 C 242.446 252.628,272.237 252.727,308.649 252.727 C 350.023 252.727,377.559 253.066,382.070 253.632 C 399.006 255.755,414.847 264.854,425.032 278.308 C 433.743 289.816,437.892 302.229,437.957 316.979 C 438.008 328.290,436.334 335.519,431.231 346.035 C 427.896 352.907,426.157 355.253,419.481 361.884 C 415.171 366.164,409.432 370.964,406.728 372.549 C 399.726 376.655,388.548 380.285,380.922 380.930 L 374.378 381.483 374.378 400.205 L 374.378 418.926 378.978 418.926 C 381.507 418.926,387.001 418.338,391.186 417.619 C 420.987 412.499,446.810 394.588,462.173 368.381 C 484.955 329.519,479.084 279.942,447.800 247.008 C 439.409 238.174,429.864 231.215,418.608 225.724 C 409.767 221.412,395.370 216.752,390.869 216.747 C 389.809 216.746,388.942 216.454,388.942 216.097 C 388.942 215.741,400.861 179.696,415.430 135.996 L 441.918 56.542 338.327 56.542 L 234.736 56.542 234.736 75.390 M37.695 94.183 L 37.695 113.084 65.966 113.084 L 94.237 113.084 94.237 264.308 L 94.237 415.532 113.299 415.302 L 132.360 415.071 132.580 358.871 L 132.801 302.671 143.289 302.083 C 186.880 299.637,222.332 276.849,241.395 239.019 C 249.202 223.526,252.853 207.558,252.853 188.902 C 252.853 157.098,241.298 129.754,218.525 107.669 C 202.616 92.241,185.021 82.787,162.982 77.828 C 154.926 76.015,152.591 75.938,96.165 75.616 L 37.695 75.283 37.695 94.183 M388.942 94.873 C 388.942 95.222,379.981 122.401,369.028 155.270 L 349.114 215.032 321.910 215.032 C 306.947 215.032,294.705 214.932,294.705 214.811 C 294.705 214.571,333.842 97.077,334.511 95.308 C 334.823 94.482,341.106 94.237,361.929 94.237 C 376.786 94.237,388.942 94.523,388.942 94.873 M149.646 114.005 C 187.503 119.203,215.064 150.648,215.094 188.674 C 215.105 201.654,212.981 210.861,207.335 222.314 C 194.970 247.394,171.703 262.347,141.942 264.341 L 132.788 264.954 132.788 189.019 L 132.788 113.084 137.867 113.084 C 140.660 113.084,145.961 113.498,149.646 114.005 " stroke="none" fill-rule="evenodd" fill="black"></path></svg>