<svg width="136mm" height="120mm" version="1.1" viewBox="0 0 600 529.4117647058824" xmlns="http://www.w3.org/2000/svg"><path d="M169.665 90.425 C 121.861 114.232,82.612 133.847,82.446 134.014 C 82.199 134.261,98.151 166.865,98.950 167.747 C 99.081 167.892,134.698 150.254,178.099 128.552 L 257.010 89.095 335.921 128.552 C 379.322 150.254,414.939 167.892,415.070 167.747 C 415.893 166.839,431.818 134.257,431.563 134.002 C 431.122 133.561,257.343 47.116,256.924 47.129 C 256.736 47.135,217.469 66.618,169.665 90.425 M237.966 127.006 L 237.734 144.354 233.879 144.580 C 226.917 144.990,211.343 147.411,202.181 149.508 C 164.799 158.067,134.869 176.741,123.496 198.603 C 117.120 210.859,117.395 206.178,117.381 302.629 L 117.368 388.942 136.215 388.942 L 155.063 388.942 155.063 364.526 L 155.063 340.110 196.613 340.110 L 238.163 340.110 238.163 373.950 L 238.163 407.789 257.010 407.789 L 275.857 407.789 275.857 373.950 L 275.857 340.110 317.407 340.110 L 358.957 340.110 358.957 364.526 L 358.957 388.942 377.805 388.942 L 396.652 388.942 396.639 302.629 C 396.625 206.178,396.900 210.859,390.524 198.603 C 379.151 176.741,349.221 158.067,311.839 149.508 C 302.677 147.411,287.103 144.990,280.141 144.580 L 276.286 144.354 276.054 127.006 L 275.822 109.658 257.010 109.658 L 238.198 109.658 237.966 127.006 M238.163 204.751 L 238.163 227.025 196.613 227.025 L 155.063 227.025 155.063 223.514 C 155.063 212.916,168.460 201.138,190.186 192.634 C 203.719 187.337,223.653 182.808,234.522 182.560 L 238.163 182.477 238.163 204.751 M299.504 185.493 C 324.596 190.533,346.897 201.757,355.414 213.632 C 357.699 216.819,358.495 218.889,358.787 222.414 L 359.169 227.025 317.513 227.025 L 275.857 227.025 275.857 204.633 L 275.857 182.241 282.497 182.826 C 286.149 183.148,293.802 184.348,299.504 185.493 M238.163 283.568 L 238.163 302.415 196.613 302.415 L 155.063 302.415 155.063 283.568 L 155.063 264.720 196.613 264.720 L 238.163 264.720 238.163 283.568 M358.957 283.568 L 358.957 302.415 317.407 302.415 L 275.857 302.415 275.857 283.568 L 275.857 264.720 317.407 264.720 L 358.957 264.720 358.957 283.568 " stroke="none" fill-rule="evenodd" fill="black"></path></svg>