<svg width="136mm" height="120mm" version="1.1" viewBox="0 0 600 529.4117647058824" xmlns="http://www.w3.org/2000/svg"><path d="M169.412 90.430 C 121.941 114.199,83.100 134.036,83.100 134.511 C 83.100 134.987,86.764 142.696,91.242 151.643 L 99.385 167.911 178.197 128.503 L 257.010 89.095 335.823 128.503 L 414.635 167.911 422.778 151.643 C 427.256 142.696,430.920 134.987,430.920 134.511 C 430.920 133.564,258.534 47.089,256.798 47.166 C 256.208 47.192,216.884 66.661,169.412 90.430 M238.163 126.775 C 238.163 143.848,238.158 143.894,236.235 144.257 C 235.175 144.457,230.260 145.069,225.312 145.617 C 197.736 148.674,169.048 158.324,149.544 171.106 C 141.594 176.316,128.905 189.200,124.841 196.189 C 123.062 199.249,120.749 204.259,119.701 207.321 L 117.796 212.890 117.563 300.916 L 117.329 388.942 136.196 388.942 L 155.063 388.942 155.063 364.526 L 155.063 340.110 196.613 340.110 L 238.163 340.110 238.163 373.950 L 238.163 407.789 257.010 407.789 L 275.857 407.789 275.857 373.950 L 275.857 340.110 317.407 340.110 L 358.957 340.110 358.957 364.526 L 358.957 388.942 377.824 388.942 L 396.691 388.942 396.457 300.916 L 396.224 212.890 394.319 207.321 C 391.290 198.466,386.523 191.210,378.233 182.836 C 365.889 170.367,351.108 161.789,329.746 154.697 C 316.632 150.344,301.760 147.061,288.708 145.639 C 283.760 145.100,278.845 144.486,277.785 144.276 C 275.863 143.894,275.857 143.842,275.857 126.775 L 275.857 109.658 257.010 109.658 L 238.163 109.658 238.163 126.775 M238.163 204.323 L 238.163 226.169 196.613 226.169 L 155.063 226.169 155.071 222.956 C 155.109 207.651,185.725 189.888,221.885 184.192 C 225.419 183.635,228.889 183.066,229.596 182.928 C 230.302 182.789,232.519 182.631,234.522 182.576 L 238.163 182.477 238.163 204.323 M297.373 185.108 C 319.906 189.625,338.757 197.624,349.797 207.351 C 354.983 211.921,358.939 218.665,358.949 222.956 L 358.957 226.169 317.407 226.169 L 275.857 226.169 275.857 204.205 L 275.857 182.241 282.439 182.837 C 286.059 183.165,292.779 184.187,297.373 185.108 M238.163 283.568 L 238.163 302.415 196.613 302.415 L 155.063 302.415 155.063 283.568 L 155.063 264.720 196.613 264.720 L 238.163 264.720 238.163 283.568 M358.957 283.568 L 358.957 302.415 317.407 302.415 L 275.857 302.415 275.857 283.568 L 275.857 264.720 317.407 264.720 L 358.957 264.720 358.957 283.568 " stroke="none" fill-rule="evenodd" fill="black"></path></svg>