<svg width="136mm" height="120mm" version="1.1" viewBox="0 0 600 529.4117647058824" xmlns="http://www.w3.org/2000/svg"><path d="M170.055 90.523 C 122.465 114.343,83.349 134.002,83.130 134.208 C 82.912 134.415,86.477 142.084,91.053 151.250 L 99.373 167.917 178.192 128.506 L 257.010 89.095 335.828 128.506 L 414.647 167.917 422.967 151.250 C 427.543 142.084,431.108 134.415,430.890 134.208 C 430.401 133.747,257.099 47.100,256.798 47.166 C 256.679 47.192,217.645 66.702,170.055 90.523 M237.966 127.006 L 237.734 144.354 233.879 144.580 C 226.898 144.991,211.332 147.413,202.181 149.514 C 189.022 152.534,178.251 156.270,166.532 161.879 C 152.446 168.620,144.103 174.387,134.791 183.817 C 128.520 190.167,126.239 193.201,123.448 198.901 C 117.034 212.002,117.368 206.314,117.368 302.595 L 117.368 388.942 136.215 388.942 L 155.063 388.942 155.063 364.526 L 155.063 340.110 196.613 340.110 L 238.163 340.110 238.163 373.950 L 238.163 407.789 257.010 407.789 L 275.857 407.789 275.857 373.950 L 275.857 340.110 317.407 340.110 L 358.957 340.110 358.957 364.526 L 358.957 388.942 377.828 388.942 L 396.698 388.942 396.461 300.488 L 396.224 212.033 393.977 206.258 C 390.422 197.121,386.490 191.221,378.661 183.276 C 369.895 174.379,361.348 168.512,347.488 161.879 C 335.769 156.270,324.998 152.534,311.839 149.514 C 302.688 147.413,287.122 144.991,280.141 144.580 L 276.286 144.354 276.054 127.006 L 275.822 109.658 257.010 109.658 L 238.198 109.658 237.966 127.006 M238.163 204.751 L 238.163 227.025 196.613 227.025 L 155.063 227.025 155.071 223.385 C 155.087 215.824,163.307 206.275,175.820 199.283 C 190.987 190.806,218.665 182.921,234.522 182.560 L 238.163 182.477 238.163 204.751 M298.028 185.152 C 331.447 191.591,358.917 208.830,358.949 223.385 L 358.957 227.025 317.407 227.025 L 275.857 227.025 275.857 204.633 L 275.857 182.241 282.497 182.840 C 286.149 183.169,293.137 184.210,298.028 185.152 M238.163 283.568 L 238.163 302.415 196.613 302.415 L 155.063 302.415 155.063 283.568 L 155.063 264.720 196.613 264.720 L 238.163 264.720 238.163 283.568 M358.957 283.568 L 358.957 302.415 317.407 302.415 L 275.857 302.415 275.857 283.568 L 275.857 264.720 317.407 264.720 L 358.957 264.720 358.957 283.568 " stroke="none" fill-rule="evenodd" fill="black"></path></svg>