<svg width="136mm" height="120mm" version="1.1" viewBox="0 0 600 529.4117647058824" xmlns="http://www.w3.org/2000/svg"><path d="M332.400 119.081 L 332.400 166.200 294.705 166.200 L 257.010 166.200 257.010 185.047 L 257.010 203.895 294.705 203.895 L 332.400 203.895 332.400 260.437 L 332.400 316.979 285.281 316.979 L 238.163 316.979 238.163 336.258 L 238.163 355.537 351.461 355.319 L 464.760 355.102 464.760 336.255 L 464.760 317.407 417.427 317.186 L 370.094 316.964 370.094 260.430 L 370.094 203.895 408.218 203.895 L 446.341 203.895 446.341 185.047 L 446.341 166.200 408.218 166.200 L 370.094 166.200 370.094 119.081 L 370.094 71.963 351.247 71.963 L 332.400 71.963 332.400 119.081 M68.250 113.656 C 67.936 113.970,67.679 122.438,67.679 132.474 L 67.679 150.721 58.470 150.964 L 49.260 151.208 49.260 170.055 L 49.260 188.902 58.470 189.146 L 67.679 189.389 67.680 219.558 C 67.681 253.786,68.487 265.152,71.629 275.230 C 82.340 309.590,115.578 331.679,151.084 328.034 C 179.183 325.149,203.140 307.184,213.828 280.984 C 218.757 268.901,219.292 263.402,219.304 224.670 L 219.315 189.331 228.739 189.331 L 238.163 189.331 238.163 170.055 L 238.163 150.779 228.739 150.779 L 219.315 150.779 219.315 131.932 L 219.315 113.084 200.468 113.084 L 181.620 113.084 181.620 131.932 L 181.620 150.779 143.926 150.779 L 106.231 150.779 106.231 131.932 L 106.231 113.084 87.526 113.084 C 77.239 113.084,68.565 113.341,68.250 113.656 M181.603 221.243 C 181.594 238.794,181.234 255.586,180.805 258.557 C 178.742 272.825,168.304 284.903,154.308 289.222 C 148.764 290.932,137.965 290.853,132.526 289.062 C 122.602 285.795,114.007 278.088,109.370 268.301 L 106.659 262.579 106.410 225.955 L 106.161 189.331 143.891 189.331 L 181.620 189.331 181.603 221.243 " stroke="none" fill-rule="evenodd" fill="black"></path></svg>