<svg width="136mm" height="120mm" version="1.1" viewBox="0 0 600 529.4117647058824" xmlns="http://www.w3.org/2000/svg"><path d="M332.400 119.081 L 332.400 166.200 294.705 166.200 L 257.010 166.200 257.010 185.047 L 257.010 203.895 294.705 203.895 L 332.400 203.895 332.400 260.437 L 332.400 316.979 285.281 316.979 L 238.163 316.979 238.163 335.826 L 238.163 354.674 351.247 354.674 L 464.331 354.674 464.331 335.826 L 464.331 316.979 417.213 316.979 L 370.094 316.979 370.094 260.437 L 370.094 203.895 407.789 203.895 L 445.484 203.895 445.484 185.047 L 445.484 166.200 407.789 166.200 L 370.094 166.200 370.094 119.081 L 370.094 71.963 351.247 71.963 L 332.400 71.963 332.400 119.081 M68.536 131.915 L 68.536 150.779 59.112 150.779 L 49.689 150.779 49.689 169.598 L 49.689 188.416 58.898 188.659 L 68.108 188.902 68.556 228.311 L 69.005 267.719 71.441 275.001 C 78.758 296.881,92.499 312.460,112.722 321.803 C 125.984 327.930,144.612 329.968,159.158 326.882 C 184.042 321.603,204.952 303.743,214.234 279.839 C 218.766 268.168,219.315 262.074,219.315 223.486 L 219.315 188.474 228.739 188.474 L 238.163 188.474 238.163 169.627 L 238.163 150.779 228.739 150.779 L 219.315 150.779 219.315 131.932 L 219.315 113.084 200.468 113.084 L 181.620 113.084 181.620 131.932 L 181.620 150.779 143.942 150.779 L 106.264 150.779 106.033 132.146 L 105.802 113.513 87.169 113.282 L 68.536 113.051 68.536 131.915 M181.419 222.314 C 181.562 243.197,181.310 257.352,180.749 260.064 C 178.354 271.639,170.486 281.786,159.842 287.025 C 154.609 289.602,152.950 289.982,145.707 290.269 C 138.959 290.536,136.523 290.264,132.003 288.737 C 121.958 285.344,114.070 278.222,109.370 268.301 L 106.659 262.579 106.411 225.517 L 106.162 188.456 143.677 188.679 L 181.192 188.902 181.419 222.314 " stroke="none" fill-rule="evenodd" fill="black"></path></svg>