<svg width="136mm" height="120mm" version="1.1" viewBox="0 0 600 529.4117647058824" xmlns="http://www.w3.org/2000/svg"><path d="M332.400 119.081 L 332.400 166.200 294.705 166.200 L 257.010 166.200 257.010 185.047 L 257.010 203.895 294.705 203.895 L 332.400 203.895 332.400 260.437 L 332.400 316.979 285.281 316.979 L 238.163 316.979 238.163 336.258 L 238.163 355.537 351.461 355.319 L 464.760 355.102 464.990 336.041 L 465.221 316.979 417.658 316.979 L 370.094 316.979 370.094 260.437 L 370.094 203.895 408.218 203.895 L 446.341 203.895 446.341 185.047 L 446.341 166.200 408.218 166.200 L 370.094 166.200 370.094 119.081 L 370.094 71.963 351.247 71.963 L 332.400 71.963 332.400 119.081 M68.267 113.639 C 67.944 113.962,67.679 122.451,67.679 132.503 L 67.679 150.779 58.239 150.779 L 48.799 150.779 49.030 169.841 L 49.260 188.902 58.393 189.145 L 67.525 189.387 67.904 226.411 C 68.257 260.967,68.407 263.921,70.152 270.717 C 83.145 321.321,140.632 344.256,184.509 316.340 C 198.382 307.514,209.259 293.828,214.703 278.351 C 218.853 266.550,219.253 261.823,219.285 224.241 L 219.315 189.331 228.739 189.331 L 238.163 189.331 238.163 170.055 L 238.163 150.779 228.739 150.779 L 219.315 150.779 219.315 131.932 L 219.315 113.084 200.468 113.084 L 181.620 113.084 181.620 131.932 L 181.620 150.779 143.942 150.779 L 106.264 150.779 106.033 132.146 L 105.802 113.513 87.328 113.282 C 77.167 113.156,68.590 113.316,68.267 113.639 M181.592 220.814 C 181.577 238.130,181.229 254.897,180.820 258.074 C 179.767 266.238,175.999 273.752,169.995 279.661 C 162.099 287.432,154.742 290.433,143.497 290.470 C 126.933 290.524,113.157 280.460,107.643 264.275 C 106.421 260.690,106.231 255.364,106.231 224.731 L 106.231 189.331 143.926 189.331 L 181.620 189.331 181.592 220.814 " stroke="none" fill-rule="evenodd" fill="black"></path></svg>