<svg width="136mm" height="120mm" version="1.1" viewBox="0 0 600 529.4117647058824" xmlns="http://www.w3.org/2000/svg"><path d="M200.870 85.749 L 189.188 120.795 153.278 120.795 L 117.368 120.795 117.368 139.642 L 117.368 158.489 146.924 158.489 C 163.180 158.489,176.480 158.587,176.480 158.707 C 176.480 158.827,159.140 210.943,137.946 274.521 C 116.752 338.100,99.543 390.250,99.704 390.411 C 99.865 390.572,107.934 393.356,117.635 396.598 L 135.273 402.492 154.372 345.172 C 164.877 313.645,173.681 287.851,173.936 287.851 C 174.191 287.851,175.671 290.453,177.225 293.634 C 185.791 311.163,196.515 326.038,211.096 340.618 C 239.564 369.083,275.247 386.506,315.243 391.468 C 319.598 392.008,343.338 392.369,374.570 392.369 L 426.637 392.369 426.637 373.567 L 426.637 354.766 371.594 354.449 C 318.711 354.144,316.226 354.058,308.276 352.259 C 264.652 342.390,229.434 314.962,210.720 276.283 C 202.783 259.878,198.170 242.701,197.379 226.597 L 196.915 217.173 206.689 188.046 L 216.462 158.918 251.728 158.694 L 286.995 158.470 286.995 139.633 L 286.995 120.795 258.295 120.795 C 242.510 120.795,229.596 120.499,229.596 120.138 C 229.596 119.776,233.830 106.791,239.005 91.281 C 244.180 75.772,248.282 62.949,248.119 62.786 C 247.956 62.624,239.887 59.838,230.187 56.597 L 212.552 50.703 200.870 85.749 M350.987 127.434 C 350.417 142.953,348.066 163.256,345.258 176.909 C 342.632 189.671,338.281 205.608,337.422 205.608 C 337.007 205.608,328.579 201.560,318.692 196.613 C 308.806 191.665,300.330 187.617,299.857 187.617 C 299.145 187.617,282.711 219.219,282.711 220.588 C 282.711 220.826,291.612 225.475,302.491 230.919 C 317.820 238.589,322.156 241.113,321.763 242.139 C 320.462 245.529,311.702 257.056,306.586 262.108 C 299.385 269.220,293.190 272.935,285.410 274.807 L 279.266 276.286 279.489 294.705 L 279.713 313.124 285.281 312.903 C 299.308 312.345,316.362 304.509,329.770 292.460 C 336.249 286.639,345.671 275.123,351.576 265.807 L 356.559 257.947 379.647 269.496 C 392.345 275.849,403.004 280.875,403.334 280.666 C 404.271 280.071,420.188 247.703,419.747 247.289 C 419.531 247.086,408.753 241.630,395.795 235.164 C 382.838 228.698,372.139 223.322,372.020 223.216 C 371.901 223.110,372.595 220.743,373.562 217.957 C 381.680 194.567,387.597 159.614,388.668 128.719 L 389.211 113.084 370.363 113.084 L 351.514 113.084 350.987 127.434 " stroke="none" fill-rule="evenodd" fill="black"></path></svg>