<svg width="136mm" height="120mm" version="1.1" viewBox="0 0 600 529.4117647058824" xmlns="http://www.w3.org/2000/svg"><path d="M200.870 85.749 L 189.188 120.795 153.278 120.795 L 117.368 120.795 117.368 139.642 L 117.368 158.489 146.924 158.489 C 163.180 158.489,176.480 158.587,176.480 158.707 C 176.480 158.827,159.140 210.943,137.946 274.521 C 116.752 338.100,99.543 390.250,99.704 390.411 C 99.865 390.572,107.934 393.356,117.635 396.598 L 135.273 402.492 154.372 345.172 C 164.877 313.645,173.667 287.866,173.905 287.883 C 174.144 287.901,176.073 291.448,178.194 295.766 C 186.255 312.182,199.161 329.461,213.860 343.512 C 238.321 366.897,268.440 382.594,301.816 389.352 C 317.311 392.490,336.058 393.330,384.230 393.048 L 427.065 392.797 427.296 374.258 L 427.526 355.720 375.037 355.279 C 326.898 354.874,321.759 354.692,313.036 353.080 C 283.521 347.624,258.376 334.549,237.771 313.944 C 213.859 290.032,198.823 257.240,197.327 225.740 L 196.920 217.173 206.691 188.046 L 216.462 158.918 251.728 158.694 L 286.995 158.470 286.995 139.633 L 286.995 120.795 258.295 120.795 C 242.510 120.795,229.596 120.499,229.596 120.138 C 229.596 119.776,233.830 106.791,239.005 91.281 C 244.180 75.772,248.282 62.949,248.119 62.786 C 247.956 62.624,239.887 59.838,230.187 56.597 L 212.552 50.703 200.870 85.749 M350.997 126.149 C 350.332 142.978,348.280 160.963,345.301 176.052 C 342.568 189.900,338.342 205.608,337.349 205.608 C 336.974 205.608,328.579 201.560,318.692 196.613 C 308.806 191.665,300.330 187.617,299.857 187.617 C 299.145 187.617,282.711 219.219,282.711 220.588 C 282.711 220.826,291.578 225.458,302.415 230.881 C 313.252 236.303,322.118 241.027,322.116 241.379 C 322.113 242.277,316.343 250.758,312.314 255.789 C 307.411 261.910,298.033 269.992,293.264 272.205 C 290.994 273.258,286.920 274.561,284.210 275.100 L 279.284 276.080 279.284 294.415 C 279.284 310.590,279.449 312.813,280.684 313.286 C 282.902 314.138,294.369 312.038,302.146 309.358 C 319.002 303.548,337.149 287.979,349.880 268.405 L 356.652 257.993 379.693 269.520 C 392.365 275.859,403.004 280.875,403.334 280.666 C 404.271 280.071,420.188 247.703,419.747 247.289 C 419.531 247.086,408.753 241.630,395.795 235.164 C 382.838 228.698,372.158 223.341,372.063 223.259 C 371.968 223.177,373.048 219.461,374.463 215.002 C 382.674 189.121,387.662 158.846,388.678 128.719 L 389.205 113.084 370.359 113.084 L 351.513 113.084 350.997 126.149 " stroke="none" fill-rule="evenodd" fill="black"></path></svg>