<svg width="136mm" height="120mm" version="1.1" viewBox="0 0 600 529.4117647058824" xmlns="http://www.w3.org/2000/svg"><path d="M200.870 85.749 L 189.188 120.795 153.278 120.795 L 117.368 120.795 117.368 139.642 L 117.368 158.489 146.924 158.489 C 163.180 158.489,176.480 158.587,176.480 158.707 C 176.480 158.827,159.140 210.943,137.946 274.521 C 116.752 338.100,99.543 390.250,99.704 390.411 C 99.865 390.572,107.863 393.332,117.476 396.545 L 134.956 402.387 154.161 345.119 C 164.723 313.622,173.604 287.851,173.896 287.851 C 174.188 287.851,175.236 289.766,176.225 292.107 C 177.214 294.448,180.422 300.390,183.354 305.313 C 211.301 352.228,257.745 383.152,312.358 391.208 C 321.176 392.509,329.580 392.717,374.806 392.754 L 427.065 392.797 427.296 374.255 L 427.526 355.713 375.465 355.302 C 317.724 354.846,313.957 354.532,295.144 348.612 C 243.443 332.342,206.457 289.360,198.257 236.021 C 195.910 220.751,195.987 220.315,206.752 188.036 L 216.462 158.918 251.728 158.694 L 286.995 158.470 286.995 139.633 L 286.995 120.795 258.295 120.795 C 242.510 120.795,229.596 120.499,229.596 120.138 C 229.596 119.776,233.830 106.791,239.005 91.281 C 244.180 75.772,248.282 62.949,248.119 62.786 C 247.956 62.624,239.887 59.838,230.187 56.597 L 212.552 50.703 200.870 85.749 M350.971 127.006 C 350.036 150.963,346.775 173.111,340.935 195.182 C 339.418 200.916,337.837 205.608,337.422 205.608 C 337.007 205.608,328.579 201.560,318.692 196.613 C 308.806 191.665,300.330 187.617,299.857 187.617 C 299.145 187.617,282.711 219.219,282.711 220.588 C 282.711 220.826,291.578 225.458,302.415 230.881 C 313.252 236.303,322.119 241.055,322.119 241.440 C 322.119 242.389,313.984 254.141,310.748 257.867 C 306.121 263.195,297.814 270.017,293.420 272.098 C 291.064 273.213,286.920 274.566,284.210 275.103 L 279.284 276.080 279.284 294.415 C 279.284 310.590,279.449 312.813,280.684 313.286 C 282.902 314.138,294.369 312.038,302.146 309.358 C 320.196 303.136,339.004 286.473,352.241 264.976 L 356.567 257.951 379.651 269.498 C 392.346 275.850,403.004 280.875,403.334 280.666 C 404.271 280.071,420.188 247.703,419.747 247.289 C 419.531 247.086,408.753 241.630,395.795 235.164 C 382.838 228.698,372.163 223.346,372.073 223.269 C 371.983 223.192,372.679 220.826,373.620 218.010 C 374.560 215.194,376.829 207.107,378.663 200.039 C 384.808 176.350,387.902 154.598,388.686 129.576 L 389.202 113.084 370.359 113.084 L 351.515 113.084 350.971 127.006 " stroke="none" fill-rule="evenodd" fill="black"></path></svg>