<svg width="136mm" height="120mm" version="1.1" viewBox="0 0 600 529.4117647058824" xmlns="http://www.w3.org/2000/svg"><path d="M238.163 84.813 L 238.163 113.084 172.197 113.084 L 106.231 113.084 106.231 131.932 L 106.231 150.779 172.197 150.779 L 238.163 150.779 238.163 175.408 L 238.163 200.036 157.853 280.349 L 77.543 360.662 90.810 373.950 L 104.077 387.237 180.543 310.774 L 257.010 234.311 333.477 310.774 L 409.943 387.237 423.210 373.950 L 436.477 360.662 356.167 280.349 L 275.857 200.036 275.857 175.408 L 275.857 150.779 341.823 150.779 L 407.789 150.779 407.789 131.932 L 407.789 113.084 341.823 113.084 L 275.857 113.084 275.857 84.813 L 275.857 56.542 257.010 56.542 L 238.163 56.542 238.163 84.813 M120.792 170.058 L 107.531 183.339 135.787 211.605 L 164.043 239.871 177.546 226.388 L 191.049 212.905 162.995 184.840 C 147.565 169.405,134.740 156.776,134.496 156.776 C 134.252 156.776,128.085 162.753,120.792 170.058 M351.025 184.840 L 322.971 212.905 336.474 226.388 L 349.977 239.871 378.233 211.605 L 406.489 183.339 393.228 170.058 C 385.935 162.753,379.768 156.776,379.524 156.776 C 379.280 156.776,366.455 169.405,351.025 184.840 " stroke="none" fill-rule="evenodd" fill="black"></path></svg>