<svg width="136mm" height="120mm" version="1.1" viewBox="0 0 600 529.4117647058824" xmlns="http://www.w3.org/2000/svg"><path d="M238.163 84.808 L 238.163 113.074 171.983 113.293 L 105.802 113.513 105.572 132.146 L 105.341 150.779 171.752 150.779 L 238.163 150.779 238.163 175.408 L 238.163 200.036 157.853 280.349 L 77.543 360.662 90.810 373.950 L 104.077 387.237 180.543 310.774 L 257.010 234.311 333.477 310.774 L 409.943 387.237 423.210 373.950 L 436.477 360.662 356.167 280.349 L 275.857 200.036 275.857 175.408 L 275.857 150.779 342.268 150.779 L 408.679 150.779 408.448 132.146 L 408.218 113.513 342.037 113.293 L 275.857 113.074 275.857 84.808 L 275.857 56.542 257.010 56.542 L 238.163 56.542 238.163 84.808 M120.743 170.106 L 107.531 183.339 135.787 211.605 L 164.043 239.871 177.543 226.392 L 191.042 212.912 180.120 201.918 C 174.113 195.872,161.269 183.263,151.577 173.899 L 133.956 156.873 120.743 170.106 M351.307 184.735 L 322.871 212.890 336.424 226.381 L 349.977 239.871 378.236 211.602 L 406.496 183.332 393.120 169.956 L 379.743 156.580 351.307 184.735 " stroke="none" fill-rule="evenodd" fill="black"></path></svg>