<svg width="136mm" height="120mm" version="1.1" viewBox="0 0 600 529.4117647058824" xmlns="http://www.w3.org/2000/svg"><path d="M335.826 132.640 C 335.826 192.352,335.190 218.461,333.696 220.008 C 333.027 220.701,321.975 214.853,317.392 211.381 C 308.126 204.361,301.559 195.200,297.594 183.762 C 295.277 177.080,295.210 176.347,294.878 154.420 L 294.538 131.932 275.774 131.932 L 257.010 131.932 257.010 152.809 C 257.010 176.060,257.920 183.681,262.240 196.609 C 271.027 222.904,290.739 243.464,317.407 254.151 C 325.393 257.352,325.379 257.301,321.018 266.801 C 311.723 287.047,302.262 298.098,291.558 301.210 L 286.995 302.537 286.995 321.434 L 286.995 340.331 292.276 339.734 C 299.650 338.899,309.548 335.598,316.122 331.779 C 322.772 327.917,337.412 313.679,342.526 306.102 C 349.749 295.399,356.511 281.448,361.516 266.924 L 363.856 260.133 373.186 257.824 C 391.558 253.278,405.832 245.191,418.687 232.046 C 439.866 210.390,447.018 187.910,446.177 145.639 L 445.912 132.360 426.851 132.130 L 407.789 131.899 407.789 152.319 C 407.789 163.550,407.379 175.026,406.879 177.822 C 406.378 180.618,404.215 186.542,402.072 190.986 C 398.837 197.695,396.991 200.243,391.203 205.991 C 384.876 212.272,374.195 219.417,372.966 218.189 C 372.727 217.950,372.947 211.456,373.453 203.757 C 373.975 195.834,374.376 162.525,374.376 127.006 L 374.378 64.252 355.102 64.252 L 335.826 64.252 335.826 132.640 M64.252 117.368 L 64.252 136.215 94.595 136.215 L 124.938 136.215 83.896 259.333 C 61.323 327.048,43.139 382.706,43.487 383.019 C 43.835 383.332,51.445 386.006,60.397 388.961 C 69.350 391.916,77.116 394.496,77.655 394.693 C 78.280 394.922,88.791 364.586,106.640 311.039 L 134.645 227.025 160.146 227.025 L 185.647 227.025 186.681 238.377 C 191.358 289.719,208.228 334.604,232.575 360.484 C 243.819 372.437,254.436 379.250,267.897 383.152 L 274.572 385.087 360.242 385.087 L 445.912 385.087 446.143 366.474 L 446.374 347.861 362.615 347.626 L 278.856 347.392 273.009 344.622 C 258.556 337.777,244.555 316.949,235.134 288.280 C 227.749 265.804,224.853 247.390,223.447 213.961 L 222.411 189.331 184.790 189.331 C 155.053 189.331,147.252 189.106,147.566 188.260 C 147.784 187.671,151.772 175.720,156.428 161.702 L 164.893 136.215 203.241 136.215 L 241.589 136.215 241.589 117.368 L 241.589 98.520 152.921 98.520 L 64.252 98.520 64.252 117.368 " stroke="none" fill-rule="evenodd" fill="black"></path></svg>