<svg width="136mm" height="120mm" version="1.1" viewBox="0 0 600 529.4117647058824" xmlns="http://www.w3.org/2000/svg"><path d="M336.661 124.864 C 336.640 179.819,336.062 203.814,334.469 215.827 L 333.906 220.065 329.670 218.396 C 318.533 214.006,307.387 203.878,301.781 193.055 C 295.622 181.164,295.337 179.559,294.915 154.420 L 294.538 131.932 275.686 131.932 L 256.834 131.932 257.262 156.134 C 257.723 182.229,258.183 185.675,262.941 198.713 C 272.228 224.160,291.281 243.569,317.407 254.200 C 325.347 257.430,325.287 257.231,321.160 266.728 C 312.731 286.120,300.671 299.662,289.779 301.963 L 286.995 302.551 286.995 321.373 L 286.995 340.195 292.349 339.629 C 305.476 338.242,318.252 331.867,329.453 321.114 C 342.147 308.927,353.084 290.773,360.600 269.414 L 363.867 260.130 373.192 257.826 C 387.578 254.272,398.073 249.337,408.558 241.195 C 427.076 226.815,439.185 207.550,443.733 185.233 C 445.233 177.873,445.484 173.427,445.484 154.269 L 445.484 131.898 426.851 132.129 L 408.218 132.360 407.730 155.063 C 407.191 180.163,406.856 182.080,401.076 193.186 C 397.070 200.885,387.110 211.075,379.436 215.327 C 376.328 217.049,373.422 218.458,372.979 218.458 C 372.484 218.459,372.453 216.392,372.899 213.104 C 373.299 210.159,373.829 175.463,374.077 136.001 L 374.528 64.252 355.605 64.252 L 336.683 64.252 336.661 124.864 M64.252 117.368 L 64.252 136.215 94.595 136.215 L 124.938 136.215 83.896 259.333 C 61.323 327.048,43.139 382.706,43.487 383.019 C 43.835 383.332,51.445 386.006,60.397 388.961 C 69.350 391.916,77.116 394.496,77.655 394.693 C 78.280 394.922,88.791 364.586,106.640 311.039 L 134.645 227.025 160.139 227.025 L 185.632 227.025 186.695 238.377 C 193.218 308.078,220.877 362.614,258.312 379.588 C 270.778 385.240,265.936 384.969,360.028 385.292 L 445.484 385.585 445.484 366.727 L 445.484 347.869 362.170 347.630 L 278.856 347.392 273.287 344.727 C 262.137 339.392,252.608 328.110,243.700 309.697 C 229.750 280.863,222.826 244.675,222.760 200.254 L 222.742 188.474 185.120 188.474 L 147.498 188.474 156.198 162.345 L 164.897 136.215 203.243 136.215 L 241.589 136.215 241.589 117.368 L 241.589 98.520 152.921 98.520 L 64.252 98.520 64.252 117.368 " stroke="none" fill-rule="evenodd" fill="black"></path></svg>