<svg width="136mm" height="120mm" version="1.1" viewBox="0 0 600 529.4117647058824" xmlns="http://www.w3.org/2000/svg"><path d="M336.446 133.431 C 336.166 180.487,335.698 205.349,334.982 211.177 C 334.403 215.888,333.803 219.879,333.649 220.044 C 333.495 220.210,330.548 218.981,327.101 217.313 C 316.191 212.035,306.099 202.076,300.797 191.356 C 295.717 181.087,295.350 178.780,294.919 154.420 L 294.520 131.932 275.765 131.932 L 257.010 131.932 257.010 152.809 C 257.010 176.060,257.920 183.681,262.240 196.609 C 268.343 214.871,280.067 230.792,296.083 242.566 C 302.254 247.102,313.012 252.778,319.325 254.827 C 321.793 255.629,324.007 256.599,324.245 256.984 C 325.246 258.604,317.101 276.347,311.861 283.963 C 305.124 293.756,296.710 300.487,289.350 301.972 L 286.995 302.448 286.995 321.389 L 286.995 340.331 292.276 339.734 C 299.650 338.899,309.548 335.598,316.122 331.779 C 323.798 327.321,337.883 313.226,343.837 304.046 C 349.946 294.627,357.304 279.507,361.078 268.616 L 364.033 260.089 373.305 257.809 C 378.405 256.555,385.771 254.146,389.674 252.454 C 409.661 243.793,427.918 225.785,437.270 205.508 C 444.260 190.352,446.652 174.856,446.181 147.781 L 445.912 132.360 427.065 132.360 L 408.218 132.360 407.763 155.491 C 407.344 176.791,407.152 179.063,405.336 184.191 C 402.492 192.218,398.860 198.163,392.922 204.511 C 386.535 211.339,374.402 219.625,372.937 218.159 C 372.737 217.960,372.978 212.452,373.472 205.919 C 373.986 199.123,374.372 166.283,374.374 129.148 L 374.378 64.252 355.617 64.252 L 336.857 64.252 336.446 133.431 M64.252 117.368 L 64.252 136.215 94.595 136.215 L 124.938 136.215 83.896 259.333 C 61.323 327.048,43.139 382.706,43.487 383.017 C 44.194 383.651,78.184 395.026,78.427 394.711 C 78.512 394.600,91.099 356.923,106.399 310.982 L 134.216 227.454 160.060 227.227 L 185.904 227.000 185.904 229.714 C 185.904 235.585,188.751 257.220,191.074 269.004 C 198.735 307.858,213.346 340.093,232.518 360.437 C 243.840 372.451,254.426 379.247,267.897 383.152 L 274.572 385.087 360.242 385.087 L 445.912 385.087 446.143 366.474 L 446.374 347.861 362.615 347.626 L 278.856 347.392 273.009 344.622 C 252.791 335.047,234.272 299.007,227.107 255.297 C 224.674 240.450,223.751 229.618,223.073 207.964 L 222.490 189.331 184.921 189.331 C 164.258 189.331,147.352 189.042,147.352 188.688 C 147.352 188.335,151.240 176.384,155.991 162.131 L 164.629 136.215 203.109 136.215 L 241.589 136.215 241.589 117.368 L 241.589 98.520 152.921 98.520 L 64.252 98.520 64.252 117.368 " stroke="none" fill-rule="evenodd" fill="black"></path></svg>