<svg width="136mm" height="120mm" version="1.1" viewBox="0 0 600 529.4117647058824" xmlns="http://www.w3.org/2000/svg"><path d="M197.152 52.109 C 196.747 52.898,180.891 100.191,161.916 157.204 C 142.942 214.218,127.226 261.199,126.993 261.606 C 126.760 262.013,113.026 248.808,96.474 232.261 L 66.379 202.175 53.115 215.460 L 39.851 228.746 76.677 265.579 L 113.503 302.413 98.817 346.489 L 84.131 390.566 102.076 396.555 C 119.833 402.481,120.028 402.524,120.715 400.669 C 121.097 399.638,126.376 383.855,132.445 365.597 L 143.481 332.399 159.551 348.453 L 175.622 364.507 188.904 351.246 L 202.186 337.984 179.481 315.268 L 156.777 292.552 194.900 178.190 C 215.868 115.291,232.903 63.467,232.756 63.026 C 232.609 62.585,224.704 59.625,215.189 56.449 C 199.728 51.289,197.810 50.827,197.152 52.109 M241.787 79.459 L 242.018 98.092 309.483 98.312 C 346.589 98.432,376.948 98.723,376.948 98.957 C 376.948 99.191,365.190 122.897,350.819 151.636 L 324.689 203.889 324.689 250.582 C 324.689 276.263,324.489 297.275,324.244 297.275 C 323.999 297.275,320.344 295.540,316.122 293.420 C 311.900 291.299,308.055 289.565,307.577 289.565 C 306.858 289.565,290.421 321.156,290.421 322.537 C 290.421 322.964,361.961 358.957,362.808 358.957 C 363.046 358.957,363.241 325.802,363.241 285.279 L 363.241 211.601 400.937 136.213 L 438.632 60.826 340.094 60.826 L 241.556 60.826 241.787 79.459 M94.939 75.282 C 85.666 78.404,77.819 81.223,77.502 81.547 C 77.042 82.016,110.211 183.334,110.825 183.334 C 111.017 183.334,143.828 172.395,145.371 171.816 C 146.057 171.559,140.929 155.026,129.629 121.056 C 120.411 93.348,112.628 70.437,112.334 70.142 C 112.040 69.848,104.212 72.161,94.939 75.282 M263.650 177.815 L 247.587 185.913 266.436 223.603 C 276.803 244.333,285.481 261.293,285.720 261.293 C 287.085 261.293,318.692 244.861,318.692 244.151 C 318.692 242.187,281.760 169.630,280.781 169.672 C 280.194 169.697,272.484 173.362,263.650 177.815 M387.310 207.157 L 368.541 244.688 385.172 252.991 C 394.320 257.557,401.993 261.293,402.224 261.293 C 402.456 261.293,411.091 244.405,421.414 223.763 L 440.184 186.232 423.552 177.929 C 414.405 173.363,406.732 169.627,406.500 169.627 C 406.269 169.627,397.633 186.515,387.310 207.157 M234.077 385.301 L 234.307 403.934 342.037 404.152 L 449.767 404.369 449.767 385.518 L 449.767 366.668 341.807 366.668 L 233.846 366.668 234.077 385.301 " stroke="none" fill-rule="evenodd" fill="black"></path></svg>