<svg width="136mm" height="120mm" version="1.1" viewBox="0 0 600 529.4117647058824" xmlns="http://www.w3.org/2000/svg"><path d="M229.596 35.511 C 193.131 40.238,157.560 55.579,130.264 78.351 C 120.893 86.169,105.882 101.969,98.893 111.371 C 73.445 145.604,60.740 183.974,60.740 226.597 C 60.740 277.154,79.206 323.216,113.941 359.305 C 131.001 377.030,147.219 388.947,168.342 399.278 C 196.121 412.865,222.325 418.929,253.155 418.905 C 275.932 418.887,293.706 416.096,313.930 409.363 C 383.425 386.224,432.961 326.853,444.263 253.155 C 446.237 240.280,446.237 212.914,444.263 200.039 C 431.211 114.932,367.041 49.763,283.071 36.338 C 271.343 34.463,241.267 33.998,229.596 35.511 M270.740 72.840 C 288.084 74.937,302.173 78.885,317.407 85.919 C 335.671 94.351,348.208 103.094,362.433 117.319 C 384.899 139.785,398.488 165.020,405.362 197.041 C 407.063 204.961,407.294 208.495,407.294 226.597 C 407.294 244.700,407.063 248.233,405.362 256.153 C 400.132 280.514,390.954 300.899,376.625 319.977 C 370.023 328.767,355.325 343.466,346.535 350.067 C 324.392 366.698,299.574 376.695,271.148 380.435 C 260.124 381.885,235.000 380.975,224.077 378.730 C 192.913 372.324,166.193 358.107,144.300 336.282 C 114.454 306.528,98.554 268.406,98.554 226.597 C 98.554 184.999,114.467 146.640,143.875 117.350 C 168.694 92.629,201.257 76.703,234.736 72.913 C 244.031 71.860,262.327 71.823,270.740 72.840 M172.837 205.181 C 148.455 253.949,128.505 294.043,128.505 294.278 C 128.505 294.513,182.863 294.705,249.300 294.705 C 329.491 294.705,370.094 294.416,370.094 293.846 C 370.094 293.373,356.987 266.774,340.967 234.736 L 311.839 176.486 295.133 184.826 C 285.945 189.413,278.428 193.461,278.428 193.823 C 278.428 194.184,285.367 208.355,293.848 225.312 C 302.329 242.270,309.269 256.339,309.269 256.577 C 309.269 256.815,282.282 257.010,249.299 257.010 L 189.328 257.010 220.219 195.233 C 237.209 161.256,250.992 133.349,250.847 133.219 C 250.495 132.900,217.681 116.511,217.394 116.511 C 217.271 116.511,197.220 156.412,172.837 205.181 " stroke="none" fill-rule="evenodd" fill="black"></path></svg>