<svg width="136mm" height="120mm" version="1.1" viewBox="0 0 600 529.4117647058824" xmlns="http://www.w3.org/2000/svg"><path d="M238.163 79.245 L 238.163 101.947 175.624 101.947 L 113.084 101.947 113.084 120.795 L 113.084 139.642 174.575 139.642 L 236.066 139.642 235.793 143.283 C 234.235 164.037,228.384 198.806,222.726 220.929 C 219.166 234.848,213.630 252.677,212.502 253.856 C 212.133 254.241,195.205 246.242,174.884 236.079 C 154.563 225.917,137.641 217.602,137.280 217.602 C 136.919 217.602,132.870 225.119,128.284 234.307 L 119.944 251.012 158.493 270.290 C 179.694 280.893,197.041 289.773,197.041 290.023 C 197.041 292.499,185.481 311.696,177.672 322.189 C 159.979 345.963,139.444 359.952,118.916 362.216 L 113.513 362.812 113.282 381.446 L 113.051 400.079 117.667 400.079 C 129.334 400.079,145.996 395.391,159.521 388.304 C 184.301 375.318,209.740 347.507,227.673 313.797 L 231.421 306.752 307.655 344.872 C 349.585 365.837,384.160 382.820,384.488 382.612 C 385.425 382.017,401.340 349.650,400.900 349.235 C 400.684 349.031,366.004 331.625,323.833 310.554 C 281.662 289.483,247.053 272.148,246.925 272.033 C 246.797 271.917,248.778 265.502,251.327 257.777 C 259.054 234.363,265.276 208.070,269.348 181.620 C 271.249 169.277,274.144 144.727,274.144 140.952 C 274.144 139.789,281.235 139.642,337.540 139.642 L 400.936 139.642 400.936 120.795 L 400.936 101.947 338.397 101.947 L 275.857 101.947 275.857 79.245 L 275.857 56.542 257.010 56.542 L 238.163 56.542 238.163 79.245 " stroke="none" fill-rule="evenodd" fill="black"></path></svg>