<svg width="136mm" height="120mm" version="1.1" viewBox="0 0 600 529.4117647058824" xmlns="http://www.w3.org/2000/svg"><path d="M238.163 79.245 L 238.163 101.947 175.624 101.947 L 113.084 101.947 113.084 120.795 L 113.084 139.642 174.338 139.642 L 235.593 139.642 235.591 143.711 C 235.586 155.354,228.622 197.620,223.063 219.744 C 219.891 232.368,213.597 252.665,212.485 253.856 C 212.125 254.241,195.205 246.242,174.884 236.079 C 154.563 225.917,137.641 217.602,137.280 217.602 C 136.919 217.602,132.870 225.119,128.284 234.307 L 119.944 251.012 158.493 270.290 C 179.694 280.893,197.041 289.773,197.041 290.023 C 197.041 290.982,192.324 299.738,187.829 307.122 C 174.031 329.792,156.542 347.548,139.758 355.928 C 132.623 359.490,122.334 362.384,116.803 362.384 L 113.084 362.384 113.084 381.361 L 113.084 400.337 121.009 399.808 C 145.424 398.179,168.881 386.214,191.028 364.094 C 204.998 350.141,216.378 334.565,227.154 314.651 L 231.426 306.755 307.658 344.873 C 349.586 365.838,384.160 382.820,384.488 382.612 C 385.425 382.017,401.340 349.650,400.900 349.235 C 400.684 349.031,366.004 331.625,323.833 310.554 C 281.662 289.483,247.053 272.148,246.925 272.033 C 246.797 271.917,248.778 265.502,251.327 257.777 C 259.054 234.363,265.276 208.070,269.348 181.620 C 271.249 169.277,274.144 144.727,274.144 140.952 C 274.144 139.789,281.235 139.642,337.540 139.642 L 400.936 139.642 400.936 120.795 L 400.936 101.947 338.397 101.947 L 275.857 101.947 275.857 79.245 L 275.857 56.542 257.010 56.542 L 238.163 56.542 238.163 79.245 " stroke="none" fill-rule="evenodd" fill="black"></path></svg>