<svg width="136mm" height="120mm" version="1.1" viewBox="0 0 600 529.4117647058824" xmlns="http://www.w3.org/2000/svg"><path d="M238.163 79.245 L 238.163 101.947 175.624 101.947 L 113.084 101.947 113.084 120.795 L 113.084 139.642 174.750 139.642 L 236.416 139.642 236.007 143.283 C 233.445 166.037,232.522 172.931,230.357 185.467 C 228.973 193.482,226.141 207.012,224.064 215.535 C 220.375 230.668,213.791 252.457,212.485 253.856 C 212.125 254.241,195.183 246.231,174.836 236.056 C 154.489 225.880,137.572 217.725,137.243 217.934 C 136.306 218.529,120.390 250.897,120.830 251.311 C 121.046 251.514,138.282 260.205,159.132 270.625 C 179.982 281.044,197.041 289.906,197.041 290.319 C 197.041 291.663,189.291 305.219,183.758 313.552 C 164.484 342.580,141.663 359.708,118.916 362.216 L 113.513 362.812 113.282 381.446 L 113.051 400.079 117.667 400.079 C 128.899 400.079,142.771 396.403,156.348 389.829 C 168.562 383.914,178.806 376.350,190.616 364.525 C 204.948 350.174,216.505 334.367,227.396 314.225 L 231.432 306.758 307.661 344.875 C 349.587 365.839,384.160 382.820,384.488 382.612 C 385.425 382.017,401.340 349.650,400.900 349.235 C 400.684 349.031,366.004 331.625,323.833 310.554 C 281.662 289.483,247.053 272.148,246.926 272.033 C 246.798 271.918,248.773 265.503,251.316 257.777 C 261.715 226.175,268.852 191.718,272.859 153.778 C 273.556 147.181,274.130 141.302,274.135 140.713 C 274.142 139.866,287.399 139.642,337.540 139.642 L 400.936 139.642 400.936 120.795 L 400.936 101.947 338.397 101.947 L 275.857 101.947 275.857 79.245 L 275.857 56.542 257.010 56.542 L 238.163 56.542 238.163 79.245 " stroke="none" fill-rule="evenodd" fill="black"></path></svg>