<svg width="136mm" height="120mm" version="1.1" viewBox="0 0 600 529.4117647058824" xmlns="http://www.w3.org/2000/svg"><path d="M106.231 90.810 L 106.231 109.658 207.960 109.658 L 309.689 109.658 273.926 145.429 L 238.163 181.200 238.163 236.174 L 238.163 291.148 216.589 283.944 C 204.724 279.982,194.946 276.831,194.860 276.941 C 194.160 277.849,183.250 312.040,183.562 312.352 C 183.785 312.575,204.643 319.652,229.912 328.079 L 275.857 343.400 275.857 270.008 L 275.857 196.617 338.180 134.290 L 400.503 71.963 253.367 71.963 L 106.231 71.963 106.231 90.810 M319.372 206.811 L 304.294 236.981 320.923 245.282 C 330.068 249.848,337.740 253.583,337.971 253.583 C 338.203 253.583,345.139 240.092,353.387 223.603 L 368.382 193.623 351.416 185.132 L 334.450 176.641 319.372 206.811 M150.565 185.526 L 134.502 193.623 149.496 223.603 C 157.744 240.092,164.687 253.583,164.926 253.583 C 165.753 253.583,197.898 237.296,197.898 236.877 C 197.898 235.466,168.193 177.345,167.491 177.382 C 167.016 177.408,159.400 181.072,150.565 185.526 M94.434 366.453 L 94.665 385.087 257.010 385.087 L 419.355 385.087 419.586 366.453 L 419.816 347.820 257.010 347.820 L 94.204 347.820 94.434 366.453 " stroke="none" fill-rule="evenodd" fill="black"></path></svg>