<svg width="136mm" height="120mm" version="1.1" viewBox="0 0 600 529.4117647058824" xmlns="http://www.w3.org/2000/svg"><path d="M105.572 90.596 L 105.802 109.229 207.540 109.658 L 309.277 110.086 273.720 145.635 L 238.163 181.184 238.163 236.166 L 238.163 291.148 216.589 283.944 C 204.724 279.982,194.946 276.831,194.860 276.941 C 194.160 277.849,183.250 312.040,183.562 312.352 C 183.785 312.575,204.643 319.652,229.912 328.079 L 275.857 343.400 275.857 270.008 L 275.857 196.617 338.180 134.290 L 400.503 71.963 252.922 71.963 L 105.341 71.963 105.572 90.596 M319.372 206.811 L 304.294 236.981 320.923 245.282 C 330.068 249.848,337.740 253.583,337.971 253.583 C 338.203 253.583,345.139 240.092,353.387 223.603 L 368.382 193.623 351.416 185.132 L 334.450 176.641 319.372 206.811 M150.505 185.556 C 141.637 190.026,134.505 193.980,134.656 194.343 C 135.963 197.486,164.663 253.583,164.965 253.583 C 165.766 253.583,197.898 237.283,197.898 236.877 C 197.898 235.466,168.193 177.345,167.491 177.382 C 167.016 177.408,159.373 181.085,150.505 185.556 M94.237 366.668 L 94.237 385.515 257.010 385.515 L 419.783 385.515 419.783 366.668 L 419.783 347.820 257.010 347.820 L 94.237 347.820 94.237 366.668 " stroke="none" fill-rule="evenodd" fill="black"></path></svg>