<svg width="136mm" height="120mm" version="1.1" viewBox="0 0 600 529.4117647058824" xmlns="http://www.w3.org/2000/svg"><path d="M122.937 168.769 C 92.074 230.493,66.823 281.379,66.823 281.849 C 66.823 282.557,98.433 298.988,99.795 298.988 C 100.033 298.988,106.785 285.881,114.798 269.860 L 129.367 240.732 180.124 266.099 C 208.040 280.051,230.999 291.574,231.143 291.706 C 231.288 291.838,219.819 315.118,205.657 343.440 C 191.494 371.761,179.907 395.125,179.907 395.360 C 179.907 395.855,212.118 412.073,213.101 412.073 C 213.463 412.073,225.318 388.942,239.448 360.671 C 253.577 332.400,265.430 309.269,265.787 309.269 C 266.145 309.269,299.590 325.846,340.110 346.107 C 380.630 366.368,414.077 382.945,414.437 382.945 C 414.797 382.945,418.845 375.427,423.432 366.239 L 431.771 349.533 357.241 312.266 C 316.250 291.769,282.711 274.806,282.711 274.569 C 282.711 274.333,299.866 239.831,320.834 197.898 C 341.802 155.964,358.957 121.462,358.957 121.225 C 358.957 120.988,320.790 120.795,274.141 120.795 L 189.325 120.795 201.322 96.812 L 213.320 72.829 197.050 64.685 C 188.102 60.207,180.392 56.542,179.916 56.542 C 179.441 56.542,153.800 107.044,122.937 168.769 M273.287 208.179 L 248.440 257.868 197.682 232.500 C 169.765 218.548,146.805 207.025,146.660 206.892 C 146.515 206.760,151.817 195.815,158.443 182.570 L 170.489 158.489 234.312 158.489 L 298.135 158.489 273.287 208.179 " stroke="none" fill-rule="evenodd" fill="black"></path></svg>