<svg width="136mm" height="120mm" version="1.1" viewBox="0 0 600 529.4117647058824" xmlns="http://www.w3.org/2000/svg"><path d="M98.520 83.100 L 98.520 101.947 168.342 101.947 L 238.163 101.947 238.163 105.679 L 238.163 109.412 231.989 109.985 C 216.559 111.419,204.155 117.248,192.846 128.379 C 179.526 141.489,173.135 158.224,174.156 177.321 C 175.007 193.236,180.414 205.865,191.268 217.292 C 201.438 227.998,212.603 234.240,226.169 236.803 L 231.737 237.856 224.688 238.409 C 206.550 239.834,190.969 247.423,178.035 261.133 C 165.457 274.467,159.115 290.513,159.009 309.269 C 158.892 329.929,166.485 347.605,181.519 361.669 C 195.446 374.699,211.775 381.232,230.416 381.231 L 238.163 381.231 238.163 398.365 L 238.163 415.500 257.010 415.500 L 275.857 415.500 275.857 398.365 L 275.857 381.231 283.604 381.232 C 302.245 381.232,318.574 374.699,332.501 361.669 C 347.535 347.605,355.128 329.929,355.011 309.269 C 354.905 290.513,348.563 274.467,335.985 261.133 C 323.051 247.423,307.470 239.834,289.332 238.409 L 282.283 237.856 287.851 236.808 C 301.241 234.289,312.685 227.889,322.752 217.292 C 333.606 205.865,339.013 193.236,339.864 177.321 C 341.311 150.253,326.879 126.512,302.136 115.258 C 294.882 111.958,290.271 110.751,281.970 109.980 L 275.857 109.412 275.857 105.679 L 275.857 101.947 345.678 101.947 L 415.500 101.947 415.500 83.100 L 415.500 64.252 257.010 64.252 L 98.520 64.252 98.520 83.100 M238.163 173.978 L 238.163 200.604 235.378 200.037 C 228.511 198.639,226.169 197.709,222.548 194.945 C 212.436 187.224,209.167 174.490,214.288 162.773 C 217.915 154.473,227.408 147.842,236.235 147.440 L 238.163 147.352 238.163 173.978 M287.825 150.357 C 305.185 159.245,307.090 183.379,291.347 194.988 C 287.639 197.723,285.149 198.712,278.642 200.037 L 275.857 200.604 275.857 173.881 L 275.857 147.158 279.900 147.764 C 282.124 148.098,285.690 149.265,287.825 150.357 M238.163 309.697 L 238.163 343.537 231.462 343.537 C 219.843 343.537,210.064 338.700,203.411 329.663 C 198.200 322.583,196.811 317.789,197.183 308.160 C 197.558 298.459,200.043 292.478,206.293 286.228 C 213.389 279.132,221.038 276.005,231.523 275.915 L 238.163 275.857 238.163 309.697 M297.511 279.067 C 304.562 282.368,311.214 288.889,314.324 295.547 C 316.073 299.292,316.595 301.911,316.837 308.160 C 317.209 317.789,315.820 322.583,310.609 329.663 C 303.956 338.700,294.177 343.537,282.558 343.537 L 275.857 343.537 275.857 309.595 L 275.857 275.653 283.782 276.001 C 290.453 276.294,292.624 276.779,297.511 279.067 " stroke="none" fill-rule="evenodd" fill="black"></path></svg>