<svg width="136mm" height="120mm" version="1.1" viewBox="0 0 600 529.4117647058824" xmlns="http://www.w3.org/2000/svg"><path d="M292.667 84.709 L 259.368 118.016 208.342 101.002 C 180.277 91.645,157.247 84.078,157.163 84.187 C 156.023 85.669,145.651 119.418,146.185 119.906 C 146.592 120.277,165.236 126.657,187.617 134.084 C 209.999 141.510,228.487 147.742,228.702 147.932 C 228.917 148.122,208.581 168.792,183.511 193.866 L 137.928 239.454 151.419 252.944 L 164.909 266.435 217.382 213.966 L 269.856 161.498 319.706 178.106 C 347.124 187.241,370.117 194.756,370.801 194.807 C 371.861 194.886,376.893 181.366,383.414 160.924 C 383.795 159.731,377.160 157.270,341.855 145.510 L 299.843 131.516 326.402 104.947 C 341.009 90.334,352.960 77.990,352.960 77.516 C 352.960 76.398,327.936 51.402,326.817 51.402 C 326.349 51.402,310.982 66.390,292.667 84.709 M238.163 281.426 C 238.163 325.953,237.874 362.384,237.520 362.384 C 237.167 362.384,227.505 359.260,216.049 355.441 C 204.593 351.623,195.104 348.635,194.963 348.802 C 194.384 349.484,183.179 383.929,183.459 384.166 C 183.927 384.564,274.487 414.643,275.215 414.643 C 275.568 414.643,275.857 366.453,275.857 307.555 L 275.857 200.468 257.010 200.468 L 238.163 200.468 238.163 281.426 M147.131 313.345 L 119.076 341.410 132.579 354.893 L 146.082 368.376 174.338 340.110 L 202.594 311.844 189.333 298.563 C 182.040 291.258,175.873 285.281,175.629 285.281 C 175.385 285.281,162.561 297.910,147.131 313.345 M313.549 298.563 L 300.289 311.844 328.545 340.110 L 356.801 368.376 370.304 354.893 L 383.807 341.410 355.752 313.345 C 340.322 297.910,327.498 285.281,327.254 285.281 C 327.010 285.281,320.843 291.258,313.549 298.563 " stroke="none" fill-rule="evenodd" fill="black"></path></svg>