<svg width="136mm" height="120mm" version="1.1" viewBox="0 0 600 529.4117647058824" xmlns="http://www.w3.org/2000/svg"><path d="M324.448 115.950 L 300.131 188.902 193.312 189.120 L 86.493 189.337 86.724 207.967 L 86.955 226.597 260.651 226.813 L 434.347 227.030 434.347 208.180 L 434.347 189.331 387.228 189.331 C 361.313 189.331,340.110 189.039,340.110 188.682 C 340.110 188.325,350.095 158.083,362.300 121.477 L 384.489 54.920 366.627 48.959 L 348.765 42.998 324.448 115.950 M150.565 52.957 C 141.259 56.089,133.636 59.045,133.625 59.525 C 133.613 60.005,141.210 82.990,150.505 110.604 L 167.406 160.810 185.278 154.845 C 196.392 151.136,203.014 148.511,202.790 147.902 C 202.593 147.364,194.956 124.468,185.820 97.021 C 176.684 69.575,168.821 47.151,168.347 47.190 C 167.873 47.229,159.871 49.824,150.565 52.957 M226.169 52.872 C 216.981 55.962,209.327 58.606,209.160 58.748 C 208.433 59.364,242.677 160.203,243.613 160.203 C 244.805 160.203,277.615 149.307,278.208 148.714 C 278.975 147.947,244.878 47.118,243.874 47.186 C 243.324 47.223,235.357 49.782,226.169 52.872 M68.064 253.818 C 67.832 254.420,67.748 262.998,67.876 272.881 L 68.108 290.850 96.067 291.075 L 124.026 291.301 124.401 317.633 C 124.772 343.660,124.804 344.044,127.132 350.810 C 130.377 360.239,134.567 366.798,142.298 374.550 C 157.432 389.724,182.419 401.590,211.188 407.264 C 227.151 410.412,238.033 411.392,257.010 411.392 C 266.198 411.392,277.764 410.957,282.711 410.425 C 320.289 406.384,353.203 393.118,371.722 374.550 C 379.453 366.798,383.643 360.239,386.888 350.810 C 389.216 344.044,389.248 343.660,389.619 317.633 L 389.994 291.301 417.953 291.075 L 445.912 290.850 445.912 272.002 L 445.912 253.155 257.198 252.939 C 104.650 252.764,68.403 252.933,68.064 253.818 M351.070 315.996 L 350.819 340.714 347.593 344.853 C 337.176 358.219,311.504 368.876,280.569 372.677 C 276.329 373.198,265.727 373.624,257.010 373.624 C 248.293 373.624,237.691 373.198,233.451 372.677 C 204.755 369.151,180.459 359.722,168.523 347.480 C 162.858 341.670,162.773 341.185,162.773 314.865 L 162.773 291.278 257.047 291.278 L 351.321 291.278 351.070 315.996 " stroke="none" fill-rule="evenodd" fill="black"></path></svg>