<svg width="136mm" height="120mm" version="1.1" viewBox="0 0 600 529.4117647058824" xmlns="http://www.w3.org/2000/svg"><path d="M348.218 44.763 C 347.995 45.352,337.084 78.024,323.971 117.368 L 300.129 188.902 193.311 189.120 L 86.493 189.337 86.724 207.967 L 86.955 226.597 260.651 226.813 L 434.347 227.030 434.347 208.180 L 434.347 189.331 387.228 189.331 C 361.313 189.331,340.110 189.039,340.110 188.682 C 340.110 188.325,350.078 158.133,362.262 121.589 L 384.414 55.145 367.166 49.418 C 357.679 46.269,349.626 43.692,349.270 43.692 C 348.914 43.692,348.441 44.174,348.218 44.763 M150.779 52.872 C 141.591 55.962,133.937 58.606,133.770 58.748 C 133.062 59.349,167.286 160.203,168.198 160.203 C 170.981 160.203,203.113 148.779,202.791 147.905 C 202.593 147.365,194.956 124.468,185.820 97.021 C 176.684 69.575,168.821 47.149,168.347 47.186 C 167.873 47.223,159.967 49.782,150.779 52.872 M226.169 52.872 C 216.981 55.962,209.327 58.606,209.160 58.748 C 208.433 59.364,242.677 160.203,243.613 160.203 C 244.805 160.203,277.615 149.307,278.208 148.714 C 278.975 147.947,244.878 47.118,243.874 47.186 C 243.324 47.223,235.357 49.782,226.169 52.872 M68.064 253.818 C 67.832 254.420,67.748 262.998,67.876 272.881 L 68.108 290.850 96.540 291.075 L 124.972 291.301 125.239 319.346 L 125.507 347.392 127.773 352.771 C 131.547 361.728,135.463 367.581,142.327 374.522 C 160.620 393.022,193.739 406.385,231.309 410.425 C 236.256 410.957,247.822 411.392,257.010 411.392 C 283.256 411.392,304.043 408.382,324.261 401.654 C 354.193 391.692,374.442 376.780,384.064 357.611 C 388.481 348.813,388.942 344.984,388.942 317.081 L 388.942 291.301 417.427 291.075 L 445.912 290.850 445.912 272.002 L 445.912 253.155 257.198 252.939 C 104.650 252.764,68.403 252.933,68.064 253.818 M351.247 314.922 C 351.247 342.340,351.412 341.638,343.135 349.381 C 333.886 358.033,315.361 366.241,296.418 370.080 C 283.076 372.784,273.734 373.624,257.010 373.624 C 240.286 373.624,230.944 372.784,217.602 370.080 C 202.507 367.021,185.711 360.464,176.202 353.920 C 171.650 350.786,164.716 343.396,163.617 340.506 C 163.137 339.243,162.773 328.150,162.773 314.781 L 162.773 291.278 257.010 291.278 L 351.247 291.278 351.247 314.922 " stroke="none" fill-rule="evenodd" fill="black"></path></svg>