<svg width="136mm" height="120mm" version="1.1" viewBox="0 0 600 529.4117647058824" xmlns="http://www.w3.org/2000/svg"><path d="M150.779 60.582 C 141.591 63.672,133.937 66.316,133.770 66.458 C 133.505 66.683,170.204 177.708,171.035 179.196 C 171.378 179.809,204.680 169.008,205.917 167.881 C 206.842 167.039,169.521 54.804,168.346 54.896 C 167.873 54.934,159.967 57.492,150.779 60.582 M226.169 60.582 C 216.981 63.672,209.327 66.316,209.160 66.458 C 208.894 66.683,245.593 177.708,246.425 179.195 C 246.601 179.511,254.799 177.081,264.643 173.796 L 282.541 167.822 263.706 111.326 C 252.812 78.647,244.451 54.857,243.873 54.896 C 243.324 54.934,235.357 57.492,226.169 60.582 M326.189 133.003 L 300.131 211.177 203.181 211.394 L 106.231 211.612 106.231 230.456 L 106.231 249.300 128.506 249.300 L 150.781 249.300 118.226 314.407 C 100.320 350.216,85.670 379.808,85.670 380.169 C 85.670 380.529,93.187 384.576,102.375 389.163 L 119.080 397.503 135.858 363.956 L 152.636 330.409 188.335 366.100 C 207.970 385.731,224.414 401.792,224.877 401.792 C 225.996 401.792,251.013 376.789,251.013 375.670 C 251.013 375.191,232.926 356.716,210.820 334.613 L 170.627 294.426 181.899 271.863 L 193.171 249.300 258.931 249.300 L 324.692 249.300 292.136 314.407 C 274.230 350.216,259.580 379.808,259.580 380.169 C 259.580 380.529,267.024 384.540,276.122 389.082 L 292.665 397.340 309.311 364.013 C 318.466 345.683,326.152 330.686,326.390 330.686 C 326.628 330.686,342.919 346.778,362.591 366.446 L 398.359 402.206 411.645 388.942 L 424.930 375.677 384.454 335.193 L 343.977 294.710 355.320 272.005 L 366.663 249.300 391.081 249.300 L 415.500 249.300 415.500 230.452 L 415.500 211.605 377.805 211.605 C 357.073 211.605,340.110 211.313,340.110 210.957 C 340.110 210.600,350.897 177.952,364.081 138.406 C 377.265 98.860,387.963 66.436,387.855 66.352 C 387.446 66.038,353.363 54.829,352.817 54.829 C 352.503 54.829,340.520 90.007,326.189 133.003 " stroke="none" fill-rule="evenodd" fill="black"></path></svg>