<svg width="136mm" height="120mm" version="1.1" viewBox="0 0 600 529.4117647058824" xmlns="http://www.w3.org/2000/svg"><path d="M150.779 60.582 C 141.591 63.672,133.937 66.316,133.770 66.458 C 133.459 66.722,170.434 178.301,171.071 179.021 C 171.557 179.570,206.465 167.925,206.465 167.214 C 206.465 165.133,169.034 54.842,168.346 54.896 C 167.873 54.934,159.967 57.492,150.779 60.582 M226.169 60.582 C 216.981 63.672,209.327 66.316,209.160 66.458 C 208.894 66.683,245.593 177.708,246.425 179.195 C 246.601 179.511,254.799 177.081,264.643 173.796 L 282.541 167.822 263.706 111.326 C 252.812 78.647,244.451 54.857,243.873 54.896 C 243.324 54.934,235.357 57.492,226.169 60.582 M326.189 133.003 L 300.131 211.177 202.752 211.394 L 105.374 211.612 105.374 230.456 L 105.374 249.300 128.078 249.300 L 150.781 249.300 118.226 314.407 C 100.320 350.216,85.670 379.808,85.670 380.169 C 85.670 380.529,93.187 384.576,102.375 389.163 L 119.080 397.503 135.858 363.956 L 152.636 330.409 188.498 366.263 L 224.360 402.117 237.472 389.344 C 244.684 382.319,250.694 376.157,250.828 375.651 C 250.961 375.145,232.950 356.703,210.804 334.669 L 170.536 294.607 181.854 271.953 L 193.171 249.300 258.931 249.300 L 324.692 249.300 292.136 314.407 C 274.230 350.216,259.580 379.808,259.580 380.169 C 259.580 380.529,267.097 384.576,276.285 389.163 L 292.990 397.503 309.768 363.956 L 326.546 330.409 362.456 366.311 L 398.366 402.213 411.711 388.868 L 425.056 375.523 384.635 335.299 L 344.213 295.074 355.647 272.187 L 367.081 249.300 391.290 249.300 L 415.500 249.300 415.500 230.452 L 415.500 211.605 377.713 211.605 C 347.845 211.605,340.009 211.380,340.320 210.534 C 343.121 202.919,388.181 66.645,387.960 66.458 C 387.524 66.087,353.500 54.829,352.817 54.829 C 352.503 54.829,340.520 90.007,326.189 133.003 " stroke="none" fill-rule="evenodd" fill="black"></path></svg>