<svg width="136mm" height="120mm" version="1.1" viewBox="0 0 600 529.4117647058824" xmlns="http://www.w3.org/2000/svg"><path d="M121.497 120.688 C 112.224 123.809,104.377 126.628,104.059 126.952 C 103.616 127.404,150.753 270.866,152.188 273.433 C 152.531 274.047,185.833 263.244,187.071 262.116 C 187.735 261.511,140.178 116.833,138.892 115.547 C 138.598 115.253,130.770 117.566,121.497 120.688 M215.734 120.688 C 206.461 123.809,198.614 126.628,198.296 126.952 C 197.853 127.404,244.990 270.866,246.425 273.432 C 246.601 273.748,254.799 271.318,264.643 268.032 L 282.542 262.059 258.229 189.132 C 244.857 149.023,233.619 115.937,233.255 115.609 C 232.892 115.280,225.007 117.566,215.734 120.688 M352.792 215.969 L 319.126 316.979 189.976 316.979 L 60.826 316.979 60.826 335.826 L 60.826 354.674 260.865 354.674 L 460.905 354.674 460.905 335.826 L 460.905 316.979 409.931 316.979 C 381.895 316.979,358.957 316.881,358.957 316.760 C 358.957 316.640,373.183 273.869,390.570 221.712 L 422.183 126.882 404.320 120.921 L 386.458 114.960 352.792 215.969 " stroke="none" fill-rule="evenodd" fill="black"></path></svg>