<svg width="136mm" height="120mm" version="1.1" viewBox="0 0 600 529.4117647058824" xmlns="http://www.w3.org/2000/svg"><path d="M120.665 120.945 L 102.973 126.878 127.422 200.297 C 140.869 240.677,151.941 273.806,152.025 273.916 C 152.295 274.267,186.301 262.818,187.071 262.116 C 187.735 261.511,140.178 116.833,138.892 115.547 C 138.598 115.253,130.396 117.682,120.665 120.945 M215.734 120.648 C 206.461 123.791,198.614 126.628,198.296 126.952 C 197.853 127.404,244.990 270.866,246.425 273.432 C 246.601 273.748,254.798 271.318,264.641 268.033 L 282.537 262.061 257.997 188.429 C 244.500 147.932,233.263 114.828,233.026 114.865 C 232.788 114.903,225.007 117.505,215.734 120.648 M352.793 215.967 L 319.128 316.974 189.763 317.190 L 60.397 317.407 60.397 336.255 L 60.397 355.102 260.651 355.318 L 460.905 355.534 460.905 336.257 L 460.905 316.979 409.931 316.979 C 381.895 316.979,358.957 316.881,358.957 316.760 C 358.957 316.640,373.183 273.869,390.570 221.712 L 422.183 126.882 404.320 120.921 L 386.458 114.960 352.793 215.967 " stroke="none" fill-rule="evenodd" fill="black"></path></svg>