<svg width="136mm" height="120mm" version="1.1" viewBox="0 0 600 529.4117647058824" xmlns="http://www.w3.org/2000/svg"><path d="M75.587 79.459 L 75.818 98.092 156.990 98.311 L 238.163 98.529 238.163 116.048 L 238.163 133.568 234.950 134.121 C 199.565 140.222,166.706 161.538,147.203 191.044 C 131.973 214.084,125.119 236.770,125.053 264.349 C 124.966 301.033,139.245 334.415,165.889 359.814 C 217.158 408.690,296.472 408.690,348.102 359.814 C 374.663 334.669,389.054 301.052,388.967 264.349 C 388.903 237.648,381.944 213.958,367.937 192.757 C 347.157 161.307,315.464 140.396,279.070 134.121 L 275.857 133.568 275.857 116.048 L 275.857 98.529 357.030 98.311 L 438.202 98.092 438.433 79.459 L 438.664 60.826 257.010 60.826 L 75.356 60.826 75.587 79.459 M238.163 209.035 L 238.163 245.873 201.256 245.873 L 164.350 245.873 164.943 243.089 C 165.268 241.557,166.315 237.991,167.268 235.164 C 175.163 211.751,191.347 192.515,212.682 181.189 C 219.585 177.524,233.680 172.249,236.663 172.214 C 238.068 172.198,238.163 174.515,238.163 209.035 M286.193 174.739 C 315.155 184.443,336.998 206.237,346.752 235.164 C 347.705 237.991,348.752 241.557,349.077 243.089 L 349.670 245.873 312.764 245.873 L 275.857 245.873 275.857 209.035 C 275.857 175.814,275.992 172.197,277.230 172.197 C 277.985 172.197,282.018 173.341,286.193 174.739 M238.163 320.291 L 238.163 357.014 232.661 355.488 C 202.060 347.003,177.540 324.061,167.696 294.705 C 166.511 291.171,165.297 287.219,164.998 285.924 L 164.454 283.568 201.308 283.568 L 238.163 283.568 238.163 320.291 M349.022 285.924 C 343.917 308.032,328.418 330.172,309.070 342.999 C 301.311 348.142,290.852 352.856,281.359 355.488 L 275.857 357.014 275.857 320.291 L 275.857 283.568 312.712 283.568 L 349.566 283.568 349.022 285.924 " stroke="none" fill-rule="evenodd" fill="black"></path></svg>