<svg width="136mm" height="120mm" version="1.1" viewBox="0 0 600 529.4117647058824" xmlns="http://www.w3.org/2000/svg"><path d="M75.587 79.459 L 75.818 98.092 156.990 98.311 L 238.163 98.529 238.163 115.970 L 238.163 133.411 230.735 134.886 C 214.147 138.180,198.548 144.724,183.780 154.583 C 154.655 174.027,135.300 202.666,127.446 237.941 C 124.914 249.315,124.698 277.397,127.053 289.004 C 142.918 367.183,221.238 413.884,296.847 390.248 C 317.360 383.835,334.298 373.472,349.993 357.733 C 369.208 338.463,380.538 317.687,386.580 290.643 C 388.174 283.506,388.448 279.650,388.448 264.292 C 388.448 248.934,388.174 245.078,386.580 237.941 C 374.728 184.888,334.880 145.132,283.285 134.886 L 275.857 133.411 275.857 115.970 L 275.857 98.529 357.030 98.311 L 438.202 98.092 438.433 79.459 L 438.664 60.826 257.010 60.826 L 75.356 60.826 75.587 79.459 M238.163 209.035 L 238.163 245.873 201.256 245.873 L 164.350 245.873 164.949 243.089 C 166.240 237.088,171.433 223.956,174.936 217.830 C 183.441 202.961,197.712 189.061,212.443 181.297 C 219.578 177.537,233.678 172.249,236.663 172.214 C 238.068 172.198,238.163 174.515,238.163 209.035 M285.451 174.440 C 313.415 183.259,335.854 204.833,345.620 232.289 C 347.189 236.697,348.741 241.557,349.071 243.089 L 349.670 245.873 312.764 245.873 L 275.857 245.873 275.857 209.035 C 275.857 177.444,276.034 172.197,277.098 172.197 C 277.781 172.197,281.539 173.206,285.451 174.440 M238.163 319.977 C 238.163 361.921,239.356 357.822,228.206 354.188 C 196.918 343.990,172.264 317.363,164.998 285.924 L 164.454 283.568 201.308 283.568 L 238.163 283.568 238.163 319.977 M349.110 285.495 C 347.008 293.016,343.792 301.914,341.602 306.270 C 333.404 322.581,319.954 336.902,304.310 345.978 C 297.340 350.022,284.479 355.230,279.498 356.025 L 275.857 356.606 275.857 320.087 L 275.857 283.568 312.753 283.568 L 349.649 283.568 349.110 285.495 " stroke="none" fill-rule="evenodd" fill="black"></path></svg>