<svg width="136mm" height="120mm" version="1.1" viewBox="0 0 600 529.4117647058824" xmlns="http://www.w3.org/2000/svg"><path d="M75.587 79.459 L 75.818 98.092 156.990 98.311 L 238.163 98.529 238.163 116.048 L 238.163 133.568 234.950 134.121 C 194.240 141.140,158.493 167.277,139.781 203.706 C 124.691 233.082,121.052 265.620,129.263 297.751 C 139.779 338.901,170.972 373.400,211.042 388.197 C 279.469 413.466,355.106 378.743,380.898 310.221 C 389.879 286.359,391.451 257.274,385.119 232.135 C 372.436 181.784,330.450 142.979,279.070 134.121 L 275.857 133.568 275.857 116.048 L 275.857 98.529 357.030 98.311 L 438.202 98.092 438.433 79.459 L 438.664 60.826 257.010 60.826 L 75.356 60.826 75.587 79.459 M238.163 209.035 L 238.163 245.873 201.325 245.873 C 181.064 245.873,164.486 245.769,164.486 245.642 C 164.486 245.514,165.285 242.526,166.262 239.002 C 173.206 213.932,191.158 192.020,214.408 180.237 C 220.502 177.148,234.106 172.244,236.663 172.214 C 238.068 172.198,238.163 174.515,238.163 209.035 M286.215 174.747 C 316.388 184.856,339.420 208.903,347.758 239.002 C 348.735 242.526,349.534 245.514,349.534 245.642 C 349.534 245.769,332.956 245.873,312.695 245.873 L 275.857 245.873 275.857 209.035 C 275.857 175.814,275.992 172.197,277.230 172.197 C 277.985 172.197,282.028 173.344,286.215 174.747 M238.163 320.361 L 238.163 357.155 235.807 356.423 C 234.511 356.020,231.330 355.043,228.739 354.250 C 205.657 347.191,185.809 330.683,173.600 308.391 C 171.224 304.054,164.486 285.981,164.486 283.947 C 164.486 283.738,181.064 283.568,201.325 283.568 L 238.163 283.568 238.163 320.361 M349.534 283.947 C 349.534 285.981,342.796 304.054,340.420 308.391 C 328.211 330.683,308.363 347.191,285.281 354.250 C 282.690 355.043,279.509 356.020,278.213 356.423 L 275.857 357.155 275.857 320.361 L 275.857 283.568 312.695 283.568 C 332.956 283.568,349.534 283.738,349.534 283.947 " stroke="none" fill-rule="evenodd" fill="black"></path></svg>