<svg width="136mm" height="120mm" version="1.1" viewBox="0 0 600 529.4117647058824" xmlns="http://www.w3.org/2000/svg"><path d="M75.587 79.459 L 75.818 98.092 156.990 98.311 L 238.163 98.529 238.163 108.316 L 238.163 118.103 233.237 119.073 C 201.404 125.340,177.508 138.238,155.790 160.875 C 137.558 179.880,125.169 203.859,119.769 230.600 C 116.978 244.416,117.011 270.280,119.836 283.568 C 127.869 321.354,148.965 352.769,180.057 373.246 C 206.381 390.583,237.863 398.668,268.353 395.922 C 287.191 394.225,300.655 390.613,316.829 382.915 C 386.502 349.756,415.916 267.429,383.229 197.070 C 371.039 170.831,347.733 146.664,321.485 133.046 C 307.923 126.010,293.611 121.167,279.070 118.693 L 275.857 118.147 275.857 108.338 L 275.857 98.529 357.030 98.311 L 438.202 98.092 438.433 79.459 L 438.664 60.826 257.010 60.826 L 75.356 60.826 75.587 79.459 M238.163 197.469 L 238.163 238.163 197.401 238.163 L 156.640 238.163 157.235 235.378 C 160.849 218.473,171.271 198.853,183.205 186.489 C 192.322 177.044,205.248 168.081,216.981 163.068 C 222.871 160.552,234.321 156.925,236.663 156.834 C 238.071 156.780,238.163 159.263,238.163 197.469 M288.501 159.874 C 313.741 168.113,334.627 185.763,347.016 209.323 C 350.854 216.622,355.459 228.880,356.804 235.378 L 357.380 238.163 316.619 238.163 L 275.857 238.163 275.857 197.374 L 275.857 156.585 278.878 157.152 C 280.540 157.464,284.870 158.689,288.501 159.874 M238.163 316.460 L 238.163 357.062 234.522 356.268 C 205.755 350.001,178.592 328.586,165.763 302.060 C 162.103 294.491,158.441 284.293,157.354 278.642 L 156.819 275.857 197.491 275.857 L 238.163 275.857 238.163 316.460 M356.918 277.357 C 356.676 278.181,355.887 281.192,355.166 284.046 C 346.458 318.520,315.016 348.530,279.498 356.268 L 275.857 357.062 275.857 316.460 L 275.857 275.857 316.608 275.857 C 355.016 275.857,357.334 275.944,356.918 277.357 " stroke="none" fill-rule="evenodd" fill="black"></path></svg>