<svg width="136mm" height="120mm" version="1.1" viewBox="0 0 600 529.4117647058824" xmlns="http://www.w3.org/2000/svg"><path d="M75.390 117.368 L 75.390 136.215 105.732 136.215 L 136.075 136.215 102.734 236.231 C 84.396 291.239,69.393 336.648,69.393 337.140 C 69.393 337.855,104.614 349.841,105.025 349.266 C 105.088 349.178,115.151 319.035,127.388 282.283 L 149.636 215.460 175.052 215.233 C 189.031 215.108,200.468 215.111,200.468 215.239 C 200.468 215.367,189.673 247.850,176.480 287.423 C 163.287 326.996,152.493 359.637,152.493 359.959 C 152.493 360.677,187.397 372.335,187.878 371.778 C 188.068 371.559,199.994 336.298,214.381 293.420 L 240.539 215.460 262.053 215.231 C 273.886 215.105,283.568 215.108,283.568 215.237 C 283.568 215.366,272.773 247.850,259.580 287.423 C 246.387 326.996,235.593 359.637,235.593 359.959 C 235.593 360.779,270.521 372.290,271.138 371.673 C 271.415 371.396,283.326 336.134,297.608 293.314 L 323.574 215.460 334.604 215.631 C 348.063 215.839,355.976 217.488,364.772 221.916 C 381.327 230.249,394.035 245.674,398.414 262.749 C 400.771 271.945,400.774 286.646,398.420 295.807 C 395.585 306.840,390.571 315.392,381.686 324.349 C 370.212 335.915,357.750 342.007,343.017 343.253 L 336.683 343.788 336.683 362.510 L 336.683 381.231 341.283 381.231 C 347.938 381.231,359.953 378.961,368.568 376.074 C 422.195 358.108,451.057 300.066,432.885 246.730 C 421.812 214.228,394.865 189.321,361.527 180.772 C 349.426 177.669,338.649 177.338,249.514 177.338 C 201.806 177.337,162.773 177.043,162.773 176.684 C 162.773 176.324,168.556 158.692,175.624 137.500 C 182.691 116.309,188.474 98.869,188.474 98.745 C 188.474 98.622,163.030 98.520,131.932 98.520 L 75.390 98.520 75.390 117.368 " stroke="none" fill-rule="evenodd" fill="black"></path></svg>