<svg width="136mm" height="120mm" version="1.1" viewBox="0 0 600 529.4117647058824" xmlns="http://www.w3.org/2000/svg"><path d="M75.587 117.154 L 75.818 135.787 106.017 136.012 C 122.626 136.136,136.215 136.331,136.215 136.445 C 136.215 136.559,121.185 181.740,102.814 236.849 C 84.443 291.957,69.697 337.300,70.045 337.612 C 70.752 338.245,104.742 349.621,104.985 349.306 C 105.070 349.195,115.151 319.035,127.388 282.283 L 149.636 215.460 175.052 215.233 C 189.031 215.108,200.468 215.111,200.468 215.239 C 200.468 215.367,189.673 247.850,176.480 287.423 C 163.287 326.996,152.493 359.637,152.493 359.959 C 152.493 360.779,187.421 372.290,188.038 371.673 C 188.315 371.396,200.221 336.134,214.495 293.314 L 240.447 215.460 262.008 215.231 C 273.866 215.105,283.568 215.108,283.568 215.237 C 283.568 215.366,272.773 247.850,259.580 287.423 C 246.387 326.996,235.593 359.637,235.593 359.959 C 235.593 360.779,270.521 372.290,271.138 371.673 C 271.415 371.396,283.320 336.134,297.592 293.314 L 323.543 215.460 330.327 215.200 C 358.665 214.114,381.662 227.200,393.811 251.325 C 402.065 267.717,402.340 289.410,394.508 306.516 C 388.230 320.230,375.275 332.678,361.053 338.664 C 355.437 341.028,344.452 343.537,339.718 343.537 L 336.683 343.537 336.683 362.384 L 336.683 381.231 341.283 381.231 C 347.979 381.231,359.969 378.955,368.724 376.022 C 422.668 357.949,451.412 298.587,432.159 245.016 C 419.108 208.703,386.639 182.984,347.843 178.227 C 343.248 177.664,307.946 177.337,251.678 177.337 C 202.780 177.337,162.773 177.043,162.773 176.684 C 162.773 176.324,168.556 158.692,175.624 137.500 C 182.691 116.309,188.474 98.869,188.474 98.745 C 188.474 98.622,163.022 98.520,131.915 98.520 L 75.356 98.520 75.587 117.154 " stroke="none" fill-rule="evenodd" fill="black"></path></svg>