<svg width="136mm" height="120mm" version="1.1" viewBox="0 0 600 529.4117647058824" xmlns="http://www.w3.org/2000/svg"><path d="M75.587 117.154 L 75.818 135.787 106.017 136.012 C 122.626 136.136,136.215 136.331,136.215 136.445 C 136.215 136.559,121.185 181.740,102.814 236.849 C 84.443 291.957,69.697 337.300,70.045 337.612 C 70.752 338.245,104.742 349.621,104.985 349.306 C 105.070 349.195,115.151 319.035,127.388 282.283 L 149.636 215.460 175.052 215.233 C 189.031 215.108,200.468 215.111,200.468 215.239 C 200.468 215.367,189.673 247.850,176.480 287.423 C 163.287 326.996,152.493 359.637,152.493 359.959 C 152.493 360.779,187.421 372.290,188.038 371.673 C 188.315 371.396,200.221 336.134,214.495 293.314 L 240.447 215.460 262.008 215.231 C 273.866 215.105,283.568 215.108,283.568 215.237 C 283.568 215.366,272.773 247.850,259.580 287.423 C 246.387 326.996,235.593 359.637,235.593 359.959 C 235.593 360.779,270.521 372.290,271.138 371.673 C 271.415 371.396,283.327 336.134,297.608 293.314 L 323.574 215.460 335.059 215.656 C 348.694 215.888,357.319 217.788,365.745 222.416 C 387.850 234.558,400.104 254.836,400.064 279.207 C 400.044 291.315,398.400 298.602,393.476 308.412 C 390.088 315.162,388.073 317.867,381.670 324.261 C 377.339 328.587,371.505 333.393,368.381 335.211 C 361.443 339.247,351.088 342.522,342.680 343.340 L 336.255 343.965 336.024 362.598 L 335.793 381.231 340.838 381.231 C 351.985 381.231,369.850 376.673,381.422 370.875 C 437.829 342.615,455.540 271.764,419.095 220.172 C 405.765 201.301,384.264 186.567,361.624 180.789 C 349.388 177.666,338.741 177.338,249.514 177.338 C 201.806 177.337,162.773 177.043,162.773 176.684 C 162.773 176.324,168.556 158.692,175.624 137.500 C 182.691 116.309,188.474 98.869,188.474 98.745 C 188.474 98.622,163.022 98.520,131.915 98.520 L 75.356 98.520 75.587 117.154 " stroke="none" fill-rule="evenodd" fill="black"></path></svg>