<svg width="136mm" height="120mm" version="1.1" viewBox="0 0 600 529.4117647058824" xmlns="http://www.w3.org/2000/svg"><path d="M238.163 103.535 L 238.163 169.375 233.665 169.001 C 202.636 166.424,170.250 157.254,151.038 145.606 C 138.178 137.810,131.673 131.532,127.547 122.936 L 125.080 117.796 125.079 91.024 L 125.078 64.252 105.802 64.252 L 86.527 64.252 86.527 88.477 C 86.527 101.800,86.928 115.905,87.419 119.820 C 89.328 135.042,96.179 147.917,109.135 160.631 C 118.191 169.518,126.208 175.269,138.838 181.938 C 164.042 195.247,192.533 202.794,233.237 206.943 L 238.163 207.445 238.163 226.567 C 238.163 248.142,238.666 246.720,231.025 246.743 C 225.439 246.760,206.248 249.470,194.471 251.905 C 167.316 257.519,140.698 268.320,122.508 281.105 C 113.754 287.258,102.143 298.957,97.254 306.549 C 92.143 314.488,88.563 324.250,87.419 333.374 C 86.928 337.290,86.527 351.394,86.527 364.718 L 86.527 388.942 105.769 388.942 L 125.011 388.942 125.259 361.313 C 125.506 333.781,125.514 333.670,127.648 329.429 C 134.694 315.430,158.190 300.871,187.109 292.585 C 201.130 288.568,225.176 284.424,234.467 284.424 L 238.163 284.424 238.163 349.962 L 238.163 415.500 257.010 415.500 L 275.857 415.500 275.857 349.962 L 275.857 284.424 279.553 284.424 C 284.659 284.424,300.570 286.586,310.780 288.667 C 348.147 296.282,378.200 312.695,386.360 329.944 L 388.940 335.398 388.941 362.170 L 388.942 388.942 408.218 388.942 L 427.493 388.942 427.493 364.718 C 427.493 351.394,427.092 337.290,426.601 333.374 C 424.720 318.375,417.887 305.389,405.331 292.947 C 382.311 270.139,346.026 254.986,298.646 248.395 C 292.059 247.479,284.847 246.730,282.619 246.730 C 275.415 246.730,275.857 248.048,275.857 226.567 L 275.857 207.445 280.783 206.943 C 321.487 202.794,349.978 195.247,375.182 181.938 C 387.812 175.269,395.829 169.518,404.885 160.631 C 417.841 147.917,424.692 135.042,426.601 119.820 C 427.092 115.905,427.493 101.800,427.493 88.477 L 427.493 64.252 408.218 64.252 L 388.942 64.252 388.941 91.024 L 388.940 117.796 386.473 122.936 C 382.347 131.532,375.842 137.810,362.982 145.606 C 343.770 157.254,311.384 166.424,280.355 169.001 L 275.857 169.375 275.857 103.535 L 275.857 37.695 257.010 37.695 L 238.163 37.695 238.163 103.535 " stroke="none" fill-rule="evenodd" fill="black"></path></svg>