<svg width="136mm" height="120mm" version="1.1" viewBox="0 0 600 529.4117647058824" xmlns="http://www.w3.org/2000/svg"><path d="M238.163 103.535 L 238.163 169.375 233.665 169.001 C 199.739 166.183,165.617 155.779,145.507 142.122 C 138.408 137.302,130.298 128.949,127.648 123.729 C 125.513 119.523,125.506 119.425,125.259 91.881 L 125.011 64.252 106.197 64.252 L 87.383 64.252 87.396 92.738 C 87.410 124.862,87.775 127.714,93.343 139.214 C 110.185 174.001,159.729 199.180,224.779 206.011 C 231.642 206.732,237.461 207.321,237.710 207.321 C 237.959 207.321,238.163 215.995,238.163 226.597 C 238.163 237.199,237.959 245.873,237.710 245.873 C 237.461 245.873,231.642 246.463,224.779 247.183 C 159.695 254.018,110.193 279.175,93.343 313.981 C 87.775 325.480,87.410 328.332,87.396 360.457 L 87.383 388.942 106.197 388.942 L 125.011 388.942 125.259 361.313 C 125.506 333.769,125.513 333.672,127.648 329.466 C 130.298 324.246,138.408 315.892,145.507 311.072 C 165.617 297.415,199.739 287.011,233.665 284.193 L 238.163 283.819 238.163 349.659 L 238.163 415.500 257.010 415.500 L 275.857 415.500 275.857 349.639 L 275.857 283.778 279.927 284.160 C 332.886 289.133,375.815 307.653,386.440 330.113 L 388.940 335.398 388.941 362.170 L 388.942 388.942 407.789 388.942 L 426.637 388.942 426.622 360.885 C 426.605 328.977,426.132 325.219,420.736 314.091 C 408.469 288.792,379.023 268.275,338.061 256.485 C 321.046 251.588,306.667 249.024,280.783 246.273 L 275.857 245.750 275.857 226.536 C 275.857 215.968,276.061 207.321,276.310 207.321 C 276.559 207.321,282.378 206.732,289.241 206.011 C 355.435 199.060,405.397 173.145,421.631 137.342 C 426.134 127.410,426.605 123.154,426.622 92.309 L 426.637 64.252 407.789 64.252 L 388.942 64.252 388.941 91.024 L 388.940 117.796 386.440 123.082 C 375.928 145.303,330.875 164.804,280.355 169.001 L 275.857 169.375 275.857 103.535 L 275.857 37.695 257.010 37.695 L 238.163 37.695 238.163 103.535 " stroke="none" fill-rule="evenodd" fill="black"></path></svg>