<svg width="136mm" height="120mm" version="1.1" viewBox="0 0 600 529.4117647058824" xmlns="http://www.w3.org/2000/svg"><path d="M238.163 103.607 L 238.163 169.519 235.378 169.173 C 233.847 168.982,228.739 168.403,224.027 167.886 C 178.435 162.879,138.237 144.283,127.782 123.362 L 125.078 117.951 125.078 91.102 L 125.078 64.252 105.703 64.252 L 86.327 64.252 86.744 92.738 C 87.113 117.998,87.360 121.964,88.927 127.771 C 95.857 153.457,119.147 175.012,155.904 189.759 C 177.975 198.615,200.385 203.594,233.237 206.943 L 238.163 207.445 238.163 226.567 C 238.163 248.048,238.605 246.730,231.401 246.730 C 226.225 246.730,206.003 249.559,194.899 251.836 C 145.910 261.885,107.802 284.909,93.652 313.007 C 87.790 324.648,87.209 328.637,86.744 360.457 L 86.327 388.942 105.703 388.942 L 125.078 388.942 125.097 362.170 C 125.115 337.106,125.227 335.153,126.857 331.558 C 134.407 314.916,160.017 299.298,193.547 290.889 C 206.888 287.543,226.630 284.424,234.467 284.424 L 238.163 284.424 238.163 349.962 L 238.163 415.500 257.010 415.500 L 275.857 415.500 275.857 349.962 L 275.857 284.424 279.553 284.424 C 287.390 284.424,307.132 287.543,320.473 290.889 C 354.003 299.298,379.613 314.916,387.163 331.558 C 388.793 335.153,388.905 337.106,388.923 362.170 L 388.942 388.942 408.317 388.942 L 427.693 388.942 427.276 360.457 C 426.815 328.869,426.213 324.633,420.597 313.429 C 406.350 285.010,368.324 261.929,319.121 251.836 C 308.017 249.559,287.795 246.730,282.619 246.730 C 275.415 246.730,275.857 248.048,275.857 226.567 L 275.857 207.445 280.783 206.943 C 313.635 203.594,336.045 198.615,358.116 189.759 C 394.873 175.012,418.163 153.457,425.093 127.771 C 426.660 121.964,426.907 117.998,427.276 92.738 L 427.693 64.252 408.317 64.252 L 388.942 64.252 388.942 91.102 L 388.942 117.951 386.238 123.362 C 375.783 144.283,335.585 162.879,289.993 167.886 C 285.281 168.403,280.173 168.982,278.642 169.173 L 275.857 169.519 275.857 103.607 L 275.857 37.695 257.010 37.695 L 238.163 37.695 238.163 103.607 " stroke="none" fill-rule="evenodd" fill="black"></path></svg>