<svg width="136mm" height="120mm" version="1.1" viewBox="0 0 600 529.4117647058824" xmlns="http://www.w3.org/2000/svg"><path d="M231.737 46.326 C 171.181 51.143,121.657 69.633,94.145 97.699 C 80.553 111.565,72.037 129.242,71.978 143.711 L 71.963 147.352 90.639 147.352 L 109.315 147.352 110.352 142.331 C 114.596 121.783,148.513 100.035,191.268 90.446 C 227.215 82.384,265.094 81.058,301.854 86.575 C 356.193 94.731,398.827 118.086,403.593 142.307 L 404.585 147.352 423.321 147.352 L 442.057 147.352 442.042 143.711 C 442.020 138.300,439.926 129.394,437.087 122.636 C 417.805 76.743,342.381 44.810,254.958 45.525 C 246.899 45.591,236.449 45.951,231.737 46.326 M139.330 251.517 C 115.366 323.415,96.091 382.542,96.497 382.912 C 96.903 383.282,104.868 386.115,114.196 389.209 C 130.988 394.778,131.164 394.815,131.826 392.959 C 132.194 391.927,150.004 338.750,171.403 274.787 L 210.310 158.489 250.767 158.489 L 291.225 158.489 291.502 247.372 C 291.774 334.816,291.808 336.352,293.580 342.252 C 299.067 360.522,305.806 371.828,318.380 383.860 C 364.362 427.861,441.473 408.073,460.497 347.392 C 464.449 334.785,465.173 327.076,465.181 297.489 L 465.188 272.431 445.912 272.431 L 426.637 272.431 426.637 300.522 C 426.637 331.289,426.314 333.992,421.513 343.503 C 418.434 349.603,410.218 358.626,404.265 362.447 C 397.448 366.821,389.520 369.323,380.797 369.853 C 359.042 371.174,339.752 358.515,331.578 337.553 L 329.401 331.971 329.167 226.383 L 328.934 120.795 255.917 120.795 L 182.901 120.795 139.330 251.517 " stroke="none" fill-rule="evenodd" fill="black"></path></svg>