<svg width="136mm" height="120mm" version="1.1" viewBox="0 0 600 529.4117647058824" xmlns="http://www.w3.org/2000/svg"><path d="M229.596 35.565 C 196.481 39.657,165.057 52.298,137.827 72.482 C 127.438 80.182,107.929 99.397,100.498 109.248 C 87.067 127.053,77.114 146.008,70.358 166.649 C 63.528 187.514,60.840 204.446,60.840 226.597 C 60.840 248.635,63.531 265.687,70.247 286.210 C 80.055 316.179,94.694 339.905,117.282 362.444 C 134.310 379.435,147.578 389.041,167.995 399.161 C 186.790 408.478,207.040 414.608,229.167 417.677 C 242.120 419.474,272.117 419.033,283.996 416.872 C 318.292 410.630,347.815 397.453,373.521 376.911 C 385.762 367.130,400.435 351.650,410.028 338.397 C 451.365 281.287,457.268 202.141,424.878 139.293 C 398.065 87.268,350.792 50.968,293.226 38.200 C 276.219 34.428,248.192 33.267,229.596 35.565 M273.577 73.248 C 331.995 80.906,381.429 121.902,400.122 178.194 C 405.614 194.733,407.789 208.464,407.789 226.597 C 407.789 250.155,403.522 269.821,393.849 290.850 C 389.833 299.579,379.735 316.979,378.684 316.979 C 378.432 316.979,361.266 300.016,340.538 279.284 L 302.851 241.589 340.328 241.589 L 377.805 241.589 377.805 222.742 L 377.805 203.895 357.242 203.895 L 336.679 203.895 352.530 172.201 L 368.381 140.507 352.112 132.364 C 343.165 127.886,335.454 124.222,334.977 124.222 C 334.500 124.222,325.150 142.148,314.198 164.058 L 294.285 203.895 285.071 203.895 L 275.857 203.895 275.857 145.639 L 275.857 87.383 257.010 87.383 L 238.163 87.383 238.163 145.639 L 238.163 203.895 228.949 203.895 L 219.735 203.895 199.822 164.058 C 188.870 142.148,179.520 124.222,179.043 124.222 C 178.566 124.222,170.855 127.886,161.908 132.364 L 145.639 140.507 161.490 172.201 L 177.341 203.895 156.778 203.895 L 136.215 203.895 136.215 222.742 L 136.215 241.589 173.695 241.589 L 211.174 241.589 171.145 281.618 C 132.887 319.876,131.058 321.572,129.797 319.955 C 117.661 304.404,106.039 279.099,101.971 259.373 C 91.126 206.779,106.478 154.816,143.926 117.368 C 178.209 83.085,225.598 66.958,273.577 73.248 M304.774 297.492 C 330.805 323.526,352.104 345.069,352.104 345.363 C 352.104 346.286,340.010 355.002,332.400 359.565 C 314.162 370.498,293.726 377.464,271.195 380.428 C 259.809 381.926,235.739 381.045,224.074 378.704 C 201.319 374.136,176.715 363.131,159.797 349.953 C 158.183 348.696,160.325 346.418,207.342 299.397 C 234.421 272.314,256.771 250.156,257.010 250.156 C 257.249 250.156,278.743 271.457,304.774 297.492 " stroke="none" fill-rule="evenodd" fill="black"></path></svg>