<svg width="136mm" height="120mm" version="1.1" viewBox="0 0 600 529.4117647058824" xmlns="http://www.w3.org/2000/svg"><path d="M228.739 35.615 C 187.723 40.877,149.718 59.162,119.860 87.999 C 102.793 104.482,90.887 120.766,80.537 141.784 C 67.080 169.110,60.840 195.978,60.840 226.597 C 60.840 277.152,79.660 323.730,114.798 360.136 C 146.736 393.227,187.471 413.083,233.732 418.109 C 247.143 419.566,272.398 418.749,285.709 416.428 C 317.392 410.903,348.743 396.834,373.521 377.024 C 381.440 370.692,394.114 358.112,401.647 349.105 C 419.992 327.173,435.222 296.225,441.084 268.970 C 446.949 241.702,446.983 211.468,441.179 184.619 C 435.181 156.876,420.096 126.146,401.647 104.089 C 383.168 81.996,362.577 65.846,337.111 53.475 C 316.718 43.567,296.011 37.566,273.964 35.171 C 262.841 33.964,239.852 34.189,228.739 35.615 M284.056 74.875 C 348.712 88.495,396.876 139.646,406.452 204.861 C 407.192 209.897,407.789 219.612,407.789 226.597 C 407.789 251.047,402.932 272.359,392.364 294.276 C 388.515 302.258,379.633 316.968,378.658 316.976 C 378.420 316.977,361.266 300.016,340.538 279.284 L 302.851 241.589 340.328 241.589 L 377.805 241.589 377.805 222.742 L 377.805 203.895 357.242 203.895 L 336.679 203.895 352.530 172.201 L 368.381 140.507 352.112 132.364 C 343.165 127.886,335.454 124.222,334.977 124.222 C 334.500 124.222,325.150 142.148,314.198 164.058 L 294.285 203.895 285.071 203.895 L 275.857 203.895 275.857 145.211 L 275.857 86.527 257.010 86.527 L 238.163 86.527 238.163 145.211 L 238.163 203.895 228.949 203.895 L 219.735 203.895 199.822 164.058 C 188.870 142.148,179.520 124.222,179.043 124.222 C 178.566 124.222,170.855 127.886,161.908 132.364 L 145.639 140.507 161.490 172.201 L 177.341 203.895 156.778 203.895 L 136.215 203.895 136.215 222.742 L 136.215 241.589 173.692 241.589 L 211.170 241.589 171.340 281.426 C 149.434 303.336,131.262 321.262,130.959 321.262 C 129.629 321.263,118.734 303.617,114.031 293.848 C 102.416 269.716,97.757 247.316,98.797 220.600 C 99.553 201.204,102.544 186.820,109.397 169.628 C 130.538 116.589,176.715 80.941,234.772 72.839 C 237.815 72.415,247.822 72.209,257.010 72.382 C 270.778 72.641,275.534 73.080,284.056 74.875 M304.988 297.749 L 352.532 345.342 349.962 347.483 C 348.548 348.660,343.385 352.325,338.488 355.626 C 293.511 385.953,233.656 389.683,184.619 365.216 C 175.654 360.743,158.489 349.959,158.489 348.799 C 158.489 348.159,256.371 250.156,257.010 250.156 C 257.249 250.156,278.839 271.573,304.988 297.749 " stroke="none" fill-rule="evenodd" fill="black"></path></svg>