<svg width="136mm" height="120mm" version="1.1" viewBox="0 0 600 529.4117647058824" xmlns="http://www.w3.org/2000/svg"><path d="M151.200 86.531 L 127.208 110.523 105.387 103.237 C 93.385 99.229,83.108 95.950,82.547 95.950 C 81.674 95.950,70.249 128.204,70.249 130.672 C 70.249 131.156,75.357 133.233,81.601 135.286 C 87.844 137.339,93.894 139.370,95.044 139.800 C 97.034 140.543,96.277 141.443,79.633 158.101 L 62.129 175.621 75.391 188.903 L 88.653 202.186 112.857 177.992 L 137.062 153.799 159.828 161.369 C 172.349 165.533,182.770 168.762,182.987 168.546 C 183.577 167.956,194.471 135.142,194.471 133.955 C 194.471 133.392,188.495 130.939,181.192 128.505 C 173.889 126.071,167.913 123.819,167.913 123.500 C 167.913 123.181,175.623 115.218,185.046 105.803 L 202.179 88.687 189.126 75.613 C 181.947 68.422,175.874 62.539,175.632 62.539 C 175.390 62.539,164.395 73.335,151.200 86.531 M247.076 219.611 C 226.486 281.409,209.477 332.412,209.280 332.952 C 209.056 333.562,215.647 336.180,226.754 339.891 L 244.588 345.850 257.097 308.498 L 269.607 271.146 288.676 309.269 C 299.163 330.236,307.912 347.570,308.116 347.787 C 308.320 348.004,313.679 345.594,320.023 342.432 C 326.368 339.270,332.217 336.683,333.022 336.683 C 333.826 336.683,340.552 338.692,347.967 341.148 C 355.383 343.604,361.608 345.435,361.800 345.217 C 361.992 345.000,367.657 328.265,374.388 308.029 L 386.627 271.236 405.777 309.528 C 416.310 330.589,425.315 347.820,425.790 347.820 C 426.265 347.820,433.974 344.156,442.922 339.678 L 459.190 331.535 431.388 275.937 L 403.587 220.340 420.252 170.361 C 429.418 142.873,436.917 120.119,436.917 119.796 C 436.917 119.074,402.016 107.417,401.523 107.974 C 401.329 108.193,385.857 154.345,367.142 210.534 C 348.426 266.723,332.954 312.695,332.758 312.695 C 332.036 312.695,286.995 221.838,286.995 220.381 C 286.995 219.550,294.474 196.438,303.616 169.022 L 320.238 119.173 302.375 113.211 L 284.513 107.250 247.076 219.611 M113.295 283.354 L 113.513 377.376 132.360 377.376 L 151.208 377.376 151.425 283.354 L 151.643 189.331 132.360 189.331 L 113.077 189.331 113.295 283.354 M56.542 311.855 L 56.542 358.990 75.604 358.760 L 94.665 358.529 94.887 311.625 L 95.108 264.720 75.825 264.720 L 56.542 264.720 56.542 311.855 M169.833 311.625 L 170.055 358.529 189.117 358.760 L 208.178 358.990 208.178 311.855 L 208.178 264.720 188.895 264.720 L 169.612 264.720 169.833 311.625 " stroke="none" fill-rule="evenodd" fill="black"></path></svg>