<svg width="136mm" height="120mm" version="1.1" viewBox="0 0 600 529.4117647058824" xmlns="http://www.w3.org/2000/svg"><path d="M238.163 95.950 C 238.163 132.833,237.859 154.206,237.335 154.206 C 236.880 154.206,232.213 153.607,226.963 152.875 C 200.171 149.138,175.715 139.489,163.440 127.813 C 154.942 119.730,155.063 120.296,155.063 88.398 L 155.063 60.826 136.215 60.826 L 117.368 60.826 117.368 90.472 C 117.368 121.741,117.667 124.778,121.662 134.098 C 133.697 162.176,175.069 184.665,225.955 190.791 L 238.163 192.260 238.163 200.219 L 238.163 208.178 177.765 208.178 L 117.368 208.178 117.368 227.025 L 117.368 245.873 177.765 245.873 L 238.163 245.873 238.163 253.499 L 238.163 261.125 232.808 261.701 C 204.599 264.732,185.427 269.753,165.771 279.257 C 139.199 292.106,123.868 307.992,118.666 328.067 C 117.626 332.079,117.368 339.061,117.368 363.150 L 117.368 393.225 136.215 393.225 L 155.063 393.225 155.063 365.225 C 155.063 332.840,154.929 333.477,163.440 325.382 C 176.855 312.623,201.890 303.390,233.665 299.482 L 238.163 298.929 238.163 357.214 L 238.163 415.500 257.010 415.500 L 275.857 415.500 275.857 357.214 L 275.857 298.929 280.355 299.482 C 312.058 303.381,336.441 312.340,350.320 325.191 C 359.083 333.303,358.957 332.719,358.957 365.225 L 358.957 393.225 377.844 393.225 L 396.730 393.225 396.476 361.313 C 396.226 329.968,396.184 329.296,394.125 323.468 C 389.794 311.210,378.662 297.812,365.340 288.824 C 343.796 274.288,316.522 265.495,281.212 261.701 L 275.857 261.125 275.857 253.499 L 275.857 245.873 336.255 245.873 L 396.652 245.873 396.652 227.025 L 396.652 208.178 336.255 208.178 L 275.857 208.178 275.857 200.219 L 275.857 192.260 288.065 190.791 C 341.812 184.321,383.272 160.450,394.125 129.726 C 396.181 123.906,396.225 123.196,396.476 92.309 L 396.731 60.826 377.844 60.826 L 358.957 60.826 358.957 88.398 C 358.957 120.296,359.078 119.730,350.580 127.813 C 338.305 139.489,313.849 149.138,287.057 152.875 C 281.807 153.607,277.140 154.206,276.685 154.206 C 276.161 154.206,275.857 132.833,275.857 95.950 L 275.857 37.695 257.010 37.695 L 238.163 37.695 238.163 95.950 " stroke="none" fill-rule="evenodd" fill="black"></path></svg>