<svg width="136mm" height="120mm" version="1.1" viewBox="0 0 600 529.4117647058824" xmlns="http://www.w3.org/2000/svg"><path d="M238.163 96.018 L 238.163 154.342 235.807 153.899 C 234.511 153.655,231.138 153.205,228.311 152.898 C 201.591 149.999,173.448 138.632,161.584 125.949 C 154.994 118.904,155.063 119.298,155.063 88.268 L 155.063 60.826 136.215 60.826 L 117.368 60.826 117.368 89.408 C 117.368 105.129,117.748 119.996,118.213 122.447 C 120.141 132.613,125.963 143.454,134.042 151.921 C 154.047 172.886,188.645 186.748,232.808 191.494 L 238.163 192.069 238.163 199.695 L 238.163 207.321 177.765 207.321 L 117.368 207.321 117.368 226.597 L 117.368 245.873 177.765 245.873 L 238.163 245.873 238.163 253.499 L 238.163 261.125 232.808 261.701 C 189.497 266.354,155.186 279.807,135.396 299.895 C 126.220 309.210,120.272 319.888,118.213 330.748 C 117.748 333.198,117.368 348.066,117.368 363.786 L 117.368 392.369 136.215 392.369 L 155.063 392.369 155.063 364.796 C 155.063 332.775,154.950 333.291,163.708 325.182 C 177.621 312.302,202.453 303.242,234.093 299.502 L 238.163 299.021 238.163 357.260 L 238.163 415.500 257.010 415.500 L 275.857 415.500 275.857 357.260 L 275.857 299.021 279.927 299.505 C 311.718 303.283,336.373 312.277,350.312 325.182 C 359.070 333.291,358.957 332.775,358.957 364.796 L 358.957 392.369 377.805 392.369 L 396.652 392.369 396.652 363.786 C 396.652 348.066,396.272 333.198,395.807 330.748 C 393.731 319.801,387.828 309.280,378.445 299.805 C 363.264 284.474,339.199 272.752,309.269 266.111 C 301.068 264.291,280.960 261.293,276.954 261.293 C 276.144 261.293,275.857 259.276,275.857 253.583 L 275.857 245.873 336.255 245.873 L 396.652 245.873 396.652 226.597 L 396.652 207.321 336.255 207.321 L 275.857 207.321 275.857 199.611 C 275.857 193.918,276.144 191.901,276.954 191.901 C 280.960 191.901,301.068 188.903,309.269 187.084 C 352.495 177.492,382.512 157.725,392.898 132.012 C 396.272 123.660,396.652 119.341,396.652 89.408 L 396.652 60.826 377.805 60.826 L 358.957 60.826 358.957 88.268 C 358.957 119.298,359.026 118.904,352.436 125.949 C 339.727 139.536,312.985 149.768,279.927 153.690 L 275.857 154.173 275.857 95.934 L 275.857 37.695 257.010 37.695 L 238.163 37.695 238.163 96.018 " stroke="none" fill-rule="evenodd" fill="black"></path></svg>