<svg width="136mm" height="120mm" version="1.1" viewBox="0 0 600 529.4117647058824" xmlns="http://www.w3.org/2000/svg"><path d="M238.163 95.950 C 238.163 132.833,237.859 154.206,237.335 154.206 C 236.880 154.206,232.213 153.607,226.963 152.875 C 200.363 149.165,176.370 139.734,163.709 128.013 C 154.950 119.903,155.063 120.420,155.063 88.398 L 155.063 60.826 136.215 60.826 L 117.368 60.826 117.381 90.168 C 117.390 113.115,117.671 120.688,118.668 124.917 C 126.395 157.691,169.170 183.955,225.955 190.791 L 238.163 192.260 238.163 200.219 L 238.163 208.178 177.765 208.178 L 117.368 208.178 117.368 227.025 L 117.368 245.873 177.765 245.873 L 238.163 245.873 238.163 253.583 C 238.163 259.276,237.876 261.293,237.066 261.293 C 233.744 261.293,213.413 264.182,206.146 265.686 C 177.248 271.668,150.834 284.413,135.746 299.655 C 129.216 306.252,126.030 310.602,122.460 317.796 C 117.796 327.198,117.394 330.803,117.381 363.455 L 117.368 393.225 136.215 393.225 L 155.063 393.225 155.063 365.225 C 155.063 332.586,154.914 333.255,164.023 324.914 C 177.845 312.258,202.252 303.345,233.665 299.482 L 238.163 298.929 238.163 357.214 L 238.163 415.500 257.010 415.500 L 275.857 415.500 275.857 357.214 L 275.857 298.929 280.355 299.482 C 311.768 303.345,336.175 312.258,349.997 324.914 C 359.106 333.255,358.957 332.586,358.957 365.225 L 358.957 393.225 377.805 393.225 L 396.652 393.225 396.639 363.455 C 396.630 340.128,396.351 332.514,395.352 328.277 C 389.482 303.377,363.046 281.673,324.151 269.820 C 313.829 266.674,301.837 264.235,288.733 262.614 C 282.858 261.888,277.557 261.293,276.954 261.293 C 276.144 261.293,275.857 259.276,275.857 253.583 L 275.857 245.873 336.255 245.873 L 396.652 245.873 396.652 227.025 L 396.652 208.178 336.255 208.178 L 275.857 208.178 275.857 200.219 L 275.857 192.260 288.065 190.791 C 311.244 188.000,330.791 182.474,349.132 173.527 C 375.055 160.881,391.296 143.406,395.753 123.365 C 396.231 121.217,396.619 106.518,396.631 90.168 L 396.652 60.826 377.805 60.826 L 358.957 60.826 358.957 88.398 C 358.957 120.420,359.070 119.903,350.311 128.013 C 337.650 139.734,313.657 149.165,287.057 152.875 C 281.807 153.607,277.140 154.206,276.685 154.206 C 276.161 154.206,275.857 132.833,275.857 95.950 L 275.857 37.695 257.010 37.695 L 238.163 37.695 238.163 95.950 " stroke="none" fill-rule="evenodd" fill="black"></path></svg>