<svg width="136mm" height="120mm" version="1.1" viewBox="0 0 600 529.4117647058824" xmlns="http://www.w3.org/2000/svg"><path d="M109.611 97.450 L 109.564 157.204 91.954 122.080 C 82.268 102.761,74.177 86.778,73.974 86.562 C 73.560 86.122,41.192 102.038,40.598 102.975 C 40.307 103.432,76.415 176.804,77.534 178.030 C 77.667 178.176,84.752 174.802,93.279 170.534 C 101.806 166.265,108.980 162.773,109.220 162.773 C 109.461 162.773,109.658 172.989,109.658 185.476 L 109.658 208.178 73.659 208.178 L 37.661 208.178 37.892 226.811 L 38.123 245.445 70.035 245.669 C 87.587 245.793,101.947 246.181,101.947 246.532 C 101.947 246.882,91.191 279.433,78.044 318.867 L 54.141 390.564 72.003 396.525 L 89.865 402.486 108.864 345.383 C 119.313 313.976,128.111 288.002,128.414 287.664 C 128.717 287.325,137.611 313.004,148.178 344.729 L 167.391 402.409 184.904 396.557 C 194.537 393.338,202.553 390.569,202.717 390.405 C 202.882 390.240,200.901 383.785,198.315 376.060 C 195.730 368.335,193.614 361.933,193.614 361.833 C 193.614 361.734,200.445 363.938,208.794 366.730 C 217.143 369.523,224.436 371.808,225.002 371.808 C 225.602 371.808,234.000 347.892,245.147 314.437 C 255.661 282.884,264.511 257.343,264.813 257.681 C 265.115 258.019,273.748 283.546,283.996 314.409 C 294.244 345.272,302.933 370.855,303.304 371.261 C 303.675 371.668,309.987 369.997,317.332 367.549 L 330.686 363.099 344.040 367.549 C 351.385 369.997,357.698 371.668,358.069 371.261 C 358.440 370.855,367.128 345.272,377.376 314.409 C 387.625 283.546,396.257 258.019,396.559 257.681 C 396.862 257.343,405.711 282.884,416.225 314.437 C 427.344 347.807,435.771 371.808,436.368 371.808 C 437.427 371.808,470.338 360.947,470.859 360.425 C 471.020 360.264,459.016 323.729,444.182 279.234 C 429.349 234.740,417.213 197.559,417.213 196.610 C 417.213 195.660,425.112 171.193,434.766 142.238 C 444.421 113.284,452.035 89.337,451.686 89.024 C 451.338 88.710,443.728 86.036,434.775 83.081 C 425.823 80.125,418.057 77.546,417.517 77.348 C 416.891 77.119,401.147 123.198,373.933 204.908 C 350.501 275.264,331.082 333.104,330.780 333.441 C 330.478 333.779,319.924 303.127,307.327 265.327 L 284.424 196.599 302.331 142.894 L 320.238 89.188 302.290 83.198 C 284.530 77.271,284.335 77.228,283.649 79.083 C 283.268 80.114,262.373 142.738,237.216 218.246 L 191.475 355.534 173.691 302.203 C 163.910 272.870,155.691 248.197,155.427 247.372 C 154.976 245.962,156.868 245.873,187.131 245.873 L 219.315 245.873 219.315 227.035 L 219.315 208.197 183.548 207.973 L 147.781 207.750 147.552 185.261 C 147.427 172.893,147.527 162.773,147.776 162.773 C 148.024 162.773,155.204 166.265,163.731 170.534 C 172.258 174.802,179.343 178.176,179.476 178.030 C 179.941 177.520,216.745 103.664,216.745 103.241 C 216.745 102.817,184.609 86.527,183.773 86.527 C 183.534 86.527,175.338 102.429,165.559 121.866 L 147.781 157.204 147.561 97.450 L 147.341 37.695 128.499 37.695 L 109.658 37.695 109.611 97.450 " stroke="none" fill-rule="evenodd" fill="black"></path></svg>