<svg width="136mm" height="120mm" version="1.1" viewBox="0 0 600 529.4117647058824" xmlns="http://www.w3.org/2000/svg"><path d="M109.611 97.450 L 109.564 157.204 91.954 122.080 C 82.268 102.761,74.177 86.778,73.974 86.562 C 73.560 86.122,41.192 102.038,40.598 102.975 C 40.307 103.432,76.415 176.804,77.534 178.030 C 77.667 178.176,84.752 174.802,93.279 170.534 C 101.806 166.265,108.980 162.773,109.220 162.773 C 109.461 162.773,109.658 172.989,109.658 185.476 L 109.658 208.178 73.676 208.178 L 37.695 208.178 37.695 227.025 L 37.695 245.873 69.821 245.873 C 87.490 245.873,101.947 245.972,101.947 246.093 C 101.947 246.214,91.160 278.669,77.976 318.215 C 64.792 357.761,54.137 390.249,54.298 390.410 C 54.460 390.572,62.529 393.356,72.230 396.598 L 89.868 402.492 108.967 345.172 C 119.472 313.645,128.264 287.851,128.505 287.851 C 128.746 287.851,137.538 313.645,148.043 345.172 L 167.142 402.492 184.780 396.598 C 194.481 393.356,202.553 390.569,202.717 390.405 C 202.882 390.240,200.901 383.785,198.315 376.060 C 195.730 368.335,193.614 361.933,193.614 361.833 C 193.614 361.734,200.445 363.938,208.794 366.730 C 217.143 369.523,224.436 371.808,225.002 371.808 C 225.602 371.808,234.000 347.892,245.147 314.437 C 255.661 282.884,264.511 257.343,264.813 257.681 C 265.115 258.019,273.748 283.546,283.996 314.409 C 294.244 345.272,302.933 370.855,303.304 371.261 C 303.675 371.668,309.987 369.997,317.332 367.549 L 330.686 363.099 344.040 367.549 C 351.385 369.997,357.698 371.668,358.069 371.261 C 358.440 370.855,367.128 345.272,377.376 314.409 C 387.625 283.546,396.257 258.019,396.559 257.681 C 396.862 257.343,405.711 282.884,416.225 314.437 C 427.344 347.807,435.771 371.808,436.368 371.808 C 437.560 371.808,470.371 360.913,470.964 360.321 C 471.182 360.102,459.083 323.084,444.077 278.057 L 416.793 196.190 434.259 143.770 C 443.865 114.939,451.766 90.789,451.817 90.104 C 451.882 89.223,446.775 87.138,434.404 82.994 C 424.777 79.769,416.830 77.221,416.744 77.331 C 416.659 77.441,397.363 135.248,373.864 205.792 C 350.365 276.335,330.905 333.777,330.618 333.440 C 330.331 333.103,319.829 302.149,307.281 264.652 L 284.465 196.477 302.382 142.739 C 314.297 107.004,319.959 88.891,319.282 88.670 C 318.722 88.487,310.681 85.858,301.413 82.827 L 284.562 77.317 267.770 127.113 C 258.534 154.500,237.588 217.102,221.222 266.226 L 191.467 355.544 173.568 301.780 C 163.724 272.209,155.492 247.533,155.275 246.944 C 154.963 246.099,161.683 245.873,187.097 245.873 L 219.315 245.873 219.315 227.025 L 219.315 208.178 183.334 208.178 L 147.352 208.178 147.352 185.476 C 147.352 172.989,147.549 162.773,147.790 162.773 C 148.030 162.773,155.204 166.265,163.731 170.534 C 172.258 174.802,179.343 178.176,179.476 178.030 C 180.595 176.804,216.703 103.432,216.412 102.975 C 215.818 102.038,183.450 86.122,183.036 86.562 C 182.833 86.778,174.742 102.761,165.056 122.080 L 147.446 157.204 147.399 97.450 L 147.352 37.695 128.505 37.695 L 109.658 37.695 109.611 97.450 " stroke="none" fill-rule="evenodd" fill="black"></path></svg>