<svg width="136mm" height="120mm" version="1.1" viewBox="0 0 600 529.4117647058824" xmlns="http://www.w3.org/2000/svg"><path d="M125.078 65.966 L 125.078 94.237 96.807 94.237 L 68.536 94.237 68.536 113.073 L 68.536 131.908 96.593 132.134 L 124.650 132.360 125.184 146.924 C 125.764 162.735,126.332 165.503,130.728 173.910 C 143.863 199.033,175.417 216.349,222.314 224.169 C 229.964 225.445,236.494 225.740,257.010 225.740 C 283.919 225.740,290.533 225.094,309.697 220.594 C 344.537 212.414,372.027 195.254,382.723 175.010 C 387.664 165.658,388.337 162.586,388.872 146.924 L 389.370 132.360 417.427 132.134 L 445.484 131.908 445.484 113.073 L 445.484 94.237 417.213 94.237 L 388.942 94.237 388.942 65.966 L 388.942 37.695 370.094 37.695 L 351.247 37.695 351.247 65.966 L 351.247 94.237 257.010 94.237 L 162.773 94.237 162.773 65.966 L 162.773 37.695 143.926 37.695 L 125.078 37.695 125.078 65.966 M351.098 143.739 C 350.823 155.360,350.778 155.602,348.206 159.094 C 340.644 169.367,322.258 178.938,300.273 184.047 C 274.613 190.010,239.407 190.010,213.747 184.047 C 191.762 178.938,173.376 169.367,165.814 159.094 C 163.242 155.602,163.197 155.360,162.922 143.739 L 162.643 131.932 257.010 131.932 L 351.377 131.932 351.098 143.739 M124.876 255.082 L 124.650 283.139 96.593 283.365 L 68.536 283.591 68.536 302.427 L 68.536 321.262 96.722 321.262 L 124.909 321.262 125.261 336.041 C 125.584 349.581,125.806 351.311,127.913 356.696 C 140.206 388.112,181.272 409.764,237.734 414.601 C 270.619 417.418,306.428 412.740,333.523 402.087 C 361.061 391.260,379.608 374.953,386.477 355.531 C 388.159 350.773,388.493 347.871,388.766 335.612 L 389.086 321.262 417.285 321.262 L 445.484 321.262 445.484 302.427 L 445.484 283.591 417.427 283.365 L 389.370 283.139 389.144 255.082 L 388.918 227.025 370.083 227.025 L 351.247 227.025 351.247 255.297 L 351.247 283.568 257.010 283.568 L 162.773 283.568 162.773 255.297 L 162.773 227.025 143.937 227.025 L 125.102 227.025 124.876 255.082 M351.247 332.232 C 351.247 342.897,351.177 343.311,348.730 347.170 C 340.415 360.281,313.820 371.827,281.854 376.204 C 271.380 377.639,242.660 377.641,232.166 376.208 C 200.367 371.865,173.573 360.231,165.290 347.170 C 162.843 343.311,162.773 342.897,162.773 332.232 L 162.773 321.262 257.010 321.262 L 351.247 321.262 351.247 332.232 " stroke="none" fill-rule="evenodd" fill="black"></path></svg>