<svg width="136mm" height="120mm" version="1.1" viewBox="0 0 600 529.4117647058824" xmlns="http://www.w3.org/2000/svg"><path d="M124.222 65.954 L 124.222 94.214 96.165 94.439 L 68.108 94.665 67.877 113.299 L 67.646 131.932 95.801 131.932 L 123.957 131.932 124.463 145.540 C 125.037 160.973,126.894 168.322,132.603 177.757 C 144.716 197.775,175.513 215.202,211.177 222.219 C 227.170 225.366,238.044 226.345,257.010 226.345 C 275.976 226.345,286.850 225.366,302.843 222.219 C 338.507 215.202,369.304 197.775,381.417 177.757 C 387.126 168.322,388.983 160.973,389.557 145.540 L 390.063 131.932 418.219 131.932 L 446.374 131.932 446.143 113.299 L 445.912 94.665 417.855 94.439 L 389.798 94.214 389.798 65.954 L 389.798 37.695 370.523 37.695 L 351.247 37.695 351.247 65.966 L 351.247 94.237 257.010 94.237 L 162.773 94.237 162.773 65.966 L 162.773 37.695 143.497 37.695 L 124.222 37.695 124.222 65.954 M351.098 143.801 L 350.819 155.670 347.593 159.807 C 337.194 173.144,311.483 183.834,280.725 187.609 C 270.988 188.805,243.032 188.805,233.295 187.609 C 204.766 184.108,180.582 174.715,168.649 162.502 C 163.423 157.153,162.773 154.960,162.773 142.668 L 162.773 131.932 257.075 131.932 L 351.377 131.932 351.098 143.801 M124.222 255.297 L 124.222 283.568 95.934 283.568 L 67.646 283.568 67.877 302.201 L 68.108 320.834 96.032 321.060 L 123.957 321.286 124.504 334.339 C 125.402 355.794,128.852 364.419,141.765 377.489 C 160.094 396.043,187.965 408.116,224.884 413.496 C 239.317 415.600,274.703 415.600,289.136 413.496 C 326.055 408.116,353.926 396.043,372.255 377.489 C 385.168 364.419,388.618 355.794,389.516 334.339 L 390.063 321.286 417.988 321.060 L 445.912 320.834 446.143 302.201 L 446.374 283.568 418.086 283.568 L 389.798 283.568 389.798 255.297 L 389.798 227.025 370.523 227.025 L 351.247 227.025 351.247 255.297 L 351.247 283.568 257.010 283.568 L 162.773 283.568 162.773 255.297 L 162.773 227.025 143.497 227.025 L 124.222 227.025 124.222 255.297 M351.247 332.232 C 351.247 342.897,351.177 343.311,348.730 347.170 C 337.814 364.383,297.632 377.803,257.010 377.803 C 215.859 377.803,175.102 363.996,164.909 346.603 C 162.937 343.237,162.773 342.127,162.773 332.110 L 162.773 321.262 257.010 321.262 L 351.247 321.262 351.247 332.232 " stroke="none" fill-rule="evenodd" fill="black"></path></svg>