<svg width="136mm" height="120mm" version="1.1" viewBox="0 0 600 529.4117647058824" xmlns="http://www.w3.org/2000/svg"><path d="M125.078 65.954 L 125.078 94.214 96.593 94.440 L 68.108 94.665 67.877 113.299 L 67.646 131.932 96.279 131.932 L 124.912 131.932 125.238 147.138 C 125.539 161.185,125.734 162.755,127.801 167.724 C 131.498 176.609,135.437 182.507,142.327 189.475 C 160.590 207.944,193.801 221.345,231.309 225.378 C 236.256 225.910,247.822 226.345,257.010 226.345 C 266.198 226.345,277.764 225.910,282.711 225.378 C 324.661 220.867,361.359 204.460,377.487 183.005 C 386.631 170.841,388.942 163.148,388.942 144.873 L 388.942 131.932 417.658 131.932 L 446.374 131.932 446.143 113.299 L 445.912 94.665 417.427 94.440 L 388.942 94.214 388.942 65.954 L 388.942 37.695 370.094 37.695 L 351.247 37.695 351.247 65.966 L 351.247 94.237 257.010 94.237 L 162.773 94.237 162.773 65.966 L 162.773 37.695 143.926 37.695 L 125.078 37.695 125.078 65.954 M351.247 142.725 C 351.247 155.718,350.652 157.302,343.135 164.333 C 331.223 175.477,307.505 184.322,280.725 187.609 C 270.988 188.805,243.032 188.805,233.295 187.609 C 206.515 184.322,182.797 175.477,170.885 164.333 C 163.368 157.302,162.773 155.718,162.773 142.725 L 162.773 131.932 257.010 131.932 L 351.247 131.932 351.247 142.725 M125.078 255.297 L 125.078 283.568 96.362 283.568 L 67.646 283.568 67.877 302.201 L 68.108 320.834 96.593 321.060 L 125.078 321.286 125.078 334.509 C 125.078 346.279,125.317 348.486,127.248 354.599 C 136.407 383.595,173.583 406.020,224.884 413.496 C 239.317 415.600,274.703 415.600,289.136 413.496 C 331.986 407.252,365.031 390.730,380.285 367.922 C 387.120 357.703,388.287 353.300,388.731 336.052 L 389.111 321.285 417.512 321.060 L 445.912 320.834 446.143 302.201 L 446.374 283.568 417.658 283.568 L 388.942 283.568 388.942 255.297 L 388.942 227.025 370.094 227.025 L 351.247 227.025 351.247 255.297 L 351.247 283.568 257.010 283.568 L 162.773 283.568 162.773 255.297 L 162.773 227.025 143.926 227.025 L 125.078 227.025 125.078 255.297 M351.247 332.232 C 351.247 342.897,351.177 343.311,348.730 347.170 C 337.814 364.383,297.632 377.803,257.010 377.803 C 216.388 377.803,176.206 364.383,165.290 347.170 C 162.843 343.311,162.773 342.897,162.773 332.232 L 162.773 321.262 257.010 321.262 L 351.247 321.262 351.247 332.232 " stroke="none" fill-rule="evenodd" fill="black"></path></svg>