<svg width="136mm" height="120mm" version="1.1" viewBox="0 0 600 529.4117647058824" xmlns="http://www.w3.org/2000/svg"><path d="M128.505 154.634 C 128.505 208.585,128.216 252.723,127.862 252.718 C 127.509 252.714,125.100 251.501,122.508 250.023 C 115.864 246.233,107.229 237.153,103.890 230.446 C 98.611 219.840,98.521 218.881,98.521 173.285 L 98.520 131.899 79.459 132.130 L 60.397 132.360 60.414 174.338 C 60.429 211.564,60.607 217.141,61.983 223.599 C 66.147 243.142,74.218 257.799,87.950 270.753 C 98.324 280.539,111.764 288.149,124.436 291.411 L 128.505 292.459 128.505 344.555 L 128.505 396.652 147.352 396.652 L 166.200 396.652 166.200 344.489 L 166.200 292.325 169.226 291.758 C 175.090 290.658,188.255 284.728,195.423 279.959 C 203.428 274.632,214.533 263.584,219.614 255.889 C 224.130 249.050,229.122 238.145,231.257 230.452 C 234.108 220.184,234.818 206.800,234.554 168.342 L 234.307 132.360 215.460 132.360 L 196.613 132.360 196.158 175.624 C 195.660 223.004,195.731 222.333,190.255 231.818 C 185.447 240.146,174.481 250.268,168.127 252.243 L 166.200 252.842 166.200 154.692 L 166.200 56.542 147.352 56.542 L 128.505 56.542 128.505 154.634 M347.820 154.692 L 347.820 252.842 345.893 252.243 C 339.539 250.268,328.573 240.146,323.765 231.818 C 318.289 222.333,318.360 223.004,317.862 175.624 L 317.407 132.360 298.560 132.360 L 279.713 132.360 279.466 168.342 C 279.202 206.800,279.912 220.184,282.763 230.452 C 284.898 238.145,289.890 249.050,294.406 255.889 C 299.487 263.584,310.592 274.632,318.597 279.959 C 325.765 284.728,338.930 290.658,344.794 291.758 L 347.820 292.325 347.820 344.489 L 347.820 396.652 366.668 396.652 L 385.515 396.652 385.516 344.608 L 385.517 292.563 390.871 290.995 C 417.501 283.195,439.424 262.543,448.424 236.780 C 453.356 222.665,453.587 219.877,453.606 174.338 L 453.623 132.360 434.605 132.130 L 415.587 131.899 415.324 175.393 L 415.061 218.887 412.889 224.468 C 408.651 235.362,400.750 244.709,391.097 250.246 C 388.733 251.601,386.511 252.714,386.158 252.718 C 385.804 252.723,385.515 208.585,385.515 154.634 L 385.515 56.542 366.668 56.542 L 347.820 56.542 347.820 154.692 " stroke="none" fill-rule="evenodd" fill="black"></path></svg>