<svg width="136mm" height="120mm" version="1.1" viewBox="0 0 600 529.4117647058824" xmlns="http://www.w3.org/2000/svg"><path d="M128.505 154.634 C 128.505 208.585,128.216 252.723,127.862 252.718 C 127.509 252.714,125.100 251.499,122.508 250.018 C 115.910 246.249,108.111 238.002,104.323 230.788 C 98.697 220.074,98.547 218.580,98.533 172.839 L 98.520 131.932 79.631 131.932 L 60.742 131.932 61.027 177.123 C 61.300 220.329,61.393 222.602,63.159 228.889 C 68.708 248.643,79.795 265.316,95.085 276.902 C 102.058 282.186,115.146 288.781,122.722 290.827 L 128.505 292.389 128.505 344.521 L 128.505 396.652 147.352 396.652 L 166.200 396.652 166.200 344.489 L 166.200 292.325 168.984 291.799 C 174.338 290.787,185.372 286.177,192.184 282.105 C 201.253 276.683,213.884 264.592,219.658 255.804 C 224.666 248.182,229.588 237.216,231.687 229.007 C 234.179 219.255,234.790 206.487,234.547 169.198 L 234.307 132.360 215.460 132.360 L 196.613 132.360 196.184 176.052 C 195.761 219.259,195.734 219.798,193.771 224.657 C 191.243 230.917,186.196 238.448,181.464 243.022 C 177.356 246.992,168.981 252.727,167.290 252.727 C 166.414 252.727,166.200 233.474,166.200 154.634 L 166.200 56.542 147.352 56.542 L 128.505 56.542 128.505 154.634 M347.820 154.634 C 347.820 233.474,347.606 252.727,346.730 252.727 C 345.039 252.727,336.664 246.992,332.556 243.022 C 327.824 238.448,322.777 230.917,320.249 224.657 C 318.286 219.798,318.259 219.259,317.836 176.052 L 317.407 132.360 298.560 132.360 L 279.713 132.360 279.473 169.198 C 279.159 217.393,279.969 225.456,286.748 241.589 C 295.544 262.526,314.559 280.925,335.478 288.742 C 339.204 290.134,343.505 291.510,345.036 291.799 L 347.820 292.325 347.820 344.489 L 347.820 396.652 366.668 396.652 L 385.515 396.652 385.515 344.521 L 385.515 292.389 391.298 290.827 C 398.874 288.781,411.962 282.186,418.935 276.902 C 434.225 265.316,445.312 248.643,450.861 228.889 C 452.627 222.602,452.720 220.329,452.993 177.123 L 453.278 131.932 434.389 131.932 L 415.500 131.932 415.485 172.411 C 415.468 217.868,415.234 220.244,409.760 230.668 C 405.907 238.005,398.160 246.220,391.512 250.018 C 388.920 251.499,386.511 252.714,386.158 252.718 C 385.804 252.723,385.515 208.585,385.515 154.634 L 385.515 56.542 366.668 56.542 L 347.820 56.542 347.820 154.634 " stroke="none" fill-rule="evenodd" fill="black"></path></svg>