<svg width="136mm" height="120mm" version="1.1" viewBox="0 0 600 529.4117647058824" xmlns="http://www.w3.org/2000/svg"><path d="M128.505 154.634 C 128.505 208.585,128.263 252.727,127.967 252.727 C 127.671 252.727,125.275 251.494,122.643 249.988 C 115.826 246.088,108.088 237.981,104.319 230.792 C 98.696 220.065,98.547 218.574,98.533 172.839 L 98.520 131.932 79.673 131.932 L 60.826 131.932 60.837 174.553 C 60.847 212.812,61.012 217.962,62.448 224.884 C 66.742 245.580,78.522 264.368,95.050 276.880 C 101.917 282.079,114.966 288.688,122.722 290.896 L 128.505 292.542 128.505 344.597 L 128.505 396.652 147.352 396.652 L 166.200 396.652 166.200 344.489 L 166.200 292.325 169.401 291.725 C 174.714 290.728,186.551 285.589,193.498 281.263 C 201.228 276.448,212.908 265.516,218.036 258.295 C 223.229 250.984,228.378 240.292,230.902 231.580 C 234.083 220.604,234.846 207.227,234.560 167.485 L 234.307 132.360 215.460 132.360 L 196.613 132.360 196.184 175.624 C 195.769 217.593,195.699 219.036,193.868 223.883 C 191.196 230.958,188.269 235.651,182.974 241.348 C 178.878 245.756,171.919 250.767,167.699 252.348 C 166.277 252.881,166.200 247.877,166.200 154.726 L 166.200 56.542 147.352 56.542 L 128.505 56.542 128.505 154.634 M347.820 154.726 C 347.820 247.877,347.743 252.881,346.321 252.348 C 342.101 250.767,335.142 245.756,331.046 241.348 C 325.751 235.651,322.824 230.958,320.152 223.883 C 318.321 219.036,318.251 217.593,317.836 175.624 L 317.407 132.360 298.560 132.360 L 279.713 132.360 279.466 168.342 C 279.328 188.424,279.610 208.723,280.104 214.280 C 281.566 230.715,286.935 245.608,295.972 258.295 C 301.135 265.543,312.809 276.459,320.557 281.284 C 327.603 285.672,339.363 290.785,344.608 291.740 L 347.820 292.325 347.820 344.489 L 347.820 396.652 366.668 396.652 L 385.515 396.652 385.515 344.597 L 385.515 292.542 391.245 290.901 C 416.401 283.696,438.338 263.251,447.725 238.261 C 452.833 224.662,453.194 220.402,453.194 173.798 L 453.194 131.932 434.347 131.932 L 415.500 131.932 415.487 172.839 C 415.473 218.574,415.324 220.065,409.701 230.792 C 405.932 237.981,398.194 246.088,391.377 249.988 C 388.745 251.494,386.349 252.727,386.053 252.727 C 385.757 252.727,385.515 208.585,385.515 154.634 L 385.515 56.542 366.668 56.542 L 347.820 56.542 347.820 154.726 " stroke="none" fill-rule="evenodd" fill="black"></path></svg>