<svg width="136mm" height="120mm" version="1.1" viewBox="0 0 600 529.4117647058824" xmlns="http://www.w3.org/2000/svg"><path d="M75.390 94.237 L 75.390 113.084 145.211 113.084 L 215.032 113.084 215.032 254.868 L 215.032 396.652 234.307 396.652 L 253.583 396.652 253.583 349.614 L 253.583 302.576 296.204 302.183 C 343.317 301.748,345.741 301.505,362.983 295.479 C 393.830 284.698,420.471 258.415,431.326 228.054 C 446.434 185.799,436.530 140.674,405.228 109.143 C 386.168 89.944,361.979 78.624,334.970 76.265 C 328.938 75.738,276.702 75.401,200.254 75.397 L 75.390 75.390 75.390 94.237 M332.328 113.975 C 358.967 116.708,380.780 131.739,392.577 155.491 C 398.369 167.153,400.133 175.050,400.133 189.331 C 400.134 218.056,384.181 243.701,358.529 256.209 C 342.736 263.910,341.443 264.078,294.491 264.497 L 253.583 264.863 253.583 188.974 L 253.583 113.084 288.617 113.084 C 307.886 113.084,327.556 113.485,332.328 113.975 " stroke="none" fill-rule="evenodd" fill="black"></path></svg>