<svg width="136mm" height="120mm" version="1.1" viewBox="0 0 600 529.4117647058824" xmlns="http://www.w3.org/2000/svg"><path d="M75.994 75.928 C 75.662 76.260,75.390 84.756,75.390 94.808 L 75.390 113.084 145.211 113.084 L 215.032 113.084 215.032 254.868 L 215.032 396.652 234.307 396.652 L 253.583 396.652 253.583 349.614 L 253.583 302.576 296.204 302.184 C 343.835 301.745,345.634 301.557,363.842 295.084 C 411.084 278.292,442.413 229.276,437.742 179.464 C 435.058 150.836,423.868 127.331,403.572 107.684 C 387.520 92.146,370.468 83.099,347.305 77.832 L 338.825 75.904 207.712 75.613 C 135.599 75.454,76.326 75.595,75.994 75.928 M332.328 113.975 C 359.808 116.795,382.042 132.719,393.654 157.896 C 395.217 161.285,397.138 166.371,397.923 169.198 C 399.831 176.072,400.587 194.278,399.276 201.805 C 394.204 230.932,371.938 254.714,342.680 262.255 C 335.801 264.028,333.136 264.152,294.491 264.497 L 253.583 264.863 253.583 188.974 L 253.583 113.084 288.617 113.084 C 307.886 113.084,327.556 113.485,332.328 113.975 " stroke="none" fill-rule="evenodd" fill="black"></path></svg>