<svg width="136mm" height="120mm" version="1.1" viewBox="0 0 600 529.4117647058824" xmlns="http://www.w3.org/2000/svg"><path d="M75.390 94.206 L 75.390 113.074 145.425 113.294 L 215.460 113.513 215.677 255.082 L 215.893 396.652 234.738 396.652 L 253.583 396.652 253.583 349.609 L 253.583 302.565 296.204 302.184 C 343.335 301.763,345.700 301.526,362.983 295.474 C 400.783 282.239,429.318 248.463,436.546 208.400 C 438.340 198.456,438.324 179.264,436.513 169.198 C 432.252 145.517,421.079 124.648,403.572 107.669 C 387.689 92.265,370.227 82.874,348.029 77.797 L 339.682 75.887 207.536 75.613 L 75.390 75.338 75.390 94.206 M334.694 114.005 C 372.550 119.203,400.111 150.648,400.142 188.674 C 400.170 223.762,377.798 252.759,343.597 261.964 C 335.432 264.161,335.228 264.172,294.491 264.517 L 253.583 264.863 253.583 188.974 L 253.583 113.084 290.788 113.084 C 312.572 113.084,330.770 113.466,334.694 114.005 " stroke="none" fill-rule="evenodd" fill="black"></path></svg>