<svg width="136mm" height="120mm" version="1.1" viewBox="0 0 600 529.4117647058824" xmlns="http://www.w3.org/2000/svg"><path d="M181.290 64.467 C 181.021 68.825,180.567 77.403,180.283 83.528 C 179.998 89.654,179.315 98.328,178.765 102.804 L 177.765 110.943 136.644 131.671 C 114.027 143.071,95.137 152.558,94.665 152.754 C 94.194 152.949,97.567 160.681,102.160 169.938 L 110.512 186.767 138.878 172.579 C 154.479 164.776,167.448 158.595,167.698 158.845 C 168.411 159.558,160.489 182.654,156.243 192.239 C 147.526 211.918,139.003 225.679,128.933 236.329 C 116.937 249.018,107.438 254.532,94.023 256.594 L 90.810 257.088 90.810 276.014 L 90.810 294.941 97.275 294.355 C 142.075 290.296,180.285 247.163,202.455 175.624 C 205.729 165.057,210.203 146.957,211.202 140.236 L 211.814 136.117 232.484 125.790 C 243.853 120.111,253.334 115.295,253.553 115.090 C 253.771 114.884,250.205 107.214,245.628 98.044 L 237.305 81.373 227.791 86.144 C 222.559 88.768,218.200 90.795,218.106 90.648 C 218.011 90.502,218.206 86.527,218.538 81.815 C 218.871 77.103,219.182 69.489,219.229 64.895 L 219.315 56.542 200.548 56.542 L 181.780 56.542 181.290 64.467 M294.791 64.895 C 294.838 69.489,295.149 77.103,295.482 81.815 C 295.814 86.527,296.009 90.502,295.914 90.648 C 295.820 90.795,291.461 88.768,286.229 86.144 L 276.715 81.373 268.392 98.044 C 263.815 107.214,260.249 114.884,260.467 115.090 C 260.686 115.295,270.167 120.111,281.536 125.790 L 302.206 136.117 302.818 140.236 C 305.934 161.205,317.280 195.918,328.525 218.887 C 350.731 264.242,382.281 291.232,416.745 294.355 L 423.210 294.941 423.210 276.014 L 423.210 257.088 419.997 256.594 C 406.582 254.532,397.083 249.018,385.087 236.329 C 375.017 225.679,366.494 211.918,357.777 192.239 C 353.531 182.654,345.609 159.558,346.322 158.845 C 346.572 158.595,359.541 164.776,375.142 172.579 L 403.508 186.767 411.860 169.938 C 416.453 160.681,419.826 152.949,419.355 152.754 C 418.883 152.558,399.993 143.071,377.376 131.671 L 336.255 110.943 335.288 103.232 C 334.756 98.992,334.075 90.318,333.774 83.957 C 333.473 77.596,333.005 68.825,332.733 64.467 L 332.240 56.542 313.472 56.542 L 294.705 56.542 294.791 64.895 M173.910 268.147 L 173.910 286.995 222.745 286.995 L 271.580 286.995 260.008 310.127 L 248.435 333.260 230.453 324.261 L 212.472 315.263 204.328 331.533 C 199.849 340.482,196.184 348.192,196.184 348.667 C 196.184 349.142,218.157 360.518,245.012 373.948 L 293.840 398.364 301.983 382.096 C 306.461 373.149,310.125 365.441,310.125 364.968 C 310.125 364.495,303.957 361.019,296.418 357.244 C 288.879 353.469,282.711 350.188,282.711 349.954 C 282.711 349.720,293.891 327.171,307.555 299.845 C 321.220 272.519,332.400 249.968,332.400 249.731 C 332.400 249.494,296.739 249.300,253.155 249.300 L 173.910 249.300 173.910 268.147 " stroke="none" fill-rule="evenodd" fill="black"></path></svg>