<svg width="136mm" height="120mm" version="1.1" viewBox="0 0 600 529.4117647058824" xmlns="http://www.w3.org/2000/svg"><path d="M181.290 61.897 C 181.034 64.841,180.576 73.419,180.273 80.958 C 179.970 88.497,179.282 98.328,178.744 102.804 L 177.765 110.943 136.644 131.671 C 114.027 143.071,95.137 152.558,94.665 152.754 C 94.194 152.949,97.567 160.681,102.160 169.938 L 110.512 186.767 138.878 172.579 C 154.479 164.776,167.393 158.541,167.576 158.724 C 168.060 159.208,164.107 172.085,160.561 181.575 C 156.042 193.668,146.542 212.647,140.478 221.695 C 131.747 234.723,119.305 246.985,110.086 251.646 C 106.266 253.577,98.914 255.842,94.023 256.594 L 90.810 257.088 90.810 275.997 L 90.810 294.906 97.450 294.286 C 114.525 292.690,130.517 285.392,146.577 271.869 C 169.097 252.906,188.771 219.430,201.640 178.178 C 205.095 167.103,210.301 146.465,211.212 140.236 L 211.814 136.117 232.484 125.790 C 243.853 120.111,253.334 115.295,253.553 115.090 C 253.771 114.884,250.205 107.214,245.628 98.044 L 237.305 81.373 227.791 86.144 C 222.559 88.768,218.201 90.795,218.107 90.648 C 218.014 90.502,218.215 85.948,218.554 80.530 C 218.894 75.111,219.204 67.497,219.243 63.610 L 219.315 56.542 200.536 56.542 L 181.757 56.542 181.290 61.897 M294.796 64.467 C 294.846 68.825,295.154 76.439,295.481 81.386 C 295.808 86.334,296.001 90.502,295.909 90.648 C 295.817 90.795,291.461 88.768,286.229 86.144 L 276.715 81.373 268.392 98.044 C 263.815 107.214,260.249 114.884,260.467 115.090 C 260.686 115.295,270.167 120.111,281.536 125.790 L 302.206 136.117 302.808 140.236 C 303.719 146.465,308.925 167.103,312.380 178.178 C 325.249 219.430,344.923 252.906,367.443 271.869 C 383.503 285.392,399.495 292.690,416.570 294.286 L 423.210 294.906 423.210 275.997 L 423.210 257.088 419.997 256.594 C 406.500 254.519,396.822 248.868,384.897 236.099 C 370.835 221.042,357.325 195.340,348.224 166.334 C 346.991 162.402,346.160 159.007,346.379 158.788 C 346.598 158.570,359.541 164.776,375.142 172.579 L 403.508 186.767 411.860 169.938 C 416.453 160.681,419.826 152.949,419.355 152.754 C 418.883 152.558,399.993 143.071,377.376 131.671 L 336.255 110.943 335.244 102.376 C 334.688 97.664,334.001 88.219,333.718 81.386 C 333.434 74.554,332.988 66.169,332.728 62.753 L 332.253 56.542 313.479 56.542 L 294.705 56.542 294.796 64.467 M173.910 268.147 L 173.910 286.995 222.745 286.995 L 271.580 286.995 260.008 310.127 L 248.435 333.260 230.453 324.261 L 212.472 315.263 204.328 331.533 C 199.849 340.482,196.184 348.192,196.184 348.667 C 196.184 349.142,218.157 360.518,245.012 373.948 L 293.840 398.364 301.983 382.096 C 306.461 373.149,310.125 365.441,310.125 364.968 C 310.125 364.495,303.957 361.019,296.418 357.244 C 288.879 353.469,282.711 350.188,282.711 349.954 C 282.711 349.720,293.891 327.171,307.555 299.845 C 321.220 272.519,332.400 249.968,332.400 249.731 C 332.400 249.494,296.739 249.300,253.155 249.300 L 173.910 249.300 173.910 268.147 " stroke="none" fill-rule="evenodd" fill="black"></path></svg>