<svg width="136mm" height="120mm" version="1.1" viewBox="0 0 600 529.4117647058824" xmlns="http://www.w3.org/2000/svg"><path d="M180.920 75.604 C 180.001 93.160,178.682 107.706,177.775 110.281 C 177.572 110.860,158.789 120.637,136.035 132.007 C 113.282 143.378,94.486 152.850,94.268 153.056 C 94.049 153.262,97.614 160.932,102.191 170.099 L 110.512 186.767 138.878 172.579 C 154.479 164.776,167.427 158.575,167.651 158.799 C 168.282 159.430,163.888 173.259,159.583 184.191 C 149.973 208.594,139.668 225.441,126.009 239.081 C 115.517 249.558,107.426 254.315,96.895 256.197 L 90.810 257.284 90.810 275.995 L 90.810 294.705 93.268 294.705 C 97.898 294.705,110.362 292.153,116.650 289.917 C 158.841 274.919,194.014 221.127,209.867 147.352 C 210.829 142.876,211.790 138.443,212.003 137.500 C 212.286 136.246,217.905 133.038,232.987 125.521 C 244.315 119.874,253.583 114.955,253.583 114.589 C 253.583 114.223,249.918 106.601,245.438 97.651 L 237.293 81.378 227.890 86.094 C 222.718 88.688,218.384 90.811,218.259 90.811 C 218.133 90.812,218.285 86.282,218.596 80.745 C 218.907 75.208,219.196 67.497,219.239 63.610 L 219.315 56.542 200.617 56.542 L 181.919 56.542 180.920 75.604 M294.781 63.610 C 294.824 67.497,295.113 75.208,295.424 80.745 C 295.735 86.282,295.887 90.812,295.761 90.811 C 295.636 90.811,291.302 88.688,286.130 86.094 L 276.727 81.378 268.582 97.651 C 264.102 106.601,260.437 114.223,260.437 114.589 C 260.437 114.955,269.705 119.874,281.033 125.521 C 296.194 133.078,301.728 136.239,301.999 137.500 C 313.012 188.672,326.403 221.852,347.517 250.290 C 366.871 276.356,391.220 291.704,417.427 294.356 L 423.210 294.941 423.210 276.113 L 423.210 257.284 417.298 256.228 C 393.981 252.061,370.942 225.916,354.762 185.259 C 350.649 174.926,345.707 159.461,346.320 158.847 C 346.571 158.596,359.541 164.776,375.142 172.579 L 403.508 186.767 411.829 170.099 C 416.406 160.932,419.971 153.262,419.752 153.056 C 419.534 152.850,400.738 143.378,377.985 132.007 C 355.231 120.637,336.448 110.860,336.245 110.281 C 335.338 107.706,334.019 93.160,333.100 75.604 L 332.101 56.542 313.403 56.542 L 294.705 56.542 294.781 63.610 M173.910 268.147 L 173.910 286.995 222.745 286.995 L 271.580 286.995 260.008 310.127 L 248.435 333.260 230.453 324.261 L 212.472 315.263 204.328 331.533 C 199.849 340.482,196.184 348.192,196.184 348.667 C 196.184 349.142,218.157 360.518,245.012 373.948 L 293.840 398.364 301.983 382.096 C 306.461 373.149,310.125 365.441,310.125 364.968 C 310.125 364.495,303.957 361.019,296.418 357.244 C 288.879 353.469,282.711 350.188,282.711 349.954 C 282.711 349.720,293.891 327.171,307.555 299.845 C 321.220 272.519,332.400 249.968,332.400 249.731 C 332.400 249.494,296.739 249.300,253.155 249.300 L 173.910 249.300 173.910 268.147 " stroke="none" fill-rule="evenodd" fill="black"></path></svg>