<svg width="136mm" height="120mm" version="1.1" viewBox="0 0 600 529.4117647058824" xmlns="http://www.w3.org/2000/svg"><path d="M238.163 89.428 L 238.163 141.161 232.380 142.223 C 229.199 142.807,222.579 144.615,217.667 146.240 C 172.906 161.057,140.255 200.352,133.583 247.436 C 132.254 256.817,133.033 280.991,134.940 289.548 C 137.284 300.066,140.416 309.188,144.801 318.264 C 161.893 353.647,193.265 378.086,232.433 386.529 C 245.005 389.239,269.015 389.239,281.587 386.529 C 331.228 375.829,368.207 339.055,379.095 289.565 C 380.987 280.966,381.758 256.758,380.437 247.436 C 375.633 213.540,356.904 182.560,329.327 162.896 C 315.935 153.347,296.881 145.131,281.212 142.151 L 275.857 141.133 275.857 89.414 L 275.857 37.695 257.010 37.695 L 238.163 37.695 238.163 89.428 M238.163 212.890 L 238.163 245.873 205.180 245.873 C 186.980 245.873,172.197 245.538,172.197 245.126 C 172.197 244.715,173.160 241.428,174.337 237.823 C 182.845 211.757,203.085 191.249,229.370 182.060 C 239.152 178.641,238.163 175.172,238.163 212.890 M284.079 181.931 C 297.426 186.471,306.812 192.144,316.864 201.748 C 328.904 213.250,337.776 228.413,341.305 243.517 L 341.856 245.873 308.857 245.873 L 275.857 245.873 275.857 212.890 C 275.857 186.081,276.070 179.907,276.992 179.907 C 277.617 179.907,280.806 180.818,284.079 181.931 M238.163 316.218 L 238.163 348.868 234.950 348.268 C 233.183 347.939,228.843 346.554,225.305 345.192 C 206.691 338.025,188.603 321.533,179.574 303.498 C 177.122 298.600,172.197 285.507,172.197 283.887 C 172.197 283.711,187.039 283.568,205.180 283.568 L 238.163 283.568 238.163 316.218 M341.823 283.887 C 341.823 285.873,336.601 299.272,333.686 304.765 C 328.922 313.742,324.011 320.110,315.931 327.781 C 305.857 337.348,289.814 346.264,279.070 348.268 L 275.857 348.868 275.857 316.218 L 275.857 283.568 308.840 283.568 C 326.981 283.568,341.823 283.711,341.823 283.887 " stroke="none" fill-rule="evenodd" fill="black"></path></svg>