<svg width="136mm" height="120mm" version="1.1" viewBox="0 0 600 529.4117647058824" xmlns="http://www.w3.org/2000/svg"><path d="M238.163 89.457 L 238.163 141.219 235.378 141.754 C 208.543 146.906,186.544 158.582,167.937 177.549 C 149.496 196.348,137.691 220.177,133.664 246.730 C 133.129 250.263,132.690 258.167,132.690 264.292 C 132.690 270.417,133.129 278.320,133.664 281.854 C 141.648 334.506,180.022 375.178,232.433 386.539 C 245.045 389.274,269.000 389.268,281.645 386.528 C 333.926 375.199,372.385 334.417,380.356 281.854 C 381.608 273.596,381.608 254.988,380.356 246.730 C 375.318 213.508,358.129 184.747,331.115 164.339 C 316.853 153.565,296.784 144.886,279.070 141.832 L 275.857 141.278 275.857 89.486 L 275.857 37.695 257.010 37.695 L 238.163 37.695 238.163 89.457 M238.163 212.890 L 238.163 245.873 205.659 245.873 C 187.781 245.873,172.972 245.578,172.749 245.217 C 172.190 244.312,176.611 230.880,179.019 226.169 C 187.597 209.384,200.162 196.518,216.425 187.867 C 223.035 184.350,234.263 180.047,237.092 179.945 C 237.931 179.915,238.163 187.054,238.163 212.890 M283.263 181.719 C 304.853 188.382,324.345 205.123,335.017 226.169 C 337.424 230.917,341.825 244.320,341.271 245.217 C 341.048 245.578,326.239 245.873,308.361 245.873 L 275.857 245.873 275.857 212.890 C 275.857 194.061,276.186 179.907,276.624 179.907 C 277.045 179.907,280.033 180.723,283.263 181.719 M238.163 316.218 L 238.163 348.868 234.950 348.265 C 233.183 347.934,228.606 346.419,224.779 344.900 C 200.151 335.122,180.512 313.204,173.472 287.637 L 172.352 283.568 205.257 283.568 L 238.163 283.568 238.163 316.218 M340.548 287.637 C 333.508 313.204,313.869 335.122,289.241 344.900 C 285.414 346.419,280.837 347.934,279.070 348.265 L 275.857 348.868 275.857 316.218 L 275.857 283.568 308.763 283.568 L 341.668 283.568 340.548 287.637 " stroke="none" fill-rule="evenodd" fill="black"></path></svg>