<svg width="136mm" height="120mm" version="1.1" viewBox="0 0 600 529.4117647058824" xmlns="http://www.w3.org/2000/svg"><path d="M238.163 89.457 L 238.163 141.219 235.378 141.754 C 198.064 148.917,167.658 170.279,148.759 202.610 C 134.960 226.214,129.329 258.326,134.138 285.980 C 135.845 295.797,140.980 311.171,145.640 320.417 C 162.558 353.980,194.502 378.317,232.433 386.539 C 245.017 389.267,269.003 389.267,281.587 386.539 C 319.485 378.324,351.477 353.951,368.380 320.417 C 373.068 311.115,378.167 295.821,379.911 285.828 C 381.346 277.607,381.901 263.620,381.157 254.444 C 376.570 197.871,335.439 152.657,278.642 141.754 L 275.857 141.219 275.857 89.457 L 275.857 37.695 257.010 37.695 L 238.163 37.695 238.163 89.457 M238.163 212.890 L 238.163 245.873 205.163 245.873 L 172.164 245.873 172.721 243.517 C 178.213 220.268,194.498 199.531,216.425 187.867 C 223.035 184.350,234.263 180.047,237.092 179.945 C 237.931 179.915,238.163 187.054,238.163 212.890 M283.263 181.719 C 311.244 190.354,334.620 215.245,341.299 243.517 L 341.856 245.873 308.857 245.873 L 275.857 245.873 275.857 212.890 C 275.857 194.061,276.186 179.907,276.624 179.907 C 277.045 179.907,280.033 180.723,283.263 181.719 M238.163 316.122 C 238.163 345.239,238.019 348.677,236.807 348.677 C 234.787 348.677,222.928 344.479,218.030 342.030 C 202.655 334.342,188.199 319.967,180.006 304.219 C 177.328 299.070,172.197 285.712,172.197 283.887 C 172.197 283.711,187.039 283.568,205.180 283.568 L 238.163 283.568 238.163 316.122 M340.408 288.494 C 338.760 294.977,331.729 309.343,327.307 315.266 C 319.325 325.954,306.897 336.576,295.990 342.030 C 291.092 344.479,279.233 348.677,277.213 348.677 C 276.001 348.677,275.857 345.239,275.857 316.122 L 275.857 283.568 308.759 283.568 L 341.661 283.568 340.408 288.494 " stroke="none" fill-rule="evenodd" fill="black"></path></svg>