<svg width="136mm" height="120mm" version="1.1" viewBox="0 0 600 529.4117647058824" xmlns="http://www.w3.org/2000/svg"><path d="M167.061 161.484 L 77.543 251.004 90.810 264.292 L 104.077 277.579 180.543 201.116 L 257.010 124.653 333.477 201.116 L 409.943 277.579 423.210 264.292 L 436.477 251.004 346.959 161.484 C 297.724 112.247,257.247 71.963,257.010 71.963 C 256.773 71.963,216.296 112.247,167.061 161.484 M186.116 295.991 C 164.796 338.634,147.352 373.716,147.352 373.951 C 147.352 374.186,194.964 374.378,253.155 374.378 C 323.353 374.378,358.957 374.089,358.957 373.518 C 358.957 371.836,308.394 271.574,307.545 271.574 C 307.070 271.574,299.360 275.238,290.412 279.717 L 274.143 287.860 286.140 311.843 L 298.138 335.826 253.586 335.826 C 229.083 335.826,209.035 335.632,209.035 335.395 C 209.035 335.158,220.237 312.563,233.928 285.184 C 247.619 257.805,258.702 235.297,258.558 235.166 C 258.206 234.847,225.391 218.459,225.104 218.459 C 224.981 218.459,207.436 253.348,186.116 295.991 " stroke="none" fill-rule="evenodd" fill="black"></path></svg>