<svg width="136mm" height="120mm" version="1.1" viewBox="0 0 600 529.4117647058824" xmlns="http://www.w3.org/2000/svg"><path d="M229.596 35.565 C 196.481 39.657,165.057 52.298,137.827 72.482 C 127.438 80.182,107.929 99.397,100.498 109.248 C 87.067 127.053,77.114 146.008,70.358 166.649 C 63.528 187.514,60.840 204.446,60.840 226.597 C 60.840 248.635,63.531 265.687,70.247 286.210 C 80.055 316.179,94.694 339.905,117.282 362.444 C 134.310 379.435,147.578 389.041,167.995 399.161 C 186.790 408.478,207.040 414.608,229.167 417.677 C 242.120 419.474,272.117 419.033,283.996 416.872 C 318.292 410.630,347.815 397.453,373.521 376.911 C 385.762 367.130,400.435 351.650,410.028 338.397 C 451.365 281.287,457.268 202.141,424.878 139.293 C 398.065 87.268,350.792 50.968,293.226 38.200 C 276.219 34.428,248.192 33.267,229.596 35.565 M273.577 73.248 C 290.855 75.513,305.534 79.999,321.496 87.893 C 367.260 110.525,398.353 153.189,406.505 204.539 L 407.084 208.183 253.445 207.966 L 99.806 207.750 100.079 204.751 C 101.145 193.049,106.567 174.937,113.121 161.184 C 121.505 143.590,130.507 130.787,143.926 117.368 C 178.209 83.085,225.598 66.958,273.577 73.248 M406.457 249.086 C 401.088 280.244,388.746 306.754,369.456 328.560 C 343.549 357.846,310.570 375.248,271.148 380.435 C 260.124 381.885,235.000 380.975,224.077 378.730 C 170.495 367.716,127.933 331.764,108.304 280.939 C 104.959 272.276,102.195 261.990,100.693 252.608 L 99.615 245.873 253.312 245.873 L 407.010 245.873 406.457 249.086 " stroke="none" fill-rule="evenodd" fill="black"></path></svg>