<svg width="136mm" height="120mm" version="1.1" viewBox="0 0 600 529.4117647058824" xmlns="http://www.w3.org/2000/svg"><path d="M228.739 35.615 C 187.723 40.877,149.718 59.162,119.860 87.999 C 102.793 104.482,90.887 120.766,80.537 141.784 C 67.080 169.110,60.840 195.978,60.840 226.597 C 60.840 277.152,79.660 323.730,114.798 360.136 C 146.736 393.227,187.471 413.083,233.732 418.109 C 247.143 419.566,272.398 418.749,285.709 416.428 C 317.392 410.903,348.743 396.834,373.521 377.024 C 381.440 370.692,394.114 358.112,401.647 349.105 C 419.992 327.173,435.222 296.225,441.084 268.970 C 446.949 241.702,446.983 211.468,441.179 184.619 C 435.181 156.876,420.096 126.146,401.647 104.089 C 383.168 81.996,362.577 65.846,337.111 53.475 C 316.718 43.567,296.011 37.566,273.964 35.171 C 262.841 33.964,239.852 34.189,228.739 35.615 M284.056 74.875 C 325.188 83.540,359.932 107.205,382.917 142.212 C 394.697 160.153,402.351 180.280,406.457 204.109 L 407.010 207.321 253.177 207.321 L 99.345 207.321 99.747 205.394 C 99.969 204.334,100.769 200.189,101.526 196.184 C 111.621 142.754,151.933 97.130,204.323 79.842 C 223.123 73.639,234.935 71.966,257.010 72.382 C 270.778 72.641,275.534 73.080,284.056 74.875 M406.457 249.086 C 402.354 272.901,394.709 293.010,382.925 310.982 C 359.335 346.960,322.306 371.492,280.141 379.076 C 269.323 381.022,247.503 381.715,236.785 380.453 C 182.550 374.066,137.265 342.117,114.031 293.848 C 106.660 278.535,103.370 268.000,99.917 248.657 L 99.420 245.873 253.215 245.873 L 407.010 245.873 406.457 249.086 " stroke="none" fill-rule="evenodd" fill="black"></path></svg>