<svg width="136mm" height="120mm" version="1.1" viewBox="0 0 600 529.4117647058824" xmlns="http://www.w3.org/2000/svg"><path d="M229.596 35.511 C 193.131 40.238,157.560 55.579,130.264 78.351 C 120.893 86.169,105.882 101.969,98.893 111.371 C 73.445 145.604,60.740 183.974,60.740 226.597 C 60.740 277.154,79.206 323.216,113.941 359.305 C 131.001 377.030,147.219 388.947,168.342 399.278 C 196.121 412.865,222.325 418.929,253.155 418.905 C 275.932 418.887,293.706 416.096,313.930 409.363 C 383.425 386.224,432.961 326.853,444.263 253.155 C 446.237 240.280,446.237 212.914,444.263 200.039 C 431.211 114.932,367.041 49.763,283.071 36.338 C 271.343 34.463,241.267 33.998,229.596 35.511 M270.740 72.840 C 288.084 74.937,302.173 78.885,317.407 85.919 C 335.671 94.351,348.208 103.094,362.433 117.319 C 384.890 139.776,398.991 165.976,405.182 196.747 C 406.145 201.533,406.933 206.063,406.933 206.813 C 406.933 208.057,393.258 208.178,253.116 208.178 L 99.300 208.178 99.817 204.965 C 105.439 170.077,119.991 141.137,143.875 117.350 C 168.694 92.629,201.257 76.703,234.736 72.913 C 244.031 71.860,262.327 71.823,270.740 72.840 M406.933 246.809 C 406.933 249.151,403.216 265.861,401.235 272.426 C 396.688 287.494,387.084 306.051,376.625 319.977 C 370.023 328.767,355.325 343.466,346.535 350.067 C 324.392 366.698,299.574 376.695,271.148 380.435 C 260.124 381.885,235.000 380.975,224.077 378.730 C 192.913 372.324,166.193 358.107,144.300 336.282 C 120.060 312.117,105.767 283.920,99.885 248.657 L 99.420 245.873 253.176 245.873 C 363.824 245.873,406.933 246.135,406.933 246.809 " stroke="none" fill-rule="evenodd" fill="black"></path></svg>