<svg width="136mm" height="120mm" version="1.1" viewBox="0 0 600 529.4117647058824" xmlns="http://www.w3.org/2000/svg"><path d="M328.973 64.252 L 328.973 75.390 289.136 75.390 L 249.300 75.390 249.300 94.237 L 249.300 113.084 349.534 113.084 L 449.767 113.084 449.767 94.237 L 449.767 75.390 408.218 75.390 L 366.668 75.390 366.668 64.252 L 366.668 53.115 347.820 53.115 L 328.973 53.115 328.973 64.252 M127.648 99.091 C 104.193 102.781,83.817 115.158,69.355 134.502 C 64.321 141.235,58.696 153.258,55.928 163.201 L 53.544 171.768 53.544 226.597 L 53.544 281.426 55.928 289.993 C 58.691 299.919,64.313 311.943,69.346 318.692 C 79.875 332.812,94.454 343.888,109.854 349.467 C 122.142 353.919,124.025 354.213,140.070 354.187 C 154.410 354.164,156.032 353.997,163.201 351.808 C 198.432 341.051,221.660 313.605,226.169 277.405 C 226.855 271.901,227.061 254.446,226.836 221.029 L 226.510 172.625 224.257 164.310 C 220.166 149.215,213.089 136.277,203.161 125.743 C 186.247 107.796,163.970 98.336,139.333 98.637 C 134.085 98.701,128.826 98.905,127.648 99.091 M328.973 179.471 L 328.973 233.865 281.640 234.086 L 234.307 234.307 234.307 253.155 L 234.307 272.002 275.640 272.225 L 316.973 272.447 288.277 329.835 C 272.494 361.399,259.580 387.518,259.580 387.879 C 259.580 388.239,267.001 392.248,276.072 396.788 L 292.563 405.042 320.085 350.090 L 347.606 295.139 374.793 349.536 C 389.746 379.455,402.147 404.111,402.350 404.327 C 402.765 404.767,435.133 388.852,435.727 387.915 C 435.936 387.586,423.181 361.467,407.383 329.874 L 378.659 272.431 419.782 272.431 L 460.905 272.431 460.905 253.155 L 460.905 233.879 413.786 233.879 L 366.668 233.879 366.668 179.479 L 366.668 125.078 347.820 125.078 L 328.973 125.078 328.973 179.471 M157.099 139.117 C 168.103 143.308,177.139 151.141,182.904 161.488 C 187.783 170.245,188.681 174.934,188.798 192.283 L 188.902 207.750 139.856 207.971 L 90.810 208.192 90.825 194.264 C 90.850 171.362,93.907 162.213,105.360 150.771 C 116.467 139.673,125.812 136.027,141.784 136.559 C 149.364 136.812,152.360 137.312,157.099 139.117 M257.008 158.920 L 243.747 172.201 268.147 196.613 L 292.548 221.024 306.051 207.541 L 319.554 194.058 295.355 169.849 C 282.046 156.533,270.957 145.639,270.712 145.639 C 270.468 145.639,264.301 151.616,257.008 158.920 M400.081 170.053 L 375.679 194.466 388.942 207.750 L 402.205 221.034 426.841 196.409 L 451.476 171.784 438.424 158.711 C 431.246 151.522,425.172 145.639,424.928 145.639 C 424.684 145.639,413.503 156.625,400.081 170.053 M189.078 261.508 C 188.726 272.153,188.114 278.646,187.159 281.854 C 184.916 289.388,180.063 297.275,173.979 303.272 C 164.650 312.466,153.397 316.979,139.800 316.979 C 125.741 316.979,115.544 312.677,105.368 302.452 C 93.967 290.996,90.850 281.761,90.825 259.366 L 90.810 245.873 140.202 245.873 L 189.594 245.873 189.078 261.508 " stroke="none" fill-rule="evenodd" fill="black"></path></svg>