<svg width="136mm" height="120mm" version="1.1" viewBox="0 0 600 529.4117647058824" xmlns="http://www.w3.org/2000/svg"><path d="M328.973 64.252 L 328.973 75.390 289.136 75.390 L 249.300 75.390 249.300 94.237 L 249.300 113.084 349.534 113.084 L 449.767 113.084 449.767 94.237 L 449.767 75.390 408.218 75.390 L 366.668 75.390 366.668 64.252 L 366.668 53.115 347.820 53.115 L 328.973 53.115 328.973 64.252 M127.220 99.085 C 95.739 104.078,69.125 125.778,58.290 155.287 C 53.390 168.631,53.544 166.314,53.544 226.597 C 53.544 286.880,53.390 284.563,58.290 297.908 C 68.002 324.358,89.287 343.783,117.796 352.212 C 123.933 354.027,126.262 354.233,140.070 354.184 C 154.261 354.134,156.106 353.945,163.201 351.816 C 197.990 341.378,221.768 313.336,226.138 277.593 C 227.304 268.055,227.304 185.140,226.138 175.601 C 224.841 164.994,222.355 156.598,217.646 146.924 C 206.448 123.920,186.592 107.741,161.210 100.939 C 156.340 99.634,151.412 99.112,142.212 98.927 C 135.380 98.790,128.634 98.860,127.220 99.085 M328.973 179.471 L 328.973 233.865 281.640 234.086 L 234.307 234.307 234.307 253.155 L 234.307 272.002 275.640 272.225 L 316.973 272.447 288.277 329.835 C 272.494 361.399,259.580 387.518,259.580 387.879 C 259.580 388.239,267.001 392.238,276.072 396.765 L 292.563 404.995 319.927 350.707 C 334.977 320.848,347.507 296.418,347.773 296.418 C 348.038 296.418,360.493 320.898,375.450 350.817 L 402.645 405.215 419.353 396.875 C 428.542 392.287,436.060 388.239,436.060 387.879 C 436.060 387.518,423.145 361.395,407.360 329.827 L 378.659 272.431 419.782 272.431 L 460.905 272.431 460.905 253.155 L 460.905 233.879 413.786 233.879 L 366.668 233.879 366.668 179.479 L 366.668 125.078 347.820 125.078 L 328.973 125.078 328.973 179.471 M157.255 139.159 C 169.374 143.716,181.157 155.414,186.021 167.716 C 187.767 172.133,187.995 174.407,188.293 190.402 L 188.624 208.178 139.717 208.178 L 90.810 208.178 90.810 194.200 C 90.810 186.512,91.225 177.934,91.732 175.138 C 94.784 158.301,110.392 141.809,127.335 137.518 C 135.290 135.503,149.625 136.289,157.255 139.159 M257.008 158.920 L 243.747 172.201 268.147 196.613 L 292.548 221.024 306.051 207.541 L 319.554 194.058 295.355 169.849 C 282.046 156.533,270.957 145.639,270.712 145.639 C 270.468 145.639,264.301 151.616,257.008 158.920 M400.078 170.056 L 375.672 194.473 389.161 207.962 L 402.651 221.452 427.274 196.828 L 451.897 172.205 438.635 158.922 C 431.340 151.616,425.172 145.639,424.928 145.639 C 424.684 145.639,413.501 156.627,400.078 170.056 M188.474 261.114 C 188.474 272.042,188.102 277.781,187.161 281.396 C 183.474 295.549,171.134 308.941,156.901 314.233 C 149.199 317.098,135.631 317.790,127.717 315.723 C 118.732 313.376,112.424 309.661,105.286 302.513 C 100.427 297.647,97.995 294.357,95.713 289.565 C 91.689 281.114,90.810 275.711,90.810 259.423 L 90.810 245.873 139.642 245.873 L 188.474 245.873 188.474 261.114 " stroke="none" fill-rule="evenodd" fill="black"></path></svg>