<svg width="136mm" height="120mm" version="1.1" viewBox="0 0 600 529.4117647058824" xmlns="http://www.w3.org/2000/svg"><path d="M328.973 64.252 L 328.973 75.390 289.136 75.390 L 249.300 75.390 249.300 94.237 L 249.300 113.084 349.534 113.084 L 449.767 113.084 449.767 94.237 L 449.767 75.390 408.218 75.390 L 366.668 75.390 366.668 64.252 L 366.668 53.115 347.820 53.115 L 328.973 53.115 328.973 64.252 M123.365 99.749 C 90.026 106.731,65.055 130.470,55.427 164.336 C 53.592 170.790,53.557 171.942,53.557 226.597 C 53.557 281.252,53.592 282.404,55.427 288.858 C 60.047 305.108,67.878 318.674,78.954 329.614 C 87.221 337.779,92.030 341.177,102.376 346.163 C 116.390 352.916,122.769 354.257,140.499 354.180 C 154.232 354.120,156.138 353.919,163.201 351.790 C 177.783 347.394,188.752 341.169,199.322 331.290 C 210.930 320.442,219.854 305.347,224.243 289.136 L 226.563 280.569 226.572 226.597 L 226.580 172.625 224.252 164.058 C 215.852 133.146,193.796 110.525,163.201 101.439 C 156.598 99.478,153.585 99.109,142.212 98.866 C 133.277 98.676,127.112 98.965,123.365 99.749 M328.973 179.034 L 328.973 233.879 281.854 233.879 L 234.736 233.879 234.736 252.727 L 234.736 271.574 275.857 271.574 C 298.474 271.574,316.979 271.768,316.979 272.005 C 316.979 272.242,304.064 298.263,288.280 329.829 C 272.495 361.396,259.580 387.518,259.580 387.879 C 259.580 388.239,267.001 392.248,276.072 396.788 L 292.563 405.042 320.085 350.090 L 347.606 295.139 374.793 349.536 C 389.746 379.455,402.147 404.111,402.350 404.327 C 402.765 404.767,435.133 388.852,435.727 387.915 C 435.936 387.586,423.182 361.468,407.384 329.876 C 391.587 298.284,378.661 272.242,378.661 272.005 C 378.661 271.768,397.166 271.574,419.783 271.574 L 460.905 271.574 460.905 252.727 L 460.905 233.879 413.792 233.879 L 366.680 233.879 366.460 179.264 L 366.239 124.650 347.606 124.419 L 328.973 124.188 328.973 179.034 M152.019 137.525 C 165.319 140.989,177.716 150.970,183.633 162.978 C 187.827 171.490,189.263 179.629,189.301 195.113 L 189.331 207.321 140.070 207.321 L 90.810 207.321 90.825 193.828 C 90.834 185.576,91.307 178.134,92.041 174.668 C 95.746 157.191,110.146 142.189,127.648 137.571 C 133.900 135.922,145.779 135.899,152.019 137.525 M257.008 158.920 L 243.747 172.201 268.147 196.613 L 292.548 221.024 306.051 207.541 L 319.554 194.058 295.355 169.849 C 282.046 156.533,270.957 145.639,270.712 145.639 C 270.468 145.639,264.301 151.616,257.008 158.920 M400.081 170.053 L 375.679 194.466 388.942 207.750 L 402.205 221.034 426.841 196.409 L 451.476 171.784 438.424 158.711 C 431.246 151.522,425.172 145.639,424.928 145.639 C 424.684 145.639,413.503 156.625,400.081 170.053 M189.301 258.081 C 189.263 273.531,187.825 281.714,183.669 290.125 C 177.704 302.197,165.297 312.211,152.019 315.670 C 145.595 317.343,134.594 317.347,128.042 315.679 C 110.366 311.177,95.769 296.113,92.041 278.526 C 91.307 275.060,90.834 267.618,90.825 259.366 L 90.810 245.873 140.070 245.873 L 189.331 245.873 189.301 258.081 " stroke="none" fill-rule="evenodd" fill="black"></path></svg>