<svg width="136mm" height="120mm" version="1.1" viewBox="0 0 600 529.4117647058824" xmlns="http://www.w3.org/2000/svg"><path d="M238.835 35.913 C 228.201 38.226,223.423 39.916,214.116 44.657 C 191.195 56.330,174.526 76.065,166.796 100.683 C 163.546 111.030,162.470 120.293,163.026 133.127 C 163.607 146.517,166.078 156.559,171.725 168.481 C 176.647 178.871,180.747 184.950,188.046 192.682 C 225.687 232.559,287.841 232.747,325.605 193.097 C 336.048 182.133,344.049 167.792,348.278 152.463 C 350.992 142.623,352.023 124.890,350.468 114.798 C 346.689 90.274,333.413 68.021,313.552 52.923 C 305.648 46.914,290.750 39.784,280.569 37.138 C 268.776 34.074,249.844 33.517,238.835 35.913 M269.432 73.247 C 272.730 73.937,278.701 76.115,282.700 78.087 C 292.089 82.715,302.179 92.524,306.934 101.644 C 308.689 105.011,310.125 108.192,310.125 108.712 C 310.125 109.391,295.178 109.658,257.010 109.658 C 218.842 109.658,203.895 109.391,203.895 108.712 C 203.895 108.192,205.331 105.011,207.086 101.644 C 211.837 92.530,221.929 82.718,231.320 78.081 C 243.241 72.195,256.416 70.524,269.432 73.247 M310.125 148.303 C 310.125 150.055,304.998 158.897,301.110 163.852 C 279.068 191.935,234.952 191.935,212.910 163.852 C 209.022 158.897,203.895 150.055,203.895 148.303 C 203.895 147.617,218.661 147.352,257.010 147.352 C 295.359 147.352,310.125 147.617,310.125 148.303 M242.018 231.764 C 226.202 234.398,213.106 239.935,200.378 249.368 C 193.405 254.535,183.150 265.192,178.759 271.833 C 173.747 279.414,168.223 291.719,165.586 301.180 C 163.379 309.097,163.216 310.783,163.272 325.118 C 163.339 341.990,164.196 346.757,169.617 360.412 C 178.611 383.064,198.636 403.088,221.287 412.082 C 232.485 416.528,240.215 418.169,252.388 418.684 C 265.172 419.226,274.541 418.142,284.629 414.955 C 300.648 409.895,311.121 403.469,323.456 391.135 C 335.960 378.631,342.486 367.898,347.354 351.832 C 350.618 341.060,351.513 333.314,350.987 320.406 C 350.426 306.662,348.029 296.818,342.295 284.714 C 337.373 274.323,333.273 268.244,325.974 260.512 C 304.291 237.542,272.559 226.676,242.018 231.764 M268.826 269.495 C 281.200 272.020,293.402 279.521,301.110 289.342 C 304.998 294.297,310.125 303.139,310.125 304.891 C 310.125 305.578,295.359 305.842,257.010 305.842 C 218.661 305.842,203.895 305.578,203.895 304.891 C 203.895 304.368,205.057 301.759,206.478 299.093 C 218.799 275.976,243.387 264.303,268.826 269.495 M310.125 344.482 C 310.125 345.002,308.689 348.183,306.934 351.550 C 302.615 359.835,292.144 370.314,283.996 374.508 C 273.197 380.065,269.932 380.809,256.582 380.753 C 245.603 380.707,244.044 380.499,238.163 378.298 C 225.107 373.411,213.170 363.079,206.989 351.317 C 205.287 348.078,203.895 345.002,203.895 344.482 C 203.895 343.803,218.842 343.537,257.010 343.537 C 295.178 343.537,310.125 343.803,310.125 344.482 " stroke="none" fill-rule="evenodd" fill="black"></path></svg>