<svg width="136mm" height="120mm" version="1.1" viewBox="0 0 600 529.4117647058824" xmlns="http://www.w3.org/2000/svg"><path d="M238.835 35.913 C 228.183 38.230,223.423 39.917,214.032 44.700 C 166.993 68.658,149.008 126.389,174.047 173.053 C 198.392 218.424,254.436 235.798,300.242 212.172 C 350.244 186.383,366.502 122.901,335.223 75.591 C 330.953 69.133,320.521 58.221,313.552 52.923 C 305.648 46.914,290.750 39.784,280.569 37.138 C 268.776 34.074,249.844 33.517,238.835 35.913 M269.432 73.247 C 272.730 73.937,278.701 76.115,282.700 78.087 C 292.089 82.715,302.179 92.524,306.934 101.644 C 308.689 105.011,310.125 108.192,310.125 108.712 C 310.125 109.391,295.178 109.658,257.010 109.658 C 218.842 109.658,203.895 109.391,203.895 108.712 C 203.895 108.192,205.331 105.011,207.086 101.644 C 211.837 92.530,221.929 82.718,231.320 78.081 C 243.241 72.195,256.416 70.524,269.432 73.247 M310.125 148.303 C 310.125 150.055,304.998 158.897,301.110 163.852 C 279.068 191.935,234.952 191.935,212.910 163.852 C 209.022 158.897,203.895 150.055,203.895 148.303 C 203.895 147.617,218.661 147.352,257.010 147.352 C 295.359 147.352,310.125 147.617,310.125 148.303 M242.018 231.726 C 174.212 242.655,140.883 319.503,178.751 377.603 C 182.938 384.026,197.794 398.840,204.323 403.100 C 220.724 413.804,237.405 418.836,256.684 418.896 C 276.039 418.957,293.249 413.827,309.710 403.090 C 316.226 398.840,331.085 384.023,335.269 377.603 C 354.806 347.627,356.571 311.074,339.973 280.141 C 321.056 244.887,281.541 225.356,242.018 231.726 M268.826 269.495 C 281.200 272.020,293.402 279.521,301.110 289.342 C 304.998 294.297,310.125 303.139,310.125 304.891 C 310.125 305.578,295.359 305.842,257.010 305.842 C 218.661 305.842,203.895 305.578,203.895 304.891 C 203.895 304.368,205.057 301.759,206.478 299.093 C 218.799 275.976,243.387 264.303,268.826 269.495 M310.125 344.482 C 310.125 345.002,308.689 348.183,306.934 351.550 C 302.598 359.868,292.168 370.288,283.825 374.637 C 266.984 383.417,247.036 383.417,230.195 374.637 C 221.852 370.288,211.422 359.868,207.086 351.550 C 205.331 348.183,203.895 345.002,203.895 344.482 C 203.895 343.803,218.842 343.537,257.010 343.537 C 295.178 343.537,310.125 343.803,310.125 344.482 " stroke="none" fill-rule="evenodd" fill="black"></path></svg>