<svg width="136mm" height="120mm" version="1.1" viewBox="0 0 600 529.4117647058824" xmlns="http://www.w3.org/2000/svg"><path d="M240.159 35.483 C 227.805 37.833,215.295 42.934,204.323 50.094 C 197.702 54.415,182.920 69.197,178.599 75.818 C 171.097 87.314,166.554 98.771,163.991 112.656 C 161.963 123.647,162.692 140.475,165.698 152.064 C 168.344 162.267,175.465 177.127,181.532 185.109 C 194.220 201.801,212.724 214.173,233.481 219.844 C 241.257 221.969,243.353 222.176,257.010 222.176 C 270.629 222.176,272.787 221.964,280.569 219.856 C 343.695 202.760,371.058 130.656,335.303 75.627 C 330.526 68.275,315.111 53.304,307.387 48.516 C 299.245 43.469,289.646 39.367,280.118 36.863 C 270.855 34.429,249.566 33.693,240.159 35.483 M271.052 73.652 C 280.963 76.187,288.944 80.759,296.500 88.231 C 302.473 94.138,308.092 102.460,309.665 107.730 L 310.241 109.658 257.010 109.658 L 203.779 109.658 204.362 107.730 C 207.322 97.949,219.611 84.075,230.209 78.550 C 242.714 72.030,257.689 70.235,271.052 73.652 M309.646 149.280 C 308.637 152.550,306.639 156.128,302.759 161.609 C 296.020 171.130,286.654 177.956,274.564 182.162 C 268.494 184.274,266.507 184.543,257.010 184.543 C 247.513 184.543,245.526 184.274,239.456 182.162 C 227.366 177.956,218.000 171.130,211.261 161.609 C 207.381 156.128,205.383 152.550,204.374 149.280 L 203.779 147.352 257.010 147.352 L 310.241 147.352 309.646 149.280 M242.947 231.341 C 229.827 233.408,214.781 239.337,203.895 246.729 C 196.888 251.488,186.894 261.032,181.532 268.086 C 175.465 276.067,168.344 290.928,165.698 301.130 C 162.692 312.720,161.963 329.547,163.992 340.538 C 166.521 354.243,171.219 366.049,178.727 377.567 C 182.934 384.021,197.779 398.830,204.323 403.100 C 220.724 413.804,237.405 418.836,256.684 418.896 C 277.609 418.962,296.225 412.967,312.770 400.835 C 319.694 395.758,330.868 384.204,335.202 377.640 C 340.420 369.738,345.948 357.433,348.406 348.249 C 350.479 340.506,350.699 338.239,350.699 324.689 C 350.699 311.122,350.480 308.883,348.400 301.130 C 345.656 290.910,338.430 275.903,332.488 268.086 C 327.126 261.032,317.132 251.488,310.125 246.729 C 302.229 241.367,290.287 235.996,280.569 233.436 C 273.796 231.651,269.491 231.112,260.008 230.861 C 253.412 230.686,245.734 230.902,242.947 231.341 M274.564 271.110 C 286.511 275.130,295.976 282.004,302.759 291.586 C 306.639 297.066,308.637 300.644,309.646 303.914 L 310.241 305.842 257.010 305.842 L 203.779 305.842 204.374 303.914 C 206.086 298.363,213.061 288.118,218.429 283.268 C 233.770 269.408,255.511 264.699,274.564 271.110 M309.665 345.464 C 306.797 355.072,294.351 369.117,283.825 374.625 C 267.015 383.422,247.005 383.422,230.195 374.625 C 219.669 369.117,207.223 355.072,204.355 345.464 L 203.779 343.537 257.010 343.537 L 310.241 343.537 309.665 345.464 " stroke="none" fill-rule="evenodd" fill="black"></path></svg>