<svg width="136mm" height="120mm" version="1.1" viewBox="0 0 600 529.4117647058824" xmlns="http://www.w3.org/2000/svg"><path d="M257.777 91.814 L 155.311 125.995 154.715 146.311 C 153.610 183.989,150.282 211.633,143.439 239.972 C 131.578 289.096,110.246 329.922,86.522 348.904 C 76.385 357.014,64.200 362.384,55.934 362.384 L 53.115 362.384 53.115 381.231 L 53.115 400.079 57.435 400.079 C 67.124 400.079,81.936 395.785,93.518 389.617 C 102.945 384.598,110.582 378.709,120.428 368.867 C 160.285 329.028,186.405 255.909,191.909 168.770 C 192.429 160.524,193.123 153.554,193.449 153.280 C 193.775 153.006,233.365 139.755,281.426 123.833 C 329.487 107.911,369.654 94.564,370.687 94.173 C 372.546 93.468,372.509 93.298,366.642 75.740 C 363.384 65.993,360.612 57.932,360.481 57.826 C 360.350 57.720,314.133 73.015,257.777 91.814 M280.569 189.945 C 279.156 190.142,275.064 191.042,271.478 191.946 C 231.345 202.063,202.608 237.222,200.724 278.510 C 200.419 285.211,200.630 292.030,201.282 296.501 C 207.289 337.700,239.710 370.258,280.998 376.554 C 291.334 378.130,298.114 378.120,308.766 376.515 C 364.299 368.144,400.167 313.595,386.021 259.023 C 376.944 224.005,345.958 195.918,310.125 190.228 C 304.785 189.380,285.928 189.199,280.569 189.945 M309.615 228.718 C 319.485 231.242,325.799 234.986,334.199 243.296 C 341.253 250.274,347.820 259.920,347.820 263.303 C 347.820 264.606,343.544 264.720,294.705 264.720 C 256.537 264.720,241.589 264.454,241.589 263.775 C 241.589 263.255,243.029 260.074,244.789 256.707 C 248.921 248.803,259.572 237.900,267.390 233.571 C 279.057 227.111,295.806 225.186,309.615 228.718 M347.820 303.300 C 347.820 304.998,343.684 312.330,339.846 317.435 C 323.656 338.973,294.537 345.997,270.289 334.213 C 259.382 328.913,249.893 319.685,244.404 309.041 C 242.889 306.103,241.636 303.411,241.620 303.058 C 241.603 302.704,265.491 302.415,294.705 302.415 C 330.683 302.415,347.820 302.701,347.820 303.300 " stroke="none" fill-rule="evenodd" fill="black"></path></svg>