<svg width="136mm" height="120mm" version="1.1" viewBox="0 0 600 529.4117647058824" xmlns="http://www.w3.org/2000/svg"><path d="M136.215 64.252 L 136.215 83.100 100.234 83.100 L 64.252 83.100 64.252 101.947 L 64.252 120.795 100.234 120.795 L 136.215 120.795 136.215 149.066 L 136.215 177.337 109.658 177.337 L 83.100 177.337 83.100 196.184 L 83.100 215.032 109.658 215.032 L 136.215 215.032 136.215 243.293 L 136.215 271.555 100.448 271.779 L 64.681 272.002 64.450 290.626 L 64.219 309.250 100.003 309.473 L 135.787 309.697 136.008 357.030 L 136.230 404.362 155.070 404.362 L 173.910 404.362 173.910 356.816 L 173.910 309.269 209.908 309.269 L 245.906 309.269 245.675 290.635 L 245.445 272.002 209.677 271.779 L 173.910 271.555 173.910 243.293 L 173.910 215.032 200.468 215.032 L 227.025 215.032 227.025 196.184 L 227.025 177.337 200.468 177.337 L 173.910 177.337 173.910 149.066 L 173.910 120.795 209.892 120.795 L 245.873 120.795 245.873 101.947 L 245.873 83.100 209.892 83.100 L 173.910 83.100 173.910 64.252 L 173.910 45.405 155.063 45.405 L 136.215 45.405 136.215 64.252 M270.290 101.088 C 255.918 129.829,244.160 153.536,244.160 153.771 C 244.160 154.268,276.373 170.483,277.360 170.483 C 277.724 170.483,283.602 159.303,290.421 145.639 L 302.820 120.795 321.521 120.795 L 340.222 120.795 339.828 193.828 C 339.525 249.957,339.158 268.786,338.241 275.175 C 337.584 279.748,336.807 283.730,336.513 284.024 C 336.218 284.318,333.443 282.073,330.345 279.035 C 326.195 274.966,323.863 271.734,321.488 266.760 L 318.264 260.008 318.017 220.814 L 317.770 181.620 298.527 181.620 L 279.284 181.620 279.306 214.818 C 279.336 258.887,280.151 266.468,286.421 281.002 C 293.339 297.039,307.779 312.289,323.663 320.333 C 327.984 322.522,328.062 321.769,322.145 335.108 C 316.996 346.718,310.117 357.057,302.993 363.893 C 297.206 369.447,290.016 373.498,285.924 373.513 L 283.568 373.521 283.568 392.369 L 283.568 411.216 287.637 411.203 C 307.427 411.142,329.772 395.688,345.669 371.068 C 350.622 363.397,359.601 344.760,362.877 335.351 L 365.280 328.451 371.620 327.442 C 380.176 326.080,390.916 322.273,398.984 317.739 C 403.768 315.052,408.185 311.454,414.643 304.985 C 424.261 295.349,429.314 287.722,433.235 276.918 C 437.810 264.315,437.961 262.674,438.383 220.814 L 438.778 181.620 419.857 181.620 L 400.936 181.620 400.929 213.961 C 400.921 252.433,400.401 258.355,396.261 267.072 C 392.691 274.591,385.466 282.261,378.749 285.665 L 374.218 287.961 374.722 285.550 C 376.852 275.361,377.214 263.745,377.553 194.685 L 377.915 120.795 409.986 120.795 L 442.057 120.795 442.057 101.947 L 442.057 83.100 382.088 83.100 C 349.105 83.100,322.119 82.900,322.119 82.656 C 322.119 82.412,324.049 78.367,326.407 73.667 L 330.695 65.122 314.422 56.977 C 305.472 52.497,297.760 48.832,297.285 48.832 C 296.810 48.832,284.662 72.347,270.290 101.088 " stroke="none" fill-rule="evenodd" fill="black"></path></svg>