<svg width="136mm" height="120mm" version="1.1" viewBox="0 0 600 529.4117647058824" xmlns="http://www.w3.org/2000/svg"><path d="M136.215 64.252 L 136.215 83.100 100.234 83.100 L 64.252 83.100 64.252 101.947 L 64.252 120.795 100.234 120.795 L 136.215 120.795 136.215 149.066 L 136.215 177.337 109.658 177.337 L 83.100 177.337 83.100 196.184 L 83.100 215.032 109.669 215.032 L 136.238 215.032 136.013 243.517 L 135.787 272.002 100.020 272.226 L 64.252 272.449 64.252 291.287 L 64.252 310.125 100.234 310.125 L 136.215 310.125 136.215 357.244 L 136.215 404.362 155.063 404.362 L 173.910 404.362 173.910 357.253 L 173.910 310.144 209.677 309.921 L 245.445 309.697 245.675 291.064 L 245.906 272.431 209.908 272.431 L 173.910 272.431 173.910 243.731 L 173.910 215.032 200.468 215.032 L 227.025 215.032 227.025 196.184 L 227.025 177.337 200.468 177.337 L 173.910 177.337 173.910 149.066 L 173.910 120.795 209.892 120.795 L 245.873 120.795 245.873 101.947 L 245.873 83.100 209.892 83.100 L 173.910 83.100 173.910 64.252 L 173.910 45.405 155.063 45.405 L 136.215 45.405 136.215 64.252 M270.290 101.088 C 255.918 129.829,244.160 153.536,244.160 153.771 C 244.160 154.268,276.373 170.483,277.360 170.483 C 277.724 170.483,283.602 159.303,290.421 145.639 L 302.820 120.795 321.525 120.795 L 340.229 120.795 339.827 193.828 C 339.519 249.766,339.147 268.808,338.236 275.175 C 337.583 279.748,336.807 283.730,336.513 284.024 C 336.218 284.318,333.443 282.073,330.345 279.035 C 326.195 274.966,323.863 271.734,321.488 266.760 L 318.264 260.008 318.010 220.814 L 317.755 181.620 298.440 181.620 L 279.125 181.620 279.490 220.814 C 279.851 259.551,279.881 260.104,282.039 268.157 C 288.083 290.716,301.626 308.187,321.565 319.146 C 328.145 322.763,328.038 321.646,322.937 333.435 C 315.292 351.100,303.759 365.863,293.662 370.909 C 290.787 372.346,287.339 373.521,286.001 373.521 L 283.568 373.521 283.568 392.671 L 283.568 411.821 288.065 411.448 C 313.819 409.314,337.200 389.811,353.718 356.684 C 356.502 351.102,360.265 342.396,362.081 337.336 C 365.134 328.829,365.552 328.136,367.629 328.127 C 371.506 328.109,385.711 324.149,391.793 321.392 C 410.819 312.765,426.118 296.287,433.472 276.502 C 437.927 264.516,438.033 263.325,438.403 221.243 L 438.752 181.620 419.844 181.620 L 400.936 181.620 400.936 214.412 C 400.936 232.447,400.527 250.463,400.027 254.448 C 398.882 263.580,395.568 270.734,389.417 277.353 C 385.369 281.710,375.679 288.651,374.895 287.756 C 374.734 287.573,375.172 283.760,375.867 279.284 C 376.884 272.734,377.207 256.472,377.522 195.970 L 377.914 120.795 409.986 120.795 L 442.057 120.795 442.057 101.947 L 442.057 83.100 382.088 83.100 C 349.105 83.100,322.119 82.900,322.119 82.656 C 322.119 82.412,324.049 78.367,326.407 73.667 L 330.695 65.122 314.422 56.977 C 305.472 52.497,297.760 48.832,297.285 48.832 C 296.810 48.832,284.662 72.347,270.290 101.088 " stroke="none" fill-rule="evenodd" fill="black"></path></svg>