<svg width="136mm" height="120mm" version="1.1" viewBox="0 0 600 529.4117647058824" xmlns="http://www.w3.org/2000/svg"><path d="M136.215 64.252 L 136.215 83.100 100.234 83.100 L 64.252 83.100 64.252 101.947 L 64.252 120.795 100.234 120.795 L 136.215 120.795 136.215 149.066 L 136.215 177.337 109.658 177.337 L 83.100 177.337 83.100 196.184 L 83.100 215.032 109.658 215.032 L 136.215 215.032 136.215 243.731 L 136.215 272.431 100.217 272.431 L 64.219 272.431 64.450 291.064 L 64.681 309.697 100.448 309.921 L 136.215 310.144 136.215 357.253 L 136.215 404.362 155.063 404.362 L 173.910 404.362 173.910 357.253 L 173.910 310.144 209.677 309.921 L 245.445 309.697 245.675 291.064 L 245.906 272.431 209.908 272.431 L 173.910 272.431 173.910 243.731 L 173.910 215.032 200.468 215.032 L 227.025 215.032 227.025 196.184 L 227.025 177.337 200.468 177.337 L 173.910 177.337 173.910 149.066 L 173.910 120.795 209.892 120.795 L 245.873 120.795 245.873 101.947 L 245.873 83.100 209.892 83.100 L 173.910 83.100 173.910 64.252 L 173.910 45.405 155.063 45.405 L 136.215 45.405 136.215 64.252 M270.459 100.745 C 255.994 129.680,244.160 153.543,244.160 153.775 C 244.160 154.269,276.379 170.483,277.360 170.483 C 277.724 170.483,283.602 159.303,290.421 145.639 L 302.820 120.795 321.528 120.795 L 340.237 120.795 339.831 193.400 C 339.508 251.254,339.168 267.797,338.158 274.826 C 337.460 279.677,336.685 283.852,336.434 284.103 C 336.183 284.353,333.443 282.073,330.345 279.035 C 326.195 274.966,323.863 271.734,321.488 266.760 L 318.264 260.008 318.017 220.814 L 317.770 181.620 298.447 181.620 L 279.125 181.620 279.490 220.814 C 279.851 259.551,279.881 260.104,282.039 268.157 C 288.083 290.716,301.626 308.187,321.565 319.146 C 328.147 322.764,328.044 321.718,322.951 333.256 C 319.187 341.784,314.628 349.980,310.588 355.484 C 303.542 365.083,292.039 373.491,285.924 373.513 L 283.568 373.521 283.568 392.671 L 283.568 411.821 288.065 411.448 C 318.613 408.917,345.989 381.487,362.037 337.331 C 365.129 328.825,365.553 328.126,367.629 328.121 C 371.464 328.113,385.680 324.163,391.698 321.435 C 408.294 313.910,423.511 298.788,430.878 282.500 C 437.673 267.476,438.614 259.355,438.623 215.674 L 438.630 181.620 419.355 181.620 L 400.079 181.620 400.079 219.342 C 400.079 255.262,399.994 257.316,398.300 262.345 C 396.057 269.001,391.635 275.705,386.502 280.229 C 382.530 283.729,375.395 288.346,374.893 287.741 C 374.747 287.566,375.192 283.568,375.880 278.856 C 376.875 272.043,377.211 254.985,377.523 195.542 L 377.914 120.795 409.986 120.795 L 442.057 120.795 442.057 101.947 L 442.057 83.100 382.088 83.100 C 349.105 83.100,322.119 82.900,322.119 82.656 C 322.119 82.412,324.049 78.367,326.407 73.667 L 330.695 65.122 313.727 56.630 L 296.759 48.138 270.459 100.745 " stroke="none" fill-rule="evenodd" fill="black"></path></svg>