<svg width="136mm" height="120mm" version="1.1" viewBox="0 0 600 529.4117647058824" xmlns="http://www.w3.org/2000/svg"><path d="M109.611 97.450 L 109.564 157.204 91.954 122.080 C 82.268 102.761,74.177 86.778,73.974 86.562 C 73.560 86.122,41.192 102.038,40.598 102.975 C 40.307 103.432,76.415 176.804,77.534 178.030 C 77.667 178.176,84.752 174.802,93.279 170.534 C 101.806 166.265,108.980 162.773,109.220 162.773 C 109.461 162.773,109.658 172.792,109.658 185.038 L 109.658 207.303 73.890 207.526 L 38.123 207.750 38.123 226.597 L 38.123 245.445 70.035 245.669 C 87.587 245.793,101.947 246.181,101.947 246.532 C 101.947 246.882,91.191 279.433,78.044 318.867 L 54.141 390.564 72.003 396.525 L 89.865 402.486 108.872 345.383 C 119.326 313.976,128.091 287.913,128.349 287.465 C 128.607 287.017,137.519 312.736,148.152 344.617 L 167.485 402.584 184.619 396.952 C 194.043 393.855,202.038 391.059,202.386 390.740 C 202.734 390.421,192.229 357.794,179.041 318.236 C 165.853 278.678,155.063 246.218,155.063 246.103 C 155.063 245.988,169.423 245.793,186.975 245.669 L 218.887 245.445 218.887 226.597 L 218.887 207.750 183.120 207.526 L 147.352 207.303 147.352 185.038 C 147.352 172.792,147.549 162.773,147.790 162.773 C 148.030 162.773,155.204 166.265,163.731 170.534 C 172.258 174.802,179.343 178.176,179.476 178.030 C 180.103 177.343,216.745 103.586,216.745 103.011 C 216.745 102.301,185.589 86.527,184.187 86.527 C 183.720 86.527,175.338 102.429,165.559 121.866 L 147.781 157.204 147.561 97.450 L 147.341 37.695 128.499 37.695 L 109.658 37.695 109.611 97.450 M222.939 79.459 L 223.170 98.092 351.461 98.309 L 479.752 98.526 479.752 79.676 L 479.752 60.826 351.230 60.826 L 222.709 60.826 222.939 79.459 M334.970 106.285 C 292.496 110.031,257.241 143.237,250.685 185.671 L 249.657 192.329 236.199 192.565 L 222.742 192.801 222.742 211.627 L 222.742 230.452 236.021 230.452 L 249.300 230.452 249.300 322.976 L 249.300 415.500 268.147 415.500 L 286.995 415.500 286.995 322.976 L 286.995 230.452 343.965 230.452 L 400.936 230.452 400.936 322.976 L 400.936 415.500 419.783 415.500 L 438.630 415.500 438.630 322.976 L 438.630 230.452 459.191 230.452 L 479.752 230.452 479.752 211.605 L 479.752 192.757 458.881 192.757 L 438.010 192.757 437.431 187.831 C 436.163 177.038,431.495 163.273,425.716 153.290 C 407.002 120.960,372.313 102.992,334.970 106.285 M362.591 146.681 C 378.809 152.765,391.470 165.360,397.075 180.985 C 398.130 183.926,399.255 187.778,399.575 189.545 L 400.157 192.757 344.004 192.757 C 303.563 192.757,287.851 192.492,287.851 191.810 C 287.851 188.834,291.020 179.468,293.907 173.910 C 299.686 162.787,308.548 154.278,319.830 149.019 C 329.043 144.724,333.416 143.914,345.678 144.229 C 355.048 144.469,357.732 144.859,362.591 146.681 " stroke="none" fill-rule="evenodd" fill="black"></path></svg>