<svg width="136mm" height="120mm" version="1.1" viewBox="0 0 600 529.4117647058824" xmlns="http://www.w3.org/2000/svg"><path d="M109.611 97.450 L 109.564 157.204 91.954 122.080 C 82.268 102.761,74.177 86.778,73.974 86.562 C 73.560 86.122,41.192 102.038,40.598 102.975 C 40.307 103.432,76.415 176.804,77.534 178.030 C 77.667 178.176,84.752 174.802,93.279 170.534 C 101.806 166.265,108.980 162.773,109.220 162.773 C 109.461 162.773,109.658 172.989,109.658 185.476 L 109.658 208.178 73.676 208.178 L 37.695 208.178 37.695 227.025 L 37.695 245.873 69.821 245.873 C 87.490 245.873,101.947 245.972,101.947 246.093 C 101.947 246.214,91.160 278.669,77.976 318.215 C 64.792 357.761,54.137 390.249,54.298 390.410 C 54.460 390.572,62.529 393.356,72.230 396.598 L 89.868 402.492 108.967 345.172 C 119.472 313.645,128.264 287.851,128.505 287.851 C 128.746 287.851,137.538 313.645,148.043 345.172 L 167.142 402.492 184.780 396.598 C 194.481 393.356,202.550 390.572,202.712 390.410 C 202.873 390.249,192.218 357.761,179.034 318.215 C 165.850 278.669,155.063 246.214,155.063 246.093 C 155.063 245.972,169.520 245.873,187.189 245.873 L 219.315 245.873 219.315 227.025 L 219.315 208.178 183.334 208.178 L 147.352 208.178 147.352 185.476 C 147.352 172.989,147.549 162.773,147.790 162.773 C 148.030 162.773,155.204 166.265,163.731 170.534 C 172.258 174.802,179.343 178.176,179.476 178.030 C 180.595 176.804,216.703 103.432,216.412 102.975 C 215.818 102.038,183.450 86.122,183.036 86.562 C 182.833 86.778,174.742 102.761,165.056 122.080 L 147.446 157.204 147.399 97.450 L 147.352 37.695 128.505 37.695 L 109.658 37.695 109.611 97.450 M222.939 79.459 L 223.170 98.092 351.461 98.309 L 479.752 98.526 479.752 79.676 L 479.752 60.826 351.230 60.826 L 222.709 60.826 222.939 79.459 M324.540 107.919 C 297.222 113.680,273.860 131.209,260.565 155.919 C 256.175 164.078,252.192 175.966,250.766 185.163 L 249.654 192.329 236.198 192.565 L 222.742 192.801 222.742 211.627 L 222.742 230.452 236.021 230.452 L 249.300 230.452 249.300 322.976 L 249.300 415.500 268.147 415.500 L 286.995 415.500 286.995 322.976 L 286.995 230.452 343.965 230.452 L 400.936 230.452 400.936 322.976 L 400.936 415.500 419.783 415.500 L 438.630 415.500 438.630 322.976 L 438.630 230.452 459.191 230.452 L 479.752 230.452 479.752 211.605 L 479.752 192.757 458.953 192.757 L 438.153 192.757 437.170 185.548 C 436.127 177.896,432.134 165.162,428.552 158.061 C 415.495 132.181,390.031 112.974,361.636 107.587 C 351.826 105.727,334.187 105.884,324.540 107.919 M356.559 144.886 C 371.924 148.137,387.144 160.138,394.549 174.844 C 396.976 179.663,400.008 189.154,400.066 192.115 C 400.073 192.468,374.794 192.757,343.890 192.757 L 287.701 192.757 288.291 189.117 C 289.925 179.038,297.451 165.858,305.982 158.138 C 312.025 152.669,322.393 147.009,329.535 145.280 C 335.660 143.798,350.398 143.583,356.559 144.886 " stroke="none" fill-rule="evenodd" fill="black"></path></svg>