<svg width="136mm" height="120mm" version="1.1" viewBox="0 0 600 529.4117647058824" xmlns="http://www.w3.org/2000/svg"><path d="M109.611 97.450 L 109.564 157.204 91.954 122.080 C 82.268 102.761,74.177 86.778,73.974 86.562 C 73.560 86.122,41.192 102.038,40.598 102.975 C 40.307 103.432,76.415 176.804,77.534 178.030 C 77.667 178.176,84.752 174.802,93.279 170.534 C 101.806 166.265,108.980 162.773,109.220 162.773 C 109.461 162.773,109.658 172.989,109.658 185.476 L 109.658 208.178 73.659 208.178 L 37.661 208.178 37.892 226.811 L 38.123 245.445 70.035 245.669 C 87.587 245.793,101.947 246.181,101.947 246.532 C 101.947 246.882,91.191 279.433,78.044 318.867 L 54.141 390.564 72.003 396.525 L 89.865 402.486 108.864 345.383 C 119.313 313.976,128.111 288.002,128.414 287.664 C 128.717 287.325,137.611 313.004,148.178 344.729 L 167.391 402.409 184.904 396.557 C 194.537 393.338,202.550 390.572,202.712 390.410 C 202.873 390.249,192.218 357.761,179.034 318.215 C 165.850 278.669,155.063 246.214,155.063 246.093 C 155.063 245.972,169.520 245.873,187.189 245.873 L 219.315 245.873 219.315 227.035 L 219.315 208.197 183.548 207.973 L 147.781 207.750 147.552 185.261 C 147.427 172.893,147.527 162.773,147.776 162.773 C 148.024 162.773,155.204 166.265,163.731 170.534 C 172.258 174.802,179.343 178.176,179.476 178.030 C 179.941 177.520,216.745 103.664,216.745 103.241 C 216.745 102.817,184.609 86.527,183.773 86.527 C 183.534 86.527,175.338 102.429,165.559 121.866 L 147.781 157.204 147.561 97.450 L 147.341 37.695 128.499 37.695 L 109.658 37.695 109.611 97.450 M222.939 79.459 L 223.170 98.092 351.461 98.309 L 479.752 98.526 479.752 79.676 L 479.752 60.826 351.230 60.826 L 222.709 60.826 222.939 79.459 M324.540 107.919 C 297.222 113.680,273.860 131.209,260.565 155.919 C 256.175 164.078,252.192 175.966,250.766 185.163 L 249.654 192.329 236.198 192.565 L 222.742 192.801 222.742 211.627 L 222.742 230.452 236.021 230.452 L 249.300 230.452 249.300 322.976 L 249.300 415.500 268.147 415.500 L 286.995 415.500 286.995 322.976 L 286.995 230.452 343.537 230.452 L 400.079 230.452 400.079 322.976 L 400.079 415.500 419.355 415.500 L 438.630 415.500 438.630 322.976 L 438.630 230.452 459.191 230.452 L 479.752 230.452 479.752 211.605 L 479.752 192.757 458.763 192.757 L 437.774 192.757 437.774 190.580 C 437.774 187.675,435.380 176.219,433.760 171.370 C 422.684 138.216,395.140 113.943,361.313 107.526 C 351.834 105.728,334.026 105.918,324.540 107.919 M356.016 144.861 C 376.622 148.651,395.757 168.279,399.579 189.545 L 400.157 192.757 343.929 192.757 L 287.701 192.757 288.305 189.117 C 290.032 178.704,297.268 166.024,305.982 158.138 C 312.025 152.669,322.393 147.009,329.535 145.280 C 335.634 143.804,349.109 143.590,356.016 144.861 " stroke="none" fill-rule="evenodd" fill="black"></path></svg>