<svg width="136mm" height="120mm" version="1.1" viewBox="0 0 600 529.4117647058824" xmlns="http://www.w3.org/2000/svg"><path d="M68.296 94.762 C 67.957 95.102,67.679 103.604,67.679 113.656 L 67.679 131.932 143.069 131.932 C 184.533 131.932,218.459 132.124,218.458 132.358 C 218.458 133.478,176.833 215.888,176.267 215.888 C 175.909 215.888,155.915 206.036,131.834 193.994 C 107.754 181.952,87.945 172.218,87.814 172.362 C 87.109 173.140,71.047 205.831,71.270 206.034 C 71.415 206.167,91.292 216.150,115.440 228.218 C 139.589 240.286,159.346 250.353,159.346 250.589 C 159.346 250.825,146.046 277.616,129.791 310.124 L 100.235 369.230 116.503 377.372 C 125.451 381.851,133.160 385.515,133.635 385.515 C 134.111 385.515,147.801 358.914,164.058 326.403 C 180.315 293.891,193.905 267.312,194.258 267.338 C 194.611 267.363,227.809 283.867,268.032 304.012 C 339.245 339.678,341.111 340.675,339.116 341.982 C 334.817 344.799,323.126 350.261,316.551 352.524 C 300.992 357.880,297.278 358.292,260.651 358.725 L 227.025 359.123 227.025 377.980 L 227.025 396.838 261.936 396.385 C 287.373 396.055,298.706 395.589,303.700 394.667 C 330.197 389.776,351.807 380.393,371.764 365.114 L 379.002 359.572 413.914 377.012 C 433.116 386.604,448.995 394.272,449.201 394.053 C 449.407 393.833,453.246 386.307,457.732 377.327 L 465.888 361.001 435.914 346.058 C 419.428 337.839,405.748 330.816,405.516 330.451 C 405.283 330.086,406.615 327.376,408.477 324.428 C 418.268 308.924,426.189 287.216,429.324 267.290 C 430.792 257.959,430.783 233.990,429.309 224.027 C 427.269 210.247,421.155 190.449,415.286 178.622 C 403.222 154.312,382.461 131.556,359.368 117.334 C 342.444 106.912,325.610 100.499,304.985 96.620 C 295.258 94.790,293.704 94.763,182.023 94.456 C 119.813 94.285,68.636 94.423,68.296 94.762 M288.213 132.805 C 310.731 134.670,329.979 141.836,347.639 154.929 C 360.183 164.227,373.992 180.794,381.171 195.156 C 396.584 225.988,396.556 265.100,381.099 295.846 C 377.490 303.025,371.183 312.695,370.110 312.695 C 369.393 312.695,211.771 234.234,210.914 233.451 C 210.769 233.319,222.046 210.423,235.974 182.571 L 261.296 131.932 269.648 131.945 C 274.241 131.953,282.596 132.340,288.213 132.805 " stroke="none" fill-rule="evenodd" fill="black"></path></svg>