<svg width="136mm" height="120mm" version="1.1" viewBox="0 0 600 529.4117647058824" xmlns="http://www.w3.org/2000/svg"><path d="M68.296 94.762 C 67.957 95.102,67.679 103.604,67.679 113.656 L 67.679 131.932 143.069 131.932 C 184.533 131.932,218.459 132.124,218.458 132.358 C 218.458 133.478,176.833 215.888,176.267 215.888 C 175.909 215.888,155.915 206.036,131.834 193.994 C 107.754 181.952,87.945 172.218,87.814 172.362 C 87.683 172.507,83.868 180.046,79.337 189.116 L 71.098 205.606 115.222 227.663 C 139.490 239.795,159.346 250.012,159.346 250.369 C 159.346 250.726,146.046 277.616,129.791 310.124 L 100.235 369.230 117.198 377.720 L 134.161 386.209 163.887 326.750 C 180.236 294.047,193.902 267.312,194.256 267.338 C 194.610 267.363,227.819 283.872,268.054 304.023 L 341.209 340.662 337.447 342.849 C 330.043 347.154,324.132 349.837,315.790 352.680 C 300.631 357.846,296.789 358.263,260.223 358.707 L 227.025 359.111 227.025 377.974 L 227.025 396.838 261.936 396.385 C 287.373 396.055,298.706 395.589,303.700 394.667 C 330.352 389.747,351.202 380.640,371.918 364.870 L 378.932 359.531 413.496 376.806 C 432.506 386.308,448.249 394.082,448.481 394.082 C 448.900 394.082,465.188 361.938,465.188 361.110 C 465.188 360.871,451.695 353.927,435.204 345.678 C 418.712 337.430,405.219 330.442,405.219 330.150 C 405.219 329.857,406.932 326.798,409.024 323.350 C 419.074 306.797,426.455 285.910,429.287 266.005 C 429.891 261.765,430.385 252.512,430.385 245.445 C 430.385 231.269,429.233 221.349,426.157 209.035 C 412.927 156.058,371.808 114.111,319.121 99.842 C 299.729 94.590,305.594 94.820,182.023 94.468 C 119.813 94.290,68.636 94.423,68.296 94.762 M299.453 134.101 C 321.333 137.909,341.669 148.303,357.930 163.989 C 366.944 172.685,372.235 179.498,378.518 190.502 C 394.736 218.904,397.142 256.599,384.709 287.507 C 381.429 295.660,375.631 306.400,372.221 310.638 L 370.220 313.124 290.484 273.291 C 246.629 251.383,210.748 233.359,210.748 233.237 C 210.748 233.116,222.151 210.213,236.089 182.342 L 261.429 131.666 276.604 132.216 C 284.951 132.518,295.233 133.367,299.453 134.101 " stroke="none" fill-rule="evenodd" fill="black"></path></svg>