<svg width="136mm" height="120mm" version="1.1" viewBox="0 0 600 529.4117647058824" xmlns="http://www.w3.org/2000/svg"><path d="M68.536 113.084 L 68.536 131.932 143.497 131.932 C 184.726 131.932,218.459 132.124,218.458 132.358 C 218.458 133.478,176.833 215.888,176.267 215.888 C 175.909 215.888,155.915 206.036,131.834 193.994 C 107.754 181.952,87.945 172.218,87.814 172.362 C 87.683 172.507,83.868 180.046,79.337 189.116 L 71.098 205.606 115.222 227.663 C 139.490 239.795,159.346 250.012,159.346 250.369 C 159.346 250.726,146.046 277.616,129.791 310.124 L 100.235 369.230 116.503 377.372 C 125.451 381.851,133.160 385.515,133.635 385.515 C 134.111 385.515,147.801 358.914,164.058 326.403 C 180.315 293.891,193.905 267.312,194.258 267.338 C 194.611 267.363,227.809 283.867,268.032 304.012 C 339.245 339.678,341.111 340.675,339.116 341.982 C 335.146 344.583,323.332 350.200,317.188 352.407 C 302.419 357.714,297.258 358.290,260.651 358.724 L 227.025 359.123 227.025 377.974 L 227.025 396.826 261.936 396.403 C 292.350 396.034,298.068 395.753,306.333 394.216 C 330.470 389.727,354.007 379.082,373.459 363.857 L 378.964 359.547 413.512 376.814 C 432.513 386.312,448.249 394.082,448.481 394.082 C 448.900 394.082,465.188 361.938,465.188 361.110 C 465.188 360.871,451.695 353.927,435.204 345.678 C 418.712 337.430,405.219 330.463,405.219 330.196 C 405.219 329.928,407.020 326.749,409.221 323.130 C 424.938 297.293,432.847 263.539,430.163 233.760 C 427.155 200.388,415.277 171.919,393.778 146.556 C 377.959 127.894,353.600 111.304,329.762 102.959 C 319.836 99.483,304.835 96.254,293.485 95.148 C 287.430 94.559,246.077 94.237,176.331 94.237 L 68.536 94.237 68.536 113.084 M291.098 132.835 C 336.207 137.735,373.738 168.221,387.545 211.177 C 394.721 233.502,394.532 258.805,387.020 281.426 C 383.131 293.139,372.555 312.695,370.110 312.695 C 369.393 312.695,211.771 234.234,210.914 233.451 C 210.769 233.319,222.046 210.423,235.974 182.571 L 261.296 131.932 272.037 131.932 C 277.945 131.932,286.522 132.338,291.098 132.835 " stroke="none" fill-rule="evenodd" fill="black"></path></svg>