<svg width="136mm" height="120mm" version="1.1" viewBox="0 0 600 529.4117647058824" xmlns="http://www.w3.org/2000/svg"><path d="M75.587 79.459 L 75.818 98.092 156.990 98.311 L 238.163 98.529 238.163 155.067 L 238.163 211.605 166.200 211.605 L 94.237 211.605 94.237 230.452 L 94.237 249.300 166.200 249.300 L 238.163 249.300 238.163 305.842 L 238.163 362.384 156.776 362.384 L 75.390 362.384 75.390 381.231 L 75.390 400.079 257.010 400.079 L 438.630 400.079 438.630 381.231 L 438.630 362.384 357.244 362.384 L 275.857 362.384 275.857 305.842 L 275.857 249.300 347.820 249.300 L 419.783 249.300 419.783 230.452 L 419.783 211.605 347.820 211.605 L 275.857 211.605 275.857 155.067 L 275.857 98.529 357.030 98.311 L 438.202 98.092 438.433 79.459 L 438.664 60.826 257.010 60.826 L 75.356 60.826 75.587 79.459 M132.360 109.371 C 123.408 113.875,115.965 117.667,115.820 117.798 C 115.568 118.026,159.993 207.327,160.766 208.148 C 161.329 208.744,194.641 191.942,194.307 191.230 C 192.081 186.481,149.003 101.103,148.850 101.136 C 148.733 101.161,141.313 104.867,132.360 109.371 M342.311 146.182 C 329.799 170.957,319.719 191.476,319.912 191.778 C 320.487 192.684,352.858 208.568,353.259 208.142 C 354.029 207.324,398.450 118.025,398.200 117.798 C 398.055 117.667,390.540 113.865,381.499 109.348 L 365.062 101.136 342.311 146.182 M131.718 260.915 C 122.883 265.369,115.654 269.205,115.654 269.440 C 115.654 270.834,160.363 358.957,161.070 358.957 C 161.545 358.957,169.253 355.294,178.200 350.816 L 194.466 342.674 171.984 297.700 C 159.619 272.965,149.115 252.747,148.641 252.772 C 148.168 252.797,140.552 256.462,131.718 260.915 M342.036 297.700 L 319.554 342.674 335.820 350.816 C 344.767 355.294,352.475 358.957,352.950 358.957 C 353.657 358.957,398.365 270.834,398.365 269.440 C 398.365 268.945,366.156 252.727,365.173 252.727 C 364.813 252.727,354.401 272.965,342.036 297.700 " stroke="none" fill-rule="evenodd" fill="black"></path></svg>