<svg width="136mm" height="120mm" version="1.1" viewBox="0 0 600 529.4117647058824" xmlns="http://www.w3.org/2000/svg"><path d="M75.587 79.459 L 75.818 98.092 156.990 98.311 L 238.163 98.529 238.163 155.067 L 238.163 211.605 166.200 211.605 L 94.237 211.605 94.237 230.452 L 94.237 249.300 166.200 249.300 L 238.163 249.300 238.163 305.838 L 238.163 362.375 156.990 362.594 L 75.818 362.812 75.587 381.446 L 75.356 400.079 257.010 400.079 L 438.664 400.079 438.433 381.446 L 438.202 362.812 357.030 362.594 L 275.857 362.375 275.857 305.838 L 275.857 249.300 347.820 249.300 L 419.783 249.300 419.783 230.452 L 419.783 211.605 347.820 211.605 L 275.857 211.605 275.857 155.067 L 275.857 98.529 357.030 98.311 L 438.202 98.092 438.433 79.459 L 438.664 60.826 257.010 60.826 L 75.356 60.826 75.587 79.459 M132.360 109.371 C 123.408 113.875,115.965 117.667,115.820 117.798 C 115.570 118.025,159.991 207.324,160.761 208.142 C 161.175 208.582,193.543 192.668,194.137 191.733 C 194.551 191.080,149.771 101.062,149.070 101.136 C 148.832 101.161,141.313 104.867,132.360 109.371 M342.012 146.114 C 329.633 170.876,319.675 191.405,319.883 191.733 C 320.477 192.668,352.845 208.582,353.259 208.142 C 354.029 207.324,398.450 118.025,398.200 117.798 C 397.846 117.478,365.033 101.091,364.745 101.091 C 364.620 101.091,354.390 121.351,342.012 146.114 M131.718 260.915 C 122.883 265.369,115.654 269.205,115.654 269.440 C 115.654 270.834,160.363 358.957,161.070 358.957 C 161.545 358.957,169.253 355.294,178.200 350.816 L 194.466 342.674 171.984 297.700 C 159.619 272.965,149.115 252.747,148.641 252.772 C 148.168 252.797,140.552 256.462,131.718 260.915 M342.036 297.700 L 319.554 342.674 335.820 350.816 C 344.767 355.294,352.475 358.957,352.950 358.957 C 353.657 358.957,398.365 270.834,398.365 269.440 C 398.365 268.945,366.156 252.727,365.173 252.727 C 364.813 252.727,354.401 272.965,342.036 297.700 " stroke="none" fill-rule="evenodd" fill="black"></path></svg>