<svg width="136mm" height="120mm" version="1.1" viewBox="0 0 600 529.4117647058824" xmlns="http://www.w3.org/2000/svg"><path d="M75.587 79.459 L 75.818 98.092 156.990 98.311 L 238.163 98.529 238.163 155.067 L 238.163 211.605 166.200 211.605 L 94.237 211.605 94.237 230.452 L 94.237 249.300 166.200 249.300 L 238.163 249.300 238.163 305.838 L 238.163 362.375 156.990 362.594 L 75.818 362.812 75.587 381.446 L 75.356 400.079 257.010 400.079 L 438.664 400.079 438.433 381.446 L 438.202 362.812 357.030 362.594 L 275.857 362.375 275.857 305.838 L 275.857 249.300 347.820 249.300 L 419.783 249.300 419.783 230.452 L 419.783 211.605 347.820 211.605 L 275.857 211.605 275.857 155.067 L 275.857 98.529 357.030 98.311 L 438.202 98.092 438.433 79.459 L 438.664 60.826 257.010 60.826 L 75.356 60.826 75.587 79.459 M132.360 109.371 C 123.408 113.875,115.965 117.667,115.820 117.798 C 115.568 118.026,159.993 207.327,160.766 208.148 C 160.973 208.366,168.641 204.801,177.808 200.225 L 194.476 191.904 171.769 146.497 C 159.281 121.524,148.967 101.111,148.850 101.136 C 148.733 101.161,141.313 104.867,132.360 109.371 M364.268 102.196 C 362.578 104.282,319.514 191.150,319.882 191.730 C 320.476 192.667,352.844 208.583,353.259 208.142 C 354.029 207.324,398.450 118.025,398.200 117.798 C 398.055 117.667,390.550 113.870,381.522 109.359 C 369.212 103.209,364.897 101.418,364.268 102.196 M131.718 260.915 L 115.655 269.012 138.024 313.771 C 150.326 338.388,160.560 358.708,160.766 358.927 C 160.973 359.145,168.641 355.581,177.806 351.005 L 194.471 342.685 171.987 297.706 C 159.620 272.967,149.115 252.747,148.641 252.772 C 148.168 252.797,140.553 256.461,131.718 260.915 M342.033 297.706 L 319.549 342.685 336.214 351.005 C 345.379 355.581,353.047 359.145,353.254 358.927 C 353.460 358.708,363.694 338.388,375.997 313.770 L 398.365 269.012 382.096 260.869 C 373.149 256.391,365.533 252.727,365.173 252.727 C 364.813 252.727,354.400 272.967,342.033 297.706 " stroke="none" fill-rule="evenodd" fill="black"></path></svg>