<svg width="136mm" height="120mm" version="1.1" viewBox="0 0 600 529.4117647058824" xmlns="http://www.w3.org/2000/svg"><path d="M105.572 71.749 L 105.802 90.382 205.399 90.810 L 304.995 91.239 277.152 119.071 L 249.309 146.904 225.356 134.952 C 212.182 128.379,201.236 123.179,201.032 123.397 C 200.827 123.615,196.953 131.213,192.422 140.282 L 184.185 156.770 236.548 182.955 C 265.349 197.357,289.444 208.935,290.095 208.686 C 291.069 208.312,291.278 210.501,291.278 221.055 L 291.278 233.879 317.766 233.879 L 344.254 233.879 316.480 317.191 C 301.204 363.012,288.827 400.864,288.974 401.305 C 289.121 401.746,297.043 404.712,306.578 407.894 C 323.731 413.620,323.922 413.661,324.587 411.806 C 324.957 410.775,336.195 377.259,349.562 337.326 C 362.929 297.394,374.125 265.010,374.443 265.363 C 374.760 265.716,386.096 299.282,399.634 339.953 C 415.312 387.056,424.603 413.770,425.228 413.541 C 425.767 413.343,433.533 410.764,442.486 407.808 C 451.438 404.853,459.048 402.179,459.396 401.866 C 459.744 401.553,447.504 363.727,432.196 317.807 C 416.887 271.888,404.362 234.219,404.362 234.098 C 404.362 233.978,416.313 233.879,430.920 233.879 L 457.478 233.879 457.478 215.032 L 457.478 196.184 425.352 196.184 L 393.225 196.184 393.225 175.624 L 393.225 155.063 374.378 155.063 L 355.531 155.063 355.531 175.624 L 355.531 196.184 326.403 196.184 C 310.382 196.184,297.275 195.985,297.275 195.742 C 297.275 195.498,299.407 191.047,302.013 185.851 C 304.619 180.654,306.582 176.131,306.373 175.799 C 306.165 175.467,301.327 172.891,295.621 170.075 L 285.246 164.955 341.161 109.035 L 397.076 53.115 251.208 53.115 L 105.341 53.115 105.572 71.749 M120.795 175.624 L 120.795 196.184 88.668 196.184 L 56.542 196.184 56.542 215.032 L 56.542 233.879 83.100 233.879 C 97.707 233.879,109.658 233.978,109.658 234.098 C 109.658 234.219,97.133 271.888,81.824 317.807 C 66.516 363.727,54.276 401.553,54.624 401.866 C 54.972 402.179,62.582 404.853,71.534 407.808 C 80.487 410.764,88.253 413.343,88.792 413.541 C 89.417 413.770,98.708 387.056,114.386 339.953 C 127.924 299.282,139.241 265.735,139.536 265.404 C 139.832 265.074,151.029 297.457,164.419 337.367 C 177.809 377.277,189.066 410.775,189.435 411.806 C 190.098 413.661,190.291 413.619,207.442 407.894 C 216.977 404.712,224.899 401.746,225.046 401.305 C 225.193 400.864,212.816 363.012,197.540 317.191 L 169.766 233.879 196.254 233.879 L 222.742 233.879 222.742 215.032 L 222.742 196.184 190.616 196.184 L 158.489 196.184 158.489 175.624 L 158.489 155.063 139.642 155.063 L 120.795 155.063 120.795 175.624 " stroke="none" fill-rule="evenodd" fill="black"></path></svg>