<svg width="136mm" height="120mm" version="1.1" viewBox="0 0 600 529.4117647058824" xmlns="http://www.w3.org/2000/svg"><path d="M106.231 71.963 L 106.231 90.810 205.821 90.810 L 305.410 90.810 277.362 118.858 L 249.314 146.907 225.359 134.953 C 212.183 128.379,201.236 123.179,201.032 123.397 C 200.827 123.615,196.953 131.213,192.422 140.282 L 184.185 156.770 236.548 182.955 C 265.349 197.357,289.444 208.935,290.095 208.686 C 291.069 208.312,291.278 210.501,291.278 221.055 L 291.278 233.879 317.407 233.879 C 337.739 233.879,343.537 234.117,343.537 234.950 C 343.537 235.539,331.157 273.160,316.026 318.553 C 300.895 363.946,288.848 401.388,289.254 401.758 C 289.660 402.129,297.628 404.963,306.959 408.058 C 318.658 411.938,324.045 413.368,324.311 412.665 C 324.524 412.103,335.811 378.298,349.395 337.541 L 374.093 263.437 399.151 338.612 C 412.933 379.958,424.285 413.786,424.377 413.786 C 424.569 413.786,457.380 402.847,458.923 402.269 C 459.606 402.013,450.812 374.506,432.151 318.531 C 416.867 272.685,404.362 234.883,404.362 234.527 C 404.362 234.170,416.313 233.879,430.920 233.879 L 457.478 233.879 457.478 215.032 L 457.478 196.184 425.352 196.184 L 393.225 196.184 393.225 175.624 L 393.225 155.063 373.950 155.063 L 354.674 155.063 354.674 175.624 L 354.674 196.184 325.974 196.184 C 310.190 196.184,297.275 195.985,297.275 195.742 C 297.275 195.498,299.407 191.047,302.013 185.851 C 304.619 180.654,306.582 176.131,306.373 175.799 C 306.165 175.467,301.327 172.891,295.621 170.075 L 285.246 164.955 341.161 109.035 L 397.076 53.115 251.653 53.115 L 106.231 53.115 106.231 71.963 M120.795 175.624 L 120.795 196.184 88.668 196.184 L 56.542 196.184 56.542 215.032 L 56.542 233.879 83.100 233.879 C 97.707 233.879,109.658 234.170,109.658 234.527 C 109.658 234.883,97.153 272.685,81.869 318.531 C 63.208 374.506,54.414 402.013,55.097 402.269 C 56.640 402.847,89.451 413.786,89.643 413.786 C 89.735 413.786,101.087 379.958,114.869 338.612 L 139.927 263.437 164.625 337.541 C 178.209 378.298,189.496 412.103,189.709 412.665 C 189.975 413.368,195.362 411.938,207.061 408.058 C 216.392 404.963,224.360 402.129,224.766 401.758 C 225.172 401.388,213.125 363.946,197.994 318.553 C 182.863 273.160,170.483 235.539,170.483 234.950 C 170.483 234.117,176.281 233.879,196.613 233.879 L 222.742 233.879 222.742 215.032 L 222.742 196.184 191.044 196.184 L 159.346 196.184 159.346 175.624 L 159.346 155.063 140.070 155.063 L 120.795 155.063 120.795 175.624 " stroke="none" fill-rule="evenodd" fill="black"></path></svg>