<svg width="136mm" height="120mm" version="1.1" viewBox="0 0 600 529.4117647058824" xmlns="http://www.w3.org/2000/svg"><path d="M106.231 71.963 L 106.231 90.810 205.821 90.810 L 305.410 90.810 277.362 118.858 L 249.314 146.907 225.359 134.953 C 212.183 128.379,201.236 123.179,201.032 123.397 C 200.827 123.615,196.991 131.138,192.506 140.114 L 184.353 156.435 237.005 182.757 C 265.963 197.234,290.021 208.854,290.467 208.578 C 290.963 208.271,291.278 213.084,291.278 220.978 L 291.278 233.879 317.407 233.879 C 337.805 233.879,343.537 234.115,343.537 234.955 C 343.537 235.547,331.200 273.036,316.122 318.264 C 301.044 363.492,288.719 400.885,288.733 401.359 C 288.752 402.036,320.092 412.807,323.333 413.250 C 323.765 413.309,335.362 379.625,349.105 338.397 L 374.092 263.435 399.151 338.611 C 412.933 379.957,424.285 413.786,424.377 413.786 C 424.569 413.786,457.380 402.847,458.923 402.269 C 459.606 402.013,450.812 374.506,432.151 318.531 C 416.867 272.685,404.362 234.883,404.362 234.527 C 404.362 234.170,416.321 233.879,430.937 233.879 L 457.511 233.879 457.280 215.246 L 457.049 196.613 425.137 196.388 L 393.225 196.163 393.225 175.613 L 393.225 155.063 374.378 155.063 L 355.531 155.063 355.531 175.624 L 355.531 196.184 326.403 196.184 C 310.382 196.184,297.275 195.985,297.275 195.742 C 297.275 195.498,299.407 191.047,302.013 185.851 C 304.619 180.654,306.582 176.131,306.373 175.799 C 306.165 175.467,301.327 172.891,295.621 170.075 L 285.246 164.955 341.161 109.035 L 397.076 53.115 251.653 53.115 L 106.231 53.115 106.231 71.963 M120.795 175.613 L 120.795 196.163 88.883 196.388 L 56.971 196.613 56.740 215.246 L 56.509 233.879 83.083 233.879 C 97.699 233.879,109.658 234.170,109.658 234.527 C 109.658 234.883,97.153 272.685,81.869 318.531 C 63.208 374.506,54.414 402.013,55.097 402.269 C 56.640 402.847,89.451 413.786,89.643 413.786 C 89.735 413.786,101.087 379.957,114.869 338.611 L 139.928 263.435 164.936 338.397 C 182.762 391.831,190.292 413.333,191.156 413.271 C 194.031 413.066,225.312 402.172,225.312 401.376 C 225.312 400.893,212.976 363.492,197.898 318.264 C 182.820 273.036,170.483 235.547,170.483 234.955 C 170.483 234.115,176.215 233.879,196.613 233.879 L 222.742 233.879 222.742 215.032 L 222.742 196.184 190.616 196.184 L 158.489 196.184 158.489 175.624 L 158.489 155.063 139.642 155.063 L 120.795 155.063 120.795 175.613 " stroke="none" fill-rule="evenodd" fill="black"></path></svg>