<svg width="136mm" height="120mm" version="1.1" viewBox="0 0 600 529.4117647058824" xmlns="http://www.w3.org/2000/svg"><path d="M90.061 225.517 C 66.325 296.789,46.857 355.438,46.798 355.849 C 46.696 356.556,81.409 368.644,81.960 368.093 C 82.103 367.951,89.687 345.721,98.814 318.694 L 115.410 269.554 131.900 319.024 C 142.382 350.470,148.747 368.363,149.370 368.131 C 149.910 367.931,157.775 365.310,166.848 362.307 L 183.345 356.846 200.636 362.594 C 210.146 365.755,218.061 368.207,218.226 368.043 C 218.390 367.878,226.349 344.275,235.912 315.591 L 253.299 263.438 270.692 315.695 C 280.259 344.437,288.153 368.040,288.234 368.147 C 288.316 368.254,296.166 365.754,305.679 362.592 L 322.976 356.842 340.294 362.599 C 349.819 365.765,357.867 368.072,358.179 367.726 C 358.491 367.379,366.401 344.074,375.757 315.936 C 385.113 287.798,393.015 265.053,393.318 265.391 C 393.620 265.729,401.486 288.943,410.798 316.979 C 420.109 345.015,427.841 368.087,427.980 368.250 C 428.520 368.889,463.475 356.795,463.475 355.969 C 463.475 355.486,452.133 321.071,438.271 279.491 L 413.068 203.891 428.849 156.565 C 437.529 130.535,444.510 108.876,444.362 108.433 C 444.124 107.719,409.420 95.680,409.034 96.178 C 408.949 96.289,389.653 154.096,366.154 224.639 C 342.655 295.182,323.182 352.624,322.881 352.287 C 322.580 351.951,311.266 318.425,297.739 277.785 L 273.145 203.895 288.756 157.062 C 297.342 131.303,304.409 109.661,304.462 108.967 C 304.530 108.066,299.558 106.031,287.052 101.842 C 277.424 98.617,269.491 96.068,269.422 96.178 C 269.353 96.289,250.093 153.820,226.623 224.027 C 203.153 294.234,183.709 351.951,183.414 352.289 C 183.119 352.626,172.155 320.723,159.048 281.394 L 135.218 209.886 152.090 159.268 C 161.370 131.429,168.630 108.347,168.224 107.976 C 167.817 107.605,160.160 104.883,151.208 101.928 C 142.255 98.973,134.545 96.415,134.074 96.244 C 133.602 96.072,113.797 154.245,90.061 225.517 " stroke="none" fill-rule="evenodd" fill="black"></path></svg>