<svg width="136mm" height="120mm" version="1.1" viewBox="0 0 600 529.4117647058824" xmlns="http://www.w3.org/2000/svg"><path d="M100.188 112.319 C 79.428 153.837,62.561 187.913,62.705 188.044 C 63.061 188.366,95.873 204.751,96.163 204.751 C 96.289 204.751,106.217 185.090,118.225 161.060 L 140.057 117.368 164.267 117.368 L 188.476 117.368 157.635 179.046 L 126.793 240.725 143.061 248.867 C 152.008 253.346,159.719 257.010,160.195 257.010 C 160.671 257.010,176.769 225.591,195.968 187.189 L 230.876 117.368 247.371 117.368 L 263.866 117.368 233.024 179.047 L 202.183 240.725 219.146 249.215 L 236.110 257.705 271.190 187.482 L 306.270 117.259 327.259 117.574 C 345.968 117.855,348.855 118.091,353.830 119.743 C 370.601 125.311,384.182 138.831,390.069 155.819 C 392.333 162.352,392.627 164.335,392.627 173.053 C 392.626 184.568,391.153 191.128,386.566 200.039 C 382.334 208.261,370.152 220.407,362.384 224.150 C 350.035 230.100,351.611 229.930,306.056 230.251 L 264.720 230.543 264.720 249.345 L 264.720 268.147 292.563 268.147 C 307.877 268.147,320.406 268.341,320.406 268.578 C 320.406 268.815,306.720 296.378,289.993 329.830 C 273.266 363.281,259.580 391.035,259.580 391.505 C 259.580 392.214,291.189 408.646,292.552 408.646 C 292.791 408.646,298.802 397.018,305.911 382.807 L 318.836 356.968 347.257 385.380 L 375.678 413.791 389.161 400.289 L 402.643 386.786 369.732 353.883 L 336.820 320.979 351.234 292.207 L 365.647 263.435 373.146 260.463 C 394.947 251.821,414.509 231.985,423.688 209.211 C 432.003 188.584,433.057 168.660,426.959 147.434 C 417.989 116.214,393.171 91.902,360.671 82.498 L 352.532 80.143 255.939 79.883 C 202.813 79.741,159.346 79.446,159.346 79.228 C 159.346 79.010,162.126 73.255,165.524 66.440 C 168.922 59.625,171.525 53.882,171.307 53.678 C 171.090 53.474,163.492 49.601,154.423 45.070 L 137.934 36.832 100.188 112.319 M145.593 316.214 C 124.833 357.732,107.966 391.808,108.110 391.939 C 108.887 392.643,141.578 408.705,141.781 408.482 C 141.914 408.337,147.698 396.845,154.634 382.945 C 161.571 369.045,167.412 357.497,167.613 357.282 C 167.815 357.067,180.787 369.694,196.439 385.342 L 224.899 413.792 238.163 400.507 L 251.427 387.222 218.459 354.246 L 185.491 321.269 201.302 289.609 C 209.998 272.197,216.934 257.781,216.715 257.576 C 216.496 257.370,208.897 253.495,199.828 248.964 L 183.339 240.727 145.593 316.214 " stroke="none" fill-rule="evenodd" fill="black"></path></svg>