<svg width="136mm" height="120mm" version="1.1" viewBox="0 0 600 529.4117647058824" xmlns="http://www.w3.org/2000/svg"><path d="M167.061 131.499 L 77.543 221.020 90.809 234.306 L 104.075 247.593 140.706 210.969 C 160.853 190.827,177.337 174.540,177.337 174.777 C 177.337 175.015,168.285 202.360,157.221 235.544 C 146.157 268.728,137.236 296.012,137.398 296.173 C 137.560 296.335,145.628 299.119,155.328 302.360 L 172.963 308.254 183.360 277.063 L 193.757 245.873 204.394 245.873 C 210.245 245.873,215.032 246.165,215.032 246.522 C 215.032 246.879,205.201 276.657,193.186 312.695 C 181.171 348.734,171.340 378.480,171.340 378.798 C 171.340 379.398,204.418 390.655,206.180 390.655 C 206.742 390.655,217.720 359.032,231.309 318.264 L 255.439 245.873 261.793 245.873 C 265.288 245.873,268.147 246.221,268.147 246.646 C 268.147 247.071,258.316 276.619,246.301 312.309 C 234.286 347.999,224.455 377.693,224.455 378.295 C 224.455 379.375,259.118 391.450,259.851 390.626 C 260.045 390.406,270.953 357.940,284.090 318.478 C 306.755 250.398,308.079 246.730,309.998 246.730 C 316.342 246.730,330.445 252.457,338.293 258.220 C 343.289 261.889,351.774 270.747,355.443 276.125 C 369.471 296.684,370.147 326.039,357.102 348.220 C 352.854 355.443,340.839 367.593,333.898 371.683 C 322.283 378.529,311.983 381.195,297.061 381.217 L 286.995 381.231 286.995 400.079 L 286.995 418.926 298.019 418.926 C 310.878 418.926,321.186 417.326,331.971 413.655 C 368.282 401.297,394.231 371.966,402.366 334.084 C 404.528 324.015,404.533 303.070,402.375 292.991 C 393.546 251.759,364.359 221.474,322.976 210.607 C 315.874 208.742,314.342 208.687,261.079 208.395 C 231.041 208.231,206.465 208.008,206.465 207.900 C 206.465 207.792,209.128 199.735,212.383 189.995 L 218.301 172.286 203.709 167.423 L 189.118 162.560 223.064 128.614 L 257.010 94.668 333.476 171.132 L 409.943 247.595 423.210 234.307 L 436.477 221.020 346.959 131.499 C 297.724 82.263,257.247 41.978,257.010 41.978 C 256.773 41.978,216.296 82.263,167.061 131.499 " stroke="none" fill-rule="evenodd" fill="black"></path></svg>