<svg width="136mm" height="120mm" version="1.1" viewBox="0 0 600 529.4117647058824" xmlns="http://www.w3.org/2000/svg"><path d="M167.061 131.499 L 77.543 221.020 90.809 234.306 L 104.075 247.593 140.706 210.969 C 160.853 190.827,177.337 174.540,177.337 174.777 C 177.337 175.015,168.277 202.381,157.204 235.593 C 146.132 268.804,137.072 296.047,137.072 296.134 C 137.072 296.220,144.966 298.912,154.614 302.115 C 165.793 305.826,172.435 307.636,172.926 307.105 C 173.349 306.646,178.210 292.681,183.726 276.072 L 193.757 245.873 204.394 245.873 C 210.245 245.873,215.032 246.165,215.032 246.522 C 215.032 246.879,205.201 276.657,193.186 312.695 C 181.171 348.734,171.340 378.480,171.340 378.798 C 171.340 379.398,204.418 390.655,206.180 390.655 C 206.742 390.655,217.720 359.032,231.309 318.264 L 255.439 245.873 261.793 245.873 C 265.288 245.873,268.147 246.165,268.147 246.522 C 268.147 246.879,258.316 276.657,246.301 312.695 C 234.286 348.734,224.455 378.484,224.455 378.806 C 224.455 379.526,259.357 391.182,259.849 390.626 C 260.043 390.406,270.905 358.036,283.986 318.692 C 297.067 279.348,308.010 246.904,308.305 246.594 C 309.139 245.715,321.071 249.049,326.966 251.807 C 337.196 256.594,348.252 265.776,354.437 274.622 C 357.851 279.504,362.303 289.252,364.229 296.062 C 366.866 305.385,366.875 321.254,364.248 330.932 C 359.252 349.343,345.607 365.976,328.700 374.265 C 318.580 379.226,313.173 380.458,299.202 380.986 L 286.995 381.447 286.995 400.187 L 286.995 418.926 297.917 418.924 C 328.210 418.916,354.270 407.818,375.039 386.079 C 389.009 371.458,397.929 354.455,402.301 334.113 C 404.472 324.012,404.472 303.093,402.301 292.991 C 393.599 252.504,363.836 221.025,324.875 211.102 C 312.741 208.011,299.252 207.321,250.953 207.321 L 206.593 207.321 212.448 189.800 L 218.303 172.279 214.740 170.940 C 212.780 170.204,206.261 167.967,200.254 165.969 L 189.331 162.337 223.171 128.504 L 257.012 94.671 333.478 171.133 L 409.943 247.595 423.210 234.307 L 436.477 221.020 346.959 131.499 C 297.724 82.263,257.247 41.978,257.010 41.978 C 256.773 41.978,216.296 82.263,167.061 131.499 " stroke="none" fill-rule="evenodd" fill="black"></path></svg>