<svg width="136mm" height="120mm" version="1.1" viewBox="0 0 600 529.4117647058824" xmlns="http://www.w3.org/2000/svg"><path d="M167.061 131.499 L 77.543 221.020 90.809 234.306 L 104.075 247.593 140.706 210.969 C 160.853 190.827,177.337 174.540,177.337 174.777 C 177.337 175.015,168.285 202.360,157.221 235.544 C 146.157 268.728,137.236 296.012,137.398 296.173 C 137.560 296.335,145.628 299.119,155.328 302.360 L 172.963 308.254 183.360 277.063 L 193.757 245.873 204.394 245.873 C 210.245 245.873,215.032 246.165,215.032 246.522 C 215.032 246.879,205.201 276.657,193.186 312.695 C 181.171 348.734,171.340 378.480,171.340 378.798 C 171.340 379.398,204.418 390.655,206.180 390.655 C 206.742 390.655,217.720 359.032,231.309 318.264 L 255.439 245.873 261.793 245.873 C 265.288 245.873,268.147 246.165,268.147 246.522 C 268.147 246.879,258.316 276.657,246.301 312.695 C 234.286 348.734,224.455 378.484,224.455 378.806 C 224.455 379.526,259.357 391.181,259.851 390.626 C 260.045 390.406,270.953 357.940,284.090 318.478 C 311.122 237.278,307.245 245.502,317.284 248.083 C 330.700 251.531,346.821 263.401,355.196 275.999 C 363.018 287.765,366.215 298.892,366.109 313.981 C 365.970 333.809,358.753 350.234,344.351 363.507 C 330.883 375.919,316.813 381.187,297.061 381.217 L 286.995 381.231 286.995 400.079 L 286.995 418.926 297.917 418.924 C 326.202 418.916,351.043 409.151,370.873 390.242 C 388.852 373.098,399.203 353.291,403.113 328.544 C 406.983 304.055,400.865 276.624,386.776 255.295 C 373.841 235.715,353.056 220.008,330.757 212.964 C 316.226 208.373,313.249 208.178,257.754 208.178 C 229.545 208.178,206.465 208.071,206.465 207.941 C 206.465 207.811,209.128 199.735,212.383 189.995 L 218.301 172.286 203.709 167.423 L 189.118 162.560 223.064 128.614 L 257.010 94.668 333.476 171.132 L 409.943 247.595 423.210 234.307 L 436.477 221.020 346.959 131.499 C 297.724 82.263,257.247 41.978,257.010 41.978 C 256.773 41.978,216.296 82.263,167.061 131.499 " stroke="none" fill-rule="evenodd" fill="black"></path></svg>