<svg width="136mm" height="120mm" version="1.1" viewBox="0 0 600 529.4117647058824" xmlns="http://www.w3.org/2000/svg"><path d="M248.871 114.978 C 195.156 141.840,151.031 163.984,150.815 164.188 C 150.375 164.603,166.290 196.970,167.226 197.564 C 168.000 198.055,363.255 100.438,363.195 99.591 C 363.170 99.238,359.411 91.567,354.842 82.544 L 346.535 66.139 248.871 114.978 M248.229 209.940 C 194.632 236.771,150.779 258.921,150.779 259.161 C 150.779 259.995,167.068 292.135,167.491 292.135 C 168.338 292.135,363.241 194.458,363.241 194.033 C 363.241 192.904,346.876 161.065,346.317 161.107 C 345.966 161.133,301.826 183.108,248.229 209.940 M248.229 304.177 C 194.632 331.008,150.779 353.152,150.779 353.384 C 150.779 353.616,154.515 361.289,159.081 370.436 L 167.384 387.066 265.098 338.222 C 318.841 311.357,362.991 289.208,363.210 289.002 C 363.767 288.476,347.115 255.286,346.324 255.344 C 345.969 255.370,301.826 277.345,248.229 304.177 " stroke="none" fill-rule="evenodd" fill="black"></path></svg>