<svg width="136mm" height="120mm" version="1.1" viewBox="0 0 600 529.4117647058824" xmlns="http://www.w3.org/2000/svg"><path d="M130.818 111.882 C 110.227 153.067,93.380 187.146,93.380 187.614 C 93.380 188.320,124.994 204.751,126.352 204.751 C 126.592 204.751,134.114 190.102,143.069 172.197 L 159.351 139.642 194.901 139.642 L 230.452 139.642 230.452 158.489 L 230.452 177.337 192.757 177.337 L 155.063 177.337 155.063 196.184 L 155.063 215.032 192.757 215.032 L 230.452 215.032 230.452 315.266 L 230.452 415.500 249.300 415.500 L 268.147 415.500 268.147 372.331 L 268.147 329.163 295.776 328.730 C 325.233 328.269,329.972 327.713,340.875 323.440 C 361.754 315.258,378.630 297.547,385.399 276.714 C 388.123 268.328,388.995 262.612,389.005 253.077 C 389.033 224.088,373.320 198.651,347.355 185.654 C 333.592 178.765,324.033 177.354,291.064 177.344 L 268.147 177.337 268.147 158.489 L 268.147 139.642 321.262 139.642 L 374.378 139.642 374.378 120.795 L 374.378 101.947 321.262 101.947 L 268.147 101.947 268.147 69.821 L 268.147 37.695 249.300 37.695 L 230.452 37.695 230.452 69.821 L 230.452 101.947 204.320 101.947 L 178.188 101.947 190.185 77.964 L 202.183 53.981 185.219 45.491 L 168.255 37.001 130.818 111.882 M319.121 215.915 C 336.369 218.357,349.829 232.743,351.011 250.002 C 352.013 264.621,345.802 277.088,333.614 284.921 C 325.161 290.355,322.025 290.821,293.848 290.836 L 268.575 290.850 268.352 252.941 L 268.129 215.032 290.627 215.049 C 303.000 215.058,315.822 215.448,319.121 215.915 M154.500 253.368 L 138.089 261.621 156.858 299.152 C 167.181 319.794,175.817 336.683,176.048 336.683 C 176.280 336.683,183.953 332.947,193.100 328.380 L 209.731 320.078 190.962 282.547 C 180.639 261.905,171.905 245.038,171.552 245.065 C 171.200 245.092,163.527 248.828,154.500 253.368 " stroke="none" fill-rule="evenodd" fill="black"></path></svg>