<svg width="136mm" height="120mm" version="1.1" viewBox="0 0 600 529.4117647058824" xmlns="http://www.w3.org/2000/svg"><path d="M130.627 112.268 C 109.935 153.660,93.186 187.697,93.407 187.905 C 93.628 188.112,101.228 191.989,110.297 196.519 L 126.785 204.756 143.068 172.199 L 159.351 139.642 194.901 139.642 L 230.452 139.642 230.452 158.489 L 230.452 177.337 192.757 177.337 L 155.063 177.337 155.063 196.184 L 155.063 215.032 192.757 215.032 L 230.452 215.032 230.452 315.266 L 230.452 415.500 249.300 415.500 L 268.147 415.500 268.147 372.349 L 268.147 329.198 296.204 328.748 C 326.066 328.270,328.992 327.905,341.897 323.046 C 362.326 315.355,380.115 295.463,386.397 273.287 C 388.732 265.043,389.549 249.892,388.132 241.108 C 383.896 214.853,366.343 192.918,341.670 183.047 C 329.805 178.300,327.214 177.985,296.632 177.569 L 268.147 177.180 268.147 158.411 L 268.147 139.642 321.262 139.642 L 374.378 139.642 374.378 120.795 L 374.378 101.947 321.262 101.947 L 268.147 101.947 268.147 69.821 L 268.147 37.695 249.300 37.695 L 230.452 37.695 230.452 69.821 L 230.452 101.947 204.320 101.947 L 178.188 101.947 190.149 78.036 C 199.091 60.160,201.850 53.913,201.075 53.287 C 199.918 52.352,172.971 38.803,170.089 37.708 C 168.363 37.051,165.922 41.663,130.627 112.268 M322.045 216.352 C 346.316 222.073,358.390 248.734,346.752 270.908 C 343.378 277.338,336.390 283.842,329.194 287.250 L 323.404 289.993 295.776 290.251 L 268.147 290.509 268.147 252.770 L 268.147 215.032 292.349 215.044 C 310.915 215.054,317.830 215.359,322.045 216.352 M154.500 253.368 L 138.089 261.621 156.858 299.152 C 167.181 319.794,175.817 336.683,176.048 336.683 C 176.280 336.683,183.953 332.947,193.100 328.380 L 209.731 320.078 190.962 282.547 C 180.639 261.905,171.905 245.038,171.552 245.065 C 171.200 245.092,163.527 248.828,154.500 253.368 " stroke="none" fill-rule="evenodd" fill="black"></path></svg>