<svg width="136mm" height="120mm" version="1.1" viewBox="0 0 600 529.4117647058824" xmlns="http://www.w3.org/2000/svg"><path d="M238.163 71.963 L 238.163 106.231 160.631 106.231 L 83.100 106.231 83.100 125.078 L 83.100 143.926 257.010 143.926 L 430.920 143.926 430.920 125.078 L 430.920 106.231 353.389 106.231 L 275.857 106.231 275.857 71.963 L 275.857 37.695 257.010 37.695 L 238.163 37.695 238.163 71.963 M120.795 209.463 L 120.795 260.437 79.245 260.437 L 37.695 260.437 37.695 279.284 L 37.695 298.132 71.536 298.132 L 105.377 298.132 80.139 348.602 C 61.098 386.679,55.157 399.285,55.944 399.938 C 56.518 400.415,64.146 404.246,72.895 408.454 L 88.802 416.103 114.328 365.042 L 139.854 313.981 165.449 365.166 L 191.044 416.351 207.750 408.011 C 216.938 403.424,224.455 399.376,224.455 399.015 C 224.455 398.655,213.275 376.002,199.611 348.677 C 185.947 321.351,174.767 298.800,174.767 298.563 C 174.767 298.326,189.802 298.132,208.178 298.132 L 241.589 298.132 241.589 279.284 L 241.589 260.437 200.039 260.437 L 158.489 260.437 158.489 209.463 L 158.489 158.489 139.642 158.489 L 120.795 158.489 120.795 209.463 M355.531 209.463 L 355.531 260.437 313.981 260.437 L 272.431 260.437 272.431 279.284 L 272.431 298.132 305.842 298.132 C 324.218 298.132,339.253 298.326,339.253 298.563 C 339.253 298.800,328.073 321.351,314.409 348.677 C 300.745 376.002,289.565 398.655,289.565 399.015 C 289.565 399.376,297.082 403.424,306.270 408.011 L 322.976 416.351 348.571 365.166 L 374.166 313.981 399.694 365.046 L 425.222 416.110 441.136 408.382 C 449.888 404.131,457.515 400.298,458.084 399.863 C 458.846 399.281,452.461 385.759,433.881 348.602 L 408.643 298.132 442.484 298.132 L 476.325 298.132 476.325 279.284 L 476.325 260.437 434.775 260.437 L 393.225 260.437 393.225 209.463 L 393.225 158.489 374.378 158.489 L 355.531 158.489 355.531 209.463 M67.679 181.377 C 58.491 184.467,50.793 187.155,50.573 187.350 C 50.092 187.776,64.165 230.561,65.131 231.614 C 66.019 232.580,101.212 220.879,100.799 219.755 C 100.623 219.277,97.250 209.153,93.302 197.255 C 89.354 185.358,85.733 175.654,85.254 175.691 C 84.776 175.728,76.867 178.287,67.679 181.377 M193.614 175.871 C 193.614 176.007,190.337 185.670,186.332 197.344 C 182.327 209.019,179.050 219.095,179.050 219.736 C 179.050 220.879,213.673 233.010,214.443 232.136 C 214.935 231.578,229.611 187.337,229.367 187.149 C 228.924 186.808,194.852 175.624,194.256 175.624 C 193.903 175.624,193.614 175.735,193.614 175.871 M301.558 181.377 C 292.370 184.467,284.763 187.064,284.653 187.149 C 284.409 187.337,299.085 231.578,299.577 232.136 C 300.148 232.783,334.970 220.974,334.970 220.133 C 334.970 217.785,320.047 175.635,319.235 175.691 C 318.701 175.728,310.747 178.287,301.558 181.377 M420.718 197.255 C 416.770 209.153,413.397 219.277,413.221 219.755 C 412.808 220.878,448.002 232.581,448.885 231.614 C 449.623 230.805,463.475 189.426,463.475 188.030 C 463.475 187.359,430.216 175.624,428.315 175.624 C 428.084 175.624,424.666 185.358,420.718 197.255 " stroke="none" fill-rule="evenodd" fill="black"></path></svg>