<svg width="136mm" height="120mm" version="1.1" viewBox="0 0 600 529.4117647058824" xmlns="http://www.w3.org/2000/svg"><path d="M286.455 79.782 L 253.794 112.443 211.234 98.253 C 182.489 88.669,168.551 84.394,168.294 85.081 C 164.713 94.633,156.948 119.580,157.423 120.007 C 157.774 120.322,172.854 125.495,190.934 131.502 L 223.806 142.424 194.143 172.096 L 164.481 201.768 177.766 215.032 L 191.051 228.296 227.454 191.900 L 263.858 155.504 300.755 167.792 C 321.049 174.550,337.767 179.945,337.907 179.779 C 338.485 179.098,349.687 144.654,349.409 144.418 C 349.242 144.276,336.626 140.012,321.373 134.942 L 293.642 125.723 319.656 99.699 L 345.670 73.674 332.393 60.397 L 319.116 47.120 286.455 79.782 M105.759 234.970 C 105.527 235.572,105.443 244.151,105.570 254.034 L 105.802 272.002 171.983 272.222 L 238.163 272.441 238.163 338.402 L 238.163 404.362 257.010 404.362 L 275.857 404.362 275.857 338.402 L 275.857 272.441 342.037 272.222 L 408.218 272.002 408.218 253.155 L 408.218 234.307 257.198 234.091 C 135.214 233.916,106.098 234.085,105.759 234.970 " stroke="none" fill-rule="evenodd" fill="black"></path></svg>