<svg width="136mm" height="120mm" version="1.1" viewBox="0 0 600 529.4117647058824" xmlns="http://www.w3.org/2000/svg"><path d="M286.455 79.782 L 253.794 112.443 211.234 98.253 C 182.489 88.669,168.551 84.394,168.294 85.081 C 167.715 86.625,156.776 119.436,156.776 119.628 C 156.776 119.720,171.522 124.698,189.545 130.691 C 207.568 136.684,222.647 141.777,223.054 142.011 C 223.462 142.244,210.449 155.785,194.138 172.101 L 164.481 201.768 177.766 215.032 L 191.051 228.296 227.454 191.900 L 263.858 155.504 300.755 167.792 C 321.049 174.550,337.767 179.945,337.907 179.779 C 338.485 179.098,349.687 144.654,349.409 144.418 C 349.242 144.276,336.626 140.012,321.373 134.942 L 293.642 125.723 319.656 99.699 L 345.670 73.674 332.393 60.397 L 319.116 47.120 286.455 79.782 M106.231 252.727 L 106.231 271.574 172.197 271.574 L 238.163 271.574 238.163 337.968 L 238.163 404.362 257.010 404.362 L 275.857 404.362 275.857 337.968 L 275.857 271.574 341.823 271.574 L 407.789 271.574 407.789 252.727 L 407.789 233.879 257.010 233.879 L 106.231 233.879 106.231 252.727 " stroke="none" fill-rule="evenodd" fill="black"></path></svg>