<svg width="136mm" height="120mm" version="1.1" viewBox="0 0 600 529.4117647058824" xmlns="http://www.w3.org/2000/svg"><path d="M148.623 54.186 C 146.512 59.995,42.835 370.462,42.835 370.974 C 42.835 371.351,50.854 374.337,60.655 377.608 L 78.476 383.555 127.261 237.183 L 176.046 90.810 200.037 90.833 L 224.027 90.857 218.248 93.322 C 201.033 100.666,184.919 116.357,177.272 133.222 C 163.536 163.516,170.423 200.016,194.173 222.801 C 203.612 231.856,212.338 237.255,223.735 241.092 L 230.024 243.210 230.251 270.008 L 230.477 296.807 226.137 292.543 C 223.730 290.179,220.576 285.810,219.057 282.735 L 216.317 277.190 215.888 259.604 L 215.460 242.018 196.286 241.787 L 177.113 241.556 177.562 260.206 C 177.929 275.470,178.340 280.092,179.824 285.663 C 185.921 308.564,203.125 327.611,224.798 335.457 L 230.024 337.349 230.250 365.287 L 230.476 393.225 249.300 393.225 L 268.124 393.225 268.350 365.250 L 268.575 337.274 272.859 335.818 C 290.992 329.651,307.288 314.856,314.897 297.650 C 319.852 286.446,320.610 281.936,321.042 261.079 L 321.446 241.589 302.607 241.589 L 283.768 241.589 283.375 258.509 C 283.033 273.263,282.744 276.044,281.116 280.237 C 279.022 285.630,274.647 291.664,270.731 294.559 L 268.123 296.488 268.349 269.814 L 268.575 243.141 274.572 241.222 C 299.884 233.120,319.815 211.389,326.585 184.513 C 329.267 173.869,329.244 157.700,326.533 147.352 C 323.963 137.544,316.408 122.538,310.636 115.781 C 302.144 105.837,290.900 97.565,279.509 92.881 L 274.572 90.851 309.019 90.831 L 343.465 90.810 343.766 202.395 C 344.093 324.023,343.819 317.027,348.849 331.971 C 358.234 359.856,380.518 382.164,408.241 391.429 C 420.939 395.672,429.515 396.645,454.265 396.649 L 476.325 396.652 476.325 377.884 L 476.325 359.115 452.123 358.766 C 428.556 358.426,427.737 358.356,420.884 356.089 C 412.137 353.196,402.608 346.934,396.188 339.861 C 390.498 333.591,384.343 321.540,382.999 314.037 C 382.383 310.597,382.088 267.608,382.088 181.035 L 382.088 53.115 265.550 53.115 C 173.098 53.115,148.932 53.337,148.623 54.186 M262.072 126.701 C 276.744 131.268,288.492 145.099,290.345 159.989 C 291.996 173.261,288.545 184.684,280.088 193.938 C 271.644 203.176,261.882 207.459,249.266 207.460 C 233.409 207.462,220.106 199.399,212.705 185.299 C 209.002 178.244,207.883 172.524,208.373 163.152 C 208.734 156.249,209.207 154.300,211.892 148.645 C 216.924 138.050,226.342 129.899,237.734 126.281 C 243.105 124.575,255.954 124.797,262.072 126.701 " stroke="none" fill-rule="evenodd" fill="black"></path></svg>