<svg width="136mm" height="120mm" version="1.1" viewBox="0 0 600 529.4117647058824" xmlns="http://www.w3.org/2000/svg"><path d="M226.374 56.765 L 213.321 69.838 232.390 88.893 L 251.459 107.948 264.720 94.666 L 277.981 81.383 259.150 62.538 C 248.793 52.172,240.118 43.692,239.873 43.692 C 239.628 43.692,233.553 49.575,226.374 56.765 M292.559 95.952 L 259.146 129.365 209.040 112.658 C 181.482 103.469,158.481 95.950,157.926 95.950 C 156.638 95.950,145.198 130.142,146.185 131.043 C 146.592 131.414,165.236 137.794,187.617 145.221 C 209.999 152.648,228.487 158.879,228.702 159.069 C 228.917 159.259,208.486 180.024,183.300 205.214 L 137.507 251.013 150.997 264.503 L 164.487 277.993 217.172 225.314 L 269.856 172.635 319.706 189.243 C 347.124 198.378,370.117 205.893,370.802 205.944 C 371.681 206.009,373.769 200.895,377.910 188.531 C 381.135 178.904,383.684 170.957,383.574 170.872 C 383.463 170.787,364.533 164.449,341.506 156.788 L 299.638 142.857 326.506 115.980 L 353.373 89.102 340.113 75.821 C 332.819 68.516,326.654 62.539,326.412 62.539 C 326.170 62.539,310.936 77.575,292.559 95.952 M185.254 279.505 L 100.225 364.538 113.512 377.803 L 126.798 391.069 160.422 357.453 L 194.046 323.838 216.537 331.323 L 239.028 338.807 207.323 370.521 L 175.617 402.235 188.903 415.500 L 202.188 428.764 240.526 390.433 L 278.864 352.102 344.231 373.895 C 388.210 388.558,409.722 395.356,409.979 394.671 C 413.560 385.119,421.324 360.172,420.849 359.745 C 420.498 359.430,395.538 350.975,365.383 340.958 C 335.227 330.941,310.220 322.554,309.812 322.320 C 309.405 322.087,326.173 304.791,347.075 283.884 L 385.079 245.873 329.183 245.873 C 298.441 245.873,273.287 245.589,273.287 245.241 C 273.287 244.894,278.585 239.302,285.059 232.815 L 296.832 221.021 283.558 207.747 L 270.284 194.473 185.254 279.505 M281.644 296.193 L 269.019 308.818 248.665 302.070 C 237.470 298.359,227.375 294.974,226.232 294.549 C 224.183 293.787,224.227 293.700,229.203 288.672 L 234.254 283.568 264.262 283.568 L 294.269 283.568 281.644 296.193 " stroke="none" fill-rule="evenodd" fill="black"></path></svg>