<svg width="136mm" height="120mm" version="1.1" viewBox="0 0 600 529.4117647058824" xmlns="http://www.w3.org/2000/svg"><path d="M125.078 122.508 L 125.078 150.779 96.807 150.779 L 68.536 150.779 68.536 169.615 L 68.536 188.451 96.593 188.676 L 124.650 188.902 125.105 241.161 C 125.594 297.298,125.443 295.443,130.328 305.323 C 133.770 312.286,137.815 317.588,144.347 323.698 C 182.146 359.058,267.935 369.494,330.935 346.396 C 356.567 336.999,375.208 322.486,383.692 305.323 C 388.577 295.443,388.426 297.298,388.915 241.161 L 389.370 188.902 417.427 188.676 L 445.484 188.451 445.484 169.615 L 445.484 150.779 417.213 150.779 L 388.942 150.779 388.942 122.508 L 388.942 94.237 370.094 94.237 L 351.247 94.237 351.247 122.508 L 351.247 150.779 257.010 150.779 L 162.773 150.779 162.773 122.508 L 162.773 94.237 143.926 94.237 L 125.078 94.237 125.078 122.508 M351.247 237.567 L 351.247 286.659 348.792 290.530 C 340.555 303.519,315.256 314.664,283.568 319.263 C 270.129 321.214,243.774 321.196,230.180 319.227 C 199.037 314.716,173.396 303.410,165.280 290.612 L 162.773 286.659 162.773 237.567 L 162.773 188.474 257.010 188.474 L 351.247 188.474 351.247 237.567 " stroke="none" fill-rule="evenodd" fill="black"></path></svg>