<svg width="136mm" height="120mm" version="1.1" viewBox="0 0 600 529.4117647058824" xmlns="http://www.w3.org/2000/svg"><path d="M125.078 122.497 L 125.078 150.756 96.593 150.982 L 68.108 151.208 68.108 170.055 L 68.108 188.902 96.562 189.128 L 125.016 189.354 125.261 241.815 L 125.507 294.276 128.180 300.865 C 133.939 315.062,145.908 327.563,163.031 337.264 C 213.577 365.903,300.443 365.903,350.989 337.264 C 368.234 327.494,380.320 314.742,386.160 300.154 L 388.513 294.276 388.759 241.815 L 389.004 189.354 417.458 189.128 L 445.912 188.902 445.912 170.055 L 445.912 151.208 417.427 150.982 L 388.942 150.756 388.942 122.497 L 388.942 94.237 370.094 94.237 L 351.247 94.237 351.247 122.508 L 351.247 150.779 257.010 150.779 L 162.773 150.779 162.773 122.508 L 162.773 94.237 143.926 94.237 L 125.078 94.237 125.078 122.497 M351.053 238.451 L 350.819 287.571 348.249 291.288 C 339.647 303.730,314.914 314.712,285.281 319.245 C 271.631 321.333,242.389 321.333,228.739 319.245 C 199.106 314.712,174.373 303.730,165.771 291.288 L 163.201 287.571 162.967 238.451 L 162.732 189.331 257.010 189.331 L 351.288 189.331 351.053 238.451 " stroke="none" fill-rule="evenodd" fill="black"></path></svg>