<svg width="136mm" height="120mm" version="1.1" viewBox="0 0 600 529.4117647058824" xmlns="http://www.w3.org/2000/svg"><path d="M124.793 94.808 C 124.479 95.122,124.222 107.839,124.222 123.068 L 124.222 150.756 96.165 150.982 L 68.108 151.208 68.108 170.055 L 68.108 188.902 96.104 189.128 L 124.101 189.354 124.407 240.102 L 124.713 290.850 127.065 297.887 C 137.002 327.621,173.150 349.250,225.740 356.929 C 240.119 359.029,273.901 359.029,288.280 356.929 C 316.944 352.743,341.599 344.188,358.950 332.404 C 372.258 323.367,382.769 310.412,386.955 297.887 L 389.307 290.850 389.613 240.102 L 389.919 189.354 417.916 189.128 L 445.912 188.902 445.912 170.055 L 445.912 151.208 417.867 150.982 L 389.822 150.756 389.596 122.711 L 389.370 94.665 370.309 94.435 L 351.247 94.204 351.247 122.492 L 351.247 150.779 257.010 150.779 L 162.773 150.779 162.773 122.508 L 162.773 94.237 144.068 94.237 C 133.781 94.237,125.107 94.494,124.793 94.808 M351.247 237.995 L 351.247 286.659 348.730 290.627 C 340.754 303.205,315.412 314.635,285.281 319.245 C 271.631 321.333,242.389 321.333,228.739 319.245 C 198.608 314.635,173.266 303.205,165.290 290.627 L 162.773 286.659 162.773 237.995 L 162.773 189.331 257.010 189.331 L 351.247 189.331 351.247 237.995 " stroke="none" fill-rule="evenodd" fill="black"></path></svg>