<svg width="136mm" height="120mm" version="1.1" viewBox="0 0 600 529.4117647058824" xmlns="http://www.w3.org/2000/svg"><path d="M205.608 59.969 L 194.068 83.100 166.855 83.100 L 139.642 83.100 139.642 101.947 L 139.642 120.795 157.204 120.795 C 166.864 120.795,174.767 120.989,174.767 121.225 C 174.767 121.462,161.467 148.255,145.211 180.764 C 128.955 213.273,115.654 240.166,115.654 240.526 C 115.654 240.887,123.172 244.934,132.359 249.521 L 149.064 257.860 164.096 227.806 L 179.128 197.751 185.248 207.017 C 201.065 230.966,223.981 247.977,250.988 255.814 C 266.348 260.272,269.155 260.430,333.470 260.433 L 393.225 260.437 393.225 241.626 L 393.225 222.816 331.329 222.535 C 269.880 222.257,269.386 222.241,263.007 220.314 C 248.234 215.853,234.530 207.413,224.831 196.802 C 214.256 185.232,206.115 167.472,205.049 153.645 L 204.530 146.917 211.071 133.856 L 217.613 120.795 250.590 120.795 L 283.568 120.795 283.568 101.947 L 283.568 83.100 260.004 83.100 L 236.440 83.100 243.777 68.444 C 247.813 60.383,250.995 53.680,250.850 53.548 C 250.488 53.220,217.679 36.838,217.384 36.838 C 217.254 36.838,211.955 47.247,205.608 59.969 M332.245 107.446 C 332.094 120.836,331.724 132.039,331.421 132.340 C 331.119 132.642,323.123 129.011,313.653 124.272 C 304.183 119.532,296.240 115.654,296.002 115.654 C 295.499 115.654,279.284 147.863,279.284 148.862 C 279.284 149.231,286.223 152.985,294.705 157.204 C 303.186 161.424,310.125 165.148,310.125 165.480 C 310.125 166.358,306.087 169.068,300.834 171.715 C 295.256 174.525,284.624 177.337,279.576 177.337 L 275.857 177.337 275.857 196.314 L 275.857 215.290 283.782 214.750 C 304.926 213.307,325.706 203.818,341.524 188.383 L 346.793 183.241 365.721 192.712 L 384.649 202.184 393.145 185.209 L 401.640 168.233 383.684 159.292 C 367.889 151.427,365.789 150.145,366.241 148.637 C 369.433 138.008,370.072 131.129,370.083 107.302 L 370.094 83.100 351.307 83.100 L 332.519 83.100 332.245 107.446 M173.910 285.281 L 173.910 298.132 151.208 298.132 L 128.505 298.132 128.505 316.979 L 128.505 335.826 151.208 335.826 L 173.910 335.826 173.910 346.017 C 173.910 358.392,175.661 364.963,181.066 372.870 C 200.114 400.738,257.601 412.520,303.049 397.870 C 319.444 392.586,333.869 382.946,340.764 372.667 C 345.896 365.016,347.112 360.482,347.601 347.178 L 348.019 335.826 365.070 335.826 L 382.122 335.826 381.891 317.193 L 381.660 298.560 364.740 298.328 L 347.820 298.095 347.820 285.263 L 347.820 272.431 328.973 272.431 L 310.125 272.431 310.125 285.281 L 310.125 298.132 260.865 298.132 L 211.605 298.132 211.605 285.281 L 211.605 272.431 192.757 272.431 L 173.910 272.431 173.910 285.281 M310.125 343.369 C 310.125 350.754,310.067 350.967,307.341 353.607 C 304.002 356.841,295.368 360.884,286.813 363.219 C 273.187 366.940,250.287 367.087,235.727 363.547 C 228.531 361.797,216.628 356.348,213.778 353.498 C 211.772 351.492,211.605 350.729,211.605 343.576 L 211.605 335.826 260.865 335.826 L 310.125 335.826 310.125 343.369 " stroke="none" fill-rule="evenodd" fill="black"></path></svg>