<svg width="136mm" height="120mm" version="1.1" viewBox="0 0 600 529.4117647058824" xmlns="http://www.w3.org/2000/svg"><path d="M226.374 56.765 L 213.321 69.838 231.960 88.463 C 242.211 98.706,250.986 107.087,251.459 107.087 C 251.932 107.088,258.093 101.304,265.150 94.235 L 277.981 81.383 259.150 62.537 C 248.793 52.172,240.118 43.692,239.873 43.692 C 239.628 43.692,233.553 49.575,226.374 56.765 M292.559 95.952 L 259.146 129.365 209.040 112.658 C 181.482 103.469,158.481 95.950,157.926 95.950 C 156.638 95.950,145.198 130.142,146.185 131.043 C 146.592 131.414,165.236 137.794,187.617 145.221 C 209.999 152.648,228.486 158.879,228.701 159.069 C 228.916 159.259,212.821 175.688,192.934 195.579 L 156.776 231.744 170.266 245.234 L 183.756 258.724 226.805 215.680 L 269.855 172.637 309.062 185.696 C 330.626 192.878,348.525 198.754,348.838 198.754 C 349.547 198.754,361.189 163.845,360.641 163.360 C 360.422 163.166,346.606 158.474,329.940 152.932 L 299.638 142.857 326.506 115.980 L 353.373 89.102 340.113 75.821 C 332.819 68.516,326.654 62.539,326.412 62.539 C 326.170 62.539,310.936 77.575,292.559 95.952 M139.642 279.713 L 139.642 294.705 122.936 294.705 L 106.231 294.705 106.231 313.552 L 106.231 332.400 122.810 332.400 L 139.389 332.400 139.962 340.549 C 141.242 358.759,150.399 373.173,168.221 385.031 C 213.755 415.328,300.265 415.328,345.799 385.031 C 363.757 373.082,372.765 358.733,374.098 339.953 L 374.634 332.400 391.212 332.400 L 407.789 332.400 407.789 313.552 L 407.789 294.705 391.084 294.705 L 374.378 294.705 374.378 279.713 L 374.378 264.720 355.551 264.720 L 336.724 264.720 336.489 279.498 L 336.255 294.276 257.010 294.276 L 177.765 294.276 177.531 279.498 L 177.296 264.720 158.469 264.720 L 139.642 264.720 139.642 279.713 M336.683 336.339 C 336.683 341.653,334.746 345.379,329.559 350.042 C 319.756 358.856,299.031 366.229,276.719 368.841 C 240.270 373.108,201.087 364.991,184.006 349.634 C 179.019 345.149,177.337 341.783,177.337 336.282 L 177.337 332.400 257.010 332.400 L 336.683 332.400 336.683 336.339 " stroke="none" fill-rule="evenodd" fill="black"></path></svg>