<svg width="136mm" height="120mm" version="1.1" viewBox="0 0 600 529.4117647058824" xmlns="http://www.w3.org/2000/svg"><path d="M226.374 56.765 L 213.321 69.838 232.390 88.893 L 251.459 107.948 264.720 94.666 L 277.981 81.383 259.150 62.538 C 248.793 52.172,240.118 43.692,239.873 43.692 C 239.628 43.692,233.553 49.575,226.374 56.765 M292.559 95.952 L 259.146 129.365 209.040 112.658 C 181.482 103.469,158.481 95.950,157.926 95.950 C 156.638 95.950,145.198 130.142,146.185 131.043 C 146.592 131.414,165.236 137.794,187.617 145.221 C 209.999 152.648,228.486 158.879,228.701 159.069 C 228.916 159.259,212.821 175.688,192.934 195.579 L 156.776 231.744 170.266 245.234 L 183.756 258.724 226.805 215.680 L 269.855 172.637 309.062 185.696 C 330.626 192.878,348.525 198.754,348.838 198.754 C 349.547 198.754,361.189 163.845,360.641 163.360 C 360.422 163.166,346.606 158.474,329.940 152.932 L 299.638 142.857 326.506 115.980 L 353.373 89.102 340.113 75.821 C 332.819 68.516,326.654 62.539,326.412 62.539 C 326.170 62.539,310.936 77.575,292.559 95.952 M139.642 279.713 L 139.642 294.705 122.936 294.705 L 106.231 294.705 106.231 313.552 L 106.231 332.400 122.936 332.400 L 139.642 332.400 139.649 336.469 C 139.665 346.838,142.772 357.508,148.072 365.391 C 163.194 387.888,196.114 403.180,237.673 407.013 C 251.115 408.253,276.061 407.580,288.576 405.639 C 320.179 400.739,346.955 388.199,361.099 371.675 C 369.528 361.827,373.051 353.239,374.041 340.122 L 374.624 332.400 391.206 332.400 L 407.789 332.400 407.789 313.552 L 407.789 294.705 391.084 294.705 L 374.378 294.705 374.378 279.713 L 374.378 264.720 355.102 264.720 L 335.826 264.720 335.826 279.713 L 335.826 294.705 257.010 294.705 L 178.194 294.705 178.194 279.713 L 178.194 264.720 158.918 264.720 L 139.642 264.720 139.642 279.713 M335.826 338.037 L 335.826 343.674 330.850 348.650 C 322.318 357.182,304.620 364.621,284.435 368.158 C 273.021 370.159,240.999 370.159,229.585 368.158 C 209.400 364.621,191.702 357.182,183.170 348.650 L 178.194 343.674 178.194 338.037 L 178.194 332.400 257.010 332.400 L 335.826 332.400 335.826 338.037 " stroke="none" fill-rule="evenodd" fill="black"></path></svg>