<svg width="136mm" height="120mm" version="1.1" viewBox="0 0 600 529.4117647058824" xmlns="http://www.w3.org/2000/svg"><path d="M226.374 56.765 L 213.321 69.838 232.390 88.893 L 251.459 107.948 264.720 94.666 L 277.981 81.383 259.150 62.538 C 248.793 52.172,240.118 43.692,239.873 43.692 C 239.628 43.692,233.553 49.575,226.374 56.765 M325.073 64.310 C 324.155 65.329,308.910 80.371,291.195 97.737 L 258.986 129.312 208.960 112.631 C 181.446 103.457,158.481 95.950,157.926 95.950 C 156.638 95.950,145.198 130.142,146.185 131.043 C 146.592 131.414,165.236 137.794,187.617 145.221 C 209.999 152.648,228.486 158.879,228.701 159.069 C 228.916 159.259,212.726 175.783,192.724 195.790 L 156.355 232.166 169.844 245.656 L 183.334 259.145 226.594 215.891 L 269.855 172.637 309.062 185.696 C 330.626 192.878,348.525 198.754,348.838 198.754 C 349.547 198.754,361.189 163.845,360.641 163.360 C 360.422 163.166,346.606 158.474,329.940 152.932 L 299.638 142.857 326.509 115.976 L 353.380 89.095 340.061 75.776 L 326.742 62.457 325.073 64.310 M139.642 279.713 L 139.642 294.705 122.508 294.705 L 105.374 294.705 105.374 313.552 L 105.374 332.400 122.379 332.400 L 139.384 332.400 139.931 340.324 C 140.232 344.683,141.028 350.029,141.699 352.205 C 151.936 385.402,198.379 407.789,257.010 407.789 C 315.641 407.789,362.084 385.402,372.321 352.205 C 372.992 350.029,373.788 344.683,374.089 340.324 L 374.636 332.400 391.641 332.400 L 408.646 332.400 408.646 313.552 L 408.646 294.705 391.512 294.705 L 374.378 294.705 374.378 279.713 L 374.378 264.720 355.531 264.720 L 336.683 264.720 336.683 279.713 L 336.683 294.705 257.010 294.705 L 177.337 294.705 177.337 279.713 L 177.337 264.720 158.489 264.720 L 139.642 264.720 139.642 279.713 M336.678 335.612 C 336.665 344.793,331.025 351.128,316.652 358.105 C 298.833 366.755,284.124 369.587,257.010 369.587 C 229.896 369.587,215.187 366.755,197.368 358.105 C 182.995 351.128,177.355 344.793,177.342 335.612 L 177.337 332.400 257.010 332.400 L 336.683 332.400 336.678 335.612 " stroke="none" fill-rule="evenodd" fill="black"></path></svg>