<svg width="136mm" height="120mm" version="1.1" viewBox="0 0 600 529.4117647058824" xmlns="http://www.w3.org/2000/svg"><path d="M241.589 49.357 C 169.109 53.526,112.318 79.547,93.423 117.245 C 90.140 123.795,87.383 134.087,87.383 139.796 L 87.383 143.959 105.952 143.728 L 124.521 143.497 125.516 139.080 C 130.389 117.432,169.158 96.789,218.469 89.585 C 242.113 86.131,271.907 86.131,295.551 89.585 C 335.174 95.374,368.175 109.688,382.290 127.208 C 385.940 131.739,387.138 134.355,389.453 142.855 C 389.675 143.669,394.161 143.926,408.191 143.926 L 426.637 143.926 426.637 139.779 C 426.637 134.086,423.877 123.788,420.597 117.245 C 416.387 108.846,411.193 102.066,403.095 94.401 C 379.296 71.873,339.092 56.226,291.706 51.049 C 279.500 49.715,251.684 48.776,241.589 49.357 M240.304 117.905 C 205.899 123.047,178.923 136.763,155.790 160.875 C 137.956 179.465,125.455 203.264,120.368 228.311 L 118.454 237.734 99.064 237.965 L 79.673 238.195 79.673 257.010 L 79.673 275.825 99.073 276.055 L 118.474 276.286 120.109 284.424 C 130.934 338.320,173.805 381.864,227.261 393.260 C 264.520 401.203,302.264 394.123,333.963 373.246 C 363.544 353.765,384.406 323.970,392.858 289.136 C 394.001 284.424,394.937 279.509,394.938 278.213 L 394.939 275.857 414.643 275.857 L 434.347 275.857 434.347 257.026 L 434.347 238.195 414.956 237.965 L 395.566 237.734 393.639 228.311 C 388.448 202.922,376.039 179.417,357.781 160.391 C 338.081 139.862,313.511 126.151,285.132 119.850 C 278.881 118.463,273.414 118.016,260.008 117.799 C 250.585 117.646,241.718 117.694,240.304 117.905 M238.163 197.469 L 238.163 238.163 197.401 238.163 L 156.640 238.163 157.235 235.378 C 160.849 218.473,171.271 198.853,183.205 186.489 C 192.322 177.044,205.248 168.081,216.981 163.068 C 222.871 160.552,234.321 156.925,236.663 156.834 C 238.071 156.780,238.163 159.263,238.163 197.469 M288.501 159.874 C 313.741 168.113,334.627 185.763,347.016 209.323 C 350.854 216.622,355.459 228.880,356.804 235.378 L 357.380 238.163 316.619 238.163 L 275.857 238.163 275.857 197.374 L 275.857 156.585 278.878 157.152 C 280.540 157.464,284.870 158.689,288.501 159.874 M238.163 316.460 L 238.163 357.062 234.522 356.268 C 205.755 350.001,178.592 328.586,165.763 302.060 C 162.103 294.491,158.441 284.293,157.354 278.642 L 156.819 275.857 197.491 275.857 L 238.163 275.857 238.163 316.460 M356.918 277.357 C 356.676 278.181,355.887 281.192,355.166 284.046 C 346.458 318.520,315.016 348.530,279.498 356.268 L 275.857 357.062 275.857 316.460 L 275.857 275.857 316.608 275.857 C 355.016 275.857,357.334 275.944,356.918 277.357 " stroke="none" fill-rule="evenodd" fill="black"></path></svg>