<svg width="136mm" height="120mm" version="1.1" viewBox="0 0 600 529.4117647058824" xmlns="http://www.w3.org/2000/svg"><path d="M241.560 49.724 C 170.210 53.092,112.085 79.533,93.446 117.100 C 90.068 123.908,87.383 133.795,87.383 139.427 L 87.383 143.959 105.919 143.728 L 124.455 143.497 125.624 138.930 C 130.937 118.159,166.077 98.416,211.177 90.862 C 227.157 88.186,237.727 87.383,257.010 87.383 C 276.293 87.383,286.863 88.186,302.843 90.862 C 348.878 98.572,384.355 118.974,388.778 140.281 L 389.446 143.497 408.041 143.728 L 426.637 143.959 426.637 139.427 C 426.637 133.725,423.962 123.961,420.517 117.086 C 412.018 100.126,395.419 85.131,372.236 73.471 C 350.793 62.685,326.712 55.713,297.674 51.883 C 289.202 50.766,282.309 50.290,261.293 49.375 C 257.760 49.221,248.880 49.378,241.560 49.724 M236.825 118.686 C 187.351 125.910,145.176 159.351,127.216 205.597 C 123.852 214.260,119.690 229.302,118.916 235.593 L 118.653 237.734 99.163 237.965 L 79.673 238.195 79.673 257.026 L 79.673 275.857 99.377 275.857 L 119.081 275.857 119.082 278.213 C 119.084 281.773,122.911 296.807,125.823 304.691 C 141.888 348.196,178.696 381.301,223.170 392.244 C 235.770 395.345,242.775 396.154,257.010 396.154 C 271.245 396.154,278.250 395.345,290.850 392.244 C 335.315 381.303,372.141 348.195,388.132 304.784 C 391.093 296.747,394.936 281.741,394.938 278.213 L 394.939 275.857 414.643 275.857 L 434.347 275.857 434.347 257.026 L 434.347 238.195 414.948 237.965 L 395.548 237.734 394.059 230.374 C 388.411 202.470,376.596 179.809,357.312 159.895 C 335.187 137.046,307.872 123.108,276.475 118.644 C 265.827 117.130,247.344 117.150,236.825 118.686 M238.163 197.469 L 238.163 238.163 197.469 238.163 C 175.088 238.163,156.776 237.857,156.776 237.483 C 156.776 235.119,161.747 220.291,164.558 214.270 C 174.580 192.805,190.907 176.085,211.943 165.746 C 220.078 161.748,233.532 156.973,237.092 156.822 C 237.934 156.786,238.163 165.462,238.163 197.469 M288.280 159.963 C 303.371 164.660,321.318 176.089,331.890 187.737 C 342.348 199.258,350.926 214.676,355.036 229.335 C 356.250 233.668,357.244 237.427,357.244 237.688 C 357.244 237.949,338.932 238.163,316.551 238.163 L 275.857 238.163 275.857 197.401 L 275.857 156.640 278.642 157.235 C 280.173 157.563,284.510 158.790,288.280 159.963 M238.163 316.608 C 238.163 355.012,238.076 357.335,236.663 356.929 C 220.683 352.338,213.432 349.493,205.180 344.574 C 190.522 335.838,177.715 322.899,168.962 307.984 C 165.028 301.280,160.170 289.640,158.594 283.139 C 158.023 280.783,157.354 278.181,157.108 277.357 C 156.686 275.944,159.002 275.857,197.412 275.857 L 238.163 275.857 238.163 316.608 M356.912 277.357 C 356.666 278.181,355.997 280.783,355.426 283.139 C 353.850 289.640,348.992 301.280,345.058 307.984 C 336.305 322.899,323.498 335.838,308.840 344.574 C 300.588 349.493,293.337 352.338,277.357 356.929 C 275.944 357.335,275.857 355.012,275.857 316.608 L 275.857 275.857 316.608 275.857 C 355.018 275.857,357.334 275.944,356.912 277.357 " stroke="none" fill-rule="evenodd" fill="black"></path></svg>