<svg width="136mm" height="120mm" version="1.1" viewBox="0 0 600 529.4117647058824" xmlns="http://www.w3.org/2000/svg"><path d="M240.838 49.750 C 194.951 51.948,154.005 63.768,124.791 83.249 C 114.793 89.917,100.901 103.765,96.121 111.828 C 94.156 115.142,91.547 120.722,90.322 124.228 C 88.046 130.741,86.267 142.113,87.337 143.301 C 87.665 143.664,96.183 143.856,106.268 143.729 L 124.603 143.497 125.248 139.719 C 128.495 120.681,162.044 100.474,204.227 92.147 C 223.124 88.417,230.496 87.812,257.010 87.812 C 283.524 87.812,290.896 88.417,309.793 92.147 C 351.976 100.474,385.522 120.680,388.773 139.719 L 389.418 143.497 408.241 143.497 L 427.065 143.497 426.769 138.357 C 426.364 131.321,422.409 119.434,417.994 111.988 C 413.116 103.759,399.329 89.985,389.229 83.249 C 361.055 64.461,319.174 51.998,277.999 50.150 C 271.874 49.875,264.163 49.521,260.865 49.364 C 257.567 49.206,248.555 49.380,240.838 49.750 M236.825 118.686 C 190.484 125.452,150.588 155.039,130.588 197.469 C 125.838 207.546,122.104 218.739,120.297 228.311 C 119.497 232.551,118.715 236.503,118.560 237.092 C 118.345 237.908,113.696 238.163,98.976 238.163 L 79.673 238.163 79.673 256.994 L 79.673 275.825 99.163 276.055 L 118.653 276.286 118.926 278.856 C 119.368 283.017,123.199 297.569,125.615 304.267 C 141.319 347.804,178.375 381.222,223.170 392.244 C 235.770 395.345,242.775 396.154,257.010 396.154 C 264.785 396.154,274.037 395.654,277.571 395.042 C 309.343 389.545,334.257 376.861,355.973 355.124 C 375.828 335.250,388.377 311.772,393.990 283.996 L 395.548 276.286 414.948 276.055 L 434.347 275.825 434.347 256.994 L 434.347 238.163 415.044 238.163 C 400.324 238.163,395.675 237.908,395.460 237.092 C 395.305 236.503,394.523 232.551,393.723 228.311 C 386.995 192.664,362.425 157.596,330.501 138.074 C 307.491 124.004,283.282 117.297,256.153 117.476 C 249.792 117.518,241.094 118.062,236.825 118.686 M238.163 197.469 L 238.163 238.163 197.401 238.163 L 156.640 238.163 157.235 235.378 C 162.202 212.145,177.318 188.900,196.748 174.616 C 202.290 170.542,215.027 163.645,221.229 161.360 C 225.340 159.846,235.456 156.972,237.092 156.853 C 237.934 156.793,238.163 165.445,238.163 197.469 M282.159 158.111 C 298.353 162.218,315.595 171.746,327.565 183.205 C 341.075 196.138,352.916 217.281,356.785 235.378 L 357.380 238.163 316.619 238.163 L 275.857 238.163 275.857 197.469 C 275.857 175.088,276.091 156.776,276.376 156.776 C 276.662 156.776,279.264 157.377,282.159 158.111 M238.163 316.551 C 238.163 338.932,238.020 357.244,237.846 357.244 C 236.411 357.244,219.525 351.733,215.460 349.937 C 188.416 337.994,165.857 311.756,158.874 284.125 C 158.142 281.227,157.344 278.181,157.102 277.357 C 156.686 275.944,159.004 275.857,197.412 275.857 L 238.163 275.857 238.163 316.551 M356.918 277.357 C 356.676 278.181,355.878 281.227,355.146 284.125 C 348.020 312.324,324.610 339.118,297.236 350.406 C 291.994 352.568,288.177 353.820,277.357 356.929 C 275.944 357.335,275.857 355.012,275.857 316.608 L 275.857 275.857 316.608 275.857 C 355.016 275.857,357.334 275.944,356.918 277.357 " stroke="none" fill-rule="evenodd" fill="black"></path></svg>