<svg width="136mm" height="120mm" version="1.1" viewBox="0 0 600 529.4117647058824" xmlns="http://www.w3.org/2000/svg"><path d="M343.537 58.684 L 343.537 79.673 323.404 79.673 C 310.291 79.673,303.272 79.368,303.272 78.799 C 303.272 78.319,305.007 74.471,307.127 70.249 C 309.247 66.028,310.982 62.182,310.982 61.704 C 310.982 60.881,278.512 44.152,278.001 44.712 C 277.536 45.221,233.022 134.499,233.022 134.923 C 233.022 135.346,265.159 151.636,265.993 151.636 C 266.231 151.636,270.284 143.926,275.001 134.502 L 283.576 117.368 313.556 117.368 L 343.537 117.368 343.537 122.726 L 343.537 128.083 303.272 168.342 C 281.126 190.483,263.007 208.981,263.007 209.448 C 263.007 209.915,268.115 215.447,274.358 221.742 C 284.316 231.782,285.252 232.959,281.985 231.332 C 279.937 230.311,278.149 229.599,278.010 229.750 C 277.541 230.263,233.022 319.541,233.022 319.970 C 233.022 320.393,265.159 336.683,265.993 336.683 C 266.231 336.683,270.284 328.973,275.001 319.549 L 283.576 302.415 313.556 302.415 L 343.537 302.415 343.537 307.773 L 343.537 313.131 303.272 353.389 C 281.126 375.531,263.007 394.039,263.007 394.518 C 263.007 395.641,288.026 420.640,289.150 420.640 C 289.618 420.640,306.382 404.255,326.403 384.230 L 362.805 347.820 399.429 384.437 L 436.054 421.054 449.335 407.793 L 462.616 394.533 421.924 353.807 L 381.231 313.082 381.231 307.756 L 381.231 302.430 428.564 302.208 L 475.897 301.987 476.128 283.361 L 476.359 264.735 429.009 264.513 L 381.660 264.292 381.430 243.517 L 381.201 222.742 362.369 222.742 L 343.537 222.742 343.537 243.731 L 343.537 264.720 323.404 264.720 C 310.291 264.720,303.272 264.416,303.272 263.846 C 303.272 263.366,305.007 259.518,307.127 255.297 C 309.247 251.075,310.982 247.230,310.982 246.753 C 310.982 246.276,306.295 243.536,300.566 240.665 L 290.150 235.443 326.477 199.108 L 362.805 162.773 399.429 199.390 L 436.054 236.007 449.335 222.746 L 462.616 209.485 421.924 168.760 L 381.231 128.035 381.231 122.709 L 381.231 117.382 428.564 117.161 L 475.897 116.940 476.128 98.314 L 476.359 79.688 429.009 79.466 L 381.660 79.245 381.430 58.470 L 381.201 37.695 362.369 37.695 L 343.537 37.695 343.537 58.684 M61.657 175.270 C 49.314 212.299,39.548 242.899,39.954 243.269 C 40.361 243.639,48.326 246.473,57.654 249.567 C 74.463 255.141,74.621 255.175,75.311 253.317 C 75.693 252.285,79.814 239.972,84.468 225.955 L 92.930 200.468 114.573 200.468 L 136.215 200.468 136.215 220.602 L 136.215 240.737 103.184 306.795 C 85.017 343.127,70.271 372.960,70.415 373.091 C 70.770 373.413,103.583 389.799,103.872 389.798 C 103.998 389.798,115.468 367.053,129.362 339.253 C 143.255 311.453,154.821 288.708,155.063 288.708 C 155.305 288.708,166.870 311.453,180.764 339.253 C 194.657 367.053,206.128 389.798,206.253 389.798 C 206.542 389.799,239.355 373.413,239.710 373.091 C 239.855 372.960,225.109 343.127,206.941 306.795 L 173.910 240.737 173.910 220.602 L 173.910 200.468 206.036 200.468 L 238.163 200.468 238.163 181.620 L 238.163 162.773 206.036 162.773 L 173.910 162.773 173.910 136.215 L 173.910 109.658 155.063 109.658 L 136.215 109.658 136.215 136.215 L 136.215 162.773 121.223 162.773 C 109.653 162.773,106.231 162.524,106.231 161.682 C 106.231 161.082,109.309 151.374,113.072 140.109 C 116.834 128.844,119.779 119.493,119.616 119.331 C 119.093 118.807,86.186 107.944,85.124 107.944 C 84.528 107.944,74.704 136.131,61.657 175.270 " stroke="none" fill-rule="evenodd" fill="black"></path></svg>