<svg width="136mm" height="120mm" version="1.1" viewBox="0 0 600 529.4117647058824" xmlns="http://www.w3.org/2000/svg"><path d="M343.537 58.684 L 343.537 79.673 323.404 79.673 C 310.314 79.673,303.272 79.368,303.272 78.801 C 303.272 78.321,305.165 74.155,307.480 69.543 L 311.688 61.158 295.052 52.853 C 285.902 48.286,278.227 44.548,277.995 44.548 C 277.440 44.548,233.022 133.385,233.022 134.494 C 233.022 135.203,264.630 151.636,265.993 151.636 C 266.231 151.636,270.284 143.926,275.001 134.502 L 283.576 117.368 313.556 117.368 L 343.537 117.368 343.537 123.234 L 343.537 129.100 303.272 168.724 C 281.126 190.518,263.007 208.787,263.007 209.323 C 263.007 209.859,268.115 215.447,274.358 221.742 C 284.375 231.842,285.268 232.967,281.952 231.315 C 278.907 229.797,278.053 229.660,277.446 230.590 C 275.681 233.296,233.022 318.658,233.022 319.485 C 233.022 320.231,264.561 336.683,265.993 336.683 C 266.231 336.683,270.284 328.973,275.001 319.549 L 283.576 302.415 313.556 302.415 L 343.537 302.415 343.537 308.323 L 343.537 314.232 303.272 353.853 C 281.126 375.645,263.007 393.906,263.007 394.432 C 263.007 394.957,268.889 401.261,276.078 408.439 L 289.150 421.490 325.978 384.655 L 362.805 347.820 399.654 384.662 L 436.503 421.503 449.560 408.425 C 456.742 401.232,462.618 394.964,462.618 394.497 C 462.618 394.029,444.499 375.531,422.353 353.389 L 382.088 313.131 382.088 307.773 L 382.088 302.415 429.207 302.415 L 476.325 302.415 476.325 283.568 L 476.325 264.720 429.207 264.720 L 382.088 264.720 382.088 243.731 L 382.088 222.742 362.812 222.742 L 343.537 222.742 343.537 243.731 L 343.537 264.720 323.404 264.720 C 310.314 264.720,303.272 264.415,303.272 263.848 C 303.272 263.368,305.166 259.200,307.482 254.586 L 311.692 246.196 300.913 240.827 L 290.135 235.458 326.470 199.116 L 362.805 162.773 399.654 199.614 L 436.503 236.456 449.560 223.378 C 456.742 216.185,462.618 209.917,462.618 209.450 C 462.618 208.982,444.499 190.483,422.353 168.342 L 382.088 128.083 382.088 122.726 L 382.088 117.368 429.207 117.368 L 476.325 117.368 476.325 98.520 L 476.325 79.673 429.207 79.673 L 382.088 79.673 382.088 58.684 L 382.088 37.695 362.812 37.695 L 343.537 37.695 343.537 58.684 M61.385 175.229 L 38.722 243.212 56.669 249.202 C 74.429 255.129,74.623 255.172,75.311 253.316 C 75.693 252.285,79.814 239.972,84.468 225.955 L 92.930 200.468 114.573 200.468 L 136.215 200.468 136.215 220.602 L 136.215 240.737 103.184 306.795 C 85.017 343.127,70.271 372.960,70.415 373.091 C 70.770 373.413,103.583 389.798,103.872 389.798 C 103.998 389.799,115.468 367.053,129.362 339.253 C 143.255 311.453,154.821 288.708,155.063 288.708 C 155.305 288.708,166.870 311.453,180.764 339.253 C 194.657 367.053,206.128 389.798,206.253 389.798 C 206.542 389.798,239.355 373.413,239.710 373.091 C 239.855 372.960,225.109 343.127,206.941 306.795 L 173.910 240.737 173.910 220.602 L 173.910 200.468 206.036 200.468 L 238.163 200.468 238.163 181.620 L 238.163 162.773 206.036 162.773 L 173.910 162.773 173.910 136.215 L 173.910 109.658 155.075 109.658 L 136.240 109.658 136.014 136.001 L 135.787 162.345 121.009 162.579 C 109.351 162.764,106.231 162.579,106.231 161.702 C 106.231 161.091,109.309 151.374,113.072 140.109 C 116.834 128.844,119.779 119.493,119.615 119.330 C 119.452 119.166,111.382 116.381,101.683 113.139 L 84.048 107.246 61.385 175.229 " stroke="none" fill-rule="evenodd" fill="black"></path></svg>