<svg width="136mm" height="120mm" version="1.1" viewBox="0 0 600 529.4117647058824" xmlns="http://www.w3.org/2000/svg"><path d="M283.667 37.783 C 274.062 41.002,266.069 43.771,265.904 43.935 C 265.740 44.100,269.647 56.346,274.586 71.148 C 279.526 85.951,283.568 98.165,283.568 98.291 C 283.568 98.417,272.581 98.520,259.152 98.520 L 234.736 98.520 234.736 117.368 L 234.736 136.215 278.428 136.215 C 302.458 136.215,322.119 136.506,322.119 136.861 C 322.119 137.216,302.651 195.909,278.856 267.290 C 255.061 338.671,235.593 397.333,235.593 397.649 C 235.593 398.246,268.676 409.503,270.432 409.503 C 270.998 409.503,291.160 350.317,316.979 272.859 L 362.527 136.215 372.568 136.215 C 381.534 136.215,383.064 136.442,386.864 138.336 C 395.318 142.548,404.556 153.628,411.935 168.405 C 425.838 196.242,432.907 238.704,430.109 277.571 C 426.354 329.752,409.249 371.004,386.372 383.056 C 382.611 385.037,381.906 385.093,357.458 385.359 L 332.400 385.631 332.400 404.500 L 332.400 423.370 360.028 423.011 C 385.966 422.674,388.024 422.532,393.654 420.691 C 406.143 416.606,415.567 410.409,425.560 399.709 C 446.495 377.291,460.901 340.345,466.638 294.356 C 468.395 280.267,468.624 243.560,467.038 230.024 C 461.633 183.873,448.417 148.003,427.947 123.923 C 414.871 108.542,396.050 98.520,380.238 98.520 C 377.486 98.520,375.235 98.417,375.235 98.289 C 375.235 98.162,378.897 87.086,383.373 73.676 C 387.850 60.266,391.512 48.833,391.512 48.270 C 391.512 47.257,356.804 35.235,356.118 36.011 C 355.924 36.230,351.150 50.288,345.510 67.251 L 335.255 98.092 329.403 98.092 L 323.550 98.092 312.586 65.212 C 306.555 47.128,301.511 32.241,301.376 32.131 C 301.241 32.020,293.272 34.563,283.667 37.783 M37.695 83.100 L 37.695 101.947 50.974 101.947 L 64.252 101.947 64.252 139.642 L 64.252 177.337 50.974 177.337 L 37.695 177.337 37.695 196.184 L 37.695 215.032 128.505 215.032 L 219.315 215.032 219.315 196.184 L 219.315 177.337 207.750 177.337 L 196.184 177.337 196.184 139.642 L 196.184 101.947 207.750 101.947 L 219.315 101.947 219.315 83.100 L 219.315 64.252 128.505 64.252 L 37.695 64.252 37.695 83.100 M158.489 139.642 L 158.489 177.337 130.218 177.337 L 101.947 177.337 101.947 139.642 L 101.947 101.947 130.218 101.947 L 158.489 101.947 158.489 139.642 M38.266 234.450 C 37.952 234.764,37.695 243.246,37.695 253.298 L 37.695 271.574 50.974 271.574 L 64.252 271.574 64.252 309.697 L 64.252 347.820 50.957 347.820 L 37.661 347.820 37.892 366.453 L 38.123 385.087 128.719 385.305 L 219.315 385.523 219.315 366.696 L 219.315 347.870 207.964 347.631 L 196.613 347.392 196.613 309.697 L 196.613 272.002 207.964 271.763 L 219.315 271.524 219.315 252.702 L 219.315 233.879 129.076 233.879 C 79.445 233.879,38.580 234.136,38.266 234.450 M158.489 309.709 L 158.489 347.844 130.433 347.618 L 102.376 347.392 102.152 310.554 C 102.029 290.293,102.113 273.234,102.339 272.645 C 102.656 271.818,109.114 271.574,130.620 271.574 L 158.489 271.574 158.489 309.709 " stroke="none" fill-rule="evenodd" fill="black"></path></svg>