<svg width="136mm" height="120mm" version="1.1" viewBox="0 0 600 529.4117647058824" xmlns="http://www.w3.org/2000/svg"><path d="M283.667 37.783 C 274.062 41.002,266.069 43.771,265.904 43.935 C 265.740 44.100,269.647 56.346,274.586 71.148 C 279.526 85.951,283.568 98.165,283.568 98.291 C 283.568 98.417,272.380 98.520,258.707 98.520 L 233.846 98.520 234.077 117.154 L 234.307 135.787 278.213 136.009 C 302.362 136.131,322.119 136.518,322.119 136.869 C 322.119 137.220,302.651 195.909,278.856 267.290 C 255.061 338.671,235.593 397.333,235.593 397.649 C 235.593 398.246,268.676 409.503,270.432 409.503 C 270.998 409.503,291.160 350.317,316.979 272.859 L 362.527 136.215 372.608 136.215 C 381.783 136.215,383.067 136.414,386.887 138.422 C 402.349 146.552,417.126 172.580,424.434 204.557 C 435.203 251.681,431.263 308.775,414.595 347.135 C 407.438 363.607,395.997 378.347,386.800 382.945 C 382.568 385.061,382.213 385.090,357.458 385.359 L 332.400 385.631 332.400 404.492 L 332.400 423.353 360.028 423.013 C 386.054 422.693,388.005 422.559,393.654 420.702 C 406.153 416.591,415.668 410.338,425.422 399.824 C 446.399 377.212,460.529 341.291,466.606 295.133 C 468.649 279.613,468.664 242.223,466.634 226.242 C 457.909 157.556,429.558 109.855,391.705 100.174 C 388.150 99.264,382.989 98.520,380.238 98.520 C 377.486 98.520,375.235 98.417,375.235 98.289 C 375.235 98.162,378.897 87.086,383.373 73.676 C 387.850 60.266,391.512 48.833,391.512 48.270 C 391.512 47.257,356.804 35.235,356.118 36.011 C 355.924 36.230,351.150 50.288,345.510 67.251 L 335.255 98.092 329.403 98.092 L 323.550 98.092 312.586 65.212 C 306.555 47.128,301.511 32.241,301.376 32.131 C 301.241 32.020,293.272 34.563,283.667 37.783 M37.695 83.100 L 37.695 101.947 50.974 101.947 L 64.252 101.947 64.252 139.642 L 64.252 177.337 50.974 177.337 L 37.695 177.337 37.695 196.184 L 37.695 215.032 128.505 215.032 L 219.315 215.032 219.315 196.184 L 219.315 177.337 208.178 177.337 L 197.041 177.337 197.041 139.642 L 197.041 101.947 208.178 101.947 L 219.315 101.947 219.315 83.100 L 219.315 64.252 128.505 64.252 L 37.695 64.252 37.695 83.100 M158.489 139.642 L 158.489 177.337 130.218 177.337 L 101.947 177.337 101.947 139.642 L 101.947 101.947 130.218 101.947 L 158.489 101.947 158.489 139.642 M37.893 252.941 L 38.123 272.002 51.188 272.239 L 64.252 272.475 64.252 310.148 L 64.252 347.820 50.974 347.820 L 37.695 347.820 37.695 366.668 L 37.695 385.515 128.505 385.515 L 219.315 385.515 219.315 366.668 L 219.315 347.820 208.178 347.820 L 197.041 347.820 197.041 310.125 L 197.041 272.431 208.178 272.431 L 219.315 272.431 219.315 253.155 L 219.315 233.879 128.489 233.879 L 37.662 233.879 37.893 252.941 M158.489 310.137 L 158.489 347.844 130.433 347.618 L 102.376 347.392 102.152 309.911 L 101.929 272.431 130.209 272.431 L 158.489 272.431 158.489 310.137 " stroke="none" fill-rule="evenodd" fill="black"></path></svg>