<svg width="136mm" height="120mm" version="1.1" viewBox="0 0 600 529.4117647058824" xmlns="http://www.w3.org/2000/svg"><path d="M283.667 37.783 C 274.062 41.002,266.069 43.771,265.904 43.935 C 265.740 44.100,269.647 56.346,274.586 71.148 C 279.526 85.951,283.568 98.165,283.568 98.291 C 283.568 98.417,272.380 98.520,258.707 98.520 L 233.846 98.520 234.077 117.154 L 234.307 135.787 278.213 136.009 C 302.362 136.131,322.119 136.518,322.119 136.869 C 322.119 137.220,302.651 195.909,278.856 267.290 C 255.061 338.671,235.593 397.333,235.593 397.649 C 235.593 398.246,268.676 409.503,270.432 409.503 C 270.998 409.503,291.160 350.317,316.979 272.859 L 362.527 136.215 372.522 136.234 C 384.025 136.256,386.821 137.155,393.585 143.010 C 411.510 158.523,424.031 189.905,429.329 232.594 C 430.692 243.577,430.680 278.014,429.310 289.136 C 425.415 320.740,417.488 345.885,405.654 364.179 C 400.511 372.128,392.322 380.301,386.800 382.996 C 382.603 385.044,382.010 385.092,357.458 385.359 L 332.400 385.631 332.400 404.492 L 332.400 423.353 360.028 423.013 C 386.050 422.693,388.006 422.559,393.654 420.702 C 406.230 416.568,415.221 410.675,425.352 399.926 C 453.684 369.864,469.962 314.146,468.355 252.727 C 466.832 194.540,450.386 146.185,422.753 118.653 C 410.301 106.246,396.919 99.654,382.302 98.727 C 378.415 98.481,375.235 98.229,375.235 98.169 C 375.235 98.108,378.897 87.086,383.373 73.676 C 387.850 60.266,391.512 48.837,391.512 48.277 C 391.512 46.979,357.327 35.539,356.404 36.528 C 356.025 36.934,351.091 50.952,345.440 67.679 L 335.166 98.092 329.358 98.092 L 323.550 98.092 312.586 65.212 C 306.555 47.128,301.511 32.241,301.376 32.131 C 301.241 32.020,293.272 34.563,283.667 37.783 M37.695 83.100 L 37.695 101.947 50.974 101.947 L 64.252 101.947 64.252 139.642 L 64.252 177.337 50.974 177.337 L 37.695 177.337 37.695 196.184 L 37.695 215.032 128.505 215.032 L 219.315 215.032 219.315 196.184 L 219.315 177.337 208.178 177.337 L 197.041 177.337 197.041 139.642 L 197.041 101.947 208.178 101.947 L 219.315 101.947 219.315 83.100 L 219.315 64.252 128.505 64.252 L 37.695 64.252 37.695 83.100 M158.489 139.642 L 158.489 177.337 130.218 177.337 L 101.947 177.337 101.947 139.642 L 101.947 101.947 130.218 101.947 L 158.489 101.947 158.489 139.642 M37.695 253.155 L 37.695 272.431 50.974 272.431 L 64.252 272.431 64.252 310.125 L 64.252 347.820 50.974 347.820 L 37.695 347.820 37.695 366.668 L 37.695 385.515 128.505 385.515 L 219.315 385.515 219.315 366.668 L 219.315 347.820 208.178 347.820 L 197.041 347.820 197.041 310.125 L 197.041 272.431 208.178 272.431 L 219.315 272.431 219.315 253.155 L 219.315 233.879 128.505 233.879 L 37.695 233.879 37.695 253.155 M158.489 310.125 L 158.489 347.820 130.218 347.820 L 101.947 347.820 101.947 310.125 L 101.947 272.431 130.218 272.431 L 158.489 272.431 158.489 310.125 " stroke="none" fill-rule="evenodd" fill="black"></path></svg>