<svg width="136mm" height="120mm" version="1.1" viewBox="0 0 600 529.4117647058824" xmlns="http://www.w3.org/2000/svg"><path d="M238.163 84.813 L 238.163 131.932 191.044 131.932 L 143.926 131.932 143.926 151.208 L 143.926 170.483 191.044 170.483 L 238.163 170.483 238.163 227.025 L 238.163 283.568 181.175 283.568 L 124.188 283.568 124.419 302.201 L 124.650 320.834 181.406 321.054 L 238.163 321.275 238.163 368.387 L 238.163 415.500 257.010 415.500 L 275.857 415.500 275.857 368.387 L 275.857 321.275 332.614 321.054 L 389.370 320.834 389.601 302.201 L 389.832 283.568 332.845 283.568 L 275.857 283.568 275.857 227.025 L 275.857 170.483 322.976 170.483 L 370.094 170.483 370.094 151.208 L 370.094 131.932 322.976 131.932 L 275.857 131.932 275.857 84.813 L 275.857 37.695 257.010 37.695 L 238.163 37.695 238.163 84.813 " stroke="none" fill-rule="evenodd" fill="black"></path></svg>