<svg width="136mm" height="120mm" version="1.1" viewBox="0 0 600 529.4117647058824" xmlns="http://www.w3.org/2000/svg"><path d="M117.368 90.810 L 117.368 109.658 175.624 109.658 L 233.880 109.658 162.774 251.869 C 123.665 330.085,91.667 394.242,91.667 394.439 C 91.667 394.910,246.107 343.496,246.939 342.748 C 247.414 342.322,239.648 317.371,236.068 307.821 C 235.809 307.130,224.578 310.508,201.169 318.316 C 182.185 324.648,166.550 329.830,166.425 329.829 C 166.300 329.829,179.499 303.229,195.756 270.717 L 225.315 211.605 271.148 211.605 L 316.981 211.605 272.003 301.557 C 247.265 351.030,227.025 391.895,227.025 392.367 C 227.025 392.935,261.451 393.225,328.973 393.225 C 385.044 393.225,430.920 393.033,430.920 392.799 C 430.920 392.565,420.242 371.012,407.191 344.905 L 383.461 297.437 366.496 305.928 L 349.531 314.418 359.384 334.111 C 364.804 344.941,369.238 354.192,369.238 354.667 C 369.238 355.235,355.326 355.531,328.544 355.531 C 306.163 355.531,287.851 355.337,287.851 355.101 C 287.851 354.864,308.091 314.193,332.828 264.720 C 357.565 215.248,377.805 174.577,377.805 174.340 C 377.805 174.104,347.735 173.910,310.984 173.910 L 244.162 173.910 260.219 141.784 L 276.275 109.658 344.174 109.658 L 412.073 109.658 412.073 90.810 L 412.073 71.963 264.720 71.963 L 117.368 71.963 117.368 90.810 M226.744 245.725 L 213.197 259.293 232.319 277.817 L 251.441 296.342 264.717 283.101 L 277.993 269.860 259.143 251.009 L 240.292 232.158 226.744 245.725 " stroke="none" fill-rule="evenodd" fill="black"></path></svg>