<svg width="136mm" height="120mm" version="1.1" viewBox="0 0 600 529.4117647058824" xmlns="http://www.w3.org/2000/svg"><path d="M246.730 30.897 C 225.735 32.542,205.661 39.592,187.013 51.870 C 177.140 58.370,160.392 75.080,153.971 84.835 C 138.048 109.027,130.996 135.380,132.885 163.630 C 136.152 212.503,168.613 255.443,214.766 271.947 C 221.605 274.392,233.820 277.571,236.378 277.571 C 238.162 277.571,238.163 277.576,238.163 319.977 C 238.163 343.301,237.874 362.384,237.520 362.384 C 237.167 362.384,227.505 359.260,216.049 355.441 C 204.593 351.623,195.104 348.635,194.963 348.802 C 194.384 349.484,183.179 383.929,183.459 384.166 C 183.927 384.564,274.487 414.643,275.215 414.643 C 275.568 414.643,275.857 383.802,275.857 346.107 L 275.857 277.571 277.642 277.571 C 280.200 277.571,292.415 274.392,299.254 271.947 C 334.558 259.322,362.661 230.766,374.654 195.328 C 378.560 183.786,380.384 174.866,381.135 163.630 C 383.022 135.407,375.882 108.769,360.017 84.840 C 354.379 76.336,340.459 61.650,332.421 55.725 C 307.032 37.010,277.588 28.478,246.730 30.897 M238.163 103.232 L 238.163 136.215 205.163 136.215 L 172.164 136.215 172.727 133.859 C 173.917 128.874,178.272 117.794,180.852 113.189 C 191.510 94.162,208.261 80.072,228.863 72.808 C 232.800 71.419,236.503 70.276,237.092 70.266 C 237.930 70.253,238.163 77.408,238.163 103.232 M284.280 72.502 C 305.320 79.716,322.391 93.923,333.171 113.189 C 335.749 117.796,340.105 128.881,341.293 133.859 L 341.856 136.215 308.857 136.215 L 275.857 136.215 275.857 103.232 C 275.857 80.148,276.136 70.249,276.784 70.249 C 277.294 70.249,280.667 71.263,284.280 72.502 M238.163 206.866 C 238.163 232.838,237.936 239.751,237.092 239.488 C 217.008 233.216,207.567 227.879,195.880 216.192 C 185.575 205.887,176.841 191.221,173.635 178.836 L 172.359 173.910 205.261 173.910 L 238.163 173.910 238.163 206.866 M340.588 177.979 C 333.011 206.533,309.768 229.875,280.355 238.469 L 275.857 239.784 275.857 206.847 L 275.857 173.910 308.763 173.910 L 341.668 173.910 340.588 177.979 M132.138 279.506 L 119.086 292.578 147.352 320.834 L 175.618 349.090 188.902 335.826 L 202.187 322.563 174.132 294.498 C 158.702 279.063,145.877 266.434,145.634 266.434 C 145.390 266.434,139.317 272.316,132.138 279.506 M328.547 294.702 L 300.289 322.970 313.552 336.255 L 326.816 349.539 355.306 321.059 L 383.796 292.578 370.745 279.506 C 363.566 272.316,357.493 266.434,357.249 266.434 C 357.005 266.434,344.089 279.154,328.547 294.702 " stroke="none" fill-rule="evenodd" fill="black"></path></svg>