<svg width="136mm" height="120mm" version="1.1" viewBox="0 0 600 529.4117647058824" xmlns="http://www.w3.org/2000/svg"><path d="M247.158 30.507 C 215.585 33.759,190.867 45.376,169.152 67.168 C 154.288 82.084,145.046 96.772,138.879 115.280 C 134.051 129.772,133.213 135.753,133.251 155.491 C 133.289 175.149,134.204 180.916,139.839 197.041 C 151.028 229.055,177.099 256.449,209.075 269.790 C 217.375 273.253,232.380 277.571,236.115 277.571 L 238.163 277.571 238.163 319.977 C 238.163 343.301,237.874 362.384,237.520 362.384 C 237.167 362.384,227.505 359.260,216.049 355.441 C 204.593 351.623,195.104 348.635,194.963 348.802 C 194.384 349.484,183.179 383.929,183.459 384.166 C 183.927 384.564,274.487 414.643,275.215 414.643 C 275.568 414.643,275.857 383.802,275.857 346.107 L 275.857 277.571 277.905 277.571 C 279.032 277.571,283.641 276.613,288.149 275.441 C 328.639 264.921,361.763 234.230,374.746 195.204 C 379.924 179.642,380.803 173.751,380.803 154.634 C 380.803 135.935,379.979 130.172,375.220 115.611 C 372.107 106.082,365.357 92.498,359.502 83.978 C 353.250 74.877,338.789 60.204,329.796 53.836 C 314.311 42.870,296.295 35.185,279.020 32.177 C 271.259 30.825,253.235 29.881,247.158 30.507 M238.163 103.232 L 238.163 136.215 205.180 136.215 C 187.039 136.215,172.197 136.042,172.197 135.831 C 172.197 135.620,173.200 132.247,174.426 128.335 C 181.286 106.453,197.282 87.777,218.194 77.233 C 223.458 74.579,235.037 70.313,237.092 70.271 C 237.930 70.254,238.163 77.405,238.163 103.232 M283.263 72.062 C 309.046 80.018,331.017 101.742,339.274 127.444 C 340.676 131.808,341.823 135.567,341.823 135.797 C 341.823 136.027,326.981 136.215,308.840 136.215 L 275.857 136.215 275.857 103.232 C 275.857 84.404,276.186 70.249,276.624 70.249 C 277.045 70.249,280.033 71.065,283.263 72.062 M238.163 206.847 L 238.163 239.784 233.965 238.537 C 214.266 232.687,198.638 221.910,187.036 206.173 C 182.171 199.575,176.385 188.154,174.010 180.459 C 173.013 177.229,172.197 174.434,172.197 174.248 C 172.197 174.062,187.039 173.910,205.180 173.910 L 238.163 173.910 238.163 206.847 M341.293 176.266 C 340.294 180.446,336.999 188.747,333.897 194.899 C 325.888 210.780,311.847 224.510,295.133 232.803 C 290.826 234.940,287.037 236.331,276.928 239.488 C 276.084 239.751,275.857 232.838,275.857 206.866 L 275.857 173.910 308.857 173.910 L 341.856 173.910 341.293 176.266 M132.138 279.506 L 119.086 292.578 147.352 320.834 L 175.618 349.090 188.902 335.826 L 202.187 322.563 174.132 294.498 C 158.702 279.063,145.877 266.434,145.634 266.434 C 145.390 266.434,139.317 272.316,132.138 279.506 M328.547 294.702 L 300.289 322.970 313.552 336.255 L 326.816 349.539 354.880 321.484 C 370.316 306.054,382.945 293.037,382.945 292.557 C 382.945 291.706,358.067 266.434,357.229 266.434 C 356.996 266.434,344.089 279.154,328.547 294.702 " stroke="none" fill-rule="evenodd" fill="black"></path></svg>