<svg width="136mm" height="120mm" version="1.1" viewBox="0 0 600 529.4117647058824" xmlns="http://www.w3.org/2000/svg"><path d="M246.730 30.897 C 205.770 34.107,168.012 58.415,147.790 94.594 C 133.987 119.289,129.108 152.015,134.985 180.471 C 143.116 219.834,172.091 254.639,209.425 269.888 C 217.593 273.224,232.849 277.571,236.390 277.571 C 238.158 277.571,238.163 277.672,238.163 319.977 C 238.163 343.301,237.874 362.384,237.520 362.384 C 237.167 362.384,227.505 359.260,216.049 355.441 C 204.593 351.623,195.104 348.635,194.963 348.802 C 194.384 349.484,183.179 383.929,183.459 384.166 C 183.927 384.564,274.487 414.643,275.215 414.643 C 275.568 414.643,275.857 383.802,275.857 346.107 L 275.857 277.571 277.630 277.571 C 281.171 277.571,296.427 273.224,304.595 269.888 C 331.179 259.030,353.834 238.286,367.538 212.255 C 372.091 203.606,377.888 187.184,379.473 178.442 C 387.359 134.954,372.980 92.210,340.454 62.449 C 315.673 39.775,281.263 28.190,246.730 30.897 M238.163 103.232 L 238.163 136.215 205.163 136.215 L 172.164 136.215 172.718 133.859 C 178.313 110.051,195.794 88.518,219.039 76.802 C 223.604 74.502,235.190 70.310,237.092 70.271 C 237.930 70.254,238.163 77.405,238.163 103.232 M287.918 73.776 C 312.184 83.050,332.013 103.979,339.606 128.335 C 340.826 132.247,341.823 135.620,341.823 135.831 C 341.823 136.042,326.981 136.215,308.840 136.215 L 275.857 136.215 275.857 103.164 L 275.857 70.113 278.642 70.704 C 280.173 71.029,284.347 72.412,287.918 73.776 M238.163 206.866 C 238.163 232.838,237.936 239.751,237.092 239.488 C 226.983 236.331,223.194 234.940,218.887 232.803 C 202.261 224.554,188.090 210.697,180.123 194.899 C 177.021 188.747,173.726 180.446,172.727 176.266 L 172.164 173.910 205.163 173.910 L 238.163 173.910 238.163 206.866 M341.316 176.266 C 341.019 177.562,339.550 181.737,338.052 185.545 C 327.692 211.879,307.281 230.601,280.355 238.469 L 275.857 239.784 275.857 206.847 L 275.857 173.910 308.857 173.910 L 341.856 173.910 341.316 176.266 M132.138 279.506 L 119.086 292.578 147.352 320.834 L 175.618 349.090 188.902 335.826 L 202.187 322.563 174.132 294.498 C 158.702 279.063,145.877 266.434,145.634 266.434 C 145.390 266.434,139.317 272.316,132.138 279.506 M328.547 294.702 L 300.289 322.970 313.552 336.255 L 326.816 349.539 355.306 321.059 L 383.796 292.578 370.745 279.506 C 363.566 272.316,357.493 266.434,357.249 266.434 C 357.005 266.434,344.089 279.154,328.547 294.702 " stroke="none" fill-rule="evenodd" fill="black"></path></svg>