<svg width="136mm" height="120mm" version="1.1" viewBox="0 0 600 529.4117647058824" xmlns="http://www.w3.org/2000/svg"><path d="M238.163 49.551 L 238.163 61.408 231.952 62.509 C 205.964 67.117,186.535 77.670,176.572 92.590 C 169.223 103.595,168.255 118.141,174.097 129.785 C 181.979 145.495,202.669 158.513,227.226 163.214 C 231.121 163.960,235.202 164.758,236.296 164.988 C 240.190 165.807,237.501 167.446,230.473 168.536 C 215.362 170.881,197.869 178.262,187.085 186.843 C 173.097 197.974,167.252 214.361,171.750 229.832 C 177.178 248.505,199.755 263.890,230.024 269.543 L 238.163 271.063 238.163 277.315 L 238.163 283.568 191.044 283.568 L 143.926 283.568 143.926 302.415 L 143.926 321.262 186.971 321.262 L 230.016 321.262 193.393 357.893 L 156.769 394.524 170.055 407.789 L 183.340 421.054 220.175 384.227 L 257.010 347.399 293.845 384.227 L 330.680 421.054 343.965 407.789 L 357.251 394.524 320.627 357.893 L 284.004 321.262 327.049 321.262 L 370.094 321.262 370.094 302.415 L 370.094 283.568 322.976 283.568 L 275.857 283.568 275.857 277.315 L 275.857 271.063 283.996 269.543 C 317.809 263.228,340.878 245.399,343.442 223.599 C 346.039 201.521,329.954 182.771,299.762 172.678 C 294.769 171.009,287.472 169.145,283.547 168.536 C 276.519 167.446,273.830 165.807,277.724 164.988 C 278.818 164.758,282.899 163.960,286.794 163.214 C 311.351 158.513,332.041 145.495,339.923 129.785 C 343.880 121.898,344.784 111.213,342.235 102.446 C 336.714 83.454,313.576 68.096,282.068 62.509 L 275.857 61.408 275.857 49.551 L 275.857 37.695 257.010 37.695 L 238.163 37.695 238.163 49.551 M238.163 113.608 L 238.163 126.982 235.218 126.430 C 226.232 124.744,213.879 119.369,210.225 115.555 C 207.931 113.161,207.916 113.080,209.481 111.352 C 212.790 107.695,230.236 100.485,236.235 100.295 C 238.154 100.234,238.163 100.292,238.163 113.608 M283.872 101.575 C 290.322 103.219,302.293 108.869,304.506 111.315 C 306.114 113.092,306.105 113.144,303.795 115.555 C 300.141 119.369,287.788 124.744,278.802 126.430 L 275.857 126.982 275.857 113.608 C 275.857 98.393,275.209 99.367,283.872 101.575 M238.163 218.887 C 238.163 230.507,237.991 232.166,236.787 232.166 C 231.128 232.166,212.805 224.721,209.514 221.085 C 207.906 219.308,207.915 219.256,210.243 216.825 C 212.933 214.018,221.937 209.644,229.810 207.319 C 238.843 204.653,238.163 203.711,238.163 218.887 M283.823 207.272 C 291.982 209.605,300.993 213.919,303.777 216.825 C 306.105 219.256,306.114 219.308,304.506 221.085 C 301.215 224.721,282.892 232.166,277.233 232.166 C 276.029 232.166,275.857 230.507,275.857 218.887 C 275.857 208.817,276.117 205.608,276.931 205.608 C 277.521 205.608,280.623 206.357,283.823 207.272 " stroke="none" fill-rule="evenodd" fill="black"></path></svg>