<svg width="136mm" height="120mm" version="1.1" viewBox="0 0 600 529.4117647058824" xmlns="http://www.w3.org/2000/svg"><path d="M238.163 49.531 L 238.163 61.368 229.810 62.929 C 201.685 68.185,180.219 81.885,173.142 99.096 C 170.604 105.270,169.756 116.362,171.368 122.306 C 176.637 141.735,198.442 157.704,227.226 163.214 C 231.121 163.960,235.202 164.758,236.296 164.988 C 240.089 165.786,237.589 167.393,230.826 168.505 C 205.394 172.687,183.011 185.756,175.019 201.090 C 171.235 208.350,170.212 213.102,170.647 221.392 C 170.974 227.625,171.485 229.565,174.316 235.326 C 179.937 246.760,191.442 256.476,206.897 262.837 C 213.370 265.501,227.512 269.399,234.093 270.334 L 238.163 270.912 238.163 277.240 L 238.163 283.568 191.044 283.568 L 143.926 283.568 143.926 302.415 L 143.926 321.262 186.971 321.262 L 230.016 321.262 193.393 357.893 L 156.769 394.524 170.055 407.789 L 183.340 421.054 220.175 384.227 L 257.010 347.399 293.845 384.227 L 330.680 421.054 343.965 407.789 L 357.251 394.524 320.627 357.893 L 284.004 321.262 327.049 321.262 L 370.094 321.262 370.094 302.415 L 370.094 283.568 322.976 283.568 L 275.857 283.568 275.857 277.240 L 275.857 270.912 279.927 270.334 C 286.508 269.399,300.650 265.501,307.123 262.837 C 322.578 256.476,334.083 246.760,339.704 235.326 C 342.535 229.565,343.046 227.625,343.373 221.392 C 343.808 213.102,342.785 208.350,339.001 201.090 C 331.009 185.756,308.626 172.687,283.194 168.505 C 276.431 167.393,273.931 165.786,277.724 164.988 C 278.818 164.758,282.899 163.960,286.794 163.214 C 306.120 159.515,324.467 149.930,333.869 138.623 C 341.292 129.696,343.950 122.000,343.377 111.093 C 343.065 105.145,342.492 102.866,339.982 97.588 C 331.673 80.118,311.100 67.657,282.068 62.509 L 275.857 61.408 275.857 49.551 L 275.857 37.695 257.010 37.695 L 238.163 37.695 238.163 49.531 M238.163 113.608 L 238.163 126.982 235.218 126.430 C 226.232 124.744,213.879 119.369,210.225 115.555 C 207.931 113.161,207.916 113.080,209.481 111.352 C 212.790 107.695,230.236 100.485,236.235 100.295 C 238.154 100.234,238.163 100.292,238.163 113.608 M283.872 101.575 C 290.306 103.215,302.291 108.867,304.493 111.300 C 306.075 113.048,306.074 113.121,304.475 114.909 C 302.200 117.452,297.678 120.158,292.135 122.292 C 287.127 124.220,278.361 126.792,276.796 126.792 C 276.156 126.792,275.857 122.570,275.857 113.513 C 275.857 98.406,275.211 99.368,283.872 101.575 M238.163 218.887 C 238.163 230.507,237.991 232.166,236.787 232.166 C 231.128 232.166,212.805 224.721,209.514 221.085 C 207.906 219.308,207.915 219.256,210.243 216.825 C 212.933 214.018,221.937 209.644,229.810 207.319 C 238.843 204.653,238.163 203.711,238.163 218.887 M283.823 207.272 C 291.982 209.605,300.993 213.919,303.777 216.825 C 306.105 219.256,306.114 219.308,304.506 221.085 C 301.215 224.721,282.892 232.166,277.233 232.166 C 276.029 232.166,275.857 230.507,275.857 218.887 C 275.857 208.817,276.117 205.608,276.931 205.608 C 277.521 205.608,280.623 206.357,283.823 207.272 " stroke="none" fill-rule="evenodd" fill="black"></path></svg>