<svg width="136mm" height="120mm" version="1.1" viewBox="0 0 600 529.4117647058824" xmlns="http://www.w3.org/2000/svg"><path d="M238.163 49.601 L 238.163 61.507 232.380 62.491 C 200.789 67.867,178.842 82.268,172.175 101.994 C 170.650 106.507,170.370 108.946,170.645 115.342 C 170.944 122.288,171.342 123.896,174.179 129.637 C 178.099 137.568,184.834 144.639,193.775 150.212 C 204.627 156.976,220.812 162.683,233.303 164.151 C 237.100 164.597,238.182 165.036,237.987 166.051 C 237.811 166.965,235.889 167.683,231.737 168.387 C 203.745 173.134,182.608 185.708,174.275 202.569 C 171.333 208.522,170.946 210.065,170.645 217.058 C 170.251 226.221,172.098 233.001,177.002 240.389 C 186.246 254.315,207.641 265.781,231.952 269.836 L 238.163 270.872 238.163 277.220 L 238.163 283.568 191.044 283.568 L 143.926 283.568 143.926 302.415 L 143.926 321.262 186.971 321.262 L 230.016 321.262 193.393 357.893 L 156.769 394.524 170.055 407.789 L 183.340 421.054 220.175 384.227 L 257.010 347.399 293.845 384.227 L 330.680 421.054 343.965 407.789 L 357.251 394.524 320.627 357.893 L 284.004 321.262 327.049 321.262 L 370.094 321.262 370.094 302.415 L 370.094 283.568 322.976 283.568 L 275.857 283.568 275.857 277.244 L 275.857 270.920 283.964 269.460 C 313.614 264.121,335.423 249.406,341.845 230.406 C 344.498 222.556,344.006 211.590,340.676 204.356 C 332.530 186.658,310.817 173.131,283.139 168.512 C 274.140 167.010,273.892 165.368,282.448 163.935 C 310.225 159.285,331.475 146.564,339.881 129.555 C 342.675 123.903,343.077 122.268,343.375 115.342 C 343.878 103.647,340.617 95.112,332.125 85.900 C 322.218 75.152,304.352 66.678,283.588 62.879 L 275.857 61.465 275.857 49.580 L 275.857 37.695 257.010 37.695 L 238.163 37.695 238.163 49.601 M238.163 113.513 C 238.163 120.816,237.873 126.785,237.520 126.777 C 237.167 126.769,233.997 126.014,230.477 125.100 C 222.833 123.115,212.794 118.316,209.947 115.286 C 207.938 113.146,207.928 113.067,209.495 111.336 C 212.891 107.584,230.114 100.469,236.235 100.290 C 238.154 100.234,238.163 100.297,238.163 113.513 M285.284 102.006 C 292.250 103.936,302.247 108.818,304.633 111.455 C 306.074 113.047,306.039 113.213,303.777 115.574 C 300.850 118.629,291.364 123.068,283.264 125.172 C 279.897 126.047,276.853 126.769,276.500 126.777 C 276.147 126.785,275.857 120.816,275.857 113.513 C 275.857 98.193,275.056 99.171,285.284 102.006 M238.163 218.887 C 238.163 233.997,238.804 233.043,230.148 230.804 C 223.774 229.156,213.832 224.553,210.324 221.626 L 207.759 219.485 209.468 217.576 C 213.625 212.931,229.217 206.217,237.092 205.681 C 237.905 205.625,238.163 208.796,238.163 218.887 M283.926 207.357 C 292.220 209.530,300.683 213.592,303.858 216.924 L 306.270 219.456 303.700 221.577 C 299.730 224.853,292.049 228.519,285.152 230.431 C 275.076 233.223,275.857 234.193,275.857 218.887 C 275.857 211.583,276.170 205.608,276.553 205.608 C 276.935 205.608,280.253 206.395,283.926 207.357 " stroke="none" fill-rule="evenodd" fill="black"></path></svg>