<svg width="136mm" height="120mm" version="1.1" viewBox="0 0 600 529.4117647058824" xmlns="http://www.w3.org/2000/svg"><path d="M239.448 87.946 C 206.756 93.030,180.366 106.025,158.590 127.762 C 138.940 147.377,124.969 173.203,120.284 198.573 C 119.526 202.678,118.764 206.518,118.592 207.107 C 118.349 207.936,111.795 208.178,89.552 208.178 L 60.826 208.178 60.826 227.025 L 60.826 245.873 89.954 245.873 C 118.711 245.873,119.081 245.895,119.081 247.622 C 119.081 250.897,121.772 262.413,124.361 270.217 C 141.124 320.752,184.527 357.036,237.734 364.994 C 246.548 366.312,267.472 366.312,276.286 364.994 C 317.652 358.807,353.058 335.787,375.512 300.480 C 384.318 286.635,392.790 264.372,394.583 250.371 L 395.159 245.873 424.177 245.873 L 453.194 245.873 453.194 227.037 L 453.194 208.201 424.307 207.975 L 395.419 207.750 394.412 201.753 C 391.761 185.970,384.223 166.412,375.512 152.715 C 354.947 120.379,322.948 98.002,285.709 89.916 C 278.820 88.420,273.704 88.006,259.580 87.801 C 249.921 87.661,240.861 87.726,239.448 87.946 M238.163 167.485 L 238.163 208.178 197.401 208.178 L 156.640 208.178 157.235 205.394 C 164.870 169.678,192.949 139.361,227.983 129.005 C 231.933 127.838,235.839 126.862,236.663 126.837 C 238.071 126.794,238.163 129.283,238.163 167.485 M285.742 128.967 C 306.182 134.890,325.726 148.430,338.402 165.450 C 346.544 176.381,354.086 192.770,356.785 205.394 L 357.380 208.178 316.619 208.178 L 275.857 208.178 275.857 167.485 C 275.857 133.342,276.049 126.792,277.047 126.792 C 277.701 126.792,281.614 127.771,285.742 128.967 M238.163 286.138 C 238.163 325.435,238.123 326.403,236.498 326.403 C 233.328 326.403,216.634 320.435,209.669 316.811 C 183.746 303.325,164.354 277.927,157.303 248.229 L 156.743 245.873 197.453 245.873 L 238.163 245.873 238.163 286.138 M356.717 248.229 C 349.308 279.437,328.452 305.584,300.535 318.667 C 293.958 321.749,279.827 326.403,277.047 326.403 C 276.049 326.403,275.857 319.916,275.857 286.138 L 275.857 245.873 316.567 245.873 L 357.277 245.873 356.717 248.229 " stroke="none" fill-rule="evenodd" fill="black"></path></svg>