<svg width="136mm" height="120mm" version="1.1" viewBox="0 0 600 529.4117647058824" xmlns="http://www.w3.org/2000/svg"><path d="M245.445 87.436 C 187.151 92.052,137.470 133.494,122.180 190.258 C 120.985 194.695,119.749 200.350,119.434 202.824 L 118.861 207.321 89.843 207.321 L 60.826 207.321 60.826 226.597 L 60.826 245.873 89.843 245.873 L 118.861 245.873 119.434 250.371 C 119.749 252.844,120.985 258.499,122.180 262.937 C 139.588 327.562,200.627 370.837,267.242 365.780 C 321.305 361.677,367.058 327.918,387.169 277.293 C 390.167 269.745,393.795 256.576,394.586 250.371 L 395.159 245.873 424.177 245.873 L 453.194 245.873 453.194 226.597 L 453.194 207.321 424.177 207.321 L 395.159 207.321 394.586 202.824 C 392.536 186.732,383.716 164.796,372.784 148.592 C 344.475 106.635,296.141 83.422,245.445 87.436 M238.163 167.056 L 238.163 207.321 197.453 207.321 L 156.743 207.321 157.303 204.965 C 162.098 184.768,170.915 168.940,185.367 154.583 C 194.298 145.711,201.662 140.351,212.061 135.156 C 219.323 131.527,232.254 127.183,236.663 126.891 C 238.071 126.798,238.163 129.242,238.163 167.056 M287.627 129.453 C 322.408 140.519,348.077 168.575,356.717 204.965 L 357.277 207.321 316.567 207.321 L 275.857 207.321 275.857 167.056 C 275.857 127.443,275.885 126.792,277.561 126.792 C 278.497 126.792,283.027 127.989,287.627 129.453 M238.163 286.233 L 238.163 326.593 234.950 326.028 C 229.502 325.070,218.327 321.169,212.061 318.039 C 191.776 307.904,173.277 289.024,164.531 269.532 C 162.190 264.315,158.632 253.829,157.303 248.229 L 156.743 245.873 197.453 245.873 L 238.163 245.873 238.163 286.233 M356.717 248.229 C 349.633 278.068,330.418 303.262,304.448 316.763 C 297.247 320.507,280.873 326.403,277.676 326.403 L 275.857 326.403 275.857 286.138 L 275.857 245.873 316.567 245.873 L 357.277 245.873 356.717 248.229 " stroke="none" fill-rule="evenodd" fill="black"></path></svg>