<svg width="136mm" height="120mm" version="1.1" viewBox="0 0 600 529.4117647058824" xmlns="http://www.w3.org/2000/svg"><path d="M239.448 87.946 C 206.487 93.072,180.268 106.041,158.147 128.162 C 136.661 149.648,125.511 171.653,118.578 206.251 L 118.192 208.178 89.064 208.178 L 59.936 208.178 60.166 226.811 L 60.397 245.445 89.436 245.873 L 118.474 246.301 120.103 254.440 C 127.622 291.989,151.328 325.671,184.637 346.131 C 199.430 355.217,219.107 362.208,237.734 364.994 C 246.548 366.312,267.472 366.312,276.286 364.994 C 294.847 362.218,314.492 355.232,329.400 346.108 C 362.577 325.801,386.407 291.942,393.917 254.440 L 395.546 246.301 424.584 245.873 L 453.623 245.445 453.854 226.811 L 454.084 208.178 424.956 208.178 L 395.828 208.178 395.442 206.251 C 393.173 194.930,390.833 185.875,388.515 179.450 C 372.104 133.959,333.430 100.278,285.709 89.916 C 278.820 88.420,273.704 88.006,259.580 87.801 C 249.921 87.661,240.861 87.726,239.448 87.946 M238.163 167.485 L 238.163 208.178 197.469 208.178 C 175.088 208.178,156.776 207.945,156.776 207.659 C 156.776 203.867,162.238 188.232,166.549 179.683 C 173.216 166.463,187.497 150.341,199.611 142.359 C 210.291 135.322,230.066 127.038,236.663 126.837 C 238.071 126.794,238.163 129.283,238.163 167.485 M289.993 130.329 C 303.943 134.956,316.230 142.451,327.311 153.091 C 341.376 166.597,351.223 183.395,355.909 201.877 C 356.643 204.772,357.244 207.374,357.244 207.659 C 357.244 207.945,338.932 208.178,316.551 208.178 L 275.857 208.178 275.857 167.390 L 275.857 126.601 279.070 127.186 C 280.837 127.508,285.752 128.922,289.993 130.329 M238.163 286.138 C 238.163 324.255,238.081 326.403,236.629 326.403 C 233.298 326.403,217.616 320.880,210.393 317.163 C 185.187 304.192,165.134 279.295,158.494 252.727 C 157.964 250.606,157.335 248.197,157.096 247.372 C 156.686 245.959,159.007 245.873,197.412 245.873 L 238.163 245.873 238.163 286.138 M356.924 247.372 C 356.685 248.197,356.056 250.606,355.526 252.727 C 348.890 279.279,328.819 304.200,303.627 317.163 C 296.404 320.880,280.722 326.403,277.391 326.403 C 275.939 326.403,275.857 324.255,275.857 286.138 L 275.857 245.873 316.608 245.873 C 355.013 245.873,357.334 245.959,356.924 247.372 " stroke="none" fill-rule="evenodd" fill="black"></path></svg>