<svg width="136mm" height="120mm" version="1.1" viewBox="0 0 600 529.4117647058824" xmlns="http://www.w3.org/2000/svg"><path d="M371.309 152.786 C 352.609 208.931,337.118 255.202,336.885 255.609 C 336.652 256.016,324.174 244.067,309.157 229.055 L 281.853 201.761 268.364 215.250 L 254.876 228.738 289.032 262.902 L 323.188 297.067 307.964 342.790 C 299.590 367.938,292.578 388.954,292.381 389.492 C 292.158 390.100,298.790 392.729,309.903 396.438 L 327.784 402.405 339.637 366.760 C 346.155 347.155,351.839 330.172,352.267 329.019 C 353.001 327.043,355.185 329.062,390.487 364.358 C 411.080 384.947,428.308 401.792,428.772 401.792 C 429.236 401.792,435.500 395.916,442.693 388.734 L 455.772 375.676 411.220 331.118 L 366.667 286.560 403.917 174.818 C 424.404 113.360,441.035 62.945,440.874 62.783 C 440.713 62.622,432.645 59.838,422.945 56.597 L 405.309 50.703 371.309 152.786 M291.007 75.609 C 279.899 79.320,273.309 81.937,273.532 82.548 C 273.730 83.087,281.326 105.888,290.412 133.217 C 299.499 160.546,307.003 182.996,307.088 183.106 C 307.331 183.421,341.321 172.045,342.028 171.412 C 342.376 171.100,335.052 148.076,325.751 120.247 L 308.840 69.650 291.007 75.609 M56.542 139.642 L 56.542 158.489 65.929 158.489 L 75.316 158.489 75.590 220.814 C 75.856 281.398,75.915 283.319,77.689 289.565 C 80.692 300.133,82.966 305.417,87.508 312.375 C 108.621 344.717,148.519 356.259,183.200 340.058 C 204.157 330.268,218.018 313.432,224.714 289.632 C 226.489 283.323,226.549 281.374,226.824 220.814 L 227.108 158.489 236.491 158.489 L 245.873 158.489 245.873 139.642 L 245.873 120.795 151.208 120.795 L 56.542 120.795 56.542 139.642 M188.465 218.673 C 188.455 283.894,188.538 282.622,183.707 290.866 C 182.449 293.014,179.695 296.495,177.588 298.602 C 170.126 306.064,162.155 309.295,151.208 309.295 C 139.983 309.295,132.537 306.261,124.820 298.544 C 118.629 292.353,115.050 285.156,113.964 276.714 C 113.509 273.180,113.125 245.134,113.111 214.389 L 113.084 158.489 150.779 158.489 L 188.474 158.489 188.465 218.673 " stroke="none" fill-rule="evenodd" fill="black"></path></svg>