<svg width="136mm" height="120mm" version="1.1" viewBox="0 0 600 529.4117647058824" xmlns="http://www.w3.org/2000/svg"><path d="M371.308 152.788 C 352.608 208.932,337.118 255.202,336.885 255.609 C 336.652 256.016,324.174 244.067,309.157 229.055 L 281.853 201.761 268.364 215.250 L 254.876 228.738 289.032 262.902 L 323.188 297.067 307.964 342.790 C 299.590 367.938,292.578 388.954,292.381 389.492 C 292.158 390.100,298.790 392.729,309.903 396.438 L 327.784 402.405 339.637 366.760 C 346.155 347.155,351.839 330.172,352.267 329.019 C 353.001 327.043,355.185 329.062,390.487 364.358 C 411.080 384.947,428.308 401.792,428.772 401.792 C 429.887 401.792,454.908 376.791,454.908 375.677 C 454.908 375.201,435.006 354.908,410.681 330.580 L 366.454 286.347 403.742 174.488 L 441.029 62.629 423.168 56.669 L 405.308 50.708 371.308 152.788 M291.007 75.609 C 279.899 79.320,273.309 81.937,273.532 82.548 C 273.730 83.087,281.326 105.888,290.412 133.217 C 299.499 160.546,307.003 182.996,307.088 183.106 C 307.331 183.421,341.321 172.045,342.028 171.412 C 342.376 171.100,335.052 148.076,325.751 120.247 L 308.840 69.650 291.007 75.609 M56.542 139.642 L 56.542 158.489 65.919 158.489 L 75.297 158.489 75.608 220.386 C 75.912 280.997,75.958 282.432,77.812 289.473 C 83.867 312.463,98.548 330.404,119.202 340.052 C 144.434 351.839,172.893 349.175,195.713 332.890 C 211.649 321.519,223.328 301.800,226.105 281.578 C 226.686 277.347,227.025 253.426,227.025 216.683 L 227.025 158.489 236.449 158.489 L 245.873 158.489 245.873 139.642 L 245.873 120.795 151.208 120.795 L 56.542 120.795 56.542 139.642 M189.304 214.389 C 189.290 245.134,188.906 273.180,188.451 276.714 C 187.365 285.156,183.786 292.353,177.595 298.544 C 169.878 306.261,162.432 309.295,151.208 309.295 C 140.143 309.295,132.276 306.068,124.763 298.448 C 122.577 296.230,119.805 292.738,118.604 290.688 C 113.892 282.648,113.960 283.708,113.950 218.673 L 113.941 158.489 151.636 158.489 L 189.331 158.489 189.304 214.389 " stroke="none" fill-rule="evenodd" fill="black"></path></svg>