<svg width="136mm" height="120mm" version="1.1" viewBox="0 0 600 529.4117647058824" xmlns="http://www.w3.org/2000/svg"><path d="M283.568 84.813 L 283.568 131.932 266.417 131.932 L 249.267 131.932 249.497 150.993 L 249.728 170.055 266.648 170.287 L 283.568 170.520 283.568 227.044 L 283.568 283.568 266.434 283.568 L 249.300 283.568 249.300 302.415 L 249.300 321.262 266.434 321.262 L 283.568 321.262 283.568 368.381 L 283.568 415.500 302.415 415.500 L 321.262 415.500 321.262 368.381 L 321.262 321.262 362.812 321.262 L 404.362 321.262 404.362 368.381 L 404.362 415.500 423.210 415.500 L 442.057 415.500 442.057 368.381 L 442.057 321.262 459.191 321.262 L 476.325 321.262 476.325 302.415 L 476.325 283.568 459.191 283.568 L 442.057 283.568 442.057 227.044 L 442.057 170.520 458.977 170.287 L 475.897 170.055 476.127 150.993 L 476.358 131.932 459.208 131.932 L 442.057 131.932 442.057 84.813 L 442.057 37.695 423.210 37.695 L 404.362 37.695 404.362 84.813 L 404.362 131.932 362.812 131.932 L 321.262 131.932 321.262 84.813 L 321.262 37.695 302.415 37.695 L 283.568 37.695 283.568 84.813 M68.250 113.656 C 67.936 113.970,67.679 122.438,67.679 132.474 L 67.679 150.721 58.470 150.964 L 49.260 151.208 49.260 170.055 L 49.260 188.902 58.470 189.146 L 67.679 189.389 67.680 219.558 C 67.681 253.786,68.487 265.152,71.629 275.230 C 82.340 309.590,115.578 331.679,151.084 328.034 C 179.183 325.149,203.140 307.184,213.828 280.984 C 218.757 268.901,219.292 263.402,219.304 224.670 L 219.315 189.331 228.739 189.331 L 238.163 189.331 238.163 170.055 L 238.163 150.779 228.739 150.779 L 219.315 150.779 219.315 131.932 L 219.315 113.084 200.468 113.084 L 181.620 113.084 181.620 131.932 L 181.620 150.779 143.926 150.779 L 106.231 150.779 106.231 131.932 L 106.231 113.084 87.526 113.084 C 77.239 113.084,68.565 113.341,68.250 113.656 M404.362 227.025 L 404.362 283.568 362.812 283.568 L 321.262 283.568 321.262 227.025 L 321.262 170.483 362.812 170.483 L 404.362 170.483 404.362 227.025 M181.603 221.243 C 181.594 238.794,181.234 255.586,180.805 258.557 C 178.742 272.825,168.304 284.903,154.308 289.222 C 148.764 290.932,137.965 290.853,132.526 289.062 C 122.602 285.795,114.007 278.088,109.370 268.301 L 106.659 262.579 106.410 225.955 L 106.161 189.331 143.891 189.331 L 181.620 189.331 181.603 221.243 " stroke="none" fill-rule="evenodd" fill="black"></path></svg>