<svg width="136mm" height="120mm" version="1.1" viewBox="0 0 600 529.4117647058824" xmlns="http://www.w3.org/2000/svg"><path d="M283.568 84.813 L 283.568 131.932 266.434 131.932 L 249.300 131.932 249.300 150.779 L 249.300 169.627 266.434 169.627 L 283.568 169.627 283.568 226.597 L 283.568 283.568 266.434 283.568 L 249.300 283.568 249.300 302.415 L 249.300 321.262 266.434 321.262 L 283.568 321.262 283.568 368.381 L 283.568 415.500 302.415 415.500 L 321.262 415.500 321.262 368.381 L 321.262 321.262 362.812 321.262 L 404.362 321.262 404.362 368.381 L 404.362 415.500 423.210 415.500 L 442.057 415.500 442.057 368.399 L 442.057 321.299 458.977 321.066 L 475.897 320.834 476.128 302.201 L 476.359 283.568 459.208 283.568 L 442.057 283.568 442.057 226.597 L 442.057 169.627 459.208 169.627 L 476.359 169.627 476.128 150.993 L 475.897 132.360 458.977 132.128 L 442.057 131.896 442.057 84.795 L 442.057 37.695 423.210 37.695 L 404.362 37.695 404.362 84.813 L 404.362 131.932 362.812 131.932 L 321.262 131.932 321.262 84.813 L 321.262 37.695 302.415 37.695 L 283.568 37.695 283.568 84.813 M68.536 131.915 L 68.536 150.779 59.112 150.779 L 49.689 150.779 49.689 169.598 L 49.689 188.416 58.898 188.659 L 68.108 188.902 68.556 228.311 L 69.005 267.719 71.441 275.001 C 78.758 296.881,92.499 312.460,112.722 321.803 C 125.984 327.930,144.612 329.968,159.158 326.882 C 184.042 321.603,204.952 303.743,214.234 279.839 C 218.766 268.168,219.315 262.074,219.315 223.486 L 219.315 188.474 228.739 188.474 L 238.163 188.474 238.163 169.627 L 238.163 150.779 228.739 150.779 L 219.315 150.779 219.315 131.932 L 219.315 113.084 200.468 113.084 L 181.620 113.084 181.620 131.932 L 181.620 150.779 143.942 150.779 L 106.264 150.779 106.033 132.146 L 105.802 113.513 87.169 113.282 L 68.536 113.051 68.536 131.915 M404.362 226.597 L 404.362 283.568 362.812 283.568 L 321.262 283.568 321.262 226.597 L 321.262 169.627 362.812 169.627 L 404.362 169.627 404.362 226.597 M181.419 222.314 C 181.562 243.197,181.310 257.352,180.749 260.064 C 178.354 271.639,170.486 281.786,159.842 287.025 C 154.609 289.602,152.950 289.982,145.707 290.269 C 138.959 290.536,136.523 290.264,132.003 288.737 C 121.958 285.344,114.070 278.222,109.370 268.301 L 106.659 262.579 106.411 225.517 L 106.162 188.456 143.677 188.679 L 181.192 188.902 181.419 222.314 " stroke="none" fill-rule="evenodd" fill="black"></path></svg>