<svg width="136mm" height="120mm" version="1.1" viewBox="0 0 600 529.4117647058824" xmlns="http://www.w3.org/2000/svg"><path d="M283.568 84.813 L 283.568 131.932 266.417 131.932 L 249.267 131.932 249.497 150.993 L 249.728 170.055 266.648 170.287 L 283.568 170.520 283.568 227.044 L 283.568 283.568 266.434 283.568 L 249.300 283.568 249.300 302.415 L 249.300 321.262 266.434 321.262 L 283.568 321.262 283.568 368.381 L 283.568 415.500 302.415 415.500 L 321.262 415.500 321.262 368.381 L 321.262 321.262 362.812 321.262 L 404.362 321.262 404.362 368.381 L 404.362 415.500 423.210 415.500 L 442.057 415.500 442.057 368.381 L 442.057 321.262 459.191 321.262 L 476.325 321.262 476.325 302.415 L 476.325 283.568 459.191 283.568 L 442.057 283.568 442.057 227.025 L 442.057 170.483 459.191 170.483 L 476.325 170.483 476.325 151.208 L 476.325 131.932 459.191 131.932 L 442.057 131.932 442.057 84.813 L 442.057 37.695 423.210 37.695 L 404.362 37.695 404.362 84.813 L 404.362 131.932 362.812 131.932 L 321.262 131.932 321.262 84.813 L 321.262 37.695 302.415 37.695 L 283.568 37.695 283.568 84.813 M68.267 113.639 C 67.944 113.962,67.679 122.451,67.679 132.503 L 67.679 150.779 58.239 150.779 L 48.799 150.779 49.030 169.841 L 49.260 188.902 58.393 189.145 L 67.525 189.387 67.904 226.411 C 68.257 260.967,68.407 263.921,70.152 270.717 C 83.145 321.321,140.632 344.256,184.509 316.340 C 198.382 307.514,209.259 293.828,214.703 278.351 C 218.853 266.550,219.253 261.823,219.285 224.241 L 219.315 189.331 228.739 189.331 L 238.163 189.331 238.163 170.055 L 238.163 150.779 228.739 150.779 L 219.315 150.779 219.315 131.932 L 219.315 113.084 200.468 113.084 L 181.620 113.084 181.620 131.932 L 181.620 150.779 143.942 150.779 L 106.264 150.779 106.033 132.146 L 105.802 113.513 87.328 113.282 C 77.167 113.156,68.590 113.316,68.267 113.639 M404.362 227.025 L 404.362 283.568 362.812 283.568 L 321.262 283.568 321.262 227.025 L 321.262 170.483 362.812 170.483 L 404.362 170.483 404.362 227.025 M181.592 220.814 C 181.577 238.130,181.229 254.897,180.820 258.074 C 179.767 266.238,175.999 273.752,169.995 279.661 C 162.099 287.432,154.742 290.433,143.497 290.470 C 126.933 290.524,113.157 280.460,107.643 264.275 C 106.421 260.690,106.231 255.364,106.231 224.731 L 106.231 189.331 143.926 189.331 L 181.620 189.331 181.592 220.814 " stroke="none" fill-rule="evenodd" fill="black"></path></svg>