<svg width="136mm" height="120mm" version="1.1" viewBox="0 0 600 529.4117647058824" xmlns="http://www.w3.org/2000/svg"><path d="M238.163 43.920 C 238.163 71.082,232.687 112.414,225.574 138.937 L 223.337 147.282 220.938 145.575 C 214.481 140.977,206.860 129.888,203.221 119.796 C 201.052 113.780,200.942 112.629,200.634 92.738 L 200.312 71.963 181.459 71.963 L 162.606 71.963 162.980 94.451 C 163.329 115.414,163.508 117.521,165.630 125.507 C 168.301 135.558,173.863 147.524,179.971 156.360 C 185.187 163.905,197.162 175.618,204.454 180.308 L 209.726 183.698 205.991 191.012 C 203.936 195.035,201.929 198.804,201.531 199.388 C 200.983 200.191,195.538 198.691,179.215 193.241 C 159.973 186.816,157.545 186.188,156.888 187.467 C 154.813 191.508,145.550 221.274,146.185 221.860 C 146.592 222.235,153.191 224.602,160.851 227.121 C 168.512 229.640,174.650 232.088,174.492 232.561 C 173.958 234.164,163.808 240.543,158.823 242.408 C 156.095 243.429,151.723 244.531,149.108 244.857 L 144.354 245.451 144.123 264.479 L 143.893 283.506 149.692 282.995 C 163.861 281.745,180.142 275.546,192.757 266.599 C 195.820 264.427,202.305 258.789,207.167 254.070 L 216.008 245.491 288.295 269.583 L 360.581 293.674 366.554 275.778 C 369.839 265.936,372.268 257.738,371.953 257.562 C 371.637 257.385,341.502 247.306,304.985 235.162 C 268.468 223.019,238.437 212.950,238.248 212.787 C 238.060 212.624,239.602 208.828,241.675 204.351 L 245.445 196.212 255.725 196.197 C 282.293 196.158,304.130 187.407,322.756 169.333 C 334.999 157.453,343.945 142.115,348.430 125.316 C 350.505 117.543,350.693 115.318,351.040 94.451 L 351.414 71.963 332.561 71.963 L 313.708 71.963 313.358 92.738 C 313.025 112.494,312.898 113.821,310.770 119.797 C 305.135 135.624,293.632 147.933,278.560 154.266 C 273.117 156.553,260.899 159.237,260.004 158.342 C 259.782 158.120,261.123 151.991,262.983 144.721 C 270.553 115.138,275.857 74.136,275.857 45.206 L 275.857 37.695 257.010 37.695 L 238.163 37.695 238.163 43.920 M181.620 302.415 L 181.620 321.262 253.155 321.262 L 324.689 321.262 324.689 302.415 L 324.689 283.568 253.155 283.568 L 181.620 283.568 181.620 302.415 M106.231 377.807 L 106.231 396.657 253.369 396.440 L 400.507 396.224 400.738 377.591 L 400.969 358.957 253.600 358.957 L 106.231 358.957 106.231 377.807 " stroke="none" fill-rule="evenodd" fill="black"></path></svg>