<svg width="136mm" height="120mm" version="1.1" viewBox="0 0 600 529.4117647058824" xmlns="http://www.w3.org/2000/svg"><path d="M238.158 40.479 C 238.156 42.010,237.771 50.588,237.303 59.541 C 235.883 86.733,232.807 108.434,226.892 132.990 C 222.901 149.563,223.555 149.165,215.227 140.077 C 209.052 133.338,203.483 122.719,201.746 114.369 C 200.884 110.228,200.493 102.741,200.483 90.168 L 200.468 71.963 181.547 71.963 L 162.626 71.963 162.977 94.451 C 163.307 115.532,163.472 117.476,165.624 125.507 C 168.379 135.786,175.583 150.831,181.418 158.489 C 186.950 165.750,197.846 176.091,204.457 180.357 L 209.704 183.742 205.980 191.034 C 203.931 195.045,201.929 198.804,201.531 199.388 C 200.983 200.191,195.499 198.678,179.063 193.190 C 167.105 189.197,157.251 186.021,157.166 186.131 C 156.026 187.606,145.650 221.364,146.185 221.853 C 146.592 222.225,153.092 224.557,160.631 227.036 C 168.170 229.515,174.510 231.694,174.719 231.878 C 175.415 232.490,171.834 235.455,166.628 238.578 C 161.652 241.563,153.758 244.335,147.138 245.423 L 143.926 245.951 143.926 264.783 L 143.926 283.615 149.708 283.051 C 164.273 281.630,179.485 275.886,192.094 267.045 C 195.522 264.642,202.305 258.809,207.167 254.083 L 216.008 245.491 288.295 269.583 L 360.581 293.674 366.554 275.778 C 369.839 265.936,372.268 257.738,371.953 257.562 C 371.637 257.385,341.502 247.306,304.985 235.162 C 268.468 223.019,238.441 212.954,238.257 212.796 C 238.074 212.638,239.588 208.880,241.623 204.445 L 245.322 196.381 258.662 195.964 C 269.304 195.631,273.697 195.100,280.379 193.339 C 289.559 190.919,302.113 185.325,309.866 180.198 C 316.365 175.902,327.265 165.493,332.602 158.489 C 338.437 150.831,345.641 135.786,348.396 125.507 C 350.548 117.476,350.713 115.532,351.043 94.451 L 351.394 71.963 332.473 71.963 L 313.552 71.963 313.537 90.168 C 313.520 111.711,312.613 117.213,307.363 127.646 C 302.573 137.165,292.812 147.223,283.825 151.901 C 277.549 155.167,266.500 158.489,261.913 158.489 C 259.698 158.489,259.448 158.248,259.918 156.562 C 269.494 122.234,275.782 79.100,275.840 47.333 L 275.857 37.695 257.010 37.695 L 238.163 37.695 238.158 40.479 M181.620 302.415 L 181.620 321.262 253.155 321.262 L 324.689 321.262 324.689 302.415 L 324.689 283.568 253.155 283.568 L 181.620 283.568 181.620 302.415 M106.231 377.805 L 106.231 396.652 253.583 396.652 L 400.936 396.652 400.936 377.805 L 400.936 358.957 253.583 358.957 L 106.231 358.957 106.231 377.805 " stroke="none" fill-rule="evenodd" fill="black"></path></svg>