<svg width="136mm" height="120mm" version="1.1" viewBox="0 0 600 529.4117647058824" xmlns="http://www.w3.org/2000/svg"><path d="M238.163 39.711 C 238.163 40.820,237.765 49.590,237.280 59.201 C 235.880 86.900,232.552 110.164,226.483 134.683 C 222.864 149.302,223.438 149.038,215.083 139.920 C 208.831 133.096,203.555 122.985,201.752 114.369 C 200.882 110.208,200.493 102.801,200.483 90.168 L 200.468 71.963 181.620 71.963 L 162.773 71.963 162.779 91.453 C 162.783 102.172,163.184 113.448,163.670 116.511 C 165.663 129.063,171.262 143.369,178.589 154.634 C 182.906 161.271,198.657 176.909,204.883 180.740 L 209.718 183.714 205.987 191.020 C 203.934 195.038,201.929 198.804,201.531 199.388 C 200.983 200.191,195.499 198.678,179.063 193.190 C 167.105 189.197,157.251 186.021,157.166 186.131 C 156.026 187.606,145.650 221.364,146.185 221.853 C 146.592 222.225,153.092 224.557,160.631 227.036 C 168.170 229.515,174.529 231.713,174.761 231.920 C 175.561 232.634,169.189 237.312,163.429 240.241 C 158.413 242.791,155.436 243.688,145.853 245.534 L 143.926 245.906 143.926 264.798 L 143.926 283.691 148.852 283.156 C 162.155 281.712,174.411 277.786,185.091 271.549 C 193.037 266.908,198.731 262.358,207.974 253.264 L 215.909 245.458 288.245 269.566 L 360.581 293.674 366.554 275.778 C 369.839 265.936,372.268 257.738,371.953 257.562 C 371.637 257.385,341.502 247.306,304.985 235.162 C 268.468 223.019,238.441 212.954,238.257 212.795 C 238.073 212.637,239.588 208.834,241.624 204.346 L 245.325 196.184 255.959 196.184 C 275.756 196.184,293.444 190.947,309.924 180.206 C 316.348 176.019,331.161 161.162,335.420 154.634 C 342.780 143.355,348.256 129.294,350.376 116.227 C 350.848 113.320,351.237 102.172,351.241 91.453 L 351.247 71.963 332.400 71.963 L 313.552 71.963 313.537 90.168 C 313.520 111.682,312.616 117.187,307.385 127.648 C 302.648 137.124,292.883 147.173,283.825 151.895 C 277.553 155.165,266.506 158.489,261.913 158.489 C 259.698 158.489,259.448 158.248,259.918 156.562 C 269.494 122.234,275.782 79.100,275.840 47.333 L 275.857 37.695 257.010 37.695 L 238.163 37.695 238.163 39.711 M181.620 302.420 L 181.620 321.272 253.369 321.053 L 325.118 320.834 325.349 302.201 L 325.579 283.568 253.600 283.568 L 181.620 283.568 181.620 302.420 M105.374 377.805 L 105.374 396.652 253.155 396.652 L 400.936 396.652 400.936 377.805 L 400.936 358.957 253.155 358.957 L 105.374 358.957 105.374 377.805 " stroke="none" fill-rule="evenodd" fill="black"></path></svg>