<svg width="136mm" height="120mm" version="1.1" viewBox="0 0 600 529.4117647058824" xmlns="http://www.w3.org/2000/svg"><path d="M124.007 49.310 C 115.173 53.764,107.944 57.602,107.944 57.838 C 107.944 58.455,126.155 94.827,150.928 143.688 L 172.308 185.857 188.744 177.646 C 197.783 173.130,205.297 169.328,205.441 169.198 C 206.008 168.684,141.734 41.125,140.930 41.167 C 140.457 41.192,132.842 44.857,124.007 49.310 M340.274 105.041 C 322.698 140.197,308.435 169.068,308.579 169.198 C 308.723 169.328,316.240 173.131,325.284 177.649 L 341.727 185.864 373.901 122.158 C 391.597 87.120,406.076 58.217,406.076 57.930 C 406.076 57.372,373.986 41.122,372.885 41.122 C 372.525 41.122,357.850 69.886,340.274 105.041 M56.740 226.811 L 56.971 245.445 147.567 245.663 L 238.163 245.881 238.163 330.690 L 238.163 415.500 257.010 415.500 L 275.857 415.500 275.857 330.690 L 275.857 245.881 366.453 245.663 L 457.049 245.445 457.280 226.811 L 457.511 208.178 257.010 208.178 L 56.509 208.178 56.740 226.811 " stroke="none" fill-rule="evenodd" fill="black"></path></svg>