<svg width="136mm" height="120mm" version="1.1" viewBox="0 0 600 529.4117647058824" xmlns="http://www.w3.org/2000/svg"><path d="M125.078 103.649 L 125.078 131.909 96.593 132.134 L 68.108 132.360 68.108 151.208 L 68.108 170.055 96.508 170.281 L 124.909 170.506 125.264 185.273 C 125.574 198.188,125.868 200.677,127.613 205.129 C 135.930 226.352,156.528 242.939,188.146 253.875 C 221.071 265.263,268.465 267.517,305.761 259.469 C 346.683 250.637,376.427 230.596,386.407 205.129 C 388.152 200.677,388.446 198.188,388.756 185.273 L 389.111 170.506 417.512 170.281 L 445.912 170.055 445.912 151.208 L 445.912 132.360 417.427 132.134 L 388.942 131.909 388.942 103.649 L 388.942 75.390 370.094 75.390 L 351.247 75.390 351.247 103.661 L 351.247 131.932 257.010 131.932 L 162.773 131.932 162.773 103.661 L 162.773 75.390 143.926 75.390 L 125.078 75.390 125.078 103.649 M351.099 181.924 L 350.819 193.365 347.593 197.502 C 337.562 210.368,313.088 220.925,283.996 224.938 C 270.211 226.839,243.809 226.839,230.024 224.938 C 200.932 220.925,176.458 210.368,166.427 197.502 L 163.201 193.365 162.921 181.924 L 162.640 170.483 257.010 170.483 L 351.380 170.483 351.099 181.924 M143.926 302.415 L 143.926 321.262 257.010 321.262 L 370.094 321.262 370.094 302.415 L 370.094 283.568 257.010 283.568 L 143.926 283.568 143.926 302.415 M86.527 377.805 L 86.527 396.652 257.010 396.652 L 427.493 396.652 427.493 377.805 L 427.493 358.957 257.010 358.957 L 86.527 358.957 86.527 377.805 " stroke="none" fill-rule="evenodd" fill="black"></path></svg>