<svg width="136mm" height="120mm" version="1.1" viewBox="0 0 600 529.4117647058824" xmlns="http://www.w3.org/2000/svg"><path d="M125.078 103.661 L 125.078 131.932 96.807 131.932 L 68.536 131.932 68.536 150.767 L 68.536 169.603 96.593 169.829 L 124.650 170.055 125.184 184.619 C 125.859 203.023,127.297 207.776,135.837 219.824 C 150.945 241.138,185.825 257.286,228.311 262.637 C 243.153 264.507,270.867 264.507,285.709 262.637 C 328.252 257.279,363.054 241.166,378.183 219.824 C 386.723 207.776,388.161 203.023,388.836 184.619 L 389.370 170.055 417.427 169.829 L 445.484 169.603 445.484 150.767 L 445.484 131.932 417.213 131.932 L 388.942 131.932 388.942 103.661 L 388.942 75.390 370.094 75.390 L 351.247 75.390 351.247 103.661 L 351.247 131.932 257.010 131.932 L 162.773 131.932 162.773 103.661 L 162.773 75.390 143.926 75.390 L 125.078 75.390 125.078 103.661 M351.247 180.363 C 351.247 192.709,350.598 194.895,345.331 200.298 C 333.614 212.318,308.820 221.827,280.163 225.291 C 262.934 227.374,233.231 226.033,216.240 222.406 C 194.041 217.668,172.576 206.853,165.701 196.944 C 163.277 193.450,163.193 192.979,162.922 181.483 L 162.643 169.627 256.945 169.627 L 351.247 169.627 351.247 180.363 M143.926 302.415 L 143.926 321.262 257.010 321.262 L 370.094 321.262 370.094 302.415 L 370.094 283.568 257.010 283.568 L 143.926 283.568 143.926 302.415 M87.383 377.805 L 87.383 396.652 257.010 396.652 L 426.637 396.652 426.637 377.805 L 426.637 358.957 257.010 358.957 L 87.383 358.957 87.383 377.805 " stroke="none" fill-rule="evenodd" fill="black"></path></svg>