<svg width="136mm" height="120mm" version="1.1" viewBox="0 0 600 529.4117647058824" xmlns="http://www.w3.org/2000/svg"><path d="M124.793 75.961 C 124.479 76.275,124.222 88.992,124.222 104.220 L 124.222 131.908 96.165 132.134 L 68.108 132.360 68.108 151.208 L 68.108 170.055 96.032 170.281 L 123.957 170.506 124.467 183.570 C 124.882 194.187,125.382 197.914,127.141 203.476 C 136.533 233.182,175.131 255.955,227.454 262.662 C 242.468 264.587,271.552 264.587,286.566 262.662 C 338.848 255.960,377.494 233.159,386.879 203.476 C 388.638 197.914,389.138 194.187,389.553 183.570 L 390.063 170.506 417.988 170.281 L 445.912 170.055 445.912 151.208 L 445.912 132.360 417.867 132.134 L 389.822 131.908 389.596 103.863 L 389.370 75.818 370.309 75.587 L 351.247 75.357 351.247 103.644 L 351.247 131.932 257.010 131.932 L 162.773 131.932 162.773 103.661 L 162.773 75.390 144.068 75.390 C 133.781 75.390,125.107 75.647,124.793 75.961 M351.247 180.791 C 351.247 193.036,350.466 195.410,344.539 201.183 C 336.383 209.127,321.784 216.259,304.129 220.925 C 289.259 224.855,276.234 226.356,257.010 226.356 C 237.786 226.356,224.761 224.855,209.892 220.925 C 188.404 215.246,171.802 206.095,165.370 196.385 C 162.817 192.530,162.773 192.277,162.773 181.474 L 162.773 170.483 257.010 170.483 L 351.247 170.483 351.247 180.791 M143.926 302.415 L 143.926 321.262 257.010 321.262 L 370.094 321.262 370.094 302.415 L 370.094 283.568 257.010 283.568 L 143.926 283.568 143.926 302.415 M86.527 377.805 L 86.527 396.652 257.010 396.652 L 427.493 396.652 427.493 377.805 L 427.493 358.957 257.010 358.957 L 86.527 358.957 86.527 377.805 " stroke="none" fill-rule="evenodd" fill="black"></path></svg>