<svg width="136mm" height="120mm" version="1.1" viewBox="0 0 600 529.4117647058824" xmlns="http://www.w3.org/2000/svg"><path d="M136.215 68.108 L 136.215 87.383 173.482 87.383 C 193.978 87.383,210.748 87.636,210.748 87.944 C 210.748 88.252,193.026 123.667,171.365 166.643 C 149.705 209.619,132.228 245.027,132.528 245.327 C 132.828 245.627,173.971 245.880,223.956 245.888 C 326.359 245.905,321.241 245.602,334.970 252.450 C 341.834 255.874,344.391 257.790,351.296 264.684 C 358.311 271.688,360.052 274.024,363.459 280.998 C 372.441 299.381,372.441 320.013,363.459 338.397 C 360.053 345.369,358.310 347.706,351.296 354.711 C 339.445 366.544,327.787 372.199,312.711 373.425 L 306.270 373.950 306.270 392.797 L 306.270 411.644 312.267 411.371 C 333.500 410.405,355.903 401.296,372.665 386.815 C 395.404 367.169,407.869 339.864,407.869 309.697 C 407.869 270.228,386.585 236.112,350.819 218.251 C 338.766 212.232,323.033 208.178,311.727 208.178 C 308.961 208.178,306.699 207.985,306.699 207.748 C 306.699 207.511,324.432 171.852,346.107 128.505 C 367.781 85.158,385.515 49.499,385.515 49.262 C 385.515 49.025,329.423 48.832,260.865 48.832 L 136.215 48.832 136.215 68.108 M323.833 87.814 C 323.833 88.051,310.339 115.230,293.847 148.212 L 263.861 208.178 228.738 208.178 C 205.938 208.178,193.614 207.878,193.614 207.323 C 193.614 206.853,207.010 179.674,223.382 146.926 L 253.149 87.383 288.491 87.383 C 307.929 87.383,323.833 87.577,323.833 87.814 " stroke="none" fill-rule="evenodd" fill="black"></path></svg>