<svg width="136mm" height="120mm" version="1.1" viewBox="0 0 600 529.4117647058824" xmlns="http://www.w3.org/2000/svg"><path d="M136.215 67.679 L 136.215 86.527 173.482 86.527 C 197.809 86.527,210.748 86.825,210.748 87.385 C 210.748 87.857,193.207 123.324,171.768 166.200 C 150.329 209.076,132.788 244.534,132.788 244.996 C 132.788 245.538,165.799 245.918,225.955 246.069 L 319.121 246.301 325.974 248.635 C 335.873 252.006,343.015 256.493,350.892 264.289 C 358.749 272.066,363.728 279.896,367.236 289.993 C 369.430 296.306,369.618 297.860,369.618 309.697 C 369.618 321.534,369.430 323.088,367.236 329.401 C 365.927 333.171,363.276 338.953,361.346 342.252 C 356.976 349.720,345.832 360.851,338.382 365.190 C 331.314 369.307,320.921 372.614,312.695 373.364 L 306.270 373.950 306.039 392.707 L 305.808 411.464 314.606 410.980 C 347.634 409.163,379.991 387.856,396.088 357.324 C 424.490 303.449,399.521 236.510,342.860 214.627 C 333.895 211.165,320.028 208.178,312.918 208.178 C 310.126 208.178,307.605 207.942,307.317 207.654 C 307.028 207.366,324.505 171.706,346.154 128.411 C 367.802 85.116,385.515 49.499,385.515 49.262 C 385.515 49.025,329.423 48.832,260.865 48.832 L 136.215 48.832 136.215 67.679 M323.833 87.382 C 323.833 87.852,310.437 115.031,294.065 147.779 L 264.298 207.321 228.956 207.321 C 209.518 207.321,193.614 207.128,193.614 206.891 C 193.614 206.654,207.108 179.475,223.600 146.493 L 253.586 86.527 288.709 86.527 C 311.509 86.527,323.833 86.827,323.833 87.382 " stroke="none" fill-rule="evenodd" fill="black"></path></svg>