<svg width="136mm" height="120mm" version="1.1" viewBox="0 0 600 529.4117647058824" xmlns="http://www.w3.org/2000/svg"><path d="M136.215 68.108 L 136.215 87.383 173.482 87.383 C 193.978 87.383,210.748 87.577,210.748 87.814 C 210.748 88.050,193.207 123.324,171.768 166.200 C 150.329 209.076,132.788 244.542,132.788 245.014 C 132.788 245.582,163.579 245.878,223.813 245.888 C 326.383 245.905,321.242 245.601,334.970 252.453 C 341.766 255.845,344.380 257.792,350.819 264.259 C 359.476 272.954,363.902 279.867,367.293 289.993 C 369.382 296.230,369.587 298.003,369.566 309.697 C 369.545 321.272,369.318 323.228,367.271 329.401 C 363.988 339.301,359.520 346.369,351.247 354.751 C 340.219 365.924,327.417 372.196,313.237 373.372 L 306.270 373.950 306.270 392.797 L 306.270 411.644 311.839 411.390 C 341.086 410.052,370.020 394.363,388.053 370.063 C 417.837 329.928,413.598 273.239,378.163 237.804 C 360.609 220.250,333.538 208.178,311.727 208.178 C 308.961 208.178,306.699 207.985,306.699 207.748 C 306.699 207.511,324.432 171.852,346.107 128.505 C 367.781 85.158,385.515 49.499,385.515 49.262 C 385.515 49.025,329.423 48.832,260.865 48.832 L 136.215 48.832 136.215 68.108 M323.833 87.814 C 323.833 88.051,310.339 115.230,293.847 148.212 L 263.861 208.178 228.738 208.178 C 205.938 208.178,193.614 207.878,193.614 207.323 C 193.614 206.853,207.010 179.674,223.382 146.926 L 253.149 87.383 288.491 87.383 C 307.929 87.383,323.833 87.577,323.833 87.814 " stroke="none" fill-rule="evenodd" fill="black"></path></svg>