<svg width="136mm" height="120mm" version="1.1" viewBox="0 0 600 529.4117647058824" xmlns="http://www.w3.org/2000/svg"><path d="M250.452 164.022 L 212.710 277.256 230.229 283.073 C 239.864 286.272,248.049 288.559,248.417 288.156 C 248.785 287.753,250.729 282.411,252.737 276.286 C 254.745 270.160,256.484 265.032,256.602 264.888 C 256.720 264.745,265.867 269.149,276.928 274.673 L 297.040 284.718 281.324 331.848 C 272.680 357.770,265.740 379.110,265.902 379.272 C 266.423 379.793,299.333 390.655,300.391 390.655 C 300.982 390.655,307.638 371.987,316.122 346.535 C 324.211 322.269,331.181 302.415,331.612 302.415 C 333.174 302.415,412.073 342.265,412.073 343.054 C 412.073 344.610,404.935 355.993,401.136 360.497 C 399.031 362.992,395.329 366.169,392.911 367.556 L 388.513 370.078 362.170 370.086 L 335.826 370.094 335.826 388.992 L 335.826 407.890 365.597 407.598 C 393.534 407.323,395.710 407.189,400.936 405.428 C 416.751 400.097,433.091 384.662,442.965 365.726 C 444.537 362.710,445.951 360.071,446.106 359.861 C 446.262 359.652,448.507 360.519,451.095 361.789 C 453.684 363.059,455.985 364.098,456.207 364.098 C 456.614 364.097,472.898 331.935,472.898 331.133 C 472.898 330.898,469.814 329.155,466.045 327.259 C 462.275 325.364,459.192 323.336,459.194 322.752 C 459.195 322.168,459.937 317.836,460.842 313.124 C 463.364 299.994,464.447 286.481,464.447 268.147 C 464.447 247.959,463.339 235.786,459.997 219.241 C 450.719 173.310,428.650 140.281,400.936 130.848 C 395.500 128.998,394.256 128.946,348.891 128.694 C 323.329 128.552,302.415 128.156,302.415 127.815 C 302.415 127.474,307.227 112.769,313.109 95.138 C 318.991 77.506,323.670 62.948,323.508 62.786 C 323.346 62.623,315.334 59.857,305.704 56.639 L 288.195 50.788 250.452 164.022 M75.390 143.926 L 75.390 162.773 62.094 162.773 L 48.798 162.773 49.029 181.406 L 49.260 200.039 62.325 200.276 L 75.390 200.512 75.390 232.853 C 75.390 267.619,76.026 276.233,79.281 285.549 C 84.344 300.041,95.660 313.286,109.658 321.102 C 124.782 329.548,146.519 330.741,163.630 324.064 C 177.422 318.682,191.003 306.068,197.429 292.672 C 203.650 279.704,203.895 277.577,203.895 236.514 L 203.895 200.507 219.101 200.273 L 234.307 200.039 234.538 181.426 L 234.769 162.813 219.546 162.579 L 204.323 162.345 204.092 143.711 L 203.861 125.078 185.030 125.078 L 166.200 125.078 166.200 143.926 L 166.200 162.773 140.070 162.773 L 113.941 162.773 113.941 143.926 L 113.941 125.078 94.665 125.078 L 75.390 125.078 75.390 143.926 M322.939 207.005 C 315.454 229.448,309.165 247.975,308.964 248.177 C 308.440 248.700,269.004 228.865,269.004 228.079 C 269.004 227.550,287.689 171.033,289.107 167.271 C 289.417 166.450,295.001 166.200,313.029 166.200 L 336.547 166.200 322.939 207.005 M392.911 168.738 C 406.722 176.659,419.429 203.456,424.668 235.709 C 426.520 247.111,426.779 286.107,425.079 297.691 C 424.457 301.924,423.825 305.512,423.673 305.664 C 423.414 305.923,344.429 266.682,343.559 265.861 C 343.335 265.651,350.594 243.141,359.690 215.839 L 376.229 166.200 382.371 166.208 C 387.594 166.215,389.171 166.593,392.911 168.738 M166.200 234.727 C 166.200 266.475,166.079 269.304,164.549 273.329 C 160.413 284.214,151.237 290.591,139.787 290.536 C 132.492 290.501,126.071 287.805,121.406 282.818 C 113.996 274.896,114.401 277.465,114.120 236.663 L 113.871 200.468 140.035 200.468 L 166.200 200.468 166.200 234.727 " stroke="none" fill-rule="evenodd" fill="black"></path></svg>