<svg width="136mm" height="120mm" version="1.1" viewBox="0 0 600 529.4117647058824" xmlns="http://www.w3.org/2000/svg"><path d="M250.452 164.022 L 212.710 277.256 230.229 283.073 C 239.864 286.272,248.049 288.559,248.417 288.156 C 248.785 287.753,250.729 282.411,252.737 276.286 C 254.745 270.160,256.484 265.032,256.602 264.888 C 256.720 264.745,265.867 269.149,276.928 274.673 L 297.040 284.718 281.324 331.848 C 272.680 357.770,265.741 379.111,265.903 379.273 C 266.064 379.434,274.134 382.219,283.835 385.461 L 301.474 391.356 316.288 346.885 C 324.436 322.427,331.396 302.415,331.755 302.415 C 332.421 302.415,411.310 341.697,412.055 342.399 C 412.827 343.129,406.909 353.503,402.851 358.533 C 400.619 361.298,396.879 364.935,394.540 366.614 L 390.285 369.666 363.484 369.915 L 336.683 370.164 336.683 388.976 L 336.683 407.789 364.346 407.789 C 395.488 407.789,397.481 407.522,409.231 401.771 C 421.110 395.956,433.482 383.004,442.496 366.946 C 444.697 363.023,446.669 359.814,446.877 359.814 C 447.084 359.814,449.156 360.778,451.481 361.956 C 453.805 363.134,455.911 364.097,456.160 364.097 C 456.684 364.097,472.898 331.907,472.898 330.866 C 472.898 330.485,469.814 328.669,466.045 326.831 C 462.275 324.993,459.191 323.206,459.191 322.860 C 459.191 322.514,459.767 319.494,460.471 316.148 C 463.385 302.292,464.578 288.357,464.578 268.147 C 464.578 238.963,461.637 219.000,453.929 195.857 C 446.892 174.729,437.810 159.119,425.455 146.917 C 417.055 138.621,409.795 133.863,400.936 130.848 C 395.500 128.998,394.256 128.946,348.891 128.694 C 323.329 128.552,302.415 128.156,302.415 127.815 C 302.415 127.474,307.227 112.769,313.109 95.138 C 318.991 77.506,323.670 62.948,323.508 62.786 C 323.346 62.623,315.334 59.857,305.704 56.639 L 288.195 50.788 250.452 164.022 M75.390 143.926 L 75.390 162.773 62.111 162.773 L 48.832 162.773 48.832 181.620 L 48.832 200.468 62.054 200.468 L 75.277 200.468 75.599 237.948 C 75.909 273.892,76.002 275.692,77.856 281.840 C 87.032 312.261,115.807 331.616,146.632 328.101 C 162.451 326.296,173.258 321.080,184.707 309.723 C 193.301 301.198,197.552 294.497,201.208 283.710 L 203.435 277.142 203.713 238.825 L 203.991 200.507 219.149 200.273 L 234.307 200.039 234.538 181.426 L 234.769 162.813 219.546 162.579 L 204.323 162.345 204.092 143.711 L 203.861 125.078 185.030 125.078 L 166.200 125.078 166.200 143.938 L 166.200 162.798 139.856 162.571 L 113.513 162.345 113.282 143.711 L 113.051 125.078 94.220 125.078 L 75.390 125.078 75.390 143.926 M322.844 207.293 L 309.142 248.387 289.287 238.467 C 278.367 233.012,269.296 228.422,269.129 228.269 C 268.854 228.015,288.448 168.353,289.302 166.842 C 289.502 166.489,300.213 166.200,313.105 166.200 L 336.545 166.200 322.844 207.293 M391.522 167.918 C 407.344 175.990,421.323 206.254,425.352 241.156 C 427.379 258.722,426.961 286.502,424.428 302.596 L 423.927 305.776 383.656 285.636 C 358.524 273.069,343.527 265.110,343.764 264.466 C 343.973 263.899,351.426 241.557,360.326 214.818 L 376.508 166.200 382.331 166.200 C 386.469 166.200,389.128 166.697,391.522 167.918 M166.200 234.152 C 166.200 272.114,166.017 273.540,160.223 280.870 C 152.717 290.366,138.519 293.394,127.648 287.817 C 123.337 285.606,117.764 279.538,115.481 274.572 C 113.547 270.363,113.508 269.687,113.231 235.378 L 112.950 200.468 139.575 200.468 L 166.200 200.468 166.200 234.152 " stroke="none" fill-rule="evenodd" fill="black"></path></svg>