<svg width="136mm" height="120mm" version="1.1" viewBox="0 0 600 529.4117647058824" xmlns="http://www.w3.org/2000/svg"><path d="M132.360 45.119 C 123.408 49.623,115.964 53.415,115.820 53.546 C 115.675 53.677,122.518 67.703,131.026 84.715 C 139.534 101.727,146.496 116.033,146.496 116.507 C 146.496 117.057,139.851 117.368,128.077 117.368 L 109.658 117.368 109.658 136.215 L 109.658 155.063 173.910 155.063 L 238.163 155.063 238.163 232.176 L 238.163 309.289 234.522 308.773 C 214.231 305.897,206.396 304.156,193.888 299.744 C 175.125 293.124,161.756 283.905,156.781 274.154 C 155.123 270.904,155.063 269.142,155.063 224.061 L 155.063 177.337 136.215 177.337 L 117.368 177.337 117.368 225.989 C 117.368 280.339,117.281 279.390,123.387 291.864 C 129.187 303.714,142.217 316.178,157.951 324.927 C 171.731 332.590,192.067 339.809,209.147 343.100 C 214.940 344.216,234.874 346.925,237.520 346.956 C 237.873 346.960,238.163 362.384,238.163 381.231 L 238.163 415.500 257.010 415.500 L 275.857 415.500 275.857 381.231 C 275.857 362.384,276.147 346.960,276.500 346.956 C 279.146 346.925,299.080 344.216,304.873 343.100 C 321.953 339.809,342.289 332.590,356.069 324.927 C 371.803 316.178,384.833 303.714,390.633 291.864 C 396.739 279.390,396.652 280.339,396.652 225.989 L 396.652 177.337 377.805 177.337 L 358.957 177.337 358.957 224.061 C 358.957 269.142,358.897 270.904,357.239 274.154 C 352.264 283.905,338.895 293.124,320.132 299.744 C 307.624 304.156,299.789 305.897,279.498 308.773 L 275.857 309.289 275.857 232.181 L 275.857 155.074 338.182 154.854 L 400.507 154.634 400.738 136.001 L 400.969 117.368 384.247 117.368 C 373.610 117.368,367.524 117.054,367.524 116.507 C 367.524 116.033,374.486 101.727,382.994 84.715 C 391.502 67.703,398.345 53.677,398.200 53.546 C 397.844 53.223,365.032 36.838,364.741 36.838 C 364.615 36.838,355.455 54.963,344.387 77.116 L 324.263 117.394 300.274 117.167 L 276.286 116.940 256.153 76.980 L 236.021 37.020 219.529 45.272 C 210.459 49.810,203.038 53.819,203.038 54.181 C 203.038 54.542,209.977 68.712,218.459 85.670 C 226.940 102.628,233.879 116.697,233.879 116.935 C 233.879 117.173,223.949 117.368,211.812 117.368 L 189.744 117.368 169.627 77.103 C 158.562 54.957,149.313 36.859,149.073 36.884 C 148.833 36.909,141.313 40.614,132.360 45.119 " stroke="none" fill-rule="evenodd" fill="black"></path></svg>