<svg width="136mm" height="120mm" version="1.1" viewBox="0 0 600 529.4117647058824" xmlns="http://www.w3.org/2000/svg"><path d="M132.360 45.119 C 123.408 49.623,115.964 53.415,115.820 53.546 C 115.675 53.677,122.518 67.703,131.026 84.715 C 139.534 101.727,146.496 116.033,146.496 116.507 C 146.496 117.057,139.851 117.368,128.077 117.368 L 109.658 117.368 109.658 136.215 L 109.658 155.063 173.910 155.063 L 238.163 155.063 238.163 231.737 L 238.163 308.412 234.950 308.409 C 225.500 308.398,200.945 302.734,188.685 297.735 C 173.163 291.407,160.816 282.478,156.988 274.812 L 155.063 270.958 155.063 224.147 L 155.063 177.337 136.183 177.337 L 117.303 177.337 117.557 227.668 C 117.805 277.046,117.846 278.105,119.708 283.568 C 120.752 286.630,123.059 291.642,124.834 294.705 C 129.068 302.007,141.740 314.754,150.351 320.374 C 168.653 332.318,195.125 341.402,221.548 344.805 C 227.623 345.587,233.847 346.410,235.378 346.634 L 238.163 347.041 238.163 381.270 L 238.163 415.500 257.010 415.500 L 275.857 415.500 275.857 381.270 L 275.857 347.041 278.642 346.634 C 280.173 346.410,286.438 345.585,292.563 344.800 C 312.100 342.297,332.521 336.414,349.198 328.486 C 371.590 317.842,388.302 301.202,394.312 283.568 C 396.174 278.105,396.215 277.046,396.463 227.668 L 396.717 177.337 377.837 177.337 L 358.957 177.337 358.957 224.061 C 358.957 269.142,358.897 270.904,357.239 274.154 C 351.042 286.300,332.502 297.159,306.868 303.657 C 297.262 306.092,283.739 308.404,279.070 308.409 L 275.857 308.412 275.857 231.743 L 275.857 155.074 338.182 154.854 L 400.507 154.634 400.738 136.001 L 400.969 117.368 384.247 117.368 C 373.610 117.368,367.524 117.054,367.524 116.507 C 367.524 116.033,374.486 101.727,382.994 84.715 C 391.502 67.703,398.345 53.677,398.200 53.546 C 398.056 53.415,390.517 49.601,381.449 45.070 L 364.960 36.833 344.816 77.114 L 324.672 117.395 300.479 117.167 L 276.286 116.940 256.153 76.980 L 236.021 37.020 219.529 45.272 C 210.459 49.810,203.038 53.819,203.038 54.181 C 203.038 54.542,209.977 68.712,218.459 85.670 C 226.940 102.628,233.879 116.697,233.879 116.935 C 233.879 117.173,223.857 117.368,211.607 117.368 L 189.334 117.368 169.198 77.103 C 158.123 54.957,148.967 36.859,148.850 36.884 C 148.733 36.909,141.313 40.614,132.360 45.119 " stroke="none" fill-rule="evenodd" fill="black"></path></svg>