<svg width="136mm" height="120mm" version="1.1" viewBox="0 0 600 529.4117647058824" xmlns="http://www.w3.org/2000/svg"><path d="M132.360 45.119 C 123.408 49.623,115.905 53.474,115.689 53.677 C 115.472 53.880,122.315 67.848,130.895 84.716 C 139.475 101.584,146.496 115.831,146.496 116.376 C 146.496 117.097,141.455 117.368,128.077 117.368 L 109.658 117.368 109.658 136.215 L 109.658 155.063 173.910 155.063 L 238.163 155.063 238.163 232.176 L 238.163 309.289 234.522 308.773 C 207.624 304.961,194.902 301.417,179.015 293.309 C 170.117 288.770,162.629 282.866,158.544 277.171 L 155.491 272.916 155.256 225.126 L 155.021 177.337 136.194 177.337 L 117.368 177.337 117.368 226.259 C 117.368 279.906,117.396 280.254,122.601 290.744 C 126.151 297.900,130.045 302.933,137.544 310.055 C 153.764 325.463,179.647 337.363,209.587 343.178 C 215.032 344.236,234.922 346.926,237.520 346.956 C 237.873 346.960,238.163 362.384,238.163 381.231 L 238.163 415.500 257.010 415.500 L 275.857 415.500 275.857 381.231 C 275.857 362.384,276.147 346.960,276.500 346.956 C 279.098 346.926,298.988 344.236,304.433 343.178 C 334.373 337.363,360.256 325.463,376.476 310.055 C 384.015 302.895,387.869 297.901,391.492 290.597 C 396.531 280.442,396.626 279.250,396.639 225.955 L 396.652 177.337 377.826 177.337 L 358.999 177.337 358.764 225.126 L 358.529 272.916 355.476 277.171 C 351.391 282.866,343.903 288.770,335.005 293.309 C 319.118 301.417,306.396 304.961,279.498 308.773 L 275.857 309.289 275.857 232.176 L 275.857 155.063 338.397 155.063 L 400.936 155.063 400.936 136.215 L 400.936 117.368 384.230 117.368 C 373.604 117.368,367.524 117.054,367.524 116.507 C 367.524 116.033,374.486 101.727,382.994 84.715 C 391.502 67.703,398.345 53.677,398.200 53.546 C 398.056 53.415,390.517 49.601,381.449 45.070 L 364.960 36.833 344.816 77.114 L 324.672 117.395 300.479 117.167 L 276.286 116.940 256.153 76.974 L 236.021 37.009 219.101 45.495 L 202.181 53.981 218.032 85.674 L 233.884 117.368 211.609 117.368 L 189.334 117.368 169.198 77.103 C 158.123 54.957,148.967 36.859,148.850 36.884 C 148.733 36.909,141.313 40.614,132.360 45.119 " stroke="none" fill-rule="evenodd" fill="black"></path></svg>