<svg width="136mm" height="120mm" version="1.1" viewBox="0 0 600 529.4117647058824" xmlns="http://www.w3.org/2000/svg"><path d="M75.961 94.808 C 75.647 95.122,75.390 103.591,75.390 113.627 L 75.390 131.874 66.180 132.117 L 56.971 132.360 56.740 150.993 L 56.509 169.627 65.949 169.627 L 75.390 169.627 75.397 232.380 C 75.401 268.873,75.764 298.282,76.266 302.658 C 79.775 333.290,100.757 358.120,130.821 367.220 C 137.344 369.194,139.969 369.512,150.351 369.583 C 164.615 369.682,171.265 368.304,183.017 362.816 C 204.054 352.992,218.554 335.472,224.627 312.539 C 226.484 305.531,226.520 304.295,226.809 237.520 L 227.102 169.627 236.488 169.627 L 245.873 169.627 245.873 150.779 L 245.873 131.932 236.449 131.932 L 227.025 131.932 227.025 113.084 L 227.025 94.237 208.178 94.237 L 189.331 94.237 189.331 113.084 L 189.331 131.932 151.208 131.932 L 113.084 131.932 113.084 113.084 L 113.084 94.237 94.808 94.237 C 84.756 94.237,76.275 94.494,75.961 94.808 M291.278 131.932 L 291.278 150.779 358.957 150.779 L 426.637 150.779 426.637 131.932 L 426.637 113.084 358.957 113.084 L 291.278 113.084 291.278 131.932 M188.902 235.593 C 188.902 297.309,188.809 301.405,187.304 305.842 C 180.733 325.206,161.063 336.099,141.750 331.070 C 127.173 327.274,116.107 314.669,113.962 299.417 C 113.016 292.694,112.736 171.117,113.664 170.189 C 113.983 169.870,131.042 169.709,151.573 169.832 L 188.902 170.055 188.902 235.593 M264.720 335.826 L 264.720 354.674 358.957 354.674 L 453.194 354.674 453.194 335.826 L 453.194 316.979 358.957 316.979 L 264.720 316.979 264.720 335.826 " stroke="none" fill-rule="evenodd" fill="black"></path></svg>