<svg width="136mm" height="120mm" version="1.1" viewBox="0 0 600 529.4117647058824" xmlns="http://www.w3.org/2000/svg"><path d="M75.390 113.084 L 75.390 131.932 65.950 131.932 L 56.509 131.932 56.740 150.993 L 56.971 170.055 66.142 170.298 L 75.313 170.540 75.593 238.405 C 75.873 306.161,75.876 306.281,77.834 313.098 C 85.606 340.154,104.157 359.108,130.821 367.236 C 137.562 369.290,139.713 369.533,151.208 369.533 C 162.699 369.533,164.854 369.290,171.587 367.238 C 195.420 359.973,213.609 343.268,221.861 321.066 C 226.624 308.251,226.477 310.725,226.802 237.977 L 227.103 170.540 236.274 170.298 L 245.445 170.055 245.675 150.993 L 245.906 131.932 236.466 131.932 L 227.025 131.932 227.025 113.068 L 227.025 94.204 207.964 94.435 L 188.902 94.665 188.671 113.299 L 188.441 131.932 150.762 131.932 L 113.084 131.932 113.084 113.084 L 113.084 94.237 94.237 94.237 L 75.390 94.237 75.390 113.084 M291.278 131.927 L 291.278 150.779 359.402 150.779 L 427.527 150.779 427.296 132.146 L 427.065 113.513 359.171 113.293 L 291.278 113.074 291.278 131.927 M188.275 237.520 L 188.046 304.557 185.267 310.423 C 181.913 317.506,174.438 325.194,167.784 328.405 C 153.217 335.434,136.299 332.575,124.840 321.147 C 118.624 314.949,114.864 307.259,113.874 298.723 C 113.481 295.335,113.143 265.095,113.122 231.523 L 113.084 170.483 150.794 170.483 L 188.505 170.483 188.275 237.520 M264.720 336.255 L 264.720 355.538 359.171 355.320 L 453.623 355.102 453.623 336.255 L 453.623 317.407 359.171 317.189 L 264.720 316.971 264.720 336.255 " stroke="none" fill-rule="evenodd" fill="black"></path></svg>