<svg width="136mm" height="120mm" version="1.1" viewBox="0 0 600 529.4117647058824" xmlns="http://www.w3.org/2000/svg"><path d="M75.977 94.792 C 75.654 95.115,75.390 103.604,75.390 113.656 L 75.390 131.932 65.950 131.932 L 56.509 131.932 56.740 150.993 L 56.971 170.055 66.180 170.298 L 75.390 170.541 75.397 232.837 C 75.401 269.024,75.765 298.287,76.266 302.658 C 79.775 333.286,100.699 358.054,130.821 367.236 C 137.562 369.290,139.713 369.533,151.208 369.533 C 162.702 369.533,164.854 369.290,171.594 367.236 C 198.480 359.040,217.491 339.436,224.632 312.539 C 226.495 305.525,226.529 304.354,226.809 237.977 L 227.094 170.541 236.269 170.298 L 245.445 170.055 245.675 150.993 L 245.906 131.932 236.466 131.932 L 227.025 131.932 227.025 113.084 L 227.025 94.237 208.178 94.237 L 189.331 94.237 189.331 113.084 L 189.331 131.932 151.653 131.932 L 113.975 131.932 113.744 113.299 L 113.513 94.665 95.039 94.435 C 84.878 94.308,76.300 94.469,75.977 94.792 M291.278 131.927 L 291.278 150.779 359.402 150.779 L 427.527 150.779 427.296 132.146 L 427.065 113.513 359.171 113.293 L 291.278 113.074 291.278 131.927 M189.293 231.523 C 189.272 265.095,188.934 295.335,188.541 298.723 C 187.543 307.334,183.800 314.937,177.415 321.321 C 171.530 327.207,165.853 330.133,157.386 331.646 C 150.030 332.961,141.487 331.750,134.631 328.419 C 127.963 325.181,120.498 317.496,117.148 310.423 L 114.369 304.557 114.135 237.520 L 113.901 170.483 151.616 170.483 L 189.331 170.483 189.293 231.523 M264.720 336.255 L 264.720 355.531 358.957 355.531 L 453.194 355.531 453.194 336.255 L 453.194 316.979 358.957 316.979 L 264.720 316.979 264.720 336.255 " stroke="none" fill-rule="evenodd" fill="black"></path></svg>