<svg width="136mm" height="120mm" version="1.1" viewBox="0 0 600 529.4117647058824" xmlns="http://www.w3.org/2000/svg"><path d="M335.766 68.693 C 312.922 70.323,291.825 80.487,275.422 97.765 C 265.493 108.223,259.006 119.024,254.406 132.754 C 250.154 145.446,249.310 153.983,249.305 184.405 L 249.300 211.605 236.021 211.605 L 222.742 211.605 222.742 230.452 L 222.742 249.300 236.021 249.300 L 249.300 249.300 249.300 322.976 L 249.300 396.652 268.147 396.652 L 286.995 396.652 286.995 322.976 L 286.995 249.300 343.965 249.300 L 400.936 249.300 400.936 322.976 L 400.936 396.652 419.783 396.652 L 438.630 396.652 438.630 322.976 L 438.630 249.300 459.191 249.300 L 479.752 249.300 479.752 230.452 L 479.752 211.605 459.272 211.605 L 438.792 211.605 438.393 180.550 C 437.959 146.753,437.609 143.737,432.531 129.918 C 421.692 100.423,397.181 78.609,365.985 70.694 C 358.687 68.842,345.712 67.983,335.766 68.693 M71.963 122.508 L 71.963 150.779 54.829 150.779 L 37.695 150.779 37.695 170.055 L 37.695 189.331 54.838 189.331 L 71.981 189.331 71.758 226.811 L 71.534 264.292 54.615 264.524 L 37.695 264.757 37.695 283.586 L 37.695 302.415 54.829 302.415 L 71.963 302.415 71.963 330.686 L 71.963 358.957 90.810 358.957 L 109.658 358.957 109.658 330.686 L 109.658 302.415 128.505 302.415 L 147.352 302.415 147.352 330.686 L 147.352 358.957 166.200 358.957 L 185.047 358.957 185.047 330.686 L 185.047 302.415 202.181 302.415 L 219.315 302.415 219.315 283.586 L 219.315 264.757 202.395 264.524 L 185.476 264.292 185.252 226.811 L 185.029 189.331 202.172 189.331 L 219.315 189.331 219.315 170.055 L 219.315 150.779 202.181 150.779 L 185.047 150.779 185.047 122.508 L 185.047 94.237 166.200 94.237 L 147.352 94.237 147.352 122.508 L 147.352 150.779 128.505 150.779 L 109.658 150.779 109.658 122.508 L 109.658 94.237 90.810 94.237 L 71.963 94.237 71.963 122.508 M358.003 107.546 C 373.237 111.137,387.476 122.751,394.839 137.591 C 399.869 147.730,400.206 150.303,400.695 182.263 L 401.143 211.605 343.978 211.605 L 286.812 211.605 287.213 182.263 C 287.649 150.349,287.944 148.053,292.972 137.563 C 299.739 123.442,314.737 111.176,329.658 107.558 C 336.280 105.952,351.215 105.946,358.003 107.546 M147.352 227.025 L 147.352 264.720 128.505 264.720 L 109.658 264.720 109.658 227.025 L 109.658 189.331 128.505 189.331 L 147.352 189.331 147.352 227.025 " stroke="none" fill-rule="evenodd" fill="black"></path></svg>