<svg width="136mm" height="120mm" version="1.1" viewBox="0 0 600 529.4117647058824" xmlns="http://www.w3.org/2000/svg"><path d="M333.647 68.549 C 313.738 70.652,294.443 79.584,279.737 93.504 C 267.198 105.374,259.688 116.987,254.458 132.597 C 250.151 145.454,249.310 153.902,249.305 184.405 L 249.300 211.605 236.021 211.605 L 222.742 211.605 222.742 230.452 L 222.742 249.300 236.021 249.300 L 249.300 249.300 249.300 322.976 L 249.300 396.652 268.147 396.652 L 286.995 396.652 286.995 322.976 L 286.995 249.300 343.965 249.300 L 400.936 249.300 400.936 322.976 L 400.936 396.652 419.783 396.652 L 438.630 396.652 438.630 322.976 L 438.630 249.300 459.191 249.300 L 479.752 249.300 479.752 230.452 L 479.752 211.605 459.191 211.605 L 438.630 211.605 438.608 186.975 C 438.584 159.774,437.832 149.079,435.226 138.871 C 426.879 106.180,400.187 79.448,367.534 71.075 C 355.920 68.098,345.370 67.311,333.647 68.549 M71.963 122.490 L 71.963 150.743 55.043 150.975 L 38.123 151.208 37.892 169.841 L 37.661 188.474 54.812 188.474 L 71.963 188.474 71.963 226.597 L 71.963 264.720 54.812 264.720 L 37.661 264.720 37.892 283.354 L 38.123 301.987 55.043 302.219 L 71.963 302.451 71.963 330.704 L 71.963 358.957 90.810 358.957 L 109.658 358.957 109.658 330.686 L 109.658 302.415 128.505 302.415 L 147.352 302.415 147.352 330.686 L 147.352 358.957 166.200 358.957 L 185.047 358.957 185.047 330.686 L 185.047 302.415 202.181 302.415 L 219.315 302.415 219.315 283.586 L 219.315 264.757 202.395 264.524 L 185.476 264.292 185.476 226.597 L 185.476 188.902 202.395 188.670 L 219.315 188.438 219.315 169.608 L 219.315 150.779 202.181 150.779 L 185.047 150.779 185.047 122.508 L 185.047 94.237 166.200 94.237 L 147.352 94.237 147.352 122.508 L 147.352 150.779 128.505 150.779 L 109.658 150.779 109.658 122.508 L 109.658 94.237 90.810 94.237 L 71.963 94.237 71.963 122.490 M357.672 107.617 C 373.523 111.447,387.125 122.474,394.534 137.500 C 400.057 148.700,400.409 151.403,400.461 182.905 L 400.507 211.177 343.751 211.397 L 286.995 211.617 287.024 185.267 C 287.056 157.269,287.737 150.197,291.252 141.373 C 295.976 129.512,306.161 118.344,317.717 112.354 C 330.575 105.689,343.401 104.168,357.672 107.617 M147.352 226.597 L 147.352 264.720 128.505 264.720 L 109.658 264.720 109.658 226.597 L 109.658 188.474 128.505 188.474 L 147.352 188.474 147.352 226.597 " stroke="none" fill-rule="evenodd" fill="black"></path></svg>