<svg width="136mm" height="120mm" version="1.1" viewBox="0 0 600 529.4117647058824" xmlns="http://www.w3.org/2000/svg"><path d="M335.266 68.649 C 312.375 70.592,291.642 80.680,275.422 97.765 C 265.493 108.223,259.006 119.024,254.406 132.754 C 250.154 145.446,249.310 153.983,249.305 184.405 L 249.300 211.605 236.021 211.605 L 222.742 211.605 222.742 230.452 L 222.742 249.300 236.021 249.300 L 249.300 249.300 249.300 322.976 L 249.300 396.652 268.147 396.652 L 286.995 396.652 286.995 322.976 L 286.995 249.300 343.537 249.300 L 400.079 249.300 400.079 322.976 L 400.079 396.652 419.355 396.652 L 438.630 396.652 438.630 322.976 L 438.630 249.300 459.191 249.300 L 479.752 249.300 479.752 230.452 L 479.752 211.605 459.191 211.605 L 438.630 211.605 438.616 186.546 C 438.595 151.354,437.447 142.397,430.886 126.227 C 418.203 94.967,386.290 71.148,354.103 68.918 C 350.412 68.662,346.428 68.347,345.250 68.218 C 344.072 68.089,339.579 68.282,335.266 68.649 M71.963 122.508 L 71.963 150.779 54.812 150.779 L 37.662 150.779 37.893 169.841 L 38.123 188.902 55.043 189.135 L 71.963 189.367 71.963 227.044 L 71.963 264.720 54.829 264.720 L 37.695 264.720 37.695 283.568 L 37.695 302.415 54.829 302.415 L 71.963 302.415 71.963 330.686 L 71.963 358.957 90.810 358.957 L 109.658 358.957 109.658 330.686 L 109.658 302.415 128.505 302.415 L 147.352 302.415 147.352 330.686 L 147.352 358.957 166.200 358.957 L 185.047 358.957 185.047 330.686 L 185.047 302.415 202.181 302.415 L 219.315 302.415 219.315 283.586 L 219.315 264.757 202.395 264.524 L 185.476 264.292 185.252 226.811 L 185.029 189.331 202.172 189.331 L 219.315 189.331 219.315 170.055 L 219.315 150.779 202.181 150.779 L 185.047 150.779 185.047 122.508 L 185.047 94.237 166.200 94.237 L 147.352 94.237 147.352 122.508 L 147.352 150.779 128.505 150.779 L 109.658 150.779 109.658 122.508 L 109.658 94.237 90.810 94.237 L 71.963 94.237 71.963 122.508 M357.889 107.519 C 373.719 111.251,388.062 123.372,395.396 139.214 C 399.751 148.621,400.079 151.681,400.079 182.948 L 400.079 211.605 343.446 211.605 L 286.812 211.605 287.213 182.263 C 287.649 150.310,287.983 147.716,292.966 137.500 C 299.878 123.329,314.786 111.164,329.658 107.558 C 336.221 105.966,351.216 105.946,357.889 107.519 M147.352 227.025 L 147.352 264.720 128.505 264.720 L 109.658 264.720 109.658 227.025 L 109.658 189.331 128.505 189.331 L 147.352 189.331 147.352 227.025 " stroke="none" fill-rule="evenodd" fill="black"></path></svg>