<svg width="136mm" height="120mm" version="1.1" viewBox="0 0 600 529.4117647058824" xmlns="http://www.w3.org/2000/svg"><path d="M106.185 82.886 L 106.139 112.656 95.809 92.095 C 90.127 80.787,85.371 71.415,85.238 71.270 C 85.036 71.047,52.343 87.110,51.567 87.814 C 51.344 88.016,76.830 139.562,77.535 140.336 C 77.667 140.481,83.981 137.494,91.565 133.696 C 99.149 129.899,105.561 126.792,105.814 126.792 C 106.066 126.792,106.167 133.056,106.038 140.713 L 105.802 154.634 77.746 154.860 L 49.689 155.086 49.689 173.922 L 49.689 192.757 64.460 192.757 L 79.231 192.757 59.539 212.463 L 39.847 232.169 53.125 245.447 L 66.402 258.725 95.521 229.596 L 124.641 200.468 153.988 229.806 L 183.335 259.144 196.822 245.656 L 210.309 232.169 190.618 212.463 L 170.926 192.757 185.697 192.757 L 200.468 192.757 200.468 173.910 L 200.468 155.063 172.197 155.063 L 143.926 155.063 143.926 140.922 L 143.926 126.782 157.623 133.640 C 165.156 137.412,171.516 140.499,171.756 140.499 C 172.321 140.499,197.898 89.380,197.898 88.250 C 197.898 87.540,166.293 71.106,164.927 71.106 C 164.688 71.106,159.886 80.262,154.256 91.453 L 144.018 111.799 143.972 82.457 L 143.926 53.115 125.078 53.115 L 106.231 53.115 106.185 82.886 M237.671 229.034 C 211.909 306.382,190.578 369.947,190.270 370.291 C 189.961 370.634,181.049 362.249,170.465 351.657 L 151.221 332.399 173.052 310.556 L 194.882 288.712 182.051 275.860 C 174.994 268.791,168.826 263.007,168.346 263.007 C 167.865 263.007,158.033 272.452,146.496 283.996 C 134.959 295.540,125.134 304.985,124.663 304.985 C 124.191 304.985,114.262 295.447,102.598 283.790 L 81.390 262.595 68.108 275.858 L 54.825 289.120 76.452 310.760 L 98.080 332.400 76.452 354.040 L 54.825 375.680 68.108 388.942 L 81.391 402.204 103.024 380.583 L 124.658 358.961 146.282 380.585 L 167.905 402.208 181.161 388.973 C 193.634 376.519,194.335 375.647,193.026 374.201 C 192.261 373.356,191.995 372.665,192.435 372.664 C 192.875 372.664,200.570 375.117,209.535 378.114 L 225.834 383.563 245.047 325.882 C 255.614 294.157,264.508 268.478,264.811 268.816 C 265.115 269.155,273.913 295.131,284.363 326.540 L 303.363 383.647 317.025 379.074 L 330.686 374.502 344.348 379.074 L 358.009 383.647 377.009 326.540 C 387.459 295.131,396.258 269.155,396.561 268.816 C 396.864 268.478,405.758 294.157,416.325 325.881 L 435.538 383.562 453.052 377.709 C 462.684 374.490,470.697 371.724,470.859 371.563 C 471.020 371.402,459.016 334.866,444.182 290.372 C 429.349 245.878,417.213 208.696,417.213 207.747 C 417.213 206.798,425.109 182.340,434.759 153.397 C 444.410 124.454,452.174 100.641,452.012 100.479 C 451.850 100.318,443.838 97.552,434.208 94.334 L 416.698 88.482 373.909 216.866 C 350.376 287.477,330.925 345.250,330.685 345.250 C 330.446 345.250,319.939 314.309,307.337 276.493 L 284.424 207.736 302.331 154.031 L 320.238 100.325 302.375 94.364 L 284.513 88.403 237.671 229.034 M112.870 234.357 C 104.036 238.811,96.807 242.649,96.807 242.887 C 96.807 243.312,114.763 279.463,115.230 279.977 C 115.431 280.199,148.121 264.139,148.897 263.436 C 149.465 262.923,130.608 226.172,129.799 226.214 C 129.323 226.239,121.705 229.904,112.870 234.357 " stroke="none" fill-rule="evenodd" fill="black"></path></svg>