<svg width="136mm" height="120mm" version="1.1" viewBox="0 0 600 529.4117647058824" xmlns="http://www.w3.org/2000/svg"><path d="M105.328 82.029 L 105.282 110.943 95.380 91.239 C 89.934 80.401,85.370 71.415,85.238 71.270 C 85.036 71.047,52.343 87.110,51.567 87.814 C 51.344 88.016,76.830 139.562,77.535 140.336 C 77.667 140.481,83.986 137.491,91.575 133.691 L 105.374 126.782 105.374 140.922 L 105.374 155.063 77.103 155.063 L 48.832 155.063 48.832 173.910 L 48.832 192.757 64.031 192.757 L 79.231 192.757 59.542 212.460 L 39.854 232.162 53.117 245.446 L 66.379 258.729 95.519 229.598 L 124.659 200.468 153.775 229.593 L 182.891 258.718 196.393 245.236 L 209.895 231.754 190.410 212.256 L 170.926 192.757 185.697 192.757 L 200.468 192.757 200.468 173.910 L 200.468 155.063 172.197 155.063 L 143.926 155.063 143.926 140.922 L 143.926 126.782 157.755 133.707 C 168.442 139.058,171.749 140.373,172.306 139.494 C 175.040 135.182,197.960 88.855,197.718 88.130 C 197.552 87.632,189.997 83.620,180.929 79.215 L 164.443 71.208 154.230 91.503 L 144.018 111.799 143.972 82.457 L 143.926 53.115 124.650 53.115 L 105.374 53.115 105.328 82.029 M237.671 229.034 C 211.909 306.382,190.578 369.947,190.270 370.291 C 189.961 370.634,181.049 362.249,170.465 351.657 L 151.221 332.399 172.848 310.759 L 194.475 289.120 181.190 275.855 L 167.905 262.591 146.282 284.214 L 124.658 305.838 103.024 284.217 L 81.391 262.595 68.108 275.857 L 54.825 289.120 76.452 310.760 L 98.080 332.400 76.452 354.040 L 54.825 375.680 68.108 388.942 L 81.391 402.204 103.024 380.583 L 124.658 358.961 146.282 380.585 L 167.905 402.208 181.161 388.973 C 193.634 376.519,194.335 375.647,193.026 374.201 C 192.261 373.356,191.995 372.665,192.435 372.664 C 192.875 372.664,200.570 375.117,209.535 378.114 L 225.834 383.563 245.047 325.882 C 255.614 294.157,264.508 268.478,264.811 268.816 C 265.115 269.155,273.913 295.131,284.363 326.540 L 303.363 383.647 317.025 379.074 L 330.686 374.502 344.348 379.074 L 358.009 383.647 377.009 326.540 C 387.459 295.131,396.258 269.155,396.561 268.816 C 396.864 268.478,405.758 294.156,416.324 325.879 L 435.536 383.557 453.361 377.609 C 463.164 374.337,471.185 371.380,471.185 371.038 C 471.185 370.695,459.041 334.057,444.199 289.619 C 429.357 245.181,417.213 208.192,417.213 207.422 C 417.213 206.651,425.109 182.340,434.759 153.397 C 444.410 124.454,452.174 100.641,452.012 100.479 C 451.850 100.318,443.838 97.552,434.208 94.334 L 416.698 88.482 373.909 216.866 C 350.376 287.477,330.925 345.250,330.685 345.250 C 330.446 345.250,319.939 314.309,307.337 276.493 L 284.424 207.736 302.331 154.031 L 320.238 100.325 302.375 94.364 L 284.513 88.403 237.671 229.034 M112.870 234.357 C 104.036 238.811,96.807 242.649,96.807 242.887 C 96.807 243.312,114.763 279.463,115.230 279.977 C 115.431 280.199,148.121 264.139,148.897 263.436 C 149.465 262.923,130.608 226.172,129.799 226.214 C 129.323 226.239,121.705 229.904,112.870 234.357 " stroke="none" fill-rule="evenodd" fill="black"></path></svg>