<svg width="136mm" height="120mm" version="1.1" viewBox="0 0 600 529.4117647058824" xmlns="http://www.w3.org/2000/svg"><path d="M112.870 49.310 C 104.036 53.764,96.807 57.602,96.807 57.839 C 96.807 58.265,114.763 94.416,115.230 94.930 C 115.431 95.152,148.121 79.091,148.897 78.389 C 149.465 77.876,130.608 41.125,129.799 41.167 C 129.323 41.192,121.705 44.857,112.870 49.310 M67.891 91.020 L 54.831 104.079 76.456 125.716 L 98.080 147.352 76.452 168.992 L 54.825 190.632 68.108 203.895 L 81.391 217.157 103.024 195.535 L 124.658 173.914 146.282 195.538 L 167.905 217.161 181.190 203.897 L 194.475 190.632 172.848 168.992 L 151.220 147.352 173.051 125.509 L 194.882 103.665 182.051 90.812 C 174.994 83.743,168.826 77.960,168.346 77.960 C 167.865 77.960,158.033 87.405,146.496 98.949 C 134.959 110.493,125.128 119.938,124.650 119.938 C 124.171 119.938,114.341 110.493,102.804 98.949 C 91.267 87.405,81.631 77.960,81.390 77.960 C 81.148 77.960,75.074 83.837,67.891 91.020 M242.558 214.042 L 200.603 339.682 200.535 322.762 L 200.468 305.842 172.197 305.842 L 143.926 305.842 143.926 291.701 L 143.926 277.561 157.623 284.419 C 165.156 288.192,171.516 291.278,171.756 291.278 C 172.256 291.278,197.898 240.226,197.898 239.229 C 197.898 238.867,190.381 234.818,181.194 230.232 L 164.490 221.893 154.254 242.236 L 144.018 262.579 143.972 233.237 L 143.926 203.895 125.078 203.895 L 106.231 203.895 106.185 233.665 L 106.139 263.435 96.683 244.588 C 91.481 234.222,86.675 224.875,86.003 223.817 L 84.779 221.894 68.305 230.124 C 59.244 234.651,51.712 238.462,51.567 238.594 C 51.315 238.822,76.894 290.425,77.666 291.246 C 77.871 291.464,84.382 288.478,92.135 284.610 L 106.231 277.577 106.231 291.710 L 106.231 305.842 77.960 305.842 L 49.689 305.842 49.689 324.689 L 49.689 343.537 64.460 343.537 L 79.231 343.537 59.542 363.239 L 39.854 382.942 53.117 396.225 L 66.379 409.508 95.091 380.806 C 110.882 365.020,124.184 352.104,124.650 352.104 C 125.116 352.104,138.509 365.111,154.413 381.010 L 183.328 409.916 196.599 396.666 L 209.870 383.416 206.275 379.754 C 204.299 377.739,202.874 376.091,203.109 376.091 C 203.345 376.091,208.554 377.774,214.685 379.830 L 225.832 383.569 245.046 325.885 C 255.614 294.159,264.508 268.478,264.811 268.816 C 265.115 269.155,273.913 295.131,284.363 326.540 L 303.363 383.647 317.025 379.074 L 330.686 374.502 344.348 379.074 L 358.009 383.647 377.009 326.540 C 387.459 295.131,396.258 269.155,396.561 268.816 C 396.864 268.478,405.758 294.157,416.325 325.881 L 435.538 383.562 453.052 377.709 C 462.684 374.490,470.697 371.724,470.859 371.563 C 471.020 371.402,459.016 334.866,444.182 290.372 C 429.349 245.878,417.213 208.696,417.213 207.747 C 417.213 206.798,425.109 182.340,434.759 153.397 C 444.410 124.454,452.174 100.641,452.012 100.479 C 451.850 100.318,443.838 97.552,434.208 94.334 L 416.698 88.482 373.909 216.866 C 350.376 287.477,330.925 345.250,330.685 345.250 C 330.446 345.250,319.939 314.309,307.337 276.493 L 284.424 207.736 302.331 154.031 L 320.238 100.325 302.375 94.364 L 284.513 88.403 242.558 214.042 M198.754 344.569 C 198.754 346.155,192.448 364.954,191.916 364.954 C 191.658 364.954,186.639 360.135,180.764 354.245 L 170.081 343.537 184.418 343.537 C 195.030 343.537,198.754 343.805,198.754 344.569 " stroke="none" fill-rule="evenodd" fill="black"></path></svg>