<svg width="136mm" height="120mm" version="1.1" viewBox="0 0 600 529.4117647058824" xmlns="http://www.w3.org/2000/svg"><path d="M112.870 49.310 C 104.036 53.764,96.807 57.602,96.807 57.839 C 96.807 58.265,114.763 94.416,115.230 94.930 C 115.431 95.152,148.121 79.091,148.897 78.389 C 149.465 77.876,130.608 41.125,129.799 41.167 C 129.323 41.192,121.705 44.857,112.870 49.310 M146.497 98.947 L 124.662 120.795 103.026 99.171 L 81.391 77.548 68.108 90.810 L 54.825 104.072 76.452 125.712 L 98.080 147.352 76.452 168.992 L 54.825 190.632 68.110 203.897 L 81.395 217.161 103.018 195.538 L 124.642 173.914 146.275 195.535 L 167.909 217.157 181.192 203.895 L 194.475 190.632 172.848 168.992 L 151.220 147.352 173.055 125.505 L 194.890 103.658 181.611 90.379 L 168.332 77.100 146.497 98.947 M242.558 214.042 L 200.603 339.682 200.535 322.762 L 200.468 305.842 172.197 305.842 L 143.926 305.842 143.926 291.701 L 143.926 277.561 157.623 284.419 C 165.156 288.192,171.516 291.278,171.756 291.278 C 172.256 291.278,197.898 240.226,197.898 239.229 C 197.898 238.867,190.381 234.818,181.194 230.232 L 164.490 221.893 154.254 242.236 L 144.018 262.579 143.972 233.237 L 143.926 203.895 125.078 203.895 L 106.231 203.895 106.185 233.665 L 106.139 263.435 95.901 243.089 C 90.270 231.898,85.275 222.742,84.801 222.742 C 84.327 222.742,76.618 226.406,67.670 230.885 L 51.401 239.028 64.347 264.939 C 71.467 279.190,77.461 291.028,77.666 291.246 C 77.871 291.464,84.382 288.478,92.135 284.610 L 106.231 277.577 106.231 291.710 L 106.231 305.842 77.531 305.842 L 48.832 305.842 48.832 324.689 L 48.832 343.537 64.031 343.537 L 79.231 343.537 59.539 363.243 L 39.847 382.948 53.125 396.226 L 66.402 409.504 95.521 380.375 L 124.641 351.247 153.984 380.581 L 183.328 409.916 196.599 396.666 L 209.870 383.416 206.275 379.754 C 204.299 377.739,202.874 376.091,203.109 376.091 C 203.345 376.091,208.554 377.774,214.685 379.830 L 225.832 383.569 245.046 325.885 C 255.614 294.159,264.508 268.478,264.811 268.816 C 265.115 269.155,273.913 295.131,284.363 326.540 L 303.363 383.647 317.025 379.074 L 330.686 374.502 344.348 379.074 L 358.009 383.647 377.009 326.540 C 387.459 295.131,396.258 269.155,396.561 268.816 C 396.864 268.478,405.758 294.157,416.325 325.881 L 435.538 383.562 453.052 377.709 C 462.684 374.490,470.697 371.724,470.859 371.563 C 471.020 371.402,459.016 334.866,444.182 290.372 C 429.349 245.878,417.213 208.696,417.213 207.747 C 417.213 206.798,425.109 182.340,434.759 153.397 C 444.410 124.454,452.174 100.641,452.012 100.479 C 451.850 100.318,443.838 97.552,434.208 94.334 L 416.698 88.482 373.909 216.866 C 350.376 287.477,330.925 345.250,330.685 345.250 C 330.446 345.250,319.939 314.309,307.337 276.493 L 284.424 207.736 302.331 154.031 L 320.238 100.325 302.375 94.364 L 284.513 88.403 242.558 214.042 M198.754 344.606 C 198.754 345.739,192.763 364.255,192.183 364.912 C 191.759 365.392,171.340 345.095,171.340 344.193 C 171.340 343.832,177.508 343.537,185.047 343.537 C 195.431 343.537,198.754 343.796,198.754 344.606 " stroke="none" fill-rule="evenodd" fill="black"></path></svg>