<svg width="136mm" height="120mm" version="1.1" viewBox="0 0 600 529.4117647058824" xmlns="http://www.w3.org/2000/svg"><path d="M293.416 110.518 L 230.028 173.910 148.837 173.910 L 67.646 173.910 67.877 192.543 L 68.108 211.177 130.210 211.396 L 192.313 211.616 136.642 267.292 L 80.971 322.968 94.235 336.253 L 107.499 349.538 129.139 327.910 L 150.779 306.283 150.779 353.181 C 150.779 383.939,151.075 400.079,151.638 400.079 C 152.110 400.079,189.566 381.543,234.874 358.888 L 317.252 317.697 333.179 333.400 C 341.938 342.037,357.783 357.682,368.390 368.168 L 387.674 387.232 400.939 373.947 L 414.203 360.661 353.599 300.056 L 292.994 239.452 279.507 252.938 L 266.021 266.425 277.498 277.926 L 288.976 289.428 239.153 314.342 L 189.331 339.256 189.331 303.483 L 189.331 267.709 217.389 239.660 L 245.447 211.612 349.535 211.394 L 453.623 211.177 453.854 192.543 L 454.084 173.910 369.254 173.910 C 322.598 173.910,284.424 173.629,284.424 173.284 C 284.424 172.940,306.817 150.484,334.187 123.382 L 383.949 74.105 370.376 60.615 L 356.804 47.126 293.416 110.518 M135.565 83.321 L 122.513 96.394 151.004 124.874 L 179.494 153.355 192.551 140.277 C 199.732 133.085,205.608 126.817,205.608 126.348 C 205.608 125.229,150.599 70.249,149.479 70.249 C 149.005 70.249,142.743 76.132,135.565 83.321 " stroke="none" fill-rule="evenodd" fill="black"></path></svg>