<svg width="136mm" height="120mm" version="1.1" viewBox="0 0 600 529.4117647058824" xmlns="http://www.w3.org/2000/svg"><path d="M293.419 110.515 L 230.028 173.910 148.837 173.910 L 67.646 173.910 67.877 192.543 L 68.108 211.177 130.210 211.396 L 192.313 211.616 136.846 267.088 L 81.379 322.560 94.663 335.824 L 107.948 349.088 129.364 327.686 L 150.779 306.283 150.779 353.181 C 150.779 383.939,151.075 400.079,151.638 400.079 C 152.110 400.079,189.568 381.542,234.877 358.887 L 317.258 317.694 352.036 352.464 L 386.814 387.235 400.296 373.732 L 413.779 360.230 353.386 299.842 L 292.993 239.453 279.507 252.939 L 266.021 266.425 277.498 277.926 L 288.976 289.428 239.153 314.342 L 189.331 339.256 189.331 303.483 L 189.331 267.709 217.392 239.657 L 245.454 211.605 349.324 211.605 L 453.194 211.605 453.194 192.757 L 453.194 173.910 368.809 173.910 C 322.398 173.910,284.424 173.622,284.424 173.270 C 284.424 172.918,306.687 150.366,333.896 123.154 L 383.367 73.677 370.089 60.398 L 356.810 47.120 293.419 110.515 M135.990 82.896 C 129.046 89.852,123.365 95.926,123.365 96.394 C 123.365 97.514,178.374 152.493,179.494 152.493 C 180.613 152.493,205.608 127.468,205.608 126.348 C 205.608 125.228,150.599 70.249,149.479 70.249 C 149.004 70.249,142.935 75.940,135.990 82.896 " stroke="none" fill-rule="evenodd" fill="black"></path></svg>