<svg width="136mm" height="120mm" version="1.1" viewBox="0 0 600 529.4117647058824" xmlns="http://www.w3.org/2000/svg"><path d="M145.851 104.090 C 127.358 141.079,112.228 171.726,112.228 172.194 C 112.228 172.900,143.841 189.331,145.199 189.331 C 145.438 189.331,151.226 178.151,158.061 164.486 L 170.489 139.642 211.608 139.642 L 252.727 139.642 252.727 243.303 C 252.727 300.316,252.437 346.964,252.084 346.964 C 251.731 346.964,239.746 343.065,225.451 338.300 C 211.157 333.535,199.158 329.969,198.788 330.376 C 198.087 331.146,186.638 365.151,186.989 365.422 C 187.099 365.507,210.127 373.203,238.163 382.525 C 266.198 391.847,289.618 399.652,290.207 399.868 C 291.061 400.182,291.278 373.839,291.278 269.952 L 291.278 139.642 351.675 139.642 L 412.073 139.642 412.073 120.795 L 412.073 101.947 300.699 101.947 L 189.325 101.947 201.371 77.866 C 207.997 64.622,213.299 53.678,213.154 53.547 C 212.801 53.227,179.987 36.838,179.699 36.838 C 179.575 36.838,164.343 67.102,145.851 104.090 " stroke="none" fill-rule="evenodd" fill="black"></path></svg>