<svg width="136mm" height="120mm" version="1.1" viewBox="0 0 600 529.4117647058824" xmlns="http://www.w3.org/2000/svg"><path d="M230.452 69.821 L 230.452 101.947 188.902 101.947 L 147.352 101.947 147.352 120.795 L 147.352 139.642 188.902 139.642 L 230.452 139.642 230.452 158.489 L 230.452 177.337 179.479 177.337 L 128.505 177.337 128.505 196.184 L 128.505 215.032 179.479 215.032 L 230.452 215.032 230.452 315.266 L 230.452 415.500 249.300 415.500 L 268.147 415.500 268.147 372.236 L 268.147 328.973 303.734 328.973 C 323.567 328.973,343.001 328.562,347.635 328.046 C 371.915 325.338,392.898 311.947,405.246 291.278 C 418.287 269.449,418.907 240.112,406.804 217.602 C 397.477 200.256,380.549 186.385,361.956 180.852 C 352.179 177.943,342.468 177.351,304.343 177.344 L 268.147 177.337 268.147 158.489 L 268.147 139.642 321.262 139.642 L 374.378 139.642 374.378 120.795 L 374.378 101.947 321.262 101.947 L 268.147 101.947 268.147 69.821 L 268.147 37.695 249.300 37.695 L 230.452 37.695 230.452 69.821 M345.678 215.911 C 360.638 218.021,373.729 230.175,376.841 244.844 C 378.705 253.629,377.481 262.955,373.418 270.919 C 370.590 276.463,362.395 284.108,356.147 287.032 C 348.086 290.804,340.746 291.358,302.415 291.088 L 268.575 290.850 268.352 252.941 L 268.129 215.032 303.905 215.049 C 323.582 215.058,342.380 215.446,345.678 215.911 M154.500 264.505 L 138.089 272.758 156.858 310.289 C 167.181 330.931,176.016 347.820,176.491 347.820 C 176.966 347.820,184.675 344.156,193.623 339.677 L 209.891 331.535 191.042 293.844 C 180.675 273.114,171.905 256.175,171.552 256.202 C 171.200 256.229,163.527 259.965,154.500 264.505 " stroke="none" fill-rule="evenodd" fill="black"></path></svg>