<svg width="136mm" height="120mm" version="1.1" viewBox="0 0 600 529.4117647058824" xmlns="http://www.w3.org/2000/svg"><path d="M230.452 69.821 L 230.452 101.947 188.902 101.947 L 147.352 101.947 147.352 120.795 L 147.352 139.642 188.902 139.642 L 230.452 139.642 230.452 158.489 L 230.452 177.337 179.479 177.337 L 128.505 177.337 128.505 196.184 L 128.505 215.032 179.479 215.032 L 230.452 215.032 230.452 315.266 L 230.452 415.500 249.300 415.500 L 268.147 415.500 268.147 372.236 L 268.147 328.973 303.734 328.973 C 323.567 328.973,343.001 328.562,347.635 328.046 C 357.905 326.901,369.522 323.246,377.195 318.748 C 384.475 314.479,386.335 313.041,393.106 306.442 C 413.655 286.413,420.813 256.185,411.504 228.739 C 403.853 206.180,384.626 187.598,361.956 180.852 C 352.179 177.943,342.468 177.351,304.343 177.344 L 268.147 177.337 268.147 158.489 L 268.147 139.642 321.262 139.642 L 374.378 139.642 374.378 120.795 L 374.378 101.947 321.262 101.947 L 268.147 101.947 268.147 69.821 L 268.147 37.695 249.300 37.695 L 230.452 37.695 230.452 69.821 M345.243 215.917 C 365.840 218.590,380.367 238.138,377.159 258.864 C 375.326 270.709,366.920 281.991,356.186 287.014 C 348.081 290.807,340.795 291.359,302.415 291.088 L 268.575 290.850 268.352 252.941 L 268.129 215.032 303.477 215.058 C 322.918 215.073,341.713 215.459,345.243 215.917 M154.849 264.342 C 146.014 268.796,138.785 272.825,138.785 273.296 C 138.785 274.971,175.643 347.820,176.491 347.820 C 176.966 347.820,184.675 344.156,193.623 339.677 L 209.891 331.535 191.042 293.844 C 180.675 273.114,171.905 256.174,171.552 256.199 C 171.200 256.224,163.683 259.888,154.849 264.342 " stroke="none" fill-rule="evenodd" fill="black"></path></svg>