<svg width="136mm" height="120mm" version="1.1" viewBox="0 0 600 529.4117647058824" xmlns="http://www.w3.org/2000/svg"><path d="M230.452 69.821 L 230.452 101.947 188.902 101.947 L 147.352 101.947 147.352 120.795 L 147.352 139.642 188.902 139.642 L 230.452 139.642 230.452 158.489 L 230.452 177.337 179.479 177.337 L 128.505 177.337 128.505 196.184 L 128.505 215.032 179.479 215.032 L 230.452 215.032 230.452 315.266 L 230.452 415.500 249.300 415.500 L 268.147 415.500 268.147 372.319 L 268.147 329.139 309.055 328.737 C 341.655 328.417,351.097 328.070,355.551 327.026 C 379.760 321.354,398.370 306.310,408.657 284.098 C 412.963 274.798,414.661 267.805,415.233 257.010 C 417.154 220.764,394.338 189.680,358.529 179.759 C 351.972 177.943,349.870 177.847,309.911 177.541 L 268.147 177.221 268.147 158.431 L 268.147 139.642 321.262 139.642 L 374.378 139.642 374.378 120.795 L 374.378 101.947 321.262 101.947 L 268.147 101.947 268.147 69.821 L 268.147 37.695 249.300 37.695 L 230.452 37.695 230.452 69.821 M348.490 216.326 C 351.449 217.024,355.469 218.410,357.422 219.406 C 362.067 221.776,369.696 229.039,372.418 233.684 C 383.660 252.866,376.449 276.944,356.511 286.801 L 350.054 289.993 309.101 290.239 L 268.147 290.484 268.147 252.758 L 268.147 215.032 305.628 215.044 C 335.702 215.055,344.172 215.308,348.490 216.326 M154.849 264.342 C 146.014 268.796,138.785 272.825,138.785 273.296 C 138.785 274.971,175.643 347.820,176.491 347.820 C 176.966 347.820,184.675 344.156,193.623 339.677 L 209.891 331.535 191.042 293.844 C 180.675 273.114,171.905 256.174,171.552 256.199 C 171.200 256.224,163.683 259.888,154.849 264.342 " stroke="none" fill-rule="evenodd" fill="black"></path></svg>