<svg width="136mm" height="120mm" version="1.1" viewBox="0 0 600 529.4117647058824" xmlns="http://www.w3.org/2000/svg"><path d="M117.368 90.810 L 117.368 109.658 175.624 109.658 L 233.880 109.658 162.774 251.869 C 123.665 330.085,91.667 394.242,91.667 394.439 C 91.667 394.906,246.103 343.499,246.931 342.757 C 247.786 341.989,236.277 307.555,235.165 307.555 C 234.680 307.555,219.259 312.567,200.896 318.692 C 182.534 324.818,167.214 329.829,166.853 329.829 C 166.493 329.829,179.499 303.229,195.756 270.717 L 225.315 211.605 271.148 211.605 L 316.981 211.605 272.003 301.557 C 247.265 351.030,227.025 391.895,227.025 392.367 C 227.025 392.935,261.451 393.225,328.973 393.225 C 385.044 393.225,430.920 393.033,430.920 392.799 C 430.920 392.565,420.242 371.012,407.191 344.905 L 383.461 297.437 366.496 305.928 L 349.531 314.418 359.384 334.111 C 364.804 344.941,369.238 354.192,369.238 354.667 C 369.238 355.235,355.326 355.531,328.544 355.531 C 306.163 355.531,287.851 355.337,287.851 355.101 C 287.851 354.864,308.091 314.193,332.828 264.720 C 357.565 215.248,377.805 174.577,377.805 174.340 C 377.805 174.104,347.735 173.910,310.984 173.910 L 244.162 173.910 260.219 141.784 L 276.275 109.658 344.174 109.658 L 412.073 109.658 412.073 90.810 L 412.073 71.963 264.720 71.963 L 117.368 71.963 117.368 90.810 " stroke="none" fill-rule="evenodd" fill="black"></path></svg>