<svg width="136mm" height="120mm" version="1.1" viewBox="0 0 600 529.4117647058824" xmlns="http://www.w3.org/2000/svg"><path d="M182.261 129.790 L 139.643 215.032 266.436 215.032 L 393.228 215.032 365.811 160.203 C 350.732 130.047,338.204 105.374,337.973 105.374 C 337.741 105.374,330.067 109.110,320.919 113.677 L 304.288 121.980 317.915 149.225 C 325.410 164.210,331.543 176.665,331.543 176.903 C 331.543 177.142,302.244 177.337,266.434 177.337 C 230.624 177.337,201.325 177.143,201.325 176.906 C 201.325 176.669,214.261 150.604,230.072 118.984 C 245.884 87.365,258.702 61.387,258.558 61.256 C 258.206 60.937,225.391 44.548,225.104 44.548 C 224.981 44.548,205.702 82.907,182.261 129.790 M238.165 237.732 L 224.901 251.016 243.735 269.864 L 262.568 288.712 275.849 275.431 L 289.130 262.149 270.280 243.298 L 251.429 224.447 238.165 237.732 M332.400 268.105 C 332.400 276.563,331.969 285.526,331.442 288.023 C 330.246 293.691,326.632 301.104,321.685 308.036 C 317.799 313.482,305.989 325.052,302.772 326.565 C 301.284 327.265,290.289 322.055,236.594 295.206 C 201.178 277.496,171.906 263.007,171.546 263.007 C 171.186 263.007,167.138 270.524,162.551 279.713 L 154.212 296.418 207.537 323.084 L 260.863 349.750 254.439 352.245 C 224.132 364.020,181.405 372.041,141.784 373.394 L 125.507 373.950 125.276 392.899 L 125.046 411.848 135.128 411.517 C 186.262 409.839,227.859 402.321,267.290 387.632 C 278.113 383.601,291.701 377.589,298.922 373.637 L 303.567 371.095 342.065 390.348 C 363.239 400.937,380.670 409.482,380.801 409.337 C 381.505 408.560,397.568 375.868,397.345 375.666 C 397.200 375.533,383.835 368.806,367.645 360.717 L 338.210 346.009 343.729 340.275 C 354.926 328.642,362.821 315.434,367.241 300.939 C 369.389 293.895,369.557 292.133,369.893 273.073 L 370.252 252.727 351.326 252.727 L 332.400 252.727 332.400 268.105 " stroke="none" fill-rule="evenodd" fill="black"></path></svg>