<svg width="136mm" height="120mm" version="1.1" viewBox="0 0 600 529.4117647058824" xmlns="http://www.w3.org/2000/svg"><path d="M182.261 129.790 L 139.643 215.032 266.436 215.032 L 393.228 215.032 365.811 160.203 C 350.732 130.047,338.005 105.374,337.530 105.374 C 337.055 105.374,329.345 109.039,320.397 113.517 L 304.128 121.660 317.835 149.065 C 325.374 164.138,331.543 176.665,331.543 176.903 C 331.543 177.142,302.244 177.337,266.434 177.337 C 230.624 177.337,201.325 177.143,201.325 176.906 C 201.325 176.669,214.261 150.604,230.072 118.984 C 245.884 87.365,258.702 61.387,258.558 61.256 C 258.206 60.937,225.391 44.548,225.104 44.548 C 224.981 44.548,205.702 82.907,182.261 129.790 M238.165 237.732 L 224.901 251.016 243.735 269.864 L 262.568 288.712 275.849 275.431 L 289.130 262.149 270.280 243.298 L 251.429 224.447 238.165 237.732 M332.228 270.503 C 331.882 291.325,331.204 293.997,323.322 305.628 C 318.751 312.373,307.336 323.998,303.014 326.312 C 301.137 327.316,295.995 324.908,236.590 295.204 C 201.176 277.495,171.906 263.007,171.546 263.007 C 171.186 263.007,167.138 270.524,162.551 279.713 L 154.212 296.418 207.505 323.068 L 260.799 349.717 255.692 351.802 C 225.828 363.992,173.411 373.502,136.001 373.517 L 125.078 373.521 125.078 392.499 L 125.078 411.477 143.283 410.949 C 199.735 409.311,252.479 396.988,295.127 375.473 L 303.687 371.155 342.125 390.378 C 363.266 400.950,380.670 409.482,380.801 409.337 C 381.505 408.560,397.568 375.868,397.345 375.666 C 397.200 375.533,383.844 368.811,367.666 360.727 L 338.252 346.030 344.237 339.729 C 354.934 328.468,363.418 313.973,367.583 299.845 C 369.235 294.242,369.528 290.816,369.875 273.073 L 370.273 252.727 351.398 252.727 L 332.524 252.727 332.228 270.503 " stroke="none" fill-rule="evenodd" fill="black"></path></svg>