<svg width="136mm" height="120mm" version="1.1" viewBox="0 0 600 529.4117647058824" xmlns="http://www.w3.org/2000/svg"><path d="M182.261 129.790 L 139.643 215.032 266.436 215.032 L 393.228 215.032 365.811 160.203 C 350.732 130.047,338.204 105.374,337.973 105.374 C 337.741 105.374,330.067 109.110,320.919 113.677 L 304.288 121.980 317.915 149.225 C 325.410 164.210,331.543 176.665,331.543 176.903 C 331.543 177.142,302.244 177.337,266.434 177.337 C 230.624 177.337,201.325 177.143,201.325 176.906 C 201.325 176.669,214.261 150.604,230.072 118.984 C 245.884 87.365,258.702 61.387,258.558 61.256 C 258.206 60.937,225.391 44.548,225.104 44.548 C 224.981 44.548,205.702 82.907,182.261 129.790 M238.165 237.732 L 224.901 251.016 243.735 269.864 L 262.568 288.712 275.849 275.431 L 289.130 262.149 270.280 243.298 L 251.429 224.447 238.165 237.732 M332.389 268.790 C 332.376 290.182,330.703 296.204,321.338 308.575 C 317.016 314.285,305.897 325.073,302.835 326.529 C 301.427 327.198,289.252 321.474,236.102 295.159 C 200.345 277.456,170.988 263.075,170.863 263.203 C 170.321 263.757,154.206 295.341,154.206 295.851 C 154.206 296.161,178.204 308.416,207.535 323.082 L 260.863 349.750 254.439 352.238 C 224.272 363.926,181.211 372.081,143.926 373.167 C 135.209 373.421,127.202 373.807,126.132 374.024 L 124.188 374.419 124.419 393.032 L 124.650 411.644 136.644 411.386 C 196.393 410.097,258.841 395.571,298.922 373.637 L 303.567 371.095 342.065 390.348 C 363.239 400.937,380.670 409.482,380.801 409.337 C 381.505 408.560,397.568 375.868,397.345 375.666 C 397.200 375.533,383.844 368.811,367.666 360.727 L 338.252 346.030 344.155 339.816 C 357.602 325.659,366.219 309.418,369.194 292.620 C 369.689 289.824,370.094 279.704,370.094 270.132 L 370.094 252.727 351.247 252.727 L 332.400 252.727 332.389 268.790 " stroke="none" fill-rule="evenodd" fill="black"></path></svg>