<svg width="136mm" height="120mm" version="1.1" viewBox="0 0 600 529.4117647058824" xmlns="http://www.w3.org/2000/svg"><path d="M238.163 60.397 L 238.163 83.100 194.471 83.100 L 150.779 83.100 150.779 101.947 L 150.779 120.795 194.471 120.795 L 238.163 120.795 238.163 149.066 L 238.163 177.337 156.776 177.337 L 75.390 177.337 75.390 196.184 L 75.390 215.032 156.776 215.032 L 238.163 215.032 238.163 243.731 L 238.163 272.431 194.454 272.431 L 150.746 272.431 150.977 291.064 L 151.208 309.697 194.685 309.919 L 238.163 310.141 238.163 362.820 L 238.163 415.500 257.010 415.500 L 275.857 415.500 275.857 362.812 L 275.857 310.125 284.210 310.112 C 296.697 310.092,312.072 308.624,320.319 306.666 C 352.741 298.965,380.240 277.642,395.265 248.550 C 400.062 239.263,402.164 233.654,404.777 223.170 L 406.699 215.460 433.802 215.234 L 460.905 215.008 460.905 196.172 L 460.905 177.337 433.607 177.337 L 406.309 177.337 405.795 173.586 C 405.091 168.454,399.654 152.444,396.466 146.118 C 386.140 125.630,368.156 107.290,347.785 96.474 C 330.496 87.293,317.046 84.087,292.777 83.359 L 275.857 82.852 275.857 60.273 L 275.857 37.695 257.010 37.695 L 238.163 37.695 238.163 60.397 M312.695 123.160 C 333.862 128.577,350.685 141.512,361.022 160.319 C 363.765 165.308,367.524 174.731,367.524 176.614 C 367.524 177.012,346.899 177.337,321.691 177.337 L 275.857 177.337 275.857 148.950 L 275.857 120.564 291.064 121.040 C 301.939 121.380,308.100 121.984,312.695 123.160 M367.216 217.642 C 366.366 221.895,361.547 232.188,357.609 238.163 C 353.477 244.433,344.393 253.772,337.968 258.356 C 325.460 267.280,311.579 271.294,290.339 272.129 L 275.857 272.698 275.857 243.865 L 275.857 215.032 321.798 215.032 L 367.738 215.032 367.216 217.642 " stroke="none" fill-rule="evenodd" fill="black"></path></svg>