<svg width="136mm" height="120mm" version="1.1" viewBox="0 0 600 529.4117647058824" xmlns="http://www.w3.org/2000/svg"><path d="M173.910 60.397 L 173.910 79.673 190.975 79.673 L 208.040 79.673 187.548 141.135 C 176.278 174.938,167.057 202.888,167.056 203.245 C 167.056 203.602,181.995 203.929,200.254 203.972 C 230.216 204.042,232.852 204.158,227.312 205.163 C 201.818 209.789,180.234 224.780,166.849 247.158 C 163.373 252.970,158.914 263.728,158.031 268.433 L 157.442 271.574 145.115 271.574 L 132.788 271.574 132.788 290.398 L 132.788 309.222 144.852 309.459 L 156.916 309.697 159.275 316.979 C 163.820 331.010,170.565 342.078,180.711 352.155 C 192.042 363.409,205.035 370.798,220.852 374.982 C 228.013 376.876,230.951 377.181,242.018 377.181 C 253.057 377.181,256.030 376.874,263.109 375.001 C 283.565 369.588,300.744 357.771,312.609 340.953 C 318.564 332.512,321.019 327.660,324.305 317.836 L 327.027 309.697 339.137 309.459 L 351.247 309.222 351.247 290.398 L 351.247 271.574 338.965 271.574 L 326.684 271.574 325.227 266.220 C 322.901 257.665,315.842 244.325,309.448 236.399 C 296.304 220.105,277.660 209.115,256.582 205.234 C 249.998 204.022,250.792 203.981,276.714 204.211 C 302.649 204.441,304.021 204.536,311.943 206.665 C 335.350 212.956,354.758 228.847,365.582 250.585 C 375.159 269.819,376.542 293.834,369.277 314.768 C 358.858 344.791,329.949 367.116,298.045 369.776 L 291.278 370.341 291.278 389.191 L 291.278 408.042 299.598 407.457 C 351.092 403.838,395.143 367.170,407.814 317.380 C 412.886 297.450,413.023 277.862,408.229 258.099 C 397.780 215.019,363.432 180.646,319.837 169.644 L 316.270 168.744 337.185 106.010 C 348.689 71.507,358.101 42.792,358.101 42.199 C 358.101 41.340,339.409 41.122,266.005 41.122 L 173.910 41.122 173.910 60.397 M305.842 80.316 C 305.842 80.669,299.449 100.137,291.635 123.579 L 277.428 166.200 248.372 166.200 C 232.391 166.200,219.315 165.911,219.315 165.557 C 219.315 165.204,225.708 145.736,233.522 122.294 L 247.729 79.673 276.785 79.673 C 292.767 79.673,305.842 79.962,305.842 80.316 M222.742 258.723 L 222.742 271.574 209.892 271.574 C 202.824 271.574,197.041 271.366,197.041 271.111 C 197.041 269.744,200.835 263.570,204.255 259.372 C 207.706 255.136,219.853 245.873,221.957 245.873 C 222.398 245.873,222.742 251.511,222.742 258.723 M267.210 248.822 C 273.438 252.606,281.854 261.373,284.757 267.102 L 287.023 271.574 273.730 271.574 L 260.437 271.574 260.437 258.723 C 260.437 249.815,260.731 245.873,261.396 245.873 C 261.923 245.873,264.539 247.200,267.210 248.822 M222.742 322.548 C 222.742 329.851,222.416 335.826,222.018 335.826 C 220.548 335.826,210.743 328.968,207.321 325.546 C 203.446 321.671,197.041 312.247,197.041 310.421 C 197.041 309.507,199.698 309.269,209.892 309.269 L 222.742 309.269 222.742 322.548 M286.995 309.726 C 286.995 311.990,281.315 320.275,276.379 325.211 C 271.443 330.147,263.158 335.826,260.894 335.826 C 260.224 335.826,260.335 310.513,261.008 309.840 C 261.681 309.167,286.995 309.055,286.995 309.726 " stroke="none" fill-rule="evenodd" fill="black"></path></svg>