<svg width="136mm" height="120mm" version="1.1" viewBox="0 0 600 529.4117647058824" xmlns="http://www.w3.org/2000/svg"><path d="M173.910 60.826 L 173.910 79.673 190.975 79.673 L 208.040 79.673 187.548 141.135 C 176.278 174.938,167.057 202.888,167.056 203.245 C 167.056 203.602,182.573 203.943,201.539 204.003 C 226.124 204.080,234.300 204.331,230.024 204.876 C 217.784 206.438,203.752 211.907,192.329 219.569 C 185.841 223.920,174.461 235.363,170.211 241.807 C 164.653 250.235,160.633 259.324,157.141 271.360 C 156.910 272.153,153.600 272.431,144.364 272.431 L 131.898 272.431 132.129 291.064 L 132.360 309.697 144.799 309.933 L 157.238 310.169 158.878 315.930 C 165.017 337.497,182.605 358.205,203.486 368.451 C 216.579 374.876,226.474 377.196,241.161 377.287 C 254.077 377.367,261.562 376.120,272.347 372.091 C 297.024 362.872,316.987 341.725,324.814 316.511 L 326.796 310.125 339.022 310.125 L 351.247 310.125 351.247 291.302 L 351.247 272.478 339.175 272.240 L 327.102 272.002 324.281 263.687 C 313.411 231.639,286.418 209.302,253.155 204.828 C 248.837 204.248,255.072 204.094,275.429 204.279 C 298.329 204.488,304.758 204.807,309.269 205.959 C 335.288 212.603,355.603 229.100,366.314 252.284 C 372.206 265.035,374.609 279.439,373.390 294.693 C 370.237 334.153,337.741 366.418,297.746 369.799 L 291.278 370.346 291.278 389.068 L 291.278 407.789 296.204 407.774 C 305.503 407.746,320.721 404.653,332.663 400.363 C 360.930 390.211,386.099 367.591,399.232 340.538 C 424.724 288.024,410.128 225.938,364.098 191.090 C 349.866 180.315,339.132 175.230,317.702 169.111 C 316.496 168.766,319.433 159.256,337.191 105.991 C 348.691 71.498,358.101 42.984,358.101 42.627 C 358.101 42.270,316.658 41.978,266.005 41.978 L 173.910 41.978 173.910 60.826 M305.842 80.316 C 305.842 80.669,299.449 100.137,291.635 123.579 L 277.428 166.200 248.372 166.200 C 232.391 166.200,219.315 165.911,219.315 165.557 C 219.315 165.204,225.708 145.736,233.522 122.294 L 247.729 79.673 276.785 79.673 C 292.767 79.673,305.842 79.962,305.842 80.316 M222.742 259.152 L 222.742 272.431 209.892 272.431 C 200.178 272.431,197.043 272.169,197.049 271.360 C 197.066 269.054,202.506 260.969,207.194 256.280 C 211.467 252.007,220.160 245.949,222.099 245.892 C 222.453 245.881,222.742 251.848,222.742 259.152 M267.800 249.195 C 275.842 254.476,284.571 264.423,286.499 270.503 L 287.110 272.431 274.202 272.431 L 261.293 272.431 261.293 259.152 C 261.293 251.848,261.619 245.873,262.017 245.873 C 262.416 245.873,265.018 247.368,267.800 249.195 M222.742 322.976 C 222.742 330.044,222.416 335.826,222.018 335.826 C 220.521 335.826,211.032 329.106,207.397 325.471 C 203.761 321.836,197.041 312.347,197.041 310.849 C 197.041 310.451,202.824 310.125,209.892 310.125 L 222.742 310.125 222.742 322.976 M284.890 314.335 C 282.068 319.904,274.391 328.094,267.980 332.375 C 265.137 334.273,262.470 335.826,262.053 335.826 C 261.635 335.826,261.293 330.044,261.293 322.976 L 261.293 310.125 274.158 310.125 L 287.023 310.125 284.890 314.335 " stroke="none" fill-rule="evenodd" fill="black"></path></svg>