<svg width="136mm" height="120mm" version="1.1" viewBox="0 0 600 529.4117647058824" xmlns="http://www.w3.org/2000/svg"><path d="M173.910 60.826 L 173.910 79.673 190.975 79.673 L 208.040 79.673 187.548 141.135 C 176.278 174.938,167.057 202.888,167.056 203.245 C 167.056 203.602,182.573 203.943,201.539 204.003 C 226.124 204.080,234.300 204.331,230.024 204.876 C 216.737 206.571,200.275 213.397,189.158 221.821 C 174.698 232.779,163.308 249.493,158.465 266.862 L 157.031 272.002 144.465 272.239 L 131.899 272.477 132.129 291.087 L 132.360 309.697 144.905 309.934 L 157.451 310.170 158.005 313.125 C 158.822 317.481,163.932 329.748,167.141 335.055 C 179.189 354.985,197.867 368.874,220.852 374.998 C 231.703 377.888,249.375 378.243,259.924 375.782 C 291.526 368.410,315.510 346.483,324.837 316.438 L 326.796 310.125 339.022 310.125 L 351.247 310.125 351.247 291.302 L 351.247 272.478 339.153 272.240 L 327.058 272.002 324.565 264.349 C 314.174 232.454,286.392 209.298,253.155 204.828 C 248.831 204.247,255.044 204.092,275.429 204.273 C 301.073 204.500,304.368 204.695,310.891 206.367 C 351.150 216.690,377.348 254.024,373.444 295.512 C 369.765 334.617,337.384 366.496,298.007 369.780 L 291.278 370.341 291.278 389.065 L 291.278 407.789 295.999 407.789 C 306.621 407.789,325.358 403.560,337.937 398.323 C 362.784 387.980,385.081 367.571,397.834 343.501 C 418.444 304.601,416.168 257.428,391.904 220.600 C 375.517 195.727,349.036 177.003,319.837 169.643 L 316.270 168.744 337.185 106.010 C 348.689 71.507,358.101 42.984,358.101 42.627 C 358.101 42.270,316.658 41.978,266.005 41.978 L 173.910 41.978 173.910 60.826 M305.842 80.316 C 305.842 80.669,299.449 100.137,291.635 123.579 L 277.428 166.200 248.372 166.200 C 232.391 166.200,219.315 165.911,219.315 165.557 C 219.315 165.204,225.708 145.736,233.522 122.294 L 247.729 79.673 276.785 79.673 C 292.767 79.673,305.842 79.962,305.842 80.316 M222.742 259.152 L 222.742 272.431 209.892 272.431 C 200.178 272.431,197.043 272.169,197.049 271.360 C 197.067 269.031,202.527 260.947,207.321 256.153 C 211.702 251.773,220.143 245.905,222.099 245.881 C 222.453 245.877,222.742 251.848,222.742 259.152 M266.908 248.522 C 272.811 252.211,280.550 259.963,284.048 265.689 C 285.668 268.342,286.995 270.944,286.995 271.472 C 286.995 272.136,283.052 272.431,274.144 272.431 L 261.293 272.431 261.293 259.152 C 261.293 251.848,261.604 245.873,261.982 245.873 C 262.361 245.873,264.578 247.065,266.908 248.522 M222.742 322.976 C 222.742 330.044,222.453 335.825,222.099 335.823 C 221.128 335.818,215.960 332.585,211.361 329.106 C 205.961 325.021,197.041 313.491,197.041 310.596 C 197.041 310.337,202.824 310.125,209.892 310.125 L 222.742 310.125 222.742 322.976 M286.388 311.625 C 285.250 314.708,281.457 320.073,277.227 324.582 C 273.246 328.825,263.776 335.826,262.017 335.826 C 261.619 335.826,261.293 330.044,261.293 322.976 L 261.293 310.125 274.117 310.125 C 285.970 310.125,286.899 310.239,286.388 311.625 " stroke="none" fill-rule="evenodd" fill="black"></path></svg>