<svg width="136mm" height="120mm" version="1.1" viewBox="0 0 600 529.4117647058824" xmlns="http://www.w3.org/2000/svg"><path d="M317.836 83.100 L 317.836 113.084 298.985 113.084 L 280.134 113.084 289.989 93.387 C 295.410 82.554,299.845 73.394,299.845 73.031 C 299.845 72.668,292.327 68.618,283.139 64.031 L 266.433 55.691 232.571 123.412 C 213.946 160.658,198.879 191.402,199.088 191.731 C 199.681 192.667,232.049 208.583,232.463 208.142 C 232.666 207.926,239.240 194.926,247.071 179.253 L 261.310 150.756 289.359 150.982 L 317.407 151.208 317.640 167.220 L 317.873 183.233 267.692 283.614 C 240.092 338.824,217.627 384.102,217.770 384.231 C 218.548 384.935,251.237 400.994,251.440 400.772 C 251.573 400.626,270.712 362.436,293.971 315.906 L 336.259 231.304 378.660 316.120 C 401.981 362.768,421.356 400.936,421.716 400.936 C 422.696 400.936,454.908 384.718,454.908 384.224 C 454.908 383.990,432.548 339.080,405.219 284.424 L 355.531 185.050 355.531 167.915 L 355.531 150.779 394.939 150.779 L 434.347 150.779 434.347 131.932 L 434.347 113.084 394.939 113.084 L 355.531 113.084 355.531 83.100 L 355.531 53.115 336.683 53.115 L 317.836 53.115 317.836 83.100 M111.578 130.439 L 43.683 198.338 56.968 211.602 L 70.252 224.866 88.241 206.892 L 106.231 188.918 106.231 288.930 L 106.231 388.942 125.078 388.942 L 143.926 388.942 143.926 270.079 L 143.926 151.216 174.977 120.156 L 206.029 89.096 192.751 75.818 L 179.473 62.540 111.578 130.439 " stroke="none" fill-rule="evenodd" fill="black"></path></svg>