<svg width="136mm" height="120mm" version="1.1" viewBox="0 0 600 529.4117647058824" xmlns="http://www.w3.org/2000/svg"><path d="M316.979 83.100 L 316.979 113.084 298.556 113.084 L 280.134 113.084 289.989 93.387 C 295.410 82.554,299.845 73.394,299.845 73.031 C 299.845 72.668,292.327 68.618,283.139 64.031 L 266.433 55.691 232.571 123.412 C 213.946 160.658,198.879 191.402,199.088 191.731 C 199.681 192.667,232.049 208.583,232.463 208.142 C 232.666 207.926,239.237 194.931,247.066 179.264 L 261.299 150.779 289.139 150.779 L 316.979 150.779 316.979 167.915 L 316.979 185.050 267.267 284.470 C 239.926 339.152,217.726 384.160,217.935 384.489 C 218.529 385.425,250.897 401.340,251.312 400.900 C 251.515 400.684,270.719 362.423,293.986 315.875 L 336.290 231.242 378.961 316.089 C 402.430 362.755,421.798 400.936,422.001 400.936 C 422.791 400.936,454.908 384.625,454.908 384.224 C 454.908 383.990,432.548 339.080,405.219 284.424 L 355.531 185.050 355.531 167.915 L 355.531 150.779 394.939 150.779 L 434.347 150.779 434.347 131.932 L 434.347 113.084 394.939 113.084 L 355.531 113.084 355.531 83.100 L 355.531 53.115 336.255 53.115 L 316.979 53.115 316.979 83.100 M110.943 130.218 L 43.269 197.896 56.757 211.384 L 70.245 224.873 87.810 207.324 L 105.374 189.775 105.374 289.358 L 105.374 388.942 124.650 388.942 L 143.926 388.942 143.926 270.079 L 143.926 151.216 174.974 120.160 L 206.022 89.103 192.760 75.821 C 185.467 68.516,179.301 62.539,179.059 62.539 C 178.816 62.539,148.164 92.994,110.943 130.218 " stroke="none" fill-rule="evenodd" fill="black"></path></svg>