<svg width="136mm" height="120mm" version="1.1" viewBox="0 0 600 529.4117647058824" xmlns="http://www.w3.org/2000/svg"><path d="M316.979 83.100 L 316.979 113.084 298.556 113.084 L 280.134 113.084 289.989 93.387 C 295.410 82.554,299.845 73.394,299.845 73.031 C 299.845 72.668,292.327 68.618,283.139 64.031 L 266.433 55.691 232.571 123.412 C 213.946 160.658,198.879 191.402,199.088 191.731 C 199.681 192.667,232.049 208.583,232.463 208.142 C 232.666 207.926,239.237 194.931,247.066 179.264 L 261.299 150.779 289.139 150.779 L 316.979 150.779 316.979 167.915 L 316.979 185.050 267.290 284.424 C 239.962 339.080,217.602 383.990,217.602 384.224 C 217.602 384.718,249.814 400.936,250.794 400.936 C 251.154 400.936,270.529 362.768,293.849 316.120 L 336.250 231.304 378.539 315.906 C 401.798 362.436,420.994 400.684,421.198 400.900 C 421.613 401.340,453.980 385.425,454.574 384.489 C 454.783 384.160,432.584 339.152,405.242 284.470 L 355.531 185.050 355.531 167.915 L 355.531 150.779 394.939 150.779 L 434.347 150.779 434.347 131.932 L 434.347 113.084 394.939 113.084 L 355.531 113.084 355.531 83.100 L 355.531 53.115 336.255 53.115 L 316.979 53.115 316.979 83.100 M111.578 130.439 L 43.683 198.338 56.968 211.602 L 70.252 224.866 88.241 206.892 L 106.231 188.918 106.231 288.930 L 106.231 388.942 125.078 388.942 L 143.926 388.942 143.926 270.079 L 143.926 151.216 174.977 120.156 L 206.029 89.096 192.751 75.818 L 179.473 62.540 111.578 130.439 " stroke="none" fill-rule="evenodd" fill="black"></path></svg>