<svg width="136mm" height="120mm" version="1.1" viewBox="0 0 600 529.4117647058824" xmlns="http://www.w3.org/2000/svg"><path d="M332.400 100.234 L 332.400 128.505 298.560 128.505 L 264.720 128.505 264.720 147.352 L 264.720 166.200 298.560 166.200 L 332.400 166.200 332.400 190.616 L 332.400 215.032 304.129 215.032 L 275.857 215.032 275.857 233.879 L 275.857 252.727 304.129 252.727 L 332.400 252.727 332.400 277.571 L 332.400 302.415 292.991 302.415 L 253.583 302.415 253.583 321.262 L 253.583 340.110 292.991 340.110 L 332.400 340.110 332.400 364.526 L 332.400 388.942 351.247 388.942 L 370.094 388.942 370.094 364.526 L 370.094 340.110 409.931 340.110 L 449.767 340.110 449.767 321.271 L 449.767 302.432 410.145 302.209 L 370.523 301.987 370.523 277.571 L 370.523 253.155 398.580 252.929 L 426.637 252.703 426.637 233.867 L 426.637 215.032 398.365 215.032 L 370.094 215.032 370.094 190.616 L 370.094 166.200 404.362 166.200 L 438.630 166.200 438.630 147.352 L 438.630 128.505 404.362 128.505 L 370.094 128.505 370.094 100.234 L 370.094 71.963 351.247 71.963 L 332.400 71.963 332.400 100.234 M139.642 111.371 L 139.642 147.352 111.371 147.352 L 83.100 147.352 83.100 166.200 L 83.100 185.047 111.371 185.047 L 139.642 185.047 139.642 237.732 L 139.642 290.417 107.730 306.363 C 90.178 315.133,75.641 322.475,75.425 322.678 C 74.985 323.092,90.901 355.460,91.837 356.054 C 92.329 356.367,241.161 282.474,242.410 281.296 C 242.851 280.881,226.935 248.513,225.997 247.918 C 225.667 247.709,214.584 252.947,201.367 259.559 L 177.337 271.580 177.337 228.314 L 177.337 185.047 206.036 185.047 L 234.736 185.047 234.736 166.200 L 234.736 147.352 206.036 147.352 L 177.337 147.352 177.337 111.371 L 177.337 75.390 158.489 75.390 L 139.642 75.390 139.642 111.371 " stroke="none" fill-rule="evenodd" fill="black"></path></svg>