<svg width="136mm" height="120mm" version="1.1" viewBox="0 0 600 529.4117647058824" xmlns="http://www.w3.org/2000/svg"><path d="M332.400 100.234 L 332.400 128.505 298.560 128.505 L 264.720 128.505 264.720 147.352 L 264.720 166.200 298.560 166.200 L 332.400 166.200 332.400 190.616 L 332.400 215.032 304.129 215.032 L 275.857 215.032 275.857 233.879 L 275.857 252.727 304.129 252.727 L 332.400 252.727 332.400 277.571 L 332.400 302.415 292.546 302.415 L 252.693 302.415 252.924 321.048 L 253.155 339.682 292.777 339.904 L 332.400 340.127 332.400 364.534 L 332.400 388.942 351.247 388.942 L 370.094 388.942 370.094 364.526 L 370.094 340.110 409.931 340.110 L 449.767 340.110 449.767 321.262 L 449.767 302.415 409.931 302.415 L 370.094 302.415 370.094 277.571 L 370.094 252.727 398.811 252.727 L 427.527 252.727 427.296 234.093 L 427.065 215.460 398.580 215.234 L 370.094 215.009 370.094 190.604 L 370.094 166.200 404.362 166.200 L 438.630 166.200 438.630 147.352 L 438.630 128.505 404.362 128.505 L 370.094 128.505 370.094 100.234 L 370.094 71.963 351.247 71.963 L 332.400 71.963 332.400 100.234 M139.642 111.371 L 139.642 147.352 111.371 147.352 L 83.100 147.352 83.100 166.200 L 83.100 185.047 111.371 185.047 L 139.642 185.047 139.642 237.732 L 139.642 290.417 107.091 306.697 L 74.539 322.977 82.879 339.682 C 87.465 348.870,91.513 356.387,91.873 356.387 C 92.533 356.387,241.675 281.990,242.416 281.291 C 242.634 281.085,239.080 273.439,234.518 264.299 L 226.223 247.683 207.134 256.934 C 196.635 262.022,185.636 267.403,182.691 268.892 L 177.337 271.599 177.337 228.323 L 177.337 185.047 206.036 185.047 L 234.736 185.047 234.736 166.200 L 234.736 147.352 206.036 147.352 L 177.337 147.352 177.337 111.371 L 177.337 75.390 158.489 75.390 L 139.642 75.390 139.642 111.371 " stroke="none" fill-rule="evenodd" fill="black"></path></svg>