<svg width="136mm" height="120mm" version="1.1" viewBox="0 0 600 529.4117647058824" xmlns="http://www.w3.org/2000/svg"><path d="M332.400 100.234 L 332.400 128.505 298.560 128.505 L 264.720 128.505 264.720 147.352 L 264.720 166.200 298.560 166.200 L 332.400 166.200 332.400 190.616 L 332.400 215.032 304.129 215.032 L 275.857 215.032 275.857 233.879 L 275.857 252.727 304.129 252.727 L 332.400 252.727 332.400 277.571 L 332.400 302.415 292.546 302.415 L 252.693 302.415 252.924 321.048 L 253.155 339.682 292.777 339.904 L 332.400 340.127 332.400 364.534 L 332.400 388.942 351.247 388.942 L 370.094 388.942 370.094 364.526 L 370.094 340.110 409.931 340.110 L 449.767 340.110 449.767 321.262 L 449.767 302.415 409.931 302.415 L 370.094 302.415 370.094 277.571 L 370.094 252.727 398.811 252.727 L 427.527 252.727 427.296 234.093 L 427.065 215.460 398.580 215.234 L 370.094 215.009 370.094 190.604 L 370.094 166.200 404.362 166.200 L 438.630 166.200 438.630 147.352 L 438.630 128.505 404.362 128.505 L 370.094 128.505 370.094 100.234 L 370.094 71.963 351.247 71.963 L 332.400 71.963 332.400 100.234 M139.642 111.355 L 139.642 147.352 111.371 147.352 L 83.100 147.352 83.100 166.200 L 83.100 185.047 111.371 185.047 L 139.642 185.047 139.642 237.958 L 139.642 290.868 107.876 306.708 C 90.405 315.420,75.937 322.818,75.725 323.149 C 75.316 323.787,91.378 356.387,92.101 356.387 C 92.611 356.387,241.842 281.832,242.416 281.291 C 242.634 281.085,239.069 273.415,234.492 264.248 L 226.171 247.579 202.182 259.580 L 178.194 271.580 178.194 228.314 L 178.194 185.047 206.465 185.047 L 234.736 185.047 234.736 166.200 L 234.736 147.352 206.474 147.352 L 178.212 147.352 177.989 111.585 L 177.765 75.818 158.704 75.587 L 139.642 75.357 139.642 111.355 " stroke="none" fill-rule="evenodd" fill="black"></path></svg>