<svg width="136mm" height="120mm" version="1.1" viewBox="0 0 600 529.4117647058824" xmlns="http://www.w3.org/2000/svg"><path d="M129.882 231.030 C 107.318 298.727,88.814 354.681,88.763 355.371 C 88.696 356.264,93.724 358.319,106.173 362.490 C 115.801 365.715,123.748 368.263,123.833 368.153 C 125.033 366.595,206.447 119.596,205.919 119.113 C 204.959 118.237,173.880 107.944,172.194 107.944 C 171.246 107.944,160.112 140.332,129.882 231.030 M324.360 113.552 C 315.461 116.563,308.000 119.208,307.779 119.429 C 307.436 119.772,389.553 367.389,390.300 368.265 C 390.446 368.437,398.393 365.931,407.959 362.697 C 421.008 358.284,425.328 356.479,425.257 355.466 C 425.206 354.723,406.702 298.727,384.138 231.030 C 353.474 139.031,342.788 107.961,341.826 108.010 C 341.118 108.047,333.258 110.541,324.360 113.552 " stroke="none" fill-rule="evenodd" fill="black"></path></svg>