<svg width="136mm" height="120mm" version="1.1" viewBox="0 0 600 529.4117647058824" xmlns="http://www.w3.org/2000/svg"><path d="M129.882 231.030 C 107.318 298.727,88.814 354.681,88.763 355.371 C 88.696 356.264,93.724 358.319,106.173 362.490 C 115.801 365.715,123.748 368.263,123.833 368.153 C 124.542 367.233,206.549 119.736,206.245 119.433 C 205.696 118.884,172.888 107.944,171.791 107.944 C 171.305 107.944,152.446 163.333,129.882 231.030 M324.360 113.552 C 315.461 116.563,308.000 119.208,307.779 119.429 C 307.473 119.735,389.472 367.225,390.187 368.153 C 390.272 368.263,398.219 365.715,407.847 362.490 C 420.296 358.319,425.324 356.264,425.257 355.371 C 425.206 354.681,406.702 298.727,384.138 231.030 C 353.474 139.031,342.788 107.961,341.826 108.010 C 341.118 108.047,333.258 110.541,324.360 113.552 " stroke="none" fill-rule="evenodd" fill="black"></path></svg>