<svg width="136mm" height="120mm" version="1.1" viewBox="0 0 600 529.4117647058824" xmlns="http://www.w3.org/2000/svg"><path d="M129.485 232.220 C 106.703 300.572,88.199 356.612,88.366 356.753 C 89.048 357.331,123.492 368.536,123.730 368.256 C 124.467 367.387,206.582 119.770,206.245 119.433 C 205.696 118.884,172.888 107.944,171.791 107.944 C 171.305 107.944,152.267 163.868,129.485 232.220 M324.360 113.552 C 315.461 116.563,308.000 119.208,307.779 119.429 C 307.439 119.769,389.547 367.380,390.290 368.256 C 390.528 368.536,424.972 357.331,425.654 356.753 C 425.821 356.612,407.317 300.572,384.535 232.220 C 353.573 139.328,342.788 107.961,341.826 108.010 C 341.118 108.047,333.258 110.541,324.360 113.552 " stroke="none" fill-rule="evenodd" fill="black"></path></svg>