<svg width="136mm" height="120mm" version="1.1" viewBox="0 0 600 529.4117647058824" xmlns="http://www.w3.org/2000/svg"><path d="M111.050 151.422 C 80.599 212.321,55.686 262.532,55.686 263.001 C 55.686 263.707,87.293 280.141,88.650 280.141 C 88.884 280.141,90.567 277.178,92.389 273.557 L 95.702 266.973 104.939 294.760 C 110.019 310.043,114.291 322.684,114.433 322.851 C 114.630 323.083,136.725 316.018,142.855 313.763 C 143.697 313.453,143.926 319.048,143.926 339.960 L 143.926 366.551 133.902 363.183 C 128.388 361.331,123.617 360.104,123.300 360.457 C 122.982 360.810,120.304 368.424,117.349 377.376 C 114.393 386.329,111.814 394.095,111.616 394.634 C 111.389 395.254,123.813 399.794,145.368 406.968 C 164.129 413.213,179.961 418.499,180.550 418.716 C 181.399 419.028,181.620 408.107,181.620 365.903 C 181.620 336.639,181.909 312.695,182.262 312.695 C 182.615 312.696,189.964 315.049,198.593 317.925 C 207.222 320.801,214.398 323.018,214.539 322.851 C 214.680 322.684,219.836 307.395,225.998 288.875 C 233.592 266.047,236.872 255.079,236.182 254.821 C 228.105 251.792,201.748 243.447,201.384 243.802 C 201.116 244.064,196.590 257.070,191.326 272.704 L 181.756 301.130 181.688 250.799 L 181.620 200.468 162.781 200.468 L 143.941 200.468 143.719 245.659 L 143.497 290.850 135.501 267.076 C 131.104 254.001,127.425 243.303,127.327 243.303 C 127.229 243.303,121.976 245.038,115.655 247.158 C 109.333 249.278,104.047 251.013,103.909 251.013 C 103.771 251.013,117.778 222.775,135.036 188.262 L 166.414 125.512 193.723 180.124 C 208.742 210.160,221.227 234.736,221.467 234.736 C 223.113 234.736,254.430 218.231,254.393 217.383 C 254.367 216.797,234.561 176.802,210.380 128.506 L 166.414 40.696 111.050 151.422 M336.683 84.813 L 336.683 124.222 296.847 124.222 L 257.010 124.222 257.010 143.497 L 257.010 162.773 290.421 162.773 C 308.798 162.773,323.833 162.967,323.833 163.203 C 323.833 163.440,307.641 196.015,287.851 235.593 C 268.061 275.170,251.870 307.846,251.870 308.206 C 251.870 308.566,259.386 312.613,268.571 317.199 L 285.273 325.536 290.888 314.618 C 293.977 308.613,296.240 304.471,295.919 305.414 C 288.197 328.057,283.568 352.036,283.568 369.386 L 283.568 373.521 270.289 373.521 L 257.010 373.521 257.010 392.797 L 257.010 412.073 351.247 412.073 L 445.484 412.073 445.484 392.797 L 445.484 373.521 436.060 373.521 L 426.637 373.521 426.637 367.919 C 426.637 352.018,421.790 326.370,415.148 307.127 C 414.823 306.185,416.893 309.943,419.747 315.480 C 422.602 321.016,425.131 325.546,425.367 325.546 C 426.727 325.546,458.334 309.113,458.334 308.406 C 458.334 307.936,442.143 275.170,422.353 235.593 C 402.563 196.015,386.372 163.440,386.372 163.203 C 386.372 162.967,399.672 162.773,415.928 162.773 L 445.484 162.773 445.484 143.497 L 445.484 124.222 409.931 124.222 L 374.378 124.222 374.378 84.813 L 374.378 45.405 355.531 45.405 L 336.683 45.405 336.683 84.813 M379.854 235.378 C 393.335 262.354,404.236 284.424,404.078 284.424 C 403.920 284.424,402.343 282.322,400.574 279.753 C 396.273 273.509,385.288 263.123,379.491 259.822 C 363.000 250.427,344.025 251.145,328.046 261.768 C 321.605 266.051,312.721 275.077,308.430 281.698 C 306.848 284.140,305.426 286.138,305.270 286.138 C 305.115 286.138,316.251 263.606,330.019 236.066 C 343.786 208.527,355.116 186.071,355.196 186.163 C 355.276 186.256,366.372 208.403,379.854 235.378 M360.671 292.601 C 369.605 297.214,379.639 315.885,384.681 337.282 C 386.693 345.821,388.942 362.483,388.942 368.853 L 388.942 373.521 355.102 373.521 L 321.262 373.521 321.262 370.614 C 321.262 364.974,323.077 349.863,324.746 341.610 C 328.537 322.863,336.149 305.698,344.456 297.166 C 350.842 290.607,354.704 289.520,360.671 292.601 " stroke="none" fill-rule="evenodd" fill="black"></path></svg>