<svg width="136mm" height="120mm" version="1.1" viewBox="0 0 600 529.4117647058824" xmlns="http://www.w3.org/2000/svg"><path d="M111.050 151.422 C 80.599 212.321,55.686 262.532,55.686 263.001 C 55.686 263.707,87.293 280.141,88.650 280.141 C 88.884 280.141,90.567 277.178,92.389 273.557 L 95.702 266.973 104.939 294.760 C 110.019 310.043,114.291 322.684,114.433 322.851 C 114.630 323.083,136.725 316.018,142.855 313.763 C 143.697 313.453,143.926 319.048,143.926 339.960 L 143.926 366.551 133.902 363.183 C 128.388 361.331,123.617 360.104,123.300 360.457 C 122.982 360.810,120.304 368.424,117.349 377.376 C 114.393 386.329,111.814 394.095,111.616 394.634 C 111.389 395.254,123.813 399.794,145.368 406.968 C 164.129 413.213,179.961 418.499,180.550 418.716 C 181.399 419.028,181.620 408.107,181.620 365.903 C 181.620 336.639,181.909 312.695,182.262 312.695 C 182.615 312.696,189.964 315.049,198.593 317.925 C 207.222 320.801,214.398 323.018,214.539 322.851 C 214.680 322.684,219.836 307.395,225.998 288.875 C 233.592 266.047,236.872 255.079,236.182 254.821 C 228.105 251.792,201.748 243.447,201.384 243.802 C 201.116 244.064,196.590 257.070,191.326 272.704 L 181.756 301.130 181.688 250.799 L 181.620 200.468 162.781 200.468 L 143.941 200.468 143.719 245.659 L 143.497 290.850 135.501 267.076 C 131.104 254.001,127.425 243.303,127.327 243.303 C 127.229 243.303,121.976 245.038,115.655 247.158 C 109.333 249.278,104.047 251.013,103.909 251.013 C 103.771 251.013,117.778 222.775,135.036 188.262 L 166.414 125.512 193.723 180.124 C 208.742 210.160,221.320 234.715,221.672 234.690 C 222.025 234.665,229.696 230.906,238.718 226.337 L 255.123 218.030 210.769 129.363 L 166.414 40.696 111.050 151.422 M335.826 85.242 L 335.826 125.078 296.418 125.078 L 257.010 125.078 257.010 143.926 L 257.010 162.773 290.421 162.773 C 308.798 162.773,323.833 162.967,323.833 163.203 C 323.833 163.440,307.641 196.015,287.851 235.593 C 268.061 275.170,251.870 307.846,251.870 308.206 C 251.870 308.566,259.386 312.613,268.571 317.199 L 285.273 325.536 290.874 314.618 C 293.954 308.613,296.295 304.278,296.076 304.985 C 295.857 305.692,294.312 310.377,292.643 315.396 C 287.572 330.646,283.568 354.469,283.568 369.386 L 283.568 374.378 270.289 374.378 L 257.010 374.378 257.010 393.229 L 257.010 412.080 351.461 411.862 L 445.912 411.644 446.143 393.039 L 446.374 374.434 436.719 374.192 L 427.065 373.950 426.864 368.809 C 426.023 347.328,422.276 327.595,415.153 307.127 C 414.825 306.185,416.893 309.943,419.747 315.480 C 422.602 321.016,425.131 325.546,425.367 325.546 C 426.727 325.546,458.334 309.113,458.334 308.406 C 458.334 307.936,442.143 275.170,422.353 235.593 C 402.563 196.015,386.372 163.445,386.372 163.214 C 386.372 162.984,399.768 162.694,416.142 162.570 L 445.912 162.345 446.143 143.711 L 446.374 125.078 410.376 125.078 L 374.378 125.078 374.378 85.242 L 374.378 45.405 355.102 45.405 L 335.826 45.405 335.826 85.242 M379.854 235.378 C 393.335 262.354,404.223 284.424,404.049 284.424 C 403.876 284.424,402.654 282.786,401.336 280.783 C 397.736 275.318,388.304 265.822,382.628 261.950 C 372.405 254.977,361.920 252.453,348.677 253.779 C 335.862 255.062,320.626 265.011,310.966 278.403 C 308.855 281.331,306.633 284.365,306.029 285.146 C 305.425 285.927,316.207 263.938,329.990 236.280 C 343.773 208.623,355.116 186.071,355.196 186.163 C 355.276 186.256,366.372 208.403,379.854 235.378 M362.203 293.816 C 371.081 300.246,379.911 317.198,384.714 337.029 C 386.598 344.809,388.942 363.019,388.942 369.875 L 388.942 374.378 355.102 374.378 L 321.262 374.378 321.262 371.528 C 321.262 369.961,321.674 364.467,322.176 359.320 C 324.541 335.086,330.765 315.756,340.721 301.719 C 348.186 291.193,355.081 288.656,362.203 293.816 " stroke="none" fill-rule="evenodd" fill="black"></path></svg>