<svg width="136mm" height="120mm" version="1.1" viewBox="0 0 600 529.4117647058824" xmlns="http://www.w3.org/2000/svg"><path d="M110.702 152.116 L 54.991 263.537 71.713 271.884 C 80.910 276.476,88.538 280.115,88.665 279.972 C 88.792 279.829,90.295 276.918,92.006 273.501 C 93.716 270.085,95.271 267.290,95.461 267.290 C 95.652 267.290,99.941 279.723,104.992 294.919 C 110.043 310.115,114.291 322.684,114.433 322.851 C 114.630 323.083,136.725 316.018,142.855 313.763 C 143.697 313.453,143.926 319.060,143.926 340.018 C 143.926 354.675,143.811 366.668,143.671 366.668 C 143.531 366.668,138.886 365.145,133.347 363.285 C 126.248 360.899,123.164 360.205,122.892 360.929 C 122.312 362.477,111.371 395.292,111.371 395.485 C 111.371 395.577,126.695 400.753,145.425 406.987 C 164.154 413.221,179.961 418.499,180.550 418.716 C 181.399 419.028,181.620 408.107,181.620 365.903 C 181.620 336.639,181.909 312.695,182.262 312.695 C 182.615 312.696,189.964 315.049,198.593 317.925 C 207.222 320.801,214.398 323.018,214.539 322.851 C 214.680 322.684,219.836 307.395,225.998 288.875 C 233.592 266.047,236.872 255.079,236.182 254.821 C 228.105 251.792,201.748 243.447,201.384 243.802 C 201.116 244.064,196.590 257.070,191.326 272.704 L 181.756 301.130 181.688 250.799 L 181.620 200.468 162.781 200.468 L 143.941 200.468 143.719 245.659 L 143.497 290.850 135.501 267.076 C 131.104 254.001,127.425 243.303,127.327 243.303 C 127.229 243.303,121.976 245.038,115.655 247.158 C 109.333 249.278,104.047 251.013,103.909 251.013 C 103.771 251.013,117.778 222.775,135.036 188.262 L 166.414 125.512 193.723 180.124 C 208.742 210.160,221.320 234.715,221.672 234.690 C 222.025 234.665,229.696 230.906,238.718 226.337 L 255.123 218.030 210.769 129.363 L 166.414 40.696 110.702 152.116 M336.477 85.027 L 336.255 124.650 296.632 124.873 L 257.010 125.095 257.010 143.934 L 257.010 162.773 290.421 162.773 C 308.798 162.773,323.833 162.967,323.833 163.203 C 323.833 163.440,307.622 196.054,287.808 235.679 C 267.994 275.304,251.899 308.060,252.041 308.471 C 252.182 308.881,259.723 312.878,268.797 317.353 L 285.297 325.489 290.886 314.595 C 293.960 308.603,296.295 304.278,296.076 304.985 C 295.857 305.692,294.312 310.377,292.643 315.396 C 287.572 330.646,283.568 354.469,283.568 369.386 L 283.568 374.378 270.289 374.378 L 257.010 374.378 257.010 393.229 L 257.010 412.080 351.461 411.862 L 445.912 411.644 446.143 393.011 L 446.374 374.378 437.025 374.378 C 426.174 374.378,426.637 374.779,426.637 365.356 C 426.637 351.733,422.679 329.290,417.705 314.706 C 416.123 310.067,414.574 305.499,414.264 304.557 C 413.955 303.614,416.270 307.855,419.410 313.981 C 422.549 320.106,425.223 325.235,425.352 325.377 C 425.480 325.520,433.111 321.881,442.308 317.289 L 459.030 308.941 422.701 236.288 C 402.720 196.328,386.372 163.445,386.372 163.214 C 386.372 162.984,399.768 162.694,416.142 162.570 L 445.912 162.345 446.143 143.711 L 446.374 125.078 410.376 125.078 L 374.378 125.078 374.378 85.242 L 374.378 45.405 355.539 45.405 L 336.700 45.405 336.477 85.027 M389.951 254.868 C 398.912 272.773,405.887 287.037,405.451 286.566 C 405.016 286.095,402.906 283.204,400.763 280.141 C 394.945 271.825,386.424 263.810,378.661 259.353 C 368.542 253.542,353.892 251.708,342.914 254.878 C 331.152 258.276,319.064 267.176,310.966 278.403 C 308.855 281.331,306.633 284.365,306.029 285.146 C 305.425 285.927,316.205 263.942,329.986 236.289 L 355.041 186.013 364.350 204.163 C 369.470 214.146,380.991 236.963,389.951 254.868 M360.544 292.497 C 368.963 296.851,379.317 315.324,384.190 334.685 C 386.655 344.482,388.942 360.923,388.942 368.853 L 388.942 374.378 355.000 374.378 L 321.059 374.378 321.644 366.025 C 323.496 339.605,329.557 318.362,339.475 303.533 C 346.707 292.721,353.795 289.008,360.544 292.497 " stroke="none" fill-rule="evenodd" fill="black"></path></svg>