<svg width="136mm" height="120mm" version="1.1" viewBox="0 0 600 529.4117647058824" xmlns="http://www.w3.org/2000/svg"><path d="M167.061 142.636 L 77.543 232.157 90.810 245.444 L 104.077 258.732 180.543 182.269 L 257.010 105.806 333.477 182.269 L 409.943 258.732 423.210 245.444 L 436.477 232.157 346.959 142.636 C 297.724 93.400,257.247 53.115,257.010 53.115 C 256.773 53.115,216.296 93.400,167.061 142.636 M238.163 256.585 L 238.163 354.680 214.082 342.633 C 200.837 336.008,189.893 330.706,189.762 330.851 C 189.057 331.629,172.994 364.320,173.217 364.524 C 173.729 364.992,275.000 415.499,275.426 415.500 C 275.663 415.500,275.857 357.672,275.857 286.995 L 275.857 158.489 257.010 158.489 L 238.163 158.489 238.163 256.585 M161.702 223.220 L 145.640 231.318 164.487 269.005 L 183.335 306.693 200.040 298.353 C 209.228 293.766,216.745 289.718,216.745 289.357 C 216.745 287.526,179.749 215.038,178.834 215.077 C 178.246 215.102,170.537 218.767,161.702 223.220 M315.696 251.866 C 305.564 272.125,297.275 288.996,297.275 289.357 C 297.275 289.718,304.792 293.766,313.980 298.353 L 330.685 306.693 349.533 269.005 L 368.381 231.317 352.112 223.175 C 343.164 218.696,335.455 215.032,334.980 215.032 C 334.505 215.032,325.827 231.607,315.696 251.866 " stroke="none" fill-rule="evenodd" fill="black"></path></svg>