<svg width="136mm" height="120mm" version="1.1" viewBox="0 0 600 529.4117647058824" xmlns="http://www.w3.org/2000/svg"><path d="M167.061 161.484 L 77.543 251.004 90.810 264.292 L 104.077 277.579 180.543 201.116 L 257.010 124.653 333.477 201.116 L 409.943 277.579 423.210 264.292 L 436.477 251.004 346.959 161.484 C 297.724 112.247,257.247 71.963,257.010 71.963 C 256.773 71.963,216.296 112.247,167.061 161.484 M177.908 234.450 C 177.594 234.764,177.337 243.246,177.337 253.298 L 177.337 271.574 253.155 271.574 L 328.973 271.574 328.973 252.727 L 328.973 233.879 253.726 233.879 C 212.340 233.879,178.222 234.136,177.908 234.450 M139.840 366.453 L 140.070 385.087 253.369 385.304 L 366.668 385.521 366.668 366.671 L 366.668 347.820 253.138 347.820 L 139.609 347.820 139.840 366.453 " stroke="none" fill-rule="evenodd" fill="black"></path></svg>