<svg width="136mm" height="120mm" version="1.1" viewBox="0 0 600 529.4117647058824" xmlns="http://www.w3.org/2000/svg"><path d="M167.061 161.484 L 77.543 251.004 90.810 264.292 L 104.077 277.579 180.543 201.116 L 257.010 124.653 333.477 201.116 L 409.943 277.579 423.210 264.292 L 436.477 251.004 346.959 161.484 C 297.724 112.247,257.247 71.963,257.010 71.963 C 256.773 71.963,216.296 112.247,167.061 161.484 M177.535 252.941 L 177.765 272.002 253.155 272.002 L 328.544 272.002 328.775 252.941 L 329.006 233.879 253.155 233.879 L 177.304 233.879 177.535 252.941 M139.642 366.668 L 139.642 385.515 253.155 385.515 L 366.668 385.515 366.668 366.668 L 366.668 347.820 253.155 347.820 L 139.642 347.820 139.642 366.668 " stroke="none" fill-rule="evenodd" fill="black"></path></svg>