<svg width="136mm" height="120mm" version="1.1" viewBox="0 0 600 529.4117647058824" xmlns="http://www.w3.org/2000/svg"><path d="M245.674 58.470 L 245.445 79.245 225.098 79.474 C 213.907 79.601,204.751 79.497,204.751 79.245 C 204.751 78.992,206.703 74.897,209.088 70.144 C 211.473 65.391,213.304 61.394,213.157 61.260 C 212.379 60.554,179.685 44.488,179.481 44.712 C 178.776 45.484,134.446 134.727,134.667 134.928 C 135.031 135.258,167.839 151.636,168.136 151.636 C 168.268 151.636,172.216 143.926,176.909 134.502 L 185.441 117.368 215.657 117.368 L 245.873 117.368 245.873 122.726 L 245.873 128.083 205.183 168.766 L 164.494 209.449 176.698 221.744 C 188.661 233.796,188.812 233.994,184.319 231.760 C 181.799 230.506,179.625 229.603,179.488 229.752 C 178.780 230.526,134.444 319.773,134.667 319.975 C 135.031 320.305,167.839 336.683,168.136 336.683 C 168.268 336.683,172.216 328.973,176.909 319.549 L 185.441 302.415 215.657 302.415 L 245.873 302.415 245.873 307.766 L 245.873 313.117 205.176 353.821 L 164.479 394.524 177.765 407.789 L 191.051 421.054 227.675 384.437 L 264.299 347.820 300.702 384.230 C 320.723 404.255,337.496 420.640,337.975 420.640 C 338.454 420.640,344.719 414.758,351.897 407.568 L 364.948 394.497 324.258 353.814 L 283.568 313.131 283.568 307.773 L 283.568 302.415 330.686 302.415 L 377.805 302.415 377.805 283.568 L 377.805 264.720 330.686 264.720 L 283.568 264.720 283.568 243.731 L 283.568 222.742 264.736 222.742 L 245.903 222.742 245.674 243.517 L 245.445 264.292 225.098 264.522 C 213.907 264.648,204.751 264.545,204.751 264.292 C 204.751 264.039,206.703 259.944,209.088 255.191 C 211.473 250.438,213.304 246.441,213.157 246.309 C 213.010 246.176,208.106 243.677,202.260 240.756 L 191.629 235.443 227.957 199.108 L 264.284 162.773 300.702 199.183 C 320.731 219.208,337.507 235.593,337.982 235.593 C 338.457 235.593,344.719 229.710,351.897 222.521 L 364.948 209.450 324.258 168.767 L 283.568 128.083 283.568 122.726 L 283.568 117.368 330.686 117.368 L 377.805 117.368 377.805 98.520 L 377.805 79.673 330.686 79.673 L 283.568 79.673 283.568 58.684 L 283.568 37.695 264.736 37.695 L 245.903 37.695 245.674 58.470 " stroke="none" fill-rule="evenodd" fill="black"></path></svg>