<svg width="136mm" height="120mm" version="1.1" viewBox="0 0 600 529.4117647058824" xmlns="http://www.w3.org/2000/svg"><path d="M245.674 58.470 L 245.445 79.245 225.098 79.474 C 213.907 79.601,204.751 79.497,204.751 79.245 C 204.751 78.992,206.703 74.897,209.088 70.144 C 211.473 65.391,213.304 61.394,213.157 61.260 C 212.379 60.554,179.685 44.488,179.481 44.712 C 179.016 45.221,134.502 134.499,134.502 134.923 C 134.502 135.422,166.716 151.636,167.708 151.636 C 168.075 151.636,172.216 143.926,176.909 134.502 L 185.441 117.368 215.657 117.368 L 245.873 117.368 245.873 122.726 L 245.873 128.083 205.183 168.766 L 164.494 209.449 176.698 221.744 C 188.661 233.796,188.812 233.994,184.319 231.760 C 181.799 230.506,179.625 229.603,179.488 229.752 C 179.019 230.264,134.502 319.542,134.502 319.970 C 134.502 320.469,166.716 336.683,167.708 336.683 C 168.075 336.683,172.216 328.973,176.909 319.549 L 185.441 302.415 215.657 302.415 L 245.873 302.415 245.873 307.766 L 245.873 313.117 205.176 353.821 L 164.479 394.524 177.765 407.789 L 191.051 421.054 227.676 384.437 L 264.300 347.819 293.852 377.432 C 310.106 393.719,326.804 410.169,330.959 413.988 L 338.513 420.931 351.737 407.728 L 364.961 394.524 324.264 353.821 L 283.568 313.117 283.568 307.766 L 283.568 302.415 330.686 302.415 L 377.805 302.415 377.805 283.568 L 377.805 264.720 330.686 264.720 L 283.568 264.720 283.568 243.731 L 283.568 222.742 264.736 222.742 L 245.903 222.742 245.674 243.517 L 245.445 264.292 225.098 264.522 C 213.907 264.648,204.751 264.545,204.751 264.292 C 204.751 264.039,206.703 259.944,209.088 255.191 C 211.473 250.438,213.304 246.441,213.157 246.309 C 213.010 246.176,208.106 243.677,202.260 240.756 L 191.629 235.443 227.956 199.109 L 264.283 162.774 292.559 190.836 C 308.110 206.270,324.787 222.745,329.618 227.446 L 338.402 235.994 351.682 222.736 L 364.961 209.477 324.264 168.773 L 283.568 128.070 283.568 122.719 L 283.568 117.368 330.686 117.368 L 377.805 117.368 377.805 98.520 L 377.805 79.673 330.686 79.673 L 283.568 79.673 283.568 58.684 L 283.568 37.695 264.736 37.695 L 245.903 37.695 245.674 58.470 " stroke="none" fill-rule="evenodd" fill="black"></path></svg>