<svg width="136mm" height="120mm" version="1.1" viewBox="0 0 600 529.4117647058824" xmlns="http://www.w3.org/2000/svg"><path d="M139.642 100.234 L 139.642 120.795 107.516 120.795 L 75.390 120.795 75.390 139.642 L 75.390 158.489 101.947 158.489 C 116.554 158.489,128.505 158.588,128.505 158.709 C 128.505 158.829,115.983 196.489,100.679 242.396 C 85.374 288.304,72.985 325.997,73.146 326.158 C 73.307 326.319,81.375 329.103,91.075 332.345 L 108.711 338.239 133.743 263.143 L 158.774 188.047 183.472 262.151 C 197.056 302.908,208.344 336.714,208.556 337.275 C 208.822 337.978,214.209 336.548,225.908 332.668 C 235.240 329.574,243.207 326.739,243.613 326.369 C 244.020 325.999,231.972 288.556,216.841 243.164 C 201.711 197.771,189.331 160.149,189.331 159.560 C 189.331 158.727,195.128 158.489,215.460 158.489 L 241.589 158.489 241.589 139.642 L 241.589 120.795 209.463 120.795 L 177.337 120.795 177.337 100.234 L 177.337 79.673 158.489 79.673 L 139.642 79.673 139.642 100.234 M336.683 100.234 L 336.683 120.795 304.557 120.795 L 272.431 120.795 272.431 139.642 L 272.431 158.489 298.560 158.489 C 318.892 158.489,324.689 158.727,324.689 159.560 C 324.689 160.149,312.309 197.771,297.179 243.164 C 282.048 288.556,270.000 325.999,270.407 326.369 C 270.813 326.739,278.780 329.574,288.112 332.668 C 299.811 336.548,305.198 337.978,305.464 337.275 C 305.676 336.714,316.964 302.908,330.548 262.151 L 355.246 188.047 380.277 263.143 L 405.309 338.239 422.945 332.345 C 432.645 329.103,440.713 326.319,440.874 326.158 C 441.035 325.997,428.646 288.304,413.341 242.396 C 398.037 196.489,385.515 158.829,385.515 158.709 C 385.515 158.588,397.466 158.489,412.073 158.489 L 438.630 158.489 438.630 139.642 L 438.630 120.795 406.504 120.795 L 374.378 120.795 374.378 100.234 L 374.378 79.673 355.531 79.673 L 336.683 79.673 336.683 100.234 M75.390 381.231 L 75.390 400.079 257.010 400.079 L 438.630 400.079 438.630 381.231 L 438.630 362.384 257.010 362.384 L 75.390 362.384 75.390 381.231 " stroke="none" fill-rule="evenodd" fill="black"></path></svg>