<svg width="136mm" height="120mm" version="1.1" viewBox="0 0 600 529.4117647058824" xmlns="http://www.w3.org/2000/svg"><path d="M148.606 54.186 C 146.262 60.376,42.946 371.347,43.162 371.564 C 43.323 371.725,51.334 374.490,60.965 377.708 L 78.474 383.559 127.260 237.185 L 176.046 90.810 225.735 90.810 L 275.424 90.810 256.144 110.090 L 236.865 129.370 215.044 122.084 C 203.043 118.077,192.765 114.798,192.205 114.798 C 191.331 114.798,179.907 147.052,179.907 149.519 C 179.907 150.004,185.015 152.080,191.258 154.133 C 197.501 156.186,203.551 158.218,204.702 158.648 C 206.692 159.391,205.934 160.290,189.291 176.949 L 171.787 194.468 185.048 207.751 L 198.310 221.033 222.515 196.840 L 246.720 172.646 269.485 180.216 C 282.006 184.380,292.365 187.652,292.504 187.488 C 292.872 187.053,304.129 153.027,304.129 152.349 C 304.129 152.035,298.153 149.787,290.850 147.352 C 283.546 144.918,277.571 142.666,277.571 142.347 C 277.571 142.029,285.279 134.066,294.701 124.653 L 311.832 107.539 303.498 99.175 L 295.165 90.810 319.318 90.810 L 343.471 90.810 343.778 202.395 C 344.048 300.748,344.247 314.699,345.453 320.042 C 350.124 340.739,358.802 356.356,373.362 370.266 C 384.887 381.277,397.342 388.468,412.293 392.742 C 423.361 395.906,431.528 396.652,455.099 396.652 L 476.325 396.652 476.325 377.805 L 476.325 358.957 456.143 358.957 C 445.042 358.957,433.188 358.529,429.799 358.005 C 417.343 356.079,407.111 350.750,397.777 341.329 C 392.922 336.428,390.809 333.424,387.782 327.117 C 385.671 322.719,383.453 317.193,382.853 314.837 C 382.001 311.489,381.699 282.448,381.471 181.835 L 381.178 53.115 265.095 53.115 C 173.016 53.115,148.928 53.337,148.606 54.186 M223.313 207.893 C 222.999 208.207,222.742 250.806,222.742 302.558 L 222.742 396.652 241.589 396.652 L 260.437 396.652 260.437 301.987 L 260.437 207.321 242.161 207.321 C 232.109 207.321,223.627 207.578,223.313 207.893 M152.438 321.905 C 144.319 346.289,137.534 366.630,137.360 367.107 C 136.951 368.231,172.145 379.933,173.027 378.966 C 173.865 378.048,203.328 289.552,202.913 289.200 C 202.477 288.829,168.453 277.571,167.770 277.571 C 167.456 277.571,160.557 297.521,152.438 321.905 M298.132 283.324 C 288.943 286.414,281.289 289.058,281.123 289.200 C 280.706 289.554,310.173 378.051,311.014 378.972 C 311.908 379.950,346.107 368.525,346.107 367.248 C 346.107 364.892,316.479 277.577,315.700 277.638 C 315.226 277.676,307.320 280.234,298.132 283.324 " stroke="none" fill-rule="evenodd" fill="black"></path></svg>