<svg width="136mm" height="120mm" version="1.1" viewBox="0 0 600 529.4117647058824" xmlns="http://www.w3.org/2000/svg"><path d="M148.606 54.186 C 146.262 60.376,42.946 371.347,43.162 371.564 C 43.323 371.725,51.334 374.490,60.965 377.708 L 78.474 383.559 127.260 237.185 L 176.046 90.810 225.735 90.810 L 275.424 90.810 256.144 110.090 L 236.865 129.370 215.025 122.070 C 203.014 118.055,192.641 114.872,191.974 114.998 C 190.673 115.243,178.743 149.658,179.762 150.227 C 180.077 150.404,185.925 152.387,192.757 154.634 C 199.590 156.882,205.512 158.911,205.919 159.143 C 206.325 159.376,198.811 167.419,189.222 177.017 L 171.787 194.468 185.048 207.751 L 198.310 221.033 222.515 196.840 L 246.720 172.646 269.485 180.216 C 282.006 184.380,292.365 187.652,292.504 187.488 C 293.228 186.633,304.247 152.325,303.906 151.985 C 303.686 151.765,297.476 149.570,290.107 147.108 L 276.707 142.632 294.269 125.085 L 311.831 107.539 303.498 99.175 L 295.165 90.810 319.318 90.810 L 343.471 90.810 343.765 202.395 C 344.089 325.004,343.749 316.893,349.257 333.256 C 358.681 361.253,383.171 384.393,412.169 392.701 C 423.544 395.960,430.968 396.652,454.541 396.652 L 476.325 396.652 476.325 377.874 L 476.325 359.097 452.123 358.761 C 429.781 358.452,427.461 358.276,421.925 356.474 C 406.376 351.413,394.483 341.160,387.248 326.579 C 381.854 315.707,382.115 323.033,382.101 181.835 L 382.088 53.115 265.550 53.115 C 173.107 53.115,148.928 53.337,148.606 54.186 M222.742 302.415 L 222.742 396.652 242.018 396.652 L 261.293 396.652 261.293 302.415 L 261.293 208.178 242.018 208.178 L 222.742 208.178 222.742 302.415 M152.438 321.905 C 144.319 346.289,137.534 366.630,137.360 367.107 C 136.951 368.231,172.145 379.933,173.027 378.966 C 173.865 378.048,203.328 289.552,202.913 289.200 C 202.477 288.829,168.453 277.571,167.770 277.571 C 167.456 277.571,160.557 297.521,152.438 321.905 M298.132 283.324 C 288.943 286.414,281.289 289.058,281.123 289.200 C 280.706 289.554,310.173 378.051,311.014 378.972 C 311.908 379.950,346.107 368.525,346.107 367.248 C 346.107 364.892,316.479 277.577,315.700 277.638 C 315.226 277.676,307.320 280.234,298.132 283.324 " stroke="none" fill-rule="evenodd" fill="black"></path></svg>