<svg width="136mm" height="120mm" version="1.1" viewBox="0 0 600 529.4117647058824" xmlns="http://www.w3.org/2000/svg"><path d="M103.349 212.109 C 74.202 299.555,50.686 371.405,51.092 371.775 C 51.498 372.144,59.463 374.978,68.791 378.072 C 85.583 383.641,85.759 383.678,86.421 381.822 C 86.789 380.790,108.839 314.891,135.421 235.378 L 183.752 90.810 263.609 90.810 L 343.465 90.810 343.766 202.395 C 344.093 324.023,343.819 317.027,348.849 331.971 C 358.234 359.856,380.518 382.164,408.241 391.429 C 420.939 395.672,429.515 396.645,454.265 396.649 L 476.325 396.652 476.325 377.884 L 476.325 359.115 452.123 358.766 C 428.556 358.426,427.737 358.356,420.884 356.089 C 412.137 353.196,402.608 346.934,396.188 339.861 C 390.498 333.591,384.343 321.540,382.999 314.037 C 382.383 310.597,382.088 267.608,382.088 181.035 L 382.088 53.115 269.216 53.115 L 156.344 53.115 103.349 212.109 M176.338 178.184 L 155.207 241.589 217.247 241.589 L 279.288 241.589 260.344 279.498 C 249.925 300.348,241.232 317.586,241.025 317.805 C 240.819 318.024,232.744 314.256,223.082 309.432 C 213.419 304.607,205.245 300.829,204.918 301.037 C 203.984 301.630,188.070 333.998,188.510 334.411 C 188.726 334.614,204.419 342.534,223.383 352.010 L 257.864 369.240 298.987 286.998 C 321.604 241.764,340.110 204.561,340.110 204.325 C 340.110 204.088,310.425 203.895,274.144 203.895 C 237.863 203.895,208.178 203.606,208.178 203.252 C 208.178 202.899,213.811 185.710,220.697 165.054 C 227.582 144.398,232.883 127.195,232.476 126.824 C 232.070 126.452,224.413 123.731,215.460 120.776 C 206.508 117.820,198.797 115.262,198.326 115.090 C 197.854 114.919,187.960 143.311,176.338 178.184 " stroke="none" fill-rule="evenodd" fill="black"></path></svg>