<svg width="136mm" height="120mm" version="1.1" viewBox="0 0 600 529.4117647058824" xmlns="http://www.w3.org/2000/svg"><path d="M238.163 76.230 L 238.163 114.765 235.807 115.274 C 189.745 125.226,155.623 158.877,145.917 203.924 C 143.713 214.149,143.712 239.039,145.914 249.259 C 151.520 275.271,165.785 298.516,186.171 314.855 C 200.480 326.325,215.952 333.510,235.807 337.907 L 238.163 338.429 238.163 376.964 L 238.163 415.500 257.010 415.500 L 275.857 415.500 275.857 376.964 L 275.857 338.429 278.213 337.907 C 298.068 333.510,313.540 326.325,327.849 314.855 C 349.244 297.707,364.062 272.563,368.755 245.445 C 370.471 235.529,370.471 217.666,368.755 207.750 C 360.707 161.240,325.760 125.547,278.213 115.274 L 275.857 114.765 275.857 76.230 L 275.857 37.695 257.010 37.695 L 238.163 37.695 238.163 76.230 M238.163 226.528 L 238.163 299.707 234.950 298.869 C 233.183 298.408,227.882 296.131,223.170 293.808 C 204.231 284.472,190.062 267.221,183.999 246.115 C 181.226 236.463,181.226 216.732,183.999 207.079 C 190.937 182.929,208.986 163.535,232.129 155.364 C 235.212 154.276,237.831 153.377,237.948 153.367 C 238.066 153.357,238.163 186.280,238.163 226.528 M289.993 158.923 C 309.301 168.280,323.932 185.881,330.021 207.079 C 332.794 216.732,332.794 236.463,330.021 246.115 C 323.958 267.221,309.789 284.472,290.850 293.808 C 286.138 296.131,280.837 298.408,279.070 298.869 L 275.857 299.707 275.857 226.597 L 275.857 153.487 279.070 154.337 C 280.837 154.805,285.752 156.868,289.993 158.923 M82.151 170.274 L 65.352 175.939 84.046 232.006 C 94.328 262.843,102.966 288.299,103.242 288.575 C 103.518 288.851,111.644 286.455,121.299 283.249 C 135.879 278.408,138.776 277.180,138.397 275.997 C 138.146 275.213,129.713 249.899,119.658 219.744 C 107.484 183.233,100.970 164.864,100.162 164.762 C 99.495 164.678,91.390 167.159,82.151 170.274 M412.471 165.557 C 411.916 167.026,375.235 277.088,375.235 277.285 C 375.235 277.822,410.371 288.982,410.778 288.575 C 411.054 288.299,419.692 262.843,429.974 232.006 L 448.667 175.940 431.419 170.213 C 421.932 167.063,413.878 164.486,413.523 164.486 C 413.167 164.486,412.693 164.968,412.471 165.557 " stroke="none" fill-rule="evenodd" fill="black"></path></svg>