<svg width="136mm" height="120mm" version="1.1" viewBox="0 0 600 529.4117647058824" xmlns="http://www.w3.org/2000/svg"><path d="M238.163 76.230 L 238.163 114.765 235.807 115.274 C 212.070 120.403,193.122 130.561,176.885 146.865 C 155.411 168.426,143.926 196.211,143.926 226.597 C 143.926 257.008,155.382 284.694,176.907 306.306 C 193.122 322.586,212.182 332.816,235.807 337.920 L 238.163 338.429 238.163 376.964 L 238.163 415.500 257.010 415.500 L 275.857 415.500 275.857 376.964 L 275.857 338.429 278.213 337.920 C 279.509 337.640,284.039 336.456,288.280 335.289 C 327.945 324.372,358.986 290.914,368.055 249.300 C 370.300 238.998,370.300 214.196,368.055 203.895 C 363.224 181.726,352.975 162.838,337.111 146.865 C 320.938 130.580,301.972 120.407,278.213 115.274 L 275.857 114.765 275.857 76.230 L 275.857 37.695 257.010 37.695 L 238.163 37.695 238.163 76.230 M238.163 226.528 L 238.163 299.707 234.950 298.832 C 230.199 297.539,220.029 292.704,215.310 289.495 C 199.865 278.991,189.198 264.217,184.003 246.132 C 181.223 236.453,181.223 216.741,184.003 207.063 C 190.014 186.136,203.978 168.927,222.742 159.320 C 225.733 157.789,236.775 153.466,237.948 153.367 C 238.066 153.357,238.163 186.280,238.163 226.528 M288.429 158.063 C 308.845 167.449,323.648 184.889,330.017 207.063 C 332.574 215.964,332.760 236.360,330.364 245.016 C 324.072 267.745,309.096 285.631,288.384 295.153 C 285.028 296.695,280.837 298.351,279.070 298.832 L 275.857 299.707 275.857 226.597 L 275.857 153.487 279.070 154.362 C 280.837 154.843,285.049 156.508,288.429 158.063 M82.457 170.184 C 73.387 173.254,65.966 176.216,65.966 176.766 C 65.966 179.358,103.066 288.708,103.946 288.708 C 104.495 288.708,112.573 286.165,121.897 283.058 C 135.920 278.383,138.770 277.162,138.395 275.990 C 138.145 275.210,129.713 249.899,119.658 219.744 C 107.498 183.275,100.969 164.862,100.162 164.758 C 99.495 164.672,91.528 167.114,82.457 170.184 M412.471 165.557 C 410.173 171.635,375.341 277.106,375.560 277.325 C 376.081 277.846,408.991 288.708,410.049 288.708 C 410.952 288.708,448.054 179.426,448.054 176.766 C 448.054 175.952,415.831 164.486,413.545 164.486 C 413.177 164.486,412.693 164.968,412.471 165.557 " stroke="none" fill-rule="evenodd" fill="black"></path></svg>