<svg width="136mm" height="120mm" version="1.1" viewBox="0 0 600 529.4117647058824" xmlns="http://www.w3.org/2000/svg"><path d="M238.163 76.230 L 238.163 114.765 235.807 115.274 C 200.003 123.010,170.759 145.424,155.451 176.864 C 150.595 186.837,146.388 200.177,144.847 210.484 C 143.664 218.394,143.664 234.800,144.847 242.710 C 148.401 266.485,160.270 289.928,177.249 306.712 C 193.908 323.179,211.414 332.505,235.807 337.907 L 238.163 338.429 238.163 376.964 L 238.163 415.500 257.010 415.500 L 275.857 415.500 275.857 376.964 L 275.857 338.429 278.213 337.907 C 302.606 332.505,320.112 323.179,336.771 306.712 C 351.389 292.263,361.245 275.077,366.607 254.688 C 369.252 244.628,370.081 237.926,370.081 226.597 C 370.081 195.451,358.270 167.528,335.819 145.598 C 320.511 130.646,300.427 120.073,278.213 115.274 L 275.857 114.765 275.857 76.230 L 275.857 37.695 257.010 37.695 L 238.163 37.695 238.163 76.230 M238.163 226.528 L 238.163 299.707 234.950 298.869 C 233.183 298.408,227.882 296.129,223.170 293.804 C 208.244 286.438,197.555 275.630,189.722 259.983 C 178.832 238.233,178.832 214.963,189.721 193.211 C 196.907 178.857,206.954 168.231,220.509 160.650 C 224.613 158.355,235.762 153.708,237.948 153.381 C 238.066 153.364,238.163 186.280,238.163 226.528 M284.383 156.291 C 294.565 159.997,306.548 168.603,314.633 178.016 C 320.513 184.861,328.293 199.941,330.415 208.606 C 332.442 216.881,332.441 236.359,330.413 244.496 C 328.695 251.387,323.598 262.630,319.163 269.312 C 315.051 275.506,306.125 284.443,299.674 288.824 C 294.034 292.654,284.178 297.442,279.070 298.832 L 275.857 299.707 275.857 226.588 L 275.857 153.469 278.213 154.186 C 279.509 154.580,282.286 155.527,284.383 156.291 M82.457 170.184 C 73.387 173.254,65.966 176.216,65.966 176.766 C 65.966 179.358,103.066 288.708,103.946 288.708 C 104.495 288.708,112.573 286.165,121.897 283.058 C 135.920 278.383,138.770 277.162,138.395 275.990 C 138.145 275.210,129.713 249.899,119.658 219.744 C 107.498 183.275,100.969 164.862,100.162 164.758 C 99.495 164.672,91.528 167.114,82.457 170.184 M412.471 165.557 C 410.173 171.635,375.341 277.106,375.560 277.325 C 376.081 277.846,408.991 288.708,410.049 288.708 C 410.952 288.708,448.054 179.426,448.054 176.766 C 448.054 175.952,415.831 164.486,413.545 164.486 C 413.177 164.486,412.693 164.968,412.471 165.557 " stroke="none" fill-rule="evenodd" fill="black"></path></svg>