<svg width="136mm" height="120mm" version="1.1" viewBox="0 0 600 529.4117647058824" xmlns="http://www.w3.org/2000/svg"><path d="M78.902 168.984 C 59.398 227.529,43.279 275.870,43.081 276.410 C 42.760 277.284,74.893 288.708,77.675 288.708 C 78.224 288.708,82.416 277.482,86.989 263.762 L 95.304 238.816 114.371 257.869 L 133.439 276.922 116.408 327.998 C 107.041 356.089,99.377 379.145,99.377 379.232 C 99.377 379.319,107.271 382.012,116.919 385.215 C 128.098 388.926,134.740 390.736,135.231 390.204 C 135.655 389.746,142.078 371.058,149.504 348.677 C 156.931 326.296,163.162 307.809,163.350 307.595 C 163.539 307.381,171.490 314.996,181.019 324.516 L 198.344 341.826 211.608 328.542 L 224.871 315.257 200.781 291.167 L 176.691 267.076 201.430 192.870 C 215.036 152.057,226.169 118.372,226.169 118.016 C 226.169 117.660,205.929 117.368,181.192 117.368 C 156.455 117.368,136.215 117.070,136.215 116.705 C 136.215 116.341,139.299 106.808,143.069 95.522 C 146.838 84.236,149.923 74.735,149.923 74.410 C 149.923 73.831,116.915 62.539,115.223 62.539 C 114.751 62.539,98.406 110.439,78.902 168.984 M256.062 230.295 L 212.710 360.356 230.229 366.172 C 239.864 369.371,248.049 371.659,248.417 371.256 C 248.785 370.853,255.944 349.898,264.328 324.689 L 279.570 278.856 294.965 325.118 C 303.432 350.562,310.515 371.555,310.705 371.770 C 310.894 371.985,317.979 369.875,326.449 367.081 L 341.849 362.001 356.640 366.904 C 364.775 369.601,371.871 371.808,372.408 371.808 C 372.945 371.808,380.255 351.183,388.653 325.974 C 397.051 300.766,404.120 280.141,404.362 280.141 C 404.605 280.141,411.674 300.766,420.072 325.974 C 428.922 352.540,435.772 371.808,436.368 371.808 C 437.427 371.808,470.338 360.947,470.860 360.425 C 471.021 360.264,460.589 328.448,447.679 289.723 L 424.205 219.313 442.110 165.612 C 451.959 136.076,459.927 111.842,459.818 111.758 C 458.335 110.617,424.586 100.246,424.098 100.780 C 423.726 101.187,405.165 156.345,382.849 223.354 C 360.534 290.363,342.030 344.914,341.729 344.577 C 341.427 344.240,331.817 315.826,320.373 281.434 L 299.565 218.902 317.354 165.509 C 327.139 136.143,334.966 111.938,334.748 111.720 C 334.201 111.173,301.390 100.234,300.296 100.234 C 299.811 100.234,279.905 158.761,256.062 230.295 M173.698 156.134 C 173.480 156.723,167.370 175.035,160.120 196.827 C 152.870 218.619,146.739 236.449,146.495 236.449 C 146.252 236.449,137.624 228.014,127.322 217.704 L 108.591 198.958 115.665 177.653 C 119.556 165.935,122.903 156.059,123.103 155.705 C 123.302 155.352,134.857 155.063,148.780 155.063 C 168.671 155.063,174.009 155.292,173.698 156.134 " stroke="none" fill-rule="evenodd" fill="black"></path></svg>