<svg width="136mm" height="120mm" version="1.1" viewBox="0 0 600 529.4117647058824" xmlns="http://www.w3.org/2000/svg"><path d="M78.370 169.680 C 58.728 228.608,42.836 277.000,43.055 277.219 C 43.647 277.812,76.458 288.708,77.650 288.708 C 78.230 288.708,82.274 277.906,86.989 263.762 L 95.304 238.816 114.371 257.869 L 133.439 276.922 116.424 327.950 C 107.066 356.016,99.541 379.111,99.702 379.272 C 100.223 379.793,133.133 390.655,134.192 390.655 C 134.782 390.655,141.087 373.042,149.066 349.105 C 156.683 326.253,163.169 307.555,163.479 307.555 C 163.789 307.555,171.761 315.266,181.193 324.691 L 198.344 341.826 211.606 328.543 L 224.868 315.261 200.674 291.056 L 176.480 266.851 201.325 192.329 C 214.989 151.342,226.169 117.708,226.169 117.588 C 226.169 117.467,205.929 117.368,181.192 117.368 C 156.455 117.368,136.215 117.070,136.215 116.705 C 136.215 116.341,139.299 106.808,143.069 95.522 C 146.838 84.236,149.923 74.735,149.923 74.410 C 149.923 73.801,116.870 62.539,115.083 62.539 C 114.518 62.539,98.574 109.069,78.370 169.680 M256.062 230.295 L 212.710 360.356 230.229 366.172 C 239.864 369.371,248.049 371.659,248.417 371.256 C 248.785 370.853,255.912 349.994,264.256 324.903 C 272.600 299.813,279.555 279.284,279.713 279.284 C 279.870 279.284,286.825 299.813,295.169 324.903 C 303.513 349.994,310.640 370.852,311.007 371.255 C 311.375 371.657,318.458 369.738,326.749 366.990 L 341.823 361.992 356.627 366.900 C 364.770 369.599,371.871 371.808,372.408 371.808 C 372.945 371.808,380.255 351.183,388.653 325.974 C 397.051 300.766,404.120 280.141,404.362 280.141 C 404.605 280.141,411.674 300.766,420.072 325.974 C 428.637 351.685,435.780 371.808,436.342 371.808 C 438.106 371.808,471.185 360.551,471.185 359.951 C 471.185 359.634,460.647 327.764,447.767 289.130 L 424.349 218.887 442.182 165.398 C 451.990 135.979,459.926 111.841,459.817 111.757 C 459.418 111.451,425.333 100.234,424.800 100.234 C 424.498 100.234,405.839 155.381,383.335 222.784 C 360.832 290.186,342.142 345.025,341.801 344.649 C 341.460 344.273,331.817 315.826,320.373 281.434 L 299.565 218.902 317.354 165.509 C 327.139 136.143,334.966 111.938,334.748 111.720 C 334.201 111.173,301.390 100.234,300.296 100.234 C 299.811 100.234,279.905 158.761,256.062 230.295 M173.698 156.134 C 173.480 156.723,167.370 175.035,160.120 196.827 C 152.870 218.619,146.739 236.449,146.495 236.449 C 146.252 236.449,137.624 228.014,127.322 217.704 L 108.591 198.958 115.665 177.653 C 119.556 165.935,122.903 156.059,123.103 155.705 C 123.302 155.352,134.857 155.063,148.780 155.063 C 168.671 155.063,174.009 155.292,173.698 156.134 " stroke="none" fill-rule="evenodd" fill="black"></path></svg>