<svg width="136mm" height="120mm" version="1.1" viewBox="0 0 600 529.4117647058824" xmlns="http://www.w3.org/2000/svg"><path d="M98.520 75.390 L 98.520 94.237 171.768 94.237 C 212.055 94.237,245.016 94.431,245.016 94.667 C 245.016 95.093,165.380 254.623,164.912 255.134 C 164.778 255.280,159.621 252.871,153.453 249.780 C 147.284 246.689,141.848 244.160,141.372 244.160 C 140.361 244.160,123.989 276.507,124.549 277.398 C 124.757 277.729,129.973 280.493,136.140 283.541 C 142.307 286.590,147.352 289.386,147.352 289.756 C 147.352 290.125,136.787 311.556,123.874 337.379 L 100.395 384.331 117.026 392.633 C 126.173 397.199,133.846 400.936,134.078 400.936 C 134.309 400.936,145.102 379.732,158.061 353.817 C 171.020 327.902,181.820 306.699,182.059 306.699 C 182.299 306.699,189.426 310.168,197.898 314.409 C 206.369 318.650,213.688 322.119,214.162 322.119 C 214.882 322.119,231.309 290.511,231.309 289.124 C 231.309 288.873,226.008 286.040,219.529 282.830 C 213.051 279.620,205.729 275.962,203.259 274.701 L 198.768 272.409 218.679 232.526 L 238.591 192.644 268.147 193.000 C 302.114 193.409,304.590 193.806,319.977 201.307 C 341.621 211.859,357.566 231.354,363.785 254.868 C 366.895 266.630,367.089 283.630,364.243 295.082 C 362.195 303.321,356.547 316.090,352.076 322.588 C 341.877 337.411,325.506 349.393,307.836 354.966 C 297.770 358.141,289.259 358.957,266.242 358.957 L 245.873 358.957 245.873 377.895 L 245.873 396.833 272.216 396.398 C 300.852 395.924,306.189 395.288,320.471 390.650 C 378.886 371.681,414.004 311.795,401.808 251.949 C 393.115 209.287,362.593 174.702,321.691 161.165 C 307.144 156.350,302.778 155.744,279.498 155.302 C 267.601 155.076,257.867 154.735,257.867 154.544 C 257.867 154.353,264.614 140.706,272.861 124.217 L 287.856 94.237 340.541 94.237 L 393.225 94.237 393.225 75.390 L 393.225 56.542 245.873 56.542 L 98.520 56.542 98.520 75.390 " stroke="none" fill-rule="evenodd" fill="black"></path></svg>