<svg width="136mm" height="120mm" version="1.1" viewBox="0 0 600 529.4117647058824" xmlns="http://www.w3.org/2000/svg"><path d="M98.520 75.390 L 98.520 94.237 171.768 94.237 C 212.055 94.237,245.016 94.431,245.016 94.667 C 245.016 95.177,165.325 254.688,164.783 255.263 C 164.578 255.480,159.220 253.071,152.875 249.909 C 146.530 246.747,141.152 244.160,140.923 244.160 C 140.211 244.159,124.150 276.762,124.549 277.398 C 124.757 277.729,129.973 280.493,136.140 283.541 C 142.307 286.590,147.352 289.386,147.352 289.756 C 147.352 290.125,136.787 311.556,123.874 337.379 L 100.395 384.331 117.117 392.679 C 126.314 397.270,133.928 400.910,134.036 400.767 C 134.143 400.624,144.726 379.689,157.553 354.245 C 170.380 328.801,181.185 307.668,181.565 307.281 C 181.944 306.895,189.555 310.233,198.478 314.699 L 214.702 322.819 223.051 306.095 C 227.643 296.896,231.283 289.265,231.140 289.135 C 230.998 289.006,223.749 285.344,215.032 280.998 C 206.315 276.651,199.065 272.989,198.922 272.859 C 198.778 272.729,207.643 254.653,218.622 232.690 L 238.582 192.758 265.010 192.758 C 288.044 192.758,292.514 192.977,299.827 194.467 C 332.084 201.041,356.310 224.491,364.273 256.850 C 366.866 267.386,366.849 284.397,364.235 295.028 C 357.600 322.008,337.877 344.042,311.627 353.799 C 300.717 357.853,297.018 358.301,270.931 358.723 L 245.873 359.129 245.873 377.890 L 245.873 396.652 267.505 396.650 C 279.402 396.648,292.606 396.233,296.847 395.727 C 347.110 389.728,387.874 354.333,400.558 305.677 C 414.776 251.139,388.105 192.832,337.514 167.849 C 317.921 158.174,307.196 155.871,279.070 155.301 C 267.408 155.065,257.867 154.719,257.867 154.534 C 257.867 154.348,264.614 140.706,272.861 124.217 L 287.856 94.237 340.541 94.237 L 393.225 94.237 393.225 75.390 L 393.225 56.542 245.873 56.542 L 98.520 56.542 98.520 75.390 " stroke="none" fill-rule="evenodd" fill="black"></path></svg>