<svg width="136mm" height="120mm" version="1.1" viewBox="0 0 600 529.4117647058824" xmlns="http://www.w3.org/2000/svg"><path d="M98.520 75.390 L 98.520 94.237 171.768 94.237 C 212.055 94.237,245.016 94.431,245.016 94.667 C 245.016 95.177,165.325 254.688,164.783 255.263 C 164.578 255.480,159.220 253.071,152.875 249.909 C 146.530 246.747,141.152 244.160,140.923 244.160 C 140.211 244.159,124.150 276.762,124.549 277.398 C 124.757 277.729,129.973 280.493,136.140 283.541 C 142.307 286.590,147.352 289.386,147.352 289.756 C 147.352 290.125,136.787 311.556,123.874 337.379 L 100.395 384.331 117.026 392.633 C 126.173 397.199,133.846 400.936,134.078 400.936 C 134.309 400.936,145.102 379.732,158.061 353.817 C 171.020 327.902,181.820 306.699,182.059 306.699 C 182.299 306.699,189.426 310.168,197.898 314.409 C 206.369 318.650,213.688 322.119,214.162 322.119 C 214.979 322.119,231.702 289.645,231.145 289.140 C 231.000 289.008,223.749 285.344,215.032 280.998 C 206.315 276.651,199.065 272.989,198.922 272.859 C 198.778 272.729,207.643 254.653,218.622 232.690 L 238.582 192.758 265.010 192.758 C 294.374 192.758,302.083 193.681,314.333 198.666 C 339.688 208.984,358.991 231.898,364.568 258.295 C 366.308 266.531,366.533 283.314,365.010 291.278 C 359.475 320.233,338.115 344.709,310.029 354.283 C 299.185 357.980,290.261 358.950,267.076 358.954 L 245.873 358.957 245.873 377.805 L 245.873 396.652 267.505 396.650 C 297.802 396.646,310.516 394.781,328.510 387.701 C 381.926 366.683,413.342 308.544,401.824 252.024 C 397.590 231.251,388.346 212.472,374.504 196.529 C 357.532 176.981,334.105 163.125,308.602 157.551 C 301.815 156.068,296.350 155.651,279.070 155.301 C 267.408 155.065,257.867 154.719,257.867 154.534 C 257.867 154.348,264.614 140.706,272.861 124.217 L 287.856 94.237 340.541 94.237 L 393.225 94.237 393.225 75.390 L 393.225 56.542 245.873 56.542 L 98.520 56.542 98.520 75.390 " stroke="none" fill-rule="evenodd" fill="black"></path></svg>