<svg width="136mm" height="120mm" version="1.1" viewBox="0 0 600 529.4117647058824" xmlns="http://www.w3.org/2000/svg"><path d="M124.419 79.459 L 124.650 98.092 154.849 98.317 C 171.458 98.441,185.047 98.635,185.047 98.749 C 185.047 98.863,167.506 151.576,146.067 215.888 C 124.628 280.201,107.088 333.083,107.088 333.403 C 107.087 334.222,142.017 345.731,142.633 345.115 C 142.911 344.837,161.563 289.336,184.082 221.779 L 225.027 98.949 254.297 98.723 C 270.396 98.599,283.568 98.636,283.568 98.805 C 283.568 98.973,276.050 121.551,266.862 148.978 C 257.674 176.405,250.156 199.210,250.156 199.656 C 250.156 200.156,266.545 200.468,292.834 200.468 C 319.212 200.468,337.453 200.816,340.595 201.378 C 343.391 201.879,349.315 204.042,353.759 206.185 C 372.807 215.370,385.539 235.524,385.509 256.443 C 385.473 280.768,370.214 302.189,347.001 310.502 L 339.682 313.124 307.769 313.394 L 275.857 313.665 275.857 332.517 L 275.857 351.370 309.483 351.046 C 342.477 350.727,343.262 350.679,351.310 348.502 C 362.963 345.348,371.308 341.662,380.496 335.609 C 399.009 323.413,412.474 305.557,418.794 284.824 C 422.518 272.605,423.538 264.703,422.969 252.478 C 422.332 238.810,419.498 227.806,413.435 215.460 C 407.936 204.263,402.719 197.178,393.561 188.472 C 385.852 181.145,379.805 176.932,370.303 172.269 C 354.658 164.593,345.076 162.773,320.294 162.773 C 310.460 162.773,302.415 162.480,302.415 162.122 C 302.415 161.764,309.933 138.926,319.121 111.371 C 328.309 83.816,335.826 61.170,335.826 61.048 C 335.826 60.926,288.208 60.826,230.007 60.826 L 124.188 60.826 124.419 79.459 M94.237 385.515 L 94.237 404.362 257.010 404.362 L 419.783 404.362 419.783 385.515 L 419.783 366.668 257.010 366.668 L 94.237 366.668 94.237 385.515 " stroke="none" fill-rule="evenodd" fill="black"></path></svg>