<svg width="136mm" height="120mm" version="1.1" viewBox="0 0 600 529.4117647058824" xmlns="http://www.w3.org/2000/svg"><path d="M125.078 79.673 L 125.078 98.520 155.063 98.520 C 171.554 98.520,185.047 98.811,185.047 99.167 C 185.047 99.522,167.514 152.409,146.084 216.694 C 124.655 280.979,107.255 333.709,107.418 333.872 C 107.581 334.035,115.573 336.798,125.177 340.012 L 142.641 345.855 183.833 222.402 L 225.026 98.949 254.297 98.723 C 270.396 98.599,283.568 98.603,283.568 98.732 C 283.568 98.860,276.050 121.511,266.862 149.066 C 257.674 176.621,250.156 199.459,250.156 199.817 C 250.156 200.175,269.529 200.481,293.206 200.498 C 341.477 200.532,342.710 200.649,354.149 206.320 C 367.253 212.815,378.084 225.353,382.608 239.264 C 385.749 248.924,385.986 263.822,383.142 272.859 C 377.402 291.093,363.796 304.846,345.250 311.159 C 339.972 312.956,338.017 313.071,307.769 313.360 L 275.857 313.665 275.857 332.510 L 275.857 351.356 309.055 351.016 C 346.193 350.635,348.132 350.397,363.756 344.309 C 392.031 333.290,414.467 306.820,421.048 276.714 C 426.728 250.730,420.458 222.176,404.312 200.499 C 390.069 181.377,368.610 168.104,345.352 164.030 C 340.579 163.195,332.179 162.773,320.294 162.773 C 310.460 162.773,302.415 162.480,302.415 162.122 C 302.415 161.764,309.933 138.926,319.121 111.371 C 328.309 83.816,335.826 61.170,335.826 61.048 C 335.826 60.926,288.408 60.826,230.452 60.826 L 125.078 60.826 125.078 79.673 M94.434 385.301 L 94.665 403.934 257.010 403.934 L 419.355 403.934 419.586 385.301 L 419.816 366.668 257.010 366.668 L 94.204 366.668 94.434 385.301 " stroke="none" fill-rule="evenodd" fill="black"></path></svg>