<svg width="136mm" height="120mm" version="1.1" viewBox="0 0 600 529.4117647058824" xmlns="http://www.w3.org/2000/svg"><path d="M336.683 107.516 C 336.683 186.604,337.515 179.251,329.078 174.754 C 318.000 168.849,309.257 159.729,304.041 148.637 C 299.387 138.738,298.852 135.090,298.361 109.855 L 297.907 86.494 279.386 86.724 L 260.865 86.955 260.614 104.517 C 260.207 132.900,262.093 146.666,268.452 161.744 C 275.084 177.469,288.923 193.934,303.453 203.388 C 312.449 209.240,318.330 211.977,328.544 215.065 L 336.255 217.396 336.498 226.510 C 336.681 233.351,336.467 235.710,335.641 235.968 C 335.036 236.157,331.165 237.352,327.038 238.625 C 312.192 243.203,300.510 250.289,289.031 261.678 C 276.510 274.102,268.005 288.763,263.826 305.132 C 261.323 314.934,260.324 328.475,260.614 348.677 L 260.865 366.239 279.386 366.470 L 297.907 366.700 298.361 343.339 C 298.852 318.105,299.387 314.456,304.041 304.557 C 309.257 293.466,318.000 284.345,329.078 278.441 C 337.515 273.944,336.683 266.590,336.683 345.678 L 336.683 415.500 355.531 415.500 L 374.378 415.500 374.378 345.207 L 374.378 274.914 381.136 278.430 C 389.485 282.774,397.072 289.530,402.110 297.109 C 410.453 309.658,412.002 317.268,412.043 345.909 L 412.073 366.701 430.706 366.470 L 449.339 366.239 449.596 346.107 C 449.885 323.494,449.059 313.829,445.889 302.744 C 441.284 286.642,433.142 273.119,420.854 261.166 C 408.865 249.503,396.306 242.125,381.348 237.959 L 374.391 236.021 374.384 226.573 L 374.378 217.125 380.161 215.631 C 395.411 211.693,408.999 203.639,421.558 191.095 C 434.872 177.797,442.008 165.295,446.979 146.559 C 449.065 138.695,449.158 137.300,449.247 112.656 L 449.339 86.955 430.706 86.724 L 412.073 86.493 412.043 107.285 C 412.002 135.926,410.453 143.537,402.110 156.085 C 397.072 163.664,389.485 170.421,381.136 174.764 L 374.378 178.280 374.378 107.988 L 374.378 37.695 355.531 37.695 L 336.683 37.695 336.683 107.516 M53.115 90.810 L 53.115 109.658 89.097 109.658 L 125.078 109.658 125.078 241.589 L 125.078 373.521 111.799 373.521 L 98.520 373.521 98.520 392.807 L 98.520 412.094 130.433 411.869 L 162.345 411.644 162.561 260.660 L 162.778 109.676 198.543 109.453 L 234.307 109.229 234.538 90.596 L 234.769 71.963 143.942 71.963 L 53.115 71.963 53.115 90.810 M68.108 147.298 C 55.886 151.441,51.001 153.468,51.069 154.370 C 51.121 155.065,57.791 175.515,65.891 199.815 L 80.618 243.997 98.478 238.037 L 116.337 232.076 101.223 186.716 C 92.910 161.768,85.913 141.386,85.675 141.423 C 85.437 141.460,77.531 144.104,68.108 147.298 M200.866 142.426 C 199.565 145.872,171.340 230.964,171.340 231.443 C 171.340 232.044,204.411 243.303,206.179 243.303 C 207.631 243.303,237.473 153.357,236.181 152.873 C 234.154 152.113,201.795 141.356,201.536 141.356 C 201.390 141.356,201.089 141.837,200.866 142.426 M65.592 299.679 C 57.326 324.470,50.849 345.010,51.197 345.322 C 51.904 345.955,85.895 357.332,86.137 357.016 C 86.222 356.906,93.052 336.500,101.316 311.670 L 116.342 266.525 98.481 260.564 L 80.620 254.603 65.592 299.679 M188.144 260.904 C 179.246 263.915,171.832 266.513,171.668 266.676 C 171.384 266.961,200.970 356.318,201.536 356.884 C 201.750 357.099,231.558 347.510,236.133 345.754 C 236.886 345.465,232.796 332.141,222.188 300.321 C 210.241 264.489,206.885 255.310,205.750 255.363 C 204.965 255.399,197.043 257.893,188.144 260.904 " stroke="none" fill-rule="evenodd" fill="black"></path></svg>