<svg width="136mm" height="120mm" version="1.1" viewBox="0 0 600 529.4117647058824" xmlns="http://www.w3.org/2000/svg"><path d="M336.683 107.944 C 336.683 146.581,336.469 178.194,336.207 178.194 C 334.734 178.194,324.451 172.416,320.499 169.367 C 310.933 161.989,301.870 147.613,299.904 136.700 C 299.400 133.905,298.988 121.665,298.988 109.500 L 298.988 87.383 279.713 87.383 L 260.437 87.383 260.452 106.445 C 260.460 116.929,260.843 129.080,261.303 133.448 C 265.514 173.415,292.427 205.158,331.115 215.787 L 336.255 217.199 336.255 226.539 L 336.255 235.878 333.685 236.642 C 318.674 241.103,309.587 245.337,299.618 252.514 C 280.395 266.355,267.612 286.487,262.468 311.023 C 261.231 316.922,260.942 322.708,260.907 342.252 L 260.865 366.239 279.713 366.239 L 298.560 366.239 299.030 340.967 C 299.430 319.470,299.733 315.054,301.058 311.410 C 306.572 296.253,316.387 284.914,330.022 277.945 C 333.191 276.326,335.986 275.001,336.233 275.001 C 336.481 275.001,336.683 306.613,336.683 345.250 L 336.683 415.500 355.526 415.500 L 374.368 415.499 374.587 345.185 L 374.806 274.871 381.231 278.148 C 389.565 282.399,400.204 292.736,404.816 301.062 C 410.857 311.968,411.411 315.225,411.854 342.466 L 412.248 366.668 431.008 366.668 L 449.767 366.668 449.765 343.751 C 449.762 318.785,448.885 310.725,444.898 298.988 C 434.837 269.378,410.712 246.215,381.369 237.992 L 374.378 236.033 374.384 226.603 L 374.391 217.173 381.267 215.258 C 405.588 208.485,427.295 190.715,438.894 168.086 C 447.903 150.508,449.761 140.558,449.765 109.872 L 449.767 87.383 431.009 87.383 L 412.250 87.383 411.854 111.157 C 411.407 137.922,410.832 141.272,404.816 152.132 C 400.204 160.458,389.565 170.795,381.231 175.046 L 374.806 178.324 374.587 108.009 L 374.368 37.695 355.526 37.695 L 336.683 37.695 336.683 107.944 M53.115 90.810 L 53.115 109.658 88.668 109.658 L 124.222 109.658 124.222 242.018 L 124.222 374.378 111.371 374.378 L 98.520 374.378 98.520 393.236 L 98.520 412.094 130.433 411.869 L 162.345 411.644 162.561 260.660 L 162.778 109.676 198.543 109.453 L 234.307 109.229 234.538 90.596 L 234.769 71.963 143.942 71.963 L 53.115 71.963 53.115 90.810 M68.381 147.206 C 59.108 150.349,51.261 153.186,50.944 153.510 C 50.457 154.007,79.231 242.110,80.261 243.273 C 80.934 244.034,115.654 232.033,115.654 231.040 C 115.654 229.495,86.168 141.347,85.676 141.423 C 85.437 141.460,77.655 144.062,68.381 147.206 M200.866 142.426 C 199.565 145.872,171.340 230.964,171.340 231.443 C 171.340 232.044,204.411 243.303,206.179 243.303 C 207.631 243.303,237.473 153.357,236.181 152.873 C 234.154 152.113,201.795 141.356,201.536 141.356 C 201.390 141.356,201.089 141.837,200.866 142.426 M80.225 255.152 C 78.522 258.196,50.537 344.712,51.091 345.216 C 51.498 345.586,59.465 348.421,68.797 351.516 C 80.447 355.380,85.878 356.823,86.131 356.122 C 86.333 355.561,93.229 335.177,101.454 310.825 L 116.410 266.547 98.478 260.563 C 88.615 257.271,80.401 254.836,80.225 255.152 M189.430 260.535 C 179.825 263.749,171.786 266.559,171.564 266.781 C 171.235 267.110,199.961 354.640,201.020 356.532 C 201.196 356.848,209.395 354.417,219.239 351.132 L 237.139 345.158 222.371 300.870 C 214.249 276.511,207.444 256.157,207.249 255.637 C 207.023 255.037,200.517 256.826,189.430 260.535 " stroke="none" fill-rule="evenodd" fill="black"></path></svg>