<svg width="136mm" height="120mm" version="1.1" viewBox="0 0 600 529.4117647058824" xmlns="http://www.w3.org/2000/svg"><path d="M335.617 107.904 L 335.398 178.114 330.086 175.481 C 319.428 170.198,309.935 160.568,304.214 149.235 C 299.604 140.102,299.015 135.706,299.001 110.300 L 298.988 87.383 279.604 87.383 L 260.219 87.383 260.687 112.014 C 261.173 137.633,261.818 143.039,265.771 154.634 C 273.266 176.619,287.868 194.480,307.984 206.268 C 314.725 210.218,324.595 214.273,331.329 215.857 L 335.826 216.916 335.826 226.615 L 335.826 236.313 333.042 236.905 C 323.295 238.979,309.414 245.461,299.618 252.514 C 280.395 266.355,267.612 286.487,262.468 311.023 C 261.231 316.922,260.942 322.708,260.907 342.252 L 260.865 366.239 279.713 366.239 L 298.560 366.239 299.055 340.967 C 299.582 314.061,299.762 312.794,304.344 303.700 C 309.999 292.478,318.957 283.474,330.001 277.913 L 335.826 274.979 335.826 345.239 L 335.826 415.500 355.097 415.500 L 374.368 415.499 374.587 345.299 L 374.806 275.098 379.946 277.574 C 390.316 282.568,400.998 293.239,406.102 303.700 C 410.843 313.421,411.377 317.060,411.848 342.911 L 412.282 366.700 430.811 366.470 L 449.339 366.239 449.601 346.107 C 449.753 334.348,449.449 322.592,448.870 317.841 C 446.179 295.784,436.537 276.259,420.929 261.261 C 408.754 249.562,394.351 241.258,379.967 237.645 L 374.378 236.241 374.378 226.493 C 374.378 217.784,374.538 216.744,375.877 216.736 C 378.604 216.721,394.053 210.921,399.900 207.718 C 421.068 196.123,437.013 177.071,444.666 154.228 C 448.679 142.250,449.757 132.597,449.762 108.587 L 449.767 87.383 431.026 87.383 L 412.284 87.383 411.847 110.728 C 411.373 136.092,410.820 139.821,406.102 149.494 C 401.034 159.882,390.532 170.405,379.946 175.700 L 374.806 178.271 374.587 107.983 L 374.368 37.695 355.102 37.695 L 335.836 37.695 335.617 107.904 M53.115 90.810 L 53.115 109.658 89.100 109.658 L 125.084 109.658 124.867 241.804 L 124.650 373.950 111.585 374.186 L 98.520 374.423 98.520 393.258 L 98.520 412.094 130.433 411.869 L 162.345 411.644 162.561 260.660 L 162.778 109.676 198.543 109.453 L 234.307 109.229 234.538 90.596 L 234.769 71.963 143.942 71.963 L 53.115 71.963 53.115 90.810 M68.108 147.298 C 55.886 151.441,51.001 153.468,51.069 154.370 C 51.121 155.065,57.791 175.515,65.891 199.815 L 80.618 243.997 98.478 238.037 L 116.337 232.076 101.223 186.716 C 92.910 161.768,85.913 141.386,85.675 141.423 C 85.437 141.460,77.531 144.104,68.108 147.298 M200.866 142.426 C 199.565 145.872,171.340 230.964,171.340 231.443 C 171.340 232.044,204.411 243.303,206.179 243.303 C 207.631 243.303,237.473 153.357,236.181 152.873 C 234.154 152.113,201.795 141.356,201.536 141.356 C 201.390 141.356,201.089 141.837,200.866 142.426 M65.592 299.679 C 57.326 324.470,50.849 345.010,51.197 345.322 C 51.904 345.955,85.895 357.332,86.137 357.016 C 86.222 356.906,93.052 336.500,101.316 311.670 L 116.342 266.525 98.481 260.564 L 80.620 254.603 65.592 299.679 M189.060 260.656 C 177.952 264.367,171.361 266.984,171.585 267.595 C 171.783 268.134,178.575 288.489,186.679 312.828 L 201.413 357.081 219.276 351.120 L 237.139 345.158 222.371 300.870 C 214.249 276.511,207.444 256.158,207.249 255.639 C 207.024 255.043,200.348 256.884,189.060 260.656 " stroke="none" fill-rule="evenodd" fill="black"></path></svg>