<svg width="136mm" height="120mm" version="1.1" viewBox="0 0 600 529.4117647058824" xmlns="http://www.w3.org/2000/svg"><path d="M298.132 56.496 C 298.132 83.155,293.456 119.740,286.519 147.352 C 282.168 164.673,281.712 166.200,280.889 166.200 C 280.473 166.200,265.828 159.046,248.345 150.302 C 230.862 141.558,216.441 134.522,216.299 134.667 C 215.737 135.239,199.611 166.817,199.611 167.345 C 199.611 167.655,214.743 175.470,233.237 184.711 C 251.731 193.953,267.036 201.678,267.249 201.878 C 267.805 202.400,261.847 214.255,256.893 222.483 C 240.811 249.197,220.635 265.509,200.790 267.842 L 196.184 268.383 196.184 287.239 L 196.184 306.096 203.019 305.569 C 224.084 303.944,243.473 294.341,262.041 276.335 C 275.965 262.833,286.171 248.885,296.458 229.300 C 299.342 223.808,301.865 219.315,302.065 219.315 C 302.265 219.315,311.604 223.906,322.818 229.517 L 343.208 239.718 351.556 222.994 C 356.148 213.796,359.788 206.164,359.645 206.035 C 359.503 205.905,349.651 200.935,337.754 194.991 C 325.857 189.047,316.122 183.845,316.122 183.431 C 316.122 183.016,317.850 176.659,319.961 169.303 C 326.056 148.066,331.631 118.100,334.087 93.380 C 334.746 86.743,336.531 54.060,336.672 46.048 C 336.678 45.694,328.009 45.405,317.407 45.405 L 298.132 45.405 298.132 56.496 M143.941 172.411 C 143.957 287.415,143.936 286.731,148.097 302.843 C 161.805 355.918,205.047 395.838,259.569 405.750 C 263.580 406.480,272.124 407.289,278.555 407.549 C 343.783 410.189,402.654 366.148,418.887 302.567 C 422.534 288.285,423.210 279.892,423.210 248.877 L 423.210 219.315 404.362 219.315 L 385.515 219.315 385.508 245.659 C 385.499 280.909,384.522 288.885,378.182 305.488 C 368.483 330.890,346.783 352.724,321.143 362.883 C 305.039 369.263,284.316 371.585,267.755 368.865 C 224.098 361.695,190.604 328.470,182.956 284.744 C 181.802 278.148,181.626 263.060,181.623 170.697 L 181.620 64.252 162.773 64.252 L 143.926 64.252 143.941 172.411 " stroke="none" fill-rule="evenodd" fill="black"></path></svg>