<svg width="136mm" height="120mm" version="1.1" viewBox="0 0 600 529.4117647058824" xmlns="http://www.w3.org/2000/svg"><path d="M298.120 56.328 C 298.099 76.136,295.337 103.097,290.812 127.648 C 288.766 138.752,282.255 165.228,281.347 166.136 C 281.106 166.377,266.429 159.336,248.731 150.491 C 231.033 141.646,216.446 134.526,216.317 134.669 C 216.187 134.813,212.374 142.350,207.843 151.418 L 199.606 167.906 233.234 184.710 C 251.729 193.952,267.037 201.679,267.251 201.880 C 267.892 202.482,260.621 216.551,255.269 225.066 C 243.161 244.331,227.953 258.860,213.995 264.498 C 211.296 265.588,206.185 266.942,202.636 267.507 L 196.184 268.533 196.184 287.315 L 196.184 306.096 203.019 305.569 C 224.084 303.944,243.473 294.341,262.041 276.335 C 275.965 262.833,286.171 248.885,296.458 229.300 C 299.342 223.808,301.865 219.315,302.066 219.315 C 302.266 219.315,311.290 223.749,322.119 229.167 C 332.949 234.586,342.196 239.019,342.669 239.019 C 343.485 239.019,360.206 206.545,359.650 206.039 C 359.505 205.907,349.651 200.935,337.754 194.991 C 325.857 189.047,316.127 183.703,316.133 183.116 C 316.139 182.529,316.932 179.543,317.894 176.480 C 328.244 143.543,334.416 103.157,336.193 56.756 L 336.627 45.405 317.379 45.405 L 298.132 45.405 298.120 56.328 M143.926 172.206 C 143.926 265.171,144.109 281.318,145.243 288.503 C 149.969 318.425,162.439 343.590,183.281 365.266 C 209.023 392.037,246.205 407.831,283.348 407.774 C 353.806 407.664,412.728 355.728,421.917 285.634 C 422.844 278.561,423.210 267.783,423.210 247.542 L 423.210 219.315 404.362 219.315 L 385.515 219.315 385.515 244.439 C 385.515 272.886,384.568 285.015,381.528 295.505 C 368.988 338.777,332.023 367.963,287.423 369.806 C 242.097 371.679,201.305 343.393,186.771 300.012 C 181.542 284.405,181.628 286.567,181.624 170.269 L 181.620 64.252 162.773 64.252 L 143.926 64.252 143.926 172.206 " stroke="none" fill-rule="evenodd" fill="black"></path></svg>