<svg width="136mm" height="120mm" version="1.1" viewBox="0 0 600 529.4117647058824" xmlns="http://www.w3.org/2000/svg"><path d="M298.132 56.799 C 298.132 78.684,294.951 108.180,289.961 132.577 C 286.584 149.088,281.970 166.200,280.896 166.200 C 280.476 166.200,265.828 159.046,248.345 150.302 C 230.862 141.558,216.450 134.522,216.319 134.667 C 216.188 134.812,212.373 142.351,207.842 151.421 L 199.603 167.912 233.447 184.827 C 252.061 194.131,267.290 202.086,267.290 202.505 C 267.290 203.792,260.515 216.649,256.002 223.925 C 240.068 249.616,220.137 265.659,201.539 267.763 L 196.184 268.368 196.184 287.105 L 196.184 305.842 199.945 305.842 C 205.104 305.842,216.156 303.662,223.265 301.242 C 237.933 296.249,249.755 288.435,263.485 274.658 C 277.754 260.340,288.529 245.267,298.092 226.247 C 300.009 222.434,301.769 219.315,302.003 219.315 C 302.238 219.315,311.290 223.749,322.119 229.167 C 332.949 234.586,342.196 239.019,342.669 239.019 C 343.485 239.019,360.206 206.545,359.650 206.039 C 359.505 205.907,349.651 200.935,337.754 194.991 C 325.857 189.047,316.127 183.703,316.133 183.116 C 316.139 182.529,316.932 179.543,317.895 176.480 C 320.530 168.101,326.074 145.549,328.055 135.157 C 332.302 112.876,335.215 84.477,336.142 56.328 L 336.502 45.405 317.317 45.405 L 298.132 45.405 298.132 56.799 M144.149 175.838 L 144.427 287.423 146.323 295.713 C 150.749 315.066,157.180 330.289,167.431 345.677 C 200.051 394.642,260.360 417.879,317.515 403.504 C 367.031 391.051,405.674 352.760,418.549 303.391 C 422.310 288.969,423.210 278.189,423.210 247.542 L 423.210 219.315 404.442 219.315 L 385.675 219.315 385.278 250.799 C 384.955 276.381,384.606 283.476,383.417 288.647 C 372.678 335.349,335.080 367.435,288.280 369.837 C 259.488 371.314,232.100 360.600,211.180 339.677 C 196.164 324.659,186.641 306.138,182.898 284.673 C 181.812 278.444,181.620 261.386,181.620 170.799 L 181.620 64.252 162.746 64.252 L 143.871 64.252 144.149 175.838 " stroke="none" fill-rule="evenodd" fill="black"></path></svg>