<svg width="136mm" height="120mm" version="1.1" viewBox="0 0 600 529.4117647058824" xmlns="http://www.w3.org/2000/svg"><path d="M285.498 84.166 L 245.024 124.640 201.962 110.295 C 178.277 102.406,158.454 95.950,157.909 95.950 C 156.632 95.950,145.207 130.150,146.185 131.043 C 146.592 131.414,162.295 136.825,181.082 143.068 L 215.241 154.418 176.585 193.081 L 137.929 231.744 151.419 245.234 L 164.908 258.724 210.321 213.317 L 255.733 167.911 313.522 187.179 C 345.306 197.776,371.567 206.162,371.879 205.813 C 372.513 205.106,383.889 171.116,383.574 170.872 C 383.463 170.787,361.592 163.480,334.970 154.634 C 308.348 145.788,286.390 138.396,286.176 138.206 C 285.961 138.017,300.993 122.650,319.580 104.059 L 353.374 70.256 340.113 56.974 C 332.819 49.669,326.654 43.692,326.412 43.692 C 326.170 43.692,307.759 61.905,285.498 84.166 M238.163 243.731 L 238.163 264.720 166.183 264.720 L 94.204 264.720 94.434 283.354 L 94.665 301.987 152.912 302.207 L 211.158 302.427 165.116 348.475 L 119.074 394.524 132.360 407.789 L 145.647 421.055 201.328 365.379 L 257.010 309.702 312.692 365.379 L 368.373 421.055 381.660 407.789 L 394.946 394.524 348.904 348.475 L 302.862 302.427 361.108 302.207 L 419.355 301.987 419.586 283.354 L 419.816 264.720 347.837 264.720 L 275.857 264.720 275.857 243.731 L 275.857 222.742 257.010 222.742 L 238.163 222.742 238.163 243.731 " stroke="none" fill-rule="evenodd" fill="black"></path></svg>