<svg width="136mm" height="120mm" version="1.1" viewBox="0 0 600 529.4117647058824" xmlns="http://www.w3.org/2000/svg"><path d="M229.596 35.511 C 193.131 40.238,157.560 55.579,130.264 78.351 C 120.893 86.169,105.882 101.969,98.893 111.371 C 73.445 145.604,60.740 183.974,60.740 226.597 C 60.740 277.154,79.206 323.216,113.941 359.305 C 131.001 377.030,147.219 388.947,168.342 399.278 C 196.121 412.865,222.325 418.929,253.155 418.905 C 275.932 418.887,293.706 416.096,313.930 409.363 C 383.425 386.224,432.961 326.853,444.263 253.155 C 446.237 240.280,446.237 212.914,444.263 200.039 C 431.211 114.932,367.041 49.763,283.071 36.338 C 271.343 34.463,241.267 33.998,229.596 35.511 M270.740 72.840 C 288.084 74.937,302.173 78.885,317.407 85.919 C 335.671 94.351,348.208 103.094,362.433 117.319 C 384.899 139.785,398.488 165.020,405.362 197.041 C 407.063 204.961,407.294 208.495,407.294 226.597 C 407.294 248.765,406.452 255.136,401.246 272.390 C 397.392 285.163,386.239 307.626,379.533 316.122 L 377.843 318.264 377.824 300.916 L 377.805 283.568 326.831 283.568 L 275.857 283.568 275.857 187.189 L 275.857 90.810 257.010 90.810 L 238.163 90.810 238.163 187.189 L 238.163 283.568 187.189 283.568 L 136.215 283.568 136.215 302.415 L 136.215 321.262 255.755 321.262 L 375.295 321.262 374.339 323.048 C 372.598 326.302,353.505 344.868,346.535 350.085 C 324.281 366.742,299.552 376.698,271.148 380.435 C 260.124 381.885,235.000 380.975,224.077 378.730 C 192.913 372.324,166.193 358.107,144.300 336.282 C 114.454 306.528,98.554 268.406,98.554 226.597 C 98.554 184.999,114.467 146.640,143.875 117.350 C 168.694 92.629,201.257 76.703,234.736 72.913 C 244.031 71.860,262.327 71.823,270.740 72.840 M162.345 128.451 C 150.122 132.593,145.238 134.621,145.306 135.522 C 145.410 136.910,189.348 269.186,189.918 269.831 C 190.593 270.594,225.312 258.589,225.324 257.589 C 225.345 255.925,180.545 122.503,179.991 122.576 C 179.709 122.613,171.768 125.257,162.345 128.451 M311.064 189.513 C 298.768 226.401,288.708 257.035,288.708 257.589 C 288.708 258.588,323.425 270.596,324.102 269.831 C 324.671 269.187,368.610 136.911,368.714 135.525 C 368.796 134.446,355.460 129.475,334.837 122.897 C 333.644 122.516,329.897 133.013,311.064 189.513 " stroke="none" fill-rule="evenodd" fill="black"></path></svg>