<svg width="136mm" height="120mm" version="1.1" viewBox="0 0 600 529.4117647058824" xmlns="http://www.w3.org/2000/svg"><path d="M228.739 35.615 C 187.723 40.877,149.718 59.162,119.860 87.999 C 102.793 104.482,90.887 120.766,80.537 141.784 C 67.080 169.110,60.840 195.978,60.840 226.597 C 60.840 277.152,79.660 323.730,114.798 360.136 C 146.736 393.227,187.471 413.083,233.732 418.109 C 247.143 419.566,272.398 418.749,285.709 416.428 C 317.392 410.903,348.743 396.834,373.521 377.024 C 381.440 370.692,394.114 358.112,401.647 349.105 C 419.992 327.173,435.222 296.225,441.084 268.970 C 446.949 241.702,446.983 211.468,441.179 184.619 C 435.181 156.876,420.096 126.146,401.647 104.089 C 383.168 81.996,362.577 65.846,337.111 53.475 C 316.718 43.567,296.011 37.566,273.964 35.171 C 262.841 33.964,239.852 34.189,228.739 35.615 M284.056 74.875 C 342.893 87.269,388.786 131.205,403.451 189.176 C 409.230 212.022,409.230 241.173,403.451 264.018 C 399.413 279.979,391.971 297.106,383.236 310.537 L 378.233 318.230 378.001 300.899 L 377.769 283.568 326.813 283.568 L 275.857 283.568 275.857 187.189 L 275.857 90.810 257.010 90.810 L 238.163 90.810 238.163 187.189 L 238.163 283.568 187.189 283.568 L 136.215 283.568 136.215 302.415 L 136.215 321.262 255.755 321.262 L 375.295 321.262 374.268 323.190 C 372.214 327.044,351.469 346.687,343.537 352.289 C 317.341 370.787,290.340 379.916,258.631 380.995 C 218.258 382.370,181.012 369.069,150.789 342.484 C 115.877 311.774,96.973 267.456,98.797 220.600 C 99.553 201.204,102.544 186.820,109.397 169.628 C 130.538 116.589,176.715 80.941,234.772 72.839 C 237.815 72.415,247.822 72.209,257.010 72.382 C 270.778 72.641,275.534 73.080,284.056 74.875 M162.345 128.451 C 150.122 132.593,145.238 134.621,145.306 135.522 C 145.410 136.910,189.348 269.186,189.918 269.831 C 190.595 270.596,225.312 258.588,225.312 257.589 C 225.312 255.772,180.636 122.506,180.050 122.576 C 179.736 122.613,171.768 125.257,162.345 128.451 M311.064 189.513 C 298.768 226.401,288.708 257.035,288.708 257.589 C 288.708 258.588,323.425 270.596,324.102 269.831 C 324.671 269.187,368.610 136.911,368.714 135.525 C 368.796 134.446,355.460 129.475,334.837 122.897 C 333.644 122.516,329.897 133.013,311.064 189.513 " stroke="none" fill-rule="evenodd" fill="black"></path></svg>