<svg width="136mm" height="120mm" version="1.1" viewBox="0 0 600 529.4117647058824" xmlns="http://www.w3.org/2000/svg"><path d="M229.596 35.565 C 196.481 39.657,165.057 52.298,137.827 72.482 C 127.438 80.182,107.929 99.397,100.498 109.248 C 87.067 127.053,77.114 146.008,70.358 166.649 C 63.528 187.514,60.840 204.446,60.840 226.597 C 60.840 248.635,63.531 265.687,70.247 286.210 C 80.055 316.179,94.694 339.905,117.282 362.444 C 134.310 379.435,147.578 389.041,167.995 399.161 C 186.790 408.478,207.040 414.608,229.167 417.677 C 242.120 419.474,272.117 419.033,283.996 416.872 C 318.292 410.630,347.815 397.453,373.521 376.911 C 385.762 367.130,400.435 351.650,410.028 338.397 C 451.365 281.287,457.268 202.141,424.878 139.293 C 398.065 87.268,350.792 50.968,293.226 38.200 C 276.219 34.428,248.192 33.267,229.596 35.565 M273.577 73.248 C 331.995 80.906,381.429 121.902,400.122 178.194 C 408.622 203.791,410.191 231.447,404.689 258.723 C 401.489 274.592,392.621 295.866,382.909 310.975 L 378.233 318.250 378.001 300.909 L 377.769 283.568 326.813 283.568 L 275.857 283.568 275.857 187.189 L 275.857 90.810 257.010 90.810 L 238.163 90.810 238.163 187.189 L 238.163 283.568 187.189 283.568 L 136.215 283.568 136.215 302.415 L 136.215 321.262 255.755 321.262 L 375.295 321.262 374.370 322.990 C 372.660 326.185,353.453 344.868,346.535 350.066 C 324.403 366.693,299.576 376.695,271.148 380.435 C 260.124 381.885,235.000 380.975,224.077 378.730 C 192.741 372.288,165.864 357.894,143.837 335.757 C 114.508 306.281,98.520 267.770,98.521 226.597 C 98.521 185.384,114.606 146.688,143.926 117.368 C 178.209 83.085,225.598 66.958,273.577 73.248 M162.345 128.451 C 150.122 132.593,145.238 134.621,145.306 135.522 C 145.410 136.910,189.348 269.186,189.918 269.831 C 190.595 270.596,225.312 258.588,225.312 257.589 C 225.312 255.772,180.636 122.506,180.050 122.576 C 179.736 122.613,171.768 125.257,162.345 128.451 M311.064 189.513 C 298.768 226.401,288.708 257.035,288.708 257.589 C 288.708 258.588,323.425 270.596,324.102 269.831 C 324.671 269.187,368.610 136.911,368.714 135.525 C 368.796 134.446,355.460 129.475,334.837 122.897 C 333.644 122.516,329.897 133.013,311.064 189.513 " stroke="none" fill-rule="evenodd" fill="black"></path></svg>