<svg width="136mm" height="120mm" version="1.1" viewBox="0 0 600 529.4117647058824" xmlns="http://www.w3.org/2000/svg"><path d="M98.327 67.276 L 98.092 81.437 91.140 83.843 C 70.952 90.831,54.631 105.607,45.447 125.212 C 39.908 137.037,38.168 145.021,38.193 158.489 C 38.218 171.133,39.275 176.886,43.665 188.270 C 48.571 200.991,58.919 214.188,70.838 222.923 L 76.138 226.807 71.810 229.612 C 60.855 236.710,48.630 252.048,43.665 264.924 C 39.275 276.308,38.218 282.062,38.193 294.705 C 38.175 304.122,38.536 307.623,40.135 313.552 C 44.062 328.114,51.433 340.856,61.804 351.013 C 71.051 360.069,79.399 365.287,91.140 369.351 L 98.092 371.757 98.327 385.918 L 98.562 400.079 117.368 400.079 L 136.174 400.079 136.409 385.875 L 136.644 371.670 142.237 369.715 C 169.591 360.154,189.004 338.307,194.908 310.441 C 196.546 302.708,196.527 286.868,194.869 278.842 C 190.766 258.979,179.327 241.556,162.559 229.629 C 160.321 228.037,158.489 226.659,158.489 226.566 C 158.489 226.473,160.128 225.316,162.130 223.995 C 167.013 220.776,175.847 212.258,180.314 206.465 C 190.220 193.616,196.184 176.726,196.184 161.524 L 196.184 155.063 221.029 155.063 L 245.873 155.063 245.873 171.987 L 245.873 188.912 218.040 272.402 C 202.731 318.322,190.491 356.147,190.839 356.459 C 191.547 357.093,225.537 368.468,225.780 368.153 C 225.865 368.043,234.586 341.962,245.161 310.196 L 264.388 252.439 283.821 310.115 C 294.509 341.837,303.381 367.919,303.537 368.075 C 303.693 368.231,310.727 366.049,319.167 363.225 L 334.514 358.092 349.091 362.934 C 357.109 365.597,364.111 367.938,364.652 368.137 C 365.278 368.366,372.582 347.647,384.779 311.040 C 395.309 279.439,404.122 253.583,404.362 253.583 C 404.603 253.583,413.416 279.439,423.945 311.040 C 436.143 347.647,443.447 368.366,444.073 368.137 C 444.613 367.939,452.380 365.359,461.333 362.403 C 470.285 359.448,477.895 356.774,478.243 356.461 C 478.591 356.148,466.351 318.322,451.043 272.402 L 423.210 188.912 423.210 172.001 L 423.210 155.089 447.840 154.862 L 472.470 154.634 472.701 136.001 L 472.932 117.368 448.071 117.368 L 423.210 117.368 423.210 92.524 L 423.210 67.679 404.362 67.679 L 385.515 67.679 385.515 92.524 L 385.515 117.368 362.812 117.368 L 340.110 117.368 340.110 136.215 L 340.110 155.063 362.812 155.063 L 385.515 155.063 385.515 172.416 L 385.515 189.770 360.275 265.478 C 346.394 307.118,334.868 341.354,334.664 341.558 C 334.459 341.763,322.879 307.692,308.930 265.845 L 283.568 189.759 283.568 172.411 L 283.568 155.063 306.270 155.063 L 328.973 155.063 328.973 136.215 L 328.973 117.368 306.270 117.368 L 283.568 117.368 283.568 92.524 L 283.568 67.679 264.720 67.679 L 245.873 67.679 245.873 92.524 L 245.873 117.368 221.029 117.368 L 196.184 117.368 196.116 132.574 C 196.049 147.577,196.032 147.708,194.876 142.381 C 190.561 122.511,178.106 104.020,161.700 93.130 C 155.451 88.982,145.763 84.366,140.445 83.003 L 136.215 81.919 136.215 67.517 L 136.215 53.115 117.389 53.115 L 98.562 53.115 98.327 67.276 M98.147 195.130 C 97.342 195.935,91.820 191.788,87.080 186.819 C 72.254 171.275,71.928 147.024,86.330 130.995 C 88.559 128.515,92.117 125.385,94.237 124.039 L 98.092 121.592 98.316 158.165 C 98.439 178.280,98.362 194.915,98.147 195.130 M146.395 129.431 C 164.396 147.313,162.264 176.514,141.829 191.942 C 139.363 193.804,137.091 195.328,136.780 195.328 C 136.469 195.328,136.215 178.729,136.215 158.441 L 136.215 121.555 138.898 123.102 C 140.374 123.953,143.747 126.801,146.395 129.431 M98.520 294.705 C 98.520 314.966,98.301 331.543,98.032 331.543 C 96.681 331.543,89.712 325.957,86.227 322.082 C 72.298 306.589,72.312 282.182,86.257 267.183 C 90.385 262.743,96.422 257.867,97.792 257.867 C 98.193 257.867,98.520 274.444,98.520 294.705 M146.584 265.528 C 159.416 278.360,162.282 298.632,153.536 314.701 C 150.934 319.481,143.116 327.728,138.946 330.092 L 136.215 331.640 136.215 294.731 L 136.215 257.823 138.973 259.249 C 140.490 260.033,143.914 262.859,146.584 265.528 " stroke="none" fill-rule="evenodd" fill="black"></path></svg>