<svg width="136mm" height="120mm" version="1.1" viewBox="0 0 600 529.4117647058824" xmlns="http://www.w3.org/2000/svg"><path d="M98.520 67.278 C 98.520 80.024,98.371 81.485,97.021 81.890 C 96.197 82.137,92.052 83.697,87.812 85.356 C 52.181 99.300,31.485 138.307,39.920 175.624 C 44.549 196.105,55.899 212.356,74.806 225.571 C 76.229 226.566,75.960 226.938,71.685 229.882 C 47.889 246.271,34.534 276.994,38.854 305.414 C 41.353 321.850,48.149 336.359,58.604 347.576 C 68.759 358.470,78.138 364.753,90.925 369.227 L 98.092 371.734 98.327 385.907 L 98.562 400.079 117.389 400.079 L 136.215 400.079 136.215 385.916 C 136.215 373.171,136.365 371.709,137.715 371.305 C 150.543 367.463,162.881 360.434,171.996 351.776 C 198.649 326.458,204.077 285.515,185.030 253.453 C 180.799 246.332,171.324 236.032,164.058 230.653 C 161.231 228.561,158.918 226.736,158.918 226.597 C 158.918 226.459,161.231 224.633,164.058 222.541 C 183.496 208.154,195.659 185.193,196.364 161.558 L 196.558 155.063 221.215 155.063 L 245.873 155.063 245.873 171.987 L 245.873 188.912 218.040 272.402 C 202.731 318.322,190.491 356.147,190.839 356.459 C 191.547 357.093,225.537 368.468,225.780 368.153 C 225.865 368.043,234.597 341.930,245.184 310.125 L 264.435 252.298 283.532 309.697 C 294.035 341.266,302.888 367.383,303.204 367.734 C 303.519 368.086,310.693 366.060,319.146 363.232 L 334.514 358.092 349.091 362.934 C 357.109 365.597,364.111 367.938,364.652 368.137 C 365.278 368.366,372.582 347.647,384.779 311.040 C 395.309 279.439,404.122 253.583,404.362 253.583 C 404.603 253.583,413.407 279.413,423.926 310.982 C 434.445 342.551,443.128 368.381,443.222 368.381 C 443.415 368.381,476.215 357.447,477.771 356.864 C 478.453 356.608,469.659 329.100,450.999 273.126 L 423.210 189.769 423.210 172.416 L 423.210 155.063 447.626 155.063 L 472.042 155.063 472.042 136.215 L 472.042 117.368 447.626 117.368 L 423.210 117.368 423.210 92.524 L 423.210 67.679 404.362 67.679 L 385.515 67.679 385.515 92.524 L 385.515 117.368 362.812 117.368 L 340.110 117.368 340.110 136.215 L 340.110 155.063 362.812 155.063 L 385.515 155.063 385.515 171.986 L 385.515 188.910 359.956 265.580 L 334.398 342.250 308.983 266.004 L 283.568 189.759 283.568 172.411 L 283.568 155.063 306.270 155.063 L 328.973 155.063 328.973 136.215 L 328.973 117.368 306.270 117.368 L 283.568 117.368 283.568 92.524 L 283.568 67.679 264.720 67.679 L 245.873 67.679 245.873 92.524 L 245.873 117.368 221.029 117.368 L 196.184 117.368 196.114 132.574 L 196.045 147.781 194.772 141.843 C 189.058 115.188,169.422 93.167,143.069 83.861 L 136.644 81.592 136.409 67.354 L 136.174 53.115 117.347 53.115 L 98.520 53.115 98.520 67.278 M98.117 195.160 C 97.352 195.925,90.774 190.816,86.493 186.133 C 84.181 183.602,81.041 178.950,79.516 175.793 C 77.039 170.668,76.707 169.082,76.403 160.950 C 76.028 150.887,77.308 144.663,81.073 138.238 C 84.147 132.994,89.407 127.315,94.027 124.255 L 98.092 121.562 98.316 158.150 C 98.439 178.273,98.349 194.928,98.117 195.160 M146.440 129.373 C 155.360 138.209,158.998 148.082,158.295 161.538 C 157.936 168.398,157.458 170.388,154.876 175.780 C 151.518 182.791,146.441 188.964,140.894 192.780 C 138.858 194.181,136.972 195.328,136.703 195.328 C 136.435 195.328,136.215 178.729,136.215 158.441 L 136.215 121.555 138.944 123.102 C 140.444 123.953,143.817 126.775,146.440 129.373 M98.520 294.727 L 98.520 331.587 96.165 330.366 C 92.127 328.273,85.976 322.330,82.627 317.284 C 77.545 309.627,76.059 303.706,76.425 292.563 C 76.705 284.066,77.003 282.586,79.459 277.511 C 80.957 274.416,83.820 270.024,85.821 267.750 C 89.263 263.840,96.483 257.934,97.878 257.888 C 98.231 257.876,98.520 274.454,98.520 294.727 M140.894 260.414 C 146.441 264.231,151.518 270.404,154.876 277.414 C 157.458 282.807,157.936 284.797,158.295 291.657 C 158.787 301.075,157.667 306.742,153.888 313.957 C 150.910 319.643,143.284 327.936,139.000 330.149 L 136.215 331.587 136.215 294.727 C 136.215 274.454,136.435 257.867,136.703 257.867 C 136.972 257.867,138.858 259.013,140.894 260.414 " stroke="none" fill-rule="evenodd" fill="black"></path></svg>