<svg width="136mm" height="120mm" version="1.1" viewBox="0 0 600 529.4117647058824" xmlns="http://www.w3.org/2000/svg"><path d="M98.327 67.298 L 98.092 81.481 91.803 83.598 C 79.399 87.773,69.144 94.498,59.303 104.910 C 47.998 116.872,40.664 132.647,38.523 149.602 C 35.043 177.174,48.965 208.298,71.461 223.234 C 74.093 224.982,76.246 226.495,76.246 226.597 C 76.246 226.699,74.093 228.213,71.461 229.960 C 49.050 244.840,35.312 275.329,38.514 303.082 C 40.483 320.155,47.844 336.159,59.303 348.284 C 69.144 358.697,79.399 365.421,91.803 369.597 L 98.092 371.713 98.327 385.896 L 98.562 400.079 117.389 400.079 L 136.215 400.079 136.215 385.916 C 136.215 373.176,136.366 371.707,137.715 371.290 C 138.539 371.035,142.298 369.674,146.067 368.264 C 170.230 359.231,189.622 336.383,194.838 310.804 C 196.573 302.293,196.568 287.074,194.826 278.606 C 190.942 259.719,179.739 242.260,164.058 230.653 C 161.231 228.561,158.918 226.736,158.918 226.597 C 158.918 226.459,161.231 224.633,164.058 222.541 C 171.324 217.163,180.799 206.862,185.030 199.741 C 192.076 187.880,196.184 173.804,196.184 161.524 L 196.184 155.063 221.029 155.063 L 245.873 155.063 245.873 171.987 L 245.873 188.912 218.040 272.402 C 202.731 318.322,190.491 356.147,190.839 356.459 C 191.547 357.093,225.537 368.468,225.780 368.153 C 225.865 368.043,234.597 341.930,245.184 310.125 L 264.435 252.298 283.532 309.697 C 294.035 341.266,302.888 367.383,303.204 367.734 C 303.519 368.086,310.693 366.060,319.146 363.232 L 334.514 358.092 349.091 362.934 C 357.109 365.597,364.111 367.938,364.652 368.137 C 365.278 368.366,372.582 347.647,384.779 311.040 C 395.309 279.439,404.122 253.583,404.362 253.583 C 404.603 253.583,413.407 279.413,423.926 310.982 C 434.445 342.551,443.128 368.381,443.222 368.381 C 443.415 368.381,476.215 357.447,477.771 356.864 C 478.453 356.608,469.659 329.100,450.999 273.126 L 423.210 189.769 423.210 172.416 L 423.210 155.063 447.626 155.063 L 472.042 155.063 472.042 136.215 L 472.042 117.368 447.626 117.368 L 423.210 117.368 423.210 92.524 L 423.210 67.679 404.362 67.679 L 385.515 67.679 385.515 92.524 L 385.515 117.368 362.812 117.368 L 340.110 117.368 340.110 136.215 L 340.110 155.063 362.812 155.063 L 385.515 155.063 385.515 171.986 L 385.515 188.910 359.956 265.580 L 334.398 342.250 308.983 266.004 L 283.568 189.759 283.568 172.411 L 283.568 155.063 306.270 155.063 L 328.973 155.063 328.973 136.215 L 328.973 117.368 306.270 117.368 L 283.568 117.368 283.568 92.524 L 283.568 67.679 264.720 67.679 L 245.873 67.679 245.873 92.524 L 245.873 117.368 221.029 117.368 L 196.184 117.368 196.114 132.574 L 196.045 147.781 194.766 141.784 C 188.988 114.690,167.956 91.576,141.356 83.085 L 136.644 81.581 136.409 67.348 L 136.174 53.115 117.368 53.115 L 98.562 53.115 98.327 67.298 M98.162 195.115 C 97.954 195.323,96.110 194.341,94.063 192.933 C 69.639 176.128,69.950 140.340,94.665 123.814 L 98.092 121.523 98.316 158.130 C 98.439 178.264,98.369 194.908,98.162 195.115 M144.496 127.338 C 149.443 131.326,154.738 139.593,156.896 146.695 C 158.388 151.610,158.638 154.158,158.306 161.065 C 157.952 168.420,157.530 170.242,154.908 175.755 C 151.515 182.889,144.979 190.521,139.749 193.455 L 136.215 195.437 136.215 158.446 L 136.215 121.454 138.571 122.958 C 139.867 123.784,142.533 125.755,144.496 127.338 M98.520 294.727 L 98.520 331.587 96.165 330.366 C 92.206 328.315,86.001 322.367,82.821 317.577 C 72.408 301.888,73.896 280.947,86.411 267.045 C 89.481 263.635,96.626 257.929,97.878 257.888 C 98.231 257.876,98.520 274.454,98.520 294.727 M140.894 260.414 C 146.447 264.235,151.519 270.406,154.887 277.439 C 157.537 282.971,157.950 284.749,158.306 292.129 C 158.638 299.036,158.388 301.584,156.896 306.499 C 153.935 316.246,147.564 324.499,138.571 330.237 L 136.215 331.740 136.215 294.803 C 136.215 274.488,136.435 257.867,136.703 257.867 C 136.972 257.867,138.858 259.013,140.894 260.414 " stroke="none" fill-rule="evenodd" fill="black"></path></svg>