<svg width="136mm" height="120mm" version="1.1" viewBox="0 0 600 529.4117647058824" xmlns="http://www.w3.org/2000/svg"><path d="M238.163 61.587 L 238.163 85.479 234.950 86.082 C 229.583 87.089,218.187 91.981,211.500 96.150 C 175.924 118.329,161.417 160.661,175.751 200.468 C 184.616 225.085,207.542 246.293,232.808 253.247 L 238.163 254.721 238.163 274.713 L 238.163 294.705 191.044 294.705 L 143.926 294.705 143.926 313.552 L 143.926 332.400 257.010 332.400 L 370.094 332.400 370.094 313.552 L 370.094 294.705 322.976 294.705 L 275.857 294.705 275.857 274.700 L 275.857 254.694 281.489 253.170 C 293.263 249.983,306.611 242.290,316.436 233.030 C 336.150 214.451,345.788 189.041,343.378 162.002 C 340.953 134.794,326.095 110.847,302.520 96.150 C 295.833 91.981,284.437 87.089,279.070 86.082 L 275.857 85.479 275.857 61.587 L 275.857 37.695 257.010 37.695 L 238.163 37.695 238.163 61.587 M238.163 170.055 C 238.163 194.792,237.873 215.028,237.520 215.024 C 235.401 214.997,226.638 208.812,221.878 203.983 C 212.604 194.574,208.164 183.487,208.191 169.799 C 208.216 156.889,212.157 146.628,220.729 137.156 C 225.202 132.213,234.864 125.078,237.085 125.078 C 237.937 125.078,238.163 134.486,238.163 170.055 M284.219 129.135 C 293.769 135.439,302.005 147.031,304.523 157.713 C 308.552 174.806,303.951 192.003,292.142 203.983 C 287.382 208.812,278.619 214.997,276.500 215.024 C 276.147 215.028,275.857 194.766,275.857 169.997 L 275.857 124.963 277.785 125.562 C 278.845 125.891,281.740 127.499,284.219 129.135 M123.892 132.399 C 114.993 135.410,107.532 138.055,107.311 138.276 C 106.918 138.669,131.445 213.204,132.900 216.038 C 133.558 217.321,135.425 216.879,150.561 211.860 C 159.869 208.773,167.817 205.944,168.224 205.574 C 168.630 205.204,163.104 187.327,155.944 165.846 C 145.603 134.821,142.633 126.805,141.498 126.858 C 140.713 126.894,132.790 129.388,123.892 132.399 M358.076 165.846 C 350.916 187.327,345.390 205.204,345.796 205.574 C 347.423 207.056,380.381 217.427,380.883 216.615 C 381.503 215.613,406.933 139.505,406.933 138.653 C 406.933 138.050,373.863 126.792,372.093 126.792 C 371.537 126.792,365.319 144.115,358.076 165.846 M86.527 377.805 L 86.527 396.652 257.010 396.652 L 427.493 396.652 427.493 377.805 L 427.493 358.957 257.010 358.957 L 86.527 358.957 86.527 377.805 " stroke="none" fill-rule="evenodd" fill="black"></path></svg>