<svg width="136mm" height="120mm" version="1.1" viewBox="0 0 600 529.4117647058824" xmlns="http://www.w3.org/2000/svg"><path d="M238.163 61.587 L 238.163 85.479 234.961 86.080 C 233.200 86.410,228.530 87.983,224.583 89.574 C 202.327 98.549,183.719 117.679,175.690 139.838 C 171.238 152.127,170.944 154.009,170.970 170.055 C 170.993 184.380,171.162 186.024,173.343 193.186 C 178.203 209.143,185.792 221.754,196.911 232.348 C 207.273 242.221,220.373 249.879,232.531 253.170 L 238.163 254.694 238.163 274.700 L 238.163 294.705 191.044 294.705 L 143.926 294.705 143.926 313.552 L 143.926 332.400 257.010 332.400 L 370.094 332.400 370.094 313.552 L 370.094 294.705 322.976 294.705 L 275.857 294.705 275.857 274.700 L 275.857 254.694 281.489 253.170 C 284.587 252.331,290.214 250.150,293.995 248.321 C 317.284 237.059,332.950 218.556,340.677 193.186 C 342.858 186.024,343.027 184.380,343.050 170.055 C 343.076 153.970,342.802 152.232,338.269 139.642 C 330.402 117.794,311.591 98.508,289.437 89.574 C 285.490 87.983,280.820 86.410,279.059 86.080 L 275.857 85.479 275.857 61.587 L 275.857 37.695 257.010 37.695 L 238.163 37.695 238.163 61.587 M238.163 170.055 C 238.163 194.792,237.873 215.028,237.520 215.024 C 235.359 214.997,226.621 208.792,221.869 203.911 C 212.691 194.482,208.166 183.294,208.191 170.089 C 208.217 155.736,212.449 145.629,222.733 135.359 C 228.171 129.928,235.073 125.135,237.520 125.090 C 237.873 125.084,238.163 145.318,238.163 170.055 M284.219 129.135 C 294.267 135.768,302.796 148.418,305.035 160.010 C 306.544 167.826,305.668 179.879,303.081 186.886 C 300.620 193.552,294.536 202.426,289.362 206.898 C 285.840 209.942,277.822 215.007,276.500 215.024 C 276.147 215.028,275.857 194.766,275.857 169.997 L 275.857 124.963 277.785 125.562 C 278.845 125.891,281.740 127.499,284.219 129.135 M123.892 132.399 C 114.993 135.410,107.579 138.008,107.415 138.172 C 107.194 138.393,130.874 210.399,133.168 216.480 C 133.433 217.183,138.823 215.752,150.519 211.874 C 159.850 208.779,167.817 205.944,168.224 205.574 C 168.630 205.204,163.104 187.327,155.944 165.846 C 145.603 134.821,142.633 126.805,141.498 126.858 C 140.713 126.894,132.790 129.388,123.892 132.399 M358.076 165.846 C 350.916 187.327,345.390 205.204,345.796 205.574 C 346.203 205.944,354.170 208.779,363.501 211.874 C 375.197 215.752,380.587 217.183,380.852 216.480 C 383.123 210.461,406.827 138.394,406.608 138.176 C 406.086 137.654,373.177 126.792,372.118 126.792 C 371.529 126.792,365.564 143.382,358.076 165.846 M86.527 377.805 L 86.527 396.652 257.010 396.652 L 427.493 396.652 427.493 377.805 L 427.493 358.957 257.010 358.957 L 86.527 358.957 86.527 377.805 " stroke="none" fill-rule="evenodd" fill="black"></path></svg>