<svg width="136mm" height="120mm" version="1.1" viewBox="0 0 600 529.4117647058824" xmlns="http://www.w3.org/2000/svg"><path d="M237.962 61.292 L 237.734 84.889 230.247 87.404 C 216.540 92.009,206.282 98.325,195.940 108.524 C 188.221 116.137,183.329 123.044,178.667 132.916 C 173.018 144.877,171.231 152.470,170.714 166.712 C 169.959 187.502,174.444 203.017,186.097 219.924 C 190.991 227.024,201.258 237.134,208.309 241.796 C 215.016 246.230,225.687 251.274,232.469 253.216 L 238.163 254.847 238.163 274.776 L 238.163 294.705 191.044 294.705 L 143.926 294.705 143.926 313.552 L 143.926 332.400 257.010 332.400 L 370.094 332.400 370.094 313.552 L 370.094 294.705 322.976 294.705 L 275.857 294.705 275.857 274.776 L 275.857 254.847 281.587 253.206 C 284.738 252.303,290.807 249.866,295.072 247.790 C 317.420 236.913,333.091 218.147,340.669 193.186 C 342.824 186.088,343.014 184.284,343.059 170.483 C 343.102 157.385,342.858 154.571,341.126 148.209 C 333.312 119.503,312.231 97.003,284.424 87.690 L 276.286 84.965 276.058 61.330 L 275.830 37.695 257.010 37.695 L 238.190 37.695 237.962 61.292 M238.163 170.055 C 238.163 194.792,237.873 215.028,237.520 215.024 C 236.077 215.006,228.048 209.850,224.283 206.524 C 219.341 202.158,213.341 193.207,210.749 186.332 C 208.086 179.269,207.439 166.161,209.375 158.484 C 211.680 149.340,215.516 142.554,222.224 135.757 C 227.314 130.599,234.967 125.277,237.520 125.118 C 237.873 125.096,238.163 145.318,238.163 170.055 M283.452 128.761 C 293.190 134.571,301.586 146.346,304.645 158.484 C 306.581 166.161,305.934 179.269,303.271 186.332 C 300.688 193.182,294.680 202.160,289.811 206.446 C 286.236 209.593,277.737 215.032,276.396 215.032 C 276.100 215.032,275.857 194.751,275.857 169.963 C 275.857 118.866,274.967 123.697,283.452 128.761 M123.892 132.399 C 114.993 135.410,107.579 138.008,107.415 138.172 C 107.194 138.393,130.874 210.399,133.168 216.480 C 133.433 217.183,138.823 215.752,150.519 211.874 C 159.850 208.779,167.817 205.944,168.224 205.574 C 168.630 205.204,163.104 187.327,155.944 165.846 C 145.603 134.821,142.633 126.805,141.498 126.858 C 140.713 126.894,132.790 129.388,123.892 132.399 M358.076 165.846 C 350.916 187.327,345.390 205.204,345.796 205.574 C 346.203 205.944,354.170 208.779,363.501 211.874 C 375.197 215.752,380.587 217.183,380.852 216.480 C 383.123 210.461,406.827 138.394,406.608 138.176 C 406.086 137.654,373.177 126.792,372.118 126.792 C 371.529 126.792,365.564 143.382,358.076 165.846 M87.383 377.805 L 87.383 396.652 257.010 396.652 L 426.637 396.652 426.637 377.805 L 426.637 358.957 257.010 358.957 L 87.383 358.957 87.383 377.805 " stroke="none" fill-rule="evenodd" fill="black"></path></svg>