<svg width="136mm" height="120mm" version="1.1" viewBox="0 0 600 529.4117647058824" xmlns="http://www.w3.org/2000/svg"><path d="M68.536 113.084 L 68.536 131.932 143.497 131.932 C 184.726 131.932,218.459 132.125,218.459 132.361 C 218.459 132.598,191.859 185.990,159.347 251.011 L 100.236 369.230 116.504 377.373 C 125.451 381.851,133.160 385.515,133.636 385.515 C 134.112 385.515,163.047 328.423,197.938 258.643 L 261.375 131.771 296.245 132.183 C 334.359 132.633,338.189 133.026,353.088 138.016 C 392.248 151.131,420.790 183.903,428.914 225.081 C 431.113 236.230,430.904 256.440,428.469 267.919 C 418.963 312.744,385.497 346.379,340.319 356.513 C 332.339 358.303,329.657 358.401,279.498 358.730 L 227.025 359.074 227.025 377.926 L 227.025 396.777 280.783 396.409 C 331.351 396.063,335.122 395.932,344.327 394.195 C 398.557 383.965,443.159 345.348,460.460 293.645 C 477.589 242.454,466.600 187.361,430.990 145.900 C 415.161 127.472,391.184 111.265,367.457 102.959 C 357.318 99.409,342.344 96.181,331.115 95.125 C 325.116 94.561,275.688 94.238,195.113 94.238 L 68.536 94.237 68.536 113.084 " stroke="none" fill-rule="evenodd" fill="black"></path></svg>