<svg width="136mm" height="120mm" version="1.1" viewBox="0 0 600 529.4117647058824" xmlns="http://www.w3.org/2000/svg"><path d="M68.290 94.768 C 67.954 95.104,67.679 103.604,67.679 113.656 L 67.679 131.932 143.069 131.932 C 184.533 131.932,218.459 132.125,218.459 132.361 C 218.459 132.598,191.859 185.990,159.347 251.011 L 100.236 369.230 116.504 377.373 C 125.451 381.851,133.160 385.515,133.636 385.515 C 134.112 385.515,163.029 328.459,197.898 258.723 L 261.295 131.932 288.494 131.945 C 303.454 131.953,320.290 132.340,325.908 132.805 C 342.682 134.195,356.496 138.106,370.059 145.306 C 404.311 163.490,426.447 196.569,430.096 235.024 C 435.527 292.255,397.520 343.679,340.300 356.517 C 332.344 358.302,329.623 358.401,279.498 358.730 L 227.025 359.074 227.025 377.930 L 227.025 396.786 280.783 396.393 C 323.951 396.076,335.892 395.743,341.395 394.700 C 375.496 388.240,401.071 375.076,424.118 352.122 C 485.859 290.626,482.910 190.640,417.641 132.605 C 400.417 117.290,377.365 104.965,355.531 99.397 C 336.589 94.567,344.007 94.803,200.865 94.467 C 128.285 94.296,68.627 94.432,68.290 94.768 " stroke="none" fill-rule="evenodd" fill="black"></path></svg>