<svg width="136mm" height="120mm" version="1.1" viewBox="0 0 600 529.4117647058824" xmlns="http://www.w3.org/2000/svg"><path d="M68.290 94.768 C 67.954 95.104,67.679 103.604,67.679 113.656 L 67.679 131.932 143.069 131.932 C 184.533 131.932,218.459 132.125,218.459 132.361 C 218.459 132.598,191.858 185.990,159.347 251.011 L 100.236 369.231 117.197 377.719 L 134.158 386.208 197.725 259.070 L 261.293 131.932 288.493 131.945 C 328.982 131.966,341.139 133.376,358.529 140.072 C 388.607 151.652,413.629 177.496,424.147 207.846 C 432.450 231.803,432.427 259.150,424.082 283.233 C 411.420 319.777,379.463 347.730,340.300 356.517 C 332.344 358.302,329.623 358.401,279.498 358.730 L 227.025 359.074 227.025 377.930 L 227.025 396.786 280.783 396.393 C 323.951 396.076,335.892 395.743,341.395 394.700 C 375.267 388.284,401.300 374.870,424.066 352.104 C 443.889 332.281,457.068 309.054,463.837 282.011 C 467.179 268.659,468.076 260.920,468.076 245.445 C 468.076 229.969,467.179 222.230,463.837 208.878 C 457.182 182.290,443.981 158.893,424.666 139.452 C 402.069 116.707,375.451 102.800,342.680 96.613 C 332.885 94.764,332.067 94.752,200.865 94.455 C 128.285 94.291,68.627 94.432,68.290 94.768 " stroke="none" fill-rule="evenodd" fill="black"></path></svg>