<svg width="136mm" height="120mm" version="1.1" viewBox="0 0 600 529.4117647058824" xmlns="http://www.w3.org/2000/svg"><path d="M260.008 83.591 C 205.822 101.703,160.813 116.739,159.989 117.003 C 158.580 117.454,158.489 115.644,158.489 87.013 L 158.489 56.542 139.595 56.542 L 120.701 56.542 120.962 118.010 L 121.223 179.479 123.628 186.332 C 124.951 190.102,127.614 195.884,129.546 199.183 C 134.222 207.168,147.400 220.310,156.971 226.531 C 213.527 263.297,315.761 267.073,380.364 234.782 C 400.693 224.622,416.899 210.124,424.469 195.328 C 429.329 185.829,430.286 180.674,430.714 161.702 L 431.114 143.926 412.239 143.926 L 393.364 143.926 393.077 159.132 C 392.749 176.473,392.226 178.183,384.831 186.088 C 360.564 212.032,293.352 225.496,236.449 215.813 C 199.835 209.582,170.277 195.037,161.505 178.934 C 159.224 174.746,158.998 173.578,158.960 165.771 L 158.918 157.204 264.292 121.957 C 322.248 102.571,370.324 86.516,371.129 86.279 C 372.417 85.901,371.895 83.761,366.772 68.412 C 363.061 57.294,360.513 50.917,359.740 50.817 C 359.074 50.731,314.195 65.479,260.008 83.591 M140.152 320.242 L 108.106 384.331 124.828 392.679 C 134.025 397.270,141.656 400.910,141.787 400.767 C 142.249 400.261,205.608 273.285,205.608 272.866 C 205.608 272.442,173.470 256.153,172.635 256.153 C 172.395 256.153,157.778 284.993,140.152 320.242 M325.118 264.434 C 316.165 268.938,308.722 272.730,308.578 272.861 C 308.357 273.060,371.530 399.997,372.233 400.767 C 372.364 400.910,379.995 397.270,389.192 392.679 L 405.914 384.331 373.868 320.242 C 356.242 284.993,341.725 256.174,341.608 256.199 C 341.491 256.224,334.070 259.930,325.118 264.434 " stroke="none" fill-rule="evenodd" fill="black"></path></svg>