<svg width="136mm" height="120mm" version="1.1" viewBox="0 0 600 529.4117647058824" xmlns="http://www.w3.org/2000/svg"><path d="M258.948 83.940 L 159.368 117.220 159.143 87.095 L 158.918 56.971 139.819 56.740 L 120.720 56.509 120.976 117.994 L 121.232 179.479 123.562 186.332 C 127.096 196.732,131.413 203.362,140.927 213.008 C 150.799 223.015,159.537 229.031,174.949 236.428 C 201.135 248.996,230.800 255.483,267.719 256.713 C 309.451 258.104,349.508 250.290,380.501 234.714 C 393.426 228.218,401.291 222.574,410.788 212.979 C 420.357 203.310,424.673 196.664,428.091 186.332 C 430.180 180.018,430.388 178.080,430.726 161.702 L 431.093 143.926 412.255 143.926 L 393.416 143.926 393.084 159.132 C 392.758 174.065,392.706 174.421,390.229 178.934 C 381.341 195.125,351.930 209.559,314.971 215.868 C 259.449 225.346,194.560 212.782,168.614 187.529 C 160.753 179.878,159.389 176.647,159.365 165.629 L 159.346 156.919 265.363 121.607 C 323.672 102.186,371.638 86.151,371.953 85.975 C 372.991 85.394,361.039 50.985,359.740 50.817 C 359.074 50.731,313.718 65.636,258.948 83.940 M139.807 320.073 C 122.230 355.229,107.968 384.099,108.111 384.230 C 108.889 384.934,141.579 400.994,141.782 400.772 C 142.487 400.001,205.664 273.061,205.442 272.861 C 205.090 272.541,172.275 256.153,171.988 256.153 C 171.864 256.153,157.383 284.917,139.807 320.073 M325.118 264.434 C 316.165 268.938,308.722 272.730,308.578 272.861 C 308.356 273.061,371.533 400.001,372.238 400.772 C 372.441 400.994,405.131 384.934,405.909 384.230 C 406.284 383.890,342.344 256.144,341.826 256.199 C 341.589 256.224,334.070 259.930,325.118 264.434 " stroke="none" fill-rule="evenodd" fill="black"></path></svg>