<svg width="136mm" height="120mm" version="1.1" viewBox="0 0 600 529.4117647058824" xmlns="http://www.w3.org/2000/svg"><path d="M260.008 83.591 C 205.822 101.703,160.813 116.739,159.989 117.003 C 158.580 117.454,158.489 115.644,158.489 87.013 L 158.489 56.542 139.642 56.542 L 120.795 56.542 120.795 115.151 C 120.795 179.304,120.932 181.434,125.772 192.108 C 129.579 200.503,134.346 206.985,142.373 214.684 C 157.367 229.063,177.810 239.907,204.164 247.462 C 246.741 259.667,300.557 260.027,344.245 248.398 C 367.983 242.079,390.541 231.169,405.171 218.931 C 412.785 212.562,420.640 202.830,424.569 194.899 C 429.835 184.267,430.887 178.399,430.905 159.560 L 430.920 143.926 412.156 143.926 L 393.392 143.926 393.071 159.132 C 392.702 176.637,392.173 178.306,384.397 186.529 C 363.857 208.247,309.296 222.234,259.655 218.509 C 218.502 215.421,182.591 202.881,166.920 186.127 C 160.665 179.441,159.215 175.853,158.715 165.823 L 158.284 157.204 263.547 122.172 C 321.441 102.904,369.653 86.827,370.684 86.446 C 372.541 85.759,372.502 85.581,366.756 68.363 C 363.056 57.278,360.513 50.917,359.740 50.817 C 359.074 50.731,314.195 65.479,260.008 83.591 M139.807 320.073 C 122.230 355.229,107.968 384.099,108.111 384.230 C 108.889 384.934,141.579 400.994,141.782 400.772 C 142.487 400.001,205.664 273.061,205.442 272.861 C 205.090 272.541,172.275 256.153,171.988 256.153 C 171.864 256.153,157.383 284.917,139.807 320.073 M325.118 264.434 C 316.165 268.938,308.722 272.730,308.578 272.861 C 308.356 273.061,371.533 400.001,372.238 400.772 C 372.441 400.994,405.131 384.934,405.909 384.230 C 406.284 383.890,342.344 256.144,341.826 256.199 C 341.589 256.224,334.070 259.930,325.118 264.434 " stroke="none" fill-rule="evenodd" fill="black"></path></svg>