<svg width="136mm" height="120mm" version="1.1" viewBox="0 0 600 529.4117647058824" xmlns="http://www.w3.org/2000/svg"><path d="M109.847 108.418 C 92.285 143.547,78.086 172.557,78.294 172.885 C 78.887 173.820,111.255 189.735,111.669 189.295 C 111.872 189.079,118.443 176.084,126.271 160.417 L 140.504 131.932 196.615 131.932 L 252.727 131.932 252.727 245.379 L 252.727 358.826 237.254 353.660 C 228.745 350.819,221.679 348.632,221.553 348.800 C 220.986 349.557,209.882 382.630,209.887 383.550 C 209.889 384.152,226.712 390.143,250.179 397.900 C 272.338 405.224,290.650 411.216,290.873 411.216 C 291.096 411.216,291.278 348.377,291.278 271.574 L 291.278 131.932 351.675 131.932 L 412.073 131.932 412.073 113.084 L 412.073 94.237 285.705 94.237 L 159.338 94.237 167.531 77.867 C 172.037 68.864,175.605 61.390,175.460 61.258 C 175.106 60.937,142.292 44.548,142.004 44.548 C 141.880 44.548,127.409 73.290,109.847 108.418 M147.348 166.633 L 134.085 179.916 164.277 210.108 L 194.469 240.299 207.959 226.809 L 221.449 213.319 191.473 183.334 C 174.986 166.843,161.298 153.349,161.054 153.349 C 160.810 153.349,154.642 159.327,147.348 166.633 M345.681 183.331 L 315.709 213.313 328.973 226.597 L 342.237 239.882 372.440 209.688 L 402.643 179.493 389.592 166.421 C 382.414 159.232,376.341 153.349,376.097 153.349 C 375.853 153.349,362.166 166.841,345.681 183.331 M164.061 292.989 L 134.089 322.970 147.352 336.255 L 160.616 349.540 190.820 319.345 L 221.023 289.151 207.972 276.079 C 200.793 268.889,194.720 263.007,194.477 263.007 C 194.233 263.007,180.546 276.499,164.061 292.989 M328.323 276.079 L 315.271 289.151 345.474 319.345 L 375.677 349.539 389.161 336.036 L 402.644 322.533 372.872 292.770 C 356.497 276.400,342.711 263.007,342.237 263.007 C 341.762 263.007,335.501 268.889,328.323 276.079 " stroke="none" fill-rule="evenodd" fill="black"></path></svg>