<svg width="136mm" height="120mm" version="1.1" viewBox="0 0 600 529.4117647058824" xmlns="http://www.w3.org/2000/svg"><path d="M128.505 200.034 L 128.505 354.664 119.545 350.207 C 114.617 347.756,110.419 345.927,110.217 346.143 C 110.015 346.359,106.143 353.955,101.612 363.023 L 93.375 379.511 129.355 397.505 C 149.144 407.402,165.530 415.500,165.767 415.500 C 166.005 415.500,166.200 332.228,166.200 230.452 L 166.200 45.405 147.352 45.405 L 128.505 45.405 128.505 200.034 M348.249 87.944 C 339.573 89.318,329.654 92.606,320.412 97.174 C 297.259 108.617,279.274 130.203,272.105 155.155 C 268.359 168.195,268.002 175.559,268.372 232.166 C 268.750 289.948,268.700 289.337,274.246 304.429 C 284.065 331.146,305.782 352.250,332.828 361.356 C 351.699 367.709,374.116 367.701,392.797 361.335 C 406.483 356.670,417.338 350.102,427.718 340.205 C 443.359 325.293,452.998 306.794,456.202 285.541 C 458.044 273.317,458.044 179.877,456.202 167.653 C 451.581 136.999,432.373 110.497,405.004 97.013 C 390.584 89.909,383.016 88.152,365.383 87.815 C 357.372 87.662,349.662 87.720,348.249 87.944 M53.117 124.648 L 39.853 137.933 62.543 160.635 L 85.232 183.336 98.513 170.056 L 111.794 156.775 89.088 134.069 L 66.382 111.363 53.117 124.648 M205.812 133.869 L 183.329 156.364 196.590 169.604 L 209.850 182.844 231.931 161.058 C 244.075 149.076,254.293 139.055,254.638 138.789 C 254.982 138.522,249.196 132.245,241.779 124.839 L 228.295 111.375 205.812 133.869 M343.329 276.258 L 343.108 325.359 337.757 322.747 C 323.463 315.769,312.416 302.228,307.830 286.065 C 306.396 281.013,306.270 276.207,306.270 226.597 C 306.270 176.800,306.392 172.195,307.845 167.071 C 312.352 151.170,322.467 138.543,336.613 131.160 L 343.108 127.769 343.329 177.463 C 343.451 204.795,343.451 249.253,343.329 276.258 M400.795 139.291 C 411.118 148.632,417.459 161.135,418.924 175.034 C 419.969 184.951,420.017 267.781,418.983 277.598 C 417.613 290.613,412.977 300.964,404.237 310.528 C 399.770 315.416,390.831 321.836,385.301 324.127 L 382.088 325.459 382.088 226.510 L 382.088 127.562 388.847 131.078 C 392.564 133.011,397.940 136.707,400.795 139.291 M62.539 273.716 L 39.846 296.421 53.125 309.700 L 66.404 322.979 89.097 300.273 L 111.790 277.568 98.511 264.289 L 85.232 251.010 62.539 273.716 M196.182 264.294 L 182.922 277.575 205.608 300.274 L 228.295 322.972 241.798 309.489 L 255.301 296.006 232.816 273.509 C 220.450 261.136,210.132 251.013,209.887 251.013 C 209.643 251.013,203.475 256.990,196.182 264.294 " stroke="none" fill-rule="evenodd" fill="black"></path></svg>