<svg width="136mm" height="120mm" version="1.1" viewBox="0 0 600 529.4117647058824" xmlns="http://www.w3.org/2000/svg"><path d="M175.189 57.610 C 171.961 66.669,69.394 374.200,69.393 374.822 C 69.393 375.644,104.350 387.734,104.888 387.098 C 105.026 386.934,115.151 356.730,127.388 319.977 L 149.636 253.155 175.052 252.928 C 189.031 252.803,200.468 252.806,200.468 252.934 C 200.468 253.062,189.673 285.544,176.480 325.118 C 163.287 364.691,152.493 397.332,152.493 397.654 C 152.493 398.474,187.421 409.985,188.038 409.368 C 188.315 409.090,200.221 373.829,214.495 331.009 L 240.447 253.155 262.008 252.926 C 273.866 252.800,283.568 252.803,283.568 252.932 C 283.568 253.061,272.773 285.544,259.580 325.118 C 246.387 364.691,235.592 397.332,235.593 397.654 C 235.593 398.474,270.521 409.985,271.138 409.368 C 271.415 409.090,283.327 373.829,297.609 331.009 L 323.576 253.155 334.533 253.383 C 340.560 253.508,348.157 254.167,351.417 254.846 C 373.358 259.421,394.263 280.408,398.865 302.481 C 401.486 315.050,400.169 331.286,395.651 342.095 C 390.144 355.273,377.495 368.597,364.635 374.766 C 356.374 378.729,347.064 381.231,340.583 381.231 L 336.683 381.231 336.683 400.079 L 336.683 418.926 341.729 418.926 C 344.504 418.926,349.969 418.320,353.873 417.580 C 380.706 412.489,402.676 398.803,418.680 377.207 C 425.229 368.370,429.365 360.331,433.092 349.192 C 452.548 291.049,416.230 229.325,355.334 217.040 C 349.045 215.771,337.829 215.573,255.511 215.276 C 204.505 215.091,162.773 214.681,162.773 214.363 C 162.773 214.046,165.754 204.816,169.398 193.852 L 176.022 173.918 269.417 173.700 L 362.812 173.482 363.043 154.849 L 363.274 136.215 276.302 136.215 C 194.020 136.215,189.334 136.134,189.393 134.716 C 189.427 133.892,192.415 124.543,196.033 113.941 L 202.610 94.665 296.221 94.447 L 389.832 94.229 389.601 75.600 L 389.370 56.971 282.471 56.753 C 197.392 56.580,175.494 56.755,175.189 57.610 " stroke="none" fill-rule="evenodd" fill="black"></path></svg>