<svg width="136mm" height="120mm" version="1.1" viewBox="0 0 600 529.4117647058824" xmlns="http://www.w3.org/2000/svg"><path d="M175.361 57.185 C 174.506 58.697,69.243 375.366,69.518 375.599 C 70.199 376.178,104.645 387.383,104.882 387.103 C 105.024 386.937,115.151 356.730,127.388 319.977 L 149.636 253.155 175.052 252.928 C 189.031 252.803,200.468 252.806,200.468 252.934 C 200.468 253.062,189.673 285.544,176.480 325.118 C 163.287 364.691,152.493 397.332,152.493 397.654 C 152.493 398.474,187.421 409.985,188.038 409.368 C 188.315 409.090,200.221 373.829,214.495 331.009 L 240.447 253.155 262.008 252.926 C 273.866 252.800,283.568 252.803,283.568 252.932 C 283.568 253.061,272.773 285.544,259.580 325.118 C 246.387 364.691,235.592 397.332,235.593 397.654 C 235.593 398.474,270.521 409.985,271.138 409.368 C 271.415 409.090,283.327 373.829,297.609 331.009 L 323.576 253.155 334.533 253.383 C 340.560 253.508,348.157 254.167,351.417 254.846 C 363.928 257.455,377.688 266.356,386.706 277.676 C 395.864 289.170,400.089 301.578,400.064 316.902 C 400.044 328.983,398.399 336.294,393.491 346.107 C 390.130 352.826,388.071 355.605,381.685 362.044 C 370.210 373.612,357.715 379.710,342.680 381.076 L 336.255 381.660 336.024 400.419 L 335.792 419.177 344.162 418.684 C 369.692 417.179,395.990 403.925,413.374 383.802 C 452.487 338.523,444.217 269.124,395.572 234.423 C 383.815 226.037,369.795 220.003,355.102 217.008 C 349.080 215.780,336.996 215.570,255.511 215.276 C 204.505 215.091,162.773 214.681,162.773 214.363 C 162.773 214.046,165.754 204.816,169.398 193.852 L 176.022 173.918 269.417 173.700 L 362.812 173.482 363.043 154.849 L 363.274 136.215 276.302 136.215 C 194.020 136.215,189.334 136.134,189.393 134.716 C 189.427 133.892,192.415 124.543,196.033 113.941 L 202.610 94.665 295.776 94.447 L 388.942 94.229 388.942 75.386 L 388.942 56.542 282.333 56.542 C 223.698 56.542,175.561 56.831,175.361 57.185 " stroke="none" fill-rule="evenodd" fill="black"></path></svg>