<svg width="136mm" height="120mm" version="1.1" viewBox="0 0 600 529.4117647058824" xmlns="http://www.w3.org/2000/svg"><path d="M175.361 57.185 C 174.506 58.697,69.243 375.366,69.518 375.599 C 70.199 376.178,104.645 387.383,104.882 387.103 C 105.024 386.937,115.151 356.730,127.388 319.977 L 149.636 253.155 175.052 252.928 C 189.031 252.803,200.468 252.806,200.468 252.934 C 200.468 253.062,189.673 285.544,176.480 325.118 C 163.287 364.691,152.493 397.332,152.493 397.654 C 152.493 398.474,187.421 409.985,188.038 409.368 C 188.315 409.090,200.221 373.829,214.495 331.009 L 240.447 253.155 262.008 252.926 C 273.866 252.800,283.568 252.803,283.568 252.932 C 283.568 253.061,272.773 285.544,259.580 325.118 C 246.387 364.691,235.592 397.332,235.593 397.654 C 235.593 398.474,270.521 409.985,271.138 409.368 C 271.415 409.090,283.326 373.829,297.606 331.009 L 323.570 253.155 334.662 253.269 C 343.133 253.355,347.363 253.823,352.569 255.250 C 390.120 265.541,409.613 304.267,395.811 341.157 C 391.617 352.367,379.917 366.052,368.973 372.549 C 362.092 376.634,350.884 380.283,343.228 380.930 L 336.683 381.483 336.683 400.205 L 336.683 418.926 341.283 418.926 C 343.813 418.926,349.306 418.338,353.491 417.619 C 394.945 410.497,427.564 378.878,436.101 337.540 C 438.605 325.417,438.663 308.739,436.242 297.275 C 428.900 262.518,405.401 234.707,372.521 221.861 C 370.008 220.879,363.905 219.055,358.957 217.808 L 349.962 215.540 256.367 215.251 C 204.891 215.091,162.773 214.696,162.773 214.373 C 162.773 214.050,165.755 204.814,169.399 193.848 L 176.025 173.910 269.204 173.910 L 362.384 173.910 362.384 155.063 L 362.384 136.215 275.857 136.215 C 193.998 136.215,189.334 136.134,189.393 134.716 C 189.427 133.892,192.415 124.543,196.033 113.941 L 202.610 94.665 295.776 94.447 L 388.942 94.229 388.942 75.386 L 388.942 56.542 282.333 56.542 C 223.698 56.542,175.561 56.831,175.361 57.185 " stroke="none" fill-rule="evenodd" fill="black"></path></svg>