<svg width="136mm" height="120mm" version="1.1" viewBox="0 0 600 529.4117647058824" xmlns="http://www.w3.org/2000/svg"><path d="M238.163 71.963 C 238.163 84.985,237.828 95.094,237.397 95.094 C 234.249 95.094,216.973 97.161,208.178 98.590 C 155.189 107.200,112.937 131.713,99.771 161.483 C 94.359 173.722,94.665 166.542,94.665 280.998 L 94.665 385.087 113.513 385.087 L 132.360 385.087 132.585 353.175 L 132.809 321.262 185.486 321.262 L 238.163 321.262 238.163 364.526 L 238.163 407.789 257.010 407.789 L 275.857 407.789 275.857 364.526 L 275.857 321.262 328.534 321.262 L 381.211 321.262 381.435 353.175 L 381.660 385.087 400.507 385.087 L 419.355 385.087 419.355 280.998 C 419.355 166.542,419.661 173.722,414.249 161.483 C 401.083 131.713,358.831 107.200,305.842 98.590 C 297.047 97.161,279.771 95.094,276.623 95.094 C 276.192 95.094,275.857 84.985,275.857 71.963 L 275.857 48.832 257.010 48.832 L 238.163 48.832 238.163 71.963 M238.163 162.773 L 238.163 192.757 185.476 192.757 L 132.788 192.757 132.788 186.500 C 132.788 178.643,135.014 173.817,141.880 166.790 C 155.127 153.232,179.579 142.389,210.101 136.539 C 216.257 135.359,232.276 133.153,236.663 132.881 C 238.064 132.795,238.163 134.752,238.163 162.773 M287.851 134.128 C 290.914 134.432,297.415 135.406,302.298 136.292 C 333.387 141.935,358.621 152.953,372.140 166.790 C 379.006 173.817,381.231 178.643,381.231 186.500 L 381.231 192.757 328.544 192.757 L 275.857 192.757 275.857 162.698 L 275.857 132.638 279.070 133.106 C 280.837 133.364,284.788 133.823,287.851 134.128 M238.163 257.010 L 238.163 283.568 185.476 283.568 L 132.788 283.568 132.788 257.010 L 132.788 230.452 185.476 230.452 L 238.163 230.452 238.163 257.010 M381.231 257.010 L 381.231 283.568 328.544 283.568 L 275.857 283.568 275.857 257.010 L 275.857 230.452 328.544 230.452 L 381.231 230.452 381.231 257.010 " stroke="none" fill-rule="evenodd" fill="black"></path></svg>