<svg width="136mm" height="120mm" version="1.1" viewBox="0 0 600 529.4117647058824" xmlns="http://www.w3.org/2000/svg"><path d="M238.163 71.963 C 238.163 84.985,237.828 95.094,237.397 95.094 C 236.975 95.094,232.638 95.489,227.759 95.972 C 182.683 100.434,144.292 114.457,120.063 135.310 C 108.494 145.267,101.123 155.949,96.677 169.198 L 94.665 175.195 94.428 280.372 L 94.191 385.548 113.276 385.317 L 132.360 385.087 132.585 353.175 L 132.809 321.262 185.486 321.262 L 238.163 321.262 238.163 364.526 L 238.163 407.789 257.010 407.789 L 275.857 407.789 275.857 364.526 L 275.857 321.262 328.534 321.262 L 381.211 321.262 381.435 353.175 L 381.660 385.087 400.744 385.317 L 419.829 385.548 419.592 280.372 L 419.355 175.195 417.343 169.198 C 412.897 155.949,405.526 145.267,393.957 135.310 C 369.728 114.457,331.337 100.434,286.261 95.972 C 281.382 95.489,277.045 95.094,276.623 95.094 C 276.192 95.094,275.857 84.985,275.857 71.963 L 275.857 48.832 257.010 48.832 L 238.163 48.832 238.163 71.963 M238.163 162.773 L 238.163 192.757 185.476 192.757 L 132.788 192.757 132.788 186.500 C 132.788 181.457,133.227 179.364,135.048 175.710 C 143.421 158.907,172.332 143.850,210.320 136.508 C 216.284 135.355,232.282 133.153,236.663 132.881 C 238.064 132.795,238.163 134.752,238.163 162.773 M287.851 134.128 C 321.961 137.517,356.932 151.004,372.333 166.709 C 378.767 173.271,381.231 178.751,381.231 186.500 L 381.231 192.757 328.544 192.757 L 275.857 192.757 275.857 162.698 L 275.857 132.638 279.070 133.106 C 280.837 133.364,284.788 133.823,287.851 134.128 M238.163 257.010 L 238.163 283.568 185.476 283.568 L 132.788 283.568 132.788 257.010 L 132.788 230.452 185.476 230.452 L 238.163 230.452 238.163 257.010 M381.231 257.010 L 381.231 283.568 328.544 283.568 L 275.857 283.568 275.857 257.010 L 275.857 230.452 328.544 230.452 L 381.231 230.452 381.231 257.010 " stroke="none" fill-rule="evenodd" fill="black"></path></svg>