<svg width="136mm" height="120mm" version="1.1" viewBox="0 0 600 529.4117647058824" xmlns="http://www.w3.org/2000/svg"><path d="M238.163 71.862 L 238.163 94.892 231.523 95.474 C 165.271 101.279,113.558 127.841,99.065 163.509 C 94.572 174.567,94.665 172.035,94.665 282.283 L 94.665 385.087 113.513 385.087 L 132.360 385.087 132.585 353.175 L 132.809 321.262 185.486 321.262 L 238.163 321.262 238.163 364.526 L 238.163 407.789 257.010 407.789 L 275.857 407.789 275.857 364.526 L 275.857 321.262 328.534 321.262 L 381.211 321.262 381.435 353.175 L 381.660 385.087 400.507 385.087 L 419.355 385.087 419.355 282.283 C 419.355 201.993,419.114 178.324,418.257 174.205 C 411.493 141.721,377.003 115.300,324.468 102.360 C 312.172 99.331,294.999 96.495,282.925 95.499 L 275.857 94.915 275.857 71.874 L 275.857 48.832 257.010 48.832 L 238.163 48.832 238.163 71.862 M238.163 162.773 L 238.163 192.757 185.476 192.757 L 132.788 192.757 132.788 186.500 C 132.788 181.498,133.230 179.357,134.990 175.825 C 144.307 157.130,180.408 140.069,222.314 134.558 C 231.174 133.393,233.877 133.074,236.235 132.917 L 238.163 132.788 238.163 162.773 M294.980 135.024 C 328.410 139.838,357.463 151.730,372.078 166.580 C 378.849 173.460,381.231 178.645,381.231 186.500 L 381.231 192.757 328.544 192.757 L 275.857 192.757 275.857 162.730 L 275.857 132.703 281.212 133.258 C 284.157 133.562,290.353 134.357,294.980 135.024 M238.163 257.010 L 238.163 283.568 185.476 283.568 L 132.788 283.568 132.788 257.010 L 132.788 230.452 185.476 230.452 L 238.163 230.452 238.163 257.010 M381.231 257.010 L 381.231 283.568 328.544 283.568 L 275.857 283.568 275.857 257.010 L 275.857 230.452 328.544 230.452 L 381.231 230.452 381.231 257.010 " stroke="none" fill-rule="evenodd" fill="black"></path></svg>