<svg width="136mm" height="120mm" version="1.1" viewBox="0 0 600 529.4117647058824" xmlns="http://www.w3.org/2000/svg"><path d="M238.163 84.813 L 238.163 131.932 156.760 131.932 L 75.357 131.932 75.587 150.993 L 75.818 170.055 257.010 170.055 L 438.202 170.055 438.433 150.993 L 438.663 131.932 357.260 131.932 L 275.857 131.932 275.857 84.813 L 275.857 37.695 257.010 37.695 L 238.163 37.695 238.163 84.813 M94.237 264.720 L 94.237 283.568 257.010 283.568 L 419.783 283.568 419.783 264.720 L 419.783 245.873 257.010 245.873 L 94.237 245.873 94.237 264.720 M75.390 377.805 L 75.390 396.652 257.010 396.652 L 438.630 396.652 438.630 377.805 L 438.630 358.957 257.010 358.957 L 75.390 358.957 75.390 377.805 " stroke="none" fill-rule="evenodd" fill="black"></path></svg>