<svg width="136mm" height="120mm" version="1.1" viewBox="0 0 600 529.4117647058824" xmlns="http://www.w3.org/2000/svg"><path d="M238.163 84.809 L 238.163 131.923 156.990 132.142 L 75.818 132.360 75.587 150.993 L 75.356 169.627 257.010 169.627 L 438.664 169.627 438.433 150.993 L 438.202 132.360 357.030 132.142 L 275.857 131.923 275.857 84.809 L 275.857 37.695 257.010 37.695 L 238.163 37.695 238.163 84.809 M94.434 264.506 L 94.665 283.139 257.010 283.139 L 419.355 283.139 419.586 264.506 L 419.816 245.873 257.010 245.873 L 94.204 245.873 94.434 264.506 M75.390 377.805 L 75.390 396.652 257.010 396.652 L 438.630 396.652 438.630 377.805 L 438.630 358.957 257.010 358.957 L 75.390 358.957 75.390 377.805 " stroke="none" fill-rule="evenodd" fill="black"></path></svg>