<svg width="136mm" height="120mm" version="1.1" viewBox="0 0 600 529.4117647058824" xmlns="http://www.w3.org/2000/svg"><path d="M109.658 239.535 L 109.658 384.833 182.415 312.569 L 255.172 240.304 241.748 226.808 L 228.324 213.312 187.838 253.791 L 147.352 294.270 147.352 194.253 L 147.352 94.237 128.505 94.237 L 109.658 94.237 109.658 239.535 M363.776 167.271 C 346.578 201.314,332.234 229.881,331.900 230.753 C 331.404 232.049,320.893 221.940,274.448 175.499 L 217.603 118.659 204.111 132.150 L 190.620 145.642 303.915 258.937 L 417.210 372.232 430.701 358.741 L 444.192 345.250 401.792 302.843 L 359.391 260.436 393.871 191.471 C 412.834 153.540,428.350 122.315,428.350 122.083 C 428.350 121.679,396.224 105.374,395.428 105.374 C 395.217 105.374,380.973 133.228,363.776 167.271 " stroke="none" fill-rule="evenodd" fill="black"></path></svg>