<svg width="136mm" height="120mm" version="1.1" viewBox="0 0 600 529.4117647058824" xmlns="http://www.w3.org/2000/svg"><path d="M109.658 240.088 L 109.658 385.940 182.473 313.128 L 255.289 240.316 241.806 226.814 L 228.324 213.312 187.838 253.791 L 147.352 294.270 147.352 194.253 L 147.352 94.237 128.505 94.237 L 109.658 94.237 109.658 240.088 M362.812 168.771 L 331.122 232.169 274.363 175.414 L 217.603 118.659 204.111 132.150 L 190.620 145.642 303.915 258.937 L 417.210 372.232 430.701 358.741 L 444.192 345.250 401.792 302.843 L 359.391 260.436 393.871 191.471 C 412.834 153.540,428.350 122.315,428.350 122.083 C 428.350 121.591,396.134 105.374,395.157 105.374 C 394.796 105.374,380.241 133.903,362.812 168.771 " stroke="none" fill-rule="evenodd" fill="black"></path></svg>