<svg width="136mm" height="120mm" version="1.1" viewBox="0 0 600 529.4117647058824" xmlns="http://www.w3.org/2000/svg"><path d="M121.050 159.560 C 121.333 265.469,121.551 282.323,122.710 288.280 C 129.406 322.670,142.501 348.026,165.385 370.909 C 188.807 394.331,216.875 408.493,250.585 413.897 C 260.537 415.492,285.490 415.284,296.093 413.517 C 310.098 411.184,327.389 405.625,339.294 399.630 C 378.312 379.981,407.565 344.087,418.175 302.843 C 422.357 286.585,422.525 284.634,422.948 247.372 L 423.355 211.605 404.524 211.605 L 385.693 211.605 385.243 245.230 C 384.996 263.724,384.381 281.019,383.876 283.662 C 371.727 347.314,311.889 387.990,249.196 375.213 C 216.465 368.543,187.093 346.302,171.542 316.410 C 161.258 296.643,158.116 278.299,158.656 241.161 L 158.918 223.170 266.381 169.570 C 325.486 140.090,373.984 115.550,374.156 115.036 C 374.327 114.522,370.783 106.742,366.280 97.745 L 358.093 81.389 258.721 131.076 C 204.067 158.404,159.156 180.764,158.919 180.764 C 158.683 180.764,158.489 148.573,158.489 109.229 L 158.489 37.695 139.606 37.695 L 120.723 37.695 121.050 159.560 " stroke="none" fill-rule="evenodd" fill="black"></path></svg>