<svg width="136mm" height="120mm" version="1.1" viewBox="0 0 600 529.4117647058824" xmlns="http://www.w3.org/2000/svg"><path d="M120.808 151.850 C 120.816 218.743,121.169 270.197,121.661 276.130 C 127.051 341.185,172.520 394.973,235.436 410.722 C 248.712 414.045,256.508 414.969,271.574 415.004 C 291.962 415.052,306.950 412.392,326.129 405.320 C 365.750 390.711,399.420 356.434,413.861 316.007 C 421.759 293.894,422.498 288.256,422.974 246.515 L 423.371 211.605 404.539 211.605 L 385.707 211.605 385.259 244.802 C 384.770 280.976,384.262 285.821,379.458 300.161 C 361.248 354.515,305.432 386.674,249.196 375.213 C 227.021 370.695,207.152 359.651,190.780 342.746 C 174.869 326.317,164.586 306.208,160.681 283.888 C 159.671 278.109,159.351 269.864,159.349 249.515 L 159.346 222.743 266.648 169.105 C 325.664 139.604,374.129 115.298,374.347 115.092 C 374.566 114.885,371.001 107.216,366.425 98.050 L 358.105 81.383 258.725 131.074 L 159.346 180.765 159.346 109.230 L 159.346 37.695 140.070 37.695 L 120.795 37.695 120.808 151.850 " stroke="none" fill-rule="evenodd" fill="black"></path></svg>