<svg width="136mm" height="120mm" version="1.1" viewBox="0 0 600 529.4117647058824" xmlns="http://www.w3.org/2000/svg"><path d="M120.795 152.707 C 120.796 270.926,120.989 278.766,124.289 295.010 C 134.846 346.969,173.385 390.474,223.801 407.344 C 255.342 417.899,289.536 417.912,320.875 407.381 C 329.796 404.384,346.591 396.190,354.674 390.892 C 387.587 369.318,411.432 334.641,419.635 296.418 C 422.565 282.767,423.210 272.884,423.210 241.623 L 423.210 211.605 404.444 211.605 L 385.679 211.605 385.287 245.659 C 384.907 278.633,384.825 280.004,382.682 288.912 C 375.015 320.787,356.758 345.802,329.401 361.917 C 285.514 387.769,230.256 381.150,193.681 345.659 C 176.341 328.833,166.034 310.009,160.943 285.871 C 159.299 278.073,159.092 274.265,159.010 250.156 L 158.918 223.170 266.005 169.461 C 324.903 139.922,373.478 115.592,373.950 115.396 C 374.421 115.200,371.048 107.466,366.455 98.211 L 358.105 81.383 258.727 131.073 C 204.069 158.403,159.156 180.764,158.919 180.764 C 158.683 180.764,158.489 148.573,158.489 109.229 L 158.489 37.695 139.642 37.695 L 120.795 37.695 120.795 152.707 " stroke="none" fill-rule="evenodd" fill="black"></path></svg>