<svg width="136mm" height="120mm" version="1.1" viewBox="0 0 600 529.4117647058824" xmlns="http://www.w3.org/2000/svg"><path d="M292.559 58.257 L 259.146 91.670 209.040 74.963 C 181.482 65.774,158.481 58.256,157.926 58.256 C 156.638 58.256,145.198 92.447,146.185 93.348 C 146.592 93.719,165.236 100.099,187.617 107.526 C 209.999 114.953,228.487 121.185,228.702 121.375 C 228.917 121.564,208.581 142.235,183.511 167.308 L 137.928 212.896 151.417 226.386 L 164.907 239.875 193.832 210.962 L 222.758 182.049 222.536 217.102 L 222.314 252.156 174.767 267.979 C 148.616 276.682,127.040 283.961,126.821 284.155 C 126.050 284.837,138.066 319.549,139.073 319.549 C 139.633 319.549,158.586 313.381,181.192 305.842 C 203.798 298.303,222.394 292.135,222.518 292.135 C 222.641 292.135,222.745 296.665,222.749 302.201 C 222.753 307.737,223.152 315.728,223.637 319.957 C 230.826 382.715,292.905 422.528,352.460 402.575 C 382.105 392.643,405.126 369.332,414.570 339.682 C 418.412 327.621,419.196 320.917,419.279 299.417 L 419.355 279.713 400.507 279.713 L 381.660 279.713 381.200 301.130 C 380.782 320.605,380.562 323.053,378.771 328.116 C 371.932 347.454,358.803 360.581,339.682 367.201 C 333.509 369.337,331.678 369.573,321.262 369.573 C 310.860 369.573,309.008 369.335,302.843 367.208 C 286.354 361.516,273.994 350.618,266.766 335.398 C 261.804 324.950,261.151 321.087,260.666 299.309 L 260.225 279.498 312.375 262.140 C 341.058 252.593,364.616 244.712,364.726 244.627 C 365.077 244.357,353.628 210.351,352.927 209.581 C 352.556 209.175,331.884 215.632,306.988 223.931 C 282.091 232.229,261.433 239.019,261.079 239.019 C 260.726 239.019,260.437 224.370,260.437 206.465 L 260.437 173.910 245.661 173.910 L 230.885 173.910 250.371 154.425 L 269.856 134.940 319.706 151.548 C 347.124 160.683,370.117 168.198,370.802 168.249 C 371.681 168.314,373.769 163.200,377.910 150.837 C 381.135 141.209,383.684 133.262,383.574 133.177 C 383.463 133.093,364.533 126.754,341.506 119.093 L 299.638 105.163 326.506 78.285 L 353.373 51.407 340.113 38.126 C 332.819 30.821,326.654 24.844,326.412 24.844 C 326.170 24.844,310.936 39.880,292.559 58.257 " stroke="none" fill-rule="evenodd" fill="black"></path></svg>