<svg width="136mm" height="120mm" version="1.1" viewBox="0 0 600 529.4117647058824" xmlns="http://www.w3.org/2000/svg"><path d="M292.559 58.257 L 259.146 91.670 209.040 74.963 C 181.482 65.774,158.481 58.256,157.926 58.256 C 156.638 58.256,145.198 92.447,146.185 93.348 C 146.592 93.719,165.236 100.099,187.617 107.526 C 209.999 114.953,228.487 121.185,228.702 121.375 C 228.917 121.564,208.581 142.235,183.511 167.308 L 137.928 212.896 151.417 226.386 L 164.907 239.875 193.832 210.962 L 222.758 182.049 222.536 217.102 L 222.314 252.156 174.767 267.979 C 148.616 276.682,127.040 283.961,126.821 284.155 C 126.050 284.837,138.066 319.549,139.073 319.549 C 139.633 319.549,158.586 313.381,181.192 305.842 C 203.798 298.303,222.336 292.135,222.388 292.135 C 222.440 292.135,222.704 298.785,222.974 306.913 C 223.507 322.921,224.857 331.166,228.821 342.619 C 242.116 381.030,280.072 407.789,321.263 407.789 C 360.019 407.789,396.476 383.769,411.171 348.554 C 417.914 332.392,420.068 318.317,419.608 293.420 L 419.355 279.713 400.507 279.713 L 381.660 279.713 381.168 301.130 C 380.628 324.689,380.208 327.057,374.689 337.618 C 370.978 344.720,365.135 351.666,358.165 357.259 C 348.314 365.166,337.907 369.075,324.657 369.847 C 300.212 371.272,277.841 358.160,266.882 335.984 C 261.876 325.854,261.231 321.412,261.492 298.857 L 261.722 278.998 313.124 261.890 C 341.395 252.480,364.616 244.712,364.726 244.627 C 365.077 244.357,353.628 210.351,352.927 209.581 C 352.448 209.055,277.478 233.251,262.364 238.809 C 261.520 239.119,261.293 232.312,261.293 206.556 L 261.293 173.910 246.089 173.910 L 230.885 173.910 250.371 154.425 L 269.856 134.940 319.706 151.548 C 347.124 160.683,370.117 168.198,370.802 168.249 C 371.681 168.314,373.769 163.200,377.910 150.837 C 381.135 141.209,383.684 133.262,383.574 133.177 C 383.463 133.093,364.533 126.754,341.506 119.093 L 299.638 105.163 326.506 78.285 L 353.373 51.407 340.113 38.126 C 332.819 30.821,326.654 24.844,326.412 24.844 C 326.170 24.844,310.936 39.880,292.559 58.257 " stroke="none" fill-rule="evenodd" fill="black"></path></svg>