<svg width="136mm" height="120mm" version="1.1" viewBox="0 0 600 529.4117647058824" xmlns="http://www.w3.org/2000/svg"><path d="M234.077 106.017 L 234.307 124.650 247.372 124.886 L 260.437 125.123 260.444 215.697 C 260.448 271.338,260.786 309.244,261.321 313.981 C 265.359 349.752,288.992 377.049,324.164 386.562 C 334.255 389.291,353.760 389.267,363.961 386.512 C 391.280 379.134,412.260 360.366,421.835 334.739 C 427.178 320.440,426.930 325.643,427.264 220.834 L 427.569 125.118 442.309 124.884 L 457.049 124.650 457.280 106.017 L 457.511 87.383 345.678 87.383 L 233.846 87.383 234.077 106.017 M123.662 130.480 L 48.140 168.342 56.631 185.265 L 65.121 202.188 75.382 197.045 C 81.026 194.216,85.842 191.901,86.085 191.901 C 86.328 191.901,86.527 227.754,86.527 271.574 C 86.527 315.394,86.721 351.247,86.958 351.247 C 87.196 351.247,107.101 341.390,131.192 329.343 C 155.282 317.296,175.277 307.754,175.623 308.140 C 175.969 308.525,178.491 315.394,181.227 323.404 C 183.963 331.414,186.256 338.058,186.324 338.168 C 186.523 338.492,220.538 327.097,221.234 326.474 C 221.786 325.979,181.487 203.476,180.421 202.410 C 180.075 202.064,145.772 213.076,144.906 213.811 C 144.739 213.954,148.876 226.887,154.100 242.552 C 159.324 258.217,163.509 271.112,163.400 271.208 C 163.291 271.304,154.624 275.668,144.140 280.906 L 125.078 290.429 125.078 231.314 L 125.078 172.200 170.483 149.494 C 195.456 137.006,215.888 126.400,215.888 125.925 C 215.888 125.052,199.781 92.483,199.393 92.571 C 199.277 92.597,165.198 109.656,123.662 130.480 M388.932 219.101 C 388.921 320.990,389.117 316.569,384.149 326.831 C 380.988 333.359,372.236 342.202,365.303 345.871 C 352.043 352.890,335.999 352.901,322.627 345.902 C 312.264 340.477,302.452 327.981,299.918 316.979 C 299.335 314.447,299.023 280.858,299.009 219.101 L 298.988 125.078 343.965 125.078 L 388.942 125.078 388.932 219.101 " stroke="none" fill-rule="evenodd" fill="black"></path></svg>