<svg width="136mm" height="120mm" version="1.1" viewBox="0 0 600 529.4117647058824" xmlns="http://www.w3.org/2000/svg"><path d="M272.983 58.967 C 271.243 62.077,205.603 261.615,206.154 262.116 C 207.392 263.244,240.694 274.047,241.037 273.433 C 241.214 273.117,245.314 260.908,250.148 246.301 C 254.982 231.695,259.188 219.464,259.494 219.123 C 259.800 218.782,266.573 231.565,274.544 247.530 L 289.038 276.557 306.006 268.065 L 322.975 259.572 299.801 213.231 L 276.627 166.889 292.616 118.923 C 301.410 92.541,308.272 70.653,307.866 70.283 C 306.628 69.156,273.326 58.353,272.983 58.967 M360.025 163.420 C 341.533 218.904,326.403 264.691,326.403 265.168 C 326.403 265.988,361.362 278.074,361.898 277.440 C 362.036 277.276,366.302 264.613,371.378 249.300 C 376.453 233.986,380.810 221.103,381.058 220.670 C 381.307 220.238,387.810 232.478,395.509 247.871 C 403.208 263.263,409.896 275.857,410.370 275.857 C 410.845 275.857,418.554 272.193,427.501 267.715 L 443.770 259.572 421.024 214.087 L 398.279 168.602 413.743 122.210 C 422.248 96.694,429.207 75.368,429.207 74.818 C 429.207 73.963,396.925 62.539,394.507 62.539 C 394.035 62.539,378.518 107.935,360.025 163.420 M116.083 126.933 C 79.330 145.335,49.081 160.560,48.862 160.766 C 48.644 160.972,52.210 168.644,56.788 177.813 L 65.111 194.486 73.661 190.195 C 78.364 187.835,82.412 185.904,82.656 185.904 C 82.900 185.904,83.100 223.877,83.100 270.289 C 83.100 326.203,83.390 354.674,83.960 354.674 C 84.433 354.674,103.247 345.459,125.768 334.197 L 166.715 313.719 172.566 331.412 C 175.785 341.143,178.490 349.195,178.577 349.306 C 178.665 349.416,186.614 346.867,196.242 343.642 C 208.748 339.453,213.719 337.418,213.651 336.517 C 213.547 335.131,169.609 202.854,169.039 202.211 C 168.544 201.651,133.645 213.313,133.645 214.038 C 133.645 214.364,138.271 228.497,143.926 245.445 C 149.580 262.392,154.206 276.552,154.206 276.911 C 154.206 277.484,122.348 293.848,121.232 293.848 C 120.991 293.848,120.795 265.220,120.795 230.231 L 120.795 166.614 160.975 146.538 L 201.155 126.463 192.897 109.921 C 188.355 100.824,184.249 93.401,183.772 93.427 C 183.296 93.453,152.835 108.531,116.083 126.933 M241.787 309.911 L 242.018 328.544 328.759 328.763 L 415.500 328.981 415.500 310.129 L 415.500 291.278 328.528 291.278 L 241.556 291.278 241.787 309.911 M219.315 377.805 L 219.315 396.652 328.973 396.652 L 438.630 396.652 438.630 377.805 L 438.630 358.957 328.973 358.957 L 219.315 358.957 219.315 377.805 " stroke="none" fill-rule="evenodd" fill="black"></path></svg>