<svg width="136mm" height="120mm" version="1.1" viewBox="0 0 600 529.4117647058824" xmlns="http://www.w3.org/2000/svg"><path d="M272.983 58.967 C 271.243 62.077,205.603 261.615,206.154 262.116 C 207.392 263.244,240.694 274.047,241.037 273.433 C 241.214 273.117,245.317 260.908,250.156 246.301 C 254.995 231.695,259.158 219.390,259.407 218.957 C 259.656 218.524,266.351 231.150,274.286 247.014 C 282.221 262.878,289.101 275.857,289.576 275.857 C 290.050 275.857,297.759 272.193,306.707 267.715 L 322.975 259.572 299.801 213.230 L 276.627 166.889 292.616 118.923 C 301.410 92.541,308.272 70.653,307.866 70.283 C 306.628 69.156,273.326 58.353,272.983 58.967 M393.820 63.182 C 392.966 64.691,326.253 265.708,326.528 265.942 C 327.210 266.521,361.655 277.726,361.892 277.446 C 362.034 277.279,366.500 264.056,371.818 248.060 L 381.486 218.978 395.927 247.849 L 410.367 276.719 426.854 268.482 C 435.923 263.951,443.461 260.138,443.605 260.007 C 443.750 259.876,433.610 239.256,421.073 214.184 L 398.277 168.600 414.048 121.296 L 429.819 73.992 412.571 68.266 C 394.139 62.146,394.370 62.209,393.820 63.182 M115.695 126.782 C 78.920 145.153,48.832 160.578,48.832 161.059 C 48.832 161.540,52.497 169.256,56.977 178.207 L 65.122 194.480 73.667 190.192 C 78.367 187.834,82.412 185.904,82.656 185.904 C 82.900 185.904,83.100 224.071,83.100 270.719 L 83.100 355.534 124.907 334.627 L 166.715 313.720 172.566 331.412 C 175.785 341.143,178.490 349.195,178.577 349.306 C 178.665 349.416,186.614 346.867,196.242 343.642 C 208.748 339.453,213.719 337.418,213.651 336.517 C 213.547 335.131,169.609 202.854,169.039 202.211 C 168.544 201.651,133.645 213.313,133.645 214.038 C 133.645 214.364,138.271 228.497,143.926 245.445 C 149.580 262.392,154.206 276.552,154.206 276.911 C 154.206 277.484,122.348 293.848,121.232 293.848 C 120.991 293.848,120.795 265.220,120.795 230.231 L 120.795 166.614 160.975 146.538 L 201.155 126.463 192.897 109.921 C 188.355 100.824,184.171 93.380,183.599 93.380 C 183.027 93.380,152.470 108.411,115.695 126.782 M241.787 309.911 L 242.018 328.544 328.759 328.763 L 415.500 328.981 415.500 310.129 L 415.500 291.278 328.528 291.278 L 241.556 291.278 241.787 309.911 M219.315 377.805 L 219.315 396.652 328.973 396.652 L 438.630 396.652 438.630 377.805 L 438.630 358.957 328.973 358.957 L 219.315 358.957 219.315 377.805 " stroke="none" fill-rule="evenodd" fill="black"></path></svg>