<svg width="136mm" height="120mm" version="1.1" viewBox="0 0 600 529.4117647058824" xmlns="http://www.w3.org/2000/svg"><path d="M211.177 68.247 C 168.903 72.481,134.481 101.674,124.153 142.052 C 112.541 187.449,134.907 234.675,177.595 254.897 C 191.975 261.708,207.730 264.695,229.381 264.713 L 238.163 264.720 238.163 307.984 L 238.163 351.247 177.765 351.247 L 117.368 351.247 117.368 370.094 L 117.368 388.942 251.441 388.942 L 385.515 388.942 385.515 370.094 L 385.515 351.247 330.686 351.247 L 275.857 351.247 275.857 308.118 L 275.857 264.990 291.064 264.458 C 299.427 264.166,309.195 263.364,312.771 262.678 C 352.436 255.059,383.476 224.099,391.193 184.458 C 393.172 174.292,393.161 156.957,391.170 147.527 C 383.701 112.149,358.788 83.840,325.522 72.927 C 311.801 68.427,310.280 68.313,260.865 68.102 C 235.421 67.993,213.061 68.058,211.177 68.247 M275.857 166.200 L 275.857 227.025 257.010 227.025 L 238.163 227.025 238.163 166.200 L 238.163 105.374 257.010 105.374 L 275.857 105.374 275.857 166.200 M200.468 166.200 C 200.468 197.769,200.307 223.599,200.110 223.599 C 198.697 223.599,190.609 219.444,185.804 216.251 C 173.554 208.106,163.904 194.393,160.533 180.335 C 158.650 172.481,158.667 158.965,160.570 151.636 C 161.365 148.573,163.614 142.790,165.567 138.785 C 168.456 132.860,170.561 130.060,176.868 123.758 C 183.099 117.531,186.047 115.305,191.901 112.407 C 195.906 110.424,199.472 108.801,199.825 108.801 C 200.179 108.801,200.468 134.630,200.468 166.200 M322.087 112.413 C 331.183 116.905,342.458 127.592,347.199 136.215 C 355.847 151.947,357.425 169.556,351.678 186.191 C 346.455 201.308,333.810 214.997,319.032 221.533 C 316.462 222.669,314.178 223.599,313.956 223.599 C 313.734 223.599,313.552 197.769,313.552 166.200 C 313.552 134.630,313.827 108.801,314.163 108.801 C 314.499 108.801,318.065 110.426,322.087 112.413 " stroke="none" fill-rule="evenodd" fill="black"></path></svg>