<svg width="136mm" height="120mm" version="1.1" viewBox="0 0 600 529.4117647058824" xmlns="http://www.w3.org/2000/svg"><path d="M210.545 68.608 C 172.138 71.781,138.937 97.882,126.133 134.971 C 119.705 153.590,119.511 177.739,125.642 196.086 C 134.312 222.032,151.888 242.249,176.052 254.072 C 191.545 261.652,206.334 264.647,228.525 264.698 L 238.163 264.720 238.163 307.984 L 238.163 351.247 177.765 351.247 L 117.368 351.247 117.368 370.094 L 117.368 388.942 251.441 388.942 L 385.515 388.942 385.515 370.094 L 385.515 351.247 330.686 351.247 L 275.857 351.247 275.857 307.984 L 275.857 264.720 285.495 264.698 C 307.686 264.647,322.475 261.652,337.968 254.072 C 391.299 227.978,409.386 161.302,376.528 111.923 C 366.998 97.601,353.726 86.038,337.968 78.328 C 326.360 72.648,315.378 69.667,301.966 68.556 C 289.981 67.564,222.729 67.602,210.545 68.608 M275.857 166.628 L 275.857 227.025 257.010 227.025 L 238.163 227.025 238.163 166.628 L 238.163 106.231 257.010 106.231 L 275.857 106.231 275.857 166.628 M200.468 166.258 L 200.468 223.714 198.540 223.130 C 192.003 221.149,184.139 215.895,176.804 208.606 C 170.104 201.949,168.434 199.685,165.091 192.730 C 160.456 183.089,159.160 177.291,159.160 166.200 C 159.160 155.108,160.456 149.310,165.091 139.669 C 168.424 132.736,170.125 130.425,176.804 123.758 C 183.013 117.560,186.091 115.222,191.786 112.379 C 195.728 110.411,199.294 108.801,199.710 108.801 C 200.142 108.801,200.468 133.541,200.468 166.258 M323.404 112.941 C 327.635 115.119,331.702 118.315,337.216 123.793 C 343.916 130.451,345.586 132.715,348.929 139.669 C 353.664 149.519,354.906 155.293,354.817 167.056 C 354.736 177.831,353.319 183.813,348.525 193.614 C 342.549 205.831,327.135 219.598,315.480 223.130 L 313.552 223.714 313.552 166.200 L 313.552 108.685 315.480 109.269 C 316.540 109.591,320.106 111.243,323.404 112.941 " stroke="none" fill-rule="evenodd" fill="black"></path></svg>