<svg width="136mm" height="120mm" version="1.1" viewBox="0 0 600 529.4117647058824" xmlns="http://www.w3.org/2000/svg"><path d="M210.545 68.608 C 183.341 70.856,157.493 85.292,140.410 107.779 C 134.919 115.007,127.487 130.150,124.773 139.642 C 120.067 156.097,120.067 176.303,124.773 192.757 C 127.481 202.228,134.915 217.388,140.377 224.577 C 155.477 244.453,176.295 257.523,200.896 262.570 C 204.800 263.371,214.295 264.193,222.956 264.481 L 238.163 264.985 238.163 308.116 L 238.163 351.247 177.765 351.247 L 117.368 351.247 117.368 370.094 L 117.368 388.942 251.441 388.942 L 385.515 388.942 385.515 370.094 L 385.515 351.247 330.686 351.247 L 275.857 351.247 275.857 308.116 L 275.857 264.985 291.064 264.481 C 299.725 264.193,309.220 263.371,313.124 262.570 C 344.169 256.200,369.069 237.155,382.555 209.463 C 391.044 192.034,394.259 174.677,392.350 156.590 C 391.033 144.116,388.279 134.644,382.565 122.936 C 367.257 91.570,337.510 71.501,301.966 68.556 C 289.981 67.564,222.729 67.602,210.545 68.608 M275.857 166.628 L 275.857 227.025 257.010 227.025 L 238.163 227.025 238.163 166.628 L 238.163 106.231 257.010 106.231 L 275.857 106.231 275.857 166.628 M200.468 166.258 L 200.468 223.714 198.540 223.130 C 187.702 219.846,171.960 206.140,165.973 194.774 C 156.986 177.713,156.971 154.897,165.934 137.671 C 170.652 128.605,182.285 117.229,191.753 112.423 C 195.677 110.431,199.243 108.801,199.678 108.801 C 200.152 108.801,200.468 131.755,200.468 166.258 M323.404 112.964 C 331.643 117.249,343.635 129.251,348.047 137.626 C 352.655 146.374,354.674 155.079,354.674 166.200 C 354.674 177.321,352.655 186.026,348.047 194.774 C 342.115 206.034,326.168 219.922,315.480 223.135 L 313.552 223.714 313.552 166.200 L 313.552 108.685 315.480 109.265 C 316.540 109.584,320.106 111.248,323.404 112.964 " stroke="none" fill-rule="evenodd" fill="black"></path></svg>