<svg width="136mm" height="120mm" version="1.1" viewBox="0 0 600 529.4117647058824" xmlns="http://www.w3.org/2000/svg"><path d="M238.163 113.513 L 238.163 189.331 168.342 189.331 L 98.520 189.331 98.520 208.178 L 98.520 227.025 168.342 227.025 L 238.163 227.025 238.163 255.297 L 238.163 283.568 168.342 283.568 L 98.520 283.568 98.520 302.415 L 98.520 321.262 168.342 321.262 L 238.163 321.262 238.163 368.381 L 238.163 415.500 257.010 415.500 L 275.857 415.500 275.857 368.381 L 275.857 321.262 347.820 321.262 L 419.783 321.262 419.783 302.415 L 419.783 283.568 347.820 283.568 L 275.857 283.568 275.857 255.301 L 275.857 227.035 347.606 226.816 L 419.355 226.597 419.586 207.964 L 419.816 189.331 347.837 189.331 L 275.857 189.331 275.857 113.513 L 275.857 37.695 257.010 37.695 L 238.163 37.695 238.163 113.513 M139.856 71.787 C 130.786 76.349,123.365 80.376,123.365 80.737 C 123.365 81.310,171.143 177.344,171.770 178.030 C 171.974 178.253,204.665 162.191,205.442 161.486 C 205.721 161.234,156.923 63.361,156.560 63.445 C 156.443 63.472,148.927 67.226,139.856 71.787 M332.779 112.325 C 319.324 139.233,308.433 161.355,308.578 161.486 C 309.355 162.191,342.046 178.253,342.250 178.030 C 342.877 177.344,390.655 81.311,390.655 80.737 C 390.655 80.376,383.138 76.328,373.950 71.741 L 357.244 63.402 332.779 112.325 " stroke="none" fill-rule="evenodd" fill="black"></path></svg>