<svg width="136mm" height="120mm" version="1.1" viewBox="0 0 600 529.4117647058824" xmlns="http://www.w3.org/2000/svg"><path d="M128.505 200.047 L 128.505 354.689 119.900 350.371 C 115.167 347.996,111.023 346.225,110.690 346.436 C 109.750 347.033,93.830 379.400,94.273 379.816 C 94.849 380.358,165.258 415.499,165.767 415.500 C 166.005 415.500,166.200 332.228,166.200 230.452 L 166.200 45.405 147.352 45.405 L 128.505 45.405 128.505 200.047 M268.147 120.795 L 268.147 139.642 283.139 139.642 L 298.132 139.642 298.132 234.307 L 298.132 328.973 283.123 328.973 L 268.114 328.973 268.345 347.606 L 268.575 366.239 372.236 366.239 L 475.897 366.239 476.128 347.606 L 476.359 328.973 463.063 328.973 L 449.767 328.973 449.767 234.307 L 449.767 139.642 463.046 139.642 L 476.325 139.642 476.325 120.795 L 476.325 101.947 372.236 101.947 L 268.147 101.947 268.147 120.795 M53.117 124.648 L 39.853 137.933 62.543 160.635 L 85.232 183.336 98.513 170.056 L 111.794 156.775 89.088 134.069 L 66.382 111.363 53.117 124.648 M205.812 133.869 L 183.330 156.364 196.833 169.847 L 210.336 183.330 232.818 160.836 L 255.301 138.341 241.798 124.858 L 228.295 111.375 205.812 133.869 M411.862 234.093 L 411.644 328.544 374.164 328.768 L 336.683 328.991 336.683 234.316 L 336.683 139.642 374.382 139.642 L 412.080 139.642 411.862 234.093 M62.539 273.716 L 39.846 296.421 53.125 309.700 L 66.404 322.979 89.097 300.273 L 111.790 277.568 98.511 264.289 L 85.232 251.010 62.539 273.716 M196.821 264.512 L 183.337 278.015 205.832 300.497 L 228.327 322.980 241.810 309.477 L 255.293 295.974 232.798 273.492 L 210.304 251.009 196.821 264.512 " stroke="none" fill-rule="evenodd" fill="black"></path></svg>