<svg width="136mm" height="120mm" version="1.1" viewBox="0 0 600 529.4117647058824" xmlns="http://www.w3.org/2000/svg"><path d="M128.505 200.034 L 128.505 354.664 119.545 350.207 C 114.617 347.756,110.419 345.927,110.217 346.143 C 110.015 346.359,106.143 353.955,101.612 363.023 L 93.375 379.511 129.355 397.505 C 149.144 407.402,165.530 415.500,165.767 415.500 C 166.005 415.500,166.200 332.228,166.200 230.452 L 166.200 45.405 147.352 45.405 L 128.505 45.405 128.505 200.034 M268.147 120.795 L 268.147 139.642 283.139 139.642 L 298.132 139.642 298.132 234.307 L 298.132 328.973 283.123 328.973 L 268.114 328.973 268.345 347.606 L 268.575 366.239 372.450 366.457 L 476.325 366.674 476.325 347.824 L 476.325 328.973 463.046 328.973 L 449.767 328.973 449.767 234.307 L 449.767 139.642 463.046 139.642 L 476.325 139.642 476.325 120.795 L 476.325 101.947 372.236 101.947 L 268.147 101.947 268.147 120.795 M53.117 124.648 L 39.853 137.933 62.543 160.635 L 85.232 183.336 98.513 170.056 L 111.794 156.775 89.088 134.069 L 66.382 111.363 53.117 124.648 M205.812 133.869 L 183.329 156.364 196.590 169.604 L 209.850 182.844 231.931 161.058 C 244.075 149.076,254.293 139.055,254.638 138.789 C 254.982 138.522,249.196 132.245,241.779 124.839 L 228.295 111.375 205.812 133.869 M412.073 234.307 L 412.073 328.973 374.378 328.973 L 336.683 328.973 336.683 234.307 L 336.683 139.642 374.378 139.642 L 412.073 139.642 412.073 234.307 M62.539 273.716 L 39.846 296.421 53.125 309.700 L 66.404 322.979 89.097 300.273 L 111.790 277.568 98.511 264.289 L 85.232 251.010 62.539 273.716 M196.182 264.294 L 182.922 277.575 205.608 300.274 L 228.295 322.972 241.798 309.489 L 255.301 296.006 232.816 273.509 C 220.450 261.136,210.132 251.013,209.887 251.013 C 209.643 251.013,203.475 256.990,196.182 264.294 " stroke="none" fill-rule="evenodd" fill="black"></path></svg>