<svg width="136mm" height="120mm" version="1.1" viewBox="0 0 600 529.4117647058824" xmlns="http://www.w3.org/2000/svg"><path d="M117.368 79.673 L 117.368 98.520 185.047 98.520 L 252.727 98.520 252.727 224.884 C 252.727 294.384,252.621 351.247,252.492 351.247 C 252.363 351.247,243.024 348.163,231.737 344.393 C 220.451 340.624,210.947 337.540,210.618 337.540 C 209.888 337.540,198.221 372.436,198.784 372.934 C 199.298 373.388,289.783 403.506,290.636 403.506 C 290.989 403.506,291.278 334.886,291.278 251.018 L 291.278 98.531 360.885 98.311 L 430.492 98.092 430.723 79.459 L 430.954 60.826 274.161 60.826 L 117.368 60.826 117.368 79.673 M136.214 135.788 L 122.948 149.075 156.995 183.122 L 191.042 217.169 204.322 203.889 L 217.602 190.608 183.541 156.555 L 149.480 122.502 136.214 135.788 M357.023 156.569 L 322.969 190.630 336.256 203.896 L 349.543 217.162 383.590 183.115 L 417.637 149.068 404.356 135.788 L 391.076 122.507 357.023 156.569 M156.983 276.935 C 138.493 295.430,123.365 310.950,123.365 311.425 C 123.365 312.544,148.389 337.540,149.509 337.540 C 149.976 337.540,165.490 322.405,183.983 303.907 L 217.608 270.275 204.105 256.792 L 190.602 243.308 156.983 276.935 M336.033 257.231 L 322.982 270.303 357.040 304.353 L 391.098 338.403 404.362 325.118 L 417.627 311.832 383.798 277.996 C 365.193 259.386,349.771 244.160,349.527 244.160 C 349.284 244.160,343.211 250.042,336.033 257.231 " stroke="none" fill-rule="evenodd" fill="black"></path></svg>