<svg width="136mm" height="120mm" version="1.1" viewBox="0 0 600 529.4117647058824" xmlns="http://www.w3.org/2000/svg"><path d="M117.368 79.673 L 117.368 98.520 185.047 98.520 L 252.727 98.520 252.727 224.884 C 252.727 294.384,252.621 351.247,252.492 351.247 C 252.363 351.247,243.024 348.163,231.737 344.393 C 220.451 340.624,210.947 337.540,210.618 337.540 C 209.888 337.540,198.221 372.436,198.784 372.934 C 199.298 373.388,289.783 403.506,290.636 403.506 C 290.989 403.506,291.278 334.884,291.278 251.013 L 291.278 98.520 361.099 98.520 L 430.920 98.520 430.920 79.673 L 430.920 60.826 274.144 60.826 L 117.368 60.826 117.368 79.673 M135.982 136.020 L 122.483 149.538 156.188 183.142 C 174.725 201.624,190.252 216.745,190.693 216.745 C 191.133 216.745,197.366 210.863,204.544 203.673 L 217.596 190.602 183.538 156.552 L 149.480 122.502 135.982 136.020 M357.023 156.569 L 322.969 190.630 336.256 203.896 L 349.543 217.162 383.590 183.115 L 417.637 149.068 404.356 135.788 L 391.076 122.507 357.023 156.569 M336.465 256.800 L 322.982 270.303 356.608 303.921 C 375.103 322.411,390.614 337.540,391.077 337.540 C 392.197 337.540,417.213 312.536,417.213 311.417 C 417.213 310.938,402.078 295.415,383.580 276.921 L 349.948 243.297 336.465 256.800 M156.126 277.792 L 122.502 311.425 136.005 324.908 L 149.508 338.391 183.558 304.333 L 217.608 270.275 204.530 257.217 C 197.337 250.035,191.070 244.160,190.602 244.160 C 190.134 244.160,174.620 259.294,156.126 277.792 " stroke="none" fill-rule="evenodd" fill="black"></path></svg>