<svg width="136mm" height="120mm" version="1.1" viewBox="0 0 600 529.4117647058824" xmlns="http://www.w3.org/2000/svg"><path d="M297.490 148.634 L 247.591 248.436 262.795 256.049 L 277.999 263.663 274.269 264.782 C 272.217 265.398,270.350 266.394,270.119 266.996 C 269.764 267.920,290.834 332.917,291.865 334.083 C 292.549 334.856,327.259 322.838,327.259 321.829 C 327.259 321.054,307.459 260.860,305.460 255.555 C 305.187 254.830,302.105 255.524,295.003 257.910 C 289.464 259.771,284.626 261.293,284.251 261.293 C 283.876 261.293,297.928 232.573,315.478 197.469 C 333.028 162.366,347.582 133.645,347.820 133.645 C 348.059 133.645,362.613 162.366,380.163 197.469 C 397.712 232.573,411.782 261.290,411.429 261.285 C 411.076 261.280,406.161 259.760,400.507 257.907 L 390.227 254.537 378.891 288.487 C 372.657 307.159,367.645 322.505,367.754 322.589 C 368.662 323.287,402.851 334.197,403.161 333.887 C 404.099 332.949,425.688 266.977,425.275 266.310 C 425.026 265.907,424.363 265.560,423.802 265.538 C 423.241 265.517,421.625 264.998,420.211 264.385 C 417.641 263.271,417.642 263.271,432.419 255.852 C 440.547 251.772,447.197 248.242,447.197 248.008 C 447.197 247.449,347.883 48.832,347.604 48.832 C 347.485 48.832,324.934 93.743,297.490 148.634 M92.060 178.408 C 71.465 240.251,54.566 291.186,54.508 291.597 C 54.425 292.169,73.171 298.891,88.372 303.740 C 89.554 304.117,91.175 300.035,98.117 279.210 L 106.444 254.229 127.005 274.790 L 147.565 295.351 131.092 344.770 C 122.032 371.950,114.756 394.305,114.923 394.447 C 115.605 395.026,150.050 406.231,150.287 405.951 C 150.429 405.784,156.428 387.914,163.620 366.239 C 170.811 344.565,176.946 326.550,177.254 326.208 C 177.561 325.865,190.715 338.490,206.484 354.264 C 222.253 370.039,235.538 382.945,236.006 382.945 C 236.474 382.945,242.743 377.069,249.935 369.887 L 263.014 356.830 226.923 320.731 L 190.832 284.633 217.924 203.356 C 232.825 158.654,245.016 121.791,245.016 121.437 C 245.016 121.084,223.842 120.795,197.963 120.795 L 150.910 120.795 158.058 99.386 C 162.235 86.876,164.860 77.763,164.373 77.461 C 163.367 76.840,130.948 65.966,130.100 65.966 C 129.773 65.966,112.654 116.565,92.060 178.408 M192.757 159.132 C 192.757 160.240,161.732 253.122,161.142 253.779 C 160.834 254.123,151.436 245.252,140.258 234.066 L 119.934 213.729 128.846 187.022 C 133.748 172.332,138.013 159.904,138.323 159.402 C 138.976 158.345,192.757 158.079,192.757 159.132 M328.973 275.857 C 328.973 321.562,328.858 358.957,328.718 358.957 C 328.579 358.957,323.933 357.435,318.394 355.574 C 311.295 353.189,308.211 352.494,307.939 353.218 C 307.359 354.767,296.418 387.582,296.418 387.775 C 296.418 387.867,311.742 393.043,330.472 399.277 C 349.202 405.511,365.008 410.789,365.597 411.005 C 366.450 411.319,366.668 389.174,366.668 302.078 L 366.668 192.757 347.820 192.757 L 328.973 192.757 328.973 275.857 " stroke="none" fill-rule="evenodd" fill="black"></path></svg>