<svg width="136mm" height="120mm" version="1.1" viewBox="0 0 600 529.4117647058824" xmlns="http://www.w3.org/2000/svg"><path d="M297.476 148.661 L 247.591 248.436 262.750 256.025 L 277.909 263.614 273.529 265.068 L 269.149 266.523 280.230 299.649 C 286.324 317.869,291.655 333.119,292.076 333.540 C 293.082 334.546,327.259 323.162,327.259 321.821 C 327.259 321.052,307.448 260.829,305.460 255.555 C 305.187 254.830,302.105 255.524,295.003 257.910 C 289.464 259.771,284.626 261.293,284.251 261.293 C 283.876 261.293,297.928 232.573,315.478 197.469 C 333.028 162.366,347.582 133.645,347.820 133.645 C 348.225 133.645,412.073 260.859,412.073 261.665 C 412.073 261.867,407.561 260.518,402.047 258.665 C 396.532 256.812,391.553 255.297,390.982 255.297 C 390.126 255.297,367.078 322.069,367.754 322.589 C 369.237 323.729,402.986 334.101,403.474 333.567 C 403.845 333.160,409.062 318.037,415.068 299.960 C 425.962 267.174,426.312 265.663,423.051 265.590 C 422.729 265.583,421.379 265.155,420.053 264.640 C 417.738 263.741,418.251 263.397,432.803 256.091 L 447.964 248.479 398.198 149.298 C 370.827 94.748,348.192 49.840,347.897 49.502 C 347.602 49.164,324.913 93.785,297.476 148.661 M92.097 177.979 C 71.496 239.587,54.586 290.528,54.520 291.183 C 54.420 292.183,68.401 297.369,88.372 303.740 C 89.554 304.117,91.175 300.035,98.117 279.210 L 106.444 254.229 126.900 274.685 L 147.356 295.141 131.077 343.960 C 122.123 370.811,114.798 393.176,114.798 393.661 C 114.798 394.488,149.751 406.585,150.293 405.945 C 150.431 405.781,156.428 387.914,163.620 366.239 C 170.811 344.565,176.946 326.550,177.254 326.208 C 177.561 325.865,190.715 338.490,206.484 354.264 C 222.253 370.039,235.538 382.945,236.006 382.945 C 236.474 382.945,242.743 377.069,249.935 369.887 L 263.014 356.830 226.923 320.731 L 190.832 284.633 217.924 203.356 C 232.825 158.654,245.016 121.791,245.016 121.437 C 245.016 121.084,223.842 120.795,197.963 120.795 L 150.910 120.795 158.077 99.331 C 162.986 84.629,164.922 77.747,164.222 77.485 C 162.804 76.953,129.873 65.966,129.697 65.966 C 129.619 65.966,112.699 116.372,92.097 177.979 M192.547 159.560 C 192.330 160.149,185.109 181.786,176.500 207.641 L 160.847 254.651 140.389 234.193 L 119.931 213.736 128.845 187.025 C 133.748 172.334,138.013 159.904,138.323 159.402 C 139.200 157.983,193.069 158.140,192.547 159.560 M328.973 275.857 C 328.973 321.562,328.858 358.957,328.718 358.957 C 328.579 358.957,323.933 357.435,318.394 355.574 C 311.295 353.189,308.211 352.494,307.939 353.218 C 307.359 354.767,296.418 387.582,296.418 387.775 C 296.418 387.867,311.742 393.043,330.472 399.277 C 349.202 405.511,365.008 410.789,365.597 411.005 C 366.450 411.319,366.668 389.174,366.668 302.078 L 366.668 192.757 347.820 192.757 L 328.973 192.757 328.973 275.857 " stroke="none" fill-rule="evenodd" fill="black"></path></svg>