<svg width="136mm" height="120mm" version="1.1" viewBox="0 0 600 529.4117647058824" xmlns="http://www.w3.org/2000/svg"><path d="M297.490 148.634 L 247.591 248.436 262.750 256.025 L 277.909 263.614 273.539 265.065 L 269.169 266.517 280.342 300.101 C 286.487 318.572,291.673 333.864,291.866 334.083 C 292.549 334.856,327.259 322.838,327.259 321.829 C 327.259 321.054,307.459 260.860,305.460 255.555 C 305.187 254.830,302.099 255.527,294.983 257.917 C 289.433 259.782,284.637 261.208,284.325 261.086 C 284.012 260.965,298.122 232.145,315.681 197.043 L 347.606 133.221 379.803 197.610 L 411.999 261.999 401.113 258.345 L 390.227 254.690 378.891 288.563 C 372.657 307.194,367.645 322.505,367.754 322.589 C 368.163 322.903,402.245 334.113,402.792 334.113 C 403.106 334.113,408.271 319.367,414.269 301.344 C 420.268 283.321,425.338 268.133,425.536 267.593 C 425.741 267.031,423.964 265.968,421.385 265.112 L 416.875 263.614 432.036 256.024 C 440.375 251.849,447.197 248.242,447.197 248.009 C 447.197 247.449,347.883 48.832,347.604 48.832 C 347.485 48.832,324.934 93.743,297.490 148.634 M92.060 178.408 C 71.465 240.251,54.566 291.186,54.508 291.597 C 54.425 292.169,73.171 298.891,88.372 303.740 C 89.554 304.117,91.175 300.035,98.117 279.210 L 106.444 254.229 127.005 274.790 L 147.565 295.351 131.092 344.770 C 122.032 371.950,114.756 394.305,114.923 394.447 C 115.605 395.026,150.050 406.231,150.287 405.951 C 150.429 405.784,156.428 387.914,163.620 366.239 C 170.811 344.565,176.946 326.550,177.254 326.208 C 177.561 325.865,190.715 338.490,206.484 354.264 C 222.253 370.039,235.538 382.945,236.006 382.945 C 236.474 382.945,242.743 377.069,249.935 369.887 L 263.014 356.830 226.923 320.731 L 190.832 284.633 217.924 203.356 C 232.825 158.654,245.016 121.791,245.016 121.437 C 245.016 121.084,223.842 120.795,197.963 120.795 L 150.910 120.795 158.077 99.331 C 162.986 84.629,164.922 77.747,164.222 77.485 C 162.677 76.906,129.864 65.966,129.672 65.966 C 129.580 65.966,112.654 116.565,92.060 178.408 M192.757 159.132 C 192.757 160.240,161.732 253.122,161.142 253.779 C 160.834 254.123,151.436 245.252,140.258 234.066 L 119.934 213.729 128.846 187.022 C 133.748 172.332,138.013 159.904,138.323 159.402 C 138.976 158.345,192.757 158.079,192.757 159.132 M328.973 275.857 C 328.973 321.562,328.858 358.957,328.718 358.957 C 328.579 358.957,323.933 357.435,318.394 355.574 C 311.295 353.189,308.211 352.494,307.939 353.218 C 307.359 354.767,296.418 387.582,296.418 387.775 C 296.418 387.867,311.742 393.043,330.472 399.277 C 349.202 405.511,365.008 410.789,365.597 411.005 C 366.450 411.319,366.668 389.174,366.668 302.078 L 366.668 192.757 347.820 192.757 L 328.973 192.757 328.973 275.857 " stroke="none" fill-rule="evenodd" fill="black"></path></svg>