<svg width="136mm" height="120mm" version="1.1" viewBox="0 0 600 529.4117647058824" xmlns="http://www.w3.org/2000/svg"><path d="M75.390 101.947 L 75.390 120.795 115.226 120.795 C 137.136 120.795,155.063 120.893,155.063 121.012 C 155.063 121.132,136.566 176.718,113.958 244.537 C 91.351 312.356,72.942 367.912,73.051 367.995 C 74.434 369.057,108.376 379.564,108.614 379.004 C 108.794 378.580,119.800 345.850,133.073 306.270 L 157.204 234.307 168.386 234.513 C 182.138 234.766,190.627 236.750,199.379 241.758 C 218.868 252.908,230.452 272.689,230.452 294.816 C 230.452 325.461,206.461 351.848,176.134 354.559 L 170.055 355.102 169.823 373.071 C 169.695 382.953,169.749 391.451,169.942 391.955 C 170.456 393.294,185.248 391.932,193.838 389.755 C 231.656 380.171,260.252 349.217,266.994 310.567 C 268.933 299.452,268.180 281.625,265.312 270.717 C 257.136 239.624,234.734 214.288,205.480 203.049 C 198.796 200.481,188.854 198.077,182.477 197.486 C 179.414 197.202,175.312 196.776,173.360 196.539 L 169.812 196.107 182.475 158.665 L 195.138 121.223 318.598 121.006 L 442.057 120.789 442.057 101.944 L 442.057 83.100 258.723 83.100 L 75.390 83.100 75.390 101.947 M283.568 221.362 C 283.568 301.157,283.582 301.457,288.166 314.932 C 295.375 336.121,311.063 354.214,330.879 364.190 C 344.445 371.020,355.468 373.604,370.979 373.590 C 414.149 373.550,450.034 342.019,456.557 298.396 C 457.158 294.375,457.478 267.076,457.478 219.794 L 457.478 147.352 438.630 147.352 L 419.783 147.352 419.783 175.624 L 419.783 203.895 370.523 203.895 L 321.262 203.895 321.262 175.624 L 321.262 147.352 302.415 147.352 L 283.568 147.352 283.568 221.362 M419.568 268.790 C 419.229 291.396,418.910 296.786,417.677 300.702 C 415.136 308.769,411.043 315.446,404.768 321.759 C 395.147 331.439,384.568 335.798,370.646 335.816 C 356.193 335.836,346.092 331.625,335.826 321.300 C 331.658 317.107,328.420 312.882,326.608 309.269 C 321.948 299.977,321.294 294.752,321.277 266.648 L 321.262 241.589 370.619 241.589 L 419.975 241.589 419.568 268.790 " stroke="none" fill-rule="evenodd" fill="black"></path></svg>