<svg width="136mm" height="120mm" version="1.1" viewBox="0 0 600 529.4117647058824" xmlns="http://www.w3.org/2000/svg"><path d="M75.390 101.947 L 75.390 120.795 115.226 120.795 C 137.136 120.795,155.063 120.893,155.063 121.012 C 155.063 121.132,136.589 176.649,114.009 244.383 C 77.846 352.868,73.126 367.624,74.387 368.272 C 77.874 370.062,108.111 379.638,108.640 379.119 C 108.964 378.802,120.062 346.090,133.302 306.425 L 157.374 234.307 167.998 234.486 C 180.663 234.700,188.969 236.381,196.830 240.321 C 211.388 247.620,223.668 262.169,228.268 277.571 C 230.520 285.113,230.947 298.172,229.218 306.701 C 224.001 332.447,202.044 352.243,176.134 354.559 L 170.055 355.102 169.823 373.071 C 169.695 382.953,169.749 391.451,169.942 391.955 C 170.456 393.294,185.248 391.932,193.838 389.755 C 221.563 382.729,245.293 363.603,258.093 337.968 C 270.735 312.648,271.459 281.809,260.034 255.297 C 255.393 244.526,247.255 232.881,238.473 224.442 C 221.497 208.131,202.375 199.273,179.621 197.182 C 175.037 196.760,171.065 196.195,170.795 195.925 C 170.525 195.655,175.871 178.737,182.673 158.329 L 195.042 121.223 318.550 121.006 L 442.057 120.789 442.057 101.944 L 442.057 83.100 258.723 83.100 L 75.390 83.100 75.390 101.947 M283.568 221.362 C 283.568 301.157,283.582 301.457,288.166 314.932 C 297.496 342.356,321.117 364.132,349.371 371.356 C 362.174 374.630,380.455 374.293,393.656 370.541 C 428.119 360.746,452.551 331.805,456.593 295.990 C 457.113 291.391,457.467 259.841,457.471 217.816 L 457.478 147.352 438.202 147.352 L 418.926 147.352 418.926 175.624 L 418.926 203.895 370.094 203.895 L 321.262 203.895 321.262 175.624 L 321.262 147.352 302.415 147.352 L 283.568 147.352 283.568 221.362 M418.926 268.380 C 418.926 298.429,418.401 302.151,412.839 311.547 C 403.793 326.829,388.143 335.826,370.613 335.826 C 355.952 335.826,345.988 331.680,335.747 321.318 C 331.458 316.979,328.318 312.856,326.531 309.218 C 321.942 299.873,321.294 294.623,321.277 266.648 L 321.262 241.589 370.094 241.589 L 418.926 241.589 418.926 268.380 " stroke="none" fill-rule="evenodd" fill="black"></path></svg>