<svg width="136mm" height="120mm" version="1.1" viewBox="0 0 600 529.4117647058824" xmlns="http://www.w3.org/2000/svg"><path d="M75.390 101.947 L 75.390 120.795 115.226 120.795 C 137.136 120.795,155.063 120.893,155.063 121.012 C 155.063 121.132,136.589 176.649,114.009 244.383 C 77.846 352.868,73.126 367.624,74.387 368.272 C 77.874 370.062,108.111 379.638,108.640 379.119 C 108.964 378.802,120.060 346.090,133.297 306.425 L 157.364 234.307 167.993 234.402 C 180.486 234.512,187.617 236.001,196.573 240.368 C 218.332 250.978,231.533 273.448,230.212 297.624 C 229.451 311.568,225.553 321.690,216.591 332.999 C 206.924 345.199,188.646 354.617,174.553 354.661 L 170.483 354.674 170.483 373.521 L 170.483 392.369 175.409 392.362 C 191.266 392.341,212.120 385.169,226.817 374.681 C 245.235 361.538,259.284 341.238,265.266 319.121 C 267.350 311.414,267.590 309.048,267.651 295.562 C 267.729 278.384,266.692 272.371,261.228 258.295 C 253.087 237.326,235.688 218.069,215.429 207.606 C 203.201 201.291,191.297 197.901,176.694 196.574 C 173.278 196.264,170.483 195.757,170.483 195.447 C 170.483 195.138,176.010 178.310,182.764 158.054 L 195.045 121.223 318.551 121.006 L 442.057 120.789 442.057 101.944 L 442.057 83.100 258.723 83.100 L 75.390 83.100 75.390 101.947 M283.568 220.916 C 283.568 300.316,283.634 301.660,288.186 315.009 C 298.222 344.433,323.718 366.526,354.267 372.269 C 365.670 374.413,383.268 373.664,393.654 370.593 C 409.190 365.999,420.271 359.462,431.416 348.316 C 446.022 333.710,454.271 316.566,456.593 295.990 C 457.113 291.391,457.467 259.841,457.471 217.816 L 457.478 147.352 438.630 147.352 L 419.783 147.352 419.783 175.624 L 419.783 203.895 370.523 203.895 L 321.262 203.895 321.262 175.624 L 321.262 147.352 302.415 147.352 L 283.568 147.352 283.568 220.916 M419.290 268.575 C 419.226 294.954,419.210 295.180,416.944 302.053 C 410.290 322.228,391.717 335.826,370.813 335.826 C 362.037 335.826,356.449 334.584,348.677 330.906 C 340.279 326.931,330.570 317.390,326.612 309.223 C 321.790 299.274,321.289 295.315,321.275 267.069 L 321.262 241.575 370.309 241.797 L 419.355 242.018 419.290 268.575 " stroke="none" fill-rule="evenodd" fill="black"></path></svg>