<svg width="136mm" height="120mm" version="1.1" viewBox="0 0 600 529.4117647058824" xmlns="http://www.w3.org/2000/svg"><path d="M162.773 56.533 L 162.773 75.372 124.864 75.595 L 86.955 75.818 86.724 94.451 L 86.493 113.084 124.633 113.084 L 162.773 113.084 162.773 131.932 L 162.773 150.779 181.620 150.779 L 200.468 150.779 200.468 131.932 L 200.468 113.084 257.010 113.084 L 313.552 113.084 313.552 131.932 L 313.552 150.779 332.400 150.779 L 351.247 150.779 351.247 131.932 L 351.247 113.084 389.387 113.084 L 427.527 113.084 427.296 94.451 L 427.065 75.818 389.156 75.595 L 351.247 75.372 351.247 56.533 L 351.247 37.695 332.400 37.695 L 313.552 37.695 313.552 56.542 L 313.552 75.390 257.010 75.390 L 200.468 75.390 200.468 56.542 L 200.468 37.695 181.620 37.695 L 162.773 37.695 162.773 56.533 M125.078 185.002 L 125.078 203.853 222.975 204.088 L 320.871 204.323 326.590 207.139 C 332.929 210.260,338.026 215.382,341.089 221.711 C 343.935 227.589,344.293 237.883,341.875 244.293 C 338.726 252.641,331.977 259.511,323.713 262.781 C 320.307 264.129,313.261 264.299,243.731 264.710 L 167.485 265.161 160.917 267.397 C 138.086 275.170,119.984 294.790,115.171 316.979 C 113.161 326.244,113.354 340.480,115.606 349.105 C 121.675 372.352,140.140 391.372,163.201 398.133 C 167.970 399.531,176.312 399.657,278.642 399.875 L 388.942 400.110 388.942 381.260 L 388.942 362.410 281.212 362.183 L 173.482 361.956 169.035 359.944 C 162.824 357.136,155.866 349.634,153.416 343.105 C 150.764 336.039,151.136 326.309,154.316 319.549 C 157.126 313.578,162.725 307.977,168.770 305.092 L 173.482 302.843 248.871 302.387 C 322.479 301.942,324.413 301.888,330.686 300.108 C 334.220 299.105,338.972 297.480,341.246 296.497 C 351.394 292.110,362.975 282.274,369.827 272.222 C 378.071 260.128,381.361 249.033,381.325 233.451 C 381.280 214.216,374.907 199.321,360.830 185.548 C 352.393 177.293,343.642 172.101,332.253 168.592 L 325.974 166.658 225.526 166.405 L 125.078 166.152 125.078 185.002 " stroke="none" fill-rule="evenodd" fill="black"></path></svg>