<svg width="136mm" height="120mm" version="1.1" viewBox="0 0 600 529.4117647058824" xmlns="http://www.w3.org/2000/svg"><path d="M162.773 56.533 L 162.773 75.372 124.864 75.595 L 86.955 75.818 86.724 94.451 L 86.493 113.084 124.633 113.084 L 162.773 113.084 162.773 131.932 L 162.773 150.779 181.620 150.779 L 200.468 150.779 200.468 131.932 L 200.468 113.084 257.010 113.084 L 313.552 113.084 313.552 131.932 L 313.552 150.779 332.400 150.779 L 351.247 150.779 351.247 131.932 L 351.247 113.084 389.387 113.084 L 427.527 113.084 427.296 94.451 L 427.065 75.818 389.156 75.595 L 351.247 75.372 351.247 56.533 L 351.247 37.695 332.400 37.695 L 313.552 37.695 313.552 56.542 L 313.552 75.390 257.010 75.390 L 200.468 75.390 200.468 56.542 L 200.468 37.695 181.620 37.695 L 162.773 37.695 162.773 56.533 M124.222 185.003 L 124.222 203.853 222.546 204.088 L 320.871 204.323 326.580 207.133 C 333.617 210.598,339.313 216.672,341.859 223.426 C 344.498 230.424,343.958 240.974,340.630 247.463 C 336.075 256.341,327.941 262.284,318.148 263.888 C 315.234 264.365,283.613 264.719,242.874 264.730 C 167.247 264.752,167.166 264.756,155.950 269.286 C 136.293 277.226,121.048 294.478,115.512 315.047 C 113.001 324.377,113.004 340.434,115.519 349.779 C 121.408 371.667,138.722 389.831,160.917 397.408 L 167.485 399.651 278.658 399.883 L 389.832 400.116 389.601 381.464 L 389.370 362.812 281.426 362.384 L 173.482 361.956 169.198 359.988 C 163.820 357.518,157.328 351.262,154.350 345.678 C 152.291 341.819,152.064 340.504,152.064 332.400 C 152.064 324.311,152.294 322.969,154.346 319.082 C 157.431 313.236,163.075 307.752,168.770 305.066 L 173.482 302.843 248.871 302.387 C 323.076 301.939,324.366 301.902,330.927 300.060 C 344.139 296.350,353.516 290.689,363.017 280.688 C 380.406 262.382,386.065 237.299,378.314 212.890 C 371.812 192.416,354.017 175.262,332.400 168.629 L 325.974 166.658 225.098 166.405 L 124.222 166.152 124.222 185.003 " stroke="none" fill-rule="evenodd" fill="black"></path></svg>