<svg width="136mm" height="120mm" version="1.1" viewBox="0 0 600 529.4117647058824" xmlns="http://www.w3.org/2000/svg"><path d="M162.773 56.542 L 162.773 75.390 125.078 75.390 L 87.383 75.390 87.383 94.237 L 87.383 113.084 125.078 113.084 L 162.773 113.084 162.773 131.932 L 162.773 150.779 181.620 150.779 L 200.468 150.779 200.468 131.932 L 200.468 113.084 257.010 113.084 L 313.552 113.084 313.552 131.932 L 313.552 150.779 332.400 150.779 L 351.247 150.779 351.247 131.932 L 351.247 113.084 388.942 113.084 L 426.637 113.084 426.637 94.237 L 426.637 75.390 388.942 75.390 L 351.247 75.390 351.247 56.542 L 351.247 37.695 332.400 37.695 L 313.552 37.695 313.552 56.542 L 313.552 75.390 257.010 75.390 L 200.468 75.390 200.468 56.542 L 200.468 37.695 181.620 37.695 L 162.773 37.695 162.773 56.542 M125.078 185.009 L 125.078 203.866 222.956 204.095 L 320.834 204.323 325.696 206.602 C 332.198 209.650,337.844 215.021,340.735 220.907 C 342.848 225.210,343.108 226.680,343.108 234.307 C 343.108 242.440,342.959 243.149,340.170 248.294 C 335.437 257.023,328.028 262.269,318.148 263.888 C 315.231 264.365,283.911 264.712,243.481 264.715 C 184.436 264.720,172.876 264.919,167.516 266.026 C 140.798 271.545,119.354 293.451,114.742 319.939 C 113.477 327.201,114.172 345.009,115.930 350.390 C 120.065 363.046,125.421 372.151,133.464 380.194 C 141.552 388.281,150.278 393.548,162.345 397.625 L 168.342 399.651 278.642 399.884 L 388.942 400.116 388.942 381.263 L 388.942 362.410 281.212 362.183 L 173.482 361.956 168.607 359.562 C 162.262 356.446,155.766 349.358,153.328 342.891 C 150.726 335.990,151.211 325.310,154.408 319.082 C 157.385 313.285,163.033 307.772,168.770 305.066 L 173.482 302.843 248.443 302.387 C 322.782 301.935,323.461 301.915,330.258 300.012 C 353.567 293.484,370.055 278.145,378.110 255.493 C 380.645 248.366,380.771 247.391,380.786 234.736 C 380.805 220.193,379.528 214.056,374.375 203.925 C 365.211 185.904,351.515 174.896,329.401 167.776 C 326.706 166.908,304.542 166.617,225.526 166.412 L 125.078 166.152 125.078 185.009 " stroke="none" fill-rule="evenodd" fill="black"></path></svg>