<svg width="136mm" height="120mm" version="1.1" viewBox="0 0 600 529.4117647058824" xmlns="http://www.w3.org/2000/svg"><path d="M275.857 202.001 L 275.857 290.918 254.701 283.812 C 243.065 279.903,233.284 276.997,232.964 277.352 C 232.168 278.239,220.981 312.077,221.359 312.455 C 221.526 312.622,242.337 319.652,267.607 328.079 L 313.552 343.400 313.552 228.242 L 313.552 113.084 294.705 113.084 L 275.857 113.084 275.857 202.001 M196.585 140.696 C 196.356 141.294,196.269 167.613,196.391 199.183 L 196.613 256.582 215.460 256.582 L 234.307 256.582 234.307 198.326 L 234.307 140.070 215.654 139.840 C 201.196 139.661,196.907 139.853,196.585 140.696 " stroke="none" fill-rule="evenodd" fill="black"></path></svg>