<svg width="136mm" height="120mm" version="1.1" viewBox="0 0 600 529.4117647058824" xmlns="http://www.w3.org/2000/svg"><path d="M166.200 151.208 L 166.200 170.483 211.177 170.483 L 256.155 170.483 216.793 249.204 C 195.144 292.500,177.667 328.160,177.955 328.449 C 178.724 329.217,373.521 329.090,373.521 328.321 C 373.521 327.800,344.573 240.464,343.158 236.714 C 342.892 236.011,337.503 237.442,325.807 241.321 C 316.475 244.415,308.508 247.250,308.102 247.620 C 307.695 247.990,310.490 257.676,314.313 269.143 C 318.135 280.611,321.262 290.283,321.262 290.636 C 321.262 290.989,302.758 291.278,280.141 291.278 C 253.239 291.278,239.019 290.981,239.019 290.419 C 239.019 289.947,256.753 254.094,278.428 210.746 L 317.838 131.932 242.019 131.932 L 166.200 131.932 166.200 151.208 " stroke="none" fill-rule="evenodd" fill="black"></path></svg>