<svg width="136mm" height="120mm" version="1.1" viewBox="0 0 600 529.4117647058824" xmlns="http://www.w3.org/2000/svg"><path d="M166.200 150.779 L 166.200 169.627 211.177 169.627 C 240.655 169.627,256.153 169.922,256.153 170.485 C 256.153 170.957,238.612 206.424,217.173 249.300 C 195.735 292.175,178.194 327.642,178.194 328.114 C 178.194 328.683,211.178 328.973,275.857 328.973 C 329.572 328.973,373.521 328.680,373.521 328.321 C 373.521 327.800,344.573 240.464,343.158 236.714 C 342.892 236.011,337.503 237.442,325.807 241.321 C 316.475 244.415,308.508 247.250,308.102 247.620 C 307.555 248.118,316.565 277.151,321.052 289.350 C 321.364 290.198,312.842 290.421,280.233 290.421 C 257.565 290.421,239.019 290.228,239.019 289.991 C 239.019 289.755,256.753 254.094,278.428 210.746 L 317.838 131.932 242.019 131.932 L 166.200 131.932 166.200 150.779 " stroke="none" fill-rule="evenodd" fill="black"></path></svg>